<?xml version="1.0" encoding="UTF-8" ?>
<!DOCTYPE svg PUBLIC "-//W3C//DTD SVG 1.1//EN" "http://www.w3.org/Graphics/SVG/1.1/DTD/svg11.dtd" [
     <!ENTITY stroke_color "#000000">
     <!ENTITY fill_color "#FFFFFF">
 ]>

<svg
   xmlns="http://www.w3.org/2000/svg"
   x="0px"
   y="0px"
   width="55"
   height="55"
   >

<path
 d="m 11.265531,19.751004 v -4.034602 c 0,-4.48289 1.216784,-7.662967 3.650352,-9.5421521 2.219353,-1.6650738 5.229294,-2.5186373 9.029824,-2.5616516 0.51233,0 1.590038,0 3.234086,0 1.643192,0 4.055628,0.1710968 7.236772,0.5123307 3.17997,0.3421937 5.731589,0.7904829 7.652828,1.344867 v 7.044543 c -4.86714,-0.426303 -8.74153,-0.640414 -11.623389,-0.640414 -2.881857,0 -4.429842,0 -4.642993,0 -1.921239,0 -3.330147,0.256165 -4.226832,0.768495 -0.896471,0.512331 -1.344867,1.772237 -1.344867,3.778438 v 2.305486 c 0,1.793156 0.362261,2.988914 1.088702,3.586313 0.725481,0.598358 2.027227,0.896577 3.90652,0.896577 h 7.428789 c 4.867138,0 8.133137,1.943332 9.798318,5.827758 0.853564,1.96436 1.280826,4.162684 1.280826,6.59636 v 3.138024 c 0,5.721555 -1.900319,9.457084 -5.699676,11.207225 -1.964252,0.938526 -4.376796,1.408802 -7.236666,1.408802 -7.72797,0 -13.768877,-0.640413 -18.123685,-1.92124 v -7.044541 c 4.696041,0.470277 8.794577,0.704455 12.295928,0.704455 3.500177,0 5.539465,-0.04195 6.115943,-0.127977 0.576265,-0.08507 1.162776,-0.256166 1.761135,-0.512437 1.280827,-0.554278 1.921239,-1.6861 1.921239,-3.394081 v -2.497611 c 0,-2.219457 -0.704561,-3.586313 -2.113362,-4.098644 -0.555345,-0.213043 -1.259906,-0.320205 -2.11347,-0.320205 H 23.369334 C 15.300133,32.175014 11.265531,28.034318 11.265531,19.751004 z"
    style="fill:&fill_color;stroke:&stroke_color;stroke-width:3.5; "/>
</svg>
