<?xml version="1.0" encoding="utf-8"?>
<!-- Generator: Adobe Illustrator 13.0.0, SVG Export Plug-In . SVG Version: 6.00 Build 14948)  -->
<!DOCTYPE svg PUBLIC "-//W3C//DTD SVG 1.1//EN" "http://www.w3.org/Graphics/SVG/1.1/DTD/svg11.dtd" [
    <!ENTITY ns_svg "http://www.w3.org/2000/svg">
    <!ENTITY ns_xlink " http://www.w3.org/1999/xlink">
    <!ENTITY stroke_color "#000000">
    <!ENTITY fill_color "#FFFFFF">
]>
<svg version="1.1" id="NES" xmlns="http://www.w3.org/2000/svg" xmlns:xlink="http://www.w3.org/1999/xlink" x="0px" y="0px"
	 width="55px" height="55px" viewBox="0 0 55 55" style="enable-background:new 0 0 55 55;" xml:space="preserve">
<polygon style="fill:&fill_color;;stroke:&stroke_color;;stroke-width:3.5;" points="47,6.938 47,40.625 43.625,41.875 43.625,47.25 
	9.375,47.25 9.375,41.625 6.375,40.125 6.375,10.375 9.375,7 15.625,7 15.75,8.5 23,8.5 25,6.938 "/>
<polygon style="fill:none;stroke:&stroke_color;;stroke-width:1.5;" points="27.288,36.98 28.216,37.895 29.107,36.98 "/>
<polygon style="fill:none;stroke:&stroke_color;;stroke-width:3.5;" points="39.667,32.631 39.667,7.2 26,7.2 23.5,9.417 23.5,32.631 "/>
<line style="fill:none;stroke:&stroke_color;;stroke-width:2.5;" x1="14" y1="8" x2="14" y2="47"/>
<line style="fill:none;stroke:&stroke_color;;stroke-width:2.5;" x1="23" y1="34" x2="23" y2="47"/>
<line style="fill:none;stroke:&stroke_color;;stroke-width:3.5;" x1="14.5" y1="13.833" x2="22.833" y2="13.833"/>
<line style="fill:none;stroke:&stroke_color;;stroke-width:3.5;" x1="14.5" y1="19.333" x2="22.833" y2="19.333"/>
<line style="fill:none;stroke:&stroke_color;;stroke-width:3.5;" x1="14.5" y1="24.833" x2="22.833" y2="24.833"/>
<line style="fill:none;stroke:&stroke_color;;stroke-width:3.5;" x1="14.5" y1="30.334" x2="22.833" y2="30.334"/>
<line style="fill:none;stroke:&stroke_color;;stroke-width:3.5;" x1="14.5" y1="35.834" x2="22.833" y2="35.834"/>
<line style="fill:none;stroke:&stroke_color;;stroke-width:3.5;" x1="14.5" y1="41.334" x2="22.833" y2="41.334"/>
</svg>
