<?xml version="1.0" ?><!DOCTYPE svg  PUBLIC '-//W3C//DTD SVG 1.1//EN'  'http://www.w3.org/Graphics/SVG/1.1/DTD/svg11.dtd' [
	<!ENTITY stroke_color "#000">
	<!ENTITY fill_color "#eee">
]>
<svg
   xmlns:dc="http://purl.org/dc/elements/1.1/"
   xmlns:cc="http://creativecommons.org/ns#"
   xmlns:rdf="http://www.w3.org/1999/02/22-rdf-syntax-ns#"
   xmlns:svg="http://www.w3.org/2000/svg"
   xmlns="http://www.w3.org/2000/svg"
   version="1.1"
   width="55"
   height="55"
   viewBox="0 0 55 55"
   id="svg3051">
  <metadata
     id="metadata3069">
    <rdf:RDF>
      <cc:Work
         rdf:about="">
        <dc:format>image/svg+xml</dc:format>
        <dc:type
           rdf:resource="http://purl.org/dc/dcmitype/StillImage" />
        <dc:title></dc:title>
      </cc:Work>
    </rdf:RDF>
  </metadata>
  <defs
     id="defs3067" />
  <g
     id="g3787">
    <path
       d="m 27.904,11.023 -0.002,0 c 0,-0.002 -1.71,-2.053 -9.376,-2.504 C 10.86,8.07 6.843,10.121 6.84,10.122 4.942,10.741 3.345,11.857 3.345,13.616 l 0,27.702 c 0,2.025 1.235,3.494 3.495,3.494 0.003,0 4.41,-1.35 10.004,-1.35 5.589,-0.001 11.061,2.253 11.061,2.253"
       id="path3053"
       style="fill:&fill_color;;stroke:&stroke_color;;stroke-width:3.5;stroke-linecap:round;stroke-linejoin:round" />
    <path
       d="m 27.898,11.023 0,0 c 0,-0.002 1.715,-2.053 9.377,-2.504 7.668,-0.449 11.686,1.602 11.688,1.603 1.897,0.619 3.494,1.735 3.494,3.494 l 0,27.702 c 0,2.025 -1.233,3.494 -3.494,3.494 -0.003,0 -4.409,-1.35 -10.004,-1.35 -5.589,-0.001 -11.062,2.253 -11.062,2.253"
       id="path3055"
       style="fill:&fill_color;;stroke:&stroke_color;;stroke-width:3.5;stroke-linecap:round;stroke-linejoin:round" />
  </g>
  <path
     d="m 27.7767,10.8997 0.2486,0.241"
     id="path3057"
     style="fill:none" />
  <path
     d="m 32.5655,41.417371 c 0,0 -0.031,2.906 -4.666,2.906 -4.632,0 -4.663,-2.906 -4.663,-2.906"
     id="path3059"
     style="fill:none" />
  <path
     d="m 45.472267,22.805922 c 0,0.101452 -0.04017,0.193045 -0.117443,0.277158 -0.08042,0.08173 -0.163808,0.123756 -0.259681,0.123756 -0.76962,0.05943 -1.403199,0.257439 -1.891568,0.596476 -0.491425,0.336589 -0.995249,0.982567 -1.517584,1.932902 l -7.974305,14.389264 c -0.05248,0.133615 -0.197776,0.200457 -0.43886,0.200457 -0.18852,0 -0.333816,-0.06684 -0.438861,-0.200457 l -4.472421,-7.48913 -5.14311,7.48913 c -0.105129,0.133615 -0.25034,0.200457 -0.438945,0.200457 -0.228687,0 -0.380097,-0.06684 -0.454316,-0.200457 L 14.489967,25.736214 c -0.48837,-0.893421 -1.004505,-1.517096 -1.548496,-1.871024 -0.540891,-0.353928 -1.298145,-0.574173 -2.265567,-0.658354 -0.08345,0 -0.163809,-0.03461 -0.234903,-0.106416 -0.07418,-0.06929 -0.111269,-0.150955 -0.111269,-0.242548 0,-0.235068 0.08345,-0.351412 0.250358,-0.351412 0.698525,0 1.427953,0.02475 2.191381,0.07425 0.707791,0.05195 1.375423,0.0767 1.999746,0.0767 0.636721,0 1.387744,-0.02475 2.253237,-0.0767 0.905574,-0.0495 1.709161,-0.07425 2.407704,-0.07425 0.16695,0 0.25034,0.116344 0.25034,0.351412 0,0.232688 -0.05248,0.348964 -0.154552,0.348964 -0.698457,0.04209 -1.248647,0.185634 -1.650483,0.425734 -0.401751,0.242548 -0.602669,0.559281 -0.602669,0.952851 0,0.200458 0.08348,0.450417 0.250341,0.749879 l 6.475232,11.708863 3.675033,-5.558676 -3.424692,-5.749273 c -0.615067,-1.024589 -1.121948,-1.687906 -1.517585,-1.984852 -0.395552,-0.294566 -0.995164,-0.477684 -1.798836,-0.544526 -0.07413,0 -0.142154,-0.03461 -0.210174,-0.106416 -0.06802,-0.06929 -0.101988,-0.150955 -0.101988,-0.242548 0,-0.235068 0.07108,-0.351412 0.219431,-0.351412 0.698542,0 1.338321,0.02475 1.922478,0.07425 0.562587,0.05195 1.162199,0.0767 1.79892,0.0767 0.624324,0 1.285757,-0.02475 1.984299,-0.0767 0.720112,-0.0495 1.42791,-0.07425 2.126453,-0.07425 0.166865,0 0.250341,0.116344 0.250341,0.351412 0,0.232688 -0.04942,0.348964 -0.154553,0.348964 -1.397,0.07677 -2.095542,0.393503 -2.095542,0.952852 0,0.249959 0.160751,0.638566 0.485226,1.163236 l 2.26555,3.682687 2.253237,-3.368401 c 0.312162,-0.475168 0.469771,-0.876083 0.469771,-1.202811 0,-0.767218 -0.698458,-1.175545 -2.095542,-1.227563 -0.126699,0 -0.18852,-0.116276 -0.18852,-0.348964 0,-0.08411 0.03091,-0.16333 0.09273,-0.237584 0.06488,-0.0767 0.126699,-0.113828 0.18852,-0.113828 0.500681,0 1.115749,0.02475 1.845202,0.07425 0.698542,0.05195 1.273443,0.0767 1.72156,0.0767 0.321502,0 0.797472,-0.02224 1.421796,-0.06433 0.791273,-0.05691 1.455763,-0.08663 1.98744,-0.08663 0.123557,0 0.185378,0.09901 0.185378,0.299462 0,0.267299 -0.114301,0.400914 -0.343072,0.400914 -0.812843,0.06684 -1.468077,0.247512 -1.962643,0.539562 -0.494569,0.29205 -1.112693,0.955299 -1.851402,1.989816 l -3.004259,4.447457 4.067528,6.635283 6.005461,-11.181744 c 0.207032,-0.408326 0.312161,-0.78449 0.312161,-1.126042 0,-0.819236 -0.698542,-1.252314 -2.095626,-1.304332 -0.126699,0 -0.18852,-0.116276 -0.18852,-0.348964 0,-0.235068 0.09273,-0.351412 0.281251,-0.351412 0.510022,0 1.115833,0.02475 1.814291,0.07425 0.645978,0.05195 1.189968,0.0767 1.625771,0.0767 0.4606,0 0.992193,-0.02475 1.594862,-0.0767 0.627465,-0.0495 1.189968,-0.07425 1.690733,-0.07425 0.145212,0 0.219431,0.09901 0.219431,0.299462 z"
     id="path3061"
     style="fill:&stroke_color;;stroke:none" />
  <path
     d="m 27.8945,40.212071 0.013,5.3166"
     id="path3063"
     style="fill:none" />
  <g
     transform="translate(108.63475,17.748227)"
     id="g3782">
    <rect
       width="18.94158"
       height="15.177628"
       ry="5.5471544"
       x="-75.266121"
       y="19.521114"
       id="rect2991"
       style="fill:#ffffff;fill-opacity:1;stroke:&stroke_color;;stroke-width:3;stroke-linejoin:round;stroke-miterlimit:4;stroke-opacity:1;stroke-dasharray:none" />
    <text
       x="-73.397873"
       y="30.754948"
       id="text3841"
       xml:space="preserve"
       style="font-size:10px;font-style:normal;font-weight:bold;line-height:125%;letter-spacing:0px;word-spacing:0px;fill:&stroke_color;;fill-opacity:1;stroke:none;font-family:Bitstream Vera Sans;-inkscape-font-specification:Bitstream Vera Sans Bold"><tspan
         x="-73.397873"
         y="30.754948"
         id="tspan3843">EN</tspan></text>
  </g>
  <text
     x="8.5528555"
     y="19.921907"
     id="text3841-9"
     xml:space="preserve"
     style="font-size:10px;font-style:normal;font-weight:bold;line-height:125%;letter-spacing:0px;word-spacing:0px;fill:&stroke_color;;fill-opacity:1;stroke:none;font-family:Bitstream Vera Sans;-inkscape-font-specification:Bitstream Vera Sans Bold"><tspan
       x="8.5528555"
       y="19.921907"
       id="tspan3843-6">Simple</tspan></text>
</svg>
