<?xml version="1.0" encoding="UTF-8"?>
<!DOCTYPE svg PUBLIC "-//W3C//DTD SVG 1.1//EN" "http://www.w3.org/Graphics/SVG/1.1/DTD/svg11.dtd" [
  <!ENTITY fill_color "#FFFFFF">
  <!ENTITY stroke_color "#000000">
]>
<svg
   xmlns="http://www.w3.org/2000/svg"
   width="40"
   height="40"
   viewBox="0 0 104.056 96.896">
    <path
        transform="matrix(-0.961271,0,0,0.983383,102.0055,0.950173)"
       style="stroke:&stroke_color;;stroke-width:3.90209982;fill:&fill_color;;fill-opacity:1;stroke-opacity:1;"
       d="M 13.685843,38.659961 C 13.691611,38.623576 13.694495,38.583257 13.699301,38.545888 C 6.5272579,31.127247 8.3075318,26.76496 10.34062,22.277784 C 14.452937,23.52963 18.00964,27.498564 19.322736,28.67764 C 19.647646,28.968721 19.816829,29.07296 19.887964,29.052309 C 19.890847,29.050342 19.89277,29.050342 19.894692,29.049359 C 20.093676,28.957904 19.420786,27.736543 19.420786,27.010806 C 19.420786,24.227832 17.993298,20.401489 23.464853,15.632081 C 27.684833,19.214545 30.181253,22.822578 30.612864,27.400226 C 32.259521,27.383508 33.965777,27.401209 35.710484,27.401209 C 36.602544,27.401209 53.935221,27.401209 53.935221,27.401209 C 56.275916,27.401209 58.122518,27.404159 59.713421,27.452345 L 73.775855,5.8975729 C 76.712537,1.332709 82.71183,0.068078449 87.17405,3.0732969 C 89.851189,4.8758379 91.35654,7.8063193 91.506498,10.847923 L 100.01375,15.046968 C 102.03049,16.237845 102.03049,18.18691 100.01375,19.37877 L 87.255758,22.745874 L 81.440068,35.695061 C 83.073268,37.577256 84.347913,39.908857 85.254392,41.925776 C 90.820151,54.812027 81.534273,70.628759 66.711474,74.560324 C 68.771478,80.417353 71.521674,88.236231 71.521674,88.236231 C 71.531287,88.265733 71.538016,88.297201 71.547628,88.326703 C 72.889563,88.910832 80.3298,92.002588 80.3298,94.108011 C 80.3298,94.861283 80.150043,95.744361 79.291628,95.744361 L 64.62071,95.744361 C 63.347987,95.744361 63.371057,94.214217 62.307892,91.626936 L 56.696953,75.67253 C 55.271388,75.489621 53.850629,75.257543 52.44429,74.933026 C 50.647674,74.518039 48.870284,73.991929 47.11981,73.360597 C 46.217176,73.02133 45.303969,72.654528 44.3898,72.275925 C 43.143032,76.272394 40.285173,85.424739 39.152796,89.060306 C 39.991024,89.518563 46.465184,92.000622 46.465184,94.106045 C 46.465184,95.108112 45.882654,95.742394 45.144398,95.742394 L 30.755132,95.742394 C 29.482409,95.742394 28.166429,93.650738 28.313504,92.066508 C 28.438469,90.698622 28.790294,89.847996 29.343986,87.545897 L 35.458631,67.95199 C 34.541579,67.439648 33.629332,66.914521 32.731505,66.365794 C 26.082394,62.218867 20.108095,57.701206 16.412008,50.840143 C 6.6637584,49.600097 3.3300706,45.815056 2.4870359,39.1133 C 4.6393217,36.911506 8.6920402,37.471051 13.685843,38.659961 z M 81.163222,15.618314 C 83.125176,15.618314 84.71608,13.991798 84.71608,11.984714 C 84.71608,9.9766456 83.125176,8.3501301 81.163222,8.3501301 C 79.200307,8.3501301 77.611326,9.9766456 77.611326,11.984714 C 77.611326,13.991798 79.200307,15.618314 81.163222,15.618314 z " />
</svg>