<?xml version="1.0" encoding="UTF-8"?>
<!DOCTYPE svg PUBLIC "-//W3C//DTD SVG 1.1//EN" "http://www.w3.org/Graphics/SVG/1.1/DTD/svg11.dtd" [
<!ENTITY fill_color "#FFFFFF">
<!ENTITY stroke_color "#010101">
]>
<svg
   xmlns:i="http://ns.adobe.com/AdobeIllustrator/10.0/"
   xmlns:dc="http://purl.org/dc/elements/1.1/"
   xmlns:cc="http://creativecommons.org/ns#"
   xmlns:rdf="http://www.w3.org/1999/02/22-rdf-syntax-ns#"
   xmlns:svg="http://www.w3.org/2000/svg"
   xmlns="http://www.w3.org/2000/svg"
   xmlns:sodipodi="http://sodipodi.sourceforge.net/DTD/sodipodi-0.dtd"
   xmlns:inkscape="http://www.inkscape.org/namespaces/inkscape"
   version="1.1"
   width="62"
   height="60"
   viewBox="0 0 62 60"
   id="svg2"
   xml:space="preserve"
   inkscape:version="0.48.2 r9819"
   sodipodi:docname="activity-jamedit.svg"><sodipodi:namedview
     pagecolor="&fill_color;"
     bordercolor="#666666"
     borderopacity="1"
     objecttolerance="10"
     gridtolerance="10"
     guidetolerance="10"
     inkscape:pageopacity="0"
     inkscape:pageshadow="2"
     inkscape:window-width="1280"
     inkscape:window-height="746"
     id="namedview23"
     showgrid="false"
     inkscape:zoom="6.3280823"
     inkscape:cx="26.751055"
     inkscape:cy="26.982428"
     inkscape:window-x="0"
     inkscape:window-y="26"
     inkscape:window-maximized="1"
     inkscape:current-layer="g6167" /><g
     transform="translate(60.127119,11.292373)"
     id="activity-browse"
     style="display:block">
	
	<g
   transform="translate(-128.87712,-22.838983)"
   id="g7"
   style="display:inline">
		
		
		
		
		
		
	<g
   transform="matrix(0.10822504,0,0,0.09945444,61.358446,34.085169)"
   id="g6167"><g
     transform="matrix(8.3714161,0,0,9.9677268,214.29587,-254.0408)"
     id="clipping-text"
     style="display:block"><g
       id="g4127"
       style="display:inline;stroke:&stroke_color;;stroke-opacity:1"><g
         id="g4129"
         style="stroke:&stroke_color;;stroke-opacity:1"><polygon
           points="10.932,6.088 31.874,6.088 43.818,18.027 43.818,48.914 10.932,48.914 "
           id="polygon4131"
           style="fill:&fill_color;;stroke:&stroke_color;;stroke-width:3.50000000000000000;stroke-opacity:1" /><polyline
           style="fill:none;stroke:&stroke_color;;stroke-width:3.50000000000000000;stroke-opacity:1"
           points="43.818,18.027 31.874,18.027 31.874,6.088    "
           id="polyline4133" /></g></g><line
       style="fill:none;stroke:&stroke_color;;stroke-width:3.50000000000000000;display:inline;stroke-opacity:1"
       display="inline"
       x1="17.875"
       x2="36.875"
       y1="26.25"
       y2="26.25"
       id="line4135" /><line
       style="fill:none;stroke:&stroke_color;;stroke-width:3.50000000000000000;display:inline;stroke-opacity:1"
       display="inline"
       x1="17.875"
       x2="36.875"
       y1="33.25"
       y2="33.25"
       id="line4137" /><line
       style="fill:none;stroke:&stroke_color;;stroke-width:3.50000000000000000;display:inline;stroke-opacity:1"
       display="inline"
       x1="17.875"
       x2="36.875"
       y1="40.25"
       y2="40.25"
       id="line4139" /></g><g
     id="g12206"
     transform="matrix(4.3069906,0,0,4.9903222,-1152.8362,-1140.643)"><path
       d="m 325.96875,243.9375 c -0.92219,0.005 -1.79444,0.38082 -2.4375,1.03125 -0.64585,0.65097 -1.00565,1.52397 -1,2.4375 0,0.10537 -0.001,3.63619 0,6.75 l -20,0 c -3.28583,0 -5.96875,2.68202 -5.96875,5.96875 l 0,1.96875 -8.3125,0.0312 c -1.89041,0.008 -3.47561,1.53439 -3.46875,3.4375 0.005,0.9228 0.38216,1.79462 1.03125,2.4375 0.65125,0.64556 1.52427,1.00565 2.4375,1 0.13205,-10e-6 4.80478,0.002 8.3125,0 l 0,11.4375 0,0.0312 c -7.6e-4,0.0543 0,0.10781 0,0.125 -10e-6,0.25352 0.0265,7.62089 0.0312,10.75 -0.0868,-8e-5 -0.34375,0 -0.34375,0 a 0.84615704,0.84615704 0 0 0 -0.0312,0 c -1.91528,0.0394 -3.44277,1.63389 -3.40625,3.53125 0.0373,1.88541 1.62836,3.36376 3.5,3.34375 0.0106,-1.1e-4 0.0206,2.1e-4 0.0312,0 l 3.71875,0 a 0.84615704,0.84615704 0 0 0 0.0312,0 c 1.90469,-0.0359 3.39433,-1.62669 3.375,-3.5 -1.1e-4,-0.0106 2.1e-4,-0.0206 0,-0.0312 l 0,-7.6875 19.0625,0 0,7.6875 c -2e-4,0.0106 10e-5,0.0207 0,0.0312 -0.0182,1.87272 1.47031,3.46411 3.375,3.5 a 0.84615704,0.84615704 0 0 0 0.0312,0 l 3.71875,0 c 0.0106,2.1e-4 0.0207,-1.1e-4 0.0312,0 1.8719,0.02 3.46266,-1.4585 3.5,-3.34375 0.0377,-1.89767 -1.49083,-3.49181 -3.40625,-3.53125 a 0.84615704,0.84615704 0 0 0 -0.0312,0 c 0,0 -0.25695,-8e-5 -0.34375,0 0.004,-2.67201 0.0301,-8.54239 0.0312,-10.28125 l 0,-0.0312 0,-20.90625 c 0,-0.002 9e-5,-0.038 0,-0.0625 l 0,-0.0312 -0.0312,-12.65625 c -0.01,-1.88963 -1.54597,-3.44433 -3.4375,-3.4375 z"
       id="path12204"
       style="fill:&fill_color;;fill-opacity:1;stroke:&stroke_color;;stroke-width:2.91072248999999994;stroke-linejoin:round;stroke-miterlimit:4;stroke-opacity:1;stroke-dasharray:none"
       inkscape:original="M 325.96875 244.78125 C 325.27314 244.7847 324.61448 245.06741 324.125 245.5625 C 323.63467 246.05672 323.37069 246.70976 323.375 247.40625 C 323.375 247.53605 323.37241 251.58398 323.375 255 L 302.53125 255 C 299.70346 255 297.40625 257.29635 297.40625 260.125 L 297.40625 262.9375 L 288.25 262.96875 C 286.80916 262.97521 285.61983 264.12899 285.625 265.5625 C 285.62846 266.259 285.91117 266.9159 286.40625 267.40625 C 286.90091 267.89659 287.55394 268.16056 288.25 268.15625 C 288.4061 268.15624 293.82246 268.15884 297.40625 268.15625 L 297.40625 280.46875 C 297.40497 280.50843 297.40625 280.55407 297.40625 280.59375 C 297.40624 280.76926 297.4362 289.63573 297.4375 292.1875 C 296.86263 292.18837 296.25 292.1875 296.25 292.1875 C 294.78371 292.21767 293.62864 293.40937 293.65625 294.84375 C 293.68471 296.2807 294.87726 297.40346 296.3125 297.375 L 300.0625 297.375 C 301.52708 297.3474 302.65303 296.15485 302.625 294.71875 L 302.625 286.15625 L 323.375 286.15625 L 323.375 294.71875 C 323.34783 296.15484 324.47293 297.3474 325.9375 297.375 L 329.6875 297.375 C 331.12316 297.40345 332.31529 296.28071 332.34375 294.84375 C 332.37221 293.40979 331.21629 292.21769 329.75 292.1875 C 329.74999 292.18749 329.13694 292.18837 328.5625 292.1875 C 328.56336 289.96091 328.59246 282.93676 328.59375 281.0625 C 328.59376 281.06033 328.59375 281.03384 328.59375 281.03125 L 328.59375 260.125 C 328.59376 260.10817 328.59418 260.07889 328.59375 260.0625 L 328.5625 247.375 C 328.55515 245.93372 327.40356 244.77607 325.96875 244.78125 z "
       inkscape:radius="0.84607244"
       sodipodi:type="inkscape:offset"
       transform="translate(18.590396,-5.6226252)" /><path
       inkscape:connector-curvature="0"
       d="m 334.99702,256.29924 c 0.9656,-0.13714 1.86004,0.53391 1.99675,1.50036 0.13671,0.96646 -0.53477,1.85918 -1.50036,1.99718 -0.96603,0.13628 -1.85917,-0.53477 -1.99675,-1.50079 -0.13671,-0.9656 0.5352,-1.86004 1.50036,-1.99675 z"
       id="path10092"
       style="stroke:none;stroke-opacity:1;fill:&stroke_color;;fill-opacity:1" /><path
       inkscape:connector-curvature="0"
       d="m 325.80856,257.60252 c 0.96559,-0.13628 1.8596,0.53563 1.99631,1.50079 0.13671,0.96516 -0.53477,1.86003 -1.50036,1.99631 -0.96517,0.13714 -1.8596,-0.5339 -1.99631,-1.50036 -0.13715,-0.96516 0.53476,-1.8596 1.50036,-1.99674 z"
       id="path10094"
       style="stroke:none;stroke-opacity:1;fill:&stroke_color;;fill-opacity:1" /><path
       inkscape:connector-curvature="0"
       d="m 328.14212,272.50478 c -1.65907,-1.18166 -4.29149,-4.48427 -3.34487,-6.73071 0.33336,-0.78835 1.06953,-0.29973 1.86952,0.10609 1.91178,0.97034 4.18669,1.09756 6.2257,0.48258 1.03804,-0.31352 1.92558,-0.81853 2.76956,-1.49691 0.51407,-0.41271 1.91567,-2.061 2.68849,-1.31405 0.60031,0.58134 0.70425,1.30543 0.70425,1.30888 0.86554,5.52964 -5.9816,11.15631 -10.91265,7.64412 z"
       id="path10096"
       style="stroke:none;stroke-opacity:1;fill:&stroke_color;;fill-opacity:1" /><path
       inkscape:connector-curvature="0"
       i:knockout="Off"
       d="m 313.27177,233.27244 c 2.82261,-4.83315 11.68418,-4.8711 13.28934,0.96603 0.53951,1.96353 0.49423,6.18775 -1.65863,7.32973 -0.75644,0.40193 -1.01908,-0.44205 -1.38263,-1.26187 -0.86942,-1.96009 -2.55264,-3.49495 -4.52221,-4.30659 -1.00183,-0.41271 -2.00968,-0.58134 -3.09129,-0.58867 -0.6594,-0.004 -2.78725,0.38814 -2.91447,-0.67881 -0.0988,-0.82974 0.27946,-1.45809 0.27989,-1.45982 z"
       id="path10098"
       style="fill:&fill_color;;fill-opacity:1;stroke:&stroke_color;;stroke-width:2.03958488000000004;stroke-miterlimit:4;stroke-opacity:1;stroke-dasharray:none" /><path
       inkscape:connector-curvature="0"
       i:knockout="Off"
       d="m 333.84944,245.28266 c -6.18775,-5.04534 -4.28545,-17.54158 4.29623,-18.51365 2.88557,-0.32776 8.82793,0.66975 9.96301,3.95467 0.39978,1.15492 -0.84872,1.33864 -2.08342,1.66942 -2.95501,0.79352 -5.48954,2.82606 -7.06752,5.42182 -0.80345,1.32139 -1.26274,2.70445 -1.51244,4.2268 -0.1518,0.92808 -0.069,4.01376 -1.59998,3.95726 -1.19072,-0.0431 -1.9933,-0.71546 -1.99588,-0.71632 z"
       id="path10100"
       style="fill:&fill_color;;fill-opacity:1;stroke:&stroke_color;;stroke-width:2.03958488000000004;stroke-miterlimit:4;stroke-opacity:1;stroke-dasharray:none" /></g></g></g>
</g></svg>
