<?xml version="1.0" ?><!DOCTYPE svg  PUBLIC '-//W3C//DTD SVG 1.1//EN'  'http://www.w3.org/Graphics/SVG/1.1/DTD/svg11.dtd' [
	<!ENTITY stroke_color "#000">
	<!ENTITY fill_color "#eee">
]>
<svg
   xmlns:dc="http://purl.org/dc/elements/1.1/"
   xmlns:cc="http://creativecommons.org/ns#"
   xmlns:rdf="http://www.w3.org/1999/02/22-rdf-syntax-ns#"
   xmlns:svg="http://www.w3.org/2000/svg"
   xmlns="http://www.w3.org/2000/svg"
   version="1.1"
   width="55"
   height="55"
   viewBox="0 0 55 55"
   id="svg3051">
  <metadata
     id="metadata3069">
    <rdf:RDF>
      <cc:Work
         rdf:about="">
        <dc:format>image/svg+xml</dc:format>
        <dc:type
           rdf:resource="http://purl.org/dc/dcmitype/StillImage" />
        <dc:title></dc:title>
      </cc:Work>
    </rdf:RDF>
  </metadata>
  <defs
     id="defs3067" />
  <path
     d="m 27.904,11.023 -0.002,0 c 0,-0.002 -1.71,-2.053 -9.376,-2.504 C 10.86,8.07 6.843,10.121 6.84,10.122 4.942,10.741 3.345,11.857 3.345,13.616 l 0,27.702 c 0,2.025 1.235,3.494 3.495,3.494 0.003,0 4.41,-1.35 10.004,-1.35 5.589,-0.001 11.061,2.253 11.061,2.253"
     id="path3053"
     style="fill:&fill_color;;stroke:&stroke_color;;stroke-width:3.5;stroke-linecap:round;stroke-linejoin:round" />
  <path
     d="m 27.898,11.023 0,0 c 0,-0.002 1.715,-2.053 9.377,-2.504 7.668,-0.449 11.686,1.602 11.688,1.603 1.897,0.619 3.494,1.735 3.494,3.494 l 0,27.702 c 0,2.025 -1.233,3.494 -3.494,3.494 -0.003,0 -4.409,-1.35 -10.004,-1.35 -5.589,-0.001 -11.062,2.253 -11.062,2.253"
     id="path3055"
     style="fill:&fill_color;;stroke:&stroke_color;;stroke-width:3.5;stroke-linecap:round;stroke-linejoin:round" />
  <path
     d="m 27.7747,10.8997 0.2486,0.241"
     id="path3057"
     style="fill:none" />
  <path
     d="m 32.010444,44.830556 c 0,0 -0.031,2.906 -4.666,2.906 -4.632,0 -4.663,-2.906 -4.663,-2.906"
     id="path3059"
     style="fill:none" />
  <path
     d="m 48.3856,14.3653 c 0,0.1492 -0.0473,0.2839 -0.1383,0.4076 -0.0947,0.1202 -0.1929,0.182 -0.3058,0.182 -0.9063,0.0874 -1.6524,0.3786 -2.2275,0.8772 -0.5787,0.495 -1.172,1.445 -1.7871,2.8426 l -9.3905,21.1614 c -0.0618,0.1965 -0.2329,0.2948 -0.5168,0.2948 -0.222,0 -0.3931,-0.0983 -0.5168,-0.2948 L 28.2361,28.8223 22.1796,39.8361 c -0.1238,0.1965 -0.2948,0.2948 -0.5169,0.2948 -0.2693,0 -0.4476,-0.0983 -0.535,-0.2948 L 11.901,18.6747 C 11.3259,17.3608 10.7181,16.4436 10.0775,15.9231 9.44055,15.4026 8.54881,15.0787 7.40958,14.9549 c -0.09827,0 -0.1929,-0.0509 -0.27662,-0.1565 -0.08735,-0.1019 -0.13103,-0.222 -0.13103,-0.3567 0,-0.3457 0.09827,-0.5168 0.29482,-0.5168 0.82258,0 1.68155,0.0364 2.58056,0.1092 0.83349,0.0764 1.61969,0.1128 2.35489,0.1128 0.7498,0 1.6342,-0.0364 2.6534,-0.1128 1.0664,-0.0728 2.0127,-0.1092 2.8353,-0.1092 0.1966,0 0.2948,0.1711 0.2948,0.5168 0,0.3422 -0.0618,0.5132 -0.182,0.5132 -0.8225,0.0619 -1.4704,0.273 -1.9436,0.6261 -0.4731,0.3567 -0.7097,0.8225 -0.7097,1.4013 0,0.2948 0.0983,0.6624 0.2948,1.1028 l 7.6252,17.2195 4.3277,-8.1748 -4.0329,-8.4551 c -0.7243,-1.5068 -1.3212,-2.4823 -1.7871,-2.919 -0.4658,-0.4332 -1.1719,-0.7025 -2.1183,-0.8008 -0.0873,0 -0.1674,-0.0509 -0.2475,-0.1565 -0.0801,-0.1019 -0.1201,-0.222 -0.1201,-0.3567 0,-0.3457 0.0837,-0.5168 0.2584,-0.5168 0.8226,0 1.576,0.0364 2.2639,0.1092 0.6625,0.0764 1.3686,0.1128 2.1184,0.1128 0.7352,0 1.5141,-0.0364 2.3367,-0.1128 0.848,-0.0728 1.6815,-0.1092 2.5041,-0.1092 0.1965,0 0.2948,0.1711 0.2948,0.5168 0,0.3422 -0.0582,0.5132 -0.182,0.5132 -1.6451,0.1129 -2.4677,0.5787 -2.4677,1.4013 0,0.3676 0.1893,0.9391 0.5714,1.7107 l 2.6679,5.4159 2.6534,-4.9537 c 0.3676,-0.6988 0.5532,-1.2884 0.5532,-1.7689 0,-1.1283 -0.8225,-1.7288 -2.4677,-1.8053 -0.1492,0 -0.222,-0.171 -0.222,-0.5132 0,-0.1237 0.0364,-0.2402 0.1092,-0.3494 0.0764,-0.1128 0.1492,-0.1674 0.222,-0.1674 0.5896,0 1.3139,0.0364 2.1729,0.1092 0.8226,0.0764 1.4996,0.1128 2.0273,0.1128 0.3786,0 0.9391,-0.0327 1.6743,-0.0946 0.9318,-0.0837 1.7143,-0.1274 2.3404,-0.1274 0.1455,0 0.2183,0.1456 0.2183,0.4404 0,0.3931 -0.1346,0.5896 -0.404,0.5896 -0.9572,0.0983 -1.7288,0.364 -2.3112,0.7935 -0.5824,0.4295 -1.3103,1.4049 -2.1802,2.9263 l -3.5378,6.5406 4.7899,9.7581 7.072,-16.4443 c 0.2438,-0.6005 0.3676,-1.1537 0.3676,-1.656 0,-1.2048 -0.8226,-1.8417 -2.4678,-1.9182 -0.1492,0 -0.222,-0.171 -0.222,-0.5132 0,-0.3457 0.1092,-0.5168 0.3312,-0.5168 0.6006,0 1.314,0.0364 2.1365,0.1092 0.7607,0.0764 1.4013,0.1128 1.9145,0.1128 0.5424,0 1.1684,-0.0364 1.8781,-0.1128 0.7389,-0.0728 1.4013,-0.1092 1.991,-0.1092 0.171,0 0.2584,0.1456 0.2584,0.4404 z"
     id="path3061"
     style="fill:&stroke_color;;stroke:none" />
  <path
     d="m 39.504564,40.212072 0.013,5.3166"
     id="path3063"
     style="fill:none" />
  <path
     d="m 50.74074,42.314816 a 10.555555,10.092592 0 1 1 -21.111111,0 10.555555,10.092592 0 1 1 21.111111,0 z"
     transform="matrix(1.1504542,0,0,1.2032273,-4.8672048,-10.359877)"
     id="path3071"
     style="fill:#ffffff;fill-opacity:1;stroke:&stroke_color;;stroke-width:3;stroke-linecap:round;stroke-linejoin:round;stroke-miterlimit:4;stroke-opacity:1;stroke-dasharray:none" />
  <text
     x="31.698483"
     y="44.199482"
     id="text3841"
     xml:space="preserve"
     style="font-size:10px;font-style:normal;font-weight:bold;line-height:125%;letter-spacing:0px;word-spacing:0px;fill:&stroke_color;;fill-opacity:1;stroke:none;font-family:Bitstream Vera Sans;-inkscape-font-specification:Bitstream Vera Sans Bold"><tspan
       x="31.698483"
       y="44.199482"
       id="tspan3843">RW</tspan></text>
</svg>
