<?xml version="1.0" encoding="UTF-8" standalone="no"?>

 <!DOCTYPE svg PUBLIC "-//W3C//DTD SVG 1.1//EN" "http://www.w3.org/Graphics/SVG/1.1/DTD/svg11.dtd" [
     <!ENTITY ns_svg "http://www.w3.org/2000/svg">
     <!ENTITY ns_xlink " http://www.w3.org/1999/xlink">
     <!ENTITY stroke_color "#010101">
     <!ENTITY fill_color "#FFFFFF">
 ]>
<svg
   xmlns:dc="http://purl.org/dc/elements/1.1/"
   xmlns:cc="http://web.resource.org/cc/"
   xmlns:rdf="http://www.w3.org/1999/02/22-rdf-syntax-ns#"
   xmlns:svg="http://www.w3.org/2000/svg"
   xmlns="http://www.w3.org/2000/svg"
   xmlns:sodipodi="http://sodipodi.sourceforge.net/DTD/sodipodi-0.dtd"
   xmlns:inkscape="http://www.inkscape.org/namespaces/inkscape"
   enable-background="new 0 0 55 55"
   height="55px"
   version="1.1"
   viewBox="0 0 55 55"
   width="55px"
   x="0px"
   xml:space="preserve"
   y="0px"
   id="svg2"
   sodipodi:version="0.32"
   inkscape:version="0.45.1"
   sodipodi:docname="activity-go.svg"
   inkscape:output_extension="org.inkscape.output.svg.inkscape"
   sodipodi:docbase="/home/gjpc/PlayGo/PlayGo/src/activity"><metadata
     id="metadata26"><rdf:RDF><cc:Work
         rdf:about=""><dc:format>image/svg+xml</dc:format><dc:type
           rdf:resource="http://purl.org/dc/dcmitype/StillImage" /></cc:Work></rdf:RDF></metadata><defs
     id="defs24" /><sodipodi:namedview
     inkscape:window-height="619"
     inkscape:window-width="872"
     inkscape:pageshadow="2"
     inkscape:pageopacity="0.0"
     guidetolerance="10.0"
     gridtolerance="10.0"
     objecttolerance="10.0"
     borderopacity="1.0"
     bordercolor="#ffffff"
     pagecolor="#ffffff"
     id="base"
     inkscape:zoom="7.3818182"
     inkscape:cx="27.5"
     inkscape:cy="27.5"
     inkscape:window-x="26"
     inkscape:window-y="59"
     inkscape:current-layer="svg2" /><g
     display="block"
     id="activity-connect"
     transform="translate(-0.5418719,-1.2192118)"
     style="display:block">
	<g
   display="inline"
   id="g5"
   style="display:inline">
		<path
   d="M 14.118,9.535 C 14.119,11.967 12.148,13.94 9.716,13.941 C 7.283,13.942 5.311,11.971 5.31,9.539 C 5.31,9.538 5.31,9.536 5.31,9.535 C 5.308,7.103 7.279,5.13 9.711,5.128 C 12.143,5.127 14.116,7.098 14.117,9.53 C 14.118,9.532 14.118,9.534 14.118,9.535 z "
   id="path2160" fill="&fill_color;" stroke="&stroke_color;" stroke-width="2.25;" />
		<path
   d="M 51.188,9.535 C 51.19,11.967 49.219,13.94 46.786,13.941 C 44.354,13.942 42.382,11.971 42.38,9.539 C 42.38,9.538 42.38,9.536 42.38,9.535 C 42.38,7.102 44.351,5.13 46.782,5.128 C 49.216,5.127 51.188,7.098 51.188,9.53 C 51.188,9.532 51.188,9.534 51.188,9.535 z "
   id="path2162" fill="&stroke_color;" stroke="&stroke_color;" stroke-width="2.25;" />
		<path
   d="M 26.475,9.535 C 26.475,11.967 24.504,13.94 22.072,13.941 C 19.639,13.942 17.667,11.971 17.665,9.539 C 17.665,9.538 17.665,9.536 17.665,9.535 C 17.664,7.102 19.635,5.13 22.067,5.128 C 24.5,5.127 26.472,7.098 26.474,9.53 C 26.475,9.532 26.475,9.534 26.475,9.535 z "
   id="path3134" fill="&stroke_color;" stroke="&stroke_color;" stroke-width="2.25;" />
		<path
   d="M 38.832,9.535 C 38.832,11.967 36.861,13.94 34.43,13.941 C 31.996,13.942 30.024,11.971 30.022,9.539 C 30.022,9.538 30.022,9.536 30.022,9.535 C 30.022,7.102 31.993,5.13 34.424,5.128 C 36.858,5.127 38.83,7.098 38.832,9.53 C 38.832,9.532 38.832,9.534 38.832,9.535 z "
   id="path3136" fill="&fill_color;" stroke="&stroke_color;" stroke-width="2.25;" />
		<path
   d="M 26.475,21.892 C 26.475,24.325 24.504,26.297 22.072,26.298 C 19.639,26.299 17.667,24.328 17.665,21.896 C 17.665,21.895 17.665,21.893 17.665,21.892 C 17.664,19.459 19.635,17.487 22.067,17.485 C 24.5,17.484 26.472,19.455 26.474,21.887 C 26.475,21.889 26.475,21.891 26.475,21.892 z "
   id="path3138" fill="&stroke_color;" stroke="&stroke_color;" stroke-width="2.25;" />
		<path
   d="M 38.832,21.892 C 38.832,24.325 36.861,26.297 34.43,26.298 C 31.996,26.299 30.024,24.328 30.022,21.896 C 30.022,21.895 30.022,21.893 30.022,21.892 C 30.022,19.459 31.993,17.487 34.424,17.485 C 36.858,17.484 38.83,19.455 38.832,21.887 C 38.832,21.889 38.832,21.891 38.832,21.892 z "
   id="path3140" fill="&fill_color;" stroke="&stroke_color;" stroke-width="2.25;" />
		<path
   d="M 14.118,21.892 C 14.119,24.325 12.148,26.297 9.716,26.298 C 7.284,26.299 5.311,24.328 5.31,21.896 C 5.31,21.895 5.31,21.893 5.31,21.892 C 5.309,19.459 7.28,17.487 9.712,17.485 C 12.144,17.484 14.117,19.455 14.118,21.887 C 14.118,21.889 14.118,21.891 14.118,21.892 z "
   id="path3142" fill="&stroke_color;" stroke="&stroke_color;" stroke-width="2.25;" />
		<path
   d="M 51.188,21.892 C 51.19,24.325 49.219,26.297 46.786,26.298 C 44.354,26.299 42.382,24.328 42.38,21.896 C 42.38,21.895 42.38,21.893 42.38,21.892 C 42.38,19.459 44.351,17.487 46.782,17.485 C 49.216,17.484 51.188,19.455 51.188,21.887 C 51.188,21.889 51.188,21.891 51.188,21.892 z "
   id="path3144" fill="&stroke_color;" stroke="&stroke_color;" stroke-width="2.25;" />
		<path
   d="M 14.118,34.248 C 14.119,36.68 12.148,38.652 9.716,38.654 C 7.283,38.655 5.311,36.684 5.31,34.252 C 5.31,34.25 5.31,34.249 5.31,34.248 C 5.309,31.815 7.28,29.843 9.712,29.842 C 12.144,29.84 14.117,31.811 14.118,34.244 C 14.118,34.245 14.118,34.246 14.118,34.248 z "
   id="path3146" fill="&fill_color;" stroke="&stroke_color;" stroke-width="2.25;" />
		<path
   d="M 38.832,34.248 C 38.832,36.68 36.861,38.652 34.43,38.654 C 31.996,38.655 30.024,36.684 30.022,34.252 C 30.022,34.25 30.022,34.249 30.022,34.248 C 30.022,31.815 31.993,29.843 34.424,29.842 C 36.858,29.84 38.83,31.811 38.832,34.244 C 38.832,34.245 38.832,34.246 38.832,34.248 z "
   id="path3152" fill="&fill_color;" stroke="&stroke_color;" stroke-width="2.25;" />
		<path
   d="M 38.832,46.604 C 38.832,49.038 36.861,51.01 34.43,51.011 C 31.996,51.012 30.024,49.041 30.022,46.609 C 30.022,46.608 30.022,46.606 30.022,46.604 C 30.022,44.172 31.993,42.2 34.424,42.198 C 36.858,42.198 38.83,44.169 38.832,46.6 C 38.832,46.602 38.832,46.603 38.832,46.604 z "
   id="path3154" fill="&stroke_color;" stroke="&stroke_color;" stroke-width="2.25;" />
		<path
   d="M 14.118,46.604 C 14.119,49.038 12.148,51.01 9.716,51.011 C 7.284,51.012 5.311,49.041 5.31,46.609 C 5.31,46.608 5.31,46.606 5.31,46.604 C 5.309,44.172 7.28,42.2 9.712,42.198 C 12.144,42.198 14.117,44.169 14.118,46.6 C 14.118,46.602 14.118,46.603 14.118,46.604 z "
   id="path3156" fill="&fill_color;" stroke="&stroke_color;" stroke-width="2.25;" />
		<path
   d="M 26.475,46.604 C 26.475,49.038 24.504,51.01 22.072,51.011 C 19.639,51.012 17.667,49.041 17.665,46.609 C 17.665,46.608 17.665,46.606 17.665,46.604 C 17.664,44.172 19.635,42.2 22.067,42.198 C 24.5,42.198 26.472,44.169 26.474,46.6 C 26.475,46.602 26.475,46.603 26.475,46.604 z "
   id="path3158" fill="&stroke_color;" stroke="&stroke_color;" stroke-width="2.25;" />
		<path
   d="M 51.188,46.604 C 51.19,49.038 49.219,51.01 46.786,51.011 C 44.354,51.012 42.382,49.041 42.38,46.609 C 42.38,46.608 42.38,46.606 42.38,46.604 C 42.38,44.172 44.351,42.2 46.782,42.198 C 49.216,42.198 51.188,44.169 51.188,46.6 C 51.188,46.602 51.188,46.603 51.188,46.604 z "
   id="path3160" fill="&stroke_color;" stroke="&stroke_color;" stroke-width="2.25;" />
	</g>
</g></svg>
