<?xml version="1.0" ?><!DOCTYPE svg  PUBLIC '-//W3C//DTD SVG 1.1//EN'  'http://www.w3.org/Graphics/SVG/1.1/DTD/svg11.dtd' [
	<!ENTITY stroke_color "#000000">
	<!ENTITY fill_color "#cccccc">
]><svg enable-background="new 0 0 512 512" height="55" id="Layer_1" inkscape:version="0.48.4 r9939" sodipodi:docname="icon_19673.svg" version="1.1" viewBox="0 0 281.6 281.6" width="55" x="0px" xml:space="preserve" xmlns="http://www.w3.org/2000/svg" xmlns:cc="http://creativecommons.org/ns#" xmlns:dc="http://purl.org/dc/elements/1.1/" xmlns:inkscape="http://www.inkscape.org/namespaces/inkscape" xmlns:rdf="http://www.w3.org/1999/02/22-rdf-syntax-ns#" xmlns:sodipodi="http://sodipodi.sourceforge.net/DTD/sodipodi-0.dtd" xmlns:svg="http://www.w3.org/2000/svg" y="0px"><metadata id="metadata15"><rdf:RDF><cc:Work rdf:about=""><dc:format>image/svg+xml</dc:format><dc:type rdf:resource="http://purl.org/dc/dcmitype/StillImage"/><dc:title/></cc:Work></rdf:RDF></metadata><defs id="defs13"/><sodipodi:namedview bordercolor="#666666" borderopacity="1" gridtolerance="10" guidetolerance="10" id="namedview11" inkscape:current-layer="Layer_1" inkscape:cx="28.513171" inkscape:cy="31.464094" inkscape:guide-bbox="true" inkscape:pageopacity="0" inkscape:pageshadow="2" inkscape:window-height="526" inkscape:window-maximized="1" inkscape:window-width="1024" inkscape:window-x="0" inkscape:window-y="25" inkscape:zoom="8" objecttolerance="10" pagecolor="#ffffff" showgrid="false" showguides="true"/><g id="g3842" style="fill:&fill_color;;stroke:&stroke_color;"><g id="g3801" style="fill:&fill_color;;stroke:&stroke_color;" transform="matrix(0.95256376,0,0,0.95256376,-1.0038838,1.9784982)"><rect height="71.901787" id="rect3002" ry="9.7664394" style="fill:&fill_color;;fill-opacity:1;stroke:&stroke_color;;stroke-width:0.54500221999999998" width="75.246056" x="104.98792" y="105.88524"/><path d="m 62.500001,31.991526 c 0,7.956644 -7.066692,14.406779 -15.783898,14.406779 -8.717207,0 -15.783899,-6.450135 -15.783899,-14.406779 0,-7.956645 7.066692,-14.40678 15.783899,-14.40678 8.717206,0 15.783898,6.450135 15.783898,14.40678 z" id="path3000" sodipodi:cx="46.716103" sodipodi:cy="31.991526" sodipodi:rx="15.783898" sodipodi:ry="14.406779" sodipodi:type="arc" style="fill:&fill_color;;fill-opacity:1;stroke:none" transform="matrix(6.287217,0,0,6.8875233,-193.33533,-52.978641)"/><g id="g7" style="fill:&fill_color;;stroke:&stroke_color;" transform="matrix(0.54500222,0,0,0.54500222,-1.1926234,14.123177)"><path d="m 316.513,344.053 h 0.239 c -13.234,27.465 -34.862,50.119 -61.555,64.644 10.684,-19.56 18.495,-41.569 23.467,-64.645 l 14.422,10e-4 -41.245,-40.889 c -0.227,2.783 -0.491,5.574 -0.805,8.376 h -48.86 v -57.611 l -35.128,-34.823 h -40.04 c 7.771,-31.554 21.791,-60.473 42.654,-80.733 v 31.955 L 234.16,105.8 c -15.365,-4.219 -31.536,-6.483 -48.24,-6.483 -100.405,0 -181.798,81.395 -181.798,181.799 0,100.405 81.393,181.798 181.798,181.798 96.241,0.001 175.001,-74.786 181.37,-169.413 l -50.777,50.552 z M 43.771,251.622 H 88.56 c -1.892,19.234 -2.02,39.351 0.025,59.918 H 43.973 c -4.218,-19.767 -4.259,-40.267 -0.202,-59.918 z m 11.314,92.43 h 38.583 c 5.003,23.224 12.883,45.362 23.67,65.016 C 90.327,394.561 68.436,371.753 55.085,344.052 z M 93.608,219.107 H 54.651 c 13.391,-28.294 35.654,-51.561 63.201,-66.215 -11.091,19.954 -19.164,42.52 -24.244,66.215 z m 76.055,205.414 c -20.804,-20.203 -34.806,-49.017 -42.59,-80.469 h 42.59 v 80.469 z m 0,-112.981 h -48.367 c -2.171,-19.345 -2.313,-39.393 -0.03,-59.918 h 48.397 v 59.918 z m 32.513,113.452 v -80.94 h 43.082 c -7.842,31.698 -22.006,60.716 -43.082,80.94 z" id="path9" inkscape:connector-curvature="0" style="fill:&stroke_color;;stroke:&stroke_color;"/></g><polygon id="polygon5" points="250.195,157.503 209.642,198.077 304.897,293.354 508.97,90.182 468.396,49.63 304.897,212.218 " style="fill:&fill_color;;stroke:&stroke_color;;stroke-width:19.89567565999999843;stroke-linecap:round;stroke-linejoin:round;stroke-miterlimit:4;stroke-dasharray:none" transform="matrix(0.65177469,0,0,0.65177469,-36.837285,2.1722665)"/></g></g></svg>