<?xml version="1.0" encoding="UTF-8" standalone="no"?>
<!DOCTYPE svg PUBLIC "-//W3C//DTD SVG 1.1//EN" "http://www.w3.org/Graphics/SVG/1.1/DTD/svg11.dtd" [
     <!ENTITY ns_svg "http://www.w3.org/2000/svg">
     <!ENTITY ns_xlink " http://www.w3.org/1999/xlink">
     <!ENTITY stroke_color "#000000">
     <!ENTITY fill_color "#AAAAAA">
 ]>
<svg
   xmlns:dc="http://purl.org/dc/elements/1.1/"
   xmlns:cc="http://web.resource.org/cc/"
   xmlns:rdf="http://www.w3.org/1999/02/22-rdf-syntax-ns#"
   xmlns:svg="http://www.w3.org/2000/svg"
   xmlns="http://www.w3.org/2000/svg"
   xmlns:xlink="http://www.w3.org/1999/xlink"
   xmlns:sodipodi="http://sodipodi.sourceforge.net/DTD/sodipodi-0.dtd"
   xmlns:inkscape="http://www.inkscape.org/namespaces/inkscape"
   width="45"
   height="45"
   id="svg2215"
   sodipodi:version="0.32"
   inkscape:version="0.45.1"
   sodipodi:docname="activity.svg"
   sodipodi:docbase="/home/cabraham/devel/olpc/pycon2008/OLPCGames-1.6/skeleton/asteroids.activity/activity"
   inkscape:output_extension="org.inkscape.output.svg.inkscape">
  <metadata
     id="metadata2232">
    <rdf:RDF>
      <cc:Work
         rdf:about="">
        <dc:format>image/svg+xml</dc:format>
        <dc:type
           rdf:resource="http://purl.org/dc/dcmitype/StillImage" />
      </cc:Work>
    </rdf:RDF>
  </metadata>
  <defs
     id="defs2230" />
  <sodipodi:namedview
     inkscape:cy="25.125853"
     inkscape:cx="47.44191"
     inkscape:zoom="8"
     inkscape:window-height="725"
     inkscape:window-width="1280"
     inkscape:pageshadow="2"
     inkscape:pageopacity="0.0"
     guidetolerance="10.0"
     gridtolerance="10.0"
     objecttolerance="10.0"
     borderopacity="1.0"
     bordercolor="#666666"
     pagecolor="#ffffff"
     id="base"
     inkscape:window-x="0"
     inkscape:window-y="25"
     inkscape:current-layer="svg2215" />
  <path
     style="fill:&fill_color;;fill-rule:evenodd;stroke:&stroke_color;;stroke-width:2px;stroke-linecap:butt;stroke-linejoin:miter;stroke-opacity:1"
     d="M 17.75,20 L 4.625,20.125 L 3.125,21.375 L 3,23.75 L 5.125,25.375 L 17.75,25.25 L 18.625,26.875 L 22,26.625 L 24.125,28.125 L 21.625,28 L 21.75,32.625 L 24.125,33.375 L 26.875,33.5 L 28.875,35.125 L 31.125,38 L 28,38.375 L 27.25,40.125 L 27.375,43.125 L 29.375,44.125 L 42,44.125 L 43.125,41.5 L 43,38.625 L 38.25,38 L 37.25,34.625 L 37.375,33.25 L 40.625,33.25 L 43.125,32.125 L 43.625,28.125 L 38.5,28 L 38.625,17.375 L 43.75,17.375 L 43.5,12.75 L 36.875,12 L 37.125,9.875 L 38.5,6.875 L 43.5,6.75 L 43.25,4.875 L 41.5,1.25 L 29.875,1.25 L 27.25,2.625 L 27.25,6.375 L 28.875,7.375 L 31.625,7.375 L 29,10.125 L 28,11.25 L 23.75,12.125 L 21.75,12.875 L 21.625,17.25 L 24.75,17.25 L 22.375,18.25 L 18.75,18.75 L 17.75,20 z "
     id="path2471" />
</svg>
