<?xml version="1.0" encoding="UTF-8" standalone="no"?>
<!DOCTYPE svg PUBLIC "-//W3C//DTD SVG 1.1//EN" "http://www.w3.org/Graphics/SVG/1.1/DTD/svg11.dtd" [
     <!ENTITY stroke_color "#000000">
     <!ENTITY fill_color "#666666">
]>
<!-- Created with Inkscape (http://www.inkscape.org/) -->

<svg
   xmlns:svg="http://www.w3.org/2000/svg"
   xmlns="http://www.w3.org/2000/svg"
   version="1.0"
   width="55"
   height="55"
   id="svg4502">
  <defs
     id="defs4504" />
  <g
     id="layer4"
     style="display:inline">
    <path
       d="m 12.677347,3.7212878 c -1.259155,0 -4.0490169,2.1250661 -4.0490169,4.5950191 L 8.2495229,38.708597 5.0670994,38.582328 c -2.469953,0 -2.7960021,2.379806 -2.7960021,3.63896 0,1.259155 1.967547,2.281251 4.4375,2.28125 l 2.1722709,0.505076 0,3 c 0,2.469953 2.5373238,3.963675 3.7964788,3.963674 1.259155,0 4.017767,-1.619991 4.017767,-4.089943 l 0,-3 29.70479,0.631346 c 2.469953,0 4.089943,-2.032247 4.089943,-3.291403 0,-1.259155 -1.619988,-3.63896 -4.089943,-3.63896 L 16.442576,38.456059 16.190038,7.3061543 c 0,-2.469953 -2.253536,-3.5848665 -3.512691,-3.5848665 z"
       id="rect2477"
       style="fill:&fill_color;;fill-opacity:1;stroke:&stroke_color;;stroke-width:3;stroke-miterlimit:4;stroke-opacity:1;stroke-dasharray:none" />
    <path
       d="M 6.2507589,39.926185 50.317195,14.020907 c 3.063354,0.756571 2.896616,1.42509 2.770984,3.462041 l 0.105372,0.179947 c 0.379443,0.64799 -0.358101,1.780418 -1.653689,2.539076 L 9.241193,44.970828 C 7.1616812,46.14176 4.5192257,47.135274 3.4606482,44.611835 2.4020707,42.088396 4.9551715,40.684843 6.2507589,39.926185 z"
       id="rect3280"
       style="fill:&fill_color;;fill-opacity:1;stroke:&stroke_color;;stroke-width:2;stroke-miterlimit:4;stroke-opacity:1;stroke-dasharray:none" />
    <path
       d="M 3.5558389,29.241111 C 6.3337589,29.619918 13.427171,13.710368 19.844549,9.4168665 26.261928,5.123365 22.085947,51.843272 33.860415,50.075506 45.634884,48.307741 36.638335,17.11928 41.689097,15.85659 46.73986,14.593899 47.857631,26.442769 52.043161,23.685272 56.228691,20.927775 45.915051,7.7710638 39.751336,8.6984498 33.587621,9.6258358 40.420281,39.390436 33.355339,40.352789 26.290397,41.315142 31.459412,-1.3472408 19.844548,2.5983371 8.2296845,6.543915 0.8005509,28.86539 3.5558389,29.241111 z"
       id="path2504"
       style="fill:&fill_color;;fill-opacity:1;fill-rule:evenodd;stroke:&stroke_color;;stroke-width:2;stroke-linecap:butt;stroke-linejoin:miter;stroke-miterlimit:4;stroke-opacity:1;stroke-dasharray:none" />
  </g>
</svg>
