<?xml version="1.0" ?><!DOCTYPE svg  PUBLIC '-//W3C//DTD SVG 1.1//EN'  'http://www.w3.org/Graphics/SVG/1.1/DTD/svg11.dtd' [
	<!ENTITY stroke_color "#00ff03">
	<!ENTITY fill_color "#ff0000">
]><!--Generator: Xara Xtreme (www.xara.com), SVG filter version: 1.0.0.13--><svg fill-rule="evenodd" height="41.25pt" overflow="visible" stroke-linejoin="bevel" stroke-width="0.501" version="1.1" viewBox="0 0 41.25 41.25" width="41.25pt" xmlns="http://www.w3.org/2000/svg" xmlns:xlink="http://www.w3.org/1999/xlink">
 <defs>
  <marker id="DefaultArrow2" markerHeight="1" markerUnits="strokeWidth" markerWidth="1" orient="auto" overflow="visible" viewBox="0 0 1 1">
   <!-- REF_ARROW_STRAIGHT (-2) -->
   <g transform="scale(0.0092592592)">
    <!-- 1/108 -->
    <path d="M -9 54 L -9 -54 L 117 0 z"/>
   </g>
  </marker>
  <marker id="DefaultArrow3" markerHeight="1" markerUnits="strokeWidth" markerWidth="1" orient="auto" overflow="visible" viewBox="0 0 1 1">
   <!-- REF_ARROW_ANGLED -->
   <g transform="scale(0.0092592592)">
    <path d="M -27 54 L -9 0 L -27 -54 L 135 0 z"/>
   </g>
  </marker>
  <marker id="DefaultArrow4" markerHeight="1" markerUnits="strokeWidth" markerWidth="1" orient="auto" overflow="visible" viewBox="0 0 1 1">
   <!-- REF_ARROW_ROUNDED -->
   <g transform="scale(0.0092592592)">
    <path d="M -9,0 L -9,-45 C -9,-51.708 2.808,-56.580 9,-54 L 117,-9 C 120.916,-7.369 126.000,-4.242 126,0 C 126,4.242 120.916,7.369 117,9 L 9,54 C 2.808,56.580 -9,51.708 -9,45 z"/>
   </g>
  </marker>
  <marker id="DefaultArrow5" markerHeight="1" markerUnits="strokeWidth" markerWidth="1" orient="auto" overflow="visible" viewBox="0 0 1 1">
   <!-- REF_ARROW_SPOT -->
   <g transform="scale(0.0092592592)">
    <path d="M -54, 0 C -54,29.807 -29.807,54 0,54 C 29.807,54 54,29.807 54,0 C 54,-29.807 29.807,-54 0,-54 C -29.807,-54 -54,-29.807 -54,0 z"/>
   </g>
  </marker>
  <marker id="DefaultArrow6" markerHeight="1" markerUnits="strokeWidth" markerWidth="1" orient="auto" overflow="visible" viewBox="0 0 1 1">
   <!-- REF_ARROW_DIAMOND -->
   <g transform="scale(0.0092592592)">
    <path d="M -63,0 L 0,63 L 63,0 L 0,-63 z"/>
   </g>
  </marker>
  <marker id="DefaultArrow7" markerHeight="1" markerUnits="strokeWidth" markerWidth="1" orient="auto" overflow="visible" viewBox="0 0 1 1">
   <!-- REF_ARROW_FEATHER -->
   <g transform="scale(0.0092592592)">
    <path d="M 18,-54 L 108,-54 L 63,0 L 108,54 L 18, 54 L -36,0 z"/>
   </g>
  </marker>
  <marker id="DefaultArrow8" markerHeight="1" markerUnits="strokeWidth" markerWidth="1" orient="auto" overflow="visible" viewBox="0 0 1 1">
   <!-- REF_ARROW_FEATHER2 -->
   <g transform="scale(0.0092592592)">
    <path d="M -36,0 L 18,-54 L 54,-54 L 18,-18 L 27,-18 L 63,-54 L 99,-54 L 63,-18 L 72,-18 L 108,-54 L 144,-54 L 90,0 L 144,54 L 108,54 L 72,18 L 63,18 L 99,54 L 63,54 L 27,18 L 18,18 L 54,54 L 18,54 z"/>
   </g>
  </marker>
  <marker id="DefaultArrow9" markerHeight="1" markerUnits="strokeWidth" markerWidth="1" orient="auto" overflow="visible" viewBox="0 0 1 1">
   <!-- REF_ARROW_HOLLOWDIAMOND -->
   <g transform="scale(0.0092592592)">
    <path d="M 0,45 L -45,0 L 0, -45 L 45, 0 z M 0, 63 L-63, 0 L 0, -63 L 63, 0 z"/>
   </g>
  </marker>
  <filter id="StainedFilter">
   <feBlend in="SourceGraphic" in2="BackgroundImage" mode="multiply" result="blend"/>
   <feComposite in="blend" in2="SourceAlpha" operator="in" result="comp"/>
  </filter>
  <filter id="BleachFilter">
   <feBlend in="SourceGraphic" in2="BackgroundImage" mode="screen" result="blend"/>
   <feComposite in="blend" in2="SourceAlpha" operator="in" result="comp"/>
  </filter>
  <filter id="InvertTransparencyBitmapFilter">
   <feComponentTransfer>
    <feFuncR amplitude="1.055" exponent=".416666666" offset="-0.055" type="gamma"/>
    <feFuncG amplitude="1.055" exponent=".416666666" offset="-0.055" type="gamma"/>
    <feFuncB amplitude="1.055" exponent=".416666666" offset="-0.055" type="gamma"/>
   </feComponentTransfer>
   <feComponentTransfer>
    <feFuncR intercept="1" slope="-1" type="linear"/>
    <feFuncG intercept="1" slope="-1" type="linear"/>
    <feFuncB intercept="1" slope="-1" type="linear"/>
    <feFuncA intercept="0" slope="1" type="linear"/>
   </feComponentTransfer>
   <feComponentTransfer>
    <feFuncR amplitude="1" exponent="2.4" offset="0" type="gamma"/>
    <feFuncG amplitude="1" exponent="2.4" offset="0" type="gamma"/>
    <feFuncB amplitude="1" exponent="2.4" offset="0" type="gamma"/>
   </feComponentTransfer>
  </filter>
 </defs>
 <g fill="none" font-family="Times New Roman" font-size="16" id="Document" stroke="black" transform="scale(1 -1)">
  <g id="Spread" transform="translate(0 -41.25)">
   <g id="Page background">
    <rect fill="#ffffff" height="41.249" stroke="none" stroke-linejoin="bevel" stroke-miterlimit="79.8403193612775" stroke-width="0" width="41.249" x="0.001" y="0.001"/>
   </g>
   <g display="none" id="Layer 1">
    <g id="Group" stroke="#000000">
     <path d="M 0.011,24.46 L 4.329,24.46 L 4.329,3.308 L 0.011,3.308 L 0.011,24.46 Z" fill="#dd0000" marker-end="none" marker-start="none" stroke-miterlimit="79.8403193612775" stroke-width="0.022"/>
     <path d="M 4.4,24.46 L 8.646,24.46 L 8.646,3.308 L 4.4,3.308 L 4.4,24.46 Z" fill="&stroke_color;" marker-end="none" marker-start="none" stroke-miterlimit="79.8403193612775" stroke-width="0.022"/>
     <path d="M 8.718,24.46 L 13.467,24.46 L 13.467,3.308 L 8.718,3.308 L 8.718,24.46 Z" fill="#dd0000" marker-end="none" marker-start="none" stroke-miterlimit="79.8403193612775" stroke-width="0.022"/>
     <path d="M 13.467,24.46 L 17.999,24.46 L 17.999,3.308 L 13.467,3.308 L 13.467,24.46 Z" fill="&stroke_color;" marker-end="none" marker-start="none" stroke-miterlimit="79.8403193612775" stroke-width="0.022"/>
     <path d="M 18.143,24.46 L 23.036,24.46 L 23.036,3.308 L 18.143,3.308 L 18.143,24.46 Z" fill="#dd0000" marker-end="none" marker-start="none" stroke-miterlimit="79.8403193612775" stroke-width="0.022"/>
     <path d="M 22.892,24.46 L 27.64,24.46 L 27.64,3.308 L 22.892,3.308 L 22.892,24.46 Z" fill="&stroke_color;" marker-end="none" marker-start="none" stroke-miterlimit="79.8403193612775" stroke-width="0.022"/>
     <path d="M 27.64,24.46 L 32.318,24.46 L 32.318,3.308 L 27.64,3.308 L 27.64,24.46 Z" fill="#dd0000" marker-end="none" marker-start="none" stroke-miterlimit="79.8403193612775" stroke-width="0.022"/>
     <path d="M 32.318,24.46 L 36.85,24.46 L 36.85,3.308 L 32.318,3.308 L 32.318,24.46 Z" fill="&stroke_color;" marker-end="none" marker-start="none" stroke-miterlimit="79.8403193612775" stroke-width="0.022"/>
     <path d="M 36.922,24.46 L 41.239,24.46 L 41.239,3.308 L 36.922,3.308 L 36.922,24.46 Z" fill="#dd0000" marker-end="none" marker-start="none" stroke-miterlimit="79.8403193612775" stroke-width="0.022"/>
     <path d="M 4.4,24.46 L 20.374,35.685 L 36.994,24.46 L 36.994,24.46 L 4.4,24.46 Z" fill="&stroke_color;" marker-end="none" marker-start="none" stroke-miterlimit="79.8403193612775" stroke-width="0.022"/>
     <path d="M 8.718,24.46 L 20.302,35.54 L 32.389,24.46 L 8.718,24.46 Z" fill="#dd0000" marker-end="none" marker-start="none" stroke-miterlimit="79.8403193612775" stroke-width="0.022"/>
     <path d="M 27.64,24.46 L 20.374,35.54 L 13.467,24.46 L 27.64,24.46 Z" fill="&stroke_color;" marker-end="none" marker-start="none" stroke-miterlimit="79.8403193612775" stroke-width="0.022"/>
     <path d="M 22.892,24.46 L 20.374,35.54 L 17.999,24.46 L 22.892,24.46 Z" fill="#dd0000" marker-end="none" marker-start="none" stroke-miterlimit="79.8403193612775" stroke-width="0.022"/>
     <path d="M 20.589,12.03 L 25.482,3.253 L 15.985,3.253 L 20.589,12.03 Z" fill="#000000" marker-end="none" marker-start="none" stroke-miterlimit="79.8403193612775" stroke-width="0.022"/>
     <path d="M 20.589,12.085 C 19.007,9.159 17.423,6.233 15.841,3.308" fill="none" stroke-miterlimit="79.8403193612775" stroke-width="0.022"/>
     <path d="M 20.589,12.228 L 18.827,8.776 L 21.093,8.776" fill="none" stroke-miterlimit="79.8403193612775" stroke-width="0.022"/>
     <path d="M 20.362,35.564 L 20.349,37.843" fill="none" stroke-miterlimit="79.8403193612775" stroke-width="0.359"/>
    </g>
   </g>
   <g id="Layer 3">
    <rect fill="#000000" height="5.709" stroke="none" stroke-linecap="round" stroke-linejoin="miter" stroke-miterlimit="79.8403193612775" stroke-width="0.75" width="0.418" x="20.312" y="35.559"/>
    <rect fill="#000000" height="4.348" stroke="none" stroke-linecap="round" stroke-linejoin="miter" stroke-miterlimit="79.8403193612775" stroke-width="0.75" transform="translate(2.286 9.575) rotate(90)" width="19.039" x="-9.519" y="-2.174"/>
    <rect fill="&fill_color;" height="4.545" stroke="none" stroke-linecap="round" stroke-linejoin="miter" stroke-miterlimit="79.8403193612775" stroke-width="0.75" transform="translate(2.188 9.575) rotate(90)" width="19.039" x="-9.519" y="-2.272"/>
    <rect fill="&stroke_color;" height="4.545" stroke="none" stroke-linecap="round" stroke-linejoin="miter" stroke-miterlimit="79.8403193612775" stroke-width="0.75" transform="translate(6.808 9.575) rotate(90)" width="19.039" x="-9.519" y="-2.272"/>
    <rect fill="&fill_color;" height="4.545" stroke="none" stroke-linecap="round" stroke-linejoin="miter" stroke-miterlimit="79.8403193612775" stroke-width="0.75" transform="translate(11.368 9.575) rotate(90)" width="19.039" x="-9.519" y="-2.272"/>
    <rect fill="&stroke_color;" height="4.545" stroke="none" stroke-linecap="round" stroke-linejoin="miter" stroke-miterlimit="79.8403193612775" stroke-width="0.75" transform="translate(15.988 9.575) rotate(90)" width="19.039" x="-9.519" y="-2.272"/>
    <rect fill="#000000" height="4.348" stroke="none" stroke-linecap="round" stroke-linejoin="miter" stroke-miterlimit="79.8403193612775" stroke-width="0.75" transform="translate(20.616 9.575) rotate(90)" width="19.039" x="-9.519" y="-2.174"/>
    <rect fill="&fill_color;" height="4.545" stroke="none" stroke-linecap="round" stroke-linejoin="miter" stroke-miterlimit="79.8403193612775" stroke-width="0.75" transform="translate(20.518 9.575) rotate(90)" width="19.039" x="-9.519" y="-2.272"/>
    <rect fill="&stroke_color;" height="4.545" stroke="none" stroke-linecap="round" stroke-linejoin="miter" stroke-miterlimit="79.8403193612775" stroke-width="0.75" transform="translate(25.138 9.575) rotate(90)" width="19.039" x="-9.519" y="-2.272"/>
    <rect fill="&fill_color;" height="4.545" stroke="none" stroke-linecap="round" stroke-linejoin="miter" stroke-miterlimit="79.8403193612775" stroke-width="0.75" transform="translate(29.698 9.575) rotate(90)" width="19.039" x="-9.519" y="-2.272"/>
    <rect fill="&stroke_color;" height="4.545" stroke="none" stroke-linecap="round" stroke-linejoin="miter" stroke-miterlimit="79.8403193612775" stroke-width="0.75" transform="translate(34.318 9.575) rotate(90)" width="19.039" x="-9.519" y="-2.272"/>
    <rect fill="&fill_color;" height="4.545" stroke="none" stroke-linecap="round" stroke-linejoin="miter" stroke-miterlimit="79.8403193612775" stroke-width="0.75" transform="translate(38.908 9.575) rotate(90)" width="19.039" x="-9.519" y="-2.272"/>
    <path d="M 4.407,19.027 L 9.192,19.027 L 20.358,35.562 L 4.407,19.027 Z" fill="&stroke_color;" marker-end="none" marker-start="none" stroke="none" stroke-linecap="round" stroke-linejoin="miter" stroke-miterlimit="79.8403193612775" stroke-width="0.75"/>
    <path d="M 36.682,19.027 L 31.897,19.027 L 20.731,35.562 L 36.682,19.027 Z" fill="&stroke_color;" marker-end="none" marker-start="none" stroke="none" stroke-linecap="round" stroke-linejoin="miter" stroke-miterlimit="79.8403193612775" stroke-width="0.75"/>
    <path d="M 9.024,18.778 L 13.642,18.903 L 20.61,35.811 L 9.024,18.778 Z" fill="&fill_color;" marker-end="none" marker-start="none" stroke="none" stroke-linecap="round" stroke-linejoin="miter" stroke-miterlimit="79.8403193612775" stroke-width="0.75"/>
    <path d="M 31.982,18.778 L 27.364,18.903 L 20.396,35.811 L 31.982,18.778 Z" fill="&fill_color;" marker-end="none" marker-start="none" stroke="none" stroke-linecap="round" stroke-linejoin="miter" stroke-miterlimit="79.8403193612775" stroke-width="0.75"/>
    <path d="M 13.642,19.027 L 18.259,19.027 L 20.526,35.437 L 13.642,19.027 Z" fill="&stroke_color;" marker-end="none" marker-start="none" stroke="none" stroke-linecap="round" stroke-linejoin="miter" stroke-miterlimit="79.8403193612775" stroke-width="0.75"/>
    <path d="M 27.388,19.027 L 22.771,19.027 L 20.504,35.437 L 27.388,19.027 Z" fill="&stroke_color;" marker-end="none" marker-start="none" stroke="none" stroke-linecap="round" stroke-linejoin="miter" stroke-miterlimit="79.8403193612775" stroke-width="0.75"/>
    <path d="M 18.259,18.903 L 22.709,18.903 L 20.526,35.188 L 18.259,18.903 Z" fill="&fill_color;" marker-end="none" marker-start="none" stroke="none" stroke-linecap="round" stroke-linejoin="miter" stroke-miterlimit="79.8403193612775" stroke-width="0.75"/>
    <path d="M 20.364,8.797 L 25.257,0.02 L 15.76,0.02 L 20.364,8.797 Z" fill="#000000" marker-end="none" marker-start="none" stroke="#000000" stroke-miterlimit="79.8403193612775" stroke-width="0.022"/>
   </g>
  </g>
 </g>
</svg>