<?xml version="1.0" ?><!-- Created with Inkscape (http://www.inkscape.org/) --><!DOCTYPE svg  PUBLIC '-//W3C//DTD SVG 1.1//EN'  'http://www.w3.org/Graphics/SVG/1.1/DTD/svg11.dtd' [
	<!ENTITY stroke_color "#000000">
	<!ENTITY fill_color "#ffffff">
]><svg height="55.008945" id="svg2" version="1.0" width="54.992115" xmlns="http://www.w3.org/2000/svg" xmlns:svg="http://www.w3.org/2000/svg" xmlns:xlink="http://www.w3.org/1999/xlink">
  <defs id="defs4"/>
  <g id="layer1" transform="translate(-244.50394,-269.85727)">
    <image height="55.008945" id="image2449" width="54.992115" x="244.50394" xlink:href="Good.jpg" y="269.85727"/>
    <path d="M 280.30753,282.18787 C 272.19566,282.06004 261.42749,281.86466 256.37828,281.75368 L 247.19786,281.5519 L 247.20709,278.96394 C 247.21215,277.54058 247.41533,276.22392 247.65858,276.03805 C 248.52397,275.37681 254.11179,273.4324 257.1023,272.75191 C 262.70455,271.47708 267.41943,271.04478 273.68558,271.23136 C 282.63871,271.49795 289.17919,272.92501 295.22306,275.9306 L 297.76533,277.19486 L 297.76533,279.85395 C 297.76533,282.4257 297.72084,282.51152 296.41085,282.46667 C 295.66588,282.44116 288.41939,282.3157 280.30753,282.18787 L 280.30753,282.18787 z" id="path2453" style="opacity:1;fill:&fill_color;;fill-opacity:1;stroke:&stroke_color;;stroke-width:0.42452079;stroke-opacity:1"/>
    <path d="M 270.37463,281.7468 C 260.11063,281.5394 250.8324,281.35752 249.75634,281.34264 L 247.79986,281.31558 L 247.79986,278.82313 C 247.79986,275.98926 247.88785,275.91999 253.88809,274.03101 C 259.74468,272.18726 264.00889,271.60471 271.57862,271.61423 C 281.34065,271.62652 287.0786,272.71104 294.30388,275.90949 L 297.16334,277.1753 L 297.16334,279.69449 L 297.16334,282.21368 L 293.09989,282.16878 C 290.86498,282.1441 280.63861,281.95421 270.37463,281.7468 L 270.37463,281.7468 z" id="path2455" style="opacity:1;fill:&fill_color;;fill-opacity:1;stroke:&stroke_color;;stroke-width:0.42452079;stroke-opacity:1"/>
    <path d="M 247.79986,304.96569 L 247.79986,285.80609 L 252.11214,285.80609 L 256.42442,285.80609 L 256.02615,303.09464 C 255.80711,312.60332 255.62741,321.22513 255.62683,322.25421 L 255.62579,324.12526 L 251.71282,324.12526 L 247.79986,324.12526 L 247.79986,304.96569 z" id="path2457" style="opacity:1;fill:&fill_color;;fill-opacity:1;stroke:&stroke_color;;stroke-width:0.42452079;stroke-opacity:1"/>
    <path d="M 248.40185,304.96569 L 248.40185,286.10547 L 252.01382,286.10547 L 255.62579,286.10547 L 255.62477,295.31104 C 255.62422,300.37412 255.44499,308.86122 255.22648,314.17126 L 254.82922,323.82589 L 251.61553,323.82589 L 248.40185,323.82589 L 248.40185,304.96569 z" id="path2459" style="opacity:1;fill:&fill_color;;fill-opacity:1;stroke:&stroke_color;;stroke-width:0.42452079;stroke-opacity:1"/>
    <path d="M 263.20971,315.51842 C 263.3453,313.58375 263.62318,306.08985 263.82723,298.86531 L 264.19821,285.72974 L 267.50029,285.89923 C 269.31645,285.99244 270.84157,286.11068 270.88951,286.16193 C 270.93742,286.21322 270.89395,293.63084 270.7929,302.64558 L 270.60919,319.036 L 266.78619,319.036 L 262.96318,319.036 L 263.20971,315.51842 z" id="path2461" style="opacity:1;fill:&fill_color;;fill-opacity:1;stroke:&stroke_color;;stroke-width:0.42452079;stroke-opacity:1"/>
    <path d="M 263.67808,315.21906 C 263.87573,313.28438 264.21004,305.94237 264.42096,298.90348 L 264.80444,286.10547 L 266.4868,286.10547 C 270.33969,286.10547 270.07363,284.88173 270.07363,302.60277 L 270.07363,318.73662 L 266.69615,318.73662 L 263.31865,318.73662 L 263.67808,315.21906 z" id="path2463" style="opacity:1;fill:&fill_color;;fill-opacity:1;stroke:&stroke_color;;stroke-width:0.42452079;stroke-opacity:1"/>
    <path d="M 276.51348,313.03406 C 276.33609,312.69675 276.34679,306.49981 276.53725,299.26311 L 276.88354,286.10547 L 279.04703,286.10538 L 281.21051,286.10529 L 281.05048,298.90338 C 280.96245,305.94233 280.74701,312.13929 280.57169,312.67442 C 280.29917,313.50632 280.00529,313.64737 278.54447,313.64737 C 277.32873,313.64737 276.74296,313.47048 276.51347,313.03406 L 276.51348,313.03406 z" id="path2465" style="opacity:1;fill:&fill_color;;fill-opacity:1;stroke:&stroke_color;;stroke-width:0.42452079;stroke-opacity:1"/>
    <path d="M 277.29756,299.87641 L 277.29756,286.40483 L 279.00853,286.40483 L 280.7195,286.40483 L 280.48297,299.20284 C 280.35288,306.24174 280.11958,312.30395 279.96451,312.67442 C 279.78677,313.09908 279.2419,313.348 278.49007,313.348 C 277.31903,313.348 277.29756,313.10523 277.29756,299.87641 z" id="path2467" style="opacity:1;fill:&fill_color;;fill-opacity:1;stroke:&stroke_color;;stroke-width:0.42452079;stroke-opacity:1"/>
    <path d="M 286.32746,296.56348 L 286.32746,286.06571 L 287.98294,286.16044 C 289.25812,286.2334 289.62854,286.40989 289.59542,286.92874 C 289.57178,287.29921 289.50405,291.98058 289.44492,297.33179 L 289.33743,307.06127 L 287.83245,307.06127 L 286.32746,307.06127 L 286.32746,296.56348 z" id="path2469" style="opacity:1;fill:&fill_color;;fill-opacity:1;stroke:&stroke_color;;stroke-width:0.42452079;stroke-opacity:1"/>
    <path d="M 286.92945,296.58336 C 286.92945,288.08281 287.06769,286.40483 287.76804,286.40483 C 288.22925,286.40483 288.70969,286.57323 288.83567,286.77905 C 288.96165,286.98488 288.96794,291.5652 288.84966,296.95759 C 288.66962,305.1649 288.49571,306.76189 287.78203,306.76189 C 287.06332,306.76189 286.92945,305.16382 286.92945,296.58336 z" id="path2471" style="opacity:1;fill:&fill_color;;fill-opacity:1;stroke:&stroke_color;;stroke-width:0.42452079;stroke-opacity:1"/>
    <path d="M 294.75536,293.92646 C 294.75536,287.82063 295.05281,286.40483 296.3356,286.40483 C 297.01284,286.40483 297.16334,287.60233 297.16334,292.99095 C 297.16334,299.37747 297.12686,299.57705 295.95935,299.57705 C 294.7979,299.57705 294.75536,299.37747 294.75536,293.92646 z" id="path2473" style="opacity:1;fill:&fill_color;;fill-opacity:1;stroke:&stroke_color;;stroke-width:0.42452079;stroke-opacity:1"/>
    <path d="M 295.39967,293.53251 C 295.42294,290.35322 295.6748,287.48257 295.95935,287.15326 C 296.2716,286.79191 296.49351,289.01041 296.51903,292.74875 C 296.54519,296.57863 296.33157,299.01359 295.95935,299.128 C 295.56543,299.24908 295.37199,297.31515 295.39968,293.53251 L 295.39967,293.53251 z" id="path2475" style="opacity:1;fill:&fill_color;;fill-opacity:1;stroke:&stroke_color;;stroke-width:0.42452079;stroke-opacity:1"/>
    <path d="M 249.00385,304.96569 L 249.00385,286.40483 L 252.01382,286.40483 L 255.02379,286.40483 L 255.02255,297.10726 C 255.02188,302.9936 254.84295,311.34597 254.62496,315.66811 L 254.22857,323.52652 L 251.61622,323.52652 L 249.00385,323.52652 L 249.00385,304.96569 z" id="path2477" style="opacity:1;fill:&fill_color;;fill-opacity:1;stroke:&stroke_color;;stroke-width:0.42452079;stroke-opacity:1"/>
    <path d="M 264.26271,313.12347 C 264.47455,310.2009 264.82654,302.9936 265.04492,297.10726 L 265.44195,286.40483 L 266.8697,286.40483 C 267.84838,286.40483 268.4821,286.64637 268.88454,287.17274 C 269.23811,287.6352 269.47163,294.00593 269.47163,303.18896 L 269.47163,318.43726 L 266.67459,318.43726 L 263.87756,318.43726 L 264.26271,313.12347 z" id="path2479" style="opacity:1;fill:&fill_color;;fill-opacity:1;stroke:&stroke_color;;stroke-width:0.42452079;stroke-opacity:1"/>
    <path d="M 268.56865,281.44875 C 258.96685,281.23979 250.50132,281.05699 249.75634,281.04252 C 248.4864,281.01785 248.40185,280.88607 248.40185,278.93105 C 248.40185,277.04257 248.57167,276.7497 250.20206,275.82626 C 252.37059,274.59803 259.08937,272.78715 263.16164,272.33331 C 264.78671,272.1522 268.84712,272.00682 272.18481,272.01026 C 280.62214,272.01895 284.88009,272.71089 291.30184,275.11692 L 296.26035,276.97473 L 296.4352,279.44452 L 296.61003,281.91432 L 291.31824,281.87151 C 288.40777,281.84796 278.17045,281.65771 268.56865,281.44875 z" id="path2481" style="opacity:1;fill:&fill_color;;fill-opacity:1;stroke:&stroke_color;;stroke-width:0.42452079;stroke-opacity:1"/>
    <path d="M 5.0684144,9.4840814 C 4.2024844,7.2274814 5.4842844,6.3492514 12.192694,4.6028814 C 21.107754,2.2820514 36.595584,2.6492814 44.732594,5.3744214 C 49.033824,6.8149214 51.341964,8.1432914 51.555914,9.3013114 C 51.856234,10.926811 50.235524,11.051311 28.774534,11.051311 C 8.7190944,11.051311 5.5904544,10.844481 5.0684244,9.4840914 L 5.0684144,9.4840814 z" id="path2485" style="opacity:1;fill:&fill_color;;fill-opacity:1;stroke:&stroke_color;;stroke-width:1;stroke-opacity:1" transform="translate(244.50394,269.85727)"/>
    <path d="M 26.232594,12.907211 C 21.282594,12.552941 13.745094,12.215441 9.4825944,12.157201 C 2.7763344,12.065561 1.7432244,11.815631 1.8115444,10.301311 C 1.8549644,9.3388114 2.0902744,9.0322514 2.3344644,9.6200714 C 2.6331944,10.339201 10.376814,10.655561 26.005514,10.587141 C 38.780404,10.531211 47.207594,10.770181 44.732594,11.118181 C 40.373624,11.731101 40.428474,11.755631 46.482594,11.901121 C 49.920094,11.983711 52.732594,12.388811 52.732594,12.801311 C 52.732594,13.721181 38.406014,13.778431 26.232594,12.907201 L 26.232594,12.907211 z" id="path2491" style="opacity:1;fill:&fill_color;;fill-opacity:1;stroke:&stroke_color;;stroke-width:1;stroke-opacity:1" transform="translate(244.50394,269.85727)"/>
    <path d="M 24.732594,11.051311 L 7.2325944,10.479531 L 24.732594,10.280741 C 34.704024,10.167461 42.877904,10.498961 43.732594,11.051311 C 45.065924,11.912981 45.065924,11.998601 43.732594,11.821881 C 42.907594,11.712541 34.357594,11.365781 24.732594,11.051311 z" id="path2493" style="opacity:1;fill:&fill_color;;fill-opacity:1;stroke:&stroke_color;;stroke-width:1;stroke-opacity:1" transform="translate(244.50394,269.85727)"/>
    <path d="M 43.363045,10.129271 C 43.201036,9.9626552 34.689239,9.7467826 24.447939,9.6495554 L 5.827399,9.4727787 L 5.720495,8.5520125 C 5.6276837,7.7525859 5.837355,7.53549 7.3114853,6.9046765 C 18.128473,2.2758742 40.067882,2.8312571 49.209701,7.9653084 C 50.509915,8.6955022 51.11365,9.4791533 50.613941,9.7879892 C 50.080174,10.117872 43.646415,10.420694 43.363045,10.129271 z" id="path2399" style="opacity:1;fill:&fill_color;;fill-opacity:1;stroke:&stroke_color;;stroke-width:0.35355338;stroke-opacity:1" transform="translate(244.50394,269.85727)"/>
    <path d="M 37.823981,9.6340768 C 34.615484,9.5019363 26.132394,9.3718145 18.972673,9.3449126 L 5.9549964,9.296002 L 6.0679744,8.5011327 C 6.404886,6.1307587 20.016554,3.6472654 29.86903,4.1585495 C 35.486176,4.4500437 39.978245,5.1328578 44.084605,6.3193759 C 46.950343,7.1474227 49.900778,8.5284871 50.347213,9.2508391 C 50.551648,9.5816237 46.940751,10.040267 44.931574,9.9387197 C 44.230899,9.9033007 41.032478,9.7662174 37.823981,9.6340768 z" id="path2401" style="opacity:1;fill:&fill_color;;fill-opacity:1;stroke:&stroke_color;;stroke-width:0.35355338;stroke-opacity:1" transform="translate(244.50394,269.85727)"/>
    <path d="M 4.9435155,35.282176 L 4.9435155,17.074177 L 7.6522118,17.074177 L 10.360905,17.074177 L 10.128075,30.420817 C 10.000022,37.761469 9.7907183,45.955069 9.6629548,48.628817 L 9.4306596,53.490176 L 7.1870911,53.490176 L 4.9435155,53.490176 L 4.9435155,35.282176 z" id="path2403" style="opacity:1;fill:&fill_color;;fill-opacity:1;stroke:&stroke_color;;stroke-width:0.35355338;stroke-opacity:1" transform="translate(244.50394,269.85727)"/>
    <path d="M 19.943198,45.446836 C 20.208685,42.199767 21.202983,21.171132 21.205338,18.753555 L 21.206971,17.074177 L 22.453159,17.074177 C 23.457466,17.074177 23.764644,17.245919 24.035759,17.959004 C 24.220788,18.445663 24.481159,25.446017 24.614367,33.515353 L 24.856562,48.186875 L 22.287862,48.186875 L 19.719162,48.186875 L 19.943198,45.446836 z" id="path2405" style="opacity:1;fill:&fill_color;;fill-opacity:1;stroke:&stroke_color;;stroke-width:0.35355338;stroke-opacity:1" transform="translate(244.50394,269.85727)"/>
    <path d="M 33.44239,42.67788 C 33.324356,42.370296 33.227787,36.483632 33.227787,29.596405 L 33.227787,17.074177 L 34.465224,17.074177 L 35.702661,17.074177 L 35.672913,24.410409 C 35.625809,36.027803 35.263607,42.497996 34.638242,42.893378 C 33.902642,43.358449 33.68876,43.319912 33.44239,42.67788 z" id="path2407" style="opacity:1;fill:&fill_color;;fill-opacity:1;stroke:&stroke_color;;stroke-width:0.35355338;stroke-opacity:1" transform="translate(244.50394,269.85727)"/>
    <path d="M 5.2970689,35.282176 L 5.2970689,17.42773 L 7.6502672,17.42773 L 10.003469,17.42773 L 9.7657716,31.304701 C 9.6350417,38.937034 9.4277993,46.971535 9.305233,49.159147 L 9.0823812,53.136622 L 7.189725,53.136622 L 5.2970689,53.136622 L 5.2970689,35.282176 z" id="path2409" style="opacity:1;fill:&fill_color;;fill-opacity:1;stroke:&stroke_color;;stroke-width:0.35355338;stroke-opacity:1" transform="translate(244.50394,269.85727)"/>
  </g>
</svg>