<?xml version="1.0" ?><!DOCTYPE svg  PUBLIC '-//W3C//DTD SVG 1.1//EN'  'http://www.w3.org/Graphics/SVG/1.1/DTD/svg11.dtd' [
	<!ENTITY stroke_color "#00ff03">
	<!ENTITY fill_color "#ff0000">
]><!--Generator: Xara Xtreme (www.xara.com), SVG filter version: 1.0.0.13--><svg fill-rule="evenodd" height="41.25pt" overflow="visible" stroke-linejoin="bevel" stroke-width="0.501" version="1.1" viewBox="0 0 41.25 41.25" width="41.25pt" xmlns="http://www.w3.org/2000/svg" xmlns:xlink="http://www.w3.org/1999/xlink">
 <defs>
  <marker id="DefaultArrow2" markerHeight="1" markerUnits="strokeWidth" markerWidth="1" orient="auto" overflow="visible" viewBox="0 0 1 1">
   <!-- REF_ARROW_STRAIGHT (-2) -->
   <g transform="scale(0.0092592592)">
    <!-- 1/108 -->
    <path d="M -9 54 L -9 -54 L 117 0 z"/>
   </g>
  </marker>
  <marker id="DefaultArrow3" markerHeight="1" markerUnits="strokeWidth" markerWidth="1" orient="auto" overflow="visible" viewBox="0 0 1 1">
   <!-- REF_ARROW_ANGLED -->
   <g transform="scale(0.0092592592)">
    <path d="M -27 54 L -9 0 L -27 -54 L 135 0 z"/>
   </g>
  </marker>
  <marker id="DefaultArrow4" markerHeight="1" markerUnits="strokeWidth" markerWidth="1" orient="auto" overflow="visible" viewBox="0 0 1 1">
   <!-- REF_ARROW_ROUNDED -->
   <g transform="scale(0.0092592592)">
    <path d="M -9,0 L -9,-45 C -9,-51.708 2.808,-56.580 9,-54 L 117,-9 C 120.916,-7.369 126.000,-4.242 126,0 C 126,4.242 120.916,7.369 117,9 L 9,54 C 2.808,56.580 -9,51.708 -9,45 z"/>
   </g>
  </marker>
  <marker id="DefaultArrow5" markerHeight="1" markerUnits="strokeWidth" markerWidth="1" orient="auto" overflow="visible" viewBox="0 0 1 1">
   <!-- REF_ARROW_SPOT -->
   <g transform="scale(0.0092592592)">
    <path d="M -54, 0 C -54,29.807 -29.807,54 0,54 C 29.807,54 54,29.807 54,0 C 54,-29.807 29.807,-54 0,-54 C -29.807,-54 -54,-29.807 -54,0 z"/>
   </g>
  </marker>
  <marker id="DefaultArrow6" markerHeight="1" markerUnits="strokeWidth" markerWidth="1" orient="auto" overflow="visible" viewBox="0 0 1 1">
   <!-- REF_ARROW_DIAMOND -->
   <g transform="scale(0.0092592592)">
    <path d="M -63,0 L 0,63 L 63,0 L 0,-63 z"/>
   </g>
  </marker>
  <marker id="DefaultArrow7" markerHeight="1" markerUnits="strokeWidth" markerWidth="1" orient="auto" overflow="visible" viewBox="0 0 1 1">
   <!-- REF_ARROW_FEATHER -->
   <g transform="scale(0.0092592592)">
    <path d="M 18,-54 L 108,-54 L 63,0 L 108,54 L 18, 54 L -36,0 z"/>
   </g>
  </marker>
  <marker id="DefaultArrow8" markerHeight="1" markerUnits="strokeWidth" markerWidth="1" orient="auto" overflow="visible" viewBox="0 0 1 1">
   <!-- REF_ARROW_FEATHER2 -->
   <g transform="scale(0.0092592592)">
    <path d="M -36,0 L 18,-54 L 54,-54 L 18,-18 L 27,-18 L 63,-54 L 99,-54 L 63,-18 L 72,-18 L 108,-54 L 144,-54 L 90,0 L 144,54 L 108,54 L 72,18 L 63,18 L 99,54 L 63,54 L 27,18 L 18,18 L 54,54 L 18,54 z"/>
   </g>
  </marker>
  <marker id="DefaultArrow9" markerHeight="1" markerUnits="strokeWidth" markerWidth="1" orient="auto" overflow="visible" viewBox="0 0 1 1">
   <!-- REF_ARROW_HOLLOWDIAMOND -->
   <g transform="scale(0.0092592592)">
    <path d="M 0,45 L -45,0 L 0, -45 L 45, 0 z M 0, 63 L-63, 0 L 0, -63 L 63, 0 z"/>
   </g>
  </marker>
  <filter id="StainedFilter">
   <feBlend in="SourceGraphic" in2="BackgroundImage" mode="multiply" result="blend"/>
   <feComposite in="blend" in2="SourceAlpha" operator="in" result="comp"/>
  </filter>
  <filter id="BleachFilter">
   <feBlend in="SourceGraphic" in2="BackgroundImage" mode="screen" result="blend"/>
   <feComposite in="blend" in2="SourceAlpha" operator="in" result="comp"/>
  </filter>
  <filter id="InvertTransparencyBitmapFilter">
   <feComponentTransfer>
    <feFuncR amplitude="1.055" exponent=".416666666" offset="-0.055" type="gamma"/>
    <feFuncG amplitude="1.055" exponent=".416666666" offset="-0.055" type="gamma"/>
    <feFuncB amplitude="1.055" exponent=".416666666" offset="-0.055" type="gamma"/>
   </feComponentTransfer>
   <feComponentTransfer>
    <feFuncR intercept="1" slope="-1" type="linear"/>
    <feFuncG intercept="1" slope="-1" type="linear"/>
    <feFuncB intercept="1" slope="-1" type="linear"/>
    <feFuncA intercept="0" slope="1" type="linear"/>
   </feComponentTransfer>
   <feComponentTransfer>
    <feFuncR amplitude="1" exponent="2.4" offset="0" type="gamma"/>
    <feFuncG amplitude="1" exponent="2.4" offset="0" type="gamma"/>
    <feFuncB amplitude="1" exponent="2.4" offset="0" type="gamma"/>
   </feComponentTransfer>
  </filter>
 </defs>
 <g fill="none" font-family="Times New Roman" font-size="16" id="Document" stroke="black" transform="scale(1 -1)">
  <g id="Spread" transform="translate(0 -41.25)">
   <g id="Layer 1">
    <g id="Group" stroke-linejoin="miter" stroke-miterlimit="79.8403193612775" stroke-width="0.737">
     <path d="M 1.068,15.25 C 0.006,18.732 0.239,22.401 1.175,26.17 C 2.041,28.856 4.029,30.174 6.877,30.44 L 20.541,30.386 L 20.541,31.684 L 10.75,31.684 L 10.75,36.495 C 10.924,38.941 13.083,40.235 16.936,40.55 C 19.361,41.073 22.168,40.925 25.166,40.442 C 28.394,40.026 29.755,38.256 30.384,35.955 L 30.384,26.17 C 30.072,23.062 28.399,21.711 26.08,21.197 L 14.839,21.143 C 11.715,20.598 10.106,18.773 9.674,15.953 L 9.567,10.655 L 5.532,10.655 C 3.107,11.245 1.782,12.941 1.068,15.25 Z M 16.883,35.913 C 16.883,36.891 16.093,37.684 15.12,37.684 C 14.147,37.684 13.357,36.891 13.357,35.913 C 13.357,34.936 14.147,34.142 15.12,34.142 C 16.093,34.142 16.883,34.936 16.883,35.913 Z" fill="&stroke_color;" marker-end="none" marker-start="none"/>
     <path d="M 40.182,25.992 C 41.244,22.51 41.011,18.841 40.075,15.072 C 39.209,12.386 37.221,11.068 34.373,10.802 L 20.709,10.856 L 20.709,9.558 L 30.5,9.558 L 30.5,4.747 C 30.326,2.301 28.167,1.007 24.314,0.692 C 21.889,0.169 19.082,0.317 16.084,0.8 C 12.856,1.216 11.495,2.986 10.866,5.287 L 10.866,15.072 C 11.178,18.18 12.851,19.531 15.17,20.045 L 26.411,20.099 C 29.535,20.644 31.144,22.469 31.576,25.289 L 31.683,30.587 L 35.718,30.587 C 38.143,29.997 39.468,28.301 40.182,25.992 Z M 24.367,5.329 C 24.367,4.351 25.157,3.558 26.13,3.558 C 27.103,3.558 27.893,4.351 27.893,5.329 C 27.893,6.306 27.103,7.1 26.13,7.1 C 25.157,7.1 24.367,6.306 24.367,5.329 Z" fill="&fill_color;" marker-end="none" marker-start="none"/>
    </g>
   </g>
  </g>
 </g>
</svg>