<?xml version="1.0" encoding="UTF-8"?>
<!DOCTYPE svg PUBLIC "-//W3C//DTD SVG 1.1//EN" "http://www.w3.org/Graphics/SVG/1.1/DTD/svg11.dtd" [
  <!ENTITY fill_color "#A0A0A0">
  <!ENTITY stroke_color "#010101">
]>
<svg
   xmlns="http://www.w3.org/2000/svg"
   version="1.1"
   width="55"
   height="55"
   viewBox="0 0 55 55"
   id="svg3059"
   style="fill:&fill_color;;stroke:&stroke_color;;stroke-width:3.5;stroke-linecap:round;stroke-linejoin:round">
  <path
     d="M 49.163253,45.936044 31.995338,41.055422 18.261553,52.5 17.575598,34.584535 2.5,24.99581 19.243972,18.804065 23.660524,1.4333304 34.694823,15.522086 52.5,14.375106 42.575598,29.274182 z"
     id="path3760"
     style="fill:&fill_color;;fill-opacity:1" />
  <path
     d="m 25.359133,29.858086 c 1.211982,0.494619 -0.0072,2.044214 -0.746071,2.219639 -2.002473,0.475389 -3.363966,-1.941349 -3.282715,-3.863817 0.145339,-3.438842 3.395746,-5.478675 6.267001,-5.014738 4.213684,0.680847 6.613375,5.560785 5.819357,9.947271 -1.058302,5.846493 -6.702764,9.11037 -11.78793,7.809837 -6.399164,-1.636587 -9.92922,-9.213238 -8.355999,-16.030724 1.905381,-8.25689 10.021154,-12.77567 17.308859,-10.604938 8.588308,2.558132 13.261844,12.872062 10.892641,22.114179 C 38.738937,47.105184 28.131277,52.88707 18.644488,49.834832 7.8649962,46.366685 2.0432755,33.301452 5.2152048,21.6372 8.7736303,8.5516717 21.881626,1.5031683 33.565921,5.4420623 46.537704,9.8149815 53.509876,25.638026 49.531847,39.723149"
     id="path2990"
     style="fill:none;stroke:&stroke_color;;stroke-width:3.7052505;stroke-linecap:round;stroke-miterlimit:4;stroke-opacity:1;stroke-dasharray:none" />
</svg>
