<?xml version="1.0" encoding="utf-8"?>
<!DOCTYPE svg PUBLIC "-//W3C//DTD SVG 1.1//EN" "http://www.w3.org/Graphics/SVG/1.1/DTD/svg11.dtd" [
	<!ENTITY ns_svg "http://www.w3.org/2000/svg">
	<!ENTITY ns_xlink "http://www.w3.org/1999/xlink">
    <!ENTITY stroke_color "#000000">
	<!ENTITY fill_color "#AAAAAA">
]>
<svg  version="1.1" id="Layer_3" xmlns="&ns_svg;" xmlns:xlink="&ns_xlink;" width="54.846" height="54.869"
	 viewBox="0 0 54.846 54.869" overflow="visible" enable-background="new 0 0 54.846 54.869" xml:space="preserve">

<g transform="translate(4,4)">
<g transform="scale(0.84)">

<polyline fill="&fill_color;" stroke="&stroke_color;" stroke-width="3" points="53.346,15.084 53.346,53.369 1.5,53.369 1.5,1.5 53.346,1.5 
	53.346,15.084 "/>
<path fill="&fill_color;" stroke="&stroke_color;" stroke-width="3" d="M6.887,13.869c3.019-2.395,10.302-6.663,14.985-3.332
	s5.1,4.164,5.1,4.164S40.604,6.79,43.934,6.998c3.331,0.208,6.452,36.75,6.452,36.75s-13.634-5.621-18.107-1.665
	c-4.474,3.956-5.515,3.228-5.515,3.228l-1.977-1.354c0,0-14.048-7.287-16.547-0.104C5.743,51.036,6.887,13.869,6.887,13.869z"/>
<line fill="&fill_color;" stroke="&stroke_color;" stroke-width="3" x1="26.555" y1="14.286" x2="27.284" y2="44.997"/>
<path fill="&fill_color;" stroke="&stroke_color;" stroke-width="3" d="M9.365,43.038c-0.211,2.529,1.789,5.499,1.789,5.499
	s5.717-3.692,7.695-2.549c1.978,1.146,8.227-1.719,8.227-1.719"/>
<path fill="&fill_color;" stroke="&stroke_color;" stroke-width="3" d="M30.966,43.775c1.562,0.521,14.737,2.888,15.569,4.137
	c0.831,1.25-0.729-5.725-0.729-5.725"/>
<line fill="&fill_color;" stroke="&stroke_color;" stroke-width="3" x1="12.715" y1="18.242" x2="21.561" y2="34.378"/>
<path fill="&fill_color;" stroke="&stroke_color;" stroke-width="3" d="M10.841,31.984"/>
<line fill="&fill_color;" stroke="&stroke_color;" stroke-width="3" x1="22.497" y1="22.093" x2="11.362" y2="31.984"/>
<line fill="&fill_color;" stroke="&stroke_color;" stroke-width="3" x1="11.675" y1="25.216" x2="22.601" y2="27.716"/>
<path fill="&fill_color;" stroke="&stroke_color;" stroke-width="3" d="M18.335,19.178"/>
<line fill="&fill_color;" stroke="&stroke_color;" stroke-width="3" x1="18.335" y1="19.178" x2="14.9" y2="39.896"/>
<polygon fill="&fill_color;" stroke="&stroke_color;" stroke-width="3" points="36.337,24.696 37.17,17.617 39.06,23.288 44.482,24.027 
	38.73,25.529 43.661,33.233 37.586,27.091 32.799,34.898 36.442,25.841 30.926,25.753 "/>

</g>
</g>

</svg>

