<?xml version="1.0" encoding="utf-8"?>
<!-- Generator: Adobe Illustrator 12.0.0, SVG Export Plug-In . SVG Version: 6.00 Build 51448)  -->
<!DOCTYPE svg PUBLIC "-//W3C//DTD SVG 1.1//EN" "http://www.w3.org/Graphics/SVG/1.1/DTD/svg11.dtd" [
	<!ENTITY ns_svg "http://www.w3.org/2000/svg">
	<!ENTITY ns_xlink "http://www.w3.org/1999/xlink">
	<!ENTITY stroke_color "#010101">
	<!ENTITY fill_color "#FFFFFF">
]>
<svg  version="1.1" xmlns="&ns_svg;" xmlns:xlink="&ns_xlink;" width="60.818" height="55.881" viewBox="0 0 60.818 55.881"
	 overflow="visible" enable-background="new 0 0 60.818 55.881" xml:space="preserve">
	<g transform="translate(6.5,4)">
	<g transform="scale(0.84)">
<g id="Layer_3">
	<polyline fill="&fill_color;" stroke="&stroke_color;" stroke-width="3" points="54.152,15.419 54.152,54.17 1.651,54.17 1.651,1.669 
		54.152,1.669 54.152,15.419 	"/>
	<path fill="&fill_color;" stroke="&stroke_color;" stroke-width="3" d="M60.818,30.336"/>
</g>
<g id="Layer_4">
	<path fill="&fill_color;" stroke="&stroke_color;" stroke-width="3" d="M27.646,9.952c0.409,2.399-1.192,4.68-3.581,5.092
		c-2.387,0.411-4.654-1.2-5.063-3.599c-0.41-2.4,1.193-4.68,3.579-5.091C24.969,5.94,27.235,7.552,27.646,9.952z"/>
	<line fill="&fill_color;" stroke="&stroke_color;" stroke-width="3" x1="25.067" y1="15.431" x2="27.226" y2="28.071"/>
	<line fill="&fill_color;" stroke="&stroke_color;" stroke-width="3" x1="20.979" y1="18.345" x2="29.736" y2="16.833"/>
	<line fill="&fill_color;" stroke="&stroke_color;" stroke-width="3" x1="30.719" y1="16.936" x2="36.044" y2="22.17"/>
	<line fill="&fill_color;" stroke="&stroke_color;" stroke-width="3" x1="19.667" y1="17.971" x2="15.776" y2="24.991"/>
	<line fill="&fill_color;" stroke="&stroke_color;" stroke-width="3" x1="23.174" y1="29.12" x2="31.431" y2="27.697"/>
	<line fill="&fill_color;" stroke="&stroke_color;" stroke-width="3" x1="22.866" y1="30.065" x2="18.054" y2="37.75"/>
	<line fill="&fill_color;" stroke="&stroke_color;" stroke-width="3" x1="31.888" y1="28.515" x2="39.915" y2="34.097"/>
	<line fill="&fill_color;" stroke="&stroke_color;" stroke-width="3" x1="40.181" y1="34.355" x2="42.992" y2="40.625"/>
	<line fill="&fill_color;" stroke="&stroke_color;" stroke-width="3" x1="44.099" y1="41.667" x2="48.082" y2="38.947"/>
	<line fill="&fill_color;" stroke="&stroke_color;" stroke-width="3" x1="19.086" y1="38.948" x2="28.983" y2="37.354"/>
	<line fill="&fill_color;" stroke="&stroke_color;" stroke-width="3" x1="30.082" y1="38.037" x2="29.345" y2="42.514"/>
	<line fill="&fill_color;" stroke="&stroke_color;" stroke-width="3" x1="36.754" y1="23.001" x2="43.103" y2="20.344"/>
	<line fill="&fill_color;" stroke="&stroke_color;" stroke-width="3" x1="9.386" y1="29.209" x2="15.307" y2="25.819"/>
	<ellipse fill="&fill_color;" stroke="&stroke_color;" stroke-width="3.5" cx="7.699" cy="50.284" rx="3.33" ry="3.484"/>
	<ellipse fill="&fill_color;" stroke="&stroke_color;" stroke-width="3.5" cx="21.102" cy="50.284" rx="3.331" ry="3.484"/>
	<ellipse fill="&fill_color;" stroke="&stroke_color;" stroke-width="3.5" cx="34.84" cy="50.284" rx="3.33" ry="3.484"/>
	<ellipse fill="&fill_color;" stroke="&stroke_color;" stroke-width="3.5" cx="48.08" cy="50.284" rx="3.33" ry="3.484"/>
	</g>
	</g>
</g>
</svg>
