<?xml version="1.0" encoding="UTF-8" standalone="no"?><!DOCTYPE svg  PUBLIC '-//W3C//DTD SVG 1.1//EN'  'http://www.w3.org/Graphics/SVG/1.1/DTD/svg11.dtd' [
	<!ENTITY stroke_color "#010101">
	<!ENTITY fill_color "#FFFFFF">
]>
<svg
   xmlns:dc="http://purl.org/dc/elements/1.1/"
   xmlns:cc="http://creativecommons.org/ns#"
   xmlns:rdf="http://www.w3.org/1999/02/22-rdf-syntax-ns#"
   xmlns:svg="http://www.w3.org/2000/svg"
   xmlns="http://www.w3.org/2000/svg"
   xmlns:sodipodi="http://sodipodi.sourceforge.net/DTD/sodipodi-0.dtd"
   xmlns:inkscape="http://www.inkscape.org/namespaces/inkscape"
   enable-background="new 0 0 55 55"
   height="55px"
   version="1.1"
   viewBox="0 0 55 55"
   width="55px"
   x="0px"
   xml:space="preserve"
   y="0px"
   id="svg3050"
   inkscape:version="0.48.4 r9939"
   sodipodi:docname="activity-icon.svg"><metadata
     id="metadata3067"><rdf:RDF><cc:Work
         rdf:about=""><dc:format>image/svg+xml</dc:format><dc:type
           rdf:resource="http://purl.org/dc/dcmitype/StillImage" /></cc:Work></rdf:RDF></metadata><defs
     id="defs3065" /><sodipodi:namedview
     pagecolor="#ffffff"
     bordercolor="#666666"
     borderopacity="1"
     objecttolerance="10"
     gridtolerance="10"
     guidetolerance="10"
     inkscape:pageopacity="0"
     inkscape:pageshadow="2"
     inkscape:window-width="1280"
     inkscape:window-height="745"
     id="namedview3063"
     showgrid="false"
     inkscape:zoom="4.3636364"
     inkscape:cx="16.052084"
     inkscape:cy="27.5"
     inkscape:window-x="0"
     inkscape:window-y="27"
     inkscape:window-maximized="1"
     inkscape:current-layer="svg3050" /><rect
     fill="&fill_color;"
     stroke="&stroke_color;"
     style="stroke-width:3.5;stroke-miterlimit:4;stroke-opacity:1;stroke-dasharray:none;fill-opacity:1"
     id="rect3069"
     width="51.179607"
     height="50.950451"
     x="1.566443"
     y="2.253943"
     ry="12.604167" /><g
     fill="&stroke_color;"
     style="font-size:40px;font-style:normal;font-weight:normal;line-height:125%;letter-spacing:0px;word-spacing:0px;fill:&stroke_color;;fill-opacity:1;stroke:none;font-family:Sans"
     id="text3839"
     transform="matrix(1.1084813,0,0,1.2651173,-2.9510294,-5.7082564)"><path
       d="m 9.4218755,30.33073 5.1328125,0 0,2.210938 -8.4765625,0 0,-2.210938 4.2578125,-3.757812 c 0.380202,-0.343744 0.661452,-0.679681 0.84375,-1.007813 0.182285,-0.328117 0.273431,-0.669263 0.273437,-1.023437 -6e-6,-0.546867 -0.184902,-0.98697 -0.554687,-1.320313 -0.364589,-0.333323 -0.851568,-0.49999 -1.4609375,-0.5 -0.4687542,10e-6 -0.9817745,0.101573 -1.5390625,0.304688 -0.5572942,0.197926 -1.1536478,0.494801 -1.7890625,0.890625 l 0,-2.5625 C 6.7864568,21.130221 7.455727,20.96095 8.117188,20.846355 8.7786423,20.726576 9.4270792,20.66668 10.0625,20.666668 c 1.395827,1.2e-5 2.479159,0.307303 3.25,0.921875 0.776033,0.614594 1.164053,1.471364 1.164063,2.570312 -1e-5,0.635425 -0.164072,1.229174 -0.492188,1.78125 -0.328133,0.546881 -1.018237,1.281256 -2.070312,2.203125 l -2.4921875,2.1875"
       style="font-size:16px;font-weight:bold;-inkscape-font-specification:Sans Bold"
       id="path3844"
       inkscape:connector-curvature="0" /><path
       d="m 23.296875,26.697918 c -7e-6,-1.458326 -0.138028,-2.484367 -0.414062,-3.078125 -0.27084,-0.598949 -0.729173,-0.898428 -1.375,-0.898438 -0.645838,10e-6 -1.106775,0.299489 -1.382813,0.898438 -0.276045,0.593758 -0.414066,1.619799 -0.414062,3.078125 -4e-6,1.473963 0.138017,2.513024 0.414062,3.117187 0.276038,0.604169 0.736975,0.906252 1.382813,0.90625 0.640619,2e-6 1.098952,-0.302081 1.375,-0.90625 0.276034,-0.604163 0.414055,-1.643224 0.414062,-3.117187 m 3.007813,0.02344 c -10e-6,1.932296 -0.416677,3.424482 -1.25,4.476563 -0.833342,1.046875 -2.015632,1.570312 -3.546875,1.570312 -1.536462,0 -2.721357,-0.523437 -3.554688,-1.570312 -0.833334,-1.052081 -1.25,-2.544267 -1.25,-4.476563 0,-1.937492 0.416666,-3.429678 1.25,-4.476562 0.833331,-1.052072 2.018226,-1.578113 3.554688,-1.578125 1.531243,1.2e-5 2.713533,0.526053 3.546875,1.578125 0.833323,1.046884 1.24999,2.53907 1.25,4.476562"
       style="font-size:16px;font-weight:bold;-inkscape-font-specification:Sans Bold"
       id="path3846"
       inkscape:connector-curvature="0" /><path
       d="m 32.953125,23.354168 -3.296875,4.882812 3.296875,0 0,-4.882812 m -0.5,-2.476563 3.34375,0 0,7.359375 1.664063,0 0,2.179688 -1.664063,0 0,2.125 -2.84375,0 0,-2.125 -5.171875,0 0,-2.578125 4.671875,-6.960938"
       style="font-size:16px;font-weight:bold;-inkscape-font-specification:Sans Bold"
       id="path3848"
       inkscape:connector-curvature="0" /><path
       d="m 43.757813,27.322918 c -0.562505,5e-6 -0.994796,0.153651 -1.296875,0.460937 -0.302087,0.307297 -0.453129,0.7474 -0.453125,1.320313 -4e-6,0.572919 0.151038,1.013023 0.453125,1.320312 0.302079,0.302086 0.73437,0.453127 1.296875,0.453125 0.557286,2e-6 0.984368,-0.151039 1.28125,-0.453125 0.296868,-0.307289 0.445305,-0.747393 0.445312,-1.320312 -7e-6,-0.578121 -0.148444,-1.018225 -0.445312,-1.320313 -0.296882,-0.307286 -0.723964,-0.460932 -1.28125,-0.460937 M 41.5625,26.33073 c -0.708336,-0.213535 -1.242189,-0.541659 -1.601562,-0.984375 -0.359376,-0.4427 -0.539064,-0.994783 -0.539063,-1.65625 -10e-7,-0.984365 0.367186,-1.734364 1.101563,-2.25 0.734372,-0.515613 1.812496,-0.773425 3.234375,-0.773437 1.411451,1.2e-5 2.484367,0.257824 3.21875,0.773437 0.734365,0.510428 1.101553,1.260427 1.101562,2.25 -9e-6,0.661467 -0.182301,1.21355 -0.546875,1.65625 -0.359384,0.442716 -0.893237,0.77084 -1.601562,0.984375 0.791658,0.218756 1.388012,0.575527 1.789062,1.070313 0.406241,0.489588 0.609365,1.109379 0.609375,1.859375 -1e-5,1.156252 -0.385426,2.031251 -1.15625,2.625 -0.765633,0.588542 -1.903652,0.882812 -3.414062,0.882812 -1.515629,0 -2.661461,-0.29427 -3.4375,-0.882812 -0.770835,-0.593749 -1.156251,-1.468748 -1.15625,-2.625 -10e-7,-0.749996 0.20052,-1.369787 0.601562,-1.859375 0.406248,-0.494786 1.005206,-0.851557 1.796875,-1.070313 m 0.703125,-2.335937 c -4e-6,0.46355 0.1276,0.82032 0.382813,1.070312 0.260412,0.250008 0.630203,0.375008 1.109375,0.375 0.468744,8e-6 0.830723,-0.124992 1.085937,-0.375 0.255202,-0.249992 0.382806,-0.606762 0.382813,-1.070312 -7e-6,-0.463533 -0.127611,-0.817699 -0.382813,-1.0625 -0.255214,-0.24999 -0.617193,-0.37499 -1.085937,-0.375 -0.479172,10e-6 -0.848963,0.12501 -1.109375,0.375 -0.255213,0.250009 -0.382817,0.604176 -0.382813,1.0625"
       style="font-size:16px;font-weight:bold;-inkscape-font-specification:Sans Bold"
       id="path3850"
       inkscape:connector-curvature="0" /></g></svg>
