<?xml version="1.0" encoding="UTF-8" standalone="no"?>
<svg
   xmlns:dc="http://purl.org/dc/elements/1.1/"
   xmlns:cc="http://creativecommons.org/ns#"
   xmlns:rdf="http://www.w3.org/1999/02/22-rdf-syntax-ns#"
   xmlns:svg="http://www.w3.org/2000/svg"
   xmlns="http://www.w3.org/2000/svg"
   xmlns:sodipodi="http://sodipodi.sourceforge.net/DTD/sodipodi-0.dtd"
   xmlns:inkscape="http://www.inkscape.org/namespaces/inkscape"
   version="1.0"
   width="55"
   height="55"
   id="svg4502"
   style="display:inline"
   inkscape:version="0.47 r22583"
   sodipodi:docname="conozco-actividades.svg">
  <metadata
     id="metadata2876">
    <rdf:RDF>
      <cc:Work
         rdf:about="">
        <dc:format>image/svg+xml</dc:format>
        <dc:type
           rdf:resource="http://purl.org/dc/dcmitype/StillImage" />
        <dc:title />
      </cc:Work>
    </rdf:RDF>
  </metadata>
  <sodipodi:namedview
     pagecolor="#ffffff"
     bordercolor="#666666"
     borderopacity="1"
     objecttolerance="10"
     gridtolerance="10"
     guidetolerance="10"
     inkscape:pageopacity="0"
     inkscape:pageshadow="2"
     inkscape:window-width="1194"
     inkscape:window-height="780"
     id="namedview2874"
     showgrid="false"
     inkscape:zoom="39.246558"
     inkscape:cx="19.366148"
     inkscape:cy="25.435214"
     inkscape:window-x="0"
     inkscape:window-y="30"
     inkscape:window-maximized="0"
     inkscape:current-layer="svg4502" />
  <defs
     id="defs4504">
    <inkscape:perspective
       sodipodi:type="inkscape:persp3d"
       inkscape:vp_x="0 : 27.5 : 1"
       inkscape:vp_y="0 : 1000 : 0"
       inkscape:vp_z="55 : 27.5 : 1"
       inkscape:persp3d-origin="27.5 : 18.333333 : 1"
       id="perspective2878" />
  </defs>
  <g
     id="terron"
     transform="matrix(0.5,0,0,0.5,28.479076,24.805112)"
     style="fill:#666666">
    <path
       id="cuerpo"
       d="m 38.822128,44.108722 c 0,0 -0.376363,0 -0.729309,0 0,-1.361344 0.0042,-5.649084 0.0042,-6.783539 0,0 0,0 0,-0.0017 l 0,-12.760539 -0.0075,-7.751552 c -0.0033,-0.878581 -0.727637,-1.586579 -1.609164,-1.582439 -0.427382,0 -0.831345,0.16727 -1.132437,0.467859 -0.301927,0.302245 -0.465854,0.702202 -0.464182,1.127001 0,0.03975 0.0017,2.534719 0.0042,4.633873 l -12.816435,0 c -1.740473,0 -3.151419,1.396952 -3.151419,3.117679 l 0,1.724867 -5.654655,0.0033 c -0.887382,0.0058 -1.601636,0.72042 -1.59829,1.593205 0.0017,0.424799 0.170617,0.823099 0.474217,1.121205 0.305274,0.298933 0.709237,0.461234 1.135782,0.459578 0.04935,0 3.419892,-0.0017 5.642109,-0.0033 l 0,7.540395 c 0,0.01159 -0.0033,0.02153 -0.0033,0.03229 0,0.05797 0.0033,5.498377 0.0033,7.060942 -0.352109,0 -0.729309,0 -0.729309,0 -0.904108,0.01739 -1.605818,0.74195 -1.590763,1.616391 0.0184,0.876924 0.752727,1.572502 1.635091,1.555112 l 2.303345,-0.0017 c 0.9016,-0.01656 1.607491,-0.741949 1.589091,-1.616389 l -0.0033,-5.219318 12.764581,0 -0.0059,5.219318 c -0.01673,0.875268 0.689163,1.600657 1.590764,1.616389 l 2.301672,0.0017 c 0.886545,0.01739 1.619201,-0.678188 1.636764,-1.555112 0.01756,-0.874441 -0.687491,-1.598173 -1.589091,-1.615563 z M 30.604855,25.673428 c 0.592982,-0.08281 1.143309,0.326259 1.227782,0.914187 0.08531,0.587101 -0.329527,1.132798 -0.922509,1.217261 -0.596328,0.08281 -1.145818,-0.327914 -1.229455,-0.914187 -0.08531,-0.588757 0.329528,-1.134454 0.924182,-1.217261 z m -5.654654,0.794117 c 0.592145,-0.08281 1.143309,0.32626 1.226946,0.914189 0.08531,0.588756 -0.329528,1.131969 -0.921674,1.217261 -0.596327,0.08446 -1.145817,-0.32626 -1.229454,-0.914188 -0.08447,-0.588758 0.327855,-1.132798 0.924182,-1.217262 z m 1.434364,9.080603 c -1.020364,-0.72042 -2.6404,-2.733455 -2.058292,-4.100596 0.205746,-0.481109 0.658219,-0.182176 1.150837,0.0621 1.175927,0.594553 2.576,0.670735 3.831382,0.29562 0.638145,-0.190456 1.183454,-0.499326 1.703673,-0.911703 0.316144,-0.252562 1.179272,-1.257009 1.654326,-0.803228 0.371346,0.355242 0.43491,0.795775 0.43491,0.799915 0.532763,3.368583 -3.68251,6.798445 -6.716836,4.657887 z"
       style="fill:#666666" />
    <path
       id="pelo_oscuro"
       d="m 17.233073,11.642631 c 1.738801,-2.9454406 7.191892,-2.9669703 8.1788,0.590413 0.3312,1.195731 0.305274,3.767713 -1.020363,4.464947 -0.465855,0.245108 -0.627273,-0.269951 -0.851418,-0.768448 -0.536946,-1.193247 -1.570691,-2.129793 -2.784255,-2.622494 -0.6164,-0.251732 -1.236146,-0.356897 -1.901891,-0.36021 -0.407309,-0.0033 -1.716218,0.237656 -1.793163,-0.414034 -0.06022,-0.505122 0.17229,-0.888518 0.17229,-0.890174 z"
       style="fill:#666666" />
    <g
       transform="matrix(0.8363636,0,0,0.8280687,4.3773279,7.643887)"
       id="pelo_claro"
       style="fill:#666666">
      <path
         d="M 30.514,13.666 C 25.959,9.955 27.36,0.759 33.675,0.043 c 2.124,-0.241 6.496,0.494 7.331,2.911 0.293,0.848 -0.624,0.982 -1.533,1.226 -2.174,0.585 -4.039,2.081 -5.2,3.992 -0.592,0.972 -0.931,1.989 -1.113,3.109 -0.113,0.683 -0.052,2.955 -1.178,2.913 -0.875,-0.032 -1.466,-0.526 -1.468,-0.528 z"
         id="path2674"
         style="fill:#666666" />
    </g>
  </g>
  <flowRoot
     xml:space="preserve"
     id="nombre"
     style="font-size:8px;font-style:normal;font-weight:normal;fill:#4d4d4d;fill-opacity:1;stroke:none;font-family:Bitstream Vera Sans"
     transform="matrix(1.0213295,0,0,1.2730557,2.5683141,0.04835265)"><flowRegion
       id="flowRegion2824"><rect
         id="rect2826"
         width="56.165257"
         height="30.063559"
         x="-0.23305085"
         y="1.1652543e-07"
         style="fill:#4d4d4d" /></flowRegion><flowPara
       id="flowPara2832"
       style="font-style:italic;font-variant:normal;font-weight:bold;font-stretch:normal;fill:#4d4d4d;font-family:cmr10;-inkscape-font-specification:cmr10 Bold Italic">Conozco </flowPara><flowPara
       id="flowPara2830"
       style="font-style:italic;font-variant:normal;font-weight:bold;font-stretch:normal;fill:#4d4d4d;font-family:cmr10;-inkscape-font-specification:cmr10 Bold Italic">   Actividades</flowPara></flowRoot>  <flowRoot
     xml:space="preserve"
     id="flowRoot2836"
     style="fill:#ffffff;stroke:none;stroke-opacity:1;stroke-width:1px;stroke-linejoin:miter;stroke-linecap:butt;fill-opacity:1;font-family:Bitstream Vera Sans;font-style:normal;font-weight:normal;font-size:8"><flowRegion
       id="flowRegion2838"><rect
         id="rect2840"
         width="31.228813"
         height="30.995762"
         x="1.1652542"
         y="23.538136"
         style="fill:#ffffff" /></flowRegion><flowPara
       id="flowPara2842" /></flowRoot>  <text
     xml:space="preserve"
     style="font-size:28px;font-style:normal;font-weight:normal;fill:#666666;fill-opacity:1;stroke:none;font-family:Bitstream Vera Sans"
     x="6.8750005"
     y="49.057201"
     id="version"><tspan
       sodipodi:role="line"
       id="tspan2846"
       x="6.8750005"
       y="49.057201">1</tspan></text>
  <flowRoot
     xml:space="preserve"
     id="flowRoot2848"
     style="font-size:8px;font-style:normal;font-weight:normal;fill:#000000;fill-opacity:1;stroke:none;font-family:Bitstream Vera Sans"><flowRegion
       id="flowRegion2850"><rect
         id="rect2852"
         width="55.699154"
         height="55.233051"
         x="-0.23305085"
         y="1.1652543e-07" /></flowRegion><flowPara
       id="flowPara2854" /><flowPara
       id="flowPara2856" /></flowRoot>  <path
     style="fill:none"
     d="m 42.654639,53.505334 c -0.290316,-0.06453 -0.558173,-0.415096 -0.558173,-0.730521 0,-0.39147 0.286183,-0.678817 0.744521,-0.747549 l 0.359585,-0.05392 0,-3.650843 0,-3.650843 -1.563819,-0.02702 c -1.561868,-0.02698 -1.564088,-0.02729 -1.779752,-0.243121 -0.297419,-0.297651 -0.297419,-0.753271 0,-1.050922 0.215664,-0.215833 0.217884,-0.216136 1.779752,-0.243121 l 1.563819,-0.02702 4.61e-4,-0.467357 c 8.88e-4,-0.903172 0.301972,-1.462919 0.943685,-1.754408 0.30536,-0.138706 0.611145,-0.151408 3.684956,-0.153067 l 3.351962,-0.0018 0.02627,-1.316686 c 0.0261,-1.308029 0.02774,-1.31816 0.25061,-1.540804 0.307003,-0.306696 0.727593,-0.306616 1.034443,1.98e-4 l 0.224342,0.224315 0.02241,6.960609 c 0.02225,6.909903 0.02362,6.960609 0.188038,6.960609 0.335668,0 0.740935,0.237385 0.850621,0.498249 0.139278,0.331247 0.08579,0.594139 -0.169716,0.834177 -0.186844,0.17553 -0.277333,0.191898 -1.060914,0.191898 -0.826127,0 -0.864785,-0.0081 -1.085107,-0.228254 l -0.228461,-0.228254 -0.0258,-1.481461 -0.0258,-1.481461 -3.203038,0 -3.203039,0 -0.0258,1.481461 -0.0258,1.481461 -0.223538,0.223331 c -0.205282,0.205092 -0.28267,0.224873 -0.947553,0.242201 -0.398208,0.01038 -0.802833,0.0014 -0.899166,-0.02007 z m 6.213391,-5.667283 c 0.521979,-0.26727 1.020947,-0.765966 1.24651,-1.245832 0.333432,-0.709346 0.221248,-1.686216 -0.193646,-1.686216 -0.0952,0 -0.394829,0.167217 -0.665843,0.371593 -0.821272,0.619334 -1.643641,0.76487 -2.511455,0.444457 -0.883414,-0.326174 -0.935995,-0.308589 -0.926644,0.309899 0.0092,0.60578 0.686304,1.53765 1.357887,1.868687 0.421471,0.207752 1.223086,0.178121 1.693191,-0.06259 l 0,0 z m -2.192719,-3.72758 c 0.434452,-0.393173 -0.07153,-1.147903 -0.627786,-0.936415 -0.385904,0.146721 -0.470483,0.636018 -0.163077,0.943424 0.169272,0.169272 0.600297,0.165452 0.790863,-0.007 l 0,-1e-6 z m 2.817265,-0.399697 c 0.258313,-0.258312 0.227618,-0.690056 -0.06285,-0.884006 -0.161544,-0.107866 -0.568116,-0.06663 -0.722741,0.0733 -0.18775,0.169912 -0.195313,0.584104 -0.01432,0.784102 0.166336,0.183801 0.627373,0.199132 0.799905,0.0266 l 0,0 z"
     id="path2874" />
  <path
     style="fill:none"
     id="path2876"
     d="m 2.3117457,1.2115455 c 0.3188863,0.4619685 0.6944994,0.8748837 1.112361,1.248037 0.484657,0.38344 1.0274055,0.67917 1.6036947,0.8979746 0.4625411,0.1605458 0.9406873,0.2697931 1.4099271,0.4093681 0.5375691,0.1323572 1.0753564,0.2639193 1.6137226,0.3930077 0.7705579,0.1807764 1.5276853,0.4181736 2.2782969,0.6680822 1.09341,0.4032853 2.169362,0.8504144 3.261753,1.256591 0.639167,0.25346 1.282504,0.4980807 1.914635,0.7688649 0.213383,0.071195 0.38114,0.2332046 0.590731,0.3108293 0.05171,0.019151 0.240159,0.066826 0.286345,0.078897 0.526932,0.1392289 1.052289,0.2840671 1.57919,0.4236049 0.534473,0.1203153 1.037188,0.3280894 1.532895,0.5554488 0.20249,0.1026049 0.105008,0.054253 0.292247,0.1454515 0,0 -1.006285,0.6610536 -1.006285,0.6610536 l 0,0 C 18.601084,8.9329279 18.694677,8.9826295 18.500466,8.8796804 18.021014,8.6436612 17.52589,8.4494232 17.004331,8.3258878 16.468997,8.1858254 15.931964,8.0524789 15.393871,7.923445 15.281916,7.8932117 15.195198,7.8745571 15.089246,7.8282447 14.889568,7.7409634 14.727758,7.5831339 14.520892,7.5085618 13.906069,7.2293087 13.279629,6.9752968 12.657976,6.7118616 11.575497,6.2821318 10.500227,5.8314444 9.3942363,5.4643569 8.6330166,5.2299428 7.8697012,4.9969541 7.0917527,4.8239474 6.54669,4.698782 6.0016172,4.5729869 5.4594749,4.4356859 4.989181,4.2983133 4.5100428,4.1871421 4.0518525,4.0121025 3.4716704,3.775093 2.9231452,3.4684256 2.4338631,3.0740186 2.0085914,2.6931106 1.635507,2.2667602 1.2671544,1.8314577 c 0,0 1.0445913,-0.6199122 1.0445913,-0.6199122 z" />
  <path
     style="fill:#00ff00;fill-opacity:1"
     d="m 51.556654,51.553489 c 0.211337,-0.005 0.565283,-0.005 0.786547,-2.8e-5 0.221264,0.005 0.04835,0.009 -0.384249,0.009 -0.4326,1.5e-5 -0.613634,-0.004 -0.402298,-0.009 z"
     id="path2968" />
  <path
     style="fill:#00ff00;fill-opacity:1"
     d=""
     id="path2877" />
  <path
     style="fill:#00ff00;fill-opacity:1"
     d=""
     id="path2885" />
  <path
     style="fill:#00ff00;fill-opacity:1"
     d="m 37.898849,48.465334 c 0.177126,-0.02678 0.439308,-0.02607 0.582627,0.0016 0.143319,0.02766 -0.0016,0.04957 -0.322047,0.0487 -0.320445,-8.75e-4 -0.437706,-0.02351 -0.26058,-0.05029 z"
     id="path2915" />
  <path
     style="fill:#00ff00;fill-opacity:1"
     d=""
     id="path2947" />
  <path
     style="fill:#ffffff;fill-opacity:1"
     d="M 5.4702573,10.005231 C 5.2305113,9.9898161 4.9671736,9.9154366 4.7058591,9.7893272 4.4615344,9.6714172 4.4151049,9.6367548 4.1707803,9.3898585 3.8062935,9.0215355 3.6237753,8.7046438 3.4695059,8.1722924 3.3659946,7.8150967 3.3248929,7.5017169 3.3247194,7.0683681 3.3241862,5.7366488 3.8748077,4.4370692 4.8263735,3.5241567 5.2117788,3.1544069 5.599827,2.9132569 6.0506264,2.7633527 6.9008655,2.4806229 7.5851149,2.6778087 8.0240025,3.3320368 l 0.116082,0.1730376 0.062889,-0.084759 c 0.034588,-0.046617 0.179018,-0.242416 0.320954,-0.435108 0.1786636,-0.2425531 0.2733835,-0.3503492 0.3078502,-0.3503492 0.027381,0 0.055648,0.00949 0.062815,0.021084 0.019165,0.03101 -0.4340569,2.8337369 -0.4629009,2.862581 -0.013489,0.013489 -0.069034,0.020876 -0.1234328,0.016417 l -0.098908,-0.00811 0.0079,-0.3567191 C 8.2338158,4.4217638 8.0231273,3.7040386 7.6771986,3.3303942 7.3844618,3.0142037 7.0052813,2.9064742 6.5303755,3.0045687 5.6967589,3.1767569 4.9607672,3.9094805 4.5697728,4.9564654 4.2628385,5.7783587 4.071217,7.0442969 4.1413865,7.7865786 c 0.036163,0.3825472 0.104572,0.656112 0.2313712,0.9252457 0.2247984,0.4771387 0.5915282,0.8010101 1.0389771,0.9175559 0.1856119,0.048346 0.590218,0.048394 0.7719609,1.019e-4 C 6.63693,9.5090257 7.0877869,9.1555389 7.4284991,8.6535152 7.6391718,8.3430987 7.8530662,7.8385108 7.9179871,7.498788 7.9351055,7.4092092 7.9593385,7.3158519 7.9718379,7.2913275 7.9961002,7.2437246 8.1314751,7.2286665 8.1574422,7.2706821 8.1797994,7.3068568 8.0838248,7.713946 7.991885,7.9729159 7.8257757,8.4408008 7.5767819,8.8499997 7.2445538,9.2010871 6.9833958,9.4770697 6.7646829,9.640864 6.451235,9.7952039 6.115268,9.9606324 5.8060799,10.026833 5.4702573,10.005241 l 0,-10e-6 z"
     id="path2950" />
  <path
     style="fill:#ffffff;fill-opacity:1"
     d="M 9.9037671,9.8485408 C 9.5027759,9.7187483 9.2143059,9.4637274 9.0254962,9.0721081 8.9637426,8.944022 8.8943488,8.7704282 8.8712878,8.6863444 8.8076907,8.4544596 8.793324,7.8988687 8.8434679,7.6104906 9.0240344,6.5720505 9.6957008,5.6555461 10.502858,5.3462142 c 0.240902,-0.092322 0.627617,-0.1141832 0.868143,-0.049076 0.475201,0.128631 0.870838,0.607122 1.032636,1.2488909 0.07635,0.3028266 0.0821,0.8594405 0.01224,1.1848173 -0.12968,0.604017 -0.402816,1.1238407 -0.802595,1.527471 -0.301894,0.3048017 -0.639261,0.5105637 -0.982321,0.5991218 -0.20434,0.052749 -0.549797,0.048521 -0.7271949,-0.0089 z M 10.738515,9.5563027 c 0.33481,-0.122728 0.537048,-0.3815899 0.755683,-0.9672665 0.214356,-0.5742144 0.332374,-1.2490688 0.332771,-1.9028672 2.65e-4,-0.4348447 -0.0043,-0.4828025 -0.05908,-0.6187697 -0.07876,-0.1955313 -0.292754,-0.4260326 -0.468828,-0.5049867 -0.105082,-0.04712 -0.178637,-0.060132 -0.340494,-0.060237 -0.191679,-1.239e-4 -0.222064,0.0076 -0.424492,0.1079072 -0.505664,0.2505662 -0.7731257,0.7230856 -0.9480305,1.6748649 -0.1161376,0.6319858 -0.1532082,1.3140643 -0.087936,1.6179763 0.066977,0.3118523 0.212562,0.5369612 0.4145903,0.6410559 0.1848494,0.095243 0.5833794,0.1011905 0.8258164,0.012323 l 0,0 z"
     id="path2952" />
  <path
     style="fill:#ffffff;fill-opacity:1"
     d="m 12.617744,9.6354722 c 0.01,-0.087587 0.01968,-0.1609841 0.02161,-0.1631038 0.0019,-0.00212 0.103525,-0.015999 0.225772,-0.030843 0.245005,-0.029749 0.354966,-0.074354 0.417109,-0.1691959 0.02698,-0.041178 0.123556,-0.5721929 0.281419,-1.5473763 0.265768,-1.6417618 0.274948,-1.7528785 0.154751,-1.8730757 -0.05922,-0.059221 -0.09373,-0.069884 -0.253549,-0.078349 -0.101749,-0.00539 -0.193454,-0.017666 -0.203789,-0.027283 -0.01034,-0.00962 -0.0066,-0.08674 0.0083,-0.1713857 l 0.02711,-0.1539012 0.577721,-0.052152 c 0.317746,-0.028684 0.581561,-0.048795 0.586257,-0.044693 0.0047,0.0041 -0.02677,0.2224933 -0.06992,0.485313 -0.04315,0.2628198 -0.07456,0.4817465 -0.06981,0.4865037 0.0048,0.00476 0.06386,-0.074387 0.13135,-0.1758757 0.166037,-0.249697 0.343645,-0.4322382 0.563874,-0.5795358 0.255404,-0.1708246 0.403647,-0.2177353 0.684485,-0.2166018 0.483993,0.00195 0.765717,0.1973626 0.869698,0.6032381 0.06622,0.2584881 0.03654,0.5609819 -0.195089,1.9879021 l -0.213954,1.3180687 0.05222,0.070588 c 0.05814,0.078591 0.177652,0.1225781 0.400601,0.1474476 l 0.149079,0.016629 -0.01676,0.1188752 c -0.03252,0.2306161 0.07172,0.2080549 -0.961227,0.2080549 l -0.918454,0 0.01708,-0.1210297 c 0.02859,-0.2025452 0.02996,-0.2042877 0.174433,-0.2217586 0.270278,-0.032684 0.317163,-0.043533 0.396401,-0.09172 0.04455,-0.027094 0.09793,-0.086604 0.118626,-0.1322457 0.02069,-0.045641 0.132101,-0.6620158 0.247574,-1.3697211 0.188153,-1.1531343 0.210007,-1.3224527 0.210479,-1.6307163 4.5e-4,-0.2942376 -0.0068,-0.3584797 -0.05043,-0.4442546 -0.09426,-0.1854856 -0.260189,-0.2514286 -0.540424,-0.2147784 -0.475582,0.062198 -0.952947,0.5913797 -1.140227,1.2639958 -0.03417,0.1227244 -0.139079,0.7064959 -0.233129,1.29727 -0.147489,0.9264525 -0.166699,1.0845188 -0.139715,1.1496621 0.03939,0.095098 0.110483,0.1273959 0.355245,0.1613887 0.107213,0.01489 0.197599,0.029703 0.200857,0.032918 0.0033,0.00321 -0.0066,0.076752 -0.02183,0.1634176 l -0.02776,0.1575728 -0.917058,0 -0.917057,0 0.01811,-0.1592496 0,0 z"
     id="path2954" />
  <path
     style="fill:#ffffff;fill-opacity:1"
     d="m 18.544329,9.8563692 c -0.800548,-0.2152945 -1.269601,-1.1818695 -1.08559,-2.2370697 0.195954,-1.1236798 0.963372,-2.1020927 1.821647,-2.3224897 0.229678,-0.058979 0.620359,-0.041591 0.82155,0.036565 0.430348,0.1671767 0.748798,0.582427 0.91677,1.1954443 0.07388,0.269632 0.07913,0.9097161 0.01007,1.2275072 -0.223795,1.0298126 -0.95234,1.8871647 -1.785598,2.1012902 -0.188129,0.048344 -0.516631,0.047758 -0.698853,-0.00125 l 0,10e-7 z M 19.42189,9.5298351 c 0.461848,-0.2114412 0.806645,-0.969326 0.98073,-2.1557077 0.077,-0.5247494 0.07937,-0.978455 0.0063,-1.210644 -0.09471,-0.3010824 -0.225644,-0.460933 -0.491568,-0.6001432 -0.09395,-0.049182 -0.153781,-0.060108 -0.331239,-0.060489 -0.199911,-4.29e-4 -0.232268,0.00713 -0.420419,0.098244 -0.411369,0.1992036 -0.700139,0.6027512 -0.853325,1.1924979 -0.201978,0.7775852 -0.28651,1.7244476 -0.190366,2.1323261 0.07224,0.3064723 0.211113,0.5195485 0.402884,0.6181613 0.207442,0.1066715 0.648141,0.099673 0.896971,-0.014245 z"
     id="path2956" />
  <path
     style="fill:#ffffff;fill-opacity:1"
     d="m 21.23406,9.7779471 c -0.0095,-0.00946 -0.0172,-0.051548 -0.0172,-0.093531 0,-0.061253 0.28942,-0.4622685 1.465097,-2.0300096 0.805803,-1.0745226 1.465096,-1.9625886 1.465096,-1.97348 0,-0.037301 -1.198696,0.00259 -1.344423,0.044745 -0.445483,0.1288542 -0.676005,0.4645758 -0.821357,1.1961872 l -0.02911,0.1465097 -0.100113,0 c -0.05506,0 -0.100113,-0.00453 -0.100113,-0.010077 0,-0.016815 0.33311,-1.5536214 0.347187,-1.6017502 0.01233,-0.042147 0.09425,-0.044419 1.378093,-0.03822 1.260366,0.00609 1.367111,0.00996 1.3927,0.050532 0.01975,0.031307 0.01991,0.064275 5.69e-4,0.1146597 -0.01493,0.038895 -0.676846,0.932865 -1.470927,1.9866003 -0.79408,1.0537351 -1.443783,1.9234271 -1.443783,1.9326486 0,0.00922 0.289516,0.011389 0.643369,0.00482 0.830227,-0.015422 0.939968,-0.044817 1.198276,-0.3209695 0.186918,-0.1998306 0.337029,-0.5551542 0.464302,-1.0990427 0.0246,-0.1051047 0.05321,-0.2004812 0.06359,-0.2119477 0.01038,-0.011467 0.05888,-0.0172 0.107778,-0.01274 l 0.08891,0.00811 -0.221888,0.9554978 -0.221889,0.9554978 -1.413483,0.00658 c -0.777416,0.00362 -1.421222,-0.00116 -1.430681,-0.010617 l 0,0 z"
     id="path2958" />
  <path
     style="fill:#ffffff;fill-opacity:1"
     d="M 26.261889,9.8619881 C 26.053963,9.8053836 25.894841,9.708512 25.712409,9.5274714 25.501418,9.3180892 25.401639,9.1528877 25.2964,8.8386922 25.068289,8.157658 25.15882,7.3741037 25.555038,6.6001676 25.791123,6.139019 26.111495,5.7719079 26.498083,5.5195405 c 0.272959,-0.1781894 0.456486,-0.2374332 0.783004,-0.2527594 0.405475,-0.019032 0.724347,0.073255 0.956058,0.2767006 0.153608,0.1348688 0.201574,0.255803 0.201277,0.5074597 -2.29e-4,0.1857966 -0.01063,0.2395502 -0.06983,0.3605449 -0.166574,0.3404659 -0.512888,0.4012828 -0.65174,0.1144535 -0.06364,-0.1314672 -0.06722,-0.2237989 -0.01464,-0.3781077 0.04982,-0.1462154 0.163583,-0.2839747 0.280211,-0.3393184 0.07396,-0.035098 0.08589,-0.050336 0.06195,-0.079177 -0.0675,-0.081333 -0.295771,-0.1635759 -0.533971,-0.1923828 -0.208155,-0.025173 -0.265139,-0.023347 -0.406832,0.01304 -0.219239,0.0563 -0.386436,0.1679949 -0.552079,0.3688124 -0.26115,0.3166039 -0.490471,0.8651631 -0.624365,1.4935416 -0.05124,0.2404794 -0.05975,0.3526429 -0.05995,0.7898782 -2.09e-4,0.4632704 0.0052,0.526972 0.05941,0.7006984 0.08172,0.2618716 0.171612,0.4187157 0.312642,0.545514 0.143891,0.1293706 0.273542,0.1720248 0.518987,0.1707434 0.444564,-0.00232 0.795079,-0.2722129 1.085217,-0.8356047 0.131562,-0.2554678 0.147377,-0.2755918 0.216579,-0.2755918 0.109378,0 0.106114,0.066605 -0.01558,0.3178683 -0.331675,0.6848356 -0.869571,1.074495 -1.47577,1.0690688 -0.105664,-9.46e-4 -0.243713,-0.015766 -0.306776,-0.032934 z"
     id="path2960" />
  <path
     style="fill:#ffffff;fill-opacity:1"
     d="M 29.872176,9.8584018 C 29.36709,9.7195499 28.977835,9.2739245 28.819977,8.6538276 c -0.267843,-1.052142 0.285957,-2.4592714 1.216625,-3.0912763 0.313375,-0.2128088 0.595301,-0.3032591 0.945234,-0.3032591 0.381686,0 0.653591,0.1219364 0.929424,0.4168027 0.637303,0.6812788 0.676017,2.0126378 0.08742,3.0064313 -0.354724,0.5989231 -0.871356,1.0298786 -1.395253,1.1638689 -0.226596,0.057953 -0.545096,0.063183 -0.731254,0.012007 l 0,0 z m 0.786365,-0.2909863 c 0.494626,-0.155925 0.855,-0.8594955 1.058163,-2.0658884 0.04406,-0.2616327 0.05837,-0.4507247 0.05976,-0.7898782 0.0023,-0.5494524 -0.0384,-0.7043399 -0.243946,-0.9292361 -0.367169,-0.4017419 -0.910707,-0.3816736 -1.368804,0.050539 -0.296631,0.2798694 -0.459137,0.6231503 -0.585346,1.2364919 -0.16379,0.795981 -0.213266,1.5444637 -0.124139,1.8780336 0.0804,0.3009212 0.21427,0.4960326 0.409264,0.596503 0.175989,0.090678 0.547044,0.1016158 0.795048,0.023436 z"
     id="path2962" />
  <path
     style="fill:#ffffff;fill-opacity:1"
     d="m 10.811414,22.498272 c 0,-0.03491 0.0505,-0.291787 0.05904,-0.300329 0.0042,-0.0042 0.09105,-0.01954 0.192895,-0.03398 0.340296,-0.04826 0.613044,-0.230588 0.750073,-0.501406 0.0343,-0.06779 0.672417,-1.522108 1.418033,-3.231812 0.745616,-1.709704 1.367484,-3.122885 1.381928,-3.140403 0.04072,-0.04938 0.265736,-0.04132 0.285518,0.01023 0.0089,0.02314 0.183308,1.50512 0.387615,3.293282 0.265845,2.326758 0.383382,3.276465 0.413368,3.340047 0.02304,0.04886 0.07886,0.113445 0.124035,0.143515 0.0796,0.05298 0.133306,0.06508 0.449103,0.101115 l 0.149039,0.01701 -0.01781,0.143258 c -0.0098,0.07879 -0.02308,0.151857 -0.02951,0.162368 -0.0064,0.01051 -0.516435,0.01911 -1.133336,0.01911 l -1.121638,0 0.01389,-0.07007 c 0.0076,-0.03854 0.02114,-0.112276 0.03001,-0.16386 l 0.01612,-0.09379 0.169484,-0.01673 c 0.326704,-0.03226 0.505876,-0.114703 0.541709,-0.249266 0.01138,-0.04274 -0.01848,-0.3929 -0.07443,-0.872688 l -0.09344,-0.801306 -1.006713,1.02e-4 -1.006713,1.02e-4 -0.299389,0.68656 c -0.266249,0.610548 -0.29939,0.702534 -0.29939,0.830986 0,0.133105 0.0075,0.15199 0.09618,0.240621 0.08779,0.08779 0.168379,0.123984 0.363997,0.163479 0.06519,0.01316 0.06522,0.0133 0.04038,0.179518 l -0.02486,0.166347 -0.887586,0 c -0.488172,0 -0.887586,-0.0099 -0.887586,-0.022 z m 3.872869,-2.596061 c -3.08e-4,-0.07142 -0.379051,-3.24775 -0.388369,-3.257069 -0.01162,-0.01162 -1.421654,3.220356 -1.420977,3.257069 1.94e-4,0.01051 0.407395,0.01911 0.904891,0.01911 0.497495,0 0.9045,-0.0086 0.904455,-0.01911 z"
     id="path2964" />
  <path
     style="fill:#ffffff;fill-opacity:1"
     d="m 18.333861,22.58269 c -0.471985,-0.12707 -0.841432,-0.559188 -1.00099,-1.170793 -0.275172,-1.054768 0.248334,-2.454126 1.163883,-3.111115 0.309141,-0.221838 0.587288,-0.315171 0.940637,-0.315635 0.490399,-6.43e-4 0.893857,0.186182 1.031714,0.477746 0.111605,0.236042 0.06725,0.605363 -0.09554,0.795551 -0.117912,0.137753 -0.218833,0.187836 -0.344533,0.170976 -0.395635,-0.05307 -0.347319,-0.704587 0.06792,-0.915891 l 0.07454,-0.03793 -0.100017,-0.0652 c -0.28135,-0.183408 -0.795986,-0.213373 -1.090984,-0.06352 -0.505315,0.256686 -0.947221,1.240496 -1.033681,2.30127 -0.05809,0.71275 0.104823,1.339173 0.406242,1.562022 0.26631,0.196891 0.731485,0.17793 1.052449,-0.0429 0.223408,-0.153709 0.472528,-0.489213 0.594633,-0.800826 0.04866,-0.124169 0.11589,-0.168956 0.203289,-0.135417 0.05448,0.02091 0.0343,0.09941 -0.09232,0.35923 -0.244546,0.501766 -0.663517,0.876905 -1.108938,0.992923 -0.184304,0.048 -0.488998,0.04778 -0.668296,-4.9e-4 l 0,0 z"
     id="path2966" />
  <path
     style="fill:#ffffff;fill-opacity:1"
     d="m 21.895189,22.598367 c -0.277938,-0.08485 -0.476307,-0.300282 -0.558886,-0.606959 -0.06683,-0.248185 -0.03916,-0.526264 0.200451,-2.014397 0.127069,-0.789187 0.231035,-1.451347 0.231035,-1.471467 0,-0.02993 -0.06081,-0.03658 -0.334424,-0.03658 l -0.334424,0 0.01592,-0.07963 c 0.0088,-0.04379 0.01592,-0.09383 0.01592,-0.111196 0,-0.0182 0.04956,-0.03836 0.116968,-0.0476 0.354349,-0.04857 0.620228,-0.292453 0.875845,-0.803392 0.125282,-0.250417 0.290647,-0.732697 0.335157,-0.977468 l 0.03128,-0.17199 0.09752,0 c 0.07979,0 0.09752,0.0091 0.09752,0.04983 0,0.02741 -0.06306,0.441724 -0.14014,0.920704 -0.07708,0.478981 -0.140139,0.875065 -0.140139,0.880187 0,0.0051 0.25926,0.0093 0.576134,0.0093 l 0.576134,0 -0.01645,0.09555 c -0.009,0.05255 -0.02265,0.126869 -0.03024,0.165147 l -0.01379,0.0696 -0.576057,0.0068 -0.576056,0.0068 -0.238286,1.477836 c -0.225406,1.397962 -0.237812,1.495052 -0.229529,1.796336 0.0091,0.332586 0.03324,0.420357 0.142593,0.519317 0.06912,0.06256 0.218022,0.08759 0.355558,0.05978 0.285524,-0.05774 0.519281,-0.520092 0.627712,-1.241574 0.06534,-0.43473 0.05414,-0.407679 0.168691,-0.407679 0.05494,0 0.09989,0.0086 0.09989,0.01911 -2e-5,0.07412 -0.112628,0.690946 -0.153682,0.841819 -0.140478,0.516244 -0.449437,0.941011 -0.761023,1.046284 -0.09609,0.03246 -0.362388,0.0356 -0.461207,0.0054 z"
     id="path2969" />
  <path
     style="fill:#ffffff;fill-opacity:1"
     d="m 23.741043,22.399245 c 0.02859,-0.202545 0.02996,-0.204288 0.174433,-0.221759 0.270599,-0.03272 0.31721,-0.04356 0.397606,-0.09245 0.04521,-0.0275 0.09763,-0.08701 0.116473,-0.132246 0.05041,-0.121009 0.497996,-2.932953 0.497862,-3.127806 -7.5e-5,-0.107864 -0.01381,-0.185875 -0.03909,-0.221959 -0.04652,-0.06642 -0.182487,-0.108242 -0.352534,-0.108437 l -0.123966,-1.42e-4 0.01801,-0.144134 c 0.02431,-0.194597 0.03364,-0.212438 0.111619,-0.213519 0.03704,-5.13e-4 0.29093,-0.02218 0.564202,-0.04814 0.273273,-0.02596 0.501914,-0.04247 0.508092,-0.03667 0.0062,0.0058 -0.128844,0.88133 -0.30005,1.945632 -0.29221,1.816524 -0.309023,1.940508 -0.274377,2.023425 0.03936,0.0942 0.09093,0.117183 0.359586,0.160269 l 0.127632,0.02047 -0.02157,0.15925 -0.02157,0.15925 -0.879726,0 -0.879727,0 0.01709,-0.12103 0,0 z"
     id="path2971" />
  <path
     style="fill:#ffffff;fill-opacity:1"
     d="m 25.221133,16.733623 c -0.109575,-0.09621 -0.178558,-0.300116 -0.151628,-0.448198 0.04425,-0.243296 0.245598,-0.489435 0.444105,-0.542887 0.0911,-0.02453 0.119896,-0.02112 0.216492,0.02564 0.291279,0.141006 0.28896,0.614247 -0.0044,0.896563 -0.179036,0.1723 -0.358834,0.196845 -0.504576,0.06888 z"
     id="path2973" />
  <path
     style="fill:#ffffff;fill-opacity:1"
     d="m 27.761605,22.590344 c -0.01413,-0.01752 -0.159184,-0.874599 -0.322343,-1.904625 -0.163159,-1.030027 -0.308126,-1.908354 -0.322149,-1.951839 -0.05045,-0.156464 -0.206727,-0.239436 -0.450963,-0.239436 -0.105931,0 -0.135935,-0.0082 -0.12593,-0.03423 0.0072,-0.01882 0.02124,-0.09909 0.03114,-0.178359 l 0.01801,-0.144134 0.853368,0 c 0.703815,0 0.851067,0.006 0.840235,0.03422 -0.0072,0.01882 -0.02124,0.09909 -0.03114,0.17836 l -0.01801,0.144134 -0.118093,5.59e-4 c -0.166331,7.88e-4 -0.31766,0.07521 -0.359801,0.17695 -0.03064,0.07397 -0.01211,0.221589 0.188329,1.500175 0.122273,0.779971 0.230798,1.439875 0.241167,1.466453 0.01492,0.03825 0.04034,0.0037 0.12191,-0.16562 1.225941,-2.545025 1.192583,-2.471137 1.193117,-2.642807 4.76e-4,-0.153802 -0.0038,-0.165127 -0.09468,-0.248429 -0.05791,-0.05311 -0.121396,-0.08728 -0.162143,-0.08728 -0.06536,0 -0.06655,-0.0029 -0.04951,-0.12103 0.0096,-0.06657 0.02361,-0.146828 0.03114,-0.17836 l 0.01367,-0.05733 0.662609,0 0.662609,0 -0.01746,0.121029 c -0.03337,0.231317 -0.03592,0.235688 -0.137596,0.23571 -0.208333,4.6e-5 -0.514118,0.214567 -0.671886,0.471359 -0.03444,0.05606 -0.432217,0.875873 -0.883949,1.821816 -0.451732,0.945942 -0.837912,1.745694 -0.858177,1.777225 -0.04144,0.06448 -0.189029,0.08059 -0.23348,0.02548 l 0,0 z"
     id="path2975" />
  <path
     style="fill:#ffffff;fill-opacity:1"
     d="m 30.314868,22.399245 c 0.02859,-0.202545 0.02996,-0.204288 0.174433,-0.221759 0.270278,-0.03268 0.317163,-0.04353 0.396401,-0.09172 0.04455,-0.02709 0.09802,-0.0866 0.118819,-0.132246 0.05151,-0.113038 0.496606,-2.91475 0.496606,-3.125945 0,-0.110353 -0.01351,-0.188202 -0.03897,-0.224552 -0.04652,-0.06642 -0.182487,-0.108242 -0.352534,-0.108437 l -0.123966,-1.42e-4 0.01801,-0.144134 c 0.02374,-0.190021 0.03422,-0.212569 0.09888,-0.212673 0.05936,-9.6e-5 0.797852,-0.06646 0.986045,-0.08861 l 0.116083,-0.01366 -0.274615,1.701008 c -0.380457,2.356603 -0.357206,2.188216 -0.315827,2.28725 0.03915,0.09371 0.112417,0.125388 0.352997,0.152637 0.121729,0.01379 0.145432,0.02419 0.135222,0.05934 -0.0068,0.02344 -0.02007,0.09708 -0.02947,0.16365 l -0.01709,0.12103 -0.879058,0 -0.879058,0 0.01709,-0.12103 0,0 z"
     id="path2977" />
  <path
     style="fill:#ffffff;fill-opacity:1"
     d="m 31.78185,16.717218 c -0.162121,-0.162238 -0.181918,-0.41302 -0.05261,-0.66648 0.0673,-0.131915 0.232999,-0.274488 0.358197,-0.3082 0.0911,-0.02453 0.119896,-0.02112 0.216492,0.02564 0.157228,0.07611 0.227827,0.224726 0.210326,0.442746 -0.01478,0.184075 -0.06511,0.296026 -0.194206,0.431954 -0.120369,0.126739 -0.205846,0.16989 -0.336534,0.16989 -0.08874,0 -0.121868,-0.0157 -0.201663,-0.09555 z"
     id="path2979" />
  <path
     style="fill:#ffffff;fill-opacity:1"
     d="m 33.916566,22.572998 c -0.214803,-0.06868 -0.350147,-0.157616 -0.52608,-0.345689 -0.305697,-0.326791 -0.458615,-0.742104 -0.481157,-1.306782 -0.01436,-0.359688 0.01124,-0.599066 0.0979,-0.915533 0.242494,-0.885516 0.897451,-1.649828 1.615189,-1.884868 0.282424,-0.09249 0.653705,-0.09825 0.839676,-0.01303 0.187694,0.08601 0.374101,0.236958 0.473497,0.383426 0.04852,0.0715 0.0943,0.1303 0.101734,0.130661 0.02104,0.001 0.362816,-2.178106 0.364968,-2.327007 0.0023,-0.15702 -0.04007,-0.272067 -0.118055,-0.320804 -0.03112,-0.01945 -0.140836,-0.04078 -0.243811,-0.04739 l -0.187227,-0.01203 0.01741,-0.142999 c 0.0096,-0.07865 0.02811,-0.154106 0.04119,-0.167681 0.01308,-0.01357 0.287658,-0.04838 0.610172,-0.07735 l 0.586388,-0.05267 -0.01356,0.06461 c -0.07386,0.351817 -0.984016,6.145982 -0.985703,6.275135 -0.0036,0.274271 0.05314,0.329952 0.370772,0.363968 l 0.173267,0.01855 -0.01744,0.14327 c -0.0096,0.0788 -0.02507,0.151131 -0.03438,0.160739 -0.01374,0.01417 -1.060416,0.122671 -1.183404,0.122671 -0.02859,0 -0.02674,-0.04806 0.01052,-0.273909 0.06627,-0.401737 0.07373,-0.39288 -0.152514,-0.181007 -0.422438,0.395599 -0.923379,0.545114 -1.359343,0.40572 l 0,0 z m 0.619566,-0.205738 c 0.320834,-0.05988 0.692257,-0.334147 0.914545,-0.675329 l 0.107176,-0.1645 0.201931,-1.242584 c 0.200365,-1.232947 0.201604,-1.243474 0.159764,-1.357244 -0.09699,-0.263732 -0.294967,-0.495105 -0.501715,-0.586343 -0.223359,-0.09857 -0.546628,-0.06967 -0.828321,0.07403 -0.188774,0.09631 -0.461981,0.411249 -0.610973,0.70431 -0.224386,0.441359 -0.439017,1.439113 -0.439017,2.040861 0,0.623039 0.248601,1.093515 0.632426,1.196866 0.150078,0.04041 0.194389,0.04162 0.364184,0.0099 l 0,0 z"
     id="path2981" />
  <path
     style="fill:#ffffff;fill-opacity:1"
     d="m 38.113549,22.588136 c -0.326255,-0.08321 -0.586254,-0.26601 -0.701134,-0.492949 -0.126403,-0.249703 -0.08951,-0.669307 0.09205,-1.046771 0.167558,-0.348368 0.59379,-0.71787 1.04866,-0.909087 0.353534,-0.148618 0.902947,-0.268968 1.227873,-0.268968 0.0849,0 0.154385,-0.0029 0.154404,-0.0064 1.9e-5,-0.0035 0.01732,-0.103831 0.03845,-0.22295 0.143864,-0.811058 -0.09197,-1.375647 -0.592664,-1.418878 -0.268167,-0.02315 -0.673914,0.09777 -0.859958,0.256279 -0.06758,0.05758 -0.07045,0.06523 -0.02478,0.06604 0.140616,0.0025 0.250329,0.172347 0.247464,0.383116 -0.0042,0.309852 -0.209962,0.560559 -0.460042,0.560559 -0.129413,0 -0.217777,-0.07042 -0.274397,-0.218678 -0.03797,-0.09942 -0.04024,-0.13847 -0.01572,-0.270298 0.0897,-0.482346 0.425543,-0.811213 0.985215,-0.964757 0.161294,-0.04425 0.251587,-0.05316 0.460456,-0.04543 0.245561,0.0091 0.271866,0.01559 0.479418,0.118434 0.427756,0.211961 0.679006,0.594419 0.679006,1.033598 0,0.06946 -0.09259,0.706275 -0.205757,1.415153 -0.219137,1.372685 -0.227565,1.484544 -0.121964,1.618793 0.113282,0.144014 0.323782,0.05064 0.427058,-0.189429 0.04321,-0.100442 0.180942,-0.781091 0.180942,-0.894179 0,-0.0129 0.04586,-0.02346 0.10192,-0.02346 0.123874,0 0.122557,-0.01472 0.04123,0.460766 -0.06919,0.404529 -0.155118,0.596115 -0.35943,0.801398 -0.202509,0.203472 -0.434019,0.282761 -0.633443,0.216945 -0.180814,-0.05967 -0.322865,-0.307082 -0.330453,-0.575548 -0.0026,-0.09029 -0.01037,-0.164255 -0.01738,-0.16436 -0.007,-1.02e-4 -0.04697,0.05425 -0.08882,0.120793 -0.140427,0.223316 -0.391489,0.44798 -0.636036,0.569157 -0.211793,0.104948 -0.236631,0.111152 -0.469197,0.117187 -0.138058,0.0036 -0.301341,-0.0079 -0.372966,-0.02612 z m 0.787465,-0.272986 c 0.283873,-0.106211 0.624524,-0.502636 0.754487,-0.878018 0.0462,-0.133448 0.228378,-1.166038 0.228762,-1.296639 1.28e-4,-0.04471 -0.01478,-0.04717 -0.197327,-0.03253 -0.659148,0.05287 -1.304397,0.445681 -1.546424,0.941435 -0.165656,0.339319 -0.210514,0.671912 -0.124622,0.92399 0.05419,0.159032 0.240985,0.350589 0.379404,0.38907 0.130964,0.03641 0.332305,0.01757 0.50572,-0.04731 l 0,0 z"
     id="path2983" />
  <path
     style="fill:#ffffff;fill-opacity:1"
     d="m 42.636239,22.605532 c -0.138722,-0.02795 -0.436391,-0.193637 -0.554231,-0.308485 -0.360335,-0.351185 -0.542871,-0.853894 -0.543926,-1.497989 -0.0021,-1.272133 0.861008,-2.513597 1.893331,-2.723349 0.239502,-0.04866 0.375222,-0.04992 0.543698,-0.0051 0.236841,0.06307 0.450303,0.214033 0.59051,0.417607 0.05099,0.07403 0.100272,0.125776 0.109519,0.114985 0.03133,-0.03656 0.356375,-2.158787 0.356294,-2.326255 -1.27e-4,-0.262547 -0.105671,-0.356018 -0.402001,-0.356018 l -0.148757,0 0.02458,-0.164483 c 0.02218,-0.148415 0.03103,-0.165715 0.09061,-0.177099 0.15117,-0.02888 1.099113,-0.09892 1.115608,-0.08243 0.0099,0.0099 -0.209055,1.432916 -0.486479,3.162344 -0.387525,2.415781 -0.500159,3.169564 -0.486071,3.252946 0.02993,0.177135 0.115243,0.240653 0.353194,0.262951 l 0.199097,0.01866 -0.01672,0.118618 c -0.02335,0.165652 -0.03815,0.20782 -0.07287,0.207656 -0.01657,-7.7e-5 -0.285942,0.02407 -0.598597,0.05367 -0.312655,0.0296 -0.572207,0.04973 -0.576782,0.04473 -0.0046,-0.005 0.01307,-0.14094 0.03922,-0.302101 0.02614,-0.161161 0.04778,-0.303436 0.04807,-0.316168 2.95e-4,-0.01273 -0.07112,0.04554 -0.158712,0.12949 -0.19642,0.188266 -0.388554,0.317195 -0.605149,0.406076 -0.131702,0.05405 -0.21519,0.06946 -0.407679,0.07525 -0.133132,0.004 -0.270724,0.0015 -0.305759,-0.0056 l 0,0 z m 0.713964,-0.286953 c 0.182005,-0.06916 0.391466,-0.21927 0.555032,-0.397774 0.274469,-0.299534 0.266392,-0.272353 0.490248,-1.649707 l 0.199103,-1.225046 -0.04666,-0.122795 c -0.108301,-0.285025 -0.283364,-0.489572 -0.501638,-0.586125 -0.153221,-0.06778 -0.46121,-0.06702 -0.656471,0.0016 -0.592237,0.208155 -1.011648,1.013593 -1.173052,2.252738 -0.111556,0.856447 0.02038,1.407963 0.40178,1.679546 0.176517,0.125691 0.474972,0.145091 0.731656,0.04756 l 0,-1e-6 z"
     id="path2985" />
  <path
     style="fill:#ffffff;fill-opacity:1"
     d="m 47.148855,22.581872 c -0.516697,-0.138948 -0.91833,-0.638375 -1.057836,-1.31541 -0.05644,-0.273884 -0.05277,-0.744783 0.0082,-1.059527 0.06517,-0.336163 0.158014,-0.600447 0.324132,-0.922613 0.169298,-0.328331 0.331479,-0.548059 0.574954,-0.778964 0.383189,-0.363406 0.722604,-0.51957 1.130566,-0.520172 0.711737,-0.001 1.109794,0.433541 1.171718,1.279262 0.01801,0.24597 -0.02307,0.75673 -0.06755,0.839843 -0.02345,0.04381 -0.09089,0.04635 -1.231444,0.04635 l -1.206638,0 -0.01384,0.05733 c -0.0849,0.351777 -0.0815,1.08441 0.0067,1.440582 0.06306,0.254716 0.102062,0.334004 0.235491,0.478756 0.136288,0.147855 0.320201,0.216712 0.580356,0.217284 0.465563,0.001 0.88535,-0.318859 1.164058,-0.887023 0.112916,-0.230188 0.162727,-0.279944 0.247633,-0.247363 0.05628,0.0216 0.05289,0.06078 -0.02099,0.242596 -0.210672,0.518467 -0.702299,0.987151 -1.183971,1.128717 -0.169762,0.04989 -0.476723,0.05006 -0.661558,3.52e-4 l 0,1e-6 z m 1.591209,-2.768841 c 0.0348,-0.202613 0.0205,-0.810911 -0.02305,-0.980587 -0.07863,-0.306351 -0.243327,-0.537089 -0.418324,-0.586061 -0.137045,-0.03835 -0.395331,-0.01978 -0.521891,0.03752 -0.246321,0.111531 -0.51874,0.440065 -0.702984,0.847787 -0.08655,0.191528 -0.194184,0.524879 -0.219998,0.681338 l -0.01787,0.10829 0.942758,0 0.942758,0 0.0186,-0.10829 0,0 z"
     id="path2987" />
  <path
     style="fill:#ffffff;fill-opacity:1"
     d="m 49.388424,22.572425 c 0,-0.05918 0.250273,-1.624732 0.270045,-1.689237 0.01802,-0.05878 0.176383,-0.0622 0.198607,-0.0043 0.0085,0.02217 0.01547,0.134721 0.01547,0.25012 0,0.554317 0.201351,1.032737 0.492862,1.171069 0.338396,0.160579 0.8159,0.07936 1.123067,-0.191016 0.279667,-0.246173 0.405418,-0.802322 0.249989,-1.105606 -0.06628,-0.129325 -0.219689,-0.282784 -0.348889,-0.348998 -0.05552,-0.02846 -0.250443,-0.09113 -0.433159,-0.139284 -0.182716,-0.04815 -0.403289,-0.122494 -0.490162,-0.165206 -0.45064,-0.221562 -0.64806,-0.67117 -0.53104,-1.209402 0.150085,-0.690313 0.664234,-1.114892 1.391645,-1.149204 0.3235,-0.01526 0.497035,0.02589 0.671837,0.159323 0.06409,0.04892 0.123065,0.08895 0.131058,0.08895 0.008,0 0.08044,-0.05733 0.161005,-0.127399 0.140688,-0.122367 0.21265,-0.153359 0.242803,-0.104571 0.01731,0.02801 -0.181834,1.317158 -0.216157,1.399278 -0.01975,0.04725 -0.04094,0.05735 -0.106935,0.05096 l -0.0823,-0.008 0.0077,-0.29302 c 0.0064,-0.242375 -0.0016,-0.323036 -0.04646,-0.466696 -0.07465,-0.239254 -0.231259,-0.402653 -0.445139,-0.464436 -0.368862,-0.106553 -0.92339,0.0442 -1.122414,0.305131 -0.141167,0.185079 -0.208365,0.575941 -0.130763,0.760589 0.03794,0.09027 0.224112,0.272872 0.338457,0.331969 0.04014,0.02075 0.231027,0.07858 0.424191,0.128524 0.198379,0.05129 0.419231,0.127061 0.507528,0.174122 0.416848,0.222178 0.638971,0.64638 0.595157,1.136611 -0.02104,0.235426 -0.121191,0.583086 -0.225164,0.781635 -0.11541,0.220389 -0.420764,0.519939 -0.63251,0.620488 -0.391102,0.185718 -0.824025,0.208586 -1.126818,0.05952 -0.101004,-0.04972 -0.207127,-0.127532 -0.26752,-0.196142 -0.05506,-0.06255 -0.110124,-0.113112 -0.122371,-0.112364 -0.01225,7.48e-4 -0.102529,0.09186 -0.200627,0.20248 -0.120203,0.135541 -0.197053,0.201563 -0.23569,0.202479 -0.04035,9.57e-4 -0.05733,-0.01338 -0.05733,-0.04841 z"
     id="path2989" />
  <path
     style="fill:#ffffff;fill-opacity:1"
     d="m 43.897755,34.471645 c -0.231469,-0.04298 -0.434144,-0.161632 -0.663511,-0.388431 -0.583411,-0.576882 -0.904066,-1.407616 -0.903614,-2.341036 6.56e-4,-1.35551 0.686192,-2.49205 1.759729,-2.91743 0.340137,-0.134776 0.552008,-0.170151 1.017434,-0.169874 1.347817,8.02e-4 2.444322,0.494046 2.69119,1.210586 0.07241,0.210155 -0.04909,0.327182 -0.448955,0.432452 -0.761767,0.200545 -1.282826,0.492361 -1.796691,1.006226 -0.604607,0.604606 -0.96471,1.339229 -1.043086,2.12793 -0.08929,0.898571 -0.215776,1.113246 -0.612496,1.039577 z"
     id="path2991" />
  <path
     style="fill:#ffffff;fill-opacity:1"
     d="m 40.458432,33.116613 c -0.03605,-0.03605 -0.115705,-0.173629 -0.177023,-0.305742 -0.261493,-0.563401 -0.650738,-0.972851 -1.186882,-1.248487 -0.450386,-0.231547 -0.822559,-0.311066 -1.33862,-0.286011 -0.380768,0.01849 -0.579034,-0.0091 -0.668931,-0.09321 -0.05524,-0.05166 -0.06012,-0.07385 -0.05174,-0.235392 0.01215,-0.23415 0.07993,-0.369345 0.307237,-0.612738 0.218919,-0.234416 0.429502,-0.388079 0.71136,-0.519082 1.128686,-0.524593 2.486618,-0.18038 2.971075,0.753118 0.167762,0.32326 0.219336,0.5758 0.220439,1.0794 9.6e-4,0.439454 -0.03427,0.67515 -0.142439,0.952801 -0.105843,0.271689 -0.329749,0.518332 -0.512098,0.564099 -0.0516,0.01295 -0.0818,0.0018 -0.132382,-0.04876 l 0,0 z"
     id="path2993" />
  <path
     style="fill:#ffffff;fill-opacity:1"
     d="m 37.387371,48.407392 c -0.380127,-0.120301 -0.60342,-0.430296 -0.579839,-0.804984 0.01827,-0.290247 0.17459,-0.520757 0.441664,-0.65126 0.104388,-0.05101 0.173533,-0.0629 0.412085,-0.07086 l 0.286649,-0.0096 0,-3.666362 0,-3.666361 -1.425623,0 c -1.682222,0 -1.696454,-0.0016 -1.941231,-0.222775 -0.225042,-0.203312 -0.308659,-0.54326 -0.202661,-0.823925 0.0756,-0.200178 0.202375,-0.337091 0.404116,-0.436437 l 0.170333,-0.08388 1.495094,-0.0077 1.495094,-0.0077 0.01062,-0.565622 c 0.0099,-0.528659 0.01504,-0.578943 0.07831,-0.769462 0.162075,-0.488082 0.561957,-0.868303 1.075287,-1.022415 0.14326,-0.04301 0.362423,-0.0464 3.482847,-0.05391 l 3.329967,-0.008 0.0079,-1.241423 c 0.0072,-1.129284 0.01204,-1.250629 0.05367,-1.343342 0.07776,-0.173148 0.171836,-0.288774 0.307818,-0.378311 0.334538,-0.220274 0.736942,-0.169958 1.007399,0.125965 0.227112,0.248497 0.206031,-0.496063 0.206031,7.276609 l 0,6.900525 0.253844,0 c 0.315647,0 0.491855,0.05855 0.665774,0.221234 0.329274,0.307997 0.32044,0.828543 -0.01913,1.127447 -0.06372,0.05609 -0.180192,0.126049 -0.258831,0.155472 -0.135288,0.05062 -0.182784,0.05306 -0.882806,0.04544 -0.704675,-0.0077 -0.745274,-0.01075 -0.854486,-0.06472 -0.188641,-0.09323 -0.297795,-0.201188 -0.387419,-0.38318 l -0.08396,-0.170493 -0.0078,-1.395617 -0.0078,-1.395617 -3.19552,0 -3.195521,0 -0.0072,1.420507 -0.0072,1.420507 -0.06787,0.127399 c -0.08724,0.163766 -0.230064,0.300668 -0.390771,0.374572 -0.122707,0.05643 -0.154614,0.05877 -0.866318,0.06348 -0.406405,0.0027 -0.767583,-0.0042 -0.802618,-0.01527 z m 5.643807,-5.517213 c 0.512854,-0.09206 0.95625,-0.340684 1.352262,-0.758255 0.454326,-0.479058 0.672661,-1.008061 0.673201,-1.631094 2.29e-4,-0.266153 -0.06268,-0.460814 -0.19695,-0.609438 -0.07619,-0.08433 -0.104295,-0.09855 -0.194391,-0.09835 -0.135858,3.08e-4 -0.30163,0.09694 -0.551224,0.321323 -0.324058,0.291322 -0.644847,0.477581 -0.998624,0.579827 -0.64656,0.186864 -1.275375,0.137734 -1.89035,-0.147695 -0.419026,-0.194483 -0.506634,-0.19757 -0.590515,-0.02081 -0.201562,0.42476 0.09229,1.157847 0.713042,1.778869 0.515592,0.515815 1.045512,0.700145 1.683549,0.585615 l 0,0 z m -1.745502,-3.836227 c 0.264419,-0.134896 0.369662,-0.458573 0.236136,-0.726243 -0.09849,-0.19744 -0.260898,-0.293215 -0.496164,-0.2926 -0.274813,7.19e-4 -0.478334,0.166315 -0.5333,0.433923 -0.04176,0.203301 0.0011,0.336613 0.156766,0.487398 0.183804,0.178064 0.410585,0.212807 0.636562,0.09752 z m 2.831467,-0.4025 c 0.191357,-0.09997 0.285603,-0.254899 0.288116,-0.473643 0.0025,-0.21835 -0.09329,-0.377826 -0.288116,-0.479601 -0.18085,-0.09448 -0.329532,-0.0948 -0.514441,-0.0011 -0.399121,0.202198 -0.394118,0.775509 0.0084,0.962911 0.181921,0.0847 0.332424,0.08216 0.506038,-0.0085 l 0,0 z"
     id="path2995" />
  <path
     style="fill:#ffffff;fill-opacity:1"
     d="m 10.361537,47.907712 0,-1.146598 2.254974,0 2.254975,0 0,-7.805833 0,-7.805834 -2.401484,0.479808 c -1.320817,0.263895 -2.427283,0.486004 -2.458815,0.493576 l -0.057329,0.01377 0,-0.955983 0,-0.955983 3.8092125,0 3.809212,0 0.0064,8.26187 0.0064,8.261871 2.248605,0.0065 2.248605,0.0065 0,1.146459 0,1.146459 -5.860387,0 -5.860386,0 0,-1.146597 z"
     id="path2997" />
  <path
     style="fill:#ffffff;fill-opacity:1"
     d="m 9.9538575,29.928713 0,-0.278168 0.1337695,-0.0287 c 0.07357,-0.01579 1.182612,-0.240322 2.464531,-0.49897 l 2.330761,-0.470269 1.34472,0 1.344721,0 0,0.777138 0,0.777138 -3.809251,0 -3.8092515,0 0,-0.278168 z"
     id="path2999" />
</svg>
