<?xml version="1.0" ?><!-- Created with Inkscape (http://www.inkscape.org/) --><!DOCTYPE svg  PUBLIC '-//W3C//DTD SVG 1.1//EN'  'http://www.w3.org/Graphics/SVG/1.1/DTD/svg11.dtd' [
	<!ENTITY stroke_color "#000000">
	<!ENTITY fill_color "#ffff00">
]><svg height="64" id="svg2993" version="1.1" width="64" xmlns="http://www.w3.org/2000/svg" xmlns:cc="http://creativecommons.org/ns#" xmlns:dc="http://purl.org/dc/elements/1.1/" xmlns:rdf="http://www.w3.org/1999/02/22-rdf-syntax-ns#" xmlns:svg="http://www.w3.org/2000/svg">
  <defs id="defs2995"/>
  <metadata id="metadata2998">
    <rdf:RDF>
      <cc:Work rdf:about="">
        <dc:format>image/svg+xml</dc:format>
        <dc:type rdf:resource="http://purl.org/dc/dcmitype/StillImage"/>
        <dc:title/>
      </cc:Work>
    </rdf:RDF>
  </metadata>
  <g id="layer1">
    <g id="g3035" style="fill:&fill_color;;stroke:&stroke_color;;stroke-opacity:1">
      <path d="M 2.7306509,54.537614 33.18548,61.090909 61.925813,53.320805 32.809493,49.143955 z" id="path3045" style="fill:#afafde;fill-rule:evenodd;stroke:none"/>
      <path d="m 2.7306509,7.1263472 0,47.4112668 30.0788421,-5.393659 0,-38.631402 z" id="path3037" style="fill:#353564;fill-rule:evenodd;stroke:none"/>
      <path d="m 32.809493,10.512553 29.11632,-2.6222778 0,45.4305298 -29.11632,-4.17685 z" id="path3047" style="fill:#e9e9ff;fill-rule:evenodd;stroke:none"/>
      <path d="M 2.7306509,7.1263472 33.18548,3.0121069 61.925813,7.8902752 32.809493,10.512553 z" id="path3039" style="fill:#4d4d9f;fill-rule:evenodd;stroke:none"/>
      <path d="m 33.18548,3.0121069 0,58.0788021 28.740333,-7.770104 0,-45.4305298 z" id="path3043" style="fill:#d7d7ff;fill-rule:evenodd;stroke:none"/>
      <path d="M 2.7306509,7.1263472 33.18548,3.0121069 l 0,58.0788021 -30.4548291,-6.553295 z" id="path3041" style="fill:#8686bf;fill-rule:evenodd;stroke:none"/>
    </g>
    <path d="m 24.595185,26.793752 c -1.539642,0.06409 -3.055645,0.363811 -4.560888,0.673959 -1.127989,0.250927 -2.228533,0.625552 -3.27031,1.126779 -0.202126,0.09725 -0.789172,0.426385 -0.596078,0.31225 0.561045,-0.331626 1.133621,-0.643345 1.700431,-0.965018 -0.623512,0.429043 -1.272451,0.897178 -1.600809,1.59759 -0.268335,0.727185 0.170559,1.293027 0.669533,1.780346 0.595184,0.517597 1.333004,0.81165 2.030644,1.158265 0.43958,0.2184 0.873213,0.448579 1.310948,0.670655 0.916502,0.481431 1.803344,1.03371 2.488219,1.819195 0.323011,0.501968 0.517566,1.199536 0.244506,1.773871 -0.07991,0.168086 -0.209364,0.307771 -0.314046,0.461656 -2.106531,1.805673 -4.729922,2.655174 -7.35421,3.323331 -1.44608,0.341823 -2.873143,0.761422 -4.323206,1.085778 -0.629895,0.124459 -0.326926,0.06946 -0.908504,0.167195 0,0 2.112506,-1.588941 2.112506,-1.588941 l 0,0 c 0.558562,-0.09286 0.267117,-0.04057 0.873947,-0.159006 1.424488,-0.318827 2.831579,-0.711353 4.253284,-1.042545 0.977135,-0.253303 1.942427,-0.513572 2.885123,-0.879598 0.307712,-0.119477 1.146263,-0.617657 0.912573,-0.384526 -0.394174,0.393232 -0.936921,0.602266 -1.415709,0.886461 -0.192213,0.114092 0.370251,-0.250529 0.555377,-0.375793 0.111136,-0.122218 0.243865,-0.227836 0.333406,-0.366655 0.305068,-0.472957 0.133491,-1.091117 -0.134323,-1.529908 -0.636295,-0.771731 -1.490106,-1.305292 -2.363839,-1.774565 -0.305513,-0.155219 -1.003688,-0.511923 -1.312172,-0.660694 -0.733478,-0.353733 -1.503276,-0.65907 -2.123628,-1.203588 -0.556261,-0.552202 -1.059947,-1.213362 -0.839769,-2.04152 0.07963,-0.235974 0.109183,-0.380659 0.256339,-0.5874 0.343262,-0.482251 0.888684,-0.822778 1.334759,-1.193377 0.917301,-0.53045 1.828319,-1.071916 2.751903,-1.59135 1.18805,-0.668173 2.535599,-1.027084 3.850192,-1.339728 1.566886,-0.316165 3.142628,-0.620049 4.738812,-0.740623 0,0 -2.185011,1.587504 -2.185011,1.587504 z" id="path3053" style="fill:&fill_color;;stroke:&fill_color;;stroke-opacity:1"/>
    <path d="m 38.046501,41.687582 c -0.231616,-2.071334 -0.621733,-4.119517 -0.928512,-6.180228 -0.252345,-1.822517 -0.411025,-3.657574 -0.415645,-5.497723 0.04596,-1.37949 0.559206,-2.624307 1.24132,-3.79915 0.22945,-0.312469 0.458635,-0.675958 0.804549,-0.878415 1.640272,-0.960016 1.887233,-1.395383 3.22883,-1.559905 0.503929,0.01843 1.161208,-0.141266 1.643574,0.03016 0.09345,0.03321 0.177256,0.08904 0.265883,0.133553 0.777628,0.708042 1.101792,1.768488 1.383015,2.750405 0.308841,1.276934 0.367762,2.594634 0.433722,3.901509 0.0093,0.228498 0.0054,0.603793 0.08338,0.832485 0.219428,0.643843 1.04716,1.133861 1.565012,1.505215 0.947808,0.57875 1.863091,1.219747 2.86704,1.699508 0.986394,0.334151 2.042335,0.424301 3.075207,0.328464 0.8771,-0.286547 2.565903,-1.133536 -1.342938,0.860119 -0.0975,0.04973 0.170366,-0.139345 0.241308,-0.222697 0.186301,-0.218894 0.248238,-0.400798 0.370113,-0.661222 0.358055,-0.987263 0.741565,-1.964145 1.127865,-2.940449 0.43268,-0.996822 0.614478,-2.058155 0.715747,-3.131934 0.08471,-1.185638 0.08688,-2.37501 0.07268,-3.562929 0,0 2.331693,-1.188107 2.331693,-1.188107 l 0,0 c -0.01368,1.194464 0.0051,2.39034 -0.06164,3.583382 -0.09123,1.093617 -0.251814,2.181248 -0.68463,3.199678 -0.377948,0.974168 -0.785964,1.937423 -1.100146,2.935576 -0.09022,0.235967 -0.184831,0.519718 -0.319917,0.737628 -0.706144,1.139095 -2.187987,1.696329 -3.469577,1.951588 -1.065913,0.03756 -2.157286,-0.05864 -3.161858,-0.436149 -0.994279,-0.507646 -1.885068,-1.193788 -2.842631,-1.765086 -0.591977,-0.419182 -1.45915,-0.927929 -1.71882,-1.651375 -0.100386,-0.279675 -0.0753,-0.58907 -0.07628,-0.877262 -0.02343,-1.291769 -0.07879,-2.592858 -0.386892,-3.853422 -0.231845,-0.79578 -0.492723,-1.727026 -1.094315,-2.338258 -0.06801,-0.0691 -0.154596,-0.11707 -0.231894,-0.175605 -0.577415,-0.205079 -1.213916,-0.09754 -1.811708,-0.04612 -1.025616,0.21177 -1.884595,0.922503 1.371075,-1.011969 0.09866,-0.05862 -0.203593,0.107992 -0.295403,0.176856 -0.260438,0.195344 -0.374957,0.363134 -0.587191,0.614703 -0.726099,1.147531 -1.264108,2.313031 -1.346541,3.693955 -0.02193,1.838371 0.102897,3.676622 0.328306,5.501013 0.282097,2.038729 0.630663,4.071499 1.091682,6.07753 0,0 -2.365458,1.264682 -2.365458,1.264682 z" id="path3055" style="fill:&fill_color;;stroke:&fill_color;;stroke-opacity:1"/>
  </g>
</svg>