<?xml version="1.0" ?><!DOCTYPE svg  PUBLIC '-//W3C//DTD SVG 1.1//EN'  'http://www.w3.org/Graphics/SVG/1.1/DTD/svg11.dtd' [
	<!ENTITY stroke_color "#00ff03">
	<!ENTITY fill_color "#ff0000">
]><!--Generator: Xara Xtreme (www.xara.com), SVG filter version: 1.0.0.13--><svg fill-rule="evenodd" height="41.25pt" overflow="visible" stroke-linejoin="bevel" stroke-width="0.501" version="1.1" viewBox="0 0 41.25 41.25" width="41.25pt" xmlns="http://www.w3.org/2000/svg" xmlns:xlink="http://www.w3.org/1999/xlink">
 <defs>
  <marker id="DefaultArrow2" markerHeight="1" markerUnits="strokeWidth" markerWidth="1" orient="auto" overflow="visible" viewBox="0 0 1 1">
   <!-- REF_ARROW_STRAIGHT (-2) -->
   <g transform="scale(0.0092592592)">
    <!-- 1/108 -->
    <path d="M -9 54 L -9 -54 L 117 0 z"/>
   </g>
  </marker>
  <marker id="DefaultArrow3" markerHeight="1" markerUnits="strokeWidth" markerWidth="1" orient="auto" overflow="visible" viewBox="0 0 1 1">
   <!-- REF_ARROW_ANGLED -->
   <g transform="scale(0.0092592592)">
    <path d="M -27 54 L -9 0 L -27 -54 L 135 0 z"/>
   </g>
  </marker>
  <marker id="DefaultArrow4" markerHeight="1" markerUnits="strokeWidth" markerWidth="1" orient="auto" overflow="visible" viewBox="0 0 1 1">
   <!-- REF_ARROW_ROUNDED -->
   <g transform="scale(0.0092592592)">
    <path d="M -9,0 L -9,-45 C -9,-51.708 2.808,-56.580 9,-54 L 117,-9 C 120.916,-7.369 126.000,-4.242 126,0 C 126,4.242 120.916,7.369 117,9 L 9,54 C 2.808,56.580 -9,51.708 -9,45 z"/>
   </g>
  </marker>
  <marker id="DefaultArrow5" markerHeight="1" markerUnits="strokeWidth" markerWidth="1" orient="auto" overflow="visible" viewBox="0 0 1 1">
   <!-- REF_ARROW_SPOT -->
   <g transform="scale(0.0092592592)">
    <path d="M -54, 0 C -54,29.807 -29.807,54 0,54 C 29.807,54 54,29.807 54,0 C 54,-29.807 29.807,-54 0,-54 C -29.807,-54 -54,-29.807 -54,0 z"/>
   </g>
  </marker>
  <marker id="DefaultArrow6" markerHeight="1" markerUnits="strokeWidth" markerWidth="1" orient="auto" overflow="visible" viewBox="0 0 1 1">
   <!-- REF_ARROW_DIAMOND -->
   <g transform="scale(0.0092592592)">
    <path d="M -63,0 L 0,63 L 63,0 L 0,-63 z"/>
   </g>
  </marker>
  <marker id="DefaultArrow7" markerHeight="1" markerUnits="strokeWidth" markerWidth="1" orient="auto" overflow="visible" viewBox="0 0 1 1">
   <!-- REF_ARROW_FEATHER -->
   <g transform="scale(0.0092592592)">
    <path d="M 18,-54 L 108,-54 L 63,0 L 108,54 L 18, 54 L -36,0 z"/>
   </g>
  </marker>
  <marker id="DefaultArrow8" markerHeight="1" markerUnits="strokeWidth" markerWidth="1" orient="auto" overflow="visible" viewBox="0 0 1 1">
   <!-- REF_ARROW_FEATHER2 -->
   <g transform="scale(0.0092592592)">
    <path d="M -36,0 L 18,-54 L 54,-54 L 18,-18 L 27,-18 L 63,-54 L 99,-54 L 63,-18 L 72,-18 L 108,-54 L 144,-54 L 90,0 L 144,54 L 108,54 L 72,18 L 63,18 L 99,54 L 63,54 L 27,18 L 18,18 L 54,54 L 18,54 z"/>
   </g>
  </marker>
  <marker id="DefaultArrow9" markerHeight="1" markerUnits="strokeWidth" markerWidth="1" orient="auto" overflow="visible" viewBox="0 0 1 1">
   <!-- REF_ARROW_HOLLOWDIAMOND -->
   <g transform="scale(0.0092592592)">
    <path d="M 0,45 L -45,0 L 0, -45 L 45, 0 z M 0, 63 L-63, 0 L 0, -63 L 63, 0 z"/>
   </g>
  </marker>
  <filter id="StainedFilter">
   <feBlend in="SourceGraphic" in2="BackgroundImage" mode="multiply" result="blend"/>
   <feComposite in="blend" in2="SourceAlpha" operator="in" result="comp"/>
  </filter>
  <filter id="BleachFilter">
   <feBlend in="SourceGraphic" in2="BackgroundImage" mode="screen" result="blend"/>
   <feComposite in="blend" in2="SourceAlpha" operator="in" result="comp"/>
  </filter>
  <filter id="InvertTransparencyBitmapFilter">
   <feComponentTransfer>
    <feFuncR amplitude="1.055" exponent=".416666666" offset="-0.055" type="gamma"/>
    <feFuncG amplitude="1.055" exponent=".416666666" offset="-0.055" type="gamma"/>
    <feFuncB amplitude="1.055" exponent=".416666666" offset="-0.055" type="gamma"/>
   </feComponentTransfer>
   <feComponentTransfer>
    <feFuncR intercept="1" slope="-1" type="linear"/>
    <feFuncG intercept="1" slope="-1" type="linear"/>
    <feFuncB intercept="1" slope="-1" type="linear"/>
    <feFuncA intercept="0" slope="1" type="linear"/>
   </feComponentTransfer>
   <feComponentTransfer>
    <feFuncR amplitude="1" exponent="2.4" offset="0" type="gamma"/>
    <feFuncG amplitude="1" exponent="2.4" offset="0" type="gamma"/>
    <feFuncB amplitude="1" exponent="2.4" offset="0" type="gamma"/>
   </feComponentTransfer>
  </filter>
 </defs>
 <g fill="none" font-family="Times New Roman" font-size="16" id="Document" stroke="black" transform="scale(1 -1)">
  <g id="Spread" transform="translate(0 -41.25)">
   <g id="Layer 1">
    <path d="M 2.632,10.194 L 6.911,30.384 L 10.521,10.06 L 2.632,10.194 L 2.632,10.194 Z" fill="none" marker-end="none" marker-start="none" stroke="&fill_color;" stroke-linejoin="miter" stroke-miterlimit="79.8403193612775" stroke-width="0.419"/>
    <path d="M 0.093,10.059 L 1.43,7.853 C 1.43,7.853 3.903,7.184 6.243,7.184 C 8.583,7.184 10.99,7.92 10.99,7.92 L 12.662,10.059 L 0.093,10.059 Z" fill="&stroke_color;" fill-rule="nonzero" marker-end="none" marker-start="none" stroke="none"/>
    <path d="M 12.662,10.059 C 12.662,9.579 9.848,9.19 6.377,9.19 C 2.906,9.19 0.092,9.579 0.092,10.059 C 0.092,10.539 2.906,10.928 6.377,10.928 C 9.848,10.928 12.662,10.539 12.662,10.059 L 12.662,10.059 Z" fill="&fill_color;" fill-rule="nonzero" marker-end="none" marker-start="none" stroke="none"/>
    <path d="M 6.911,30.384 L 6.176,9.257" fill="none" stroke="&fill_color;" stroke-linejoin="miter" stroke-miterlimit="79.8403193612775" stroke-width="0.419"/>
    <path d="M 31.314,9.993 L 35.593,30.184 L 39.203,9.86 L 31.314,9.993 L 31.314,9.993 Z" fill="none" marker-end="none" marker-start="none" stroke="&fill_color;" stroke-linejoin="miter" stroke-miterlimit="79.8403193612775" stroke-width="0.419"/>
    <path d="M 28.774,9.859 L 30.111,7.652 C 30.111,7.652 32.585,6.984 34.925,6.984 C 37.265,6.984 39.671,7.719 39.671,7.719 L 41.343,9.859 L 28.774,9.859 Z" fill="&stroke_color;" fill-rule="nonzero" marker-end="none" marker-start="none" stroke="none"/>
    <path d="M 41.343,9.859 C 41.343,9.378 38.53,8.989 35.059,8.989 C 31.587,8.989 28.774,9.378 28.774,9.859 C 28.774,10.339 31.587,10.728 35.059,10.728 C 38.53,10.728 41.343,10.339 41.343,9.859 L 41.343,9.859 Z" fill="&fill_color;" fill-rule="nonzero" marker-end="none" marker-start="none" stroke="none"/>
    <path d="M 35.593,30.184 L 34.858,9.056" fill="none" stroke="&fill_color;" stroke-linejoin="miter" stroke-miterlimit="79.8403193612775" stroke-width="0.419"/>
    <rect fill="&stroke_color;" fill-rule="nonzero" height="1.605" stroke="none" transform="translate(21.236 10.996) rotate(90)" width="14.173" x="-7.086" y="-0.802"/>
    <path d="M 22.773,14.26 C 22.773,13.713 22.084,13.269 21.235,13.269 C 20.386,13.269 19.697,13.713 19.697,14.26 L 19.697,35.811 C 19.697,36.358 20.386,36.802 21.235,36.802 C 22.084,36.802 22.773,36.358 22.773,35.811 L 22.773,14.26 Z" fill="&stroke_color;" fill-rule="nonzero" marker-end="none" marker-start="none" stroke="none"/>
    <path d="M 24.845,3.241 C 24.845,2.798 24.486,2.438 24.043,2.438 L 18.427,2.438 C 17.984,2.438 17.625,2.798 17.625,3.241 C 17.625,3.684 17.984,4.043 18.427,4.043 L 24.043,4.043 C 24.486,4.043 24.845,3.684 24.845,3.241 L 24.845,3.241 Z" fill="&stroke_color;" fill-rule="nonzero" marker-end="none" marker-start="none" stroke="none"/>
    <path d="M 36.211,30.317 C 36.211,29.69 35.702,29.181 35.075,29.181 L 7.396,29.181 C 6.768,29.181 6.259,29.69 6.259,30.317 C 6.259,30.945 6.768,31.454 7.396,31.454 L 35.075,31.454 C 35.702,31.454 36.211,30.945 36.211,30.317 L 36.211,30.317 Z" fill="&stroke_color;" fill-rule="nonzero" marker-end="none" marker-start="none" stroke="none"/>
    <path d="M 7.396,29.181 L 35.075,29.181 C 35.69,29.181 36.19,29.67 36.209,30.281 C 34.877,30.144 29.406,29.686 21.086,30.35 C 13.1,30.988 7.83,30.591 6.266,30.437 C 6.262,30.398 6.259,30.358 6.259,30.318 C 6.259,29.69 6.768,29.181 7.396,29.181 L 7.396,29.181 Z" fill="&stroke_color;" fill-rule="nonzero" marker-end="none" marker-start="none" stroke="none"/>
   </g>
  </g>
 </g>
</svg>