<?xml version="1.0" ?><!-- Created with Inkscape (http://www.inkscape.org/) --><!DOCTYPE svg  PUBLIC '-//W3C//DTD SVG 1.1//EN'  'http://www.w3.org/Graphics/SVG/1.1/DTD/svg11.dtd' [
	<!ENTITY stroke_color "#000000">
	<!ENTITY fill_color "#ffffff">
]><svg height="48" id="svg2" version="1.0" width="48" xmlns="http://www.w3.org/2000/svg" xmlns:svg="http://www.w3.org/2000/svg">
  <defs id="defs11"/>
  <path d="M 39.109088,32.631554 C 39.386828,30.477121 38.068457,29.798547 36.489459,29.66171 C 32.864749,29.389225 28.798467,28.636783 28.641608,30.418882 C 28.049744,32.840917 27.661999,34.40692 27.068292,38.377445 C 26.785885,40.051855 27.856126,44.919209 23.177648,45.256272 C 18.397986,45.600891 15.857346,42.928903 17.20263,40.362394 C 19.095349,36.845929 23.876627,39.084814 24.366239,37.769827 C 25.811611,33.774839 25.609777,29.178003 26.778226,25.101014 C 26.82405,24.941124 27.439322,24.779787 27.797452,24.741078 C 28.735099,24.563458 40.110403,25.29156 40.838897,25.660867 C 41.197026,25.622157 41.696476,25.95812 41.839667,26.066001 C 43.043201,26.972761 42.318317,30.783194 42.096831,31.587198 C 41.504965,34.009235 41.092065,35.564747 40.498355,39.535274 C 40.215948,41.209684 41.311348,46.087523 36.632871,46.424587 C 31.853207,46.769205 29.312567,44.097222 30.657851,41.530709 C 32.550572,38.014244 37.306691,40.242642 37.796303,38.927656 C 38.518989,36.930161 38.831345,34.785982 39.109088,32.631554 z" id="path4" style="fill:&fill_color;;stroke:&stroke_color;;stroke-width:1.23424768"/>
  <path d="M 15.945488,22.244587 C 13.698673,25.911011 12.401434,30.385325 9.9551199,33.90847 C 9.1386094,35.064936 5.965128,31.804697 3.3064632,34.762216 C 1.3954498,36.929135 2.6141917,40.093616 6.6166493,40.867177 C 10.534293,41.624612 11.201215,36.67351 11.963138,35.12201 C 13.708012,31.425355 14.529192,30.007525 15.780661,27.805723 C 16.216463,27.080612 17.018543,27.492837 18.088963,28.039164 C 19.409836,28.713319 23.481288,28.476798 23.574253,28.279667 C 23.659619,28.098654 20.32512,27.322125 19.29346,26.351894 C 18.693859,25.719599 18.024135,23.574367 17.331913,22.420186 C 17.167203,22.145553 16.121714,21.957015 15.945488,22.244587 z" id="path6" style="fill:&fill_color;;stroke:&stroke_color;;stroke-width:0.99263901"/>
  <path d="M 21.092024,10.857144 C 21.092024,15.075208 17.509803,18.494624 13.090909,18.494624 C 8.6720149,18.494624 5.0897937,15.075208 5.0897937,10.857144 C 5.0897937,6.6390803 8.6720149,3.2196644 13.090909,3.2196644 C 17.509803,3.2196644 21.092024,6.6390803 21.092024,10.857144 L 21.092024,10.857144 z" id="path2398" style="fill:&fill_color;;stroke:&stroke_color;;stroke-width:1.4133544;stroke-opacity:1"/>
  <path d="M 3.8278466,10.33035 C 1.3669586,10.344976 1.3669586,10.344976 1.3669586,10.344976 L 1.3669586,10.344976" id="path2451" style="fill:none;fill-rule:evenodd;stroke:&stroke_color;;stroke-width:1.03357983px;stroke-linecap:butt;stroke-linejoin:miter;stroke-opacity:1"/>
  <path d="M 12.971256,1.953303 C 13.002771,0.020723026 13.002771,0.020723026 13.002771,0.020723026" id="path2455" style="fill:none;fill-rule:evenodd;stroke:&stroke_color;;stroke-width:1.04782069px;stroke-linecap:butt;stroke-linejoin:miter;stroke-opacity:1"/>
  <path d="M 19.626099,4.4777972 C 21.101174,3.0027222 21.101174,3.0027222 21.101174,3.0027222" id="path2457" style="fill:none;fill-rule:evenodd;stroke:&stroke_color;;stroke-width:1.18726265px;stroke-linecap:butt;stroke-linejoin:miter;stroke-opacity:1"/>
  <path d="M 22.260861,10.38286 C 24.700178,10.39636 24.700178,10.39636 24.700178,10.39636" id="path2459" style="fill:none;fill-rule:evenodd;stroke:&stroke_color;;stroke-width:1.05871379px;stroke-linecap:butt;stroke-linejoin:miter;stroke-opacity:1"/>
  <path d="M 6.4676903,4.3897683 C 4.856985,2.7790629 4.856985,2.7790629 4.856985,2.7790629" id="path2395" style="fill:none;fill-rule:evenodd;stroke:&stroke_color;;stroke-width:1.15552831px;stroke-linecap:butt;stroke-linejoin:miter;stroke-opacity:1"/>
  <path d="M 20.155844,16.727273 C 22.025974,18.181818 22.025974,18.181818 22.025974,18.181818" id="path2391" style="fill:none;fill-rule:evenodd;stroke:&stroke_color;;stroke-width:1px;stroke-linecap:butt;stroke-linejoin:miter;stroke-opacity:1"/>
  <path d="M 13.402597,19.756688 C 13.402597,22.217339 13.402597,22.217339 13.402597,22.217339" id="path2393" style="fill:none;fill-rule:evenodd;stroke:&stroke_color;;stroke-width:1.11647367px;stroke-linecap:butt;stroke-linejoin:miter;stroke-opacity:1"/>
  <path d="M 6.576607,17.319498 C 4.8519644,19.04414 4.8519644,19.04414 4.8519644,19.04414 L 4.8519644,19.04414" id="path2396" style="fill:none;fill-rule:evenodd;stroke:&stroke_color;;stroke-width:1.14548719px;stroke-linecap:butt;stroke-linejoin:miter;stroke-opacity:1"/>
  <path d="M 36.20493,14.227291 C 42.685156,13.741253 42.901694,9.34402 42.80285,13.424899 C 42.729028,16.472728 38.881026,19.531673 34.713793,18.917141 C 30.546562,18.30261 26.617533,13.875392 27.282291,9.367562 C 27.947049,4.8597326 32.166971,2.4389325 36.283716,3.8431 C 30.95944,5.8649389 31.138282,11.397798 36.20493,14.227291 z" id="path15" style="fill:&fill_color;;stroke:&stroke_color;;stroke-width:1.43422401;stroke-opacity:1"/>
</svg>