<?xml version="1.0" encoding="UTF-8" standalone="no"?>
<!DOCTYPE svg PUBLIC "-//W3C//DTD SVG 1.1//EN" "http://www.w3.org/Graphics/SVG/1.1/DTD/svg11.dtd" [
    <!ENTITY stroke_color "#666666">
    <!ENTITY fill_color "#FFFFFF">
]>
<svg
   xmlns:dc="http://purl.org/dc/elements/1.1/"
   xmlns:cc="http://creativecommons.org/ns#"
   xmlns:rdf="http://www.w3.org/1999/02/22-rdf-syntax-ns#"
   xmlns:svg="http://www.w3.org/2000/svg"
   xmlns="http://www.w3.org/2000/svg"
   xmlns:sodipodi="http://sodipodi.sourceforge.net/DTD/sodipodi-0.dtd"
   xmlns:inkscape="http://www.inkscape.org/namespaces/inkscape"
   width="45"
   height="45"
   id="svg2215"
   sodipodi:version="0.32"
   inkscape:version="0.46"
   sodipodi:docname="activity.svg"
   sodipodi:docbase="/home/mcfletch/olpc/code/productive/Productive.activity/activity"
   inkscape:output_extension="org.inkscape.output.svg.inkscape">
  <metadata
     id="metadata2232">
    <rdf:RDF>
      <cc:Work
         rdf:about="">
        <dc:format>image/svg+xml</dc:format>
        <dc:type
           rdf:resource="http://purl.org/dc/dcmitype/StillImage" />
      </cc:Work>
    </rdf:RDF>
  </metadata>
  <defs
     id="defs2230">
    <inkscape:perspective
       sodipodi:type="inkscape:persp3d"
       inkscape:vp_x="0 : 22.5 : 1"
       inkscape:vp_y="0 : 1000 : 0"
       inkscape:vp_z="45 : 22.5 : 1"
       inkscape:persp3d-origin="22.5 : 15 : 1"
       id="perspective2456" />
    <inkscape:perspective
       id="perspective2556"
       inkscape:persp3d-origin="372.04724 : 350.78739 : 1"
       inkscape:vp_z="744.09448 : 526.18109 : 1"
       inkscape:vp_y="0 : 1000 : 0"
       inkscape:vp_x="0 : 526.18109 : 1"
       sodipodi:type="inkscape:persp3d" />
  </defs>
  <sodipodi:namedview
     inkscape:cy="21.619216"
     inkscape:cx="25.66548"
     inkscape:zoom="10.026793"
     inkscape:window-height="735"
     inkscape:window-width="960"
     inkscape:pageshadow="2"
     inkscape:pageopacity="0.0"
     guidetolerance="10.0"
     gridtolerance="10.0"
     objecttolerance="10.0"
     borderopacity="1.0"
     bordercolor="#666666"
     pagecolor="#ffffff"
     id="base"
     inkscape:window-x="0"
     inkscape:window-y="0"
     inkscape:current-layer="svg2215"
     showgrid="false" />
  <path
     fill="&fill_color;" stroke="&stroke_color;" stroke-width="3.5"
     d="M 38.871849,18.879841 C 37.433172,16.949303 35.187645,16.542091 33.257107,12.996363 C 30.776733,11.784837 29.768575,11.284612 25.690528,7.8889324 C 24.513775,8.7117145 25.535048,8.542751 23.610378,9.1477525 C 21.950607,7.5385545 21.812769,6.8350868 19.984568,5.1213369 C 18.388491,3.8367486 17.525876,2.2371912 15.701948,1.5219166 C 14.248236,2.3984422 12.685462,2.6157956 10.523124,2.4149317 C 9.2554984,3.6796077 10.867299,3.8146373 9.3202814,5.5878252 C 9.7611121,7.8408631 9.0864396,9.2774821 9.1547457,11.315085 C 8.9981567,13.060274 8.6228233,12.423115 7.9009089,14.197336 C 7.7136077,17.115164 7.4084944,15.66955 6.8532495,17.502255 C 7.4939716,19.711098 6.7799066,22.653206 8.1702201,26.601622 C 7.4406419,28.36392 6.5552474,27.550846 5.871498,28.572571 C 5.6677949,31.038425 5.2470698,33.076375 5.9430322,35.479427 C 7.8078063,37.349829 7.5979107,37.148582 9.0468837,39.617621 C 10.903008,40.147413 11.564605,39.777785 14.43128,39.516299 C 17.397311,40.807659 19.531958,41.997477 21.337193,43.242409 C 23.238917,42.708182 23.680118,42.394571 25.375964,41.943186 C 27.641507,42.083729 28.672731,43.550566 30.46232,43.75953 C 33.732641,41.691646 35.449335,39.896143 37.458223,38.412592 C 39.403903,36.97572 39.298912,36.138981 41.171443,33.006735 C 39.343081,31.142751 40.165597,30.726249 39.412574,28.277968 C 40.436446,26.245323 40.514891,25.873588 42.251031,24.125163 C 40.296572,22.830202 39.425285,20.940775 38.871849,18.879841 z"
     id="path2242"
     sodipodi:nodetypes="cccccccccccccccccccscccc" />
</svg>
