<?xml version="1.0" ?><!DOCTYPE svg  PUBLIC '-//W3C//DTD SVG 1.1//EN'  'http://www.w3.org/Graphics/SVG/1.1/DTD/svg11.dtd' [
	<!ENTITY stroke_color "#000000">
	<!ENTITY fill_color "none">
]><svg height="45" id="svg2" inkscape:version="0.48.3.1 r9886" sodipodi:docname="activity-tictactoe.svg" style="" version="1.1" width="45" xmlns="http://www.w3.org/2000/svg" xmlns:cc="http://creativecommons.org/ns#" xmlns:dc="http://purl.org/dc/elements/1.1/" xmlns:inkscape="http://www.inkscape.org/namespaces/inkscape" xmlns:rdf="http://www.w3.org/1999/02/22-rdf-syntax-ns#" xmlns:sodipodi="http://sodipodi.sourceforge.net/DTD/sodipodi-0.dtd" xmlns:svg="http://www.w3.org/2000/svg">
  <metadata id="metadata20" style="">
    <rdf:RDF style="">
      <cc:Work rdf:about="" style="">
        <dc:format style="">image/svg+xml</dc:format>
        <dc:type rdf:resource="http://purl.org/dc/dcmitype/StillImage" style=""/>
        <dc:title style=""/>
      </cc:Work>
    </rdf:RDF>
  </metadata>
  <defs id="defs18" style=""/>
  <sodipodi:namedview bordercolor="#666666" borderopacity="1" gridtolerance="10" guidetolerance="10" id="namedview16" inkscape:current-layer="svg2" inkscape:cx="-23.039496" inkscape:cy="47.129391" inkscape:pageopacity="0" inkscape:pageshadow="2" inkscape:window-height="744" inkscape:window-maximized="1" inkscape:window-width="1366" inkscape:window-x="0" inkscape:window-y="24" inkscape:zoom="3.7083822" objecttolerance="10" pagecolor="#ffffff" showgrid="false" style=""/>
  <path d="m 22.704596,2.7620667 0,39.8572223" id="path3133" inkscape:connector-curvature="0" style="fill:&fill_color;;stroke:&stroke_color;;stroke-width:3.95408821;stroke-opacity:1"/>
  <path d="m 42.809967,22.619696 -39.8572218,0" id="path3141" inkscape:connector-curvature="0" style="fill:&fill_color;;stroke:&stroke_color;;stroke-width:3.90870357;stroke-opacity:1"/>
  <path d="m 38.144426,11.789171 a 4.7400025,4.7400022 0 0 1 -9.480004,0 4.7400025,4.7400022 0 1 1 9.480004,0 z" id="path8-7-1" inkscape:connector-curvature="0" style="fill:&stroke_color;;fill-opacity:1;stroke:&stroke_color;;stroke-width:3.59450102;stroke-opacity:1"/>
  <path d="m 16.585168,12.05438 a 4.7400025,4.7400022 0 0 1 -9.4800034,0 4.7400025,4.7400022 0 1 1 9.4800034,0 z" id="path8-7-1-8" inkscape:connector-curvature="0" style="fill:&fill_color;;stroke:&stroke_color;;stroke-width:3.59450102;stroke-opacity:1"/>
  <path d="m 38.093051,33.336766 a 4.7400025,4.7400022 0 0 1 -9.480003,0 4.7400025,4.7400022 0 1 1 9.480003,0 z" id="path8-7-1-8-2" inkscape:connector-curvature="0" style="fill:&fill_color;;stroke:&stroke_color;;stroke-width:3.59450102;stroke-opacity:1"/>
  <path d="m 16.672429,33.271995 a 4.7400025,4.7400022 0 0 1 -9.4800042,0 4.7400025,4.7400022 0 1 1 9.4800042,0 z" id="path8-7-1-2" inkscape:connector-curvature="0" style="fill:&stroke_color;;fill-opacity:1;stroke:&stroke_color;;stroke-width:3.59450102;stroke-opacity:1"/>
</svg>