<?xml version="1.0" standalone="no"?>
<!DOCTYPE svg PUBLIC "-//W3C//DTD SVG 20010904//EN"
 "http://www.w3.org/TR/2001/REC-SVG-20010904/DTD/svg10.dtd">
<svg version="1.0" xmlns="http://www.w3.org/2000/svg"
 width="55.000000pt" height="55.000000pt" viewBox="0 0 55.000000 55.000000"
 preserveAspectRatio="xMidYMid meet">
<metadata>
Created by potrace 1.11, written by Peter Selinger 2001-2013
</metadata>
<g transform="translate(0.000000,55.000000) scale(0.100000,-0.100000)"
fill="#000000" stroke="none">
<path d="M166 464 c-4 -9 -5 -18 -4 -19 2 -1 18 -11 37 -22 l34 -21 -27 -17
c-15 -10 -25 -23 -22 -30 6 -16 -40 -37 -63 -30 -18 5 -111 -48 -111 -63 0
-17 35 -40 68 -44 29 -4 32 -2 32 23 0 22 8 32 31 44 17 9 34 14 37 11 5 -5 4
-198 -1 -202 -1 -1 -16 -5 -34 -8 -25 -6 -32 -4 -36 11 -4 15 -5 15 -6 2 -2
-28 24 -41 61 -31 l33 8 -4 62 c-2 45 1 69 13 87 10 15 12 26 6 30 -18 11 -11
41 11 42 12 1 30 10 41 20 19 17 20 17 33 0 6 -9 20 -17 29 -17 23 0 33 -30
15 -44 -13 -9 -12 -13 3 -28 17 -17 18 -16 18 27 0 50 11 56 49 26 22 -17 24
-25 23 -106 0 -48 -2 -88 -4 -90 -2 -1 -17 0 -35 2 -32 5 -32 5 -28 57 l4 51
-9 -50 c-10 -57 -4 -70 42 -79 41 -8 48 3 48 82 0 41 4 64 13 66 6 3 24 7 38
10 31 7 45 34 27 52 -23 22 -108 65 -108 54 0 -16 -23 -11 -50 11 -21 18 -22
20 -5 15 15 -4 12 1 -10 19 -32 27 -31 29 20 60 19 12 11 45 -12 45 -8 0 -11
-4 -8 -10 3 -5 -15 -20 -40 -32 -45 -22 -46 -22 -78 -3 -17 10 -36 24 -40 32
-11 18 -24 16 -31 -3z"/>
</g>
</svg>
