<?xml version="1.0" encoding="UTF-8" standalone="no"?>
<!-- Created with Inkscape (http://www.inkscape.org/) -->

<svg
   xmlns:dc="http://purl.org/dc/elements/1.1/"
   xmlns:cc="http://creativecommons.org/ns#"
   xmlns:rdf="http://www.w3.org/1999/02/22-rdf-syntax-ns#"
   xmlns:svg="http://www.w3.org/2000/svg"
   xmlns="http://www.w3.org/2000/svg"
   xmlns:sodipodi="http://sodipodi.sourceforge.net/DTD/sodipodi-0.dtd"
   xmlns:inkscape="http://www.inkscape.org/namespaces/inkscape"
   width="279.76468"
   height="263.9361"
   id="svg3232"
   version="1.1"
   inkscape:version="0.47 r22583"
   sodipodi:docname="vascolet_icon.svg">
  <defs
     id="defs3234">
    <inkscape:perspective
       sodipodi:type="inkscape:persp3d"
       inkscape:vp_x="0 : 526.18109 : 1"
       inkscape:vp_y="0 : 1000 : 0"
       inkscape:vp_z="744.09448 : 526.18109 : 1"
       inkscape:persp3d-origin="372.04724 : 350.78739 : 1"
       id="perspective3240" />
    <inkscape:perspective
       id="perspective3250"
       inkscape:persp3d-origin="0.5 : 0.33333333 : 1"
       inkscape:vp_z="1 : 0.5 : 1"
       inkscape:vp_y="0 : 1000 : 0"
       inkscape:vp_x="0 : 0.5 : 1"
       sodipodi:type="inkscape:persp3d" />
    <inkscape:perspective
       id="perspective3322"
       inkscape:persp3d-origin="0.5 : 0.33333333 : 1"
       inkscape:vp_z="1 : 0.5 : 1"
       inkscape:vp_y="0 : 1000 : 0"
       inkscape:vp_x="0 : 0.5 : 1"
       sodipodi:type="inkscape:persp3d" />
    <inkscape:perspective
       id="perspective2864"
       inkscape:persp3d-origin="0.5 : 0.33333333 : 1"
       inkscape:vp_z="1 : 0.5 : 1"
       inkscape:vp_y="0 : 1000 : 0"
       inkscape:vp_x="0 : 0.5 : 1"
       sodipodi:type="inkscape:persp3d" />
  </defs>
  <sodipodi:namedview
     id="base"
     pagecolor="#000000"
     bordercolor="#666666"
     borderopacity="1.0"
     inkscape:pageopacity="0"
     inkscape:pageshadow="2"
     inkscape:zoom="1.979899"
     inkscape:cx="129.52932"
     inkscape:cy="139.66372"
     inkscape:document-units="px"
     inkscape:current-layer="layer1"
     showgrid="false"
     inkscape:window-width="1290"
     inkscape:window-height="880"
     inkscape:window-x="-8"
     inkscape:window-y="-8"
     inkscape:window-maximized="1" />
  <metadata
     id="metadata3237">
    <rdf:RDF>
      <cc:Work
         rdf:about="">
        <dc:format>image/svg+xml</dc:format>
        <dc:type
           rdf:resource="http://purl.org/dc/dcmitype/StillImage" />
        <dc:title></dc:title>
      </cc:Work>
    </rdf:RDF>
  </metadata>
  <g
     inkscape:label="Layer 1"
     inkscape:groupmode="layer"
     id="layer1"
     transform="translate(15.938956,-504.94021)">
    <g
       id="g2899"
       transform="matrix(0.97065507,0,0,0.97065507,1.824405,15.797548)">
      <path
         id="path2842"
         d="m 123.08197,504.9218 c -14.50838,-0.35821 -27.381831,9.35645 -34.090192,21.45433 -12.384685,3.63496 -18.539554,16.08946 -23.851299,26.81052 -4.210095,5.4849 -9.241345,11.21473 -9.499091,18.58389 -2.921514,3.71634 -8.493193,4.48528 -10.741962,9.0848 -12.619772,15.17708 -18.301432,38.01853 -9.499091,56.4027 5.202408,8.91883 14.013161,15.36349 23.555377,18.93899 12.525913,32.68363 21.241296,67.33504 39.09127,97.6838 17.312718,21.46191 49.276898,25.4069 74.187608,16.6604 24.34939,-8.26658 42.80802,-32.61777 41.66421,-58.79684 1.20092,-37.99572 7.41063,-75.79297 6.48227,-113.84396 -0.63185,-16.38139 -13.40626,-29.56904 -26.80603,-37.48628 -5.35768,-2.99882 -11.0561,-5.36592 -17.02,-6.81321 -2.40709,-10.08036 -8.44063,-19.39481 -17.22265,-24.91662 -5.44404,-14.50217 -20.69324,-24.37815 -36.25042,-23.76252 z"
         style="fill:#ffffff" />
      <path
         id="path2854"
         d="M 134.34449,752.66333 C 121.35057,750.83028 110.24902,740.287 107.02556,727.68072 95.625364,697.81421 84.989104,667.65798 73.697569,637.74366 c -10.07907,-0.85133 -23.729458,-6.68714 -21.67352,-19.08845 -0.263741,-4.2161 -0.344179,-8.52961 3.490906,-11.35532 -2.20485,-11.50538 9.187038,-15.59845 16.115399,-21.71914 8.012727,-0.56626 0.408298,-10.95148 6.118265,-14.5689 4.13544,-5.06299 11.076408,-4.29212 8.715018,-12.17386 -0.172293,-11.12288 11.894655,-13.51283 20.737383,-12.88005 -0.79812,-7.46766 0.79044,-15.25003 8.49966,-18.52384 8.96436,-2.19168 22.58054,-1.32417 23.89553,10.214 0.48705,5.20029 0.70939,10.69102 7.12315,9.05947 5.4844,1.02496 10.08636,7.83236 9.0797,13.56501 -0.28786,6.23252 1.24864,13.71712 9.08812,12.1059 14.30042,1.55424 27.40969,10.2955 34.55793,22.68288 2.92455,15.47416 -1.70239,31.05756 -1.81748,46.61833 -2.14213,28.36094 -3.49333,56.84542 -6.6516,85.08909 -4.59755,10.592 -14.0776,18.9765 -24.49518,23.67926 -10.12419,4.27326 -21.47548,2.34633 -32.13636,2.21529 z m 20.96248,-5.0409 c 15.87745,-3.34542 32.34581,-16.12253 31.81307,-33.74001 2.93427,-33.14156 4.53347,-66.40353 7.49558,-99.52946 3.7563,-10.82407 -1.03016,-22.96454 -10.53947,-29.04099 -8.86195,-6.82709 -20.18302,-8.18182 -30.80425,-10.24362 -5.39194,-7.57396 1.78692,-21.44886 -9.90838,-24.37288 -13.70814,5.11987 -3.60774,-16.95864 -14.91277,-19.28008 -11.36279,-4.34056 -21.52605,7.44106 -15.75598,18.18032 -9.53122,0.2192 -25.682338,0.75576 -21.647053,15.09589 6.294365,8.90119 -11.732654,2.17604 -11.102444,12.76676 -1.360065,6.33169 7.19272,12.55008 -4.01443,11.63713 -7.392466,4.72595 -18.113512,9.48155 -15.913059,19.89948 -9.484419,8.32351 -0.706808,22.891 10.733415,22.19551 10.613342,-0.2493 9.65929,13.15854 13.727176,20.14141 10.386518,27.86928 19.949045,56.10514 31.341585,83.56396 8.51767,12.02535 25.7142,15.4487 39.48701,12.72658 z m -14.73282,-5.94401 c -9.66133,-1.43978 -20.08205,-6.9424 -22.10945,-17.32066 -11.86375,-32.19289 -23.78446,-64.36367 -35.737349,-96.52344 -6.107382,-4.33266 -22.677262,-1.02398 -19.072653,-12.40811 9.658351,-4.39039 6.879301,-21.68589 19.243578,-20.56149 8.803088,0.1902 5.945095,-17.57194 16.553726,-9.03219 5.578228,-0.23378 6.057058,-19.47369 9.103128,-7.31433 -1.57427,10.25793 6.52253,7.64563 12.82907,5.7869 5.17445,2.76297 3.91723,-7.0559 2.4117,-12.83753 -1.71664,-10.63102 -4.75217,-21.17111 -5.66831,-31.85644 12.78838,-8.90912 10.72935,11.66651 12.86285,19.04151 2.49106,6.84068 0.38174,19.40452 5.55428,23.14004 16.9202,-0.22151 36.70866,-0.0462 48.72374,13.82207 7.43174,7.97342 1.48277,18.88889 1.8493,28.25936 -2.47792,32.10831 -3.93598,64.32588 -7.30767,96.34725 -4.95531,15.37829 -24.0008,23.75265 -39.23594,21.45706 z m 3.70641,-1.25333 c -0.87039,-5.90237 3.95178,-4.58738 -3.71824,-5.48871 -5.40354,0.82999 -19.78853,-9.36997 -11.13596,-0.37326 1.98058,5.28377 10.05618,5.98843 14.8542,5.86197 z m 17.35575,-3.32164 c 3.28505,-1.79251 3.20949,-7.58853 6.22832,-9.36602 -4.84235,3.81412 -17.67793,6.65056 -7.96653,10.08346 l 1.73821,-0.71744 0,0 z m 16.4733,-14.96064 c 1.83143,-3.86939 0.0363,-10.65476 -0.76088,-2.85405 0.362,0.72754 -1.38675,7.10915 0.76088,2.85405 z m -58.74595,-0.87018 c -7.65638,-21.19503 -14.62547,-42.60835 -20.606818,-64.3401 -1.09013,-4.23308 -5.570792,-14.36441 2.170248,-8.24863 9.51063,2.13621 7.5466,14.97937 11.94008,21.36091 -0.42214,3.3358 4.27033,18.93329 6.13063,13.84902 0.19673,-9.98799 -5.99443,-17.20311 -6.22028,-26.97794 1.80099,-2.2444 7.2479,-4.90354 7.74385,-7.63657 8.26051,2.5415 17.69278,-1.36553 26.43921,-1.38861 5.2678,-0.32962 19.43689,-4.18787 17.14148,-8.40084 -4.96315,0.10991 2.47826,-7.23066 -4.04686,-2.9778 -8.58893,3.24883 -17.48916,4.48554 -24.72192,10.31702 -4.68621,3.17587 -18.18084,1.69554 -18.43141,-2.07705 7.2138,0.72951 11.41107,-5.33798 3.27028,-6.30487 -3.10199,-1.03567 -1.43347,7.64785 -7.91217,3.96838 -8.20114,0.19514 -18.047387,-5.20453 -23.898318,-6.3499 10.2344,28.25596 20.054368,56.66231 30.262828,84.92887 l 0.41013,0.35996 0.32908,-0.0818 -4e-5,-3e-5 z m -0.29665,-32.66967 c -1.0294,-3.19483 -0.95008,2.38663 0,0 z m -2.80059,-20.95981 c -0.35137,-3.23144 -2.76272,1.50651 0,0 z m -7.44868,-26.62712 c -3.25161,-0.98451 -12.795537,-8.36302 -12.731453,-4.14259 3.781345,2.06933 8.430513,4.76682 12.731453,4.14259 z m 66.09757,-7.20316 c -2.0028,0.003 0.48477,5.61133 0,0 z m -18.1181,1.61787 c -1.65842,-0.25609 0.51007,0.5085 0,0 z m 2.76759,-0.9921 c -1.29303,-0.39248 -1.37916,1.12681 0,0 z m 8.30118,-3.56215 c 4.85564,-2.01794 8.77285,-6.40777 1.63157,-1.62382 -3.54539,1.75324 -13.76935,6.94503 -4.52255,2.98365 l 1.40286,-0.64827 1.48812,-0.71156 0,0 z m -31.44493,-1.47276 c -0.7869,-1.14407 -1.47983,1.07685 0,0 z m 47.73434,-2.20757 c 1.80539,-4.59754 1.18027,-13.09433 -3.03206,-5.42311 -7.07105,7.32891 2.81287,-3.33746 0.96062,4.46413 -0.45502,1.00307 1.7384,3.17147 2.07144,0.95898 z m -2.49518,-6.50729 c 0.79103,-1.5007 1.10123,0.1757 0,0 z m -44.98277,1.14845 c 6.35458,1.37346 3.42294,-11.35307 -0.21585,-2.95446 -3.30278,0.23257 -3.27303,4.70305 0.21585,2.95446 z m -68.040976,-0.56626 c -3.787915,-6.28287 -4.792554,0.79984 0,0 z M 161.059,612.46881 c 0.0577,-2.67845 -2.27698,1.5098 0,0 z m -26.34369,-1.11742 c 6.06102,-3.37936 3.52713,-16.14637 -3.37147,-8.41725 -0.60237,1.45952 -0.19297,10.92014 3.37147,8.41725 z m 50.94167,-3.59018 c 2.41093,-3.38331 -5.04675,-14.5272 -11.31133,-17.09455 -9.7425,-5.55158 -21.395,-7.29962 -32.4534,-6.86886 6.35377,7.31066 19.35956,3.90766 26.57634,11.14961 5.21697,4.37742 9.90616,12.53231 17.18839,12.8138 z M 82.836779,601.7138 c -0.102589,-2.56931 -2.204749,1.32088 0,0 z m 49.716611,-9.51161 c 4.54018,-2.41383 2.25683,-18.20956 -2.5802,-9.6692 -5.27995,-1.05944 -1.77541,16.45521 2.5802,9.6692 z m -12.68863,-3.91111 c 0.20213,-3.65396 -8.46757,2.01032 -0.94642,0.50055 l 0.94642,-0.50082 0,2.7e-4 z m 17.14959,-3.38489 c -1.00193,-1.09325 -1.84474,1.07516 0,0 z m -7.48768,-13.26164 c 3.61467,-2.94934 1.98317,-18.04981 -3.16248,-9.42992 -5.80561,-1.40774 -1.74187,18.5244 3.16248,9.42992 z m -4.7433,-21.62479 c 4.74499,-3.86399 3.50711,-11.15532 -3.04244,-6.84587 -5.32983,-2.63731 -0.80176,13.91631 3.04244,6.84587 z m -4.0564,-9.49377 c 5.72336,1.21688 8.12028,-2.63302 0.73973,-2.00634 -1.26504,-0.22398 -4.64807,3.76095 -0.73973,2.00634 z m -31.324988,42.91109 c -9.045114,-4.41332 5.200624,-11.53207 2.622732,-1.04392 -0.03952,1.48058 -1.575534,2.01164 -2.622732,1.04392 z m 51.485408,-3.97536 c -6.07455,-6.66935 7.78671,-12.3714 4.57277,-2.74821 -0.9231,1.16337 -2.68523,4.9303 -4.57277,2.74821 z m 3.09823,-5.40078 c -2.07446,0.41733 0.17231,-0.40899 0,0 z m -28.58757,3.98609 c -3.20569,-8.847 6.36237,-4.26408 1.20124,0.23326 l -0.86061,0.0413 -0.34063,-0.27455 0,0 z m -11.15922,-6.78066 c -6.357038,-1.79713 -10.652467,-17.19838 -0.99005,-12.6879 2.42191,1.20914 6.00853,15.51231 0.99005,12.6879 z m -1.78424,-9.35058 c -1.92699,-2.17281 -0.35201,2.02516 0,0 z m 35.24413,7.9354 c -6.76938,-6.89099 8.69103,-19.39488 5.84053,-6.0768 -1.10273,1.66202 -3.08767,8.12857 -5.84053,6.0768 z m 4.21036,-7.80458 c -0.92143,-1.07582 -0.56293,1.49375 0,0 z"
         style="fill:#c08774" />
      <path
         id="path2852"
         d="m 136.56937,752.91781 c -13.65081,-1.50528 -25.89706,-11.88357 -29.25303,-25.23709 -11.457584,-29.9252 -21.997799,-60.20311 -33.470093,-90.12627 -8.525421,-1.59709 -20.50271,-4.34529 -21.763699,-14.78951 -1.719741,-9.93342 4.779943,-17.16013 6.146418,-26.21901 4.421053,-5.90956 14.158342,-8.49304 17.427651,-13.86522 -1.035141,-7.51383 2.8296,-15.91242 10.927188,-16.90849 -0.175191,-6.86934 0.09214,-14.06128 6.746381,-18.00417 3.898946,-2.94362 12.028494,1.17607 14.086814,-3.20014 -1.73538,-7.77429 3.51362,-17.17247 11.76634,-17.65688 4.10282,0.24049 8.50274,-0.46932 12.42981,0.33339 10.65863,2.52918 4.45823,18.70154 13.28619,19.69051 5.19053,-0.95685 9.34803,5.08282 10.49548,9.35541 -0.12845,5.28658 0.0538,10.22586 2.32491,14.92981 6.07362,2.10367 14.47863,1.77988 20.76788,5.14205 8.84135,4.36056 17.19321,11.4397 21.379,20.49514 1.44142,10.0426 -0.32746,20.02029 -1.45249,29.97085 -2.67081,33.41569 -4.09449,66.99814 -7.77392,100.29295 -6.73721,13.29213 -20.01775,24.23863 -35.14887,25.90837 -6.30531,0.10022 -12.61817,0.0541 -18.92196,-0.1117 z m 18.76335,-5.00493 c 16.0625,-3.47882 32.74751,-16.33346 32.10393,-34.18261 2.90397,-33.10965 4.52648,-66.33591 7.4626,-99.42955 4.5399,-12.34085 -2.91465,-25.55899 -13.94707,-31.3623 -7.67238,-6.89918 -22.48227,-3.85319 -27.93123,-10.39312 -5.25417,-5.44414 0.3056,-12.08822 -3.50331,-18.06941 -3.59746,-7.84429 -16.10412,1.12542 -13.99397,-10.42318 1.75511,-12.73495 -15.20155,-18.45436 -22.64829,-8.8299 -4.85281,6.23811 4.42959,17.03824 -8.0214,15.41998 -13.823159,-5.46886 -15.508839,13.97987 -14.121851,18.80696 -9.364142,-1.71428 -15.180802,11.2893 -8.437266,17.55544 -7.645465,2.04278 -17.432558,6.95626 -22.150209,14.48399 1.180422,9.36459 -11.005285,19.78738 1.366792,27.11298 8.540914,3.16799 19.354901,2.78247 19.746905,14.86178 11.212352,30.15026 21.798669,60.54118 33.666049,90.43372 8.10267,13.06112 26.20164,16.88091 40.40832,14.01522 z m -12.68202,-6.28356 c -4.90645,-0.24528 -9.49206,-2.53126 -1.77706,-0.83091 4.71312,-0.72821 7.59042,-2.53454 12.57037,-0.7184 10.86624,-1.97107 21.79977,-9.48208 25.54525,-20.01908 1.11834,-5.17702 0.0189,-9.04682 -2.43528,-1.99503 -6.57197,9.43342 -17.82882,16.58155 -29.51249,16.94492 -9.46787,0.45633 -18.20992,-4.1382 -25.95898,-8.45415 0.35753,5.99873 12.06216,12.65302 12.35496,12.91633 -12.24398,-2.85058 -14.94462,-15.75063 -18.59305,-25.84491 -10.5438,-28.52274 -21.175369,-57.01367 -31.652868,-85.56102 -3.323143,-3.29881 -20.242103,-4.9964 -17.370225,-6.35881 2.985598,2.16136 13.86697,2.58 5.227296,-0.73495 -13.221026,-6.10245 3.878295,-12.96761 3.600705,-22.21986 6.23749,-5.11789 16.750543,-3.27927 17.503922,-14.38079 5.657072,2.04978 12.70054,2.48481 12.65064,-6.11079 3.66193,-10.64098 3.17059,8.09704 5.67471,11.08707 3.16722,6.24832 15.09846,1.32693 5.39259,0.23662 5.10796,0.93168 12.25653,-9.77676 11.89404,0.86501 4.27683,8.1566 1.68575,17.90948 6.0463,25.71382 -2.98158,6.05909 4.70474,9.10625 7.05351,3.77504 -2.24874,-9.02727 -2.68902,-18.3495 -5.12635,-27.33728 -2.92743,-13.7158 11.60727,-3.3681 18.32876,-3.22269 11.94121,0.8464 18.17466,11.24496 26.96823,17.54669 2.18142,4.92069 6.15726,-0.61361 3.72801,6.10101 5.19123,-4.01426 0.0165,-17.03621 1.20952,-15.96982 5.92957,8.27606 0.25107,18.39889 0.78337,27.58769 -2.41261,31.68088 -3.90178,63.4636 -7.20367,95.05746 -4.19988,14.86846 -22.35643,23.19926 -36.90221,21.92683 z m -10.35022,-12.13017 c -2.57552,-22.68094 -5.93314,-45.35822 -6.93022,-68.19467 0.5749,-12.74805 12.99779,-6.29604 21.58083,-9.01051 9.26642,1.2908 19.49894,-15.57689 26.26626,-8.95509 -1.59278,4.88028 2.67012,22.9172 1.94662,8.55401 1.1922,-8.3614 -0.34425,-17.15352 1.71532,-25.10197 8.45492,-6.62861 3.92929,14.10209 4.48365,19.52137 -0.31146,11.63974 -0.99466,23.30142 -0.64267,34.94053 2.09841,-21.43146 3.30354,-43.00179 4.7834,-64.49666 -6.10656,4.59353 -15.09962,13.42502 -24.46077,16.2286 -5.93386,3.51349 -22.42249,6.16961 -22.38314,7.60998 13.14775,-1.33718 -12.61793,4.71208 -11.83937,1.20532 3.92517,-2.25407 -4.96212,-1.5919 -3.23495,-5.03364 -4.53277,-1.30624 -9.46261,0.65183 -7.36104,4.32325 -9.70696,3.32927 -12.01923,-9.83233 -20.822591,-6.93842 -7.338125,0.60881 9.214291,7.09555 -0.346782,3.86594 -3.483455,-2.14407 -10.186588,-6.16751 -5.934196,1.38218 9.815841,26.95171 19.197049,54.05839 28.972049,81.02484 3.86997,2.16824 -2.96185,-10.98221 -3.61495,-14.69087 -6.9777,-18.40361 -12.13803,-37.62415 -17.238018,-56.49048 3.325028,3.28056 7.443608,18.40699 7.815658,9.07255 -6.848168,-5.27777 2.91832,-6.60198 2.03524,0.19199 1.64727,6.47101 4.12017,14.27883 6.75807,21.63611 1.68103,7.71172 4.20914,14.52488 7.44943,21.93689 1.28458,8.26787 5.6215,16.64545 8.09457,24.95083 0.33719,0.95329 1.65054,4.88098 2.9076,2.46792 z m 5.60382,-79.1752 c 6.14214,-1.30113 -3.92104,1.38326 0,0 z m 34.55975,-17.89439 c 1.13228,-2.40272 2.20533,0.8902 0,0 z m -3.85645,-0.87685 c 5.48913,-4.07409 4.34897,-0.16766 0,0 z m -47.86652,92.0337 c -0.79605,-4.2356 -2.61704,2.14719 0,0 z m 0.99578,0.004 c -0.7355,-1.56304 -0.7355,1.56303 0,0 z m 21.06217,-2.66985 c -0.73548,-1.56306 -0.73552,1.56303 0,0 z m -23.57392,-6.83326 c -2.71621,-7.19533 1.22496,7.1787 0,0 z m 2.2151,-2.65956 c -1.4981,-1.79359 -1.48373,1.74232 0,0 z m 1.1866,-0.85362 c -1.35612,-3.09123 -0.9952,1.73949 0,0 z m 9.78945,-1.48326 c -1.98461,-3.84445 -2.10175,2.22395 0,0 z m 2.89852,-10.62302 c -1.07796,-1.55624 -0.99736,1.32001 0,0 z m -19.69162,-0.61096 c -0.90522,-4.92477 -3.95544,-3.87523 -0.9374,0.60982 l 0.9374,-0.60982 0,0 z m 1.66394,-0.83704 c -1.78917,-3.5067 -1.12785,4.11044 0,0 z m 24.49125,-0.89805 c 0.0752,-3.11771 -1.83462,1.38465 0,0 z m -27.72327,-5.53372 c -1.02351,-2.63011 -2.73964,2.16129 0,0 z m -0.62443,-6.00718 c -0.75795,-1.0642 -0.7579,1.06421 0,0 z m -2.52153,-4.60214 c -1.02526,-1.93683 -1.18354,2.32109 0,0 z m 1.75789,-1.52879 c -0.24112,-2.78964 -2.04156,1.75418 0,0 z m -1.90621,-2.17527 c -0.73161,-1.05676 -0.35876,1.08459 0,0 z m 19.52539,-1.85103 c -1.57684,-2.69913 -1.0521,2.45723 0,0 z m -20.86032,-0.96715 c -1.43249,-2.78152 -1.40763,2.78043 0,0 z m -2.3732,-10.23443 c -1.77436,-2.24525 -1.82895,2.24415 0,0 z m 41.67492,-27.7368 c -3.34707,-2.44693 -4.40009,0.11284 0,0 z m -40.93329,-1.28895 c -3.31465,-4.37956 -13.631004,-5.88476 -4.48941,-0.77938 1.39896,0.16955 3.019,1.51316 4.48941,0.77938 z m 28.08404,-3.50261 c 5.02748,-6.01903 -8.23683,4.16034 0,0 l 0,0 z m -9.09843,-0.12068 c -1.30111,-1.12335 -0.6438,1.50575 0,0 z m 26.93896,-1.88165 c 9.6848,-9.24916 -3.96518,-0.82439 0,0 z m -21.00596,-4.95169 c -2.61509,-0.90381 -3.21378,2.48723 0,0 z m 9.82443,-0.31428 c 5.87253,-3.75034 -11.23727,1.50745 0,0 l 0,0 z m -21.15646,-1.49706 c 0.22307,-6.12626 -4.91301,0.96606 0,0 z m -1.42392,-3.36965 c -0.92143,-1.07582 -0.56292,1.49374 0,0 z m 29.07172,-1.46575 c 1.42881,-2.73887 -3.05495,2.51085 0,0 z m -59.686028,-2.2842 c 1.91214,-6.05702 -6.127872,-0.6086 0,0 z m 71.799358,-1.30409 c 2.23187,-5.97755 -4.7261,1.1744 0,0 z m -48.71684,-1.23226 c -4.45022,-6.02312 -1.04527,3.02681 0,0 l 0,0 z M 79.612523,605.6269 c -1.565188,-0.10585 -1.603876,1.35472 0,0 z m 4.017203,-2.34826 c 1.478153,-7.31013 -7.358639,-0.30141 0,0 z m -6.434748,-2.96633 c 3.284009,-7.00957 -5.108251,5.1982 0,0 z m 15.783487,-9.95699 c 2.585046,-12.12596 -4.082833,4.75166 0,0 z M 171.45875,728.7074 c 2.06862,-4.5703 7.9355,-11.87834 3.09161,-2.68538 -0.30077,0.14303 -2.9223,4.39556 -3.09161,2.68538 z M 136.72166,617.75521 c -3.36231,-5.73172 2.21833,-11.8526 1.91843,-2.5018 -0.0103,0.66778 -0.82373,3.51509 -1.91843,2.5018 z m 47.95346,-16.84814 c -7.9323,-14.67673 -26.56377,-17.62976 -41.77103,-17.63246 -4.62594,1.26548 -12.31068,-0.58767 -4.33233,-1.19848 13.84154,-0.22652 28.94825,0.27995 40.66956,8.56355 1.46888,0.85594 8.80025,13.72672 5.4338,10.26739 z m -50.90822,0.25351 c -3.32147,-4.64865 0.86796,-15.29839 2.1289,-4.25048 0.50012,1.22653 -0.17233,5.02668 -2.1289,4.25048 z m -20.44352,-13.13956 c -2.3181,-3.73467 14.12432,-3.894 3.58525,-0.8607 -1.67302,-1.0943 -2.64415,1.82111 -3.58525,0.8607 z m -24.069723,-5.14318 c -3.328247,-2.63566 -3.060352,-4.232 0.02748,-3.46353 -5.588789,-10.25853 8.538954,5.25148 -0.02748,3.46353 z m 36.932953,-0.35554 c -1.74469,-5.45908 -0.84168,-11.87531 0.76066,-2.79736 0.75635,0.7221 0.16367,5.10841 -0.76066,2.79736 z m 4.00197,-0.94063 c -3.47,-5.66315 1.5077,-14.92407 2.05038,-4.40318 0.67036,1.08414 -0.49727,5.29898 -2.05038,4.40318 z m 10.87151,-2.77211 c -3.6597,-4.35964 4.26855,-11.32362 1.52851,-3.28262 5.89501,-5.30742 2.32128,5.58111 -1.52851,3.28262 z m -25.40611,-1.09714 c -3.07572,-13.69966 6.41949,1.58913 0,0 z m 17.35559,-0.98162 c 0.42395,-2.0749 0.78188,2.48921 0,0 z m -0.70084,-4.00581 c -0.64316,-5.20269 1.56369,2.72408 0,0 z m -28.69477,-2.58932 c -8.64121,-2.11703 -6.149608,-18.70229 1.27966,-8.46702 0.3942,1.24899 3.5305,13.56907 -1.27966,8.46702 z m 0.463,-5.65644 c -1.04066,-10.32497 -5.725498,0.60023 0,0 l 0,0 z m 33.45797,4.48201 c -5.24115,-7.05436 9.28879,-16.28283 5.17258,-4.45244 -0.95879,0.98743 -3.46716,8.26434 -5.17258,4.45244 z m 3.67425,-4.00478 c 4.96432,-6.19593 -3.78891,-4.24793 -0.81141,0.61489 l 0.81141,-0.61489 0,0 z m -18.68722,-2.32053 c -1.70047,-4.43711 -2.36213,-16.25782 0.12029,-5.33226 -0.0929,1.06133 1.78775,5.79039 -0.12029,5.33226 z m 4.1243,-1.43801 c -1.96298,-3.16645 -2.5073,-16.63504 1.44241,-9.89009 0.20905,3.06022 2.85083,8.655 -1.44241,9.89009 z m 3.00127,-4.07798 c -1.29499,-5.2528 -1.79501,-16.21556 -0.21474,-4.80842 -0.5083,0.75299 2.10019,5.86001 0.21474,4.80842 z m -11.09897,-14.87002 c 3.16518,-0.5447 12.27749,-0.76736 2.71651,0.50274 l -1.82913,-0.13937 -0.88738,-0.3634 0,3e-5 z"
         style="fill:#a76652" />
      <path
         id="path2850"
         d="M 136.1244,752.80379 C 121.74839,751.03682 110.101,739.53915 106.6926,725.7 95.478805,696.29695 85.114139,666.5779 73.848268,637.19438 63.627214,636.68494 50.02742,630.09411 51.692891,618.00605 c 2.521049,-7.64496 4.000341,-15.30717 7.543806,-22.27611 5.57309,-6.50212 18.926822,-8.5335 17.205288,-19.3965 -0.680621,-9.01849 15.699394,-9.67456 10.899057,-20.29309 0.885464,-14.28271 25.462538,-3.32629 20.308148,-19.40268 3.361,-8.98207 14.95508,-12.15204 23.56363,-9.1589 10.62516,1.9689 4.79561,19.41413 14.29468,19.47733 13.56744,1.56027 6.43013,18.6109 13.9354,25.2534 13.23296,0.7275 26.84228,6.01656 35.28402,16.82438 8.38897,7.83125 5.66135,20.61164 4.39235,30.70143 -2.76415,20.07567 -2.75366,40.41776 -4.74716,60.57832 -1.06594,15.6344 -2.09634,31.28109 -3.95737,46.84569 -8.06754,16.78012 -26.69558,28.26621 -45.47366,25.84749 -2.93773,-0.10356 -5.8762,-0.24369 -8.81668,-0.20302 z m 18.54064,-4.60398 c 16.65733,-3.2441 33.5993,-16.68673 33.06195,-35.00637 3.06618,-33.3883 4.19416,-67.01198 7.80529,-100.30374 4.51568,-15.22662 -8.15422,-29.32339 -22.00551,-33.60336 -8.91633,-4.06522 -24.91146,-0.8307 -22.34117,-15.41186 1.8898,-9.98884 -6.77997,-14.50177 -14.49462,-14.493 0.0316,-10.42615 -5.53237,-24.11939 -18.61939,-18.05314 -12.97944,2.17467 0.1684,21.91419 -14.37302,18.99325 -12.893933,-3.16196 -15.145687,10.50109 -12.96355,19.07719 -12.574756,-2.75099 -10.894151,13.69857 -11.086133,18.54879 -10.12446,2.58018 -21.006788,10.01625 -20.317883,21.10009 -6.940612,6.97423 -3.687262,19.66982 6.415052,21.34452 11.885098,-0.53163 14.490274,9.50131 17.508504,18.87241 10.685744,28.18958 20.13915,56.8943 31.76364,84.69527 7.46228,12.93734 25.9152,16.92125 39.64684,14.23995 z m -9.64113,-6.66315 c 0.95159,-1.5299 12.12674,-0.22435 2.21789,0.0631 -0.73991,0.0598 -1.47887,-0.0422 -2.21789,-0.0631 z m 8.75118,-1.18574 c 4.15925,-2.05157 0.22607,1.54434 0,0 z m 3.41148,-0.88995 c 1.64003,-1.53281 0.61144,1.27279 0,0 z m 4.89473,-1.61069 c 1.34097,-1.59715 1.44866,0.0551 0,0 z m -33.07651,-0.46586 c 0.45651,-1.22505 0.93638,1.29244 0,0 z m -2.52153,-1.7799 c -0.70357,-1.12874 1.68204,1.19572 0,0 z m 40.34444,-0.4241 c 1.34095,-1.59712 1.44865,0.0551 0,0 z m -42.90781,-1.4944 c -7.03292,-10.26779 -9.14315,-22.89811 -14.12656,-34.16898 -8.85688,-24.03234 -17.908633,-47.99277 -26.65403,-72.06618 -4.284417,-1.11085 -8.312893,-3.60493 -7.520168,-4.67259 -10.493027,-1.88833 -8.708331,-13.01717 -3.113593,-18.47967 1.335772,-11.20711 15.753592,-6.3434 17.878573,-15.68839 0.918499,-9.07376 17.562568,1.17074 4.707521,-1.54121 -5.242305,-4.25503 -6.557311,13.23834 -0.37837,5.75689 6.388777,-3.52847 13.617157,-7.30263 18.569827,0.1715 6.77242,2.73561 14.24936,-14.13853 14.96248,-0.37642 0.3314,10.35075 7.21488,21.41673 3.29868,31.09862 -9.06787,3.81306 7.88118,0.80037 11.57011,1.15681 7.39448,0.27669 10.57442,-15.92608 2.26097,-5.70837 -8.42103,5.91888 -4.21806,-12.06921 -7.29868,-16.59535 -1.97935,-6.99667 -4.92257,-20.61356 6.95556,-15.52452 9.36052,4.57378 21.2802,3.55348 27.74403,13.15901 4.45174,4.48653 15.28582,12.01083 3.83378,15.91373 -4.37697,6.91403 11.5433,-1.95513 10.34274,-7.82592 1.38801,-3.8842 -1.73648,-15.41769 1.34312,-4.6753 2.22844,10.17451 -8.27631,17.59621 -15.34246,23.0638 -12.29796,7.47428 -26.48914,12.18683 -40.74881,13.80872 -7.49323,0.16816 -6.68436,-8.53399 -15.35228,-4.65868 -6.79761,1.73858 -17.822008,-10.29866 -20.009635,-7.52726 3.355225,4.39149 -6.828811,7.20184 -1.994073,9.2843 -4.287286,-2.30686 -9.004942,-4.96611 -5.808674,1.97665 10.402654,28.15471 19.597492,56.78843 30.713792,84.69056 -1.31208,1.75659 7.33546,11.50505 4.16615,9.42825 z m 20.39176,-96.08897 c 11.16542,0.40829 0.89138,-8.18796 -1.98091,-3.53245 8.50075,4.00965 -5.38874,3.16657 1.98091,3.53245 z m -7.46617,-1.52765 c -3.06901,-1.42797 -4.35934,2.20547 0,0 z m -1.29693,-4.44883 c 7.74326,-5.96276 -5.03321,-1.90774 -3.16295,0.77169 l 1.22222,-0.20741 1.94073,-0.56428 z m 17.76998,-0.29565 c 8.66732,1.4976 2.71005,-12.94543 -1.18619,-3.41106 -2.66878,2.21842 -3.47145,5.03324 1.18619,3.41106 z m -26.29762,-0.51641 c -1.17302,-2.76223 -1.9478,2.39055 0,0 z m -38.920508,-1.2472 c -3.229787,-3.15671 1.088903,2.94554 0,0 z m 62.112858,-1.34274 c -0.50389,-4.2222 -9.59621,3.12856 -0.94346,0.36473 l 0.54594,-0.21102 0.39752,-0.15367 0,-4e-5 z m 15.40464,-0.57413 c -3.00215,-2.85462 -5.52991,0.97274 0,0 z m -39.40305,-2.18176 c 3.64698,-5.06668 -4.80418,0.74883 0,0 z m -6.73648,-1.8524 c 6.10525,0.66373 -0.0127,-10.31682 -2.20669,-3.99601 -3.67968,-2.63599 -15.04068,-10.98617 -7.53581,-1.66299 2.58542,2.54498 5.47593,7.01599 9.7425,5.659 z m -35.419958,-0.16644 c 7.859491,-3.21684 -1.021204,-1.55212 -3.07643,0.17592 l 1.347952,0.0952 1.728478,-0.27111 z m 74.499288,-4.91976 c -1.16597,-1.13496 0.85509,2.30693 0,0 z m -68.294086,-3.67867 c 0.684597,-8.38996 -7.151667,2.77284 -0.155372,0.35272 l 0.155372,-0.35272 z m 24.771796,0.3625 c 2.15396,-4.99784 -14.85221,-6.86048 0,0 z m 46.4496,-0.6325 c 5.47909,-12.4825 -9.63769,4.33404 0,0 z m 14.06961,-1.07421 c -1.46748,-5.971 -9.54889,-18.11339 -14.17197,-14.69025 0.58039,7.99996 10.99013,8.47895 14.17197,14.69025 z m -99.353575,-2.16224 c 0.574615,-6.4891 11.485844,-4.16944 9.585201,-3.48512 -5.182747,-1.67027 2.834241,-8.93447 -4.147925,-8.82893 -0.223775,5.39555 -9.9024,8.61867 -7.584104,12.88369 l 2.146828,-0.56964 0,0 z m 0.242337,-9.10532 c 6.356796,-5.55582 -4.021858,-4.41809 -0.872518,0.81564 l 0.602884,-0.19496 0.269634,-0.62068 z m 94.685268,-0.71428 c -1.48125,-5.31082 -4.63208,-0.29436 0,0 z m -79.798442,-2.33998 c 0.366248,-5.70906 -8.297297,3.27718 0,0 z m 52.603442,135.38434 c -13.35206,0.8819 -2.92117,-17.33199 -9.52181,-24.29118 0.58483,-10.33122 -0.43535,-19.56238 -2.36887,-30.19888 -0.16752,-7.698 -6.81659,-17.2209 -1.11146,-23.98362 11.27094,-2.24768 23.12573,-3.33861 32.97472,-9.83525 11.43389,-4.93541 5.37982,17.24227 11.29846,16.56326 2.28543,-9.48106 -2.61614,-22.21485 3.98915,-29.58336 5.92369,6.70352 -1.00406,19.04176 0.9977,27.91471 -0.62479,16.60369 -1.542,33.21139 -1.24933,49.83315 3.91979,-31.51964 4.03997,-63.34888 7.18159,-94.93744 2.98789,-4.73923 -0.59749,11.678 1.9e-4,14.79586 -2.13836,29.3649 -3.65742,58.782 -6.63774,88.07988 -0.81388,-11.01201 -9.13356,12.00239 -16.87538,11.28854 -5.60653,3.22957 -12.16514,5.2498 -18.67722,4.35433 z m -1.29313,-1.01927 c 0.0551,-4.52679 -4.75115,-20.79485 -3.0743,-7.9661 -0.0973,2.58481 -1.01961,8.13464 3.0743,7.9661 z m 0.75181,-12.29115 c -1.84682,-4.63536 -2.17335,2.94275 0,0 z m 0.66746,-16.92066 c -0.7919,-1.74165 -0.86331,1.48468 0,0 z m -1.91418,-8.35791 c -1.33108,-5.71205 -2.74796,2.48299 0,0 z m -7.65279,-15.12691 c -0.98607,-1.61704 -0.97086,1.87558 0,0 z m 40.4539,-8.20731 c 2.24697,-5.9068 -3.52893,-7.65777 -1.17434,-0.31273 -0.40229,0.96664 1.64967,4.90458 1.17434,0.31273 z m -42.28387,-0.47441 c -0.97032,-2.34485 -1.46178,2.92808 0,0 z m 37.13135,-18.43705 c -0.7159,-1.16498 -0.7159,1.16497 0,0 z m -0.5933,79.5836 c 3.6388,-3.88602 7.96338,-6.86636 1.95148,-1.07175 0.30755,-0.22318 -4.1645,3.38659 -1.95148,1.07175 z m 7.56793,-7.90604 c 1.86486,-3.02801 -0.57993,2.0338 0,0 z m -63.05831,-22.91162 c -6.5024,-16.90793 -11.11348,-34.45143 -15.885208,-51.90262 6.249338,14.50588 9.609458,30.07795 14.597608,45.04253 0.57535,2.25207 1.15896,4.52945 1.2876,6.86009 z m 3.56597,-3.3297 c 1.65213,-2.04254 -0.78348,1.77245 0,0 z m 10.69003,-57.02847 c 7.41934,-1.22027 6.72913,0.59859 0,0 z m 7.93539,-0.7669 c 1.42864,-0.73632 0.49065,0.61385 0,0 z m -25.28943,-0.83242 c -10.13692,-2.69803 3.91317,-6.78562 4.86806,0.14698 -1.57086,0.53555 -3.2831,-0.0533 -4.86806,-0.14698 z m 72.98411,-27.20357 c 0.39786,-5.5751 3.79828,-5.15614 0,0 z m 1.01261,-13.04419 c -8.45781,-14.33669 -26.89893,-17.28613 -42.15113,-17.27276 -4.50573,0.52159 -9.59855,-0.6954 -2.11102,-0.75912 14.83398,-0.141 32.53878,0.44271 42.34516,13.41332 0.18968,0.25457 3.69247,6.79381 1.91699,4.61856 z m -71.31768,-13.29212 c 4.97049,-3.68051 9.03975,-0.85023 1.5522,-0.0883 l -0.82904,0.31348 -0.72316,-0.22527 z m -6.67294,-3.56167 c -2.89811,-0.89007 -2.92162,-6.32741 0.15745,-8.10344 1.57187,1.98376 2.89087,6.80275 -0.15745,8.10344 z m 35.05918,-4.53693 c -2.14593,-2.42672 0.62157,-9.72654 0.46374,-2.60054 4.74032,-0.96093 1.9315,2.61916 -0.46374,2.60054 z m -25.97508,-1.33492 c -2.86386,-11.84088 5.75415,-0.83136 0,0 z m -12.1265,-7.77973 c -6.499168,-1.03457 -6.040978,-14.95134 -2.0344,-4.45642 2.5932,4.37947 5.51735,-2.38226 4.16991,5.07035 -0.37294,1.20973 -1.94627,-0.21068 -2.13551,-0.61393 z m 34.22132,-0.7763 c -2.67877,-5.03701 3.19267,-11.91008 1.36003,-2.8201 0.69915,1.1139 1.1543,4.99056 -1.36003,2.8201 z"
         style="fill:#8f4835" />
      <path
         id="path2848"
         d="m 136.42105,752.91206 c -10.5884,-1.62929 -20.17102,-8.02651 -25.78352,-17.08977 -12.699008,-32.72366 -24.09248,-65.93961 -36.799782,-98.66601 -8.609284,-1.08285 -17.932955,-3.92014 -21.57225,-12.68778 -2.471505,-7.7676 1.945868,-13.62508 4.208305,-19.76576 -1.219816,-5.39913 2.368796,-9.54364 6.54362,-12.58766 8.194208,-3.81733 15.534652,-8.5278 13.454687,-18.71882 5.422733,-6.80176 13.718765,-7.88915 10.750748,-18.45802 3.075552,-9.94455 14.915662,-6.29359 20.487322,-10.04305 0.93867,-4.15165 -1.85995,-9.73008 2.54267,-12.41701 3.07243,-3.81018 7.16518,-6.59527 12.15365,-5.56712 6.74226,-1.51646 12.01078,2.0054 16.12067,6.96709 1.25703,5.72537 -0.0957,15.86797 8.78711,13.44474 5.28158,1.60487 9.22407,8.2452 7.94406,14.00468 -2.24985,13.69816 12.29115,10.73051 20.93222,14.37548 10.52741,3.94944 19.67041,12.24245 24.20549,22.56758 -0.0999,8.25588 0.16551,16.54581 -1.96128,24.56499 -2.7574,34.67451 -4.36908,69.47254 -7.95795,104.06525 -4.63117,10.06944 -13.63858,18.19664 -23.63515,22.80508 -9.44869,4.96985 -20.17532,2.92449 -30.42062,3.20611 z m 18.68436,-4.71925 c 16.38379,-3.41187 33.20563,-16.65727 32.62781,-34.75919 2.91754,-33.12387 4.50829,-66.37258 7.47671,-99.4759 4.47632,-12.46243 -3.33404,-25.72588 -14.53675,-31.38986 -7.50096,-6.66227 -21.68507,-3.78562 -27.39248,-9.90033 -5.38439,-5.79267 0.87019,-13.59967 -4.45803,-19.42709 -4.56179,-6.23669 -15.29626,1.66416 -13.13892,-9.71696 2.02611,-14.59312 -20.46393,-18.37691 -24.55467,-5.0762 -0.37251,6.31231 3.74843,13.03709 -6.08766,11.91602 -13.596888,-5.20024 -16.501495,13.1898 -14.452809,18.81326 -9.640145,-1.55242 -15.250027,11.79461 -8.306207,18.17692 -9.269111,1.6839 -20.171604,7.3496 -22.820708,16.79012 2.703071,6.65551 -8.413846,11.46017 -2.996624,18.95178 3.089293,10.33457 17.221168,5.45732 21.685382,12.62305 12.365377,32.79957 23.771276,65.95966 36.683746,98.54605 8.38379,12.68201 26.06482,16.81094 40.27121,13.92833 z m -9.87889,-6.80845 c 4.77346,-0.86345 6.74728,0.65039 0,0 z m 3.7572,-8.88732 c 0.61927,-3.76208 -0.65721,-7.13932 -3.4558,-9.39387 -1.2425,0.66934 2.90764,-8.51048 -1.64234,-10.88199 2.58652,-4.07644 2.72469,-3.84815 0.80152,-7.47312 4.80082,0.17977 -1.2278,-8.38185 -0.52664,-1.46833 -2.912,-1.14443 -6.03297,-7.86608 0.35596,-6.47458 1.62771,-3.50968 -7.14167,-3.14361 -3.5646,-8.3766 -0.18241,-4.18619 2.74658,-8.04021 -1.11124,-10.07015 0.89672,-4.64329 -2.95429,-6.88847 -0.49019,-13.39767 -7.47743,-5.00871 6.47093,-6.31404 8.81169,-10.94162 6.81687,-0.40754 17.36405,-11.87154 19.55555,-0.50076 -0.10245,6.1176 3.50632,13.06345 3.99142,19.53798 -0.2854,3.82948 3.26377,22.49623 3.89458,10.2818 -0.0414,-6.12317 1.47047,-9.02491 1.13125,-1.42948 -0.21991,11.56321 1.8549,23.35751 -0.0102,34.77691 -5.89291,9.49118 -16.52198,16.85683 -27.84445,17.51065 0.0345,-0.56639 0.0687,-1.133 0.1035,-1.69917 z m 2.41288,-4.74738 c -0.34919,-5.17793 -3.53865,0.31797 0,0 z m 1.19188,-9.20253 c -1.13691,-1.59633 -1.13687,1.59635 0,0 z m 0.17615,-5.23638 c -1.1129,-3.75147 -3.77791,1.89046 0,0 z m -9.07565,-25.62456 c -1.8238,-2.69965 -1.11713,1.94692 0,0 z m 0.88995,-20.31123 c -1.11476,-2.08111 -0.9274,2.0035 0,0 z m -21.45584,65.28078 c -3.15598,-4.13127 -0.30961,-1.28032 1.13268,1.11303 l -1.13269,-1.11303 1e-5,0 z m -2.38786,-4.03396 c -0.77794,-2.17131 1.09287,1.38968 0,0 z m -1.04197,-2.83968 c -0.97268,-3.53704 1.56202,2.98327 0,0 z m -1.00583,-2.14202 c -1.01003,-3.66715 1.06038,1.2236 0,0 z m 61.06672,-10.65556 c 2.2671,-31.62962 4.17561,-63.32206 6.16711,-94.98302 2.32235,-8.87869 0.34323,7.98876 0.25642,11.33997 -2.11427,27.94809 -3.59584,55.95935 -6.23523,83.85848 l -0.1883,-0.21543 0,0 z m -66.73183,-4.83161 c -0.77793,-2.1713 1.09288,1.38968 0,0 z m -0.93879,-2.5298 c -0.36242,-1.48786 0.96553,1.12981 0,0 z m -1.73106,-4.88646 c -0.77793,-2.17131 1.09288,1.38969 0,0 z m -0.9266,-2.51006 c -0.48915,-2.56188 1.17011,1.86427 0,0 z m -0.81502,-2.29601 c -8.36299,-22.8649 -17.226457,-45.60908 -25.234728,-68.56646 -13.914379,-2.98512 13.85106,-7.10902 10.545409,1.64359 -7.609419,-5.26471 -10.829483,1.69832 -5.080488,1.33139 0.749369,-5.50866 6.667436,3.47722 3.699456,5.18785 6.373033,5.03616 -9.831737,-6.38742 -4.446347,2.90236 7.152356,19.43804 14.469448,38.83843 21.069668,58.4677 l -0.55297,-0.96646 0,3e-5 z m 67.413,-21.13936 c 0.7161,-2.06211 0.7161,2.0621 0,0 z M 110.7608,640.37333 c -9.00895,-3.52313 11.42738,0.9575 0,-5e-5 l 0,5e-5 z m 22.41193,-0.24815 c 4.89381,0.43866 3.6171,-7.21102 9.26173,-4.40785 -0.47756,4.57794 -4.58145,4.18244 -9.26173,4.40785 z m -7.11564,-1.63198 c -2.14641,-4.56754 15.75124,-0.4627 4.36915,-0.0689 -1.20957,1.02326 -3.13007,1.06366 -4.36915,0.0689 z m 25.72808,-2.88641 c 2.77212,-4.468 12.9725,-2.75699 3.23758,-0.51743 -0.31243,0.0782 -6.21667,2.10404 -3.23758,0.51743 z m -37.0196,-0.16387 c -7.69604,-3.48438 -19.713723,-7.18989 -21.888936,-15.78689 7.784076,1.53866 13.894536,14.4549 22.590886,8.1946 7.83326,1.66321 15.26744,2.55019 22.52124,-0.71005 4.93725,0.37681 13.06634,5.39016 3.77443,2.37958 -5.61676,-5.41865 -12.77269,6.00851 -16.35316,0.6769 1.38856,6.34037 -7.96031,3.6733 -9.30672,5.28603 l -1.33773,-0.0402 -1e-5,0 z m 19.4306,-0.80184 c 3.45671,-4.70969 9.32588,-1.72571 1.43693,0.15879 -0.21946,-0.0451 -1.43425,0.60616 -1.43693,-0.15879 z m 46.27744,-0.0285 c 0.52712,-2.01338 0.91713,1.60363 0,0 z m -17.65515,-3.12511 c 2.3321,-2.024 10.34534,-4.35989 4.55474,-6.57617 7.33411,-4.943 18.46161,-6.56372 19.75455,-17.07972 0.59477,-4.34406 -0.9969,-13.5487 1.27348,-3.79058 0.35529,12.90468 -12.15127,20.96444 -22.2383,26.37165 -0.31695,-0.3211 -3.21084,2.08994 -3.34447,1.07482 z m -2.3365,-4.34038 c -2.05734,-4.8813 -10.51248,-1.79215 -2.51932,-4.47787 0.45435,0.0167 6.94584,8.58727 2.51932,4.47787 z m -36.83807,-3.8142 c -3.8822,-5.97591 -0.2516,-11.62818 6.48947,-7.7524 0.12859,-2.10112 -14.01532,-11.45222 -4.96535,-8.39213 8.6713,1.1962 11.82446,21.76728 -0.15817,13.90914 -0.24532,0.83248 -1.09824,6.61635 -1.36595,2.23539 z m -48.487587,-1.49878 c -5.341496,-1.51809 -10.24393,-10.76097 -2.255121,-3.6365 5.65307,5.43316 10.87988,-2.24092 14.436743,-2.23069 5.925371,5.21134 -9.316477,8.09599 -12.181622,5.86719 z m 65.911297,-2.88734 c -3.69618,-6.48468 6.70044,-12.20236 7.42204,-15.06377 3.84876,2.72973 13.87512,12.40287 3.53326,7.42502 -2.98579,0.80557 -9.10872,13.35997 -10.9553,7.63875 z m 14.12387,1.09416 c -1.48857,-6.82069 3.20267,-3.87118 1.49229,0.39171 -0.11419,-0.21222 -1.96553,0.53517 -1.49229,-0.39171 z m 6.88983,-0.42669 c -0.84964,-1.07286 1.64893,0.97163 0,0 z m 2.82365,-1.16935 c -1.22276,-4.41102 -7.42814,3.74655 -2.53505,-2.97235 0.80853,-10.01511 5.90982,6.63399 2.53505,2.97235 z m -47.12343,-0.51167 c -1.34674,-4.24322 -10.27666,-13.69478 -0.68202,-6.67783 1.45572,1.49191 3.21788,5.97913 0.68202,6.67783 z m -49.441707,-4.39946 c 3.874237,-6.71148 2.500929,0.2059 0,0 z M 178.75407,612.1606 c -5.69665,-5.90935 1.81051,-2.60324 0.79828,0.92734 l -0.79828,-0.92734 0,0 z m -85.882989,-0.42944 c -4.899127,-0.97336 -9.669676,-1.37677 -2.588548,-2.80528 0.772162,0.0809 5.514134,4.30972 2.588548,2.80528 z m 35.815689,-5.51384 c -7.05367,-3.39779 -15.12492,-1.32743 -23.15956,-5.7777 -6.062338,-2.46847 -15.598422,5.07574 -16.96161,2.69837 1.464113,9.67539 -8.200356,-12.15058 -0.739272,-2.19793 5.22088,2.2015 7.089142,-9.12099 11.435304,-8.44416 -5.314858,4.34407 10.049578,-1.27846 12.173558,3.46993 7.26616,7.22296 11.78524,-10.59878 16.49374,-2.9027 -0.21068,2.34881 4.69451,15.61069 0.75784,13.15419 z m -54.594955,-0.59849 c 1.683875,-4.43434 8.738758,-3.76016 2.582978,-0.27808 l -1.925188,0.58991 -0.65779,-0.31183 z m 65.761385,-1.04118 c -2.93169,-7.61702 -7.32742,-22.06891 6.58084,-15.73646 4.22394,0.63629 20.55163,6.54813 8.22727,5.60586 -5.908,1.47832 -13.49787,6.81824 -14.80811,10.1306 z m 42.88444,-7.35285 c -10.85706,-13.31589 -29.57589,-14.50713 -45.49478,-14.29175 -4.0611,-0.90985 10.06445,-0.69983 13.12568,-0.43107 12.69866,0.31156 27.87792,4.30979 33.8611,16.64342 l -0.47202,-0.56418 -1.01998,-1.35642 0,0 z m -69.55078,-2.22808 c -7.48078,-2.27391 14.79591,-0.69127 1.98496,0.33924 l -1.98496,-0.33924 0,0 z m 1.0385,-8.63069 c 4.98652,-1.88803 7.65525,-1.35696 1.0033,0.1331 0.73123,0.26369 -1.87366,0.40321 -1.0033,-0.1331 z M 107.3864,580.716 c -0.8885,-5.0008 -0.71261,-8.78338 0.55249,-1.07677 0.59375,0.28849 -0.0299,3.57955 -0.55249,1.07677 z m 8.11637,-4.58233 c 0.47756,-10.31531 3.95463,6.66489 0,0 z M 99.376592,565.61358 c -3.403522,-6.61565 3.212038,1.6722 0,0 l 0,0 z"
         style="fill:#702f24" />
      <path
         id="path2846"
         d="m 136.19856,752.89078 c -10.43052,-2.01124 -20.33217,-8.244 -25.59162,-17.58199 -12.714468,-32.56295 -24.118768,-65.61868 -36.596686,-98.27673 -8.96523,-0.53855 -16.570024,-4.26334 -21.837879,-11.61758 0.232194,-4.4478 -0.689379,-9.33728 0.217785,-13.52669 6.628795,-3.38834 1.944994,-10.93233 6.338921,-15.35503 5.590926,-7.52881 20.193948,-8.73225 17.381926,-20.24721 -0.954719,-8.68441 12.375976,-7.10893 10.881784,-14.31223 -1.179927,-6.36236 2.92977,-11.74937 7.931185,-14.80007 5.667264,-0.7957 15.535684,1.97942 12.936444,-7.12275 -1.22152,-4.82595 2.44266,-7.66991 5.74543,-10.51136 6.57186,-4.48022 18.18105,-4.75616 23.01489,2.76723 5.36287,3.49674 -0.3028,15.76566 8.01672,14.92524 5.0823,-1.10514 8.36766,4.77677 10.41528,8.39442 -1.01626,9.51735 1.46846,19.65617 13.08431,17.94775 13.70801,2.20465 25.69884,11.74569 31.96504,23.93278 1.40238,10.41038 -1.2231,20.33836 -2.09753,30.58558 -2.5693,32.91601 -4.06873,65.97438 -7.64411,98.77553 -5.99561,12.63865 -18.18383,22.178 -31.70478,25.62305 -7.21114,1.22851 -15.07805,0.33586 -22.45711,0.40006 z m 19.65307,-4.80416 c 16.14789,-3.51782 32.57907,-16.69542 31.89412,-34.58857 2.93822,-33.02656 4.50804,-66.17741 7.46567,-99.18971 4.47511,-12.3074 -2.68376,-25.643 -13.80339,-31.41246 -8.08103,-6.02354 -19.91775,-5.50773 -27.92959,-9.22606 -3.66193,-5.41951 -1.95235,-10.5298 -2.53239,-16.54001 -1.10902,-11.74349 -17.39328,-1.25856 -15.12665,-13.21595 1.42638,-12.11666 -13.60749,-18.36743 -21.97974,-10.18275 -7.81148,5.58354 4.0763,18.31838 -8.97772,16.62899 -11.506544,-4.33856 -18.385185,10.14643 -13.42171,18.66078 -11.934493,-2.50748 -13.914111,13.34403 -10.490894,18.55505 -8.642313,2.07434 -20.632032,7.64444 -21.445866,17.58915 0.919331,6.62458 -8.885178,12.96414 -1.87126,20.14889 5.578703,9.35467 22.293925,2.37271 22.570372,16.21333 11.605013,30.86144 22.272628,62.07332 34.547328,92.67118 8.13097,13.11731 26.84683,16.99497 41.10172,13.88814 z M 89.704583,630.74583 c -0.342332,-1.60536 1.39794,1.27495 0,0 z m 75.046557,0.0528 c 9.31956,-6.21738 21.59475,-12.78537 22.75141,-25.25178 -0.97528,-6.47153 0.32249,-7.10803 0.51921,-0.4685 0.0356,12.60843 -12.56673,20.28446 -22.44452,25.55396 l -0.8261,0.16632 0,0 z m 21.2621,-7.85324 c 0.24489,-6.73291 0.91322,-6.08377 0.31543,0.22955 -0.24984,4.14792 -0.52838,1.66572 -0.31543,-0.22955 z m -5.25634,-28.21741 c -7.79252,-7.88287 -18.98925,-10.30621 -29.58033,-11.68601 11.43582,-0.22371 24.39138,3.81008 31.3162,13.39671 l -0.54742,-0.51771 -1.18845,-1.19299 0,0 z m -64.79001,-17.29182 c -2.81516,-9.71063 4.8315,-0.22958 0,0 z"
         style="fill:#242021" />
    </g>
  </g>
</svg>
