<?xml version="1.0" encoding="UTF-8"?>
<!DOCTYPE svg PUBLIC "-//W3C//DTD SVG 1.1//EN" "http://www.w3.org/Graphics/SVG/1.1/DTD/svg11.dtd" [
  <!ENTITY fill_color "#FFFFFF">
  <!ENTITY stroke_color "#000000">
]>
<svg xmlns="http://www.w3.org/2000/svg" width="48" height="48">
  <path
     style="fill:&fill_color;;stroke:&stroke_color;;stroke-width:1.36845338"
     d="M 40.094301,32.008435 C 40.413304,29.702574 38.899071,28.976304 37.085493,28.829849 C 32.922285,28.538212 28.251905,27.732882 28.071743,29.640241 C 27.39195,32.232515 26.946602,33.908588 26.264691,38.158194 C 25.940329,39.950293 27.169568,45.159763 21.796042,45.520517 C 16.306301,45.889359 13.388216,43.029563 14.933359,40.282659 C 17.107267,36.51903 22.598864,38.915281 23.161215,37.507867 C 24.821315,33.23208 24.589495,28.312143 25.931533,23.948592 C 25.984164,23.777465 26.690842,23.604787 27.102177,23.563357 C 28.179123,23.373253 41.244373,24.152532 42.081095,24.547795 C 42.492429,24.506366 43.066078,24.865943 43.230542,24.981406 C 44.612877,25.951901 43.780301,30.030159 43.525912,30.890676 C 42.846115,33.482951 42.371874,35.147797 41.689962,39.397403 C 41.365599,41.189504 42.623735,46.410196 37.25021,46.77095 C 31.760467,47.13979 28.842382,44.279998 30.387525,41.533093 C 32.561435,37.769464 38.024135,40.15449 38.586485,38.747076 C 39.416536,36.609182 39.775296,34.314295 40.094301,32.008435 z" />
  <path
     style="fill:&fill_color;;stroke:&stroke_color;;stroke-width:1.22438991"
     d="M 18.822045,13.555257 C 15.926728,17.884089 14.255065,23.166768 11.102664,27.326433 C 10.050482,28.691835 5.9610333,24.842574 2.534992,28.334422 C 0.072398864,30.892836 1.6429089,34.629038 6.8006044,35.542356 C 11.849006,36.436636 12.708423,30.591026 13.690261,28.759219 C 15.938762,24.394696 16.996959,22.720711 18.609644,20.121112 C 19.171232,19.264999 20.204819,19.751699 21.584196,20.39673 C 23.286316,21.192684 28.53292,20.913431 28.652719,20.680684 C 28.762722,20.466969 24.465779,19.550145 23.136349,18.404626 C 22.363684,17.658093 21.500655,15.125286 20.608638,13.762583 C 20.396385,13.438332 19.049136,13.21573 18.822045,13.555257 z" />
  <path
     style="fill:&fill_color;;stroke:&stroke_color;;stroke-width:0.96382308"
     d="M 41.715593,7.929103 C 41.942476,6.3208197 40.86552,5.8142648 39.575664,5.7121145 C 36.614697,5.5087051 33.29302,4.9470061 33.164887,6.2773436 C 32.681399,8.0853937 32.36466,9.2544134 31.87967,12.218414 C 31.648976,13.468359 32.523237,17.101841 28.701469,17.353458 C 24.797043,17.610714 22.721637,15.616077 23.820576,13.700176 C 25.366709,11.075135 29.272452,12.746461 29.672409,11.764826 C 30.853109,8.782565 30.688233,5.351028 31.642722,2.307554 C 31.680153,2.1881975 32.182758,2.0677588 32.475307,2.0388624 C 33.241256,1.9062689 42.533549,2.449797 43.128645,2.725485 C 43.421195,2.696589 43.829188,2.9473849 43.946157,3.0279173 C 44.929305,3.7048152 44.337159,6.5493022 44.156231,7.1494923 C 43.672744,8.9575418 43.335454,10.118733 42.850463,13.082732 C 42.61977,14.33268 43.514583,17.973989 39.692813,18.225605 C 35.788388,18.482862 33.712979,16.488224 34.81192,14.572325 C 36.358053,11.947283 40.243246,13.610782 40.6432,12.629144 C 41.233552,11.138015 41.48871,9.5373838 41.715593,7.929103 z" />
</svg>
