<?xml version="1.0" encoding="utf-8"?>
<!-- Generator: Adobe Illustrator 15.0.1, SVG Export Plug-In . SVG Version: 6.00 Build 0)  -->
<!DOCTYPE svg PUBLIC "-//W3C//DTD SVG 1.1//EN" "http://www.w3.org/Graphics/SVG/1.1/DTD/svg11.dtd">
<svg version="1.1" id="Layer_1" xmlns="http://www.w3.org/2000/svg" xmlns:xlink="http://www.w3.org/1999/xlink" x="0px" y="0px"
	 width="50px" height="50px" viewBox="0 0 50 50" enable-background="new 0 0 50 50" xml:space="preserve">
<g>
	<path fill="#6D6D6D" d="M35.812,12.991c-1.551,0-3.072,0.226-4.531,0.671c-3.089-3.625-7.923-5.776-13.008-5.776
		c-10.244,0-18.269,8.127-18.269,18.502c0,9.341,6.973,16.12,16.582,16.12c3.494,0,6.85-0.961,9.73-2.784
		c2.365,1.656,5.221,2.527,8.279,2.527c8.786,0,15.409-6.653,15.409-15.48C50.003,18.915,43.902,12.991,35.812,12.991z
		 M34.594,39.206c-2.755,0-5.256-0.875-7.232-2.527l-0.927-0.774l-0.976,0.711c-2.561,1.861-5.629,2.849-8.875,2.849
		c-7.826,0-13.506-5.5-13.506-13.076c0-8.667,6.673-15.457,15.193-15.457c4.562,0,8.759,2.025,11.229,5.419l0.698,0.96l1.113-0.434
		c1.427-0.557,2.941-0.839,4.499-0.839c6.337,0,11.115,4.615,11.115,10.734C46.927,33.86,41.627,39.206,34.594,39.206z"/>
	<path fill="#6D6D6D" d="M35.653,18.953c-4.152,0-7.491,2.536-8.723,6.254H15.117l-0.57,2.91h10.075
		c-1.282,3.39-4.219,5.411-7.857,5.411c-4.284,0-7.051-2.812-7.051-7.163c0-5.327,3.846-9.5,8.756-9.5
		c3.163,0,5.536,1.459,6.681,4.111l0.142,0.329h3.5l-0.22-0.702c-1.236-3.978-5.248-6.648-9.984-6.648
		c-6.957,0-12.203,5.387-12.203,12.529c0,5.952,4.17,9.953,10.378,9.953c4.216,0,7.872-2.061,10.054-5.374
		c1.004,3.115,3.813,5.13,7.52,5.13c5.528,0,9.392-3.922,9.392-9.538C43.73,22.193,40.333,18.953,35.653,18.953z M34.458,33.284
		c-2.787,0-4.81-2.092-4.81-4.972c0-3.738,2.488-6.45,5.917-6.45c2.902,0,4.929,2.105,4.929,5.118
		C40.494,30.575,37.9,33.284,34.458,33.284z"/>
</g>
</svg>
