<?xml version="1.0" ?><!-- Created with Inkscape (http://www.inkscape.org/) --><!DOCTYPE svg  PUBLIC '-//W3C//DTD SVG 1.1//EN'  'http://www.w3.org/Graphics/SVG/1.1/DTD/svg11.dtd' [
	<!ENTITY stroke_color "#000000">
	<!ENTITY fill_color "#ffffff">
]><svg height="55" id="svg3020" inkscape:version="0.48.3.1 r9886" sodipodi:docname="icon-sri.svg" version="1.1" width="55" xmlns="http://www.w3.org/2000/svg" xmlns:cc="http://creativecommons.org/ns#" xmlns:dc="http://purl.org/dc/elements/1.1/" xmlns:inkscape="http://www.inkscape.org/namespaces/inkscape" xmlns:rdf="http://www.w3.org/1999/02/22-rdf-syntax-ns#" xmlns:sodipodi="http://sodipodi.sourceforge.net/DTD/sodipodi-0.dtd" xmlns:svg="http://www.w3.org/2000/svg">
  <metadata id="metadata3026">
    <rdf:RDF>
      <cc:Work rdf:about="">
        <dc:format>image/svg+xml</dc:format>
        <dc:type rdf:resource="http://purl.org/dc/dcmitype/StillImage"/>
        <dc:title/>
      </cc:Work>
    </rdf:RDF>
  </metadata>
  <defs id="defs3024"/>
  <sodipodi:namedview bordercolor="#666666" borderopacity="1" gridtolerance="10" guidetolerance="10" id="namedview3022" inkscape:current-layer="svg3020" inkscape:cx="23.869285" inkscape:cy="50.935686" inkscape:pageopacity="0" inkscape:pageshadow="2" inkscape:window-height="744" inkscape:window-maximized="1" inkscape:window-width="1366" inkscape:window-x="0" inkscape:window-y="24" inkscape:zoom="3.9824788" objecttolerance="10" pagecolor="#ffffff" showgrid="false"/>
  <path d="m 30.060952,51.425366 c 4.345878,-1.516787 9.553124,-2.289257 12.392164,-6.321895 3.12746,-5.210511 1.9381,-11.965134 -1.25719,-16.852699 -3.227,-5.41028 -5.866166,-11.151109 -9.166536,-16.515874 -2.006897,-3.034671 -4.357309,-6.0925555 -7.603371,-7.8473042 -1.657172,-0.8376447 -6.315791,0.1854279 -4.682966,2.431061 1.458231,0.328268 5.319205,0.1391963 3.973431,2.5988562 -1.547728,1.415933 -6.087445,-1.326292 -5.392684,2.194939 0.709192,3.154348 0.573581,6.403341 0.452952,9.607501 -0.06106,2.508348 -2.729049,4.08134 -2.112254,6.731635 0.187994,4.101731 -0.08261,8.233328 0.460799,12.322846 0.307755,2.60304 0.859961,5.189771 1.81184,7.637227 2.059487,1.696857 3.711166,3.988234 6.243191,5.035233 1.69328,0.09898 3.262294,-0.664114 4.880624,-1.021526 z" id="path3752" inkscape:connector-curvature="0" style="fill:&fill_color;;fill-opacity:1;stroke:&stroke_color;;stroke-width:2.09799999999999986;stroke-opacity:1;stroke-miterlimit:4;stroke-dasharray:none"/>
</svg>