<?xml version="1.0" encoding="UTF-8" standalone="no"?>
<!-- Generator: Adobe Illustrator 13.0.2, SVG Export Plug-In  -->
<svg
   xmlns:dc="http://purl.org/dc/elements/1.1/"
   xmlns:cc="http://creativecommons.org/ns#"
   xmlns:rdf="http://www.w3.org/1999/02/22-rdf-syntax-ns#"
   xmlns:svg="http://www.w3.org/2000/svg"
   xmlns="http://www.w3.org/2000/svg"
   xmlns:sodipodi="http://sodipodi.sourceforge.net/DTD/sodipodi-0.dtd"
   xmlns:inkscape="http://www.inkscape.org/namespaces/inkscape"
   version="1.1"
   x="0px"
   y="0px"
   width="44px"
   height="44px"
   viewBox="0 0 44 44"
   enable-background="new 0 0 44 44"
   xml:space="preserve"
   id="svg2"
   sodipodi:version="0.32"
   inkscape:version="0.46"
   sodipodi:docname="C_FC.svg"
   inkscape:output_extension="org.inkscape.output.svg.inkscape"><metadata
   id="metadata13"><rdf:RDF><cc:Work
       rdf:about=""><dc:format>image/svg+xml</dc:format><dc:type
         rdf:resource="http://purl.org/dc/dcmitype/StillImage" /></cc:Work></rdf:RDF></metadata><sodipodi:namedview
   inkscape:window-height="775"
   inkscape:window-width="1508"
   inkscape:pageshadow="2"
   inkscape:pageopacity="0.0"
   guidetolerance="10.0"
   gridtolerance="10.0"
   objecttolerance="10.0"
   borderopacity="1.0"
   bordercolor="#666666"
   pagecolor="#ffffff"
   id="base"
   showgrid="false"
   inkscape:zoom="10.5"
   inkscape:cx="22"
   inkscape:cy="22"
   inkscape:window-x="110"
   inkscape:window-y="37"
   inkscape:current-layer="svg2" />
<defs
   id="defs4"><inkscape:perspective
   sodipodi:type="inkscape:persp3d"
   inkscape:vp_x="0 : 22 : 1"
   inkscape:vp_y="0 : 1000 : 0"
   inkscape:vp_z="44 : 22 : 1"
   inkscape:persp3d-origin="22 : 14.666667 : 1"
   id="perspective15" />
</defs>
<polygon
   style="fill:#aaaaaa;fill-rule:evenodd;stroke:#000000;stroke-width:1;stroke-linejoin:round"
   id="polygon239_1_"
   points="33.061,37.678 34.857,39.584 32.25,39.852 30.991,42.15 29.934,39.754 27.357,39.268 29.311,37.52 28.977,34.92 31.242,36.236 33.611,35.115 33.061,37.678 "
   transform="translate(-9.1428571,-31.904761)" />


<polygon
   style="fill:#aaaaaa;fill-rule:evenodd;stroke:#000000;stroke-width:1;stroke-linejoin:round"
   id="polygon245_1_"
   points="24.55,39.879 26,40.852 24.346,41.41 23.867,43.091 22.825,41.689 21.079,41.755 22.089,40.329 21.489,38.689 23.156,39.211 24.529,38.133 24.55,39.879 "
   transform="translate(0.8571429,-2.2857143)" />


<polygon
   style="fill:#aaaaaa;fill-rule:evenodd;stroke:#000000;stroke-width:1;stroke-linejoin:round"
   id="polygon2388"
   points="33.061,37.678 34.857,39.584 32.25,39.852 30.991,42.15 29.934,39.754 27.357,39.268 29.311,37.52 28.977,34.92 31.242,36.236 33.611,35.115 33.061,37.678 "
   transform="translate(-24.059381,-26.630237)" /><polygon
   style="fill:#aaaaaa;fill-rule:evenodd;stroke:#000000;stroke-width:1;stroke-linejoin:round"
   id="polygon2390"
   points="24.55,39.879 26,40.852 24.346,41.41 23.867,43.091 22.825,41.689 21.079,41.755 22.089,40.329 21.489,38.689 23.156,39.211 24.529,38.133 24.55,39.879 "
   transform="translate(-15.729977,-9.4691425)" /><polygon
   style="fill:#aaaaaa;fill-rule:evenodd;stroke:#000000;stroke-width:1;stroke-linejoin:round"
   id="polygon2392"
   points="24.55,39.879 26,40.852 24.346,41.41 23.867,43.091 22.825,41.689 21.079,41.755 22.089,40.329 21.489,38.689 23.156,39.211 24.529,38.133 24.55,39.879 "
   transform="translate(14.555738,-23.850095)" /><polygon
   style="fill:#aaaaaa;fill-rule:evenodd;stroke:#000000;stroke-width:1;stroke-linejoin:round"
   id="polygon2394"
   points="33.061,37.678 34.857,39.584 32.25,39.852 30.991,42.15 29.934,39.754 27.357,39.268 29.311,37.52 28.977,34.92 31.242,36.236 33.611,35.115 33.061,37.678 "
   transform="translate(-7.868905,-16.820714)" /><path
   style="fill:none;fill-rule:evenodd;stroke:#000000;stroke-width:1px;stroke-linecap:butt;stroke-linejoin:miter;stroke-opacity:1"
   d="M 6.542215,16.622298 L 6.6958803,26.806273"
   id="path3174" /><path
   style="fill:none;fill-rule:evenodd;stroke:#000000;stroke-width:1px;stroke-linecap:butt;stroke-linejoin:miter;stroke-opacity:1"
   d="M 10.190476,33.142857 L 20.761905,37.52381"
   id="path3182" /><polygon
   style="fill:#aaaaaa;fill-rule:evenodd;stroke:#000000;stroke-width:1;stroke-linejoin:round"
   id="polygon3184"
   points="33.061,37.678 34.857,39.584 32.25,39.852 30.991,42.15 29.934,39.754 27.357,39.268 29.311,37.52 28.977,34.92 31.242,36.236 33.611,35.115 33.061,37.678 "
   transform="translate(6.5120481,-4.2492857)" /><path
   style="fill:none;fill-rule:evenodd;stroke:#000000;stroke-width:1px;stroke-linecap:butt;stroke-linejoin:miter;stroke-opacity:1"
   d="M 27.238095,36.952381 L 32.761905,35.428572"
   id="path3186" /><path
   style="fill:none;fill-rule:evenodd;stroke:#000000;stroke-width:1px;stroke-linecap:butt;stroke-linejoin:miter;stroke-opacity:1"
   d="M 37.955841,20.730447 L 37.758445,29.174315"
   id="path3188" /><path
   style="fill:none;fill-rule:evenodd;stroke:#000000;stroke-width:1px;stroke-linecap:butt;stroke-linejoin:miter;stroke-opacity:1"
   d="M 11.238095,9.9047617 L 16.666667,7.7142857"
   id="path3190" /><path
   style="fill:none;fill-rule:evenodd;stroke:#000000;stroke-width:1px;stroke-linecap:butt;stroke-linejoin:miter;stroke-opacity:1"
   d="M 27.047619,8.2857147 L 35.142857,13.714286"
   id="path3192" /><path
   style="fill:none;fill-rule:evenodd;stroke:#000000;stroke-width:1px;stroke-linecap:butt;stroke-linejoin:miter;stroke-opacity:1"
   d="M 9.2380953,14.095238 L 19.52381,20.476191"
   id="path3194" /><path
   style="fill:none;fill-rule:evenodd;stroke:#000000;stroke-width:1px;stroke-linecap:butt;stroke-linejoin:miter;stroke-opacity:1"
   d="M 26.857143,20.666667 L 34.380953,18.095238"
   id="path3196" /><path
   style="fill:none;fill-rule:evenodd;stroke:#000000;stroke-width:1px;stroke-linecap:butt;stroke-linejoin:miter;stroke-opacity:1"
   d="M 23.238096,26.857143 L 23.333334,33.904762"
   id="path3198" /></svg>