<?xml version="1.0" encoding="UTF-8" standalone="no"?>
<!-- Generator: Adobe Illustrator 12.0.1, SVG Export Plug-In . SVG Version: 6.00 Build 51448)  -->

<svg
   xmlns:dc="http://purl.org/dc/elements/1.1/"
   xmlns:cc="http://creativecommons.org/ns#"
   xmlns:rdf="http://www.w3.org/1999/02/22-rdf-syntax-ns#"
   xmlns:svg="http://www.w3.org/2000/svg"
   xmlns="http://www.w3.org/2000/svg"
   xmlns:sodipodi="http://sodipodi.sourceforge.net/DTD/sodipodi-0.dtd"
   xmlns:inkscape="http://www.inkscape.org/namespaces/inkscape"
   enable-background="new 0 0 50.878 48.833"
   height="48.833"
   id="Icon"
   inkscape:version="0.47pre4 r22446"
   overflow="visible"
   sodipodi:docname="CucaraSims.svg"
   version="1.1"
   viewBox="0 0 50.878 48.833"
   width="50.878"
   xml:space="preserve"><metadata
   id="metadata17"><rdf:RDF><cc:Work
       rdf:about=""><dc:format>image/svg+xml</dc:format><dc:type
         rdf:resource="http://purl.org/dc/dcmitype/StillImage" /><dc:title /></cc:Work></rdf:RDF></metadata><defs
   id="defs15"><inkscape:perspective
     id="perspective19"
     inkscape:persp3d-origin="25.438999 : 16.277667 : 1"
     inkscape:vp_x="0 : 24.4165 : 1"
     inkscape:vp_y="0 : 1000 : 0"
     inkscape:vp_z="50.877998 : 24.4165 : 1"
     sodipodi:type="inkscape:persp3d" /><inkscape:perspective
     id="perspective2841"
     inkscape:persp3d-origin="0.5 : 0.33333333 : 1"
     inkscape:vp_x="0 : 0.5 : 1"
     inkscape:vp_y="0 : 1000 : 0"
     inkscape:vp_z="1 : 0.5 : 1"
     sodipodi:type="inkscape:persp3d" /><inkscape:perspective
     id="perspective2993"
     inkscape:persp3d-origin="0.5 : 0.33333333 : 1"
     inkscape:vp_x="0 : 0.5 : 1"
     inkscape:vp_y="0 : 1000 : 0"
     inkscape:vp_z="1 : 0.5 : 1"
     sodipodi:type="inkscape:persp3d" /></defs><sodipodi:namedview
   bordercolor="#666666"
   borderopacity="1"
   gridtolerance="10"
   guidetolerance="10"
   id="namedview13"
   inkscape:current-layer="Icon"
   inkscape:cx="-27.381568"
   inkscape:cy="35.606862"
   inkscape:pageopacity="0"
   inkscape:pageshadow="2"
   inkscape:window-height="690"
   inkscape:window-maximized="1"
   inkscape:window-width="1366"
   inkscape:window-x="0"
   inkscape:window-y="0"
   inkscape:zoom="4.8327975"
   objecttolerance="10"
   pagecolor="#ffffff"
   showgrid="false" />







<path
   d="m 22.242858,18.206438 -2.491466,0.34825 -0.02408,-0.04819 -0.444574,0.168574 -0.453831,0.129687 0.02034,0.03517 -2.115437,0.803935 -1.137364,0.657603 -1.198503,1.018815 -0.120396,0.657598 0.600177,0.600177 -0.957688,0.477917 -1.737547,0.359365 -3.9511519,0.300087 -3.2342782,0.477914 -4.1308275,1.018817 0.5983174,0.300089 3.591786,-0.779857 4.6717362,-0.598326 1.437461,-0.05929 -3.4139627,1.556009 -4.3105229,2.276589 0.1796824,0.118554 6.7649342,-3.232424 2.934186,-0.95769 1.496735,0.05928 -1.676417,1.617136 0,0.179681 -1.794966,0.896558 -2.395137,0.479776 -1.7375528,1.317051 0.359366,0.898411 0,-0.718736 1.0780883,-0.778001 1.3763325,-0.120412 0.779854,-0.17968 0.657603,-0.05929 2.096908,-1.437452 0.477917,-0.179685 1.557866,-1.257772 0,0.600175 -1.378179,1.078087 0.418632,0.179684 -0.179682,0.418639 1.018815,2.035784 0.778008,1.617137 0.300085,-0.659453 -0.659452,-1.257777 -1.016959,-1.617138 1.496734,-0.957681 0.957683,0.898408 1.137367,0.479771 1.137368,-0.06114 0.359365,-0.298237 -0.17968,-0.778005 0.479772,-1.018813 2.274744,1.137367 1.215167,0.25378 1.300378,1.124398 -0.598317,0.657604 -0.600177,1.557863 0.300079,0.298233 0.05929,1.078093 1.078101,4.610602 0.598317,-0.05926 0,-0.957691 -0.477914,-1.37818 -0.120397,-1.496733 -0.179682,-1.735693 0.24081,-0.179681 0.657603,-0.300089 0.659453,-0.65945 -0.06114,-0.837284 0.300094,-0.598322 0.777999,-1.378181 0.479778,0.179684 1.13736,0.300086 0.659454,-0.240813 0.957689,0.718734 0.837281,0.06114 1.617141,-0.47977 1.198498,-0.837282 1.794971,-1.318906 1.378176,-0.118555 1.078084,1.078096 0.837283,0.957686 0.778007,0.418643 0.300091,0 2.335863,0.778002 0.359367,-0.418641 1.435597,0.05929 0.06115,1.018812 0.477915,-1.018812 -0.598326,-0.47792 -1.735691,0.238958 -2.096905,-0.837283 -1.016964,-1.557864 -1.557864,-1.376323 1.078094,-1.018819 1.257777,1.437462 2.156184,1.437451 0.372326,-0.620548 -0.192648,1.1596 0.778008,0.179681 0.898405,0.35936 0.657604,0.537195 0.120412,1.257777 0.359371,-1.257777 1.018806,0.53905 3.17315,-0.05929 0,-0.598323 -1.018812,-0.12038 -0.539048,-0.238958 -1.196642,-0.05929 -1.737552,-0.959538 0.4205,-0.477913 0.539044,-0.600182 -0.839134,0.300096 -0.418641,0.479768 -0.83913,-0.718734 0.598319,-1.078091 -0.657595,0.120396 -0.939167,0.552015 -2.773026,-1.809792 -1.018824,-0.777999 1.137372,-1.917228 -1.556009,1.676416 -0.839133,0.120382 -1.317045,0.539048 -0.657603,-0.479778 -2.995319,-1.257769 -4.790292,-1.196646 -3.712194,-0.539045 -2.693378,-0.179682 z"
   id="path2872"
   inkscape:export-filename="/home/flavio3/Escritorio/logo.png"
   inkscape:export-xdpi="25"
   inkscape:export-ydpi="25"
   style="fill:#000000;fill-opacity:1;stroke:none" />
</svg>