<?xml version="1.0" ?><!DOCTYPE svg  PUBLIC '-//W3C//DTD SVG 1.1//EN'  'http://www.w3.org/Graphics/SVG/1.1/DTD/svg11.dtd' [
	<!ENTITY stroke_color "#000">
	<!ENTITY fill_color "#eee">
]>
<svg
   xmlns:dc="http://purl.org/dc/elements/1.1/"
   xmlns:cc="http://creativecommons.org/ns#"
   xmlns:rdf="http://www.w3.org/1999/02/22-rdf-syntax-ns#"
   xmlns:svg="http://www.w3.org/2000/svg"
   xmlns="http://www.w3.org/2000/svg"
   version="1.1"
   width="55"
   height="55"
   viewBox="0 0 55 55"
   id="svg3051">
  <metadata
     id="metadata3069">
    <rdf:RDF>
      <cc:Work
         rdf:about="">
        <dc:format>image/svg+xml</dc:format>
        <dc:type
           rdf:resource="http://purl.org/dc/dcmitype/StillImage" />
        <dc:title></dc:title>
      </cc:Work>
    </rdf:RDF>
  </metadata>
  <g
     id="g3787">
    <path
       d="m 27.904,11.023 -0.002,0 c 0,-0.002 -1.71,-2.053 -9.376,-2.504 C 10.86,8.07 6.843,10.121 6.84,10.122 4.942,10.741 3.345,11.857 3.345,13.616 l 0,27.702 c 0,2.025 1.235,3.494 3.495,3.494 0.003,0 4.41,-1.35 10.004,-1.35 5.589,-0.001 11.061,2.253 11.061,2.253"
       id="path3053"
       style="fill:&fill_color;;stroke:&stroke_color;;stroke-width:3.5;stroke-linecap:round;stroke-linejoin:round" />
    <path
       d="m 27.898,11.023 0,0 c 0,-0.002 1.715,-2.053 9.377,-2.504 7.668,-0.449 11.686,1.602 11.688,1.603 1.897,0.619 3.494,1.735 3.494,3.494 l 0,27.702 c 0,2.025 -1.233,3.494 -3.494,3.494 -0.003,0 -4.409,-1.35 -10.004,-1.35 -5.589,-0.001 -11.062,2.253 -11.062,2.253"
       id="path3055"
       style="fill:&fill_color;;stroke:&stroke_color;;stroke-width:3.5;stroke-linecap:round;stroke-linejoin:round" />
  </g>
  <path
     d="m 38.342545,29.719034 c 0,0.06481 -0.02479,0.123319 -0.07247,0.177052 -0.04962,0.05221 -0.10108,0.07906 -0.16024,0.07906 -0.474902,0.03796 -0.865859,0.164455 -1.167212,0.381036 -0.30324,0.215017 -0.61413,0.627676 -0.936442,1.234763 l -4.920633,9.192045 c -0.03238,0.08535 -0.12204,0.128055 -0.270803,0.128055 -0.116329,0 -0.205985,-0.0427 -0.270804,-0.128055 l -2.759757,-4.784152 -3.173613,4.784152 c -0.06487,0.08535 -0.154475,0.128055 -0.270856,0.128055 -0.141113,0 -0.234543,-0.0427 -0.28034,-0.128055 l -4.834801,-9.192045 c -0.301354,-0.570729 -0.619841,-0.969141 -0.955517,-1.195235 -0.333763,-0.226093 -0.801035,-0.366789 -1.397993,-0.420564 -0.05149,0 -0.10108,-0.02211 -0.144949,-0.06798 -0.04577,-0.04426 -0.06866,-0.09643 -0.06866,-0.154943 0,-0.150165 0.05149,-0.224487 0.154486,-0.224487 0.431033,0 0.881134,0.01581 1.352216,0.04743 0.43675,0.03319 0.84872,0.049 1.233965,0.049 0.392896,0 0.856323,-0.01581 1.390385,-0.049 0.558795,-0.03162 1.054657,-0.04743 1.485701,-0.04743 0.103018,0 0.154475,0.07432 0.154475,0.224487 0,0.148644 -0.03238,0.222923 -0.09537,0.222923 -0.430991,0.02689 -0.770491,0.118585 -1.018449,0.271964 -0.247905,0.154943 -0.371883,0.357276 -0.371883,0.608693 0,0.128055 0.05151,0.287732 0.154475,0.479033 l 3.995614,7.479771 2.267719,-3.550953 -2.113244,-3.672709 c -0.379534,-0.654521 -0.69231,-1.078256 -0.936442,-1.267949 -0.24408,-0.188173 -0.614077,-0.305151 -1.109992,-0.34785 -0.04574,0 -0.08772,-0.02211 -0.12969,-0.06798 -0.04197,-0.04426 -0.06293,-0.09643 -0.06293,-0.154943 0,-0.150165 0.04386,-0.224487 0.135403,-0.224487 0.431043,0 0.825825,0.01581 1.186286,0.04743 0.34715,0.03319 0.717147,0.049 1.110043,0.049 0.385246,0 0.793391,-0.01581 1.224434,-0.049 0.444353,-0.03162 0.881107,-0.04743 1.312151,-0.04743 0.102966,0 0.154476,0.07432 0.154476,0.224487 0,0.148644 -0.0305,0.222923 -0.09537,0.222923 -0.862034,0.04904 -1.293077,0.251374 -1.293077,0.608694 0,0.159677 0.09919,0.407924 0.299414,0.74309 l 1.397982,2.352547 1.390385,-2.151777 c 0.192623,-0.303544 0.289877,-0.559654 0.289877,-0.768372 0,-0.490108 -0.430991,-0.750953 -1.293077,-0.784182 -0.07818,0 -0.116328,-0.07428 -0.116328,-0.222923 0,-0.05373 0.01907,-0.104337 0.05722,-0.151772 0.04004,-0.049 0.07818,-0.07271 0.116328,-0.07271 0.308951,0 0.688485,0.01581 1.138602,0.04743 0.431043,0.03319 0.785792,0.049 1.062308,0.049 0.198386,0 0.492089,-0.01421 0.877335,-0.0411 0.488264,-0.03635 0.898294,-0.05534 1.226372,-0.05534 0.07624,0 0.114389,0.06325 0.114389,0.1913 0,0.170754 -0.07053,0.256109 -0.211696,0.256109 -0.501574,0.0427 -0.905893,0.158114 -1.211071,0.344679 -0.305179,0.186566 -0.686599,0.610257 -1.142428,1.27112 l -1.853811,2.841093 2.509913,4.238703 3.705736,-7.143041 c 0.127751,-0.260844 0.192622,-0.501142 0.192622,-0.71933 0,-0.523338 -0.431043,-0.799994 -1.293129,-0.833224 -0.07818,0 -0.116328,-0.07428 -0.116328,-0.222923 0,-0.150164 0.05722,-0.224486 0.173549,-0.224486 0.314715,0 0.688537,0.01581 1.119528,0.04743 0.398608,0.03319 0.734283,0.049 1.0032,0.049 0.284218,0 0.612244,-0.01581 0.984127,-0.049 0.387184,-0.03162 0.734283,-0.04743 1.043286,-0.04743 0.0896,0 0.135402,0.06325 0.135402,0.1913 z"
     id="path3061"
     style="fill:&stroke_color;;stroke:none" />
  <text
     x="7.0116453"
     y="21.294743"
     transform="scale(0.83040932,1.1042254)"
     id="text3841-9"
     xml:space="preserve"
     style="font-size:13.49201965px;font-style:normal;font-weight:bold;line-height:125%;letter-spacing:0px;word-spacing:0px;fill:&stroke_color;;fill-opacity:1;stroke:none;font-family:Bitstream Vera Sans;-inkscape-font-specification:Bitstream Vera Sans Bold"><tspan
       x="7.0116453"
       y="21.294743"
       id="tspan3843-6">Simple</tspan></text>
  <path
     d="m 50.74074,42.314816 a 10.555555,10.092592 0 1 1 -21.111111,0 10.555555,10.092592 0 1 1 21.111111,0 z"
     transform="translate(1.1623333,0.20291499)"
     id="path3071"
     style="fill:#ffffff;fill-opacity:1;stroke:&stroke_color;;stroke-width:3;stroke-linecap:round;stroke-linejoin:round;stroke-miterlimit:4;stroke-opacity:1;stroke-dasharray:none" />
  <text
     x="33.744976"
     y="46.162754"
     id="text3841"
     xml:space="preserve"
     style="font-size:10px;font-style:normal;font-weight:bold;line-height:125%;letter-spacing:0px;word-spacing:0px;fill:&stroke_color;;fill-opacity:1;stroke:none;font-family:Bitstream Vera Sans;-inkscape-font-specification:Bitstream Vera Sans Bold"><tspan
       x="33.744976"
       y="46.162754"
       id="tspan3843">EN</tspan></text>
</svg>
