<?xml version="1.0" encoding="utf-8"?>
<!-- Generator: Adobe Illustrator 12.0.1, SVG Export Plug-In . SVG Version: 6.00 Build 51448)  -->
<!DOCTYPE svg PUBLIC "-//W3C//DTD SVG 1.1//EN" "http://www.w3.org/Graphics/SVG/1.1/DTD/svg11.dtd" [
	<!ENTITY ns_flows "http://ns.adobe.com/Flows/1.0/">
	<!ENTITY ns_extend "http://ns.adobe.com/Extensibility/1.0/">
	<!ENTITY ns_ai "http://ns.adobe.com/AdobeIllustrator/10.0/">
	<!ENTITY ns_graphs "http://ns.adobe.com/Graphs/1.0/">
	<!ENTITY ns_vars "http://ns.adobe.com/Variables/1.0/">
	<!ENTITY ns_imrep "http://ns.adobe.com/ImageReplacement/1.0/">
	<!ENTITY ns_sfw "http://ns.adobe.com/SaveForWeb/1.0/">
	<!ENTITY ns_custom "http://ns.adobe.com/GenericCustomNamespace/1.0/">
	<!ENTITY ns_adobe_xpath "http://ns.adobe.com/XPath/1.0/">
	<!ENTITY ns_svg "http://www.w3.org/2000/svg">
	<!ENTITY ns_xlink "http://www.w3.org/1999/xlink">
	<!ENTITY stroke_color "#000000">
	<!ENTITY fill_color "#AAAAAA">
]>
<svg  version="1.1"
	 xmlns:x="&ns_extend;" xmlns:i="&ns_ai;" xmlns:graph="&ns_graphs;" i:viewOrigin="-2.1357 52" i:rulerOrigin="0 0" i:pageBounds="0 50 50 0"
	 xmlns="&ns_svg;" xmlns:xlink="&ns_xlink;" xmlns:a="http://ns.adobe.com/AdobeSVGViewerExtensions/3.0/"
	 width="54.136" height="54" viewBox="0 0 54.136 54" overflow="visible" enable-background="new 0 0 54.136 54"
	 xml:space="preserve">
<metadata>
	<variableSets  xmlns="http://ns.adobe.com/Variables/1.0/">
		<variableSet  varSetName="binding1" locked="none">
			<variables></variables>
			<v:sampleDataSets  xmlns:v="http://ns.adobe.com/Variables/1.0/" xmlns="http://ns.adobe.com/GenericCustomNamespace/1.0/">
				</v:sampleDataSets>
		</variableSet>
	</variableSets>
</metadata>
<g id="Layer_1" i:knockout="Off" i:layer="yes" i:dimmedPercent="50" i:rgbTrio="#4F008000FFFF">
	<circle fill="none" stroke="&stroke_color;" stroke-width="4.5" cx="27.137" cy="27" r="22.311"/>
	<circle i:knockout="Off" fill="&fill_color;" cx="27.136" cy="27" r="20.701"/>
	<circle fill="&stroke_color;" cx="11.052" cy="26.751" r="2.051"/>
	<circle fill="&stroke_color;" cx="16.329" cy="26.751" r="2.051"/>
	<circle fill="&stroke_color;" cx="21.608" cy="26.751" r="2.05"/>
	<circle fill="&stroke_color;" cx="26.886" cy="26.751" r="2.05"/>
	<circle fill="&stroke_color;" cx="32.163" cy="26.751" r="2.051"/>
	<circle fill="&stroke_color;" cx="37.442" cy="26.751" r="2.05"/>
	<circle fill="&stroke_color;" cx="42.721" cy="26.751" r="2.05"/>
	<circle fill="&stroke_color;" cx="11.052" cy="31.991" r="2.051"/>
	<circle fill="&stroke_color;" cx="16.329" cy="31.991" r="2.051"/>
	<circle fill="&stroke_color;" cx="21.608" cy="31.991" r="2.05"/>
	<circle fill="&stroke_color;" cx="26.886" cy="31.991" r="2.05"/>
	<circle fill="&stroke_color;" cx="32.163" cy="31.991" r="2.051"/>
	<circle fill="&stroke_color;" cx="37.442" cy="31.991" r="2.05"/>
	<circle fill="&stroke_color;" cx="42.721" cy="31.991" r="2.05"/>
	<circle fill="&stroke_color;" cx="11.052" cy="21.511" r="2.051"/>
	<circle fill="&stroke_color;" cx="16.329" cy="21.511" r="2.051"/>
	<circle fill="&stroke_color;" cx="21.608" cy="21.511" r="2.05"/>
	<circle fill="&stroke_color;" cx="26.886" cy="21.511" r="2.05"/>
	<circle fill="&stroke_color;" cx="32.163" cy="21.511" r="2.051"/>
	<circle fill="&stroke_color;" cx="37.442" cy="21.511" r="2.05"/>
	<circle fill="&stroke_color;" cx="42.721" cy="21.511" r="2.05"/>
	<circle fill="&stroke_color;" cx="21.608" cy="16.271" r="2.05"/>
	<circle fill="&stroke_color;" cx="26.886" cy="16.271" r="2.05"/>
	<circle fill="&stroke_color;" cx="32.163" cy="16.271" r="2.051"/>
	<circle fill="&stroke_color;" cx="21.608" cy="37.23" r="2.05"/>
	<circle fill="&stroke_color;" cx="26.886" cy="37.23" r="2.05"/>
	<circle fill="&stroke_color;" cx="32.163" cy="37.23" r="2.051"/>
	<circle fill="&stroke_color;" cx="21.608" cy="42.471" r="2.05"/>
	<circle fill="&stroke_color;" cx="26.886" cy="42.471" r="2.05"/>
	<circle fill="&stroke_color;" cx="32.163" cy="42.471" r="2.051"/>
	<circle fill="&stroke_color;" cx="21.608" cy="11.03" r="2.05"/>
	<circle fill="&stroke_color;" cx="26.886" cy="11.03" r="2.05"/>
	<circle fill="&stroke_color;" cx="32.163" cy="11.03" r="2.051"/>
</g>
</svg>
