<?xml version="1.0" encoding="UTF-8" standalone="no"?>
<svg
   xmlns:dc="http://purl.org/dc/elements/1.1/"
   xmlns:cc="http://creativecommons.org/ns#"
   xmlns:rdf="http://www.w3.org/1999/02/22-rdf-syntax-ns#"
   xmlns:svg="http://www.w3.org/2000/svg"
   xmlns="http://www.w3.org/2000/svg"
   xmlns:sodipodi="http://sodipodi.sourceforge.net/DTD/sodipodi-0.dtd"
   xmlns:inkscape="http://www.inkscape.org/namespaces/inkscape"
   height="55px"
   viewBox="0 0 55 55"
   width="55px"
   id="svg2874"
   version="1.1"
   inkscape:version="0.47 r22583"
   sodipodi:docname="icon.svg">
  <metadata
     id="metadata2886">
    <rdf:RDF>
      <cc:Work
         rdf:about="">
        <dc:format>image/svg+xml</dc:format>
        <dc:type
           rdf:resource="http://purl.org/dc/dcmitype/StillImage" />
      </cc:Work>
    </rdf:RDF>
  </metadata>
  <defs
     id="defs2884">
    <inkscape:perspective
       sodipodi:type="inkscape:persp3d"
       inkscape:vp_x="0 : 27.5 : 1"
       inkscape:vp_y="0 : 1000 : 0"
       inkscape:vp_z="55 : 27.5 : 1"
       inkscape:persp3d-origin="27.5 : 18.333333 : 1"
       id="perspective2888" />
  </defs>
  <sodipodi:namedview
     pagecolor="#ffffff"
     bordercolor="#666666"
     borderopacity="1"
     objecttolerance="10"
     gridtolerance="10"
     guidetolerance="10"
     inkscape:pageopacity="0"
     inkscape:pageshadow="2"
     inkscape:window-width="1200"
     inkscape:window-height="810"
     id="namedview2882"
     showgrid="false"
     inkscape:zoom="4.2909091"
     inkscape:cx="27.5"
     inkscape:cy="27.5"
     inkscape:window-x="0"
     inkscape:window-y="30"
     inkscape:window-maximized="1"
     inkscape:current-layer="svg2874" />
  <g
     id="g2876"
     transform="translate(0.69915254,-0.46610169)">
    <path
       d="m 50,27.625 c 0,12.3431 -10.1569,22.5 -22.5,22.5 C 15.1569,50.125 5,39.9681 5,27.625 5,15.2819 15.1569,5.125 27.5,5.125 c 12.3431,0 22.5,10.1569 22.5,22.5 z"
       id="path2878"
       style="fill:#eeeeee;stroke:#000000;stroke-width:3.5;stroke-linecap:round;stroke-linejoin:round" />
    <path
       d="m 23.956,27.167 c 0,-1.621 1.8,-1.89 3.645,-2.386 1.8,-0.495 3.6,-1.215 3.6,-3.825 0,-1.98 -1.845,-3.42 -3.734,-3.42 -3.78,0 -4.365,4.455 -7.246,4.455 -1.62,0 -2.745,-1.26 -2.745,-3.24 0,-4.726 5.94,-7.425 9.991,-7.425 5.806,0 10.756,3.6 10.756,9.631 0,4.995 -3.15,7.921 -7.785,9.091 l 0,1.619 c 0,1.801 -1.351,3.105 -3.241,3.105 -2.025,0 -3.24,-1.305 -3.24,-3.105 l 0,-4.5 z m -0.27,13.77 c 0,-1.935 1.575,-3.51 3.51,-3.51 1.936,0 3.51,1.575 3.51,3.51 0,1.936 -1.574,3.512 -3.51,3.512 -1.935,-10e-4 -3.51,-1.577 -3.51,-3.512 z"
       id="path2880"
       style="fill:#000000;stroke:none" />
  </g>
  <flowRoot
     xml:space="preserve"
     id="flowRoot2890"
     style="font-size:8px;font-style:normal;font-weight:normal;fill:#000000;fill-opacity:1;stroke:none;font-family:Bitstream Vera Sans"
     transform="translate(1.1652542,0)"><flowRegion
       id="flowRegion2892"><rect
         id="rect2894"
         width="9.3220339"
         height="9.7881355"
         x="0"
         y="0.23305085" /></flowRegion><flowPara
       id="flowPara2896"
       style="-inkscape-font-specification:Abyssinica SIL;font-family:Abyssinica SIL">S</flowPara></flowRoot>  <flowRoot
     xml:space="preserve"
     id="flowRoot2898"
     style="font-size:8px;font-style:normal;font-weight:normal;fill:#000000;fill-opacity:1;stroke:none;font-family:Bitstream Vera Sans"
     transform="translate(3.4957627,0.23305085)"><flowRegion
       id="flowRegion2900"><rect
         id="rect2902"
         width="10.720339"
         height="9.5550852"
         x="44.745762"
         y="45.677967" /></flowRegion><flowPara
       id="flowPara2904"
       style="-inkscape-font-specification:Abyssinica SIL;font-family:Abyssinica SIL">H</flowPara></flowRoot></svg>
