<?xml version="1.0" standalone="no"?>
<!DOCTYPE svg PUBLIC "-//W3C//DTD SVG 20010904//EN"
 "http://www.w3.org/TR/2001/REC-SVG-20010904/DTD/svg10.dtd">
<svg version="1.0" xmlns="http://www.w3.org/2000/svg"
 width="128.000000pt" height="128.000000pt" viewBox="0 0 128.000000 128.000000"
 preserveAspectRatio="xMidYMid meet">
<metadata>
Created by potrace 1.10, written by Peter Selinger 2001-2011
</metadata>
<g transform="translate(0.000000,128.000000) scale(0.100000,-0.100000)"
fill="#000000" stroke="none">
<path d="M491 1185 c-80 -23 -183 -81 -240 -135 -305 -293 -204 -784 194 -941
52 -20 77 -23 190 -23 150 0 201 14 318 91 114 76 191 187 228 331 24 95 24
169 0 264 -48 188 -170 326 -347 394 -87 34 -257 43 -343 19z m262 -70 c63
-16 138 -53 177 -86 l24 -21 -24 -19 c-38 -30 -97 -59 -125 -61 -22 -2 -24 -5
-19 -39 7 -41 -15 -92 -45 -109 -39 -20 -91 -12 -123 20 -26 26 -30 36 -26 74
1 24 1 43 -2 41 -3 -1 -40 2 -83 6 -64 7 -88 16 -134 45 l-55 35 21 23 c81 86
273 128 414 91z m-73 -382 c0 -23 72 -29 139 -12 8 3 21 -13 31 -38 l19 -42
-57 -21 c-39 -15 -71 -20 -100 -17 -47 5 -66 -7 -26 -17 52 -13 197 -177 181
-203 -3 -4 -22 -17 -41 -27 l-36 -19 -35 40 c-19 22 -59 53 -89 69 l-55 29
-36 -42 c-40 -47 -83 -76 -144 -98 l-42 -15 -13 33 c-31 73 -30 74 16 95 75
33 128 103 128 171 0 37 27 97 57 126 33 32 34 32 68 17 19 -9 35 -22 35 -29z"/>
</g>
</svg>
