<?xml version="1.0" encoding="utf-8"?>
<!-- Generator: Adobe Illustrator 10, SVG Export Plug-In . SVG Version: 3.0.0 Build 76)  -->
<!DOCTYPE svg PUBLIC "-//W3C//DTD SVG 1.0//EN"    "http://www.w3.org/TR/2001/REC-SVG-20010904/DTD/svg10.dtd" [
	<!ENTITY ns_flows "http://ns.adobe.com/Flows/1.0/">
	<!ENTITY ns_extend "http://ns.adobe.com/Extensibility/1.0/">
	<!ENTITY ns_ai "http://ns.adobe.com/AdobeIllustrator/10.0/">
	<!ENTITY ns_graphs "http://ns.adobe.com/Graphs/1.0/">
	<!ENTITY ns_vars "http://ns.adobe.com/Variables/1.0/">
	<!ENTITY ns_imrep "http://ns.adobe.com/ImageReplacement/1.0/">
	<!ENTITY ns_sfw "http://ns.adobe.com/SaveForWeb/1.0/">
	<!ENTITY ns_custom "http://ns.adobe.com/GenericCustomNamespace/1.0/">
	<!ENTITY ns_adobe_xpath "http://ns.adobe.com/XPath/1.0/">
	<!ENTITY ns_svg "http://www.w3.org/2000/svg">
	<!ENTITY ns_xlink "http://www.w3.org/1999/xlink">
	<!ENTITY stroke_color "#666666">
    <!ENTITY fill_color "#CCCCCC">
]>
<svg 
	 xmlns:x="&ns_extend;" xmlns:i="&ns_ai;" xmlns:graph="&ns_graphs;" i:viewOrigin="254.2856 419.2651" i:rulerOrigin="0 0" i:pageBounds="0 792 612 0"
	 xmlns="&ns_svg;" xmlns:xlink="&ns_xlink;" xmlns:a="http://ns.adobe.com/AdobeSVGViewerExtensions/3.0/"
	 width="48.758" height="48.736" viewBox="0 0 48.758 48.736" overflow="visible" enable-background="new 0 0 48.758 48.736"
	 xml:space="preserve">
	<metadata>
		<variableSets  xmlns="http://ns.adobe.com/Variables/1.0/">
			<variableSet  varSetName="binding1" locked="none">
				<variables></variables>
				<v:sampleDataSets  xmlns="http://ns.adobe.com/GenericCustomNamespace/1.0/" xmlns:v="http://ns.adobe.com/Variables/1.0/">
					</v:sampleDataSets>
			</variableSet>
		</variableSets>
		<sfw  xmlns="&ns_sfw;">
			<slices></slices>
			<sliceSourceBounds  y="370.529" x="254.286" width="48.758" height="48.736" bottomLeftOrigin="true"></sliceSourceBounds>
		</sfw>
	</metadata>
	<g id="Layer_1" i:knockout="Off" i:layer="yes" i:dimmedPercent="50" i:rgbTrio="#4F008000FFFF">
		
		<path i:knockout="Off" fill="#FFFFFF" stroke="&stroke_color;" stroke-width="3.5" stroke-linecap="round" stroke-linejoin="round" d="
			M43.07,8.245h4.139v31.833H17.866l-0.868,0.146L6.3,42.01L1.218,10.585l3.876-0.647l0.441-0.074l0.008-1.62h9.773l2.844-0.49
			l24.154-4.036l0.602,3.604L43.07,8.245z"/>
		<path i:knockout="Off" fill="#FFFFFF" stroke="&stroke_color;" stroke-linecap="round" stroke-linejoin="round" d="M46.627,39.161H6.21
			V9.245h40.417V39.161z"/>
		<path i:knockout="Off" fill="&fill_color;" d="M43.627,11.578H8.96v24.75h6.433c0.092-1.765,0.24-3.677,0.48-4.591
			c0.447-1.695,4.26-4.017,8.416-4.562c-2.058-0.904-3.535-3.35-3.535-6.229c0-3.65,2.369-6.61,5.289-6.61s5.289,2.96,5.289,6.61
			c0,2.88-1.477,5.324-3.533,6.229c4.154,0.545,7.967,2.865,8.414,4.562c0.24,0.914,0.389,2.826,0.479,4.591h6.936L43.627,11.578z"
			/>
		<path i:knockout="Off" fill="none" stroke="&stroke_color;" stroke-width="0.5" stroke-linejoin="bevel" d="M15.392,36.328
			c0.092-1.765,0.24-3.677,0.48-4.591c0.447-1.695,4.26-4.017,8.417-4.562c-2.058-0.904-3.536-3.35-3.536-6.229
			c0-3.65,2.37-6.61,5.29-6.61s5.289,2.96,5.289,6.61c0,2.88-1.477,5.324-3.533,6.229c4.154,0.545,7.967,2.865,8.414,4.562
			c0.24,0.914,0.389,2.826,0.479,4.591"/>
		<path i:knockout="Off" fill="none" stroke="&stroke_color;" stroke-width="0.5" d="M43.627,36.328H8.96v-24.75h34.667V36.328z"/>
		<path i:knockout="Off" fill="none" d="M48.758,48.736H0.022V0h48.736V48.736z"/>
	</g>
</svg>
