<?xml version="1.0" standalone="no"?>
<!DOCTYPE svg PUBLIC "-//W3C//DTD SVG 20010904//EN"
 "http://www.w3.org/TR/2001/REC-SVG-20010904/DTD/svg10.dtd">
<svg version="1.0" xmlns="http://www.w3.org/2000/svg"
 width="468pt" height="416pt" viewBox="0 0 468 416"
 preserveAspectRatio="xMidYMid meet">
<metadata>
Created by potrace 1.8, written by Peter Selinger 2001-2007
</metadata>
<g transform="translate(0,416) scale(0.113043,-0.113043)"
fill="#666666" stroke="none">
<path d="M755 3050 c-2 -3 -6 -23 -10 -45 -3 -22 -10 -58 -15 -80 -5 -22 -18
-92 -30 -155 -11 -63 -25 -135 -30 -160 -5 -25 -23 -119 -40 -210 -17 -91 -40
-201 -50 -244 -10 -44 -17 -82 -15 -85 2 -3 59 -6 126 -5 l124 1 7 44 c8 44
18 98 37 194 6 28 13 69 16 93 l7 42 59 0 c113 0 144 -33 194 -200 20 -69 40
-136 44 -149 7 -24 9 -24 132 -25 140 0 133 -6 101 84 -11 30 -34 100 -51 155
-37 121 -58 156 -111 190 -22 14 -40 30 -40 35 0 6 18 10 40 10 104 0 200 129
200 268 0 115 -55 188 -167 221 -58 17 -102 21 -296 23 -126 2 -230 1 -232 -2z
m501 -85 c79 -23 124 -83 124 -164 0 -77 -42 -152 -109 -193 -46 -29 -81 -66
-81 -88 0 -9 18 -46 40 -83 47 -77 104 -241 95 -274 -4 -18 -12 -23 -39 -23
-44 0 -58 19 -91 120 -36 115 -69 173 -119 208 -77 55 -165 51 -222 -10 -37
-40 -38 -43 -65 -171 -26 -129 -38 -149 -87 -145 l-37 3 2 65 c1 36 26 193 57
350 70 359 77 389 94 406 20 21 369 20 438 -1z"/>
<path d="M996 2940 c-39 -12 -83 -56 -95 -94 -5 -17 -17 -70 -26 -118 -17 -98
-12 -119 40 -168 23 -22 35 -25 93 -24 147 2 251 97 252 229 0 62 -35 123 -90
154 -42 24 -132 35 -174 21z m165 -83 c31 -20 34 -28 37 -76 4 -66 -10 -102
-54 -140 -32 -29 -60 -35 -199 -44 -34 -2 -34 3 -15 83 5 25 15 74 20 110 15
95 10 90 98 90 66 0 85 -4 113 -23z"/>
<path d="M1775 3030 c-2 -3 -15 -68 -29 -145 -15 -77 -31 -160 -36 -185 -5
-25 -28 -142 -50 -260 -22 -118 -49 -251 -60 -294 -10 -44 -17 -82 -15 -85 2
-4 59 -6 127 -5 l123 1 12 69 c7 38 20 114 31 169 l18 100 164 6 c174 6 210
14 293 62 50 29 92 78 128 147 18 35 24 65 27 140 3 85 1 100 -20 140 -14 25
-44 60 -67 77 -70 54 -117 62 -394 65 -137 2 -250 1 -252 -2z m568 -99 c70
-34 102 -87 102 -165 0 -70 -22 -132 -67 -188 -60 -77 -148 -106 -317 -108
-98 0 -148 -12 -185 -41 -37 -29 -44 -45 -66 -156 -26 -124 -39 -145 -88 -141
-35 3 -37 5 -40 40 -2 21 15 129 37 240 22 112 50 255 61 318 26 139 46 211
63 222 6 5 111 7 232 6 208 -3 223 -4 268 -27z"/>
<path d="M2016 2920 c-34 -11 -73 -45 -91 -80 -7 -14 -21 -71 -30 -128 -21
-122 -13 -150 48 -189 37 -23 47 -25 122 -21 156 10 248 97 249 234 1 113 -69
179 -201 189 -37 2 -81 0 -97 -5z m183 -74 c77 -41 84 -165 12 -230 -36 -32
-91 -46 -190 -46 -92 0 -93 0 -88 23 18 75 35 159 42 202 4 28 9 53 12 58 8
14 182 8 212 -7z"/>
<path d="M2755 3030 c-2 -3 -15 -68 -29 -145 -15 -77 -31 -160 -36 -185 -5
-25 -28 -142 -50 -260 -22 -118 -49 -251 -60 -294 -10 -44 -17 -83 -15 -86 5
-8 221 -4 234 4 6 4 11 18 11 31 0 13 13 92 30 177 42 217 47 245 60 323 25
151 33 185 45 185 7 0 15 -20 18 -47 4 -27 10 -66 15 -88 24 -105 95 -391 99
-397 2 -5 33 -8 68 -8 l63 0 83 133 c160 256 182 293 211 347 16 30 35 58 41
62 6 4 9 10 5 13 -9 9 -77 -37 -114 -76 -36 -39 -93 -124 -143 -213 -67 -121
-105 -171 -132 -174 -33 -4 -49 31 -89 202 -33 141 -55 196 -95 241 -30 34
-46 29 -82 -24 -27 -41 -44 -99 -78 -271 -14 -74 -33 -171 -41 -214 -22 -112
-37 -138 -77 -134 -29 3 -32 6 -35 40 -2 21 15 129 37 240 22 112 50 255 61
318 31 166 46 215 73 227 34 15 153 4 171 -16 15 -16 26 -58 71 -251 22 -98
52 -166 83 -190 33 -27 42 -26 95 15 40 31 87 96 159 225 59 105 125 200 146
212 27 14 135 17 166 5 17 -7 18 -15 13 -70 -4 -34 -35 -210 -71 -391 -70
-353 -76 -369 -130 -364 -30 3 -31 4 -29 53 1 28 16 120 32 205 41 209 51 286
44 337 -6 43 -23 60 -23 23 0 -11 -4 -20 -10 -20 -5 0 -10 -13 -10 -30 0 -16
-4 -39 -9 -52 -5 -13 -19 -72 -31 -133 -21 -105 -28 -142 -51 -265 -6 -30 -17
-81 -25 -112 -22 -89 -28 -83 104 -82 l117 1 12 59 c17 83 110 568 134 694 10
58 26 129 35 158 9 30 13 56 10 60 -4 3 -77 5 -164 5 -141 -1 -158 -3 -168
-20 -7 -10 -63 -99 -126 -198 -63 -99 -125 -200 -138 -225 -47 -87 -70 -102
-70 -44 0 20 -4 53 -10 73 -5 20 -23 95 -40 166 -17 72 -35 146 -40 166 -6 20
-10 46 -10 58 0 11 -3 21 -7 21 -57 4 -306 4 -308 0z"/>
<path d="M1908 1903 c-6 -7 -9 -192 -8 -502 l1 -491 -71 0 c-47 0 -72 4 -75
13 -7 17 -228 15 -250 -3 -29 -24 -16 -51 60 -122 42 -39 74 -75 73 -80 -2 -5
56 -68 129 -141 73 -72 132 -135 131 -139 -5 -13 151 -168 168 -168 8 0 46 34
86 75 39 42 75 74 80 73 5 -2 68 56 141 129 72 73 135 132 139 131 14 -5 168
153 168 172 0 38 -27 45 -146 41 -89 -2 -115 0 -119 11 -4 10 -24 12 -85 10
l-80 -4 0 101 c0 72 4 103 13 106 9 4 11 61 9 250 -2 194 0 246 10 250 17 7
17 270 0 287 -16 16 -361 17 -374 1z m301 -77 c8 -10 8 -103 0 -362 -6 -192
-13 -387 -15 -434 -4 -73 -2 -90 15 -117 31 -49 57 -60 176 -73 142 -15 155
-18 155 -33 0 -13 -280 -283 -394 -379 -37 -32 -76 -58 -86 -58 -11 0 -46 31
-82 72 -35 40 -113 124 -174 187 -121 127 -184 203 -184 221 0 9 31 10 128 5
121 -7 128 -6 155 15 52 41 52 35 57 508 4 379 7 444 20 452 25 16 216 12 229
-4z"/>
</g>
</svg>
