<?xml version="1.0" ?><!DOCTYPE svg  PUBLIC '-//W3C//DTD SVG 1.1//EN'  'http://www.w3.org/Graphics/SVG/1.1/DTD/svg11.dtd' [
	<!ENTITY stroke_color "#000000">
	<!ENTITY fill_color "#ff0000">
]><svg height="45" id="svg2215" inkscape:output_extension="org.inkscape.output.svg.inkscape" inkscape:version="0.48.3.1 r9886" sodipodi:docname="icono.svg" sodipodi:version="0.32" version="1.1" width="45" xmlns="http://www.w3.org/2000/svg" xmlns:cc="http://creativecommons.org/ns#" xmlns:dc="http://purl.org/dc/elements/1.1/" xmlns:inkscape="http://www.inkscape.org/namespaces/inkscape" xmlns:rdf="http://www.w3.org/1999/02/22-rdf-syntax-ns#" xmlns:sodipodi="http://sodipodi.sourceforge.net/DTD/sodipodi-0.dtd" xmlns:svg="http://www.w3.org/2000/svg">
  <metadata id="metadata2232">
    <rdf:RDF>
      <cc:Work rdf:about="">
        <dc:format>image/svg+xml</dc:format>
        <dc:type rdf:resource="http://purl.org/dc/dcmitype/StillImage"/>
      </cc:Work>
    </rdf:RDF>
  </metadata>
  <defs id="defs2230"/>
  <sodipodi:namedview bordercolor="#666666" borderopacity="1.0" gridtolerance="10.0" guidetolerance="10.0" id="base" inkscape:current-layer="svg2215" inkscape:cx="23.104951" inkscape:cy="23.564778" inkscape:guide-bbox="true" inkscape:pageopacity="0.0" inkscape:pageshadow="2" inkscape:window-height="1000" inkscape:window-maximized="1" inkscape:window-width="1215" inkscape:window-x="65" inkscape:window-y="24" inkscape:zoom="14.377838" objecttolerance="10.0" pagecolor="#ffffff" showgrid="false" showguides="true"/>
  <path d="m 38.84214,12.906356 -0.06464,0.03119 -0.627768,0.187823 c -1.273201,0.4083 -2.339769,1.485442 -2.934335,2.905245 -0.323458,0.772405 -0.531856,2.143902 -0.446913,2.977218 0.138107,1.354852 0.742447,2.717737 1.578726,3.329527 0.246063,0.180011 0.485751,0.30533 0.725476,0.359544 0.239727,0.05422 0.487227,0.01817 0.696367,-0.112248 0.418283,-0.260828 0.631649,-0.786897 0.810024,-1.535095 0.301844,-1.266103 1.045272,-2.310737 2.180928,-3.078712 0.698915,-0.472633 1.436052,-0.732254 2.384044,-0.837032 0.189472,-0.02094 0.389643,-0.05612 0.55382,-0.09461 0.164178,-0.03849 0.260451,-0.06898 0.404207,-0.163061 0.257245,-0.168357 0.411929,-0.483298 0.396825,-0.779579 -0.0151,-0.296281 -0.151577,-0.584209 -0.330044,-0.86357 -0.356938,-0.558719 -0.956363,-1.097434 -1.715503,-1.486403 -0.473382,-0.242554 -0.893411,-0.367537 -2.091989,-0.576 l -1.44132,-0.250682 -0.07792,-0.01358 z" id="path3036" inkscape:connector-curvature="0" style="font-size:medium;font-style:normal;font-variant:normal;font-weight:normal;font-stretch:normal;text-indent:0;text-align:start;text-decoration:none;line-height:normal;letter-spacing:normal;word-spacing:normal;text-transform:none;direction:ltr;block-progression:tb;writing-mode:lr-tb;text-anchor:start;baseline-shift:baseline;color:#000000;fill:&fill_color;;fill-opacity:1;fill-rule:nonzero;stroke:&stroke_color;;stroke-width:0.65048146;stroke-opacity:1;marker:none;visibility:visible;display:inline;overflow:visible;enable-background:accumulate;font-family:Sans;-inkscape-font-specification:Sans"/>
  <path d="m 31.291259,13.014464 c -0.500177,-0.111658 -1.020384,-0.177334 -1.356349,-0.151042 -0.719098,0.05626 -1.381379,0.289643 -1.915197,0.642785 -0.533818,0.353141 -0.944879,0.835783 -1.031336,1.411742 -0.02115,0.14096 -0.0317,0.294022 0.03222,0.451115 0.06391,0.157093 0.18951,0.270435 0.326621,0.353817 0.27422,0.16676 0.646891,0.259733 1.241195,0.385594 0.917289,0.194264 0.957878,0.205639 1.436826,0.546909 0.571143,0.406964 1.219667,1.295536 1.440034,1.990082 0.0484,0.152549 0.08969,0.300361 0.135806,0.426703 0.04612,0.126342 0.07933,0.20058 0.134947,0.299265 0.122139,0.216749 0.387003,0.344216 0.611717,0.318543 0.224712,-0.02568 0.419275,-0.127685 0.643286,-0.2912 0.293324,-0.214109 0.528994,-0.493283 0.688127,-0.856202 0.159136,-0.36292 0.261894,-0.801807 0.353591,-1.423547 0.175812,-1.192234 0.07197,-1.806204 -0.465097,-2.62668 -0.514372,-0.785809 -1.229378,-1.244149 -2.276382,-1.477881 z" id="path3032" inkscape:connector-curvature="0" style="font-size:medium;font-style:normal;font-variant:normal;font-weight:normal;font-stretch:normal;text-indent:0;text-align:start;text-decoration:none;line-height:normal;letter-spacing:normal;word-spacing:normal;text-transform:none;direction:ltr;block-progression:tb;writing-mode:lr-tb;text-anchor:start;baseline-shift:baseline;color:#000000;fill:#44aa00;fill-opacity:1;fill-rule:nonzero;stroke:&stroke_color;;stroke-width:0.65048146;stroke-opacity:1;marker:none;visibility:visible;display:inline;overflow:visible;enable-background:accumulate;font-family:Sans;-inkscape-font-specification:Sans"/>
  <path d="m 41.710321,20.427342 c -0.437808,-0.07614 -0.908088,0.04547 -1.294491,0.368871 l -0.322341,0.283376 -0.109801,0.06578 -0.01862,0.124051 -0.226559,1.509285 -0.173799,1.157806 -4.849848,-0.843513 c -2.402591,-0.416954 -3.69274,-0.644282 -4.443927,-0.751703 -0.751192,-0.107382 -1.014205,-0.103558 -1.232422,-0.04464 -0.909461,0.245599 -1.663121,0.929032 -1.949551,1.80363 l -0.03811,0.120656 -1.583869,-0.233049 c -0.620868,-0.09226 -1.10369,-0.135035 -1.453735,-0.167974 -0.175022,-0.01647 -0.318763,-0.03182 -0.434706,-0.03319 -0.115943,-0.0013 -0.178146,-0.0154 -0.304575,0.03189 -0.234115,0.0876 -0.447485,0.229313 -0.587102,0.449475 -0.139613,0.220163 -0.214646,0.49793 -0.263588,0.823968 -0.04015,0.267496 -0.05419,0.450132 -0.0183,0.654478 0.03589,0.204345 0.115689,0.363561 0.23715,0.550404 l 0.261981,0.385004 0.08187,0.120315 0.116864,0.02033 1.863614,0.366557 1.548874,0.333026 -0.790552,5.399593 -0.793656,5.420269 -0.256308,-0.02336 c -0.232505,-0.02316 -0.406447,-0.0278 -0.58036,0.0051 -0.17391,0.03292 -0.327586,0.114326 -0.471949,0.214925 -0.770921,0.537223 -0.930215,1.686733 -0.321068,2.405087 0.120219,0.141776 0.287594,0.289564 0.543972,0.370405 0.256381,0.08083 0.623503,0.129662 1.340831,0.254424 0.671905,0.116862 1.024159,0.186849 1.288605,0.2029 0.264433,0.01614 0.472558,-0.04442 0.618458,-0.125798 0.276721,-0.154327 0.529923,-0.367441 0.669508,-0.732151 0.139582,-0.36471 0.208591,-0.856988 0.338613,-1.723159 l 0.189316,-1.261183 4.47978,0.779148 4.460303,0.775761 -0.195525,1.302534 c -0.092,0.612878 -0.158324,1.073472 -0.178294,1.454033 -0.01993,0.380565 0.02063,0.718961 0.191454,0.987969 0.170823,0.269008 0.432555,0.414254 0.762182,0.514431 0.329629,0.100176 0.741484,0.150184 1.282399,0.244261 l 1.499751,0.260844 0.116864,0.02033 0.109801,-0.06578 0.31303,-0.221349 c 0.154031,-0.112434 0.294797,-0.238927 0.383018,-0.421327 0.08821,-0.182399 0.116564,-0.367971 0.15775,-0.651439 0.03005,-0.207029 0.04804,-0.400553 0.04488,-0.565002 -0.0032,-0.164452 -0.01123,-0.283997 -0.09375,-0.440602 -0.248813,-0.472165 -0.697438,-0.778224 -1.247721,-0.874674 l -0.15582,-0.0271 1.415223,-9.427856 1.46488,-9.758655 0.01862,-0.12405 -0.0655,-0.09626 -0.223026,-0.378227 c -0.272121,-0.43791 -0.682888,-0.712766 -1.120695,-0.788911 z" id="path3028" inkscape:connector-curvature="0" style="font-size:medium;font-style:normal;font-variant:normal;font-weight:normal;font-stretch:normal;text-indent:0;text-align:start;text-decoration:none;line-height:normal;letter-spacing:normal;word-spacing:normal;text-transform:none;direction:ltr;block-progression:tb;writing-mode:lr-tb;text-anchor:start;baseline-shift:baseline;color:#000000;fill:#44aa00;fill-opacity:1;fill-rule:nonzero;stroke:&stroke_color;;stroke-width:0.65048146;stroke-opacity:1;marker:none;visibility:visible;display:inline;overflow:visible;enable-background:accumulate;font-family:Sans;-inkscape-font-specification:Sans"/>
  <path d="m 36.269615,26.715347 c -0.201869,-0.0351 -0.344165,-0.06481 -0.51572,-0.02607 -0.171554,0.03876 -0.308801,0.149062 -0.439202,0.263052 -0.589614,0.515405 -0.618096,1.471308 -0.01285,1.949537 0.429961,0.339724 1.005462,0.400643 1.459942,0.12663 0.147735,-0.08907 0.279509,-0.200518 0.373708,-0.3593 0.09419,-0.158782 0.127644,-0.317732 0.158607,-0.524002 0.02901,-0.193254 0.04696,-0.35996 0.01912,-0.527042 -0.02785,-0.16709 -0.103712,-0.309884 -0.194235,-0.436866 -0.09052,-0.126982 -0.209798,-0.239293 -0.352304,-0.315853 -0.142508,-0.07655 -0.308564,-0.117305 -0.497101,-0.150095 z" id="path3024" inkscape:connector-curvature="0" style="font-size:medium;font-style:normal;font-variant:normal;font-weight:normal;font-stretch:normal;text-indent:0;text-align:start;text-decoration:none;line-height:normal;letter-spacing:normal;word-spacing:normal;text-transform:none;direction:ltr;block-progression:tb;writing-mode:lr-tb;text-anchor:start;baseline-shift:baseline;color:#000000;fill:#ffffff;fill-opacity:1;fill-rule:nonzero;stroke:&stroke_color;;stroke-width:0.65048146;stroke-opacity:1;marker:none;visibility:visible;display:inline;overflow:visible;enable-background:accumulate;font-family:Sans;-inkscape-font-specification:Sans"/>
  <path d="m 37.211262,30.294724 c -0.356202,-0.16925 -0.75608,-0.0707 -1.16607,0.179058 -0.721003,0.439262 -1.108674,0.606977 -1.765587,0.711234 -0.978909,0.155363 -1.439708,0.03692 -2.465162,-0.619686 -0.153813,-0.0985 -0.31528,-0.18282 -0.462103,-0.250092 -0.146825,-0.06727 -0.242679,-0.13157 -0.419191,-0.136553 -0.219375,-0.0062 -0.44378,0.101241 -0.578647,0.260013 -0.134869,0.158772 -0.198865,0.356514 -0.245823,0.572476 -0.09392,0.431924 -0.07236,0.951983 0.09749,1.480787 0.280737,0.874005 1.016105,1.923507 1.715285,2.41982 1.568395,1.113329 3.948312,0.511141 5.17968,-1.220609 0.232161,-0.326503 0.424318,-0.736203 0.553179,-1.155469 0.128861,-0.419266 0.198679,-0.819648 0.157427,-1.18187 -0.05468,-0.480191 -0.244275,-0.88986 -0.600479,-1.059109 z" id="path3016" inkscape:connector-curvature="0" style="font-size:medium;font-style:normal;font-variant:normal;font-weight:normal;font-stretch:normal;text-indent:0;text-align:start;text-decoration:none;line-height:normal;letter-spacing:normal;word-spacing:normal;text-transform:none;direction:ltr;block-progression:tb;writing-mode:lr-tb;text-anchor:start;baseline-shift:baseline;color:#000000;fill:#ffffff;fill-opacity:1;fill-rule:nonzero;stroke:&stroke_color;;stroke-width:0.65048146;stroke-opacity:1;marker:none;visibility:visible;display:inline;overflow:visible;enable-background:accumulate;font-family:Sans;-inkscape-font-specification:Sans"/>
  <path d="m 32.191695,26.982236 c -0.201867,-0.03511 -0.344165,-0.06481 -0.515718,-0.02607 -0.171555,0.03876 -0.308803,0.149062 -0.439204,0.26305 -0.589613,0.515408 -0.618096,1.47131 -0.01285,1.949538 0.42996,0.339722 1.005461,0.400644 1.459941,0.126629 0.147734,-0.08907 0.279509,-0.200518 0.373708,-0.359299 0.09419,-0.158784 0.127645,-0.317733 0.158607,-0.524004 0.02901,-0.193253 0.04696,-0.359961 0.01912,-0.527042 -0.02785,-0.167088 -0.103715,-0.309883 -0.194236,-0.436865 -0.09052,-0.126983 -0.209797,-0.239295 -0.352304,-0.315855 -0.142508,-0.07655 -0.308565,-0.117304 -0.497101,-0.150095 z" id="path3024-0" inkscape:connector-curvature="0" style="font-size:medium;font-style:normal;font-variant:normal;font-weight:normal;font-stretch:normal;text-indent:0;text-align:start;text-decoration:none;line-height:normal;letter-spacing:normal;word-spacing:normal;text-transform:none;direction:ltr;block-progression:tb;writing-mode:lr-tb;text-anchor:start;baseline-shift:baseline;color:#000000;fill:#ffffff;fill-opacity:1;fill-rule:nonzero;stroke:&stroke_color;;stroke-width:0.65048146;stroke-opacity:1;marker:none;visibility:visible;display:inline;overflow:visible;enable-background:accumulate;font-family:Sans;-inkscape-font-specification:Sans"/>
  <text id="text3208" sodipodi:linespacing="125%" style="font-size:8px;font-style:normal;font-weight:normal;line-height:125%;letter-spacing:0px;word-spacing:0px;fill:&stroke_color;;fill-opacity:1;stroke:none;font-family:Sans" x="3.1993685" xml:space="preserve" y="8.8332262"><tspan id="tspan3210" sodipodi:role="line" x="3.1993685" y="8.8332262"/></text>
  <text id="text3015" sodipodi:linespacing="125%" style="font-size:12px;font-style:normal;font-weight:normal;line-height:125%;letter-spacing:0px;word-spacing:0px;fill:&stroke_color;;fill-opacity:1;stroke:none;font-family:Sans" x="3.6166773" xml:space="preserve" y="5.7729616"><tspan id="tspan3017" sodipodi:role="line" x="3.6166773" y="5.7729616"/></text>
  <path d="m 17.177905,25.674678 c -0.193868,-0.194098 -0.401371,-0.374104 -0.607545,-0.554863 0,0 0.834894,-0.520685 0.834894,-0.520685 l 0,0 c 0.216102,0.179845 0.432122,0.35974 0.649161,0.538422 0,0 -0.87651,0.537126 -0.87651,0.537126 z" id="path3019" inkscape:connector-curvature="0" style="fill:#ffffff"/>
  <path d="m 15.204884,22.767731 c -0.0011,0.351398 0.01712,0.704049 0.04438,1.054481 0.07237,0.694031 0.285542,1.358428 0.487883,2.022458 0.206687,0.683789 0.379582,1.376943 0.549633,2.070562 0,0 -0.863119,0.464284 -0.863119,0.464284 l 0,0 c -0.145449,-0.698732 -0.324973,-1.389711 -0.527173,-2.074132 -0.210481,-0.665841 -0.42687,-1.332352 -0.521829,-2.026916 -0.03971,-0.346368 -0.05812,-0.694929 -0.08971,-1.042006 0,0 0.919938,-0.468731 0.919938,-0.468731 z" id="path3021" inkscape:connector-curvature="0" style="fill:#ffffff"/>
  <text id="text3023" sodipodi:linespacing="125%" style="font-size:8.57950401px;font-style:normal;font-weight:normal;line-height:125%;letter-spacing:0px;word-spacing:0px;fill:&stroke_color;;fill-opacity:1;stroke:none;font-family:Sans" transform="matrix(0.94695419,0.10983627,-0.09958182,1.0444669,0,0)" x="1.2008847" xml:space="preserve" y="6.45682"><tspan id="tspan3025" sodipodi:role="line" style="font-size:8.57950401px;font-weight:bold;-inkscape-font-specification:Sans Bold" x="1.2008847" y="6.45682">Contando</tspan></text>
  <text id="text3027" sodipodi:linespacing="125%" style="font-size:40.77782822px;font-style:normal;font-weight:normal;line-height:125%;letter-spacing:0px;word-spacing:0px;fill:&stroke_color;;fill-opacity:1;stroke:none;font-family:Sans" transform="matrix(0.92955695,-0.35102723,0.34512572,0.94545199,0,0)" x="-6.4271846" xml:space="preserve" y="24.48785"><tspan id="tspan3029" sodipodi:role="line" style="font-size:12.23334789px;font-weight:bold;-inkscape-font-specification:Sans Bold" x="-6.4271846" y="24.48785">Con</tspan></text>
  <text id="text3031" sodipodi:linespacing="125%" style="font-size:8px;font-style:normal;font-weight:bold;line-height:125%;letter-spacing:0px;word-spacing:0px;fill:&stroke_color;;fill-opacity:1;stroke:none;font-family:Sans;-inkscape-font-specification:Sans Bold" transform="matrix(0.98018015,0.19810823,-0.19810823,0.98018015,0,0)" x="13.468831" xml:space="preserve" y="28.902845"><tspan id="tspan3033" sodipodi:role="line" x="13.468831" y="28.902845">JAM</tspan></text>
  <text id="text3035" sodipodi:linespacing="125%" style="font-size:35.77283096px;font-style:normal;font-weight:normal;line-height:125%;letter-spacing:0px;word-spacing:0px;fill:&stroke_color;;fill-opacity:1;stroke:none;font-family:Sans" transform="matrix(1.0138276,0.16567746,-0.17538734,0.95769958,0,0)" x="6.5001984" xml:space="preserve" y="39.896996"><tspan id="tspan3037" sodipodi:role="line" style="font-size:9.83752823px;font-weight:bold;-inkscape-font-specification:Sans Bold" x="6.5001984" y="39.896996">Cito</tspan></text>
  <text id="text3039" sodipodi:linespacing="125%" style="font-size:5.67318249000000030px;font-style:normal;font-weight:bold;line-height:125%;letter-spacing:0px;word-spacing:0px;fill:&stroke_color;;fill-opacity:1;stroke:none;font-family:Sans;-inkscape-font-specification:Sans Bold" transform="matrix(0.91837224,0.54139227,-0.47636252,0.80806125,0,0)" x="28.026991" xml:space="preserve" y="7.0270529"><tspan id="tspan3041" sodipodi:role="line" x="28.026991" y="7.0270529">1</tspan></text>
  <text id="text3043" sodipodi:linespacing="125%" style="font-size:7.07792806999999957px;font-style:normal;font-weight:bold;line-height:125%;letter-spacing:0px;word-spacing:0px;fill:&stroke_color;;fill-opacity:1;stroke:none;font-family:Sans;-inkscape-font-specification:Sans Bold" transform="matrix(0.7713033,-0.55162504,0.6471694,0.83366057,0,0)" x="-6.4139967" xml:space="preserve" y="12.672799"><tspan id="tspan3045" sodipodi:role="line" x="-6.4139967" y="12.672799">2</tspan></text>
  <text id="text3047" sodipodi:linespacing="125%" style="font-size:6.27190875999999964px;font-style:normal;font-weight:bold;line-height:125%;letter-spacing:0px;word-spacing:0px;fill:&stroke_color;;fill-opacity:1;stroke:none;font-family:Sans;-inkscape-font-specification:Sans Bold" transform="matrix(0.87211442,0.62362251,-0.50062585,0.78865621,0,0)" x="11.277009" xml:space="preserve" y="7.8829246"><tspan id="tspan3049" sodipodi:role="line" x="11.277009" y="7.8829246">4</tspan></text>
  <text id="text3051" sodipodi:linespacing="125%" style="font-size:9.58321667000000055px;font-style:normal;font-weight:bold;line-height:125%;letter-spacing:0px;word-spacing:0px;fill:&stroke_color;;fill-opacity:1;stroke:none;font-family:Sans;-inkscape-font-specification:Sans Bold" transform="matrix(0.79582855,-0.66591465,0.62823086,0.73087585,0,0)" x="-3.9104004" xml:space="preserve" y="34.234913"><tspan id="tspan3053" sodipodi:role="line" x="-3.9104004" y="34.234913">3</tspan></text>
  <text id="text3055" sodipodi:linespacing="125%" style="font-size:9.65824126999999955px;font-style:normal;font-weight:bold;line-height:125%;letter-spacing:0px;word-spacing:0px;fill:&stroke_color;;fill-opacity:1;stroke:none;font-family:Sans;-inkscape-font-specification:Sans Bold" transform="matrix(0.77399191,-0.62595138,0.63011462,0.78240983,0,0)" x="-17.804251" xml:space="preserve" y="27.956461"><tspan id="tspan3057" sodipodi:role="line" x="-17.804251" y="27.956461">5</tspan></text>
  <text id="text3059" sodipodi:linespacing="125%" style="font-size:7.88736391000000037px;font-style:normal;font-weight:bold;line-height:125%;letter-spacing:0px;word-spacing:0px;fill:&stroke_color;;fill-opacity:1;stroke:none;font-family:Sans;-inkscape-font-specification:Sans Bold" transform="matrix(0.40274363,0.94910829,-0.90985048,0.3388095,0,0)" x="12.175303" xml:space="preserve" y="-6.0123053"><tspan id="tspan3061" sodipodi:role="line" x="12.175303" y="-6.0123053">6</tspan></text>
  <text id="text3063" sodipodi:linespacing="125%" style="font-size:6.62931967000000011px;font-style:normal;font-weight:bold;line-height:125%;letter-spacing:0px;word-spacing:0px;fill:&stroke_color;;fill-opacity:1;stroke:none;font-family:Sans;-inkscape-font-specification:Sans Bold" transform="matrix(0.14597943,-1.0275983,0.95072851,0.15778239,0,0)" x="-22.91761" xml:space="preserve" y="19.152891"><tspan id="tspan3065" sodipodi:role="line" x="-22.91761" y="19.152891">7</tspan></text>
</svg>