<?xml version="1.0" ?><!-- Created with Inkscape (http://www.inkscape.org/) --><!DOCTYPE svg  PUBLIC '-//W3C//DTD SVG 1.1//EN'  'http://www.w3.org/Graphics/SVG/1.1/DTD/svg11.dtd' [
	<!ENTITY stroke_color "#ff0000">
	<!ENTITY fill_color "#000000">
]><svg height="55" id="svg2" inkscape:version="0.48.4 r9939" sodipodi:docname="boxes.svg" version="1.1" width="55" xmlns="http://www.w3.org/2000/svg" xmlns:cc="http://creativecommons.org/ns#" xmlns:dc="http://purl.org/dc/elements/1.1/" xmlns:inkscape="http://www.inkscape.org/namespaces/inkscape" xmlns:rdf="http://www.w3.org/1999/02/22-rdf-syntax-ns#" xmlns:sodipodi="http://sodipodi.sourceforge.net/DTD/sodipodi-0.dtd" xmlns:svg="http://www.w3.org/2000/svg">
  <defs id="defs4"/>
  <sodipodi:namedview bordercolor="#666666" borderopacity="1.0" id="base" inkscape:current-layer="layer1" inkscape:cx="36.903877" inkscape:cy="29.372636" inkscape:document-units="px" inkscape:pageopacity="0.0" inkscape:pageshadow="2" inkscape:window-height="744" inkscape:window-maximized="1" inkscape:window-width="1366" inkscape:window-x="0" inkscape:window-y="24" inkscape:zoom="7.9195959" pagecolor="#ffffff" showgrid="false"/>
  <metadata id="metadata7">
    <rdf:RDF>
      <cc:Work rdf:about="">
        <dc:format>image/svg+xml</dc:format>
        <dc:type rdf:resource="http://purl.org/dc/dcmitype/StillImage"/>
        <dc:title/>
      </cc:Work>
    </rdf:RDF>
  </metadata>
  <g id="layer1" inkscape:groupmode="layer" inkscape:label="Capa 1" transform="translate(0,-997.36218)">
    <g id="g3069" style="fill:&fill_color;;fill-opacity:1;stroke:none;stroke-opacity:1">
      <path d="m 21.844548,20.781082 c 0,5.578919 -4.522607,10.101525 -10.101525,10.101525 -5.5789185,0 -10.1015254,-4.522606 -10.1015254,-10.101525 0,-5.578918 4.5226069,-10.101525 10.1015254,-10.101525 5.578918,0 10.101525,4.522607 10.101525,10.101525 z" id="path2985" sodipodi:cx="11.743023" sodipodi:cy="20.781082" sodipodi:rx="10.101525" sodipodi:ry="10.101525" sodipodi:type="arc" style="fill:&fill_color;;fill-opacity:1;fill-rule:evenodd;stroke:none;stroke-width:0.23900710000000000;stroke-miterlimit:4;stroke-opacity:1;stroke-dasharray:none" transform="matrix(0.18673532,0,0,0.18673532,14.755974,1021.5328)"/>
      <path d="m 21.844548,20.781082 c 0,5.578919 -4.522607,10.101525 -10.101525,10.101525 -5.5789185,0 -10.1015254,-4.522606 -10.1015254,-10.101525 0,-5.578918 4.5226069,-10.101525 10.1015254,-10.101525 5.578918,0 10.101525,4.522607 10.101525,10.101525 z" id="path2985-4" sodipodi:cx="11.743023" sodipodi:cy="20.781082" sodipodi:rx="10.101525" sodipodi:ry="10.101525" sodipodi:type="arc" style="fill:&fill_color;;fill-opacity:1;fill-rule:evenodd;stroke:none;stroke-width:0.23900710000000000;stroke-miterlimit:4;stroke-opacity:1;stroke-dasharray:none" transform="matrix(0.18673532,0,0,0.18673532,14.755974,1031.5328)"/>
      <path d="m 21.844548,20.781082 c 0,5.578919 -4.522607,10.101525 -10.101525,10.101525 -5.5789185,0 -10.1015254,-4.522606 -10.1015254,-10.101525 0,-5.578918 4.5226069,-10.101525 10.1015254,-10.101525 5.578918,0 10.101525,4.522607 10.101525,10.101525 z" id="path2985-47" sodipodi:cx="11.743023" sodipodi:cy="20.781082" sodipodi:rx="10.101525" sodipodi:ry="10.101525" sodipodi:type="arc" style="fill:&fill_color;;fill-opacity:1;fill-rule:evenodd;stroke:none;stroke-width:0.23900710000000000;stroke-miterlimit:4;stroke-opacity:1;stroke-dasharray:none" transform="matrix(0.18673532,0,0,0.18673532,14.755974,1001.5328)"/>
      <path d="m 21.844548,20.781082 c 0,5.578919 -4.522607,10.101525 -10.101525,10.101525 -5.5789185,0 -10.1015254,-4.522606 -10.1015254,-10.101525 0,-5.578918 4.5226069,-10.101525 10.1015254,-10.101525 5.578918,0 10.101525,4.522607 10.101525,10.101525 z" id="path2985-6" sodipodi:cx="11.743023" sodipodi:cy="20.781082" sodipodi:rx="10.101525" sodipodi:ry="10.101525" sodipodi:type="arc" style="fill:&fill_color;;fill-opacity:1;fill-rule:evenodd;stroke:none;stroke-width:0.23900710000000000;stroke-miterlimit:4;stroke-opacity:1;stroke-dasharray:none" transform="matrix(0.18673532,0,0,0.18673532,14.755974,1011.5328)"/>
      <path d="m 21.844548,20.781082 c 0,5.578919 -4.522607,10.101525 -10.101525,10.101525 -5.5789185,0 -10.1015254,-4.522606 -10.1015254,-10.101525 0,-5.578918 4.5226069,-10.101525 10.1015254,-10.101525 5.578918,0 10.101525,4.522607 10.101525,10.101525 z" id="path2985-5" sodipodi:cx="11.743023" sodipodi:cy="20.781082" sodipodi:rx="10.101525" sodipodi:ry="10.101525" sodipodi:type="arc" style="fill:&fill_color;;fill-opacity:1;fill-rule:evenodd;stroke:none;stroke-width:0.23900710000000000;stroke-miterlimit:4;stroke-opacity:1;stroke-dasharray:none" transform="matrix(0.18673532,0,0,0.18673532,14.755974,1041.5328)"/>
      <path d="m 21.844548,20.781082 c 0,5.578919 -4.522607,10.101525 -10.101525,10.101525 -5.5789185,0 -10.1015254,-4.522606 -10.1015254,-10.101525 0,-5.578918 4.5226069,-10.101525 10.1015254,-10.101525 5.578918,0 10.101525,4.522607 10.101525,10.101525 z" id="path2985-49" sodipodi:cx="11.743023" sodipodi:cy="20.781082" sodipodi:rx="10.101525" sodipodi:ry="10.101525" sodipodi:type="arc" style="fill:&fill_color;;fill-opacity:1;fill-rule:evenodd;stroke:none;stroke-width:0.23900710000000000;stroke-miterlimit:4;stroke-opacity:1;stroke-dasharray:none" transform="matrix(0.18673532,0,0,0.18673532,24.755974,1021.5328)"/>
      <path d="m 21.844548,20.781082 c 0,5.578919 -4.522607,10.101525 -10.101525,10.101525 -5.5789185,0 -10.1015254,-4.522606 -10.1015254,-10.101525 0,-5.578918 4.5226069,-10.101525 10.1015254,-10.101525 5.578918,0 10.101525,4.522607 10.101525,10.101525 z" id="path2985-4-9" sodipodi:cx="11.743023" sodipodi:cy="20.781082" sodipodi:rx="10.101525" sodipodi:ry="10.101525" sodipodi:type="arc" style="fill:&fill_color;;fill-opacity:1;fill-rule:evenodd;stroke:none;stroke-width:0.23900710000000000;stroke-miterlimit:4;stroke-opacity:1;stroke-dasharray:none" transform="matrix(0.18673532,0,0,0.18673532,24.755974,1031.5328)"/>
      <path d="m 21.844548,20.781082 c 0,5.578919 -4.522607,10.101525 -10.101525,10.101525 -5.5789185,0 -10.1015254,-4.522606 -10.1015254,-10.101525 0,-5.578918 4.5226069,-10.101525 10.1015254,-10.101525 5.578918,0 10.101525,4.522607 10.101525,10.101525 z" id="path2985-47-2" sodipodi:cx="11.743023" sodipodi:cy="20.781082" sodipodi:rx="10.101525" sodipodi:ry="10.101525" sodipodi:type="arc" style="fill:&fill_color;;fill-opacity:1;fill-rule:evenodd;stroke:none;stroke-width:0.23900710000000000;stroke-miterlimit:4;stroke-opacity:1;stroke-dasharray:none" transform="matrix(0.18673532,0,0,0.18673532,24.755974,1001.5328)"/>
      <path d="m 21.844548,20.781082 c 0,5.578919 -4.522607,10.101525 -10.101525,10.101525 -5.5789185,0 -10.1015254,-4.522606 -10.1015254,-10.101525 0,-5.578918 4.5226069,-10.101525 10.1015254,-10.101525 5.578918,0 10.101525,4.522607 10.101525,10.101525 z" id="path2985-6-8" sodipodi:cx="11.743023" sodipodi:cy="20.781082" sodipodi:rx="10.101525" sodipodi:ry="10.101525" sodipodi:type="arc" style="fill:&fill_color;;fill-opacity:1;fill-rule:evenodd;stroke:none;stroke-width:0.23900710000000000;stroke-miterlimit:4;stroke-opacity:1;stroke-dasharray:none" transform="matrix(0.18673532,0,0,0.18673532,24.755974,1011.5328)"/>
      <path d="m 21.844548,20.781082 c 0,5.578919 -4.522607,10.101525 -10.101525,10.101525 -5.5789185,0 -10.1015254,-4.522606 -10.1015254,-10.101525 0,-5.578918 4.5226069,-10.101525 10.1015254,-10.101525 5.578918,0 10.101525,4.522607 10.101525,10.101525 z" id="path2985-5-9" sodipodi:cx="11.743023" sodipodi:cy="20.781082" sodipodi:rx="10.101525" sodipodi:ry="10.101525" sodipodi:type="arc" style="fill:&fill_color;;fill-opacity:1;fill-rule:evenodd;stroke:none;stroke-width:0.23900710000000000;stroke-miterlimit:4;stroke-opacity:1;stroke-dasharray:none" transform="matrix(0.18673532,0,0,0.18673532,24.755974,1041.5328)"/>
      <path d="m 21.844548,20.781082 c 0,5.578919 -4.522607,10.101525 -10.101525,10.101525 -5.5789185,0 -10.1015254,-4.522606 -10.1015254,-10.101525 0,-5.578918 4.5226069,-10.101525 10.1015254,-10.101525 5.578918,0 10.101525,4.522607 10.101525,10.101525 z" id="path2985-0" sodipodi:cx="11.743023" sodipodi:cy="20.781082" sodipodi:rx="10.101525" sodipodi:ry="10.101525" sodipodi:type="arc" style="fill:&fill_color;;fill-opacity:1;fill-rule:evenodd;stroke:none;stroke-width:0.23900710000000000;stroke-miterlimit:4;stroke-opacity:1;stroke-dasharray:none" transform="matrix(0.18673532,0,0,0.18673532,34.755974,1021.5328)"/>
      <path d="m 21.844548,20.781082 c 0,5.578919 -4.522607,10.101525 -10.101525,10.101525 -5.5789185,0 -10.1015254,-4.522606 -10.1015254,-10.101525 0,-5.578918 4.5226069,-10.101525 10.1015254,-10.101525 5.578918,0 10.101525,4.522607 10.101525,10.101525 z" id="path2985-4-5" sodipodi:cx="11.743023" sodipodi:cy="20.781082" sodipodi:rx="10.101525" sodipodi:ry="10.101525" sodipodi:type="arc" style="fill:&fill_color;;fill-opacity:1;fill-rule:evenodd;stroke:none;stroke-width:0.23900710000000000;stroke-miterlimit:4;stroke-opacity:1;stroke-dasharray:none" transform="matrix(0.18673532,0,0,0.18673532,34.755974,1031.5328)"/>
      <path d="m 21.844548,20.781082 c 0,5.578919 -4.522607,10.101525 -10.101525,10.101525 -5.5789185,0 -10.1015254,-4.522606 -10.1015254,-10.101525 0,-5.578918 4.5226069,-10.101525 10.1015254,-10.101525 5.578918,0 10.101525,4.522607 10.101525,10.101525 z" id="path2985-47-7" sodipodi:cx="11.743023" sodipodi:cy="20.781082" sodipodi:rx="10.101525" sodipodi:ry="10.101525" sodipodi:type="arc" style="fill:&fill_color;;fill-opacity:1;fill-rule:evenodd;stroke:none;stroke-width:0.23900710000000000;stroke-miterlimit:4;stroke-opacity:1;stroke-dasharray:none" transform="matrix(0.18673532,0,0,0.18673532,34.755974,1001.5328)"/>
      <path d="m 21.844548,20.781082 c 0,5.578919 -4.522607,10.101525 -10.101525,10.101525 -5.5789185,0 -10.1015254,-4.522606 -10.1015254,-10.101525 0,-5.578918 4.5226069,-10.101525 10.1015254,-10.101525 5.578918,0 10.101525,4.522607 10.101525,10.101525 z" id="path2985-6-1" sodipodi:cx="11.743023" sodipodi:cy="20.781082" sodipodi:rx="10.101525" sodipodi:ry="10.101525" sodipodi:type="arc" style="fill:&fill_color;;fill-opacity:1;fill-rule:evenodd;stroke:none;stroke-width:0.23900710000000000;stroke-miterlimit:4;stroke-opacity:1;stroke-dasharray:none" transform="matrix(0.18673532,0,0,0.18673532,34.755974,1011.5328)"/>
      <path d="m 21.844548,20.781082 c 0,5.578919 -4.522607,10.101525 -10.101525,10.101525 -5.5789185,0 -10.1015254,-4.522606 -10.1015254,-10.101525 0,-5.578918 4.5226069,-10.101525 10.1015254,-10.101525 5.578918,0 10.101525,4.522607 10.101525,10.101525 z" id="path2985-5-2" sodipodi:cx="11.743023" sodipodi:cy="20.781082" sodipodi:rx="10.101525" sodipodi:ry="10.101525" sodipodi:type="arc" style="fill:&fill_color;;fill-opacity:1;fill-rule:evenodd;stroke:none;stroke-width:0.23900710000000000;stroke-miterlimit:4;stroke-opacity:1;stroke-dasharray:none" transform="matrix(0.18673532,0,0,0.18673532,34.755974,1041.5328)"/>
      <path d="m 21.844548,20.781082 c 0,5.578919 -4.522607,10.101525 -10.101525,10.101525 -5.5789185,0 -10.1015254,-4.522606 -10.1015254,-10.101525 0,-5.578918 4.5226069,-10.101525 10.1015254,-10.101525 5.578918,0 10.101525,4.522607 10.101525,10.101525 z" id="path2985-53" sodipodi:cx="11.743023" sodipodi:cy="20.781082" sodipodi:rx="10.101525" sodipodi:ry="10.101525" sodipodi:type="arc" style="fill:&fill_color;;fill-opacity:1;fill-rule:evenodd;stroke:none;stroke-width:0.23900710000000000;stroke-miterlimit:4;stroke-opacity:1;stroke-dasharray:none" transform="matrix(0.18673532,0,0,0.18673532,44.755974,1021.5328)"/>
      <path d="m 21.844548,20.781082 c 0,5.578919 -4.522607,10.101525 -10.101525,10.101525 -5.5789185,0 -10.1015254,-4.522606 -10.1015254,-10.101525 0,-5.578918 4.5226069,-10.101525 10.1015254,-10.101525 5.578918,0 10.101525,4.522607 10.101525,10.101525 z" id="path2985-4-4" sodipodi:cx="11.743023" sodipodi:cy="20.781082" sodipodi:rx="10.101525" sodipodi:ry="10.101525" sodipodi:type="arc" style="fill:&fill_color;;fill-opacity:1;fill-rule:evenodd;stroke:none;stroke-width:0.23900710000000000;stroke-miterlimit:4;stroke-opacity:1;stroke-dasharray:none" transform="matrix(0.18673532,0,0,0.18673532,44.755974,1031.5328)"/>
      <path d="m 21.844548,20.781082 c 0,5.578919 -4.522607,10.101525 -10.101525,10.101525 -5.5789185,0 -10.1015254,-4.522606 -10.1015254,-10.101525 0,-5.578918 4.5226069,-10.101525 10.1015254,-10.101525 5.578918,0 10.101525,4.522607 10.101525,10.101525 z" id="path2985-47-6" sodipodi:cx="11.743023" sodipodi:cy="20.781082" sodipodi:rx="10.101525" sodipodi:ry="10.101525" sodipodi:type="arc" style="fill:&fill_color;;fill-opacity:1;fill-rule:evenodd;stroke:none;stroke-width:0.23900710000000000;stroke-miterlimit:4;stroke-opacity:1;stroke-dasharray:none" transform="matrix(0.18673532,0,0,0.18673532,44.755974,1001.5328)"/>
      <path d="m 21.844548,20.781082 c 0,5.578919 -4.522607,10.101525 -10.101525,10.101525 -5.5789185,0 -10.1015254,-4.522606 -10.1015254,-10.101525 0,-5.578918 4.5226069,-10.101525 10.1015254,-10.101525 5.578918,0 10.101525,4.522607 10.101525,10.101525 z" id="path2985-6-4" sodipodi:cx="11.743023" sodipodi:cy="20.781082" sodipodi:rx="10.101525" sodipodi:ry="10.101525" sodipodi:type="arc" style="fill:&fill_color;;fill-opacity:1;fill-rule:evenodd;stroke:none;stroke-width:0.23900710000000000;stroke-miterlimit:4;stroke-opacity:1;stroke-dasharray:none" transform="matrix(0.18673532,0,0,0.18673532,44.755974,1011.5328)"/>
      <path d="m 21.844548,20.781082 c 0,5.578919 -4.522607,10.101525 -10.101525,10.101525 -5.5789185,0 -10.1015254,-4.522606 -10.1015254,-10.101525 0,-5.578918 4.5226069,-10.101525 10.1015254,-10.101525 5.578918,0 10.101525,4.522607 10.101525,10.101525 z" id="path2985-5-5" sodipodi:cx="11.743023" sodipodi:cy="20.781082" sodipodi:rx="10.101525" sodipodi:ry="10.101525" sodipodi:type="arc" style="fill:&fill_color;;fill-opacity:1;fill-rule:evenodd;stroke:none;stroke-width:0.23900710000000000;stroke-miterlimit:4;stroke-opacity:1;stroke-dasharray:none" transform="matrix(0.18673532,0,0,0.18673532,44.755974,1041.5328)"/>
      <path d="m 21.844548,20.781082 c 0,5.578919 -4.522607,10.101525 -10.101525,10.101525 -5.5789185,0 -10.1015254,-4.522606 -10.1015254,-10.101525 0,-5.578918 4.5226069,-10.101525 10.1015254,-10.101525 5.578918,0 10.101525,4.522607 10.101525,10.101525 z" id="path2985-50" sodipodi:cx="11.743023" sodipodi:cy="20.781082" sodipodi:rx="10.101525" sodipodi:ry="10.101525" sodipodi:type="arc" style="fill:&fill_color;;fill-opacity:1;fill-rule:evenodd;stroke:none;stroke-width:0.23900710000000000;stroke-miterlimit:4;stroke-opacity:1;stroke-dasharray:none" transform="matrix(0.18673532,0,0,0.18673532,4.7559744,1021.5328)"/>
      <path d="m 21.844548,20.781082 c 0,5.578919 -4.522607,10.101525 -10.101525,10.101525 -5.5789185,0 -10.1015254,-4.522606 -10.1015254,-10.101525 0,-5.578918 4.5226069,-10.101525 10.1015254,-10.101525 5.578918,0 10.101525,4.522607 10.101525,10.101525 z" id="path2985-4-93" sodipodi:cx="11.743023" sodipodi:cy="20.781082" sodipodi:rx="10.101525" sodipodi:ry="10.101525" sodipodi:type="arc" style="fill:&fill_color;;fill-opacity:1;fill-rule:evenodd;stroke:none;stroke-width:0.23900710000000000;stroke-miterlimit:4;stroke-opacity:1;stroke-dasharray:none" transform="matrix(0.18673532,0,0,0.18673532,4.7559744,1031.5328)"/>
      <path d="m 21.844548,20.781082 c 0,5.578919 -4.522607,10.101525 -10.101525,10.101525 -5.5789185,0 -10.1015254,-4.522606 -10.1015254,-10.101525 0,-5.578918 4.5226069,-10.101525 10.1015254,-10.101525 5.578918,0 10.101525,4.522607 10.101525,10.101525 z" id="path2985-47-28" sodipodi:cx="11.743023" sodipodi:cy="20.781082" sodipodi:rx="10.101525" sodipodi:ry="10.101525" sodipodi:type="arc" style="fill:&fill_color;;fill-opacity:1;fill-rule:evenodd;stroke:none;stroke-width:0.23900710000000000;stroke-miterlimit:4;stroke-opacity:1;stroke-dasharray:none" transform="matrix(0.18673532,0,0,0.18673532,4.7559744,1001.5328)"/>
      <path d="m 21.844548,20.781082 c 0,5.578919 -4.522607,10.101525 -10.101525,10.101525 -5.5789185,0 -10.1015254,-4.522606 -10.1015254,-10.101525 0,-5.578918 4.5226069,-10.101525 10.1015254,-10.101525 5.578918,0 10.101525,4.522607 10.101525,10.101525 z" id="path2985-6-7" sodipodi:cx="11.743023" sodipodi:cy="20.781082" sodipodi:rx="10.101525" sodipodi:ry="10.101525" sodipodi:type="arc" style="fill:&fill_color;;fill-opacity:1;fill-rule:evenodd;stroke:none;stroke-width:0.23900710000000000;stroke-miterlimit:4;stroke-opacity:1;stroke-dasharray:none" transform="matrix(0.18673532,0,0,0.18673532,4.7559744,1011.5328)"/>
      <path d="m 21.844548,20.781082 c 0,5.578919 -4.522607,10.101525 -10.101525,10.101525 -5.5789185,0 -10.1015254,-4.522606 -10.1015254,-10.101525 0,-5.578918 4.5226069,-10.101525 10.1015254,-10.101525 5.578918,0 10.101525,4.522607 10.101525,10.101525 z" id="path2985-5-6" sodipodi:cx="11.743023" sodipodi:cy="20.781082" sodipodi:rx="10.101525" sodipodi:ry="10.101525" sodipodi:type="arc" style="fill:&fill_color;;fill-opacity:1;fill-rule:evenodd;stroke:none;stroke-width:0.23900710000000000;stroke-miterlimit:4;stroke-opacity:1;stroke-dasharray:none" transform="matrix(0.18673532,0,0,0.18673532,4.7559744,1041.5328)"/>
    </g>
    <path d="m 17.179527,1005.4531 9.961389,0" id="path3938" inkscape:connector-curvature="0" style="fill:none;stroke:&stroke_color;;stroke-width:3.08492684000000006px;stroke-linecap:butt;stroke-linejoin:miter;stroke-opacity:1"/>
    <path d="m 36.870566,1035.2596 0,9.9614" id="path3938-7" inkscape:connector-curvature="0" style="fill:none;stroke:&stroke_color;;stroke-width:3.08492684000000006px;stroke-linecap:butt;stroke-linejoin:miter;stroke-opacity:1"/>
    <path d="m 37.066906,1025.4668 9.96139,0" id="path3938-9" inkscape:connector-curvature="0" inkscape:transform-center-x="0.75761441" inkscape:transform-center-y="-11.490485" style="fill:none;stroke:&stroke_color;;stroke-width:3.08492684000000006px;stroke-linecap:butt;stroke-linejoin:miter;stroke-opacity:1"/>
    <path d="m 47.098366,1005.2076 0,9.9614" id="path3938-7-0" inkscape:connector-curvature="0" style="fill:none;stroke:&stroke_color;;stroke-width:3.08492684000000006px;stroke-linecap:butt;stroke-linejoin:miter;stroke-opacity:1"/>
    <path d="m 26.77251,1015.3688 9.961386,0" id="path3938-6" inkscape:connector-curvature="0" style="fill:none;stroke:&stroke_color;;stroke-width:3.08492684000000006px;stroke-linecap:butt;stroke-linejoin:miter;stroke-opacity:1"/>
    <path d="m 36.867096,1005.4006 0,9.9614" id="path3938-7-1" inkscape:connector-curvature="0" style="fill:none;stroke:&stroke_color;;stroke-width:3.08492684000000006px;stroke-linecap:butt;stroke-linejoin:miter;stroke-opacity:1"/>
    <path d="m 17.04979,1035.4456 9.961389,0" id="path3938-73" inkscape:connector-curvature="0" style="fill:none;stroke:&stroke_color;;stroke-width:3.08492684000000006px;stroke-linecap:butt;stroke-linejoin:miter;stroke-opacity:1"/>
    <path d="m 47.221166,1025.2248 0,9.9614" id="path3938-7-8" inkscape:connector-curvature="0" style="fill:none;stroke:&stroke_color;;stroke-width:3.08492684000000006px;stroke-linecap:butt;stroke-linejoin:miter;stroke-opacity:1"/>
    <path d="m 16.793786,1015.4354 0,9.9614" id="path3938-7-02" inkscape:connector-curvature="0" style="fill:none;stroke:&stroke_color;;stroke-width:3.08492684000000006px;stroke-linecap:butt;stroke-linejoin:miter;stroke-opacity:1"/>
    <path d="m 6.8185297,1005.0814 0,9.9613" id="path3938-7-7" inkscape:connector-curvature="0" style="fill:none;stroke:&stroke_color;;stroke-width:3.08492684000000006px;stroke-linecap:butt;stroke-linejoin:miter;stroke-opacity:1"/>
    <path d="m 6.9447987,1015.8142 0,9.9613" id="path3938-7-88" inkscape:connector-curvature="0" style="fill:none;stroke:&stroke_color;;stroke-width:3.08492684000000006px;stroke-linecap:butt;stroke-linejoin:miter;stroke-opacity:1"/>
    <path d="m 7.0710678,1035.3859 0,9.9614" id="path3938-7-5" inkscape:connector-curvature="0" style="fill:none;stroke:&stroke_color;;stroke-width:3.08492684000000006px;stroke-linecap:butt;stroke-linejoin:miter;stroke-opacity:1"/>
  </g>
</svg>