<?xml version="1.0" encoding="UTF-8" standalone="no"?>
<!-- Created with Inkscape (http://www.inkscape.org/) -->
<!DOCTYPE svg PUBLIC "-//W3C//DTD SVG 1.1//EN" "http://www.w3.org/Graphics/SVG/1.1/DTD/svg11.dtd" [
    <!ENTITY ns_svg "http://www.w3.org/2000/svg">
    <!ENTITY ns_xlink " http://www.w3.org/1999/xlink">
    <!ENTITY stroke_color "#000000">
    <!ENTITY fill_color "#AAAAAA">
]>
<svg
   xmlns:svg="http://www.w3.org/2000/svg"
   xmlns="http://www.w3.org/2000/svg"
   xmlns:xlink="http://www.w3.org/1999/xlink"
   version="1.1"
   width="244"
   height="244"
   id="svg3204">
   
  <defs
     id="defs3208" />
  <path
  	 style="fill:&fill_color;;fill-opacity:0.75;fill-rule:evenodd;stroke:&stroke_color;;stroke-width:6.5;stroke-linecap:butt;stroke-linejoin:miter;stroke-opacity:1;stroke-miterlimit:4;stroke-dasharray:none"
     d="m 106.5,240.1082 c -1.1,-0.46153 -5.03277,-1.15999 -8.739478,-1.55214 -3.706714,-0.39215 -6.971572,-1.08853 -7.255241,-1.54751 -0.283669,-0.45899 -2.408599,-1.15432 -4.722066,-1.54518 -2.313468,-0.39085 -4.89861,-1.08923 -5.74476,-1.55193 C 79.192305,233.44873 76.25,232.13583 73.5,230.99388 54.125975,222.94873 34.966239,206.88578 22.813703,188.5 17.193991,179.99784 11.011549,168.1181 11.004882,165.80902 c -0.0027,-0.93004 -0.403869,-1.93757 -0.891519,-2.23896 C 9.6257126,163.26868 8.9199289,161.38672 8.5449548,159.38794 8.1699806,157.38915 7.4911069,155.02168 7.0363466,154.12689 6.5815862,153.2321 5.4477178,148.225 4.516639,143 1.2522102,124.68078 3.8480175,95.074617 9.9965107,80.5 13.077055,73.197763 18.496259,62.360884 19.638599,61.218544 20.38737,60.469773 21,59.420293 21,58.886365 21,58.352437 21.457673,57.37208 22.017051,56.707794 22.576429,56.043507 25.207862,52.575 27.864681,49 33.207795,41.810335 45.232364,30.140896 52.076946,25.502812 54.509626,23.854359 56.725,22.262718 57,21.965832 58.130029,20.745869 78.618889,10.997167 80.05,10.998527 c 0.8525,8.1e-4 1.9775,-0.42272 2.5,-0.941178 2.961999,-2.9390863 34.34366,-7.798945 43.60715,-6.7531349 14.96897,1.6899357 23.44253,2.9713326 24.34285,3.681199 0.55,0.4336515 2.91014,1.1034921 5.24476,1.4885346 2.33462,0.3850425 4.49868,1.1109217 4.80902,1.6130643 0.31034,0.502144 1.23739,0.912988 2.0601,0.912988 1.58844,0 9.02999,3.05859 13.6746,5.620463 1.53366,0.845939 3.78366,2.076434 5,2.734434 4.30099,2.326702 11.22468,6.877496 12.21152,8.026382 0.55,0.64031 3.22326,2.953967 5.94057,5.141461 5.82908,4.692533 11.54778,10.249746 11.58781,11.260593 0.0156,0.394167 1.81864,2.728812 4.00674,5.1881 3.56612,4.008105 13.91358,20.162472 13.99881,21.854822 C 229.05259,71.196815 229.93732,73.3 231,75.5 c 1.06268,2.2 1.94741,4.760942 1.96607,5.690983 0.0187,0.930041 0.45793,1.953029 0.97615,2.273308 0.51822,0.32028 1.24999,2.709337 1.62615,5.309017 0.37615,2.599681 1.02329,5.176692 1.43808,5.726692 1.06989,1.418647 2.99355,19.01601 2.99355,27.3846 0,8.49079 -1.97983,27.22024 -3.02484,28.6154 -0.41197,0.55 -1.06407,2.91014 -1.44911,5.24476 -0.38504,2.33462 -1.11092,4.49868 -1.61306,4.80902 -0.50215,0.31034 -0.91299,1.23739 -0.91299,2.0601 0,1.9624 -6.62941,17.09866 -8.05279,18.38612 -0.30403,0.275 -1.6264,2.3 -2.9386,4.5 -6.76208,11.33713 -16.82979,22.34576 -28.61935,31.29409 -8.13257,6.17267 -26.41048,16.18113 -29.58024,16.19729 -0.93004,0.005 -1.93757,0.40761 -2.23896,0.89526 -0.30138,0.48765 -2.24044,1.20292 -4.30901,1.58948 -2.06858,0.38657 -4.21105,1.05389 -4.76105,1.48293 -3.28084,2.55931 -41.21607,5.15634 -46,3.14915 z M 56.332028,206.83833 C 57.082514,203.96846 55.395741,201 53.014506,201 c -2.409898,0 -3.839009,2.46722 -3.241033,5.59533 0.626837,3.27909 5.715298,3.46761 6.558555,0.243 z m 42.905039,-42.23658 35.465743,-35.39826 5.76786,-1.1974 c 9.19258,-1.90837 18.98968,0.59885 23.25871,5.95226 5.89716,7.39507 6.38173,8.65434 6.38173,16.58426 0,7.07507 -0.27499,8.15769 -3.05555,12.02956 -3.50354,4.87859 -3.69634,6.0623 -1.40057,8.59909 2.41004,2.66307 3.82556,2.2799 7.09767,-1.92126 12.49979,-16.04887 4.79631,-41.35799 -14.78609,-48.57843 -4.89836,-1.80613 -19.43602,-2.33904 -20.41902,-0.74851 -0.31377,0.50769 -2.02782,1.23541 -3.80902,1.61717 -2.52117,0.54035 -11.15747,8.57739 -38.98853,36.28316 C 75.0875,177.39738 59,194.0694 59,194.87234 c 0,1.4274 2.874701,4.95033 4.135663,5.06823 0.349614,0.0327 16.595246,-15.86978 36.101404,-35.33882 z M 68.44113,174.4682 C 69.508751,173.66069 71.038199,173 71.839903,173 74.478904,173 84.142283,164.21559 111.75,136.72008 126.7375,121.7935 139,110.31265 139,111.20709 c 0,0.89443 -0.5625,1.83249 -1.25,2.08458 -0.89031,0.32644 -0.94336,0.78655 -0.18436,1.59897 0.7619,0.81552 9.31284,1.06492 30,0.875 L 196.5,115.5 l 0.33749,-2.38691 c 0.18562,-1.3128 -0.26438,-2.76841 -1,-3.23469 C 195.10187,109.41213 185.275,109.00951 174,108.98371 l -20.5,-0.0469 3,-2.59609 c 1.65,-1.42785 5.25878,-4.67613 8.01951,-7.218397 2.76073,-2.542272 8.93763,-7.955319 13.72645,-12.028992 5.68278,-4.834127 10.00347,-9.523064 12.43978,-13.5 3.67573,-6.000117 3.73345,-6.25393 3.77354,-16.593321 0.0377,-9.732594 -0.15518,-10.801099 -2.63962,-14.619773 C 185.66372,32.91832 175.33298,28.562885 164.70879,30.95029 157.86611,32.487936 149,38.661785 149,41.888986 c 0,0.476369 -0.6145,1.376118 -1.36557,1.999444 -1.75869,1.459587 -2.95845,10.016221 -1.62902,11.618092 0.55401,0.667539 2.07876,1.008882 3.38833,0.758542 1.88333,-0.360022 2.51308,-1.280905 3.01273,-4.405506 0.83569,-5.226163 7.86425,-12.444517 13.06783,-13.420715 6.50766,-1.220843 11.95251,-0.0089 15.8357,3.52469 4.81843,4.384672 6.69,8.742734 6.69,15.578065 0,7.252758 -2.80061,13.095432 -8.99367,18.762751 -10.6572,9.752486 -15.30693,13.845574 -23.65318,20.821554 -4.85242,4.055757 -9.98328,8.620277 -11.40192,10.143377 -1.41864,1.5231 -2.89669,2.45193 -3.28456,2.06405 -0.38788,-0.38787 0.57578,-1.87524 2.14145,-3.30526 1.56568,-1.43002 3.09961,-3.56724 3.40875,-4.74936 C 146.85225,98.848986 144.58679,95 142.52131,95 c -0.7509,0 -17.11172,15.74644 -36.35736,34.99208 -19.245642,19.24564 -36.268249,35.49571 -37.828014,36.11126 -5.120143,2.02064 -15.498729,1.45509 -20.66727,-1.12621 -5.481911,-2.73779 -7.709722,-4.9781 -10.687747,-10.74769 -3.27689,-6.34861 -2.530731,-15.90885 1.773991,-22.72944 2.773104,-4.39383 2.994771,-5.24247 1.828414,-7 -3.408684,-5.13639 -9.36196,0.0157 -12.92759,11.1879 -1.800966,5.64295 -2.208355,13.85253 -0.732671,14.76455 0.507685,0.31377 1.225098,1.94564 1.59425,3.62638 1.520057,6.92077 7.8091,14.64505 14.622251,17.95923 2.39824,1.16659 5.035436,2.50881 5.860436,2.9827 2.614605,1.50187 17.275865,1.08516 19.44113,-0.55256 z M 155.6106,88.584636 C 155.10186,86.557663 154.34388,86 152.09753,86 c -2.24095,0 -2.9657,0.530051 -3.32992,2.435354 -0.57031,2.983364 0.12319,4.19686 2.73239,4.781155 2.92832,0.65576 4.88448,-1.548468 4.1106,-4.631873 z"
     id="path3216" />
</svg>
