<?xml version="1.0" ?><!DOCTYPE svg  PUBLIC '-//W3C//DTD SVG 1.1//EN'  'http://www.w3.org/Graphics/SVG/1.1/DTD/svg11.dtd' [
	<!ENTITY stroke_color "#00ff03">
	<!ENTITY fill_color "#ff0000">
]><!--Generator: Xara Xtreme (www.xara.com), SVG filter version: 1.0.0.13--><svg fill-rule="evenodd" height="41.25pt" overflow="visible" stroke-linejoin="bevel" stroke-width="0.501" version="1.1" viewBox="0 0 41.25 41.25" width="41.25pt" xmlns="http://www.w3.org/2000/svg" xmlns:xlink="http://www.w3.org/1999/xlink">
 <defs>
  <marker id="DefaultArrow2" markerHeight="1" markerUnits="strokeWidth" markerWidth="1" orient="auto" overflow="visible" viewBox="0 0 1 1">
   <!-- REF_ARROW_STRAIGHT (-2) -->
   <g transform="scale(0.0092592592)">
    <!-- 1/108 -->
    <path d="M -9 54 L -9 -54 L 117 0 z"/>
   </g>
  </marker>
  <marker id="DefaultArrow3" markerHeight="1" markerUnits="strokeWidth" markerWidth="1" orient="auto" overflow="visible" viewBox="0 0 1 1">
   <!-- REF_ARROW_ANGLED -->
   <g transform="scale(0.0092592592)">
    <path d="M -27 54 L -9 0 L -27 -54 L 135 0 z"/>
   </g>
  </marker>
  <marker id="DefaultArrow4" markerHeight="1" markerUnits="strokeWidth" markerWidth="1" orient="auto" overflow="visible" viewBox="0 0 1 1">
   <!-- REF_ARROW_ROUNDED -->
   <g transform="scale(0.0092592592)">
    <path d="M -9,0 L -9,-45 C -9,-51.708 2.808,-56.580 9,-54 L 117,-9 C 120.916,-7.369 126.000,-4.242 126,0 C 126,4.242 120.916,7.369 117,9 L 9,54 C 2.808,56.580 -9,51.708 -9,45 z"/>
   </g>
  </marker>
  <marker id="DefaultArrow5" markerHeight="1" markerUnits="strokeWidth" markerWidth="1" orient="auto" overflow="visible" viewBox="0 0 1 1">
   <!-- REF_ARROW_SPOT -->
   <g transform="scale(0.0092592592)">
    <path d="M -54, 0 C -54,29.807 -29.807,54 0,54 C 29.807,54 54,29.807 54,0 C 54,-29.807 29.807,-54 0,-54 C -29.807,-54 -54,-29.807 -54,0 z"/>
   </g>
  </marker>
  <marker id="DefaultArrow6" markerHeight="1" markerUnits="strokeWidth" markerWidth="1" orient="auto" overflow="visible" viewBox="0 0 1 1">
   <!-- REF_ARROW_DIAMOND -->
   <g transform="scale(0.0092592592)">
    <path d="M -63,0 L 0,63 L 63,0 L 0,-63 z"/>
   </g>
  </marker>
  <marker id="DefaultArrow7" markerHeight="1" markerUnits="strokeWidth" markerWidth="1" orient="auto" overflow="visible" viewBox="0 0 1 1">
   <!-- REF_ARROW_FEATHER -->
   <g transform="scale(0.0092592592)">
    <path d="M 18,-54 L 108,-54 L 63,0 L 108,54 L 18, 54 L -36,0 z"/>
   </g>
  </marker>
  <marker id="DefaultArrow8" markerHeight="1" markerUnits="strokeWidth" markerWidth="1" orient="auto" overflow="visible" viewBox="0 0 1 1">
   <!-- REF_ARROW_FEATHER2 -->
   <g transform="scale(0.0092592592)">
    <path d="M -36,0 L 18,-54 L 54,-54 L 18,-18 L 27,-18 L 63,-54 L 99,-54 L 63,-18 L 72,-18 L 108,-54 L 144,-54 L 90,0 L 144,54 L 108,54 L 72,18 L 63,18 L 99,54 L 63,54 L 27,18 L 18,18 L 54,54 L 18,54 z"/>
   </g>
  </marker>
  <marker id="DefaultArrow9" markerHeight="1" markerUnits="strokeWidth" markerWidth="1" orient="auto" overflow="visible" viewBox="0 0 1 1">
   <!-- REF_ARROW_HOLLOWDIAMOND -->
   <g transform="scale(0.0092592592)">
    <path d="M 0,45 L -45,0 L 0, -45 L 45, 0 z M 0, 63 L-63, 0 L 0, -63 L 63, 0 z"/>
   </g>
  </marker>
  <filter id="StainedFilter">
   <feBlend in="SourceGraphic" in2="BackgroundImage" mode="multiply" result="blend"/>
   <feComposite in="blend" in2="SourceAlpha" operator="in" result="comp"/>
  </filter>
  <filter id="BleachFilter">
   <feBlend in="SourceGraphic" in2="BackgroundImage" mode="screen" result="blend"/>
   <feComposite in="blend" in2="SourceAlpha" operator="in" result="comp"/>
  </filter>
  <filter id="InvertTransparencyBitmapFilter">
   <feComponentTransfer>
    <feFuncR amplitude="1.055" exponent=".416666666" offset="-0.055" type="gamma"/>
    <feFuncG amplitude="1.055" exponent=".416666666" offset="-0.055" type="gamma"/>
    <feFuncB amplitude="1.055" exponent=".416666666" offset="-0.055" type="gamma"/>
   </feComponentTransfer>
   <feComponentTransfer>
    <feFuncR intercept="1" slope="-1" type="linear"/>
    <feFuncG intercept="1" slope="-1" type="linear"/>
    <feFuncB intercept="1" slope="-1" type="linear"/>
    <feFuncA intercept="0" slope="1" type="linear"/>
   </feComponentTransfer>
   <feComponentTransfer>
    <feFuncR amplitude="1" exponent="2.4" offset="0" type="gamma"/>
    <feFuncG amplitude="1" exponent="2.4" offset="0" type="gamma"/>
    <feFuncB amplitude="1" exponent="2.4" offset="0" type="gamma"/>
   </feComponentTransfer>
  </filter>
 </defs>
 <g fill="none" font-family="Times New Roman" font-size="16" id="Document" stroke="black" transform="scale(1 -1)">
  <g id="Spread" transform="translate(0 -41.25)">
   <g id="Layer 1">
    <g id="Group" stroke="none">
     <path d="M 14.247,38.813 C 14.247,38.813 14.769,38.081 16.862,38.594 C 18.956,39.107 23.195,38.6 24.868,37.79 C 26.542,36.981 27.198,38.025 26.678,38.296 C 26.158,38.566 26.114,38.569 26.042,38.621 C 25.97,38.671 26.5,39.064 27.474,38.317 C 28.448,37.571 29.955,37.131 30.803,37.382 C 31.651,37.633 31.118,38.36 30.772,38.521 C 30.426,38.683 30.337,38.519 30.314,38.623 C 30.289,38.727 31.257,39.202 31.912,38.495 C 32.566,37.787 33.708,37.347 34.506,37.369 C 35.302,37.39 35.958,38.4 37.493,38.533 C 39.027,38.666 40.668,37.928 40.586,37.876 C 40.504,37.823 37.661,38.594 36.489,37.708 C 35.317,36.821 34.068,36.673 32.979,36.928 C 31.89,37.183 30.713,36.525 31.472,35.804 C 32.232,35.084 34.724,35.607 35.85,36.094 C 36.976,36.58 38.329,36.94 39.245,36.927 C 40.161,36.916 40.837,36.806 40.788,36.742 C 40.738,36.676 37.545,36.596 36.598,35.829 C 35.65,35.062 31.964,34.449 31.325,34.945 C 30.685,35.441 30.366,36.686 28.996,36.819 C 27.625,36.954 27.481,35.98 28.229,35.659 C 28.979,35.337 30.056,35.228 30.011,35.081 C 29.966,34.932 28.299,34.708 27.098,35.4 C 25.897,36.093 24.619,36.473 23.996,36.342 C 23.373,36.211 23.489,34.336 25.596,34.336 C 27.704,34.336 27.921,34.454 29.574,34.385 C 31.228,34.316 32.714,34.128 34.245,34.397 C 35.775,34.667 37.089,35.032 37.641,35.174 C 38.193,35.315 39.82,35.692 39.894,35.568 C 39.894,35.568 36.516,34.264 34.79,33.899 C 33.064,33.535 30.784,33.904 29.025,33.629 C 27.267,33.353 27.707,31.825 29.415,31.872 C 31.122,31.918 33.417,32.152 34.145,32.571 C 34.874,32.99 36.062,33.191 36.493,33.373 C 36.926,33.555 39.524,34.371 39.565,34.257 C 39.607,34.143 35.086,32.539 33.805,31.947 C 32.524,31.354 29.968,31.313 28.738,31.45 C 27.506,31.588 28.15,31.763 26.949,31.958 C 25.748,32.154 25.222,31.074 27.109,30.783 C 28.997,30.493 31.161,30.494 32.694,30.65 C 34.228,30.806 35.496,31.572 35.52,31.468 C 35.544,31.364 34.531,30.431 32.593,30.191 C 30.655,29.951 28.217,29.844 27.421,29.766 C 26.626,29.687 26.234,29.448 26.989,28.899 C 27.745,28.35 29.395,28.394 30.757,28.603 C 32.118,28.81 33.078,29.121 33.696,29.423 C 34.314,29.726 35.435,30.383 35.435,30.383 C 35.758,30.391 33.609,28.452 31.46,27.88 C 29.31,27.309 26.625,27.635 25.751,28.352 C 24.877,29.069 24.079,29.91 22.882,29.935 C 21.686,29.959 21.82,28.417 22.753,27.587 C 23.687,26.757 24.801,27.699 24.281,27.971 C 23.761,28.241 23.519,28.747 23.519,28.747 C 23.519,28.747 25.641,28.235 25.89,27.444 C 26.139,26.653 24.907,25.878 26.626,25.526 C 28.344,25.174 31.962,26.184 33.195,26.902 C 34.429,27.619 34.6,28.204 34.927,28.146 C 35.254,28.088 33.205,25.734 31.02,25.19 C 28.834,24.646 27.957,24.707 27.511,24.353 C 27.066,23.999 27.536,23.442 28.446,23.466 C 29.357,23.491 30.886,23.818 31.447,24.175 C 32.006,24.533 32.847,25.011 32.847,25.011 L 34.864,26.263 C 34.864,26.263 33.597,24.69 32.363,23.972 C 31.13,23.254 29.159,22.403 28.125,22.717 C 27.092,23.031 26.021,22.096 26.109,21.465 C 26.306,20.057 27.575,19.909 29.155,20.465 C 30.735,21.02 29.907,22.138 31.428,22.75 C 32.949,23.361 34.614,23.646 34.597,23.52 C 34.579,23.394 31.318,22.299 31.178,21.489 C 31.037,20.679 31.844,19.827 33.133,20.602 C 34.422,21.378 36.371,23.226 36.371,23.226 C 36.371,23.226 35.133,20.263 33.043,19.636 C 30.953,19.01 28.727,19.805 28.96,17.978 C 29.194,16.152 32.27,17.482 33.107,18.091 C 33.945,18.702 31.477,15.623 29.404,15.512 C 27.33,15.401 27.193,13.001 27.999,12.681 C 28.806,12.361 29.97,13.533 29.338,13.743 C 28.705,13.954 28.246,13.289 28.145,13.597 C 28.045,13.905 29.39,14.806 30.084,14.473 C 30.778,14.139 31.26,12.634 29.695,11.508 C 28.131,10.382 27.711,8.627 28.46,8.305 C 29.209,7.983 29.934,8.217 29.937,8.06 C 29.942,7.902 28.695,7.201 27.895,7.308 C 27.095,7.414 26.331,6.616 26.593,6.12 C 26.854,5.624 29.327,4.573 28.688,4.464 C 28.05,4.355 25.693,5.322 23.969,5.902 C 22.244,6.482 20.606,8.091 19.736,8.638 C 18.867,9.184 17.161,11.189 16.524,11.571 C 15.888,11.952 15.377,11.882 15.168,11.192 C 14.958,10.503 13.734,11.552 13.734,11.552 C 13.734,11.552 13.299,10.8 13.959,9.563 C 14.619,8.327 15.882,5.854 15.609,5.447 C 15.335,5.04 15.055,4.862 15.515,4.703 C 15.975,4.545 16.715,4.565 16.803,3.428 C 16.89,2.29 15.737,0.719 15.291,0.365 C 14.845,0.011 14.389,-0.002 14.389,-0.002 C 14.389,-0.002 14.017,1.129 13.836,1.522 C 13.654,1.917 13.181,2.531 12.922,3.721 C 12.661,4.911 12.23,6.096 12.156,6.721 C 12.083,7.346 11.831,10.303 11.301,10.973 C 10.77,11.642 10.693,12.381 10.693,12.381 L 10.225,12.824 C 10.225,12.824 8.789,13.299 8.17,12.997 C 7.551,12.695 7.652,11.102 8.129,10.317 C 8.606,9.532 9.413,9.155 9.413,9.155 L 9.359,9.008 L 9.02,8.973 C 9.02,8.973 9.265,8.352 9.786,8.024 C 10.307,7.697 10.428,7.472 10.428,7.472 L 10.079,7.049 L 10.101,6.893 C 10.12,6.767 10.905,6.98 11.32,6.072 C 11.735,5.163 11.386,3.622 11.229,3.104 C 11.073,2.587 10.96,2.527 10.96,2.527 C 10.96,2.527 9.963,3.583 9.427,4.481 C 8.89,5.378 8.649,5.828 8.649,5.828 C 8.649,5.828 7.5,6.195 7.413,7.333 C 7.325,8.47 7.037,8.577 7.037,8.577 C 7.037,8.577 6.25,12.375 5.827,13.275 C 5.404,14.175 6.055,15.39 6.959,15.643 C 7.864,15.896 10.429,15.795 10.883,15.863 C 11.337,15.933 11.619,16.055 11.619,16.055 C 11.619,16.055 10.412,18.53 10.442,19.499 C 10.473,20.47 11.07,21.569 11.61,22.666 C 12.15,23.764 12.212,25.647 12.181,26.786 C 12.15,27.925 12.065,28.949 11.938,29.459 C 11.81,29.968 11.335,30.697 11.335,30.697 C 11.335,30.697 10.733,29.768 9.612,29.11 C 8.491,28.452 7.986,28.154 7.382,27.34 C 6.778,26.525 6.778,26.525 6.321,26.57 C 5.864,26.614 5.633,26.722 5.633,26.722 C 5.633,26.722 5.128,26.423 4.555,26.579 C 3.981,26.734 3.981,26.734 3.981,26.734 C 3.981,26.734 3.776,27.982 3.706,28.494 C 3.634,29.005 3.507,29.514 4.16,30.615 C 4.814,31.716 6.289,34.036 6.885,35.135 C 7.482,36.235 8.461,37.914 9.081,38.159 C 9.702,38.404 10.1,38.415 10.1,38.415 C 10.1,38.415 9.86,38.864 9.011,38.67 C 8.162,38.476 8.107,38.417 8.107,38.417 C 8.009,38.447 8.866,39.26 9.507,39.253 C 10.15,39.247 10.361,39.277 10.361,39.277 C 10.361,39.277 10.173,39.899 9.32,39.875 C 8.466,39.853 8.635,39.765 8.637,39.857 C 8.639,39.948 9.559,40.331 9.936,40.234 C 10.315,40.138 10.683,40.026 10.683,40.026 L 10.538,41.162 L 11.981,40.461 L 13.668,41.248 C 13.757,41.289 13.28,40.07 13.484,39.647 C 13.723,39.197 14.247,38.813 14.247,38.813 Z M 23.753,33.676 C 23.753,33.676 20.718,34.052 20.57,32.765 C 20.422,31.476 22.271,30.884 22.887,31.819 C 23.504,32.752 22.038,32.713 22.038,32.713 L 21.587,32.425 C 21.587,32.425 21.931,33.26 22.763,33.007 C 23.595,32.755 23.793,32.21 23.793,32.21 C 23.793,32.21 24.142,32.861 25.511,33.082 C 26.879,33.303 26.689,33.573 26.689,33.573 L 23.753,33.676 Z M 21.164,37.891 C 21.164,37.891 18.326,37.779 18.189,36.075 C 18.052,34.37 20.273,33.58 20.881,34.811 C 21.489,36.043 20.024,36.003 20.024,36.003 L 19.576,35.626 C 19.576,35.626 19.913,36.729 20.747,36.387 C 21.581,36.046 21.964,35.419 21.964,35.419 C 21.964,35.419 21.751,36.536 23.118,36.816 C 24.485,37.097 24.668,37.101 24.668,37.101 L 21.164,37.891 Z" fill="&fill_color;" marker-end="none" marker-start="none"/>
     <path d="M 12.381,38.306 C 12.381,38.306 13.007,40.432 13.227,40.723 C 13.447,41.014 12.27,40.298 11.779,39.487 C 11.289,38.675 12.381,38.306 12.381,38.306 Z M 8.043,36.535 C 8.043,36.535 6.531,33.53 5.494,31.848 C 4.457,30.167 3.965,29.412 4.149,28.961 C 4.331,28.51 4.369,27.143 4.369,27.143 C 4.369,27.143 5.118,26.822 5.675,27.293 C 6.338,27.589 6.425,27.745 6.342,27.881 C 6.342,27.881 5.378,27.741 5.417,28.369 C 5.458,28.997 6.013,29.525 6.428,28.909 C 6.844,28.294 6.732,28.177 6.732,28.177 C 6.732,28.177 6.96,28.183 7.06,28.699 C 7.16,29.214 6.984,29.381 6.634,29.713 C 6.283,30.046 6.495,30.622 7.235,30.642 C 7.975,30.662 8.783,30.284 9.555,31.218 C 10.105,31.882 10.123,32.994 10.087,33.58 C 9.359,33.56 8.818,33.546 8.818,33.546 C 8.818,33.546 8.803,34.095 9.424,34.846 C 9.744,35.232 10.217,35.306 10.601,35.288 C 10.619,35.293 11.041,35.227 11.047,35.227 C 11.501,35.336 11.228,36.242 11.578,36.403 C 11.972,36.585 10.66,36.663 10.594,37.004 C 10.527,37.344 11.132,38.158 11.132,38.158 C 11.132,38.158 9.766,38.12 8.872,37.469 C 7.979,36.818 8.043,36.535 8.043,36.535 Z M 12.342,22.971 C 11.528,21.467 10.927,20.539 10.901,19.398 C 10.875,18.257 11.644,17.195 11.773,16.629 C 11.903,16.062 12.444,14.994 12.444,14.994 C 12.444,14.994 14.59,15.679 15.269,15.869 C 15.947,16.059 15.939,16.343 15.346,17.239 C 14.752,18.135 16.188,17.661 16.435,16.983 C 16.68,16.306 17.051,17.343 16.152,18.971 C 15.254,20.6 15.079,20.766 15.079,20.766 C 15.079,20.766 16.64,19.896 17.299,18.717 C 17.957,17.538 18.003,16.919 18.003,16.919 C 18.13,16.799 16.673,15.315 14.38,15.046 C 12.285,14.591 11.52,13.373 11.52,13.373 C 11.52,13.373 11.034,12.391 11.159,11.995 C 11.283,11.6 11.619,11.837 11.873,10.874 C 12.127,9.912 12.617,6.563 12.799,6.112 C 12.983,5.661 13.26,5.953 13.291,4.814 C 13.322,3.675 13.462,2.71 13.8,2.833 C 14.138,2.956 14.366,2.962 14.207,2.501 C 14.049,2.042 14.602,0.574 14.602,0.574 C 14.602,0.574 15.669,1.117 16.147,2.383 C 16.625,3.651 15.867,4.314 15.867,4.314 C 15.867,4.314 15.247,4.069 14.796,3.886 C 14.346,3.703 14.273,4.27 14.549,4.62 C 14.824,4.969 15.107,5.035 14.702,5.252 C 14.298,5.468 13.56,5.391 13.56,5.391 C 13.56,5.391 13.487,5.959 14,5.973 C 14.512,5.987 14.882,7.023 14.416,7.409 C 13.95,7.796 13.153,9.884 13.293,8.918 C 13.433,7.953 13.533,6.36 13.027,8.227 C 12.521,10.094 12.131,11.85 12.413,11.972 C 12.694,12.094 13.371,12.34 13.126,12.961 C 12.881,13.581 14.4,14.307 15.367,14.332 C 16.335,14.359 18.825,14.939 18.825,14.939 L 19.637,14.392 C 19.637,14.392 20.708,14.82 21.311,15.691 C 21.914,16.562 22.555,18.119 22.555,18.119 C 22.555,18.119 23.036,17.163 22.352,15.093 C 22.032,14.123 21.564,13.534 20.645,12.937 C 20.653,12.648 22.413,12.838 21.057,12.442 C 19.7,12.059 16.727,12.51 16.74,12.033 C 16.74,12.033 19.08,9.76 20.767,8.437 C 21.482,7.878 22.218,7.278 22.923,6.991 C 23.27,6.773 23.628,6.583 23.892,6.527 C 24.407,6.28 25.31,6.267 25.784,6.544 C 23.765,7.139 23.43,9.276 24.571,10.31 C 25.823,11.445 25.197,14.271 24.238,15.804 C 23.281,17.338 25.297,17.301 25.297,17.301 C 25.297,17.301 24.899,18.482 24.142,19.378 C 23.384,20.275 21.708,21.238 21.671,22.613 C 21.634,23.988 23.96,22.676 23.96,22.676 C 23.96,22.676 23.678,22.943 22.73,24.11 C 21.876,25.161 18.317,26.552 16.963,26.859 C 14.499,27.419 12.603,29.877 12.802,29.083 C 12.64,29.484 13.297,24.518 12.342,22.971 Z M 14.614,22.605 C 14.614,22.605 18.347,20.138 18.493,18.124 C 18.64,16.111 17.99,16.31 17.816,16.088 C 17.64,15.866 19.472,15.927 20.367,16.64 C 21.262,17.354 21.539,17.959 21.521,18.023 C 21.502,18.088 18.946,17.947 19.854,18.62 C 20.764,19.293 21.229,18.853 21.31,19.026 C 21.386,19.19 20.518,19.849 19.448,20.077 C 18.379,20.304 17.577,21.493 18.584,21.521 C 19.592,21.548 20.407,20.627 20.342,20.926 C 20.277,21.225 18.91,22.291 17.193,22.644 C 15.714,22.992 14.614,22.605 14.614,22.605 Z M 13.281,36.621 C 13.4,36.745 15.833,33.691 17.018,31.136 C 18.204,28.58 18.431,27.355 18.431,27.355 C 18.431,27.355 15.445,28.243 14.394,29.184 C 13.344,30.124 13.23,30.543 13.331,30.579 C 13.432,30.616 14.954,29.541 15.628,29.901 C 16.302,30.261 15.344,31.945 14.837,31.761 C 14.329,31.576 14.517,30.954 14.517,30.954 C 14.517,30.954 13.594,31.384 14.145,32.084 C 14.695,32.783 14.419,34.542 13.795,34.468 C 13.17,34.394 13.503,32.867 13.385,32.804 C 13.267,32.741 12.5,33.717 12.991,34.732 C 13.42,35.712 13.281,36.621 13.281,36.621 Z M 13.377,37.307 C 13.195,37.241 16.735,34.024 18.155,31.224 C 19.575,28.424 20.268,26.835 20.268,26.835 L 22.504,26.269 C 22.504,26.269 20.678,30.609 17.801,33.779 C 14.924,36.95 13.377,37.307 13.377,37.307 Z M 9.402,5.392 L 10.348,4.107 L 10.761,3.605 C 10.761,3.605 11.254,4.303 10.994,5.492 C 10.733,6.682 10.112,6.495 10.112,6.495 C 10.112,6.495 10.412,5.933 10.308,5.587 C 10.203,5.243 9.795,5.574 9.842,5.974 C 9.888,6.374 9.402,5.392 9.402,5.392 Z M 7.745,7.684 C 7.745,7.684 7.587,7.224 8.118,6.554 C 8.648,5.885 7.988,7.121 8.432,7.532 C 8.877,7.943 9.24,7.155 9.24,7.155 C 9.24,7.155 9.615,8.02 8.921,8.4 C 8.228,8.78 7.745,7.684 7.745,7.684 Z M 10.723,15.46 C 10.723,15.46 7.533,15.487 6.916,15.129 C 6.3,14.77 6.044,13.68 6.287,13.116 C 6.531,12.553 6.935,9.928 7.4,8.888 C 7.865,7.85 7.001,11.497 6.821,12.333 C 6.641,13.169 7.155,12.627 7.422,13.261 C 7.69,13.896 6.767,14.327 7.839,14.698 C 8.939,15.017 10.794,15.327 10.723,15.46 Z M 11.655,39.882 L 10.893,40.659 C 10.893,40.659 11.024,40.036 11.088,39.753 C 11.154,39.469 11.655,39.882 11.655,39.882 Z" fill="&stroke_color;" marker-end="none" marker-start="none"/>
    </g>
   </g>
  </g>
 </g>
</svg>