<?xml version="1.0" encoding="UTF-8" standalone="no"?>
<!-- Created with Inkscape (http://www.inkscape.org/) -->
<!DOCTYPE svg PUBLIC "-//W3C//DTD SVG 1.1//EN" "http://www.w3.org/Graphics/SVG/1.1/DTD/svg11.dtd" [
  <!ENTITY fill_color "#FFFFFF">
  <!ENTITY stroke_color "#000000">
]>
<svg
   xmlns:svg="http://www.w3.org/2000/svg"
   xmlns="http://www.w3.org/2000/svg"
   version="1.0"
   width="48"
   height="48"
   id="svg2">
  <defs
     id="defs10" />
  <g
     transform="matrix(0.7841945,0,0,0.7841945,0.2187336,0.6636294)"
     id="g2177">
    <path
       d="M 54.273278,14.330371 C 55.728695,12.433679 54.962666,11.02425 53.664502,9.9815434 C 50.661013,7.6276907 47.543276,4.5604985 46.402868,6.1715026 C 44.523132,8.1422691 43.303355,9.4135719 40.549806,12.861822 C 39.360704,14.297478 37.551234,19.563167 33.286624,17.182661 C 28.929631,14.750921 28.221874,10.732121 30.839183,9.0585888 C 34.468359,6.7942135 37.371569,11.693694 38.53868,10.72091 C 42.047773,7.7412342 44.461213,3.2354481 47.775307,0.017520581 C 47.905276,-0.1086775 48.532027,0.092660942 48.865747,0.26255948 C 49.782445,0.63455975 59.279737,7.9002877 59.706209,8.6737004 C 60.039927,8.8435994 60.28569,9.4528757 60.349638,9.6385919 C 60.88712,11.199573 58.109497,14.419189 57.463727,15.058948 C 55.583991,17.029714 54.348207,18.276471 51.594657,21.72472 C 50.405556,23.160379 48.612091,28.450613 44.347484,26.070103 C 39.990489,23.638364 39.28273,19.619565 41.900036,17.946031 C 45.529218,15.681657 48.416417,20.556594 49.583533,19.58381 C 51.338078,18.093972 52.81787,16.227062 54.273278,14.330371 z"
       id="path5"
       style="fill:&fill_color;;fill-rule:evenodd;stroke:&stroke_color;;stroke-width:1.32758582" />
    <path
       d="M 26.595178,43.060236 C 27.659096,40.448653 26.536875,39.02652 24.949357,38.179706 C 21.290088,36.288535 17.345957,33.600851 16.54146,35.792179 C 15.055522,38.608885 14.089527,40.427908 12.043931,45.206033 C 11.148072,47.207354 10.504313,53.831565 5.5331454,52.263377 C 0.45436436,50.661608 -1.216863,46.192199 1.1021094,43.513738 C 4.3307291,39.864996 8.4806256,44.741189 9.4618096,43.283692 C 12.399064,38.837793 13.845584,32.926737 16.525313,28.258825 C 16.630402,28.075765 17.326313,28.133723 17.711496,28.237409 C 18.747452,28.41223 30.276958,34.186262 30.899103,34.964928 C 31.284286,35.068613 31.681013,35.707345 31.790587,35.905114 C 32.711573,37.567429 30.587663,42.086738 30.068474,43.01109 C 28.582541,45.8278 27.594238,47.622804 25.548644,52.400928 C 24.652784,54.40225 24.031327,61.050477 19.060159,59.482291 C 13.98138,57.880524 12.31015,53.411115 14.629124,50.732652 C 17.857745,47.083909 21.985336,51.936085 22.966521,50.478586 C 24.435147,48.255636 25.531259,45.671809 26.595178,43.060236 z"
       id="path2387"
       style="fill:&fill_color;;fill-rule:evenodd;stroke:&stroke_color;;stroke-width:1.49500978" />
    <path
       d="M 53.471965,36.055645 C 52.642802,34.00682 50.855661,34.289824 49.069919,35.213981 C 44.992463,37.371524 40.183822,39.405065 40.948801,41.05168 C 41.577427,43.539642 41.978387,45.151603 43.417667,48.981545 C 43.989852,50.617821 47.705923,54.12555 42.804539,57.506691 C 37.79729,60.96119 33.637294,60.325271 33.750641,57.214725 C 33.95967,52.920167 40.324485,51.701545 40.165837,50.239656 C 39.638163,45.826163 37.006676,41.979239 36.13538,37.677606 C 36.101213,37.508907 36.684391,36.962933 37.052811,36.692934 C 37.97737,35.919995 50.706838,29.039081 51.6914,28.877808 C 52.059818,28.607809 52.778259,28.568905 52.9903,28.567764 C 54.772545,28.558173 55.985423,32.336112 56.166952,33.178519 C 56.795584,35.666472 57.163732,37.285971 58.603008,41.115912 C 59.17519,42.752192 62.924077,46.252385 58.02269,49.633527 C 53.015442,53.08802 48.855445,52.452104 48.968792,49.341558 C 49.17782,45.047007 55.509825,43.835912 55.351177,42.374021 C 55.087338,40.167277 54.301129,38.104469 53.471965,36.055645 z"
       id="path2389"
       style="fill:&fill_color;;fill-rule:evenodd;stroke:&stroke_color;;stroke-width:1.39986825" />
    <path
       d="M 17.004359,6.6828134 C 15.630479,4.7462598 13.949342,4.9943177 12.444242,5.8457675 C 9.0204911,7.8344872 4.843603,9.6990447 6.0447696,11.256438 C 7.3409816,13.604196 8.1745729,15.125258 10.633896,18.744197 C 11.642567,20.28989 16.254075,23.62887 12.353053,26.760659 C 8.3678576,29.9604 4.101926,29.319447 3.3660844,26.393376 C 2.4018376,22.354051 8.3317161,21.272286 7.777396,19.894932 C 6.0559659,15.736147 2.4190953,12.089049 0.3900733,8.0320171 C 0.31050041,7.8729127 0.7355165,7.3650763 1.0244241,7.1147554 C 1.7234681,6.396814 12.372557,0.051502847 13.297258,-0.090205088 C 13.586165,-0.34052519 14.282389,-0.36979259 14.490688,-0.36870026 C 16.24149,-0.3595157 18.463905,3.208172 18.871978,4.0027846 C 20.168194,6.3505401 20.971557,7.8783561 23.430876,11.497296 C 24.439552,13.042991 29.081286,16.375214 25.180263,19.507004 C 21.195069,22.706746 16.929134,22.065795 16.193292,19.139721 C 15.229047,15.100395 21.128698,14.025387 20.574381,12.648031 C 19.713662,10.568637 18.378235,8.6193654 17.004359,6.6828134 z"
       id="path2391"
       style="fill:&fill_color;;fill-rule:evenodd;stroke:&stroke_color;;stroke-width:1.34493685" />
  </g>
</svg>
