<?xml version="1.0" encoding="UTF-8" standalone="no"?>
<!-- Created with Inkscape (http://www.inkscape.org/) -->

<svg
   xmlns:dc="http://purl.org/dc/elements/1.1/"
   xmlns:cc="http://creativecommons.org/ns#"
   xmlns:rdf="http://www.w3.org/1999/02/22-rdf-syntax-ns#"
   xmlns:svg="http://www.w3.org/2000/svg"
   xmlns="http://www.w3.org/2000/svg"
   xmlns:sodipodi="http://sodipodi.sourceforge.net/DTD/sodipodi-0.dtd"
   xmlns:inkscape="http://www.inkscape.org/namespaces/inkscape"
   id="svg2"
   sodipodi:version="0.32"
   inkscape:version="0.48.2 r9819"
   width="460"
   height="570"
   version="1.0"
   sodipodi:docname="Macedonian golden lion.svg"
   inkscape:output_extension="org.inkscape.output.svg.inkscape">
  <metadata
     id="metadata7">
    <rdf:RDF>
      <cc:Work
         rdf:about="">
        <dc:format>image/svg+xml</dc:format>
        <dc:type
           rdf:resource="http://purl.org/dc/dcmitype/StillImage" />
        <dc:title />
      </cc:Work>
    </rdf:RDF>
  </metadata>
  <defs
     id="defs5">
    <inkscape:perspective
       sodipodi:type="inkscape:persp3d"
       inkscape:vp_x="0 : 526.18109 : 1"
       inkscape:vp_y="0 : 1000 : 0"
       inkscape:vp_z="744.09448 : 526.18109 : 1"
       inkscape:persp3d-origin="372.04724 : 350.78739 : 1"
       id="perspective9" />
    <inkscape:perspective
       sodipodi:type="inkscape:persp3d"
       inkscape:vp_x="0 : 526.18109 : 1"
       inkscape:vp_y="0 : 1000 : 0"
       inkscape:vp_z="744.09448 : 526.18109 : 1"
       inkscape:persp3d-origin="372.04724 : 350.78739 : 1"
       id="perspective2535" />
    <inkscape:perspective
       sodipodi:type="inkscape:persp3d"
       inkscape:vp_x="0 : 526.18109 : 1"
       inkscape:vp_y="0 : 1000 : 0"
       inkscape:vp_z="744.09448 : 526.18109 : 1"
       inkscape:persp3d-origin="372.04724 : 350.78739 : 1"
       id="perspective2464" />
    <inkscape:perspective
       id="perspective2498"
       inkscape:persp3d-origin="372.04724 : 350.78739 : 1"
       inkscape:vp_z="744.09448 : 526.18109 : 1"
       inkscape:vp_y="0 : 1000 : 0"
       inkscape:vp_x="0 : 526.18109 : 1"
       sodipodi:type="inkscape:persp3d" />
  </defs>
  <sodipodi:namedview
     inkscape:window-height="738"
     inkscape:window-width="1280"
     inkscape:pageshadow="2"
     inkscape:pageopacity="0.0"
     guidetolerance="10.0"
     gridtolerance="10.0"
     objecttolerance="10.0"
     borderopacity="1.0"
     bordercolor="#666666"
     pagecolor="#ffffff"
     id="base"
     showgrid="false"
     inkscape:zoom="0.53408871"
     inkscape:cx="373.22336"
     inkscape:cy="205.42967"
     inkscape:window-x="0"
     inkscape:window-y="24"
     inkscape:current-layer="svg2"
     inkscape:window-maximized="0" />
  <g
     id="g2424"
     transform="matrix(1.1852424,0,0,1.1335194,497.29702,19.204937)"
     style="fill:#ffe600;fill-opacity:1">
    <path
       id="path2384"
       d="m -222.31255,481.52821 c -0.78631,-1.6023 -1.782,-4.88714 -2.21264,-7.29964 -2.1919,-12.27907 -2.18511,-13.89363 0.069,-16.38439 1.46692,-1.62093 1.81376,-2.89829 1.00628,-3.70577 -0.80749,-0.80745 -2.21894,0.10236 -4.09475,2.63953 -2.2712,3.07189 -2.77425,5.14504 -2.43524,10.03535 0.4083,5.88982 0.2847,6.16357 -2.78282,6.16281 -3.30784,-7.9e-4 -8.69573,4.03189 -8.69573,6.50851 0,0.76923 -1.14441,0.363 -2.54314,-0.90283 -2.25312,-2.03902 -2.50189,-3.57429 -2.18148,-13.46291 0.28772,-8.88 0.80755,-11.48745 2.54313,-12.75655 2.63725,-1.92838 2.85979,-4.45193 0.39258,-4.45193 -2.52112,0 -6.98381,6.04872 -6.98381,9.46586 0,5.37528 -1.20587,6.77316 -5.16036,5.98226 -2.59343,-0.51868 -4.43322,-0.0548 -6.22939,1.57073 -2.18403,1.97652 -2.71472,2.0448 -3.70654,0.47678 -2.13589,-3.37684 -1.22391,-7.63448 2.41473,-11.27312 1.98586,-1.98583 3.96648,-5.02833 4.40135,-6.76104 0.43488,-1.73274 1.48891,-3.73049 2.34227,-4.43949 0.85336,-0.70899 2.96147,-2.39805 4.68469,-3.75345 3.10259,-2.44032 3.10606,-2.46477 0.35692,-2.50605 -1.5269,-0.0229 -4.6585,1.61098 -6.9591,3.63094 -3.99868,3.51092 -4.24836,3.56783 -5.66919,1.29271 -0.81746,-1.30894 -3.19408,-2.82245 -5.28139,-3.36332 -3.64823,-0.94539 -3.71876,-1.09238 -1.82282,-3.79922 1.16268,-1.66003 3.2766,-2.8158 5.14994,-2.8158 1.74775,0 4.61162,-1.12792 6.36419,-2.50649 3.99855,-3.14529 11.02476,-3.23957 16.00755,-0.21481 8.29912,5.03789 25.69362,6.85896 33.56461,3.51393 4.70632,-2.0001 13.84275,-10.58793 23.50942,-22.09782 3.76287,-4.48036 7.12513,-8.42809 7.4717,-8.77273 1.44342,-1.43534 7.51596,-10.85599 7.51596,-11.65989 0,-0.47993 -2.50584,-0.87258 -5.56855,-0.87258 -4.01262,0 -6.02611,0.65291 -7.20617,2.33671 -1.68567,2.40524 -10.59008,7.68927 -12.95767,7.68927 -0.8549,0 -1.14722,-2.88941 -0.81698,-8.0758 0.49029,-7.69946 0.31028,-8.32725 -3.86254,-13.4724 -6.11781,-7.54334 -9.42692,-14.60426 -11.47314,-24.48115 -2.77324,-13.38624 -3.44976,-26.26038 -2.09238,-39.81805 l 1.25475,-12.53247 -6.5234,-6.64861 c -3.58787,-3.65673 -9.62518,-9.01294 -13.41626,-11.90268 -3.79107,-2.88973 -7.17483,-5.53747 -7.51948,-5.88385 -2.80424,-2.81842 -17.83568,-9.75163 -28.58535,-13.18492 -6.69475,-2.13823 -12.53846,-3.08335 -19.13288,-3.09446 -8.31527,-0.014 -9.83257,0.34418 -12.21916,2.88458 -4.9841,5.30531 -2.37806,14.76744 4.54718,16.51023 l 3.38047,0.85073 -3.46643,2.98537 c -5.18607,4.46647 -12.83594,6.17096 -19.71863,4.39358 -3.10179,-0.80101 -6.89223,-1.77082 -8.42321,-2.15514 -2.03876,-0.51178 -3.59499,0.2607 -5.81577,2.88683 -1.66769,1.97208 -4.50378,5.16555 -6.30243,7.09661 -1.79864,1.93106 -3.27028,3.67762 -3.27028,3.88129 0,0.20368 1.12792,1.6708 2.50649,3.26031 2.66407,3.07169 3.33612,8.11206 1.25325,9.39935 -0.68929,0.426 -1.25325,3.15361 -1.25325,6.06134 0,5.03854 -2.67137,10.85749 -4.98447,10.85749 -0.59542,0 -1.45421,-1.69188 -1.90838,-3.75974 -0.70905,-3.22826 -1.39632,-3.75974 -4.86192,-3.75974 -2.21987,0 -4.7015,-0.66536 -5.5147,-1.47857 -2.00664,-2.00665 -7.44188,0.9193 -9.65394,5.19695 -3.53775,6.84126 -8.79127,9.43071 -13.82984,6.81667 -3.12423,-1.62087 -3.88104,-1.5552 -7.64036,0.66285 -2.29495,1.35404 -4.45838,1.99955 -4.80764,1.43445 -0.34925,-0.56513 -0.27806,-5.65642 0.15824,-11.31404 0.69437,-9.00432 1.15969,-10.5087 3.73305,-12.06866 1.61689,-0.98017 4.36771,-2.65284 6.11289,-3.71704 1.74518,-1.06424 2.87952,-2.40987 2.52077,-2.99035 -0.91554,-1.48134 -9.44127,1.64967 -12.91334,4.74234 -2.79031,2.48538 -6.5662,2.45836 -6.5662,-0.047 0,-0.66823 -2.35454,-1.04499 -5.23232,-0.83721 -2.87775,0.20779 -5.41336,-0.17207 -5.63463,-0.84409 -0.63516,-1.92906 4.37558,-9.368 6.31012,-9.368 0.96044,0 2.41582,-1.61649 3.23419,-3.59219 2.09034,-5.04658 5.88909,-6.7891 11.34034,-5.20197 5.2703,1.53444 7.52775,1.61638 7.52775,0.2732 0,-1.39312 -7.62479,-4.01151 -11.68151,-4.01151 -2.27097,0 -3.35745,-0.66253 -3.35745,-2.04736 0,-2.05082 -5.93021,-7.9742 -7.98624,-7.97708 -2.63247,-0.004 2.27503,-3.67684 5.87966,-4.4008 2.19255,-0.44033 5.80724,-1.62525 8.03266,-2.63311 3.56361,-1.61391 4.47974,-1.60829 7.68092,0.0471 1.99911,1.03375 3.92511,2.63633 4.28004,3.56126 0.35493,0.92493 2.93173,2.43626 5.72625,3.35853 7.5564,2.49383 10.47397,0.68658 26.59146,-16.4716 l 14.20532,-15.12254 -3.06706,-2.27768 c -1.68686,-1.25269 -4.05397,-3.15265 -5.26022,-4.22212 -1.20625,-1.06945 -2.61615,-1.94701 -3.13311,-1.9501 -1.44461,-0.009 -16.60552,-13.82557 -16.60552,-15.13345 0,-0.6342 0.88651,-1.15313 1.97001,-1.15313 2.5788,0 12.23673,-5.55269 19.33518,-11.11647 5.97552,-4.68364 9.93057,-8.75043 15.03896,-15.46392 5.89866,-7.75203 21.92825,-23.09761 28.82468,-27.59465 12.01529,-7.83496 16.50279,-9.45532 33.83766,-12.21826 16.45075,-2.62203 23.81169,-4.66257 23.81169,-6.60095 0,-0.52102 0.76924,-0.94731 1.70943,-0.94731 2.49109,0 8.0045,-8.64145 8.99543,-14.09903 0.8505,-4.68412 0.83937,-4.69926 -3.35922,-4.57475 -7.64599,0.22676 -10.20967,1.62827 -13.15027,7.189 l -2.83413,5.35945 -5.04473,-5.19822 c -5.98649,-6.16871 -7.65129,-12.22349 -4.6291,-16.83594 1.11121,-1.69591 2.05856,-4.09027 2.1052,-5.32077 0.0697,-1.83848 0.32543,-1.73868 1.43461,0.55976 1.61544,3.34758 7.73683,4.80292 12.53261,2.97955 3.89484,-1.48082 7.26546,-7.21568 7.22564,-12.29389 -0.0457,-5.832895 -4.46851,-14.026405 -8.37479,-15.515005 -7.04155,-2.68342 -15.37187,1.3605 -15.45162,7.50091 -0.0315,2.42533 -1.30604,0.73452 -5.01298,-6.65015 -6.83661,-13.619313 -6.68231,-15.324363 1.50517,-16.633583 9.51649,-1.5217 9.44968,-4.16864 -0.10526,-4.16864 -5.45269,0 -7.62391,-0.46789 -7.62391,-1.64294 0,-2.04645 8.0827,-4.00441 24.43831,-5.91999 6.89286,-0.80729 13.74827,-2.04058 15.23425,-2.74066 1.60174,-0.75458 9.51099,-1.05311 19.42533,-0.73317 13.83225,0.44635 17.74261,1.01455 22.61801,3.28642 10.33492,4.81593 19.83275,18.468453 25.44464,36.575023 4.71344,15.207795 6.39537,20.349685 7.5447,23.065245 0.92684,2.18996 0.58546,2.31877 -4.14241,1.56274 l -5.15254,-0.82391 2.49468,5.63961 c 2.8849,6.52179 3.51514,26.61062 1.06754,34.02695 -0.78491,2.37834 -1.23353,7.11751 -0.99691,10.53149 0.23663,3.41396 0.22967,6.20687 -0.0155,6.20644 -0.24514,-4.1e-4 -2.17345,-1.45457 -4.28512,-3.23141 l -3.83939,-3.23065 -2.10341,7.93032 c -3.09393,11.66483 -6.58293,17.35275 -18.3781,29.96079 -9.19826,9.83218 -10.38471,11.59993 -8.94835,13.33285 0.91075,1.09879 5.03968,5.45702 9.1754,9.68492 4.13571,4.22791 18.23474,18.90539 31.33117,32.61664 39.63092,41.49139 46.23209,47.93329 51.27967,50.04229 20.892885,8.72961 41.739985,-12.53459 32.582595,-33.23453 -2.27984,-5.15341 -9.52098,-9.87849 -15.13879,-9.87849 -7.459991,0 -13.823755,8.12996 -12.381501,15.81783 1.00912,5.37891 -0.26337,5.33878 -5.609424,-0.17694 -3.87123,-3.99409 -4.27948,-5.11268 -4.3189,-11.83331 -0.0396,-6.7543 0.33571,-7.81378 4.17042,-11.77286 2.31765,-2.39285 3.85664,-4.92873 3.41993,-5.63533 -0.49186,-0.79581 -7.34192,-1.19472 -17.99965,-1.04823 l -17.20565,0.2365 -6.72711,-4.15225 c -13.30875,-8.21475 -19.10544,-19.15296 -19.15279,-36.14083 -0.0252,-9.04396 0.45325,-11.48215 3.35282,-17.08594 4.08071,-7.88647 6.77763,-11.12268 8.42215,-10.10631 0.67411,0.41662 2.54853,3.74873 4.16535,7.40466 2.76612,6.25475 2.82382,6.8794 0.97696,10.58153 -1.39527,2.79695 -1.81355,6.35417 -1.44673,12.30442 0.45656,7.40569 1.01374,8.93 4.83606,13.23005 6.51246,7.32646 10.15184,8.41117 25.25191,7.52629 l 12.90579,-0.75631 4.07305,3.69617 c 2.240184,2.03286 4.073064,4.35078 4.073064,5.1509 0,0.80012 0.56396,1.45477 1.25324,1.45477 2.23893,0 1.33291,-3.85212 -2.60726,-11.08521 -5.155894,-9.46477 -9.609144,-13.88388 -22.382974,-22.21128 -16.9963,-11.08005 -25.26728,-23.84077 -27.20815,-41.9775 -2.04061,-19.06855 9.54494,-40.26913 27.19576,-49.76608 4.95326,-2.6651 10.15917,-4.16857 18.08678,-5.22354 13.514965,-1.7985 17.238115,-4.08582 19.437605,-11.94164 0.87432,-3.12281 2.28629,-5.67787 3.13769,-5.67787 2.60661,0 7.82781,4.80298 8.61029,7.92065 0.60131,2.39575 2.09345,3.24969 7.97363,4.56322 6.831951,1.52614 12.888671,5.27238 16.250241,10.05119 3.15273,4.48195 -9.49143,15.06234 -18.000401,15.06234 -2.0409,0 -3.72631,1.19871 -5.13397,3.65141 -2.40758,4.195 -8.3991,8.15229 -10.89361,7.19506 -0.93327,-0.35812 -2.06122,-2.3103 -2.50662,-4.33817 -0.44539,-2.02786 -2.23654,-5.02677 -3.98034,-6.66423 -2.73418,-2.56746 -4.336431,-2.95733 -11.642561,-2.8329 -6.792384,0.11566 -9.625374,0.82019 -14.289394,3.5535 -14.33203,8.39913 -21.80009,27.08429 -16.03447,40.11845 1.46111,3.30309 2.65658,6.55748 2.65658,7.23197 0,3.39584 10.99278,13.19569 20.06386,17.88652 6.389644,3.30422 17.737465,15.6891 21.919915,23.92315 2.06786,4.07104 3.90918,7.6453 4.09183,7.94283 0.18268,0.29753 2.15651,-1.2049 4.38636,-3.33872 3.9696,-3.79861 7.54981,-4.74259 16.22272,-4.27729 2.875851,0.15428 9.772501,5.58778 9.759381,7.68886 -0.0022,0.35169 -2.60331,0.65625 -5.78026,0.67679 -13.763171,0.089 -16.047041,15.45597 -4.048761,27.24198 1.23983,1.2179 3.465191,6.20105 4.945191,11.07364 6.90706,22.73991 -1.58622,44.4225 -21.132701,53.9501 -7.39702,3.60558 -9.6866,4.11578 -18.469731,4.11578 -8.742794,10e-6 -11.084414,-0.51625 -18.295904,-4.03364 -7.56571,-3.69019 -21.99224,-16.35193 -25.23685,-22.14971 -1.75251,-3.13157 -3.84256,-2.2871 -9.94819,4.01936 -14.01079,14.47164 -19.07621,30.34041 -14.1457,44.31493 2.45593,6.96084 7.35028,12.07002 13.25814,13.84006 6.30459,1.88889 10.73992,0.51214 13.62296,-4.22864 2.20416,-3.62449 2.49999,-3.75758 3.40756,-1.53292 0.54664,1.33987 0.92541,6.48335 0.84178,11.42997 -0.16393,9.69794 -3.9116,19.68448 -11.73984,31.28374 -2.07558,3.07536 -3.7737,5.88509 -3.7737,6.24384 0,0.35875 -2.22249,3.29127 -4.93885,6.51671 -3.95066,4.69112 -5.18829,7.41797 -6.1856,13.62897 -0.68571,4.27052 -1.87397,8.93649 -2.64056,10.36888 -1.28701,2.40483 -1.54996,2.4482 -3.43186,0.56631 -1.45046,-1.45048 -3.33009,-1.83618 -6.51961,-1.33784 -5.54583,0.86646 -11.6188,7.37213 -15.95316,17.08978 -5.35563,12.00742 -11.16127,16.30485 -22.02717,16.30485 -5.35888,0 -7.04263,0.51907 -8.52166,2.62704 -1.01377,1.44487 -2.43037,3.46079 -3.14799,4.47982 -1.09831,1.55957 -1.531,1.39178 -2.73441,-1.06048 l 1e-5,10e-6 z m 40.91276,-397.847085 c 1.43202,-1.82053 2.60158,-5.06687 2.59899,-7.2141 -0.009,-7.253253 -8.26391,-16.815313 -11.61985,-13.459363 -0.93713,0.93714 -0.34266,2.31628 2.01442,4.67337 4.30435,4.30433 4.64249,12.110843 0.70609,16.300943 -3.11038,3.31085 -2.19699,6.16338 1.36342,4.25792 1.28326,-0.6868 3.50489,-2.73824 4.93693,-4.55877 z m -37.42973,-15.209633 c 9.94757,-3.10673 9.64522,-4.61762 -1.01042,-5.04945 l -9.08604,-0.36822 0,3.81465 c 0,4.44272 0.66551,4.54838 10.09647,1.603 l -1e-5,2e-5 z"
       style="fill:#ffe600;fill-opacity:1;fill-rule:evenodd;stroke:none"
       inkscape:connector-curvature="0" />
    <path
       id="path2386"
       d="m -332.97667,410.85757 c -0.81189,-2.13549 -0.78667,-4.02935 0.0751,-5.63962 0.86098,-1.60875 0.88268,-3.19959 0.0645,-4.72832 -1.40084,-2.61752 -0.55912,-7.01099 2.14719,-11.20764 1.01398,-1.57238 1.51945,-3.18311 1.12321,-3.57935 -1.18066,-1.18069 -6.97211,5.3387 -7.85009,8.83683 -0.92753,3.69564 -2.06525,4.05566 -4.30147,1.36118 -1.99183,-2.40002 -4.33752,-2.38023 -8.07414,0.0681 -1.78491,1.16949 -3.27335,1.46195 -3.72462,0.73179 -1.01146,-1.63654 1.03621,-6.77453 3.5221,-8.83764 1.10575,-0.91767 2.01043,-2.75539 2.01043,-4.08378 0,-3.76298 3.46748,-9.54862 6.25248,-10.43255 2.65383,-0.84229 3.49295,-3.13748 1.14705,-3.13748 -2.52347,0 -8.64729,4.27463 -9.36546,6.5374 -1.02431,3.22726 -3.90022,2.74674 -4.7905,-0.80041 -0.51388,-2.04747 -2.19007,-3.50707 -5.14885,-4.48355 -2.41283,-0.7963 -4.38308,-1.82706 -4.37837,-2.29056 0.0123,-1.21298 8.00489,-6.48236 9.8324,-6.48236 0.84688,0 3.22617,-1.24682 5.28733,-2.7707 3.71652,-2.74774 3.78368,-2.75127 8.10286,-0.42524 2.39539,1.29002 4.76643,1.93429 5.26899,1.43175 1.59,-1.59 -5.14428,-5.69839 -9.38813,-5.72742 -4.30655,-0.0295 -5.04776,-1.05835 -2.55686,-3.54925 1.1861,-1.1861 1.03424,-2.33208 -0.69747,-5.26364 l -2.21367,-3.74745 4.8332,0 c 2.65825,0 5.47794,0.64476 6.26598,1.4328 0.78805,0.78803 3.19607,1.57151 5.35116,1.74105 2.9605,0.23289 5.70575,2.18081 11.23016,7.96853 4.43832,4.64987 9.9447,8.88599 14.0115,10.77918 6.14615,2.86119 8.1753,3.11991 24.55847,3.13113 11.55603,0.008 17.85877,-0.44854 17.85877,-1.2934 0,-0.71811 -1.1898,-2.55098 -2.644,-4.07305 -9.89862,-10.36063 -16.71927,-23.13716 -18.05382,-33.81867 -0.49292,-3.94501 -1.45092,-7.17276 -2.12893,-7.17276 -3.31486,0 -10.23861,-4.60049 -12.96731,-8.61614 -1.68112,-2.47398 -3.05659,-4.85913 -3.05659,-5.30033 0,-0.44116 2.30759,-1.17114 5.128,-1.62214 7.69242,-1.23007 13.9353,-4.92855 19.23389,-11.39478 2.61636,-3.19295 7.08767,-7.31576 9.93621,-9.16185 4.43872,-2.87661 6.52298,-3.35832 14.57852,-3.36926 7.75354,-0.0105 10.09156,0.48097 13.35256,2.80703 2.17427,1.55089 4.68388,2.81981 5.57694,2.81981 1.26291,0 1.28955,0.3342 0.11985,1.50389 -3.27254,3.27252 -1.50863,6.88265 7.26883,14.87701 8.74371,7.96362 8.77273,8.01192 8.77273,14.60327 0,7.06109 -1.15164,8.03223 -5.56583,4.69351 -5.38672,-4.07431 -15.576,-0.76613 -18.36285,5.9619 -2.45101,5.91728 -0.69771,17.26352 4.04181,26.15574 4.05508,7.60807 15.48391,20.45272 22.89776,25.73431 4.46071,3.17779 3.75158,4.5481 -4.52351,8.74141 -4.91953,2.49294 -10.18789,3.64847 -23.40968,5.13466 -18.31545,2.05871 -22.343,3.0724 -26.09482,6.56775 -5.04231,4.69762 -10.39197,6.43458 -10.39197,3.37413 0,-0.94097 -1.16885,-3.19682 -2.59745,-5.01299 -3.93707,-5.00514 -9.47823,-4.49065 -16.33812,1.51695 -7.97466,6.98386 -10.57873,8.08251 -16.90805,7.13336 -4.79725,-0.71937 -5.87814,-0.42253 -8.68637,2.3857 -3.95885,3.95885 -4.12302,3.95864 -5.63107,-0.008 l -2e-5,10e-6 z"
       style="fill:#ffe600;fill-opacity:1;fill-rule:evenodd;stroke:none"
       inkscape:connector-curvature="0" />
    <path
       id="path2388"
       d="m -356.82465,188.9862 -13.07591,-13.28782 -4.47735,5.19859 -4.47735,5.19856 -9.84224,-0.37015 c -10.39884,-0.39111 -12.84351,-1.91655 -7.58319,-4.73178 2.78198,-1.48885 3.05466,-2.2432 2.36655,-6.5464 -0.64004,-4.00269 -0.26552,-5.40883 2.11589,-7.94372 l 2.89361,-3.0801 -2.84248,-3.02565 c -1.56334,-1.66413 -5.32739,-4.59639 -8.36455,-6.51616 -5.52778,-3.49405 -6.0551,-4.65323 -5.54799,-12.19544 0.14903,-2.21651 -0.81792,-4.69096 -2.55614,-6.5412 l -2.79583,-2.97603 3.59333,-1.36619 c 2.60519,-0.99048 4.43098,-0.98453 6.63933,0.0217 2.12343,0.96752 3.44373,0.99009 4.35923,0.0746 2.2867,-2.28673 6.62261,-1.42701 10.0404,1.99077 1.8172,1.81722 3.30401,3.83136 3.30401,4.47588 0,1.78966 3.76761,5.16246 4.71191,4.21815 0.45803,-0.45806 0.14921,-1.92744 -0.68629,-3.26531 -0.83553,-1.33785 -1.51913,-3.23596 -1.51913,-4.21796 0,-0.982 -1.55089,-3.10451 -3.44643,-4.71668 -2.61944,-2.22788 -3.48341,-4.13409 -3.60055,-7.9442 -0.0847,-2.75714 -0.36674,-6.14063 -0.62662,-7.51888 -0.80058,-4.2459 4.56739,-3.92624 9.03142,0.53778 2.11638,2.11639 4.87004,3.84799 6.11923,3.84799 4.18502,0 7.92623,4.31393 8.70426,10.03675 1.01662,7.47757 3.87064,8.19351 3.87064,0.97092 0,-3.02136 -0.62036,-6.11375 -1.37857,-6.87196 -1.00259,-1.00259 -0.6608,-2.09634 1.25325,-4.01039 1.44751,-1.44751 2.63181,-4.04172 2.63181,-5.76494 0,-2.26714 0.67314,-3.13311 2.43544,-3.13311 2.89991,0 6.33729,4.4865 6.33729,8.2715 0,1.48544 0.84594,3.40288 1.87987,4.26097 2.3575,1.95654 2.3575,8.40847 0,12.53246 -0.98507,1.72322 -1.81104,5.70152 -1.83545,8.84068 -0.057,7.3303 3.92048,13.63223 16.74582,26.53175 l 9.62521,9.68085 -1.89292,3.6605 c -2.10229,4.06538 -16.18498,18.96155 -17.92605,18.96155 -0.60915,0 -6.99168,-5.97953 -14.18345,-13.28784 l -1e-5,1e-5 z"
       style="fill:#ffe600;fill-opacity:1;fill-rule:evenodd;stroke:none"
       inkscape:connector-curvature="0" />
    <path
       id="path2390"
       d="m -314.14676,122.53387 c -16.59111,-7.41976 -15.78582,-31.135315 1.14826,-33.816095 5.10052,-0.80745 5.46079,-0.68898 4.59307,1.5105 -3.73591,9.46963 -0.80578,18.707165 6.36032,20.051535 5.52354,1.03624 15.22185,-0.24372 21.34983,-2.81766 12.35226,-5.18833 44.24982,-10.152755 44.24982,-6.88687 0,0.88663 -2.3481,1.43901 -6.11702,1.43901 -6.31078,0 -21.72899,5.02292 -25.31283,8.24637 -1.08821,0.97878 -2.46175,1.7796 -3.05234,1.7796 -0.5906,0 -2.23807,1.06693 -3.66106,2.37096 -1.423,1.30402 -5.68906,3.98048 -9.48013,5.94769 -8.43273,4.37583 -22.82893,5.41679 -30.07792,2.17495 l 0,10e-6 z"
       style="fill:#ffe600;fill-opacity:1;fill-rule:evenodd;stroke:none"
       inkscape:connector-curvature="0" />
    <path
       id="path2392"
       d="m -81.042855,206.13534 c 0,-4.42425 -4.27329,-10.04768 -9.111411,-11.99018 -2.75081,-1.10448 -8.6464,-1.89711 -14.110434,-1.89711 -8.644,0 -9.68545,-0.28675 -13.18407,-3.63021 -2.08927,-1.99663 -4.3006,-5.38038 -4.91409,-7.51948 l -1.11545,-3.88927 14.54925,0 c 8.00202,0 16.371644,-0.65902 18.599144,-1.46449 4.318161,-1.56148 9.287061,-8.74794 9.287061,-13.43179 0,-3.2777 0.55003,-3.28822 5.69415,-0.10898 2.26057,1.39712 4.69462,4.21693 5.40902,6.26623 0.90637,2.6001 2.12676,3.72605 4.0385,3.72605 5.87279,0 12.548041,3.06948 16.896851,7.76972 4.38632,4.74071 4.45718,4.97142 2.463,8.01493 -2.7991,4.27196 -8.64362,7.62353 -14.940671,8.56782 -4.29037,0.64337 -5.65693,1.55137 -7.50793,4.98845 -3.36544,6.24923 -12.05292,9.56359 -12.05292,4.5983 l 0,1e-5 z"
       style="fill:#ffe600;fill-opacity:1;fill-rule:evenodd;stroke:none"
       inkscape:connector-curvature="0" />
    <path
       id="path2394"
       d="m -263.83786,35.10883 c 10e-6,-9.453228 -2.53191,-26.7013371 -4.85432,-33.0689081 -1.07405,-2.94484196 -1.64182,-5.665239 -1.26171,-6.045337 1.00506,-1.005078 8.13244,2.920191 9.39326,5.173152 0.59089,1.055861 2.98216,2.888747 5.31395,4.073077 4.66466,2.369238 6.40324,5.2864581 3.15055,5.2864581 -3.03781,0 -5.96784,3.437531 -5.96784,7.001526 0,6.308155 7.9025,10.603784 11.51026,6.25671 1.27102,-1.531518 1.97844,-1.493457 5.05424,0.271816 3.06256,1.757666 4.02568,1.812082 6.70402,0.378681 5.80919,-3.108979 5.11796,-11.852719 -1.05956,-13.403173 -1.70331,-0.427508 -3.09694,-1.2801041 -3.09694,-1.8946711 0,-1.520552 4.71198,-6.130369 6.26623,-6.130369 0.68929,0 1.25325,-1.311598 1.25325,-2.91466396 0,-2.90152904 4.63236,-8.36455704 7.0927,-8.36455704 1.96766,0 5.14857,4.00193 6.04863,7.60977704 0.44227,1.77286796 2.46009,4.20158496 4.484,5.39714496 4.49213,2.653562 4.57951,3.660796 0.54675,6.3031541 -3.86501,2.532448 -4.32237,9.303114 -0.84126,12.453475 2.81597,2.548415 5.2533,2.627783 8.43451,0.274624 2.11901,-1.567423 2.80372,-1.558876 5.30965,0.06632 3.6793,2.38617 7.33865,1.211577 9.51841,-3.055328 2.17377,-4.255186 0.77439,-8.254948 -3.71027,-10.604698 l -3.35766,-1.7592701 3.796,-2.703003 c 2.08778,-1.486626 4.16831,-2.702977 4.62336,-2.702977 0.45506,0 2.25101,-1.691883 3.99099,-3.75973996 3.89164,-4.62492004 8.71284,-5.24082804 7.35758,-0.93993604 -2.6293,8.344055 -5.59903,26.5164331 -5.63216,34.4642861 l -0.0379,9.08604 -40.01436,0 -40.0144,0 0,-6.749612 z"
       style="fill:#ffe600;fill-opacity:1;fill-rule:evenodd;stroke:none"
       inkscape:connector-curvature="0" />
    <path
       id="path2396"
       d="m -263.34012,32.145779 c -0.43468,-5.341965 -1.8669,-15.331068 -3.18272,-22.1980081 -1.31582,-6.86694 -2.15136,-12.726395 -1.85675,-13.020996 0.29459,-0.294613 1.58398,0.248156 2.86528,1.206125 1.28131,0.95799404 4.96221,3.683217 8.17977,6.056077 6.50962,4.800674 6.98526,5.749119 3.35871,6.6974761 -1.37028,0.358328 -3.09005,2.226104 -3.82175,4.150603 -1.08929,2.865097 -0.89929,4.079167 1.0488,6.700809 2.44919,3.296027 8.4263,4.927466 10.49044,2.863331 0.71245,-0.712471 3.12339,-0.637176 6.24083,0.194905 4.65908,1.243596 5.27692,1.112519 7.45906,-1.582325 1.30856,-1.616011 2.37922,-3.878172 2.37922,-5.02701 0,-2.915692 -3.53682,-7.659494 -5.71067,-7.659494 -2.90314,0 -2.0853,-3.5207961 1.33904,-5.7644961 1.73129,-1.134389 3.47391,-3.361747 3.87244,-4.94964796 0.95454,-3.80317804 4.94041,-7.31888604 7.27985,-6.42116004 1.02357,0.39278 2.7847,2.576023 3.91364,4.851669 1.12893,2.27564504 3.53482,5.38277 5.3464,6.904713 l 3.29379,2.767181 -2.7744,2.9532011 c -3.26371,3.474088 -3.66792,9.86517 -0.80498,12.728112 2.14983,2.149857 6.44926,2.552425 9.12846,0.854752 0.97539,-0.618064 3.53197,-0.513543 6.00513,0.245486 3.73272,1.145618 4.65456,0.97381 6.91757,-1.289203 3.65933,-3.65933 3.35766,-8.965088 -0.7086,-12.462737 l -3.31952,-2.8553471 4.72944,-3.005073 c 2.60118,-1.652781 5.80376,-4.20613396 7.11685,-5.67411196 3.74473,-4.18649604 6.25306,-3.50837604 5.1933,1.404 -2.93714,13.61489706 -4.36549,23.97997406 -4.40388,31.95779206 l -0.0437,9.08604 -39.37033,0 -39.37035,0 -0.79034,-9.712663 z"
       style="fill:#ffe600;fill-opacity:1;fill-rule:evenodd;stroke:none"
       inkscape:connector-curvature="0" />
    <path
       id="path2398"
       d="m -262.76364,40.284202 c 0,-4.545252 -3.91428,-33.5624641 -5.08653,-37.7072391 -1.58582,-5.607151 -0.91834,-6.877079 2.33586,-4.444063 1.28131,0.95799404 4.96221,3.683217 8.17977,6.056077 6.51398,4.803883 6.98602,5.748918 3.34697,6.7005461 -2.84152,0.743075 -4.94021,5.297725 -4.03539,8.757764 1.02863,3.933465 6.26339,6.572327 10.13714,5.110151 2.1484,-0.810938 4.61356,-0.840177 6.88896,-0.08171 4.71111,1.570369 9.00363,-0.464378 10.08718,-4.781575 0.96126,-3.829934 -1.95772,-9.366879 -4.93804,-9.366879 -2.71564,0 -2.25548,-3.3343001 0.75073,-5.4399301 1.43093,-1.002272 3.5458,-3.670823 4.69967,-5.93012596 3.14317,-6.15436904 6.19238,-7.49935304 8.78036,-3.87299604 1.14969,1.610974 3.97563,5.12110504 6.27989,7.800321 l 4.18954,4.87132 -2.62299,3.3345761 c -1.44265,1.834026 -2.62299,4.863023 -2.62299,6.731088 0,5.772404 6.36535,9.427511 11.14607,6.400268 1.02995,-0.652177 3.22442,-0.59093 5.34776,0.149275 8.45162,2.946257 13.83664,-8.199305 6.68101,-13.827936 l -3.14332,-2.4725441 6.47146,-4.824586 c 3.55932,-2.65351196 7.20263,-5.368583 8.09622,-6.033493 2.96401,-2.205426 3.24326,0.286479 1.14283,10.197844 -1.14341,5.3953651 -2.40363,15.3083971 -2.8005,22.0289321 l -0.7216,12.219157 -39.29504,0 c -30.70275,0 -39.29502,-0.34423 -39.29502,-1.57424 z"
       style="fill:#ffe600;fill-opacity:1;fill-rule:evenodd;stroke:none"
       inkscape:connector-curvature="0" />
    <path
       id="path2400"
       d="m -262.76364,40.254462 c 0,-3.554911 -3.8769,-31.9396211 -5.00171,-36.6200471 -2.12457,-8.840478 -1.77475,-8.889129 8.22908,-1.144477 7.39323,5.723603 9.4062,8.0373341 6.99255,8.0373341 -2.46818,0 -5.20693,3.986992 -5.20693,7.580113 0,5.021935 5.11554,8.44271 9.91592,6.630766 2.09657,-0.791376 4.55528,-0.853537 6.42359,-0.162396 4.31395,1.595834 8.06656,0.300253 9.73469,-3.36087 1.81077,-3.974271 0.11823,-8.907601 -3.44398,-10.038205 -3.43022,-1.088696 -3.25237,-2.6428721 0.86815,-7.5865041 1.89554,-2.274192 4.45969,-5.591398 5.69811,-7.37161 2.98665,-4.293235 5.14448,-4.081361 8.51721,0.836304 1.53639,2.24017804 4.18267,5.586924 5.88061,7.437217 l 3.08714,3.364178 -2.66214,3.3843681 c -5.31907,6.762118 -1.64923,15.56659 5.75334,13.803084 4.8442,-1.154027 5.54741,-1.165544 9.33466,-0.152821 2.51559,0.672668 3.98203,0.248344 5.95292,-1.72255 3.46177,-3.461743 3.31128,-8.299088 -0.37275,-11.983119 l -2.98787,-2.9878531 7.37591,-5.727914 c 7.27542,-5.649875 9.87903,-6.850761 9.87903,-4.556593 0,0.644232 -0.84534,5.189921 -1.87853,10.101545 -1.0332,4.9116371 -2.24589,14.5358451 -2.69488,21.3871321 l -0.81634,12.456898 -39.28891,0 c -31.08445,0 -39.28887,-0.33494 -39.28887,-1.60398 z"
       style="fill:#ffe600;fill-opacity:1;fill-rule:evenodd;stroke:none"
       inkscape:connector-curvature="0" />
    <path
       id="path2402"
       d="m -222.53636,479.06869 c -2.38814,-6.83113 -3.13009,-17.85596 -1.4171,-21.05672 2.16086,-4.03756 -0.14481,-5.83942 -3.18025,-2.4853 -1.52943,1.68996 -2.64014,5.22142 -3.04084,9.66799 -0.60073,6.66649 -0.82909,7.05645 -4.71838,8.05915 -2.24788,0.57951 -4.76248,2.13518 -5.58797,3.45701 -1.11359,1.78315 -1.91846,2.05676 -3.11909,1.06032 -2.36963,-1.96663 -2.19494,-21.09968 0.22182,-24.29492 2.42758,-3.20951 2.39686,-5.56583 -0.0726,-5.56583 -2.90759,0 -6.50639,4.95584 -7.41868,10.21617 -0.72045,4.15422 -1.21921,4.62704 -5.40402,5.12347 -2.5357,0.30079 -5.59725,0.9805 -6.8035,1.51045 -1.78816,0.78562 -2.19319,0.33234 -2.19319,-2.45439 0,-4.01103 4.91123,-12.44429 11.75215,-20.18002 4.43574,-5.01592 4.61961,-5.4949 2.10957,-5.4949 -1.51236,0 -4.60966,1.41864 -6.88291,3.15253 -3.76152,2.86905 -4.28466,2.97001 -5.8178,1.12268 -0.92652,-1.11641 -3.06855,-2.55599 -4.76,-3.1991 -4.00865,-1.52405 -2.50158,-3.01273 6.94619,-6.86133 9.15221,-3.72818 11.48222,-3.7152 22.34436,0.12464 11.46899,4.05436 23.86141,4.26365 31.56767,0.53311 8.01093,-3.87801 36.55948,-35.72186 36.69385,-40.92935 0.0258,-1.00041 -1.78214,-1.56656 -5.00277,-1.56656 -3.71356,0 -6.7244,1.15647 -11.41985,4.38637 -9.02691,6.20942 -9.85513,5.92436 -9.85513,-3.39199 0,-7.07591 -0.46261,-8.43783 -5.12271,-15.08127 -9.83711,-14.02374 -13.29023,-30.97002 -11.9655,-58.72095 l 0.81925,-17.16145 -11.42546,-10.12928 c -14.13104,-12.5279 -20.00265,-16.45572 -32.25121,-21.5744 -13.72302,-5.73485 -20.80662,-7.37965 -31.8547,-7.39657 -8.05412,-0.0123 -10.14067,0.41314 -12.21915,2.49162 -4.60423,4.60423 -2.84112,13.4703 3.32073,16.69883 l 3.2577,1.70689 -4.22913,3.01628 c -4.57947,3.26615 -12.45255,3.8882 -23.75078,1.87652 l -5.7359,-1.02127 -6.07864,7.11507 -6.07859,7.11511 2.21735,3.75366 c 1.95902,3.31639 2.04906,4.71994 0.77294,12.04795 -2.10791,12.1045 -5.11595,16.51899 -6.76878,9.93356 -0.58605,-2.3349 -2.15047,-3.26592 -7.74198,-4.60731 l -7.00757,-1.68108 -6.56795,7.11381 c -3.6124,3.91258 -6.81991,7.1138 -7.12781,7.1138 -0.30791,0 -2.45558,-0.5437 -4.77264,-1.20822 -3.12952,-0.89752 -5.34887,-0.73354 -8.63098,0.63782 l -4.4182,1.84605 0.70745,-10.32141 c 0.74682,-10.89568 0.44758,-10.35412 9.10237,-16.47362 2.33632,-1.65192 2.91104,-2.72467 1.96601,-3.66969 -0.94503,-0.94501 -3.59457,-0.17024 -9.06375,2.65044 -4.96676,2.56156 -8.22509,3.57358 -9.11845,2.83215 -0.76457,-0.63452 -3.31826,-1.34073 -5.6749,-1.56938 -2.35666,-0.22863 -4.51566,-1.11892 -4.79781,-1.97841 -0.28211,-0.8595 1.6483,-3.83124 4.28986,-6.60388 2.64155,-2.77264 5.82583,-6.19423 7.07616,-7.6035 1.98437,-2.23658 3.1596,-2.45158 9.24526,-1.69123 5.53065,0.691 6.85678,0.52576 6.41507,-0.79939 -0.30625,-0.91876 -3.15414,-2.33304 -6.32863,-3.14286 -4.00508,-1.02173 -7.28489,-3.063 -10.71508,-6.66888 -2.71881,-2.85807 -4.46488,-5.49217 -3.88014,-5.85354 1.82584,-1.12845 15.21064,-5.55128 16.79977,-5.55128 0.83126,0 3.65634,1.70463 6.27799,3.78806 5.55399,4.41375 9.2918,5.58898 14.00968,4.40488 3.34918,-0.84062 23.51282,-19.5892 30.53695,-28.39398 l 3.61822,-4.53545 -7.80801,-5.45177 c -8.6381,-6.03136 -19.7139,-15.92323 -19.7139,-17.60661 0,-0.59497 0.98694,-1.07935 2.19319,-1.0764 5.10923,0.0125 22.60273,-13.87601 34.50412,-27.39365 13.39529,-15.21437 27.41803,-27.14164 37.53966,-31.92993 3.76093,-1.77922 15.18792,-4.86981 25.80505,-6.97939 15.37795,-3.05551 19.93531,-4.4575 23.61631,-7.26515 4.72104,-3.60092 9.11031,-11.44059 9.15831,-16.35769 0.0246,-2.5147 -0.58884,-2.8198 -5.66905,-2.8198 -5.9112,0 -8.79646,1.8979 -13.19165,8.67733 l -1.96938,3.0377 -4.61018,-6.03775 c -4.87862,-6.38934 -5.45463,-9.147 -3.23845,-15.50434 1.293,-3.7091 1.52471,-3.82768 4.0386,-2.06688 7.65887,5.36448 18.4014,-0.8774 18.4014,-10.69201 0,-6.107225 -2.97803,-13.068545 -6.70847,-15.681455 -5.39209,-3.77675 -14.77796,-1.19304 -16.94482,4.66455 -0.75198,2.03277 -1.62851,1.00945 -4.92299,-5.74734 -5.52458,-11.33053 -5.33684,-12.822903 1.87758,-14.926523 7.1503,-2.08493 8.55407,-4.57509 2.67813,-4.75081 -2.29763,-0.06869 -5.58739,-0.54204 -7.3106,-1.05186 -2.9616,-0.87618 -2.85868,-1.0049 1.87987,-2.35123 2.75714,-0.78338 12.70585,-2.62409 22.10824,-4.09051 22.95626,-3.5803 46.65776,-3.10409 54.63802,1.09779 10.40148,5.47673 18.83323,19.218253 26.70688,43.525118 2.22679,6.87437 4.31244,13.20382 4.63479,14.06542 0.40301,1.07726 -0.86775,1.56656 -4.06845,1.56656 -3.93896,0 -4.51669,0.33718 -3.75791,2.19318 3.62439,8.86543 4.47746,22.70085 2.5859,41.93882 l -1.0738,10.92094 -3.45694,-2.46152 c -1.90129,-1.35385 -3.73788,-2.46155 -4.08131,-2.46155 -0.3434,0 -1.80547,3.8884 -3.24899,8.64089 -3.02113,9.94645 -7.55891,17.13202 -19.37545,30.68106 -5.83241,6.68751 -8.09686,10.17956 -7.40399,11.41766 2.50023,4.46762 84.28983,87.95933 89.24389,91.1011 9.771374,6.19686 22.734345,4.44175 31.012845,-4.19891 4.90298,-5.11746 6.66793,-9.57258 6.84131,-17.26879 0.2582,-11.45887 -7.21359,-20.11327 -17.36477,-20.11327 -4.290691,0 -5.748221,0.71673 -9.008491,4.42998 -3.01353,3.43224 -3.8972,5.61975 -3.92348,9.71266 l -0.03393,5.28269 -4.352414,-4.68128 c -3.71771,-3.99855 -4.35247,-5.56181 -4.35247,-10.71901 0,-4.80335 0.80864,-7.13734 3.9553,-11.41611 3.20684,-4.36069 3.62187,-5.58946 2.19318,-6.49394 -0.9692,-0.61357 -9.04423,-1.12421 -17.9446,-1.13476 -15.75972,-0.0187 -16.33269,-0.11558 -21.93182,-3.70885 -14.13685,-9.07239 -19.10788,-18.28699 -19.24843,-35.68022 -0.0838,-10.36554 0.2597,-12.15312 3.46757,-18.04703 5.55242,-10.20162 6.39477,-10.40815 10.03357,-2.45999 2.68894,5.87347 2.93747,7.42186 1.74174,10.85198 -0.76713,2.20053 -1.17337,7.91899 -0.90278,12.70767 0.46034,8.14743 0.80638,9.02868 5.38703,13.7197 6.64029,6.8003 11.09311,8.03901 25.95401,7.22014 l 12.3151,-0.67862 4.189784,4.89492 c 2.30445,2.69217 4.55876,4.89488 5.0096,4.89488 3.30645,0 -3.65223,-14.9613 -10.140264,-21.8017 -2.23693,-2.35838 -7.87652,-6.96018 -12.53247,-10.22619 -16.25862,-11.40491 -23.46787,-20.29038 -27.3112,-33.66107 -4.90619,-17.06819 0.15021,-36.20562 13.07082,-49.47072 7.65232,-7.85637 13.87307,-10.97185 28.11335,-14.07984 15.119615,-3.29991 17.241645,-4.44533 20.608925,-11.12412 3.44896,-6.84086 6.05597,-7.16652 10.03251,-1.25325 2.10094,3.12417 4.75662,5.00461 9.22907,6.53488 7.937791,2.71595 14.511471,6.75345 16.232981,9.97013 1.13521,2.12116 0.56874,3.22462 -3.77836,7.35992 -2.96883,2.82419 -7.346711,5.46536 -10.437331,6.29683 -3.00403,0.80818 -7.63203,3.55915 -10.62182,6.31379 -2.91406,2.68489 -6.01681,4.8816 -6.895,4.8816 -0.8782,0 -2.91858,-2.49175 -4.53419,-5.5372 -3.69711,-6.96918 -7.905681,-8.8653 -17.241485,-7.76806 -9.10481,1.07011 -15.33491,4.37753 -21.55375,11.44251 -8.99424,10.21797 -11.19897,22.26169 -6.41564,35.04633 3.48151,9.30522 6.7624,12.92128 19.48146,21.47196 11.340564,7.62399 19.849495,16.8162 25.030735,27.04091 1.68087,3.31695 3.34063,6.03082 3.68845,6.03082 0.34782,0 2.83579,-1.45815 5.52887,-3.24036 7.20692,-4.76932 14.02203,-5.33754 19.475281,-1.62377 5.16276,3.51597 5.53631,4.86413 1.34763,4.86413 -4.250941,0 -9.596601,2.20137 -11.532131,4.74894 -2.8433,3.74246 -2.09807,13.14909 1.42112,17.93748 7.14712,9.72475 9.884051,17.44011 10.402091,29.32332 0.40599,9.31284 0.02068,12.52918 -2.2101,18.44902 -3.274051,8.68835 -10.986581,16.9999 -20.275141,21.84989 -5.79315,3.02487 -8.17057,3.50881 -17.364701,3.53471 -14.447034,0.0407 -21.362674,-3.25206 -35.661804,-16.9798 -10.18482,-9.77782 -10.92213,-10.24411 -13.78019,-8.71453 -4.02457,2.15387 -12.70906,12.9385 -16.67818,20.71136 -2.24274,4.39198 -3.37736,8.97432 -3.79347,15.32021 -0.51943,7.92158 -0.18504,9.88922 2.67359,15.73205 5.50617,11.25423 16.78396,15.46104 24.35957,9.08658 2.0251,-1.70401 4.04223,-2.73792 4.48253,-2.29762 1.41104,1.41103 0.8275,13.32889 -0.98621,20.14207 -2.03257,7.63547 -7.11396,17.07735 -16.34462,30.37061 -4.35648,6.27387 -7.24345,12.10809 -8.68205,17.54545 -3.19303,12.06842 -3.12384,11.92117 -4.80947,10.23554 -0.80454,-0.80457 -3.33217,-1.46281 -5.61694,-1.46281 -5.63328,0 -11.53631,5.66709 -18.2411,17.512 -6.35792,11.23208 -10.74016,14.51207 -20.97644,15.70011 -6.3485,0.73684 -7.98334,1.46229 -10.47772,4.64952 l -2.95553,3.77646 -1.473,-4.21356 z m 39.8507,-394.016855 c 5.29784,-6.03391 5.31046,-12.073823 0.0386,-18.469543 -3.62772,-4.40105 -8.68149,-6.3214 -8.68149,-3.29881 0,0.75521 1.18432,3.03632 2.63182,5.06915 3.13105,4.39716 3.40951,11.091223 0.62662,15.064343 -4.86189,6.94132 -0.45064,8.28069 5.38447,1.63487 l 1e-5,-1e-5 z M -214.8647,67.407522 c 5.06042,-2.61687 3.19798,-3.94749 -6.23077,-4.45161 l -7.83506,-0.4189 0.002,4.23323 0.002,4.23323 5.14455,-0.82266 c 2.8295,-0.45244 6.84202,-1.70044 8.91672,-2.77331 l 1e-5,2e-5 z"
       style="fill:#ffe600;fill-opacity:1;fill-rule:evenodd;stroke:none"
       inkscape:connector-curvature="0" />
    <path
       id="path2404"
       d="m -222.74259,478.4673 c -1.8783,-5.57283 -2.3114,-18.84445 -0.72114,-22.09749 0.78864,-1.61327 0.55129,-2.19319 -0.89771,-2.19319 -2.75638,0 -4.9779,4.55494 -5.77021,11.83099 -0.62393,5.72976 -0.97894,6.26998 -4.76128,7.24564 -2.24788,0.57986 -4.76248,2.13574 -5.58797,3.45757 -1.11359,1.78315 -1.91846,2.05676 -3.11909,1.06032 -2.36963,-1.96663 -2.19494,-21.09968 0.22182,-24.29492 2.35756,-3.11693 2.41512,-5.56583 0.13081,-5.56583 -2.59159,0 -6.5739,5.56814 -7.49541,10.48024 -0.70222,3.74321 -1.33807,4.31309 -5.46782,4.90039 -2.57023,0.36553 -5.66011,1.06249 -6.86636,1.5488 -1.77365,0.71503 -2.19319,0.22025 -2.19319,-2.5866 0,-4.02017 5.98369,-14.13732 12.37439,-20.92237 3.79646,-4.03076 4.07311,-4.69968 1.94362,-4.69968 -1.3656,0 -4.39819,1.31239 -6.73911,2.91641 l -4.25622,2.91641 -4.81141,-3.15009 c -5.62347,-3.68183 -5.23243,-4.36654 4.83593,-8.46795 9.06116,-3.69109 13.56191,-3.74553 21.30052,-0.25755 4.79769,2.16248 8.55366,2.74865 18.0672,2.81981 11.24997,0.0842 12.33859,-0.13751 17.19465,-3.50105 8.68137,-6.01311 34.04883,-35.75911 34.07752,-39.95943 0.004,-0.51697 -2.10843,-0.9255 -4.69325,-0.90785 -3.17828,0.0217 -6.91227,1.44166 -11.53446,4.38636 -9.45927,6.02629 -10.08405,5.82592 -10.08405,-3.23397 0,-6.75654 -0.53647,-8.37823 -4.89459,-14.79584 -10.33108,-15.21317 -13.33249,-29.32358 -12.20943,-57.39919 l 0.76007,-19.00081 -11.6742,-10.22146 c -15.52293,-13.59123 -20.34106,-16.64756 -35.89743,-22.7711 -11.08636,-4.36398 -14.99265,-5.27811 -24.79972,-5.80347 -10.88439,-0.58306 -11.84105,-0.43529 -14.72564,2.27465 -5.15361,4.84154 -3.77047,13.24131 2.74219,16.65365 l 3.2577,1.70689 -4.22913,3.01628 c -4.60479,3.28422 -12.75691,3.95888 -23.72509,1.96347 l -5.71022,-1.03884 -6.04085,7.0709 -6.04081,7.07085 2.23406,4.1484 c 1.99878,3.71153 2.06838,4.9908 0.66093,12.14705 -2.27936,11.58937 -5.14596,15.82435 -6.69689,9.8936 -0.66977,-2.56119 -3.48631,-4.04595 -10.61712,-5.59689 -3.77378,-0.82081 -4.59305,-0.35776 -10.80423,6.10657 -7.17195,7.46424 -7.61881,7.66715 -12.66211,5.7497 -2.41025,-0.91636 -4.46417,-0.74802 -7.78092,0.63781 l -4.50628,1.88285 0.70939,-10.34944 c 0.59515,-8.68326 1.14077,-10.65221 3.38913,-12.23034 1.47387,-1.03452 4.1964,-3.13203 6.05004,-4.66114 l 3.37024,-2.7802 -3.14311,-0.0396 c -1.72867,-0.0218 -5.88203,1.41848 -9.22964,3.20055 -4.37697,2.33003 -6.46866,2.85806 -7.44686,1.87987 -0.74814,-0.74814 -3.18805,-1.36027 -5.42201,-1.36027 -7.47132,0 -7.02431,-2.29809 2.44064,-12.54711 l 6.0237,-6.52271 6.82206,0.85235 c 8.74242,1.09231 9.0879,-1.0645 0.57547,-3.59243 -6.2142,-1.84543 -17.26799,-11.28888 -14.91563,-12.74271 1.82584,-1.12845 15.21064,-5.55128 16.79977,-5.55128 0.83126,0 3.62218,1.67747 6.20207,3.72772 2.5799,2.05023 6.621,4.08984 8.98023,4.53244 5.79365,1.0869 11.03287,-2.66631 26.85438,-19.23755 l 12.42933,-13.0183 -3.43327,-2.79185 c -1.88827,-1.53549 -6.25304,-4.8327 -9.69947,-7.32712 -6.45378,-4.67106 -15.28538,-13.19541 -14.32668,-13.82826 0.29752,-0.19639 3.10199,-1.55019 6.23212,-3.00843 8.33948,-3.8851 19.31582,-13.23125 31.68735,-26.9812 12.61379,-14.01918 26.59511,-25.70564 36.15559,-30.22107 3.67053,-1.7336 15.04722,-4.85791 25.28152,-6.9429 13.15742,-2.68048 19.99583,-4.70942 23.34655,-6.92683 4.8857,-3.2332 10.05537,-11.89928 10.05537,-16.85609 0,-2.28589 -0.7138,-2.73744 -4.3274,-2.73744 -6.15839,0 -10.31493,2.25386 -13.21209,7.16418 -2.85944,4.84642 -3.74372,4.60049 -8.86147,-2.46436 -3.89604,-5.37832 -4.59129,-10.09464 -2.24667,-15.24051 1.31505,-2.88619 1.64045,-2.99194 4.03859,-1.31222 3.04065,2.12975 8.70177,2.37983 12.14599,0.53654 3.22427,-1.7256 6.19682,-7.71355 6.19682,-12.48302 0,-4.801935 -4.20076,-13.275135 -7.44118,-15.009355 -5.25991,-2.81504 -13.28563,-0.43055 -15.84769,4.70842 -1.32214,2.65193 -1.6429,2.34073 -5.35099,-5.19149 -5.52454,-11.22195 -5.29931,-12.693143 2.3314,-15.227663 3.45178,-1.14649 6.00225,-2.52738 5.66773,-3.06863 -0.33453,-0.54127 -3.58166,-1.37924 -7.21589,-1.86215 -9.58191,-1.27325 -5.87755,-2.69448 16.84525,-6.46283 25.16789,-4.17385 49.87892,-3.96996 58.30633,0.48109 5.83109,3.07977 13.91287,12.51511 18.53853,21.643433 2.48327,4.90051 13.12105,34.795955 13.12105,36.874225 0,0.35647 -2.03419,0.6481 -4.52045,0.6481 -3.81126,0 -4.37978,0.34408 -3.62382,2.19318 3.62439,8.86543 4.47746,22.70085 2.5859,41.93882 l -1.0738,10.92094 -3.64894,-2.59825 c -2.0069,-1.42903 -3.82191,-2.39574 -4.03336,-2.14822 -0.21145,0.24753 -1.60832,4.17699 -3.10415,8.73218 -3.34398,10.18322 -7.78384,17.30488 -18.32009,29.38592 -4.4687,5.12389 -8.12492,10.27237 -8.12492,11.44106 0,2.23821 5.09339,7.65853 56.08743,59.68762 19.71379,20.11396 33.33657,33.03035 36.01862,34.15098 16.477395,6.88469 34.479965,-5.39677 34.467185,-23.51375 -0.01292,-18.27837 -20.486571,-27.18467 -28.200521,-12.26755 -1.02996,1.99177 -1.88798,5.48231 -1.90663,7.75672 l -0.03393,4.13529 -4.352414,-4.68128 c -5.89543,-6.34079 -6.08398,-14.00112 -0.54583,-22.17467 2.8419,-4.19423 3.37229,-5.7975 2.17037,-6.56036 -0.87487,-0.55528 -8.98443,-1.01824 -18.02128,-1.02879 -15.58777,-0.0182 -16.68069,-0.18617 -21.30519,-3.27442 -14.61673,-9.76109 -19.48648,-18.73649 -19.6274,-36.17527 -0.0832,-10.29862 0.26402,-12.09953 3.46806,-17.98641 5.57811,-10.24883 6.38643,-10.42636 10.14017,-2.22711 2.76198,6.03292 3.04095,7.66374 1.88055,10.99252 -1.87222,5.37064 -1.70942,15.31747 0.33062,20.19997 0.9313,2.22882 3.72726,5.83832 6.21336,8.02113 5.45682,4.79113 12.18079,6.06242 25.9789,4.9117 l 9.74902,-0.81306 4.307884,5.03276 c 2.3693,2.76803 4.67671,5.03277 5.12755,5.03277 3.01941,0 -3.0681,-13.49612 -9.277464,-20.56819 -2.10957,-2.40266 -7.89123,-7.31549 -12.84811,-10.91737 -23.06642,-16.76096 -30.54734,-29.62416 -29.44486,-50.6292 0.44609,-8.49933 1.28388,-11.88679 4.61145,-18.64608 8.00898,-16.26862 20.33234,-25.29675 39.54847,-28.9734 13.022925,-2.49168 16.655165,-4.59726 19.539845,-11.32696 1.31291,-3.06276 3.20561,-5.56867 4.20611,-5.56867 1.00051,0 3.57564,2.21781 5.72252,4.92845 2.36744,2.98915 5.73759,5.50958 8.56472,6.4053 6.83357,2.16508 15.066381,7.16723 16.642141,10.11156 1.18516,2.21443 0.6703,3.23768 -3.73946,7.4326 -2.87767,2.73748 -7.354281,5.46793 -10.237601,6.24433 -2.81811,0.75885 -7.53259,3.60004 -10.47666,6.31379 -6.38231,5.88298 -8.64753,6.15882 -10.6609,1.29815 -0.82829,-1.99979 -2.91915,-4.96057 -4.64626,-6.57954 -2.68382,-2.51576 -4.374181,-2.93032 -11.629671,-2.85218 -12.850244,0.1384 -22.380994,6.57084 -29.021324,19.58696 -4.0326,7.90457 -4.37641,15.66543 -1.12658,25.43121 3.27277,9.83461 7.59954,14.70586 20.93905,23.57394 9.593804,6.37794 16.313814,13.59542 22.982115,24.68335 2.27997,3.79107 4.27645,7.07609 4.43664,7.30005 0.16016,0.22394 2.55853,-1.09321 5.32964,-2.92705 7.15254,-4.73332 13.91724,-5.39714 19.546431,-1.9181 2.45846,1.51938 4.46986,3.20623 4.46986,3.74853 0,0.54231 -2.31128,1.29604 -5.13617,1.67493 -10.884771,1.45996 -14.474611,11.11327 -8.022521,21.57294 8.024251,13.00831 9.889281,18.40312 10.398241,30.07792 0.40599,9.31284 0.02068,12.52918 -2.2101,18.44902 -3.270021,8.67764 -10.972541,16.98544 -20.275141,21.86837 -5.91333,3.10389 -8.05439,3.52316 -17.991321,3.52316 -9.815854,1e-5 -12.110184,-0.43688 -17.683944,-3.3674 -6.2627,-3.29274 -18.16462,-13.23626 -24.06822,-20.10789 -1.6285,-1.89554 -3.69597,-3.44643 -4.59439,-3.44643 -2.8198,0 -15.95174,15.3096 -19.1796,22.36019 -3.67948,8.03701 -4.98007,20.46405 -2.82513,26.99358 4.3747,13.25542 17.72573,19.7612 26.09742,12.71689 2.0251,-1.70401 4.04223,-2.73792 4.48253,-2.29762 1.41104,1.41103 0.8275,13.32889 -0.98621,20.14207 -1.99741,7.50339 -6.92207,16.75187 -16.17172,30.37061 -4.11969,6.0657 -7.3671,12.733 -9.15607,18.7987 -1.88076,6.37689 -3.30666,9.23844 -4.43434,8.89896 -9.26336,-2.78863 -14.44465,0.57316 -23.04902,14.95503 -7.48787,12.51572 -11.59421,15.68621 -21.85947,16.8776 -6.36203,0.73842 -7.98106,1.45938 -10.49742,4.6747 l -2.97526,3.80161 -1.6398,-4.86528 z m 41.3428,-394.786175 c 1.43202,-1.82053 2.60158,-5.06687 2.59899,-7.2141 -0.009,-7.168253 -8.26277,-16.816453 -11.56317,-13.516053 -0.86155,0.86157 -0.37267,2.5369 1.51311,5.18525 3.31806,4.65979 3.59507,11.043613 0.67269,15.503703 -4.46371,6.81251 1.42391,6.84831 6.77838,0.0412 z M -215.7166,67.609752 c 6.38388,-2.66736 4.03404,-4.4002 -6.00321,-4.42693 l -7.20617,-0.01919 0,3.92372 c 0,3.7406 0.1934,3.89233 4.14385,3.25126 2.27912,-0.36985 6.35861,-1.59783 9.06552,-2.72886 l 1e-5,0 z"
       style="fill:#ffe600;fill-opacity:1;fill-rule:evenodd;stroke:none"
       inkscape:connector-curvature="0" />
    <path
       id="path2406"
       d="m -222.75536,478.4286 c -1.86772,-5.54054 -2.294,-18.81522 -0.70837,-22.05879 0.78864,-1.61327 0.55129,-2.19319 -0.89771,-2.19319 -2.76766,0 -4.98048,4.5658 -5.77021,11.90585 -0.56137,5.21753 -1.12878,6.33099 -3.39041,6.65314 -1.49392,0.21278 -4.12816,1.69545 -5.85389,3.29481 -2.24498,2.08056 -3.52243,2.52316 -4.48996,1.55563 -2.10291,-2.10293 -1.71668,-21.19533 0.48774,-24.10983 2.35756,-3.11693 2.41512,-5.56583 0.13081,-5.56583 -2.59159,0 -6.5739,5.56814 -7.49541,10.48024 -0.70222,3.74321 -1.33807,4.31309 -5.46782,4.90039 -2.57023,0.36553 -5.66011,1.06249 -6.86636,1.5488 -5.94574,2.39704 1.6456,-15.61705 9.8157,-23.29246 5.74163,-5.39393 2.5959,-6.81401 -4.42999,-1.99978 l -4.25622,2.91641 -4.77419,-3.12577 c -5.82896,-3.81632 -5.0828,-5.11929 5.04682,-8.81273 9.19229,-3.35167 12.84588,-3.34502 21.46963,0.0391 5.14502,2.01903 9.78481,2.73387 18.29768,2.81917 11.25824,0.11282 11.47925,0.0563 17.19627,-4.39722 11.80581,-9.19661 34.36786,-36.2016 32.61509,-39.03764 -1.33593,-2.16158 -9.67962,-0.12737 -16.05097,3.91322 -8.72075,5.53053 -9.44768,5.2684 -9.44768,-3.40679 0,-6.41845 -0.62082,-8.2857 -5.01539,-15.08496 -10.39482,-16.08281 -13.18981,-29.32081 -12.12632,-57.43415 l 0.72111,-19.0618 -11.29077,-9.76288 c -14.40404,-12.45487 -21.38004,-17.10232 -32.71847,-21.7972 -11.99216,-4.96558 -22.35782,-7.34968 -32.05407,-7.37245 -6.71976,-0.0158 -8.34595,0.43766 -10.96591,3.05763 -4.74055,4.74052 -3.408,12.52672 2.70363,15.79757 2.78923,1.49278 2.85584,1.75898 0.96327,3.85025 -4.38802,4.84872 -12.25891,5.66116 -27.49168,2.83774 -3.45067,-0.63958 -4.42785,-0.01 -9.87118,6.36165 l -6.04137,7.07151 2.23406,4.1484 c 1.99878,3.71153 2.06838,4.9908 0.66093,12.14705 -2.37552,12.07828 -4.52375,15.05598 -6.98046,9.67567 -1.02349,-2.24147 -9.18841,-5.94657 -13.32005,-6.04437 -0.44204,-0.0105 -3.9197,3.09696 -7.72812,6.90538 -6.64964,6.64961 -7.12456,6.8924 -11.96817,6.11787 -2.77407,-0.4436 -6.76891,-0.20514 -8.87741,0.52989 l -3.83363,1.33642 0.0138,-5.88775 c 0.0285,-12.18913 1.12763,-15.08675 7.36595,-19.41935 4.96269,-3.44665 5.39552,-4.06849 3.06309,-4.40072 -1.49393,-0.21281 -5.59257,1.07064 -9.10809,2.85208 -4.93465,2.50058 -6.93948,2.94594 -8.79391,1.95347 -1.32111,-0.70705 -3.81574,-1.28554 -5.54359,-1.28554 -6.49252,0 -5.78416,-2.64452 3.36085,-12.54711 l 6.0237,-6.52271 7.07677,0.88417 c 6.34509,0.79278 6.90786,0.68064 5.44292,-1.08451 -0.89863,-1.08279 -3.59478,-2.33657 -5.99142,-2.78619 -2.82166,-0.52934 -6.29233,-2.78001 -9.84686,-6.38555 l -5.48933,-5.56809 4.01986,-1.66401 c 2.21095,-0.9152 6.42295,-2.37746 9.36002,-3.24946 5.14766,-1.52832 5.53964,-1.44218 10.87609,2.39016 3.04479,2.1866 7.12726,4.28846 9.0722,4.6708 5.14092,1.01064 13.16397,-4.80756 27.31502,-19.80843 l 11.86824,-12.58098 -8.42416,-6.27377 c -9.20185,-6.85297 -19.07675,-15.89226 -19.07675,-17.46253 0,-0.54575 0.7987,-0.9923 1.77488,-0.9923 4.5512,0 21.49176,-13.50889 34.83548,-27.77883 15.65713,-16.74391 27.75154,-26.8729 37.67438,-31.55201 3.60232,-1.69866 14.60264,-4.80824 24.44514,-6.91017 21.73423,-4.64147 26.57115,-7.10185 31.14828,-15.84405 4.20227,-8.02626 3.49664,-10.6552 -2.86,-10.6552 -3.89553,0 -5.50032,0.91156 -9.87519,5.60944 l -5.22376,5.60946 -2.50095,-2.78967 c -6.72269,-7.49871 -8.13703,-12.57153 -5.26346,-18.87834 1.29227,-2.83624 1.61818,-2.92775 4.69967,-1.31993 4.90937,2.56153 9.43282,2.11855 13.1034,-1.28324 5.61117,-5.20029 5.95786,-13.392675 0.91645,-21.657315 -3.10665,-5.09286 -9.23277,-6.54596 -15.0075,-3.55972 -2.18716,1.131 -4.4049,3.21409 -4.92833,4.62904 -0.80408,2.17356 -1.58489,1.28642 -5.03368,-5.71909 -5.15754,-10.47642 -4.8577,-13.250573 1.62786,-15.061993 7.21852,-2.01613 6.90577,-4.00346 -0.79101,-5.02621 -9.68813,-1.28736 -5.64853,-2.88166 16.36448,-6.45849 20.35781,-3.30787 44.12125,-3.98895 53.8353,-1.54291 7.38535,1.85964 16.77627,10.97429 22.36337,21.705463 3.57901,6.87422 14.22766,35.544415 14.22766,38.306275 0,0.64403 -2.03419,1.17099 -4.52045,1.17099 -3.8092,0 -4.38022,0.34507 -3.62921,2.19318 3.82043,9.40152 4.7772,22.8496 2.81577,39.578 l -1.59147,13.57313 -3.49619,-2.75009 c -1.92288,-1.51256 -3.67193,-2.54482 -3.88677,-2.29391 -0.21484,0.25092 -1.61447,4.18315 -3.1103,8.73834 -3.30737,10.07177 -7.61612,17.02975 -18.29863,29.54959 -4.4805,5.25113 -8.14638,10.3245 -8.14638,11.27416 0,1.90678 43.04124,47.0356 72.29547,75.80197 20.13898,19.8031 22.11157,20.95716 33.264454,19.46125 20.114731,-2.69795 28.507561,-31.1128 12.373251,-41.89123 -10.00909,-6.68651 -21.364181,-0.10356 -21.467091,12.44526 l -0.03393,4.13529 -4.352414,-4.68128 c -3.70853,-3.98867 -4.35247,-5.56803 -4.35247,-10.67498 0,-4.32826 0.87059,-7.27491 3.13312,-10.60451 5.510024,-8.10873 4.76028,-8.50352 -16.14935,-8.50352 -14.73581,0 -15.5294,-0.13665 -20.88938,-3.59682 -13.83398,-8.9306 -19.04874,-18.70815 -19.12919,-35.86663 -0.0478,-10.19151 0.31867,-12.06053 3.51661,-17.9362 5.58831,-10.26754 6.3948,-10.44588 10.14956,-2.24437 2.76198,6.03292 3.04095,7.66374 1.88055,10.99252 -1.87773,5.38648 -1.70745,15.32218 0.3469,20.23891 4.13293,9.89147 14.25227,14.11922 30.80129,12.86846 l 10.57893,-0.79956 5.399964,5.29968 c 5.91629,5.80639 6.73828,4.71529 2.86996,-3.80953 -3.908874,-8.61411 -9.252364,-14.46174 -21.785684,-23.84089 -13.64999,-10.21483 -19.87053,-16.97093 -24.37571,-26.4744 -2.86859,-6.05104 -3.27071,-8.49996 -3.29298,-20.05195 -0.0288,-14.90565 1.78001,-20.3854 10.57292,-32.03153 8.11173,-10.7439 15.66753,-14.76423 37.597814,-20.00522 9.053771,-2.1637 11.765791,-4.10887 15.251681,-10.9389 1.31927,-2.58482 3.18632,-4.69967 4.14908,-4.69967 0.96277,0 3.6301,2.16059 5.92744,4.80134 2.77097,3.18514 7.03465,5.97899 12.6664,8.29986 9.761961,4.02296 14.106191,8.38174 12.096441,12.13699 -1.79195,3.34827 -10.594811,9.5236 -14.934441,10.47675 -1.98152,0.43524 -6.12413,3.01068 -9.20577,5.72325 -6.68451,5.88392 -8.80117,6.13776 -10.8067,1.29599 -2.91399,-7.03506 -6.58793,-9.20983 -15.558411,-9.20983 -13.187154,0 -23.092684,6.3375 -29.482694,18.86295 -4.03257,7.90449 -4.49991,15.32819 -1.57107,24.95609 2.91666,9.58783 8.15206,15.49104 22.82393,25.73525 8.812894,6.15337 15.285414,13.30028 21.714975,23.97761 l 4.01966,6.67529 6.69406,-3.57682 c 3.68174,-1.96724 8.38235,-3.5768 10.44578,-3.5768 3.72621,0 12.193671,4.31113 12.193671,6.20827 0,0.54499 -2.29429,1.35773 -5.09842,1.80613 -2.970871,0.47508 -6.433741,2.15058 -8.298361,4.0152 -4.40316,4.40313 -3.53317,11.47376 2.64286,21.47972 6.043651,9.79146 8.247431,17.45466 8.247431,28.67856 0,12.25097 -3.424901,21.24439 -11.061371,29.04589 -9.05435,9.25003 -16.04536,12.10653 -29.669151,12.12265 -9.791734,0.0116 -12.105604,-0.42335 -17.545464,-3.29806 -6.01197,-3.17707 -15.5242,-10.92857 -24.09092,-19.63169 -4.89309,-4.97103 -6.2732,-4.49264 -14.69101,5.09253 -9.17481,10.44715 -12.45555,18.42866 -12.53478,30.49523 -0.059,8.99504 0.31496,10.69164 3.37767,15.32184 6.51856,9.85477 14.80726,12.57093 22.45887,7.35965 2.52879,-1.72227 4.92558,-2.80354 5.3263,-2.40283 1.34936,1.34931 0.71308,13.41622 -1.05821,20.07007 -1.92536,7.23274 -6.70396,16.31282 -15.59438,29.632 -3.17953,4.76343 -7.32831,13.22284 -9.2195,18.79871 -2.20835,6.5109 -4.00594,9.96456 -5.02447,9.65333 -9.00193,-2.75069 -13.85279,0.38904 -22.66878,14.67261 -7.80085,12.63884 -12.07747,16.0167 -21.81941,17.23386 -5.59006,0.6984 -7.76383,1.65439 -10.45025,4.59564 l -3.39202,3.71381 -1.62706,-4.82673 z m 41.51513,-395.606315 c 1.33912,-2.19618 2.43686,-5.03575 2.43943,-6.31015 0.008,-3.710193 -3.87951,-10.865783 -7.02038,-12.923753 -4.59728,-3.01224 -6.02828,-0.88796 -2.93432,4.35593 3.21111,5.4424 3.45746,11.651763 0.63328,15.962003 -1.13151,1.7269 -1.71764,3.68937 -1.30251,4.36105 1.17611,1.90299 5.42949,-0.92675 8.1845,-5.44507 l 0,-1e-5 z m -37.80694,-14.091443 c 8.69406,-2.58185 7.78448,-4.8346 -2.14549,-5.3137 l -7.73332,-0.3731 0,3.81954 c 0,4.42875 0.76587,4.57351 9.87882,1.86726 l -1e-5,0 z"
       style="fill:#ffe600;fill-opacity:1;fill-rule:evenodd;stroke:none"
       inkscape:connector-curvature="0" />
    <path
       id="path2408"
       d="m -222.8444,478.33613 c -0.91029,-2.6038 -1.64866,-9.10488 -1.64082,-14.44684 0.008,-5.34197 -0.45294,-9.71267 -1.02396,-9.71267 -1.67937,0 -4.67005,8.32961 -4.67005,13.00705 0,3.87393 -0.57629,4.59379 -5.63961,7.0449 -3.10178,1.50156 -5.63961,3.3128 -5.63961,4.02499 0,0.77313 -0.75745,0.66628 -1.87987,-0.26525 -2.61829,-2.17299 -2.64901,-21.06248 -0.0399,-24.51209 2.35958,-3.1196 2.41459,-5.56583 0.12519,-5.56583 -2.36126,0 -6.44749,5.88077 -7.51574,10.81641 -0.73014,3.37352 -1.52719,4.03196 -5.68586,4.69697 -2.6602,0.42539 -5.73194,1.11694 -6.82613,1.53683 -5.71577,2.19331 2.03055,-15.90805 10.01946,-23.41324 5.7475,-5.39945 2.76529,-6.65991 -4.47712,-1.89226 l -4.3741,2.87943 -4.72178,-3.12471 c -5.78449,-3.82801 -4.99915,-5.18033 5.15942,-8.88433 9.15089,-3.33658 12.8067,-3.34207 21.46963,-0.0322 8.96041,3.42344 26.38572,3.90598 31.95779,0.88488 8.36859,-4.53735 38.07181,-38.3217 36.26409,-41.24666 -1.37476,-2.22441 -6.75421,-1.04432 -14.87281,3.26268 -4.54752,2.4125 -8.75835,4.38636 -9.35744,4.38636 -0.5991,0 -1.33683,-3.52476 -1.63943,-7.83279 -0.46183,-6.5747 -1.42174,-9.20455 -5.97635,-16.37314 -9.02501,-14.20469 -10.50708,-21.21016 -10.61791,-50.18831 l -0.0952,-24.89099 -4.99861,-4.34185 c -13.13451,-11.40886 -24.12596,-19.63579 -30.53966,-22.85846 -13.22511,-6.64516 -25.30147,-10.27164 -36.68721,-11.01701 -10.44939,-0.68403 -10.96395,-0.5912 -14.09902,2.54388 -4.51954,4.51951 -4.20392,8.93457 1.01146,14.14995 l 4.26532,4.26531 -3.13919,2.46927 c -4.44759,3.49848 -11.01807,4.40426 -20.3561,2.80623 -4.43948,-0.75973 -8.76019,-0.99053 -9.60154,-0.51288 -0.84135,0.47765 -3.86244,3.52333 -6.71353,6.76819 l -5.18379,5.89974 2.10771,4.07589 c 1.8374,3.55312 1.91638,5.1145 0.61573,12.17332 -2.16547,11.75251 -5.11243,16.09238 -6.96465,10.25657 -0.48059,-1.51418 -3.12802,-3.20855 -7.04734,-4.51034 l -6.2776,-2.08508 -7.38305,7.04226 c -7.05197,6.72644 -7.60756,7.00636 -12.38856,6.24186 -2.75302,-0.44025 -6.80282,-0.17385 -8.9996,0.59194 l -3.99414,1.39235 0.59181,-10.22299 c 0.6207,-10.72196 0.78252,-11.02887 8.56994,-16.253 5.15516,-3.4583 1.52602,-4.23286 -5.42235,-1.15728 -3.60332,1.59498 -7.39746,2.85821 -8.43139,2.8072 -4.7742,-0.23556 -11.74519,-2.24489 -12.16579,-3.50671 -0.25619,-0.76858 2.51728,-4.89786 6.1633,-9.17617 l 6.62912,-7.77874 6.69202,0.74545 c 8.19148,0.91248 8.48058,-1.56139 0.45406,-3.88529 -3.19022,-0.92364 -7.1029,-3.50905 -10.13628,-6.6978 l -4.94043,-5.19345 5.26854,-2.25835 c 9.88727,-4.23818 12.99109,-4.38915 18.09201,-0.88 7.65924,5.26916 10.99898,6.07548 16.18652,3.90799 4.32118,-1.8055 31.67252,-28.29985 31.67252,-30.68013 0,-0.60102 -3.52476,-3.75102 -7.8328,-7.00002 -8.84391,-6.66985 -18.48539,-15.56715 -18.48539,-17.0586 0,-0.54575 0.75851,-0.9923 1.68557,-0.9923 4.4687,0 19.29391,-12.03315 37.66957,-30.57523 25.64069,-25.87288 31.13597,-29.3502 54.74426,-34.64094 23.30287,-5.22229 27.99279,-6.94101 32.28742,-11.83233 3.96141,-4.51179 7.13287,-12.3316 5.84586,-14.41402 -0.43433,-0.70277 -2.83185,-1.27774 -5.32782,-1.27774 -3.76134,0 -5.43226,0.96015 -9.76189,5.60944 l -5.22376,5.60946 -2.50095,-2.78967 c -6.7508,-7.53007 -8.1386,-12.56809 -5.2241,-18.96472 1.35618,-2.97644 1.60494,-3.0424 4.95075,-1.31222 4.24471,2.19504 6.29897,2.27286 10.4208,0.39483 3.42167,-1.55902 7.01222,-7.94206 7.01222,-12.46584 0,-5.035455 -4.84846,-13.306445 -8.7468,-14.921185 -4.89195,-2.02633 -11.9765,0.2847 -14.26553,4.65346 l -1.68078,3.20789 -3.94565,-7.89596 c -4.45587,-8.91697 -5.01022,-13.510273 -1.75248,-14.520883 10.33974,-3.20757 10.57694,-4.54011 1.09001,-6.1236 -2.8824,-0.4811 -4.40345,-1.27113 -3.73477,-1.93982 0.62046,-0.62047 9.96908,-2.55499 20.77468,-4.29894 21.60253,-3.4865 44.66006,-4.20037 54.62483,-1.69121 7.38535,1.85964 16.77627,10.97429 22.36337,21.705463 3.57901,6.87422 14.22766,35.544415 14.22766,38.306275 0,0.64403 -1.76238,1.17099 -3.91639,1.17099 -3.75927,0 -3.88192,0.16341 -3.05711,4.07305 3.10538,14.71942 3.36578,19.64059 1.85742,35.1008 l -1.55993,15.98879 -2.88413,-1.88975 c -1.58628,-1.03938 -3.42196,-1.88977 -4.07931,-1.88977 -0.65732,0 -2.3885,3.58598 -3.84701,7.96884 -3.13911,9.43308 -7.59396,16.74169 -16.8683,27.6742 -10.85156,12.79174 -10.76494,12.15252 -2.86517,21.14347 3.74794,4.26563 23.94795,25.06653 44.88893,46.22421 32.3326,32.66721 38.85894,38.69216 43.27607,39.95158 13.425355,3.82785 26.980355,-4.0551 30.665535,-17.8336 2.89879,-10.83815 -1.92382,-21.61395 -11.10451,-24.81246 -4.71704,-1.6434 -5.67857,-1.61122 -9.741091,0.32607 -4.8153,2.29622 -8.10178,8.05503 -8.16255,14.30282 l -0.03393,3.48669 -4.352414,-4.68128 c -3.70853,-3.98867 -4.35247,-5.56803 -4.35247,-10.67498 0,-4.32826 0.87059,-7.27491 3.13312,-10.60451 1.72321,-2.53595 3.13311,-5.1389 3.13311,-5.78436 0,-2.00061 -5.09066,-2.68428 -20.1199,-2.70205 -13.79968,-0.0163 -14.74216,-0.18617 -20.05194,-3.61393 -13.83676,-8.93239 -19.05914,-18.72325 -19.10868,-35.82463 -0.0283,-9.75863 0.41785,-12.21745 3.20789,-17.67999 5.24623,-10.2715 6.4888,-10.63292 10.35115,-3.01095 3.07489,6.06803 3.19422,6.9184 1.79129,12.76648 -2.06504,8.60799 -0.77986,17.80156 3.22191,23.04814 5.54455,7.26932 9.46942,8.6075 25.28405,8.62058 l 14.02703,0.0116 4.439604,4.30069 c 5.25976,5.09527 6.58224,4.55058 3.99362,-1.64489 -3.69051,-8.83253 -9.576674,-15.57257 -21.746444,-24.90092 -14.9419,-11.45322 -20.87211,-17.8263 -25.22407,-27.10773 -2.91232,-6.21101 -3.30252,-8.60124 -3.30252,-20.2287 0,-12.47739 0.23013,-13.65291 4.2856,-21.89073 4.80837,-9.76723 13.42379,-19.1276 21.30684,-23.14923 2.89385,-1.47631 10.59131,-4.00445 17.1055,-5.61804 14.007095,-3.46964 17.198495,-5.3281 20.600375,-11.99631 1.40146,-2.74706 3.2178,-4.99466 4.03633,-4.99466 0.81855,0 3.64557,2.10657 6.28229,4.68125 2.63672,2.57471 8.83634,6.66341 13.77693,9.08604 4.940601,2.42265 9.737951,5.60382 10.660821,7.0693 1.48707,2.36146 1.3093,3.10263 -1.56318,6.51638 -1.78264,2.11854 -6.83642,5.55056 -11.230671,7.62675 -4.39427,2.07616 -9.9411,5.48837 -12.32634,7.58264 -5.00705,4.39628 -7.89743,4.83473 -8.99865,1.36509 -0.42642,-1.34349 -2.38256,-4.16329 -4.34702,-6.26623 -3.31229,-3.54587 -4.195141,-3.82271 -12.154951,-3.8118 -11.351784,0.0156 -19.813734,4.60174 -26.046064,14.11633 -7.59812,11.59967 -8.44922,21.0042 -3.02988,33.47967 3.19256,7.3494 5.70763,9.9625 19.33122,20.08482 11.054334,8.21334 20.954815,19.30867 25.290825,28.34298 l 1.88235,3.92192 6.86005,-3.60858 c 8.05048,-4.23484 13.20786,-4.54054 18.824711,-1.11588 5.37166,3.27517 5.13749,4.53616 -1.02537,5.52164 -2.973421,0.47548 -6.433991,2.15083 -8.302791,4.01963 -2.80495,2.80492 -3.10782,3.90862 -2.42995,8.85425 0.43506,3.17397 2.73113,8.82005 5.23952,12.88396 5.883141,9.53146 8.085151,17.27047 8.085151,28.41564 0,12.24297 -3.424641,21.23993 -11.061371,29.05964 -9.08095,9.29854 -16.04771,12.14773 -29.669151,12.13379 -9.763484,-0.01 -12.121314,-0.45653 -17.545464,-3.32295 -6.01197,-3.17707 -15.5242,-10.92857 -24.09092,-19.63169 -4.90623,-4.98436 -6.37224,-4.47013 -14.51917,5.09311 -7.39825,8.68438 -10.65771,15.19872 -12.31643,24.61547 -3.80645,21.60962 12.93634,38.65079 27.05938,27.5416 2.89072,-2.27384 3.27131,-2.3156 3.99181,-0.43798 0.43804,1.14153 0.4585,6.10635 0.0455,11.03295 -0.85002,10.13869 -5.05039,19.68981 -16.08806,36.58208 -3.6031,5.51428 -8.13365,14.53766 -10.06782,20.05194 -2.18644,6.23343 -4.10944,9.86229 -5.08366,9.59324 -6.46425,-1.78518 -10.08535,-0.60138 -15.18097,4.96285 -2.85158,3.11385 -7.26864,9.1385 -9.81566,13.38812 -5.30922,8.85825 -10.05005,12.24333 -18.83979,13.45223 -4.23429,0.58233 -7.51469,2.01091 -10.36545,4.5139 l -4.17067,3.6619 -1.65506,-4.73416 z m 39.30666,-392.300735 c 3.64981,-4.18424 4.97663,-8.06711 4.18978,-12.261343 -0.79071,-4.21487 -6.81909,-11.86366 -9.35032,-11.86366 -1.99555,0 -1.68896,3.3719 0.62814,6.90824 2.5734,3.92752 2.55982,10.457703 -0.0322,15.470093 -1.93383,3.73965 -1.91824,3.93985 0.30706,3.93985 1.28943,0 3.20532,-0.98693 4.2575,-2.19318 l 2e-5,0 z m -32.35995,-18.762893 c 4.84532,-2.47744 2.34352,-4.06402 -6.44874,-4.08968 -6.06285,-0.01767 -6.57955,0.21046 -6.57955,2.90505 0,1.60834 0.39579,3.32004 0.87953,3.80378 1.13216,1.13216 7.49478,-0.23954 12.14875,-2.61915 l 10e-6,0 z"
       style="fill:#ffe600;fill-opacity:1;fill-rule:evenodd;stroke:none"
       inkscape:connector-curvature="0" />
    <path
       id="path2410"
       d="m -356.13053,188.48831 c -6.86699,-6.89285 -13.00588,-12.53246 -13.64197,-12.53246 -0.6361,0 -3.04182,2.20251 -5.34604,4.89449 l -4.18952,4.89447 -7.83654,-0.60941 c -10.90412,-0.84794 -12.01753,-1.31677 -8.67963,-3.65473 2.04746,-1.43411 2.72293,-3.19082 2.72293,-7.08167 0,-3.63958 0.83642,-6.0665 2.8198,-8.18172 l 2.81981,-3.00728 -5.01299,-3.94255 c -10.65731,-8.3816 -13.15909,-11.56515 -13.15909,-16.74508 0,-2.67271 -0.852,-6.07586 -1.89331,-7.56254 -1.04133,-1.48669 -1.46429,-2.95336 -0.93993,-3.25926 0.52433,-0.30589 5.05897,-0.57112 10.07693,-0.58938 l 9.12356,-0.0332 4.61423,5.52011 c 2.53784,3.03604 5.05877,5.52008 5.60209,5.52008 2.65853,0 -0.70157,-9.20675 -5.25993,-14.41233 -1.20716,-1.37858 -2.54316,-5.20607 -2.96887,-8.50553 -0.97625,-7.5665 1.11002,-8.73796 7.68386,-4.31455 2.56625,1.72679 6.3578,3.90885 8.42565,4.84906 2.83767,1.29021 4.26586,3.2351 5.82337,7.93016 3.08234,9.2916 5.37426,9.10519 4.51533,-0.36726 -0.51576,-5.68765 -0.24426,-8.00795 1.06399,-9.0937 0.96603,-0.80173 1.7564,-2.53425 1.7564,-3.85006 0,-3.06702 3.47887,-4.43176 5.53617,-2.17177 3.12452,3.43233 6.02529,13.63502 5.2344,18.41055 -2.37236,14.3249 -2.31289,17.27396 0.45796,22.7053 1.50144,2.94307 7.29174,10.10277 12.86732,15.91042 9.75875,10.16493 10.07415,10.67756 8.44377,13.72395 -2.18342,4.07973 -15.29115,18.08836 -16.92513,18.08836 -0.68704,0 -6.86762,-5.63961 -13.73462,-12.53247 z"
       style="fill:#ffe600;fill-opacity:1;fill-rule:evenodd;stroke:none"
       inkscape:connector-curvature="0" />
    <path
       id="path2412"
       d="m -356.42889,188.20522 -12.81556,-12.81557 -5.34889,5.24185 c -5.32133,5.21483 -5.38759,5.23833 -12.86835,4.56552 -10.64949,-0.95778 -11.65987,-1.40682 -8.36254,-3.71635 2.04746,-1.43411 2.72293,-3.19082 2.72293,-7.08167 0,-3.63958 0.83642,-6.0665 2.8198,-8.18172 l 2.81981,-3.00728 -5.01299,-3.94255 c -10.44956,-8.21822 -13.15909,-11.6036 -13.15909,-16.44141 0,-2.50568 -0.87659,-5.89362 -1.94797,-7.52875 -1.07137,-1.63515 -1.49435,-3.23847 -0.93994,-3.56293 0.55444,-0.32447 5.11364,-0.60491 10.1316,-0.62317 l 9.12356,-0.0332 4.61423,5.52011 c 2.53784,3.03604 5.11991,5.52008 5.73795,5.52008 1.9008,0 -0.31704,-6.62189 -4.00723,-11.96463 -4.21389,-6.10098 -6.1516,-16.56078 -3.27258,-17.66557 1.02238,-0.39231 4.53919,0.90848 7.81514,2.89068 3.27597,1.98221 7.0842,4.21239 8.46277,4.95599 1.37857,0.74359 3.56101,4.24871 4.84988,7.78914 2.8447,7.81421 5.05483,7.16222 4.24627,-1.25266 -0.93936,-9.77614 4.90412,-19.5196 8.70667,-14.51756 2.96219,3.89657 5.60863,13.80084 4.87359,18.23918 -2.51027,15.15761 -2.41374,17.48839 0.96305,23.25045 1.79426,3.06169 7.5818,10.15836 12.86119,15.77038 8.5082,9.04428 9.45192,10.51828 8.30558,12.97264 -1.81617,3.88846 -15.25735,18.43456 -17.03428,18.43456 -0.80798,0 -7.23605,-5.767 -14.28461,-12.81556 l 10e-6,0 z"
       style="fill:#ffe600;fill-opacity:1;fill-rule:evenodd;stroke:none"
       inkscape:connector-curvature="0" />
    <path
       id="path2414"
       d="m -221.75646,482.16409 c -1.70357,-2.8424 -3.59825,-16.56557 -2.94506,-21.33106 0.4073,-2.97175 0.25646,-5.40316 -0.33525,-5.40316 -2.23375,0 -4.00155,3.71115 -4.74073,9.95232 -0.67896,5.73268 -1.2019,6.64067 -4.65634,8.08467 -2.14032,0.89468 -4.67127,2.56695 -5.62433,3.71615 -1.32517,1.59792 -2.13596,1.75489 -3.44643,0.66731 -2.4374,-2.02288 -2.32,-20.11901 0.16168,-24.91806 1.128,-2.1813 1.39593,-3.92263 0.67235,-4.36983 -1.94351,-1.20114 -6.06824,3.83171 -7.50097,9.15247 -1.07045,3.97533 -2.0206,5.06268 -4.93288,5.64514 -1.98391,0.39678 -5.08276,1.09179 -6.88639,1.54448 -2.94101,0.73816 -3.27933,0.46777 -3.27933,-2.62063 0,-3.94169 5.9579,-14.33897 11.63681,-20.30765 5.0391,-5.29619 3.61568,-6.46581 -3.06643,-2.5196 l -5.31797,3.14061 -4.82072,-3.19018 c -5.73631,-3.79616 -5.05264,-5.00637 5.06114,-8.95906 8.15706,-3.18795 12.69583,-3.20544 21.57211,-0.0831 9.13302,3.21267 28.07146,3.47064 32.61887,0.44431 10.62635,-7.07195 35.05645,-35.27168 35.05645,-40.46582 0,-2.57936 -5.96923,-1.29279 -14.15413,3.05073 -4.54609,2.4125 -8.79301,4.38636 -9.43758,4.38636 -0.64457,0 -1.40949,-3.28374 -1.6998,-7.2972 -0.4246,-5.86999 -1.66689,-9.24034 -6.35166,-17.23215 -8.94263,-15.25531 -10.10273,-20.82333 -10.37984,-49.8191 -0.1853,-19.38746 -0.62,-25.18969 -1.97897,-26.41339 -19.55085,-17.60476 -30.74011,-25.26663 -44.79752,-30.67523 -14.08544,-5.41938 -30.9793,-7.98864 -37.09565,-5.64158 -2.29409,0.88032 -5.69575,6.81508 -5.69575,9.93719 0,1.13707 1.91938,3.98682 4.2653,6.33274 l 4.26532,4.26531 -3.13919,2.46927 c -4.41052,3.46931 -10.71857,4.35314 -20.31793,2.84676 l -8.25857,-1.29599 -6.70293,6.58214 -6.70289,6.58207 2.16068,4.17827 c 1.90344,3.68088 1.98153,5.18055 0.65599,12.5978 -0.82755,4.63073 -2.26014,9.4527 -3.1835,10.71548 -1.59662,2.18353 -1.80269,2.13855 -4.20724,-0.91835 -1.39062,-1.7679 -4.89953,-3.92473 -7.79759,-4.79301 l -5.26921,-1.5787 -6.72194,6.63848 c -6.5061,6.42526 -6.95344,6.6414 -13.92799,6.72924 -3.96329,0.0499 -8.19291,0.55242 -9.39916,1.11665 -1.94679,0.91064 -2.19318,0.25404 -2.19318,-5.8444 0,-11.32578 1.09352,-14.43141 6.40345,-18.18609 8.29723,-5.86705 5.74062,-7.12681 -4.64715,-2.28992 -5.86462,2.73076 -6.88947,2.84844 -12.46888,1.43177 -3.3435,-0.84893 -6.26909,-2.1136 -6.50135,-2.81037 -0.23226,-0.69676 2.55616,-4.7888 6.19646,-9.09343 l 6.61875,-7.82661 5.9966,0.57622 c 7.81533,0.75094 8.63121,-0.83774 1.65157,-3.21594 -3.03884,-1.03545 -7.8234,-4.18084 -10.63233,-6.98977 l -5.10718,-5.10718 3.54925,-1.83534 c 1.95205,-1.00947 6.16308,-2.49356 9.35783,-3.29801 5.54162,-1.39541 6.08822,-1.28321 11.89155,2.44078 9.30436,5.9706 12.97387,5.42415 23.47278,-3.49542 7.6593,-6.50713 23.12125,-22.76732 23.12125,-24.31494 0,-0.3112 -3.24278,-2.9968 -7.20617,-5.96799 -8.23423,-6.17283 -19.11202,-16.26251 -19.11202,-17.7273 0,-0.54288 0.75781,-0.98704 1.68402,-0.98704 4.11441,0 18.8099,-12.01143 38.19253,-31.21685 25.43719,-25.20465 30.84396,-28.70876 51.49934,-33.37663 22.27297,-5.03342 27.97275,-6.80979 32.25394,-10.05213 4.42476,-3.3511 9.8406,-13.4017 8.75127,-16.24046 -1.6969,-4.42202 -12.4337,-0.86319 -17.07942,5.66111 -3.10059,4.35436 -3.8334,4.12144 -8.85848,-2.81548 -3.89485,-5.37667 -4.5913,-10.09461 -2.24904,-15.23531 1.35618,-2.97644 1.60494,-3.0424 4.95075,-1.31222 5.01441,2.59305 7.93276,2.2721 12.23174,-1.34526 4.61411,-3.88251 5.83956,-8.82417 3.84178,-15.492145 -3.29583,-11.00047 -13.34302,-14.20407 -20.26182,-6.46059 l -3.5179,3.93722 -3.81652,-8.15576 c -4.65892,-9.95584 -4.43142,-13.208963 1.05222,-15.046593 5.80452,-1.94519 5.5442,-3.62256 -0.75554,-4.8684 -3.18794,-0.63044 -5.00935,-1.54716 -4.3614,-2.19512 0.61192,-0.61193 9.95354,-2.53945 20.75914,-4.2834 21.60253,-3.4865 44.66006,-4.20037 54.62483,-1.69121 7.47604,1.88249 17.2935,11.39329 22.52073,21.817293 3.5066,6.99277 14.0703,35.668385 14.0703,38.194445 0,0.64403 -1.76238,1.17099 -3.91639,1.17099 -3.75927,0 -3.88192,0.16341 -3.05711,4.07305 3.09312,14.66131 3.36474,19.6767 1.90265,35.13016 l -1.51554,16.01816 -2.92892,-1.91914 c -4.28845,-2.80987 -4.96262,-2.4681 -6.72081,3.40719 -2.74523,9.17364 -8.33592,18.75156 -16.94783,29.03492 -4.57052,5.4576 -8.85067,10.93308 -9.51143,12.16773 -1.6488,3.08076 5.21675,10.78152 50.39125,56.52143 37.64427,38.11546 41.26579,41.073 50.293794,41.073 6.593291,0 16.103721,-5.43131 19.981001,-11.41095 8.7386,-13.47689 3.60861,-30.48651 -10.01628,-33.21149 -7.537221,-1.50745 -15.265151,6.22483 -15.351931,15.36054 l -0.03393,3.57034 -4.352414,-4.68128 c -5.64123,-6.06739 -5.99887,-13.36822 -1.0671,-21.78366 1.80701,-3.08335 2.89584,-5.99563 2.41972,-6.47174 -0.47612,-0.47613 -8.58108,-1.1556 -18.01103,-1.50995 -19.06685,-0.71649 -21.51626,-1.59061 -30.55591,-10.90465 -7.38282,-7.60685 -10.09543,-15.20631 -10.18083,-28.5214 -0.0633,-9.86541 0.35511,-12.17711 3.20212,-17.69305 4.50248,-8.72328 6.41669,-10.16105 8.68435,-6.52275 4.38224,7.03108 4.9658,9.85078 3.44501,16.64641 -2.88383,12.88645 1.32554,24.1152 10.77441,28.74122 4.06578,1.99055 7.42228,2.4125 18.15554,2.28238 l 13.16761,-0.15965 4.676664,4.52907 c 2.57218,2.49096 4.98319,4.22254 5.35781,3.84792 1.41684,-1.41684 -4.48631,-12.47055 -9.660344,-18.08917 -2.9629,-3.21752 -9.96058,-9.42312 -15.55036,-13.79025 -12.90007,-10.07846 -18.72666,-16.54775 -22.87839,-25.40217 -2.91232,-6.21101 -3.30252,-8.60124 -3.30252,-20.2287 0,-12.33064 0.26283,-13.71932 4.05414,-21.42059 8.30202,-16.8638 18.08032,-24.27057 38.82214,-29.40667 14.144345,-3.50243 17.026725,-5.17169 20.422035,-11.82705 1.40146,-2.74706 3.21473,-4.99466 4.02951,-4.99466 0.81478,0 3.35373,1.83287 5.6421,4.07305 2.2884,2.24018 8.47897,6.3289 13.7569,9.08604 5.277921,2.75714 10.363381,6.21202 11.301031,7.6775 1.51855,2.37346 1.35079,3.08521 -1.53595,6.51591 -1.78239,2.11825 -6.45746,5.37084 -10.389041,7.22796 -3.93159,1.85711 -9.46225,5.26953 -12.29037,7.58312 -2.82817,2.31359 -6.05945,4.20655 -7.18071,4.20655 -1.12128,0 -3.17986,-2.23699 -4.57469,-4.97108 -3.2244,-6.32029 -5.64244,-7.56139 -14.731871,-7.56139 -22.261434,0 -37.296314,22.48668 -29.907864,44.73122 2.71516,8.17453 7.51024,13.52884 21.42502,23.92365 10.297884,7.69287 18.148485,16.59703 25.155495,28.53139 1.26493,2.15446 1.69197,2.09706 8.07886,-1.08566 8.02177,-3.99742 12.95684,-4.22923 18.470351,-0.86758 5.34872,3.26117 5.13894,4.62632 -0.86685,5.641 -5.956971,1.00642 -11.346291,5.99494 -11.368041,10.52252 -0.0086,1.80156 2.95215,9.1624 6.57955,16.35745 l 6.595271,13.08194 0,13.86287 c 0,12.09729 -0.37013,14.55645 -2.906151,19.30851 -6.96705,13.05508 -19.69841,21.43364 -34.138681,22.46684 -14.596954,1.04439 -23.728974,-3.29348 -41.283094,-19.6102 -3.79107,-3.52385 -7.83605,-6.41045 -8.98885,-6.41468 -3.04791,-0.0112 -13.06674,11.92544 -17.46962,20.8136 -3.16459,6.3884 -3.81189,9.23424 -3.89356,17.11791 -0.0832,8.03471 0.39312,10.29365 3.16984,15.03173 5.9252,10.11062 15.17275,13.0592 23.14758,7.38062 3.60331,-2.56577 4.13172,-2.65413 4.83962,-0.80939 1.42563,3.71507 -0.59003,19.19152 -3.29629,25.30945 -1.45409,3.28721 -5.92207,11.34156 -9.92887,17.89859 -9.47493,15.50552 -10.08737,16.7137 -13.32278,26.28364 l -2.73691,8.09553 -5.54365,-0.34092 c -7.31864,-0.45004 -10.8252,2.38268 -19.39632,15.669 -7.7322,11.98585 -9.97049,13.73938 -20.74701,16.25337 -4.893,1.14145 -9.16463,3.05374 -11.21993,5.02283 -1.82536,1.74878 -3.60004,2.71044 -3.94374,2.13695 l 1e-5,-4e-5 z m 37.6318,-395.860725 c 1.51173,-1.05887 3.39988,-4.09893 4.19587,-6.75569 1.27559,-4.25756 1.12009,-5.412593 -1.31105,-9.738213 -2.73844,-4.87239 -7.1836,-8.71547 -8.527,-7.37206 -0.38538,0.38538 0.31931,2.96263 1.56598,5.72724 2.72699,6.04743 2.74539,11.005653 0.06,16.198533 -2.29467,4.43737 -0.6698,5.22236 4.01614,1.94019 l 2e-5,0 z m -35.62521,-17.617913 c 8.83183,-3.00932 7.17604,-5.52182 -3.639,-5.52182 -4.96528,0 -5.53711,0.302 -5.53711,2.92424 0,5.14755 0.92436,5.40922 9.1761,2.59757 l 1e-5,1e-5 z"
       style="fill:#ffe600;fill-opacity:1;fill-rule:evenodd;stroke:none"
       inkscape:connector-curvature="0" />
    <path
       id="path2416"
       d="m -221.76173,482.15561 c -1.3932,-2.32517 -3.56972,-15.81288 -3.25505,-20.17114 0.18563,-2.57112 -0.19501,-4.95671 -0.8459,-5.30135 -1.40802,-0.74556 -4.14562,6.71812 -4.24581,11.57571 -0.0547,2.65353 -0.99245,3.8149 -4.14379,5.13217 -2.24018,0.93642 -4.85283,2.64281 -5.80589,3.79201 -1.32517,1.59792 -2.13596,1.75489 -3.44643,0.66731 -2.4374,-2.02288 -2.32,-20.11901 0.16168,-24.91806 1.091,-2.10977 1.38433,-3.9298 0.70135,-4.35191 -1.82407,-1.12738 -6.24513,4.36304 -7.61764,9.46011 -0.98079,3.64241 -1.9879,4.74811 -4.84521,5.31958 -1.98391,0.39678 -5.08276,1.09179 -6.88639,1.54448 -2.94101,0.73816 -3.27933,0.46777 -3.27933,-2.62063 0,-3.72095 5.61906,-13.698 11.52195,-20.45802 2.01934,-2.31261 3.37789,-4.49833 3.01898,-4.85725 -0.35892,-0.35896 -3.04567,0.7607 -5.97055,2.48802 l -5.31797,3.14061 -4.82072,-3.19018 c -5.73631,-3.79616 -5.05264,-5.00637 5.06114,-8.95906 8.23315,-3.21768 12.53171,-3.23041 22.6237,-0.0669 9.95594,3.12089 24.9612,3.34755 31.02783,0.46874 7.39214,-3.50777 35.5959,-35.26949 35.5959,-40.08635 0,-2.80431 -3.80267,-2.06931 -13.60988,2.63067 -5.03403,2.4125 -9.59248,4.38636 -10.12987,4.38636 -0.53738,0 -1.28587,-3.40562 -1.66331,-7.56806 -0.53317,-5.88002 -1.81858,-9.44406 -5.76298,-15.97889 -9.24399,-15.3149 -11.44435,-26.0548 -11.44435,-55.85945 l 0,-19.39704 -9.08603,-8.33018 c -17.19224,-15.762 -33.96873,-24.88324 -52.99584,-28.8134 -16.14945,-3.33575 -22.9112,-2.24481 -25.54842,4.12198 -1.28652,3.10592 -1.215,4.37985 0.42375,7.54883 1.08429,2.0968 3.1029,4.60487 4.48578,5.57347 2.3887,1.67314 2.40462,1.86038 0.31817,3.74858 -4.29041,3.88275 -9.36466,4.89255 -20.36364,4.05241 l -10.6526,-0.81368 -6.06567,6.1987 -6.06567,6.19864 2.09229,4.04602 c 1.58392,3.063 1.88202,5.61288 1.22694,10.49508 -0.84806,6.32042 -3.5993,14.59517 -4.85269,14.59517 -0.34846,0 -1.99711,-1.3635 -3.66361,-3.03001 -1.66652,-1.66652 -5.20821,-3.63144 -7.87044,-4.36652 -4.791,-1.32287 -4.90827,-1.26953 -11.4832,5.22319 -6.28605,6.20743 -6.99373,6.56131 -13.17841,6.58957 -3.5946,0.0164 -7.88061,0.50154 -9.52446,1.07803 l -2.98884,1.04815 0.59453,-10.26998 0.59454,-10.26999 5.52739,-4.963 c 4.63283,-4.15977 5.02034,-4.83085 2.39432,-4.14639 -1.72322,0.44918 -5.45029,1.81729 -8.28237,3.04029 -4.47589,1.93286 -5.94257,2.0222 -11.21563,0.68332 -3.33652,-0.84718 -6.2564,-2.11038 -6.48866,-2.80715 -0.23226,-0.69676 2.5067,-4.73033 6.08658,-8.96349 6.38367,-7.54867 6.63037,-7.69667 12.82849,-7.69667 6.87916,0 6.68679,-1.32696 -0.52596,-3.6279 -2.45542,-0.78329 -6.6457,-3.65802 -9.31171,-6.38827 l -4.84728,-4.96409 5.75259,-2.54461 c 10.17313,-4.50009 12.74785,-4.52263 19.52919,-0.17106 6.78784,4.35574 11.92308,4.93106 16.56116,1.85538 3.77273,-2.50183 30.04347,-28.26371 30.04347,-29.46153 0,-0.47002 -2.9608,-3.00553 -6.57955,-5.63449 -7.61154,-5.52966 -19.73864,-16.64343 -19.73864,-18.08934 0,-0.54284 1.26892,-1.38425 2.81981,-1.86977 5.81141,-1.81931 14.72054,-9.20457 36.12877,-29.94911 27.71413,-26.85488 31.25851,-29.02952 57.37188,-35.1999 10.78266,-2.54785 21.67223,-5.67709 24.19901,-6.95383 4.99658,-2.52472 8.68139,-7.04454 10.76663,-13.20649 3.24023,-9.57501 -8.20565,-8.74849 -15.99578,1.15505 -3.12023,3.96673 -3.87054,3.69768 -8.84712,-3.17229 -3.87279,-5.34622 -4.59153,-10.09411 -2.29205,-15.14091 1.3492,-2.96119 1.50714,-2.99154 6.12666,-1.17694 6.19011,2.43156 10.99344,0.34171 14.17504,-6.16724 1.86765,-3.82091 2.03053,-5.48308 0.93568,-9.549045 -2.1563,-8.00781 -5.6691,-11.51633 -11.53043,-11.51633 -3.89883,0 -5.85258,0.83414 -8.75736,3.73892 l -3.7389,3.73892 -3.77813,-8.0736 c -4.67026,-9.98015 -4.41277,-13.319103 1.14964,-14.907513 5.22844,-1.49303 4.61792,-3.35523 -1.68035,-5.12545 -2.71665,-0.76356 -4.33395,-1.76385 -3.59401,-2.22288 3.50419,-2.17383 33.07264,-6.31592 49.26162,-6.90077 24.47221,-0.88412 29.83526,0.37204 38.47489,9.01167 3.6036,3.60362 8.27372,9.962673 10.37801,14.131263 3.50249,6.93839 13.95896,35.463545 13.95896,38.079915 0,0.61267 -1.75763,1.11393 -3.90584,1.11393 -3.60565,0 -3.8487,0.26488 -3.16237,3.44643 3.03501,14.06906 3.54675,22.21862 2.20303,35.08354 -0.77437,7.41388 -1.40638,14.24958 -1.40449,15.19047 0.003,1.34874 -0.66694,1.27144 -3.16508,-0.3654 -3.92078,-2.56902 -5.01526,-1.93817 -6.93711,3.99846 -2.93613,9.06975 -7.8554,17.33315 -17.13905,28.79036 -7.57095,9.34352 -9.23453,12.15395 -8.62698,14.5746 0.7965,3.17345 64.54706,69.85317 79.58899,83.24585 4.86968,4.33574 10.95409,8.76064 13.52098,9.83316 5.134544,2.14534 12.105055,1.60181 17.902025,-1.39592 9.37423,-4.84762 15.34283,-17.99165 12.67268,-27.90782 -2.54565,-9.45375 -12.75629,-15.98242 -19.742001,-12.62301 -4.55693,2.19143 -9.16017,9.22285 -9.20233,14.0565 l -0.03393,3.88772 -4.352414,-4.68128 c -3.68007,-3.95805 -4.35247,-5.58676 -4.35247,-10.54249 0,-4.04404 1.00563,-7.57719 3.2436,-11.39601 1.78402,-3.04412 2.88483,-5.89358 2.4463,-6.33209 -0.43847,-0.43851 -8.2427,-1.01133 -17.34263,-1.27292 -18.56905,-0.5338 -22.27671,-1.85278 -31.20912,-11.1025 -7.39029,-7.65279 -10.09548,-15.23781 -10.18083,-28.54539 -0.0633,-9.86541 0.35511,-12.17711 3.20212,-17.69305 4.50729,-8.7326 6.41031,-10.15658 8.71721,-6.52275 4.16029,6.55325 4.94435,10.29992 3.49722,16.71087 -2.76237,12.23786 1.6835,24.3875 10.44558,28.54537 3.23276,1.53404 7.90684,2.07574 17.91093,2.07574 13.51495,0 13.54325,0.006 17.65059,3.9874 5.284574,5.12204 6.608394,3.72825 3.173654,-3.34145 -3.627134,-7.46579 -9.860954,-14.15434 -22.096814,-23.70879 -12.93098,-10.0973 -18.96914,-16.79787 -23.12607,-25.66338 -2.91101,-6.20822 -3.30252,-8.60335 -3.30252,-20.20235 0,-12.14345 0.30085,-13.78782 3.89805,-21.30519 7.71178,-16.11599 19.22707,-25.02615 38.08572,-29.46942 12.947894,-3.05063 17.667295,-5.68289 21.081915,-11.75838 1.58958,-2.82828 3.53217,-5.14233 4.31686,-5.14233 0.78471,0 3.16217,1.68208 5.2833,3.73796 2.12115,2.0559 8.29777,6.14459 13.72588,9.08604 5.428101,2.94147 10.650411,6.54711 11.605091,8.01259 1.55515,2.38716 1.39852,3.06538 -1.50458,6.51552 -1.78219,2.11803 -6.32748,5.36136 -10.100571,7.20737 -3.77307,1.84599 -9.24583,5.2531 -12.16163,7.57134 -2.91578,2.31824 -6.2348,4.22046 -7.37556,4.22714 -1.14077,0.007 -3.52013,-2.45533 -5.28752,-5.47114 -3.40485,-5.8099 -5.78867,-7.00439 -14.033631,-7.03205 -21.852724,-0.0733 -37.594414,23.54054 -30.014534,45.0242 2.74676,7.78507 6.72007,12.21577 20.32678,22.66662 11.172574,8.58125 19.185055,17.59907 26.070015,29.34099 1.15631,1.97204 1.78642,1.889 8.14611,-1.07342 8.29128,-3.86214 13.05493,-4.0535 18.485391,-0.74248 5.26079,3.20757 5.14084,4.54745 -0.50188,5.60603 -2.540101,0.47653 -6.228531,2.51187 -8.292721,4.57605 -4.70341,4.70344 -4.27575,7.34957 3.80015,23.51227 l 5.934381,11.87682 0,13.87873 c 0,15.95145 -1.75783,20.71554 -11.084941,30.04266 -8.61785,8.61783 -15.7144,11.40754 -29.018951,11.40754 -14.273144,0 -19.043644,-2.19092 -34.529964,-15.85836 -8.57737,-7.57 -11.89509,-9.78579 -13.76396,-9.19264 -3.23542,1.0269 -12.68576,12.70591 -16.42313,20.29622 -2.45007,4.9759 -2.95828,7.96148 -2.95828,17.37907 0,10.01781 0.36605,11.90525 3.07583,15.85992 5.83944,8.52211 14.40209,10.81067 22.34004,5.97092 5.25911,-3.20648 5.91298,-1.84811 4.90394,10.1878 -0.85304,10.17542 -3.78129,17.14514 -14.59931,34.7491 -4.21068,6.85195 -9.26233,16.86469 -11.2259,22.25051 l -3.57012,9.79239 -5.52016,-0.3394 c -7.25225,-0.44601 -10.33688,2.054 -19.26856,15.61661 -7.51643,11.41355 -11.77069,14.88394 -19.89437,16.22856 -5.92687,0.98098 -9.0638,2.40524 -12.81859,5.8199 -1.47818,1.34423 -2.96644,1.97875 -3.30725,1.40995 l 0,-10e-6 z m 38.00266,-396.483565 c 5.81309,-5.81307 5.70179,-13.252763 -0.29372,-19.634693 -3.26734,-3.47793 -6.73349,-3.91796 -5.36074,-0.68053 3.43133,8.09225 3.99093,10.967873 2.84681,14.629203 -0.66276,2.12092 -1.50712,4.84312 -1.87636,6.04937 -0.90673,2.96214 1.54904,2.77163 4.68403,-0.36335 l -2e-5,0 z M -220.3807,68.754692 c 9.59594,-2.84969 8.12101,-5.59106 -3.00817,-5.59106 -4.96528,0 -5.53711,0.302 -5.53711,2.92424 0,2.3875 0.89424,4.59524 1.86129,4.59524 0.10464,0 3.11243,-0.86778 6.68397,-1.92842 l 2e-5,0 z"
       style="fill:#ffe600;fill-opacity:1;fill-rule:evenodd;stroke:none"
       inkscape:connector-curvature="0" />
    <path
       id="path2418"
       d="m -331.86807,411.87955 c -1.11489,-5.95872 -0.54017,-16.78316 1.09857,-20.69136 1.08677,-2.59185 1.55914,-5.12927 1.04968,-5.63874 -1.17799,-1.17798 -8.23863,6.63604 -8.23863,9.11773 0,2.26001 -0.5687,2.30884 -3.75009,0.32202 -1.93416,-1.20791 -3.32512,-1.21258 -6.4799,-0.0218 -2.2094,0.83396 -4.32038,1.21295 -4.69111,0.84222 -0.37075,-0.37073 0.86099,-3.40484 2.73716,-6.74246 1.87615,-3.33762 3.41122,-6.92882 3.41122,-7.98047 0,-1.05163 1.69188,-3.60395 3.75974,-5.67181 4.45162,-4.45162 4.61921,-5.2058 1.15684,-5.2058 -1.43158,0 -4.32009,1.71719 -6.41888,3.81598 l -3.81597,3.81598 -3.2938,-3.20417 c -1.81158,-1.76231 -4.36851,-3.9591 -5.68209,-4.88179 -2.20323,-1.5476 -1.72083,-2.03204 6.22523,-6.25141 9.51767,-5.05391 10.29865,-5.2172 14.90811,-3.11698 1.75855,0.80123 3.58439,1.0698 4.05742,0.59678 1.43625,-1.43625 -2.8391,-4.76583 -7.31155,-5.69418 -3.39383,-0.70443 -4.13716,-1.39972 -3.82793,-3.58057 0.21106,-1.4885 -0.2576,-3.90476 -1.04148,-5.36944 -0.78388,-1.46469 -1.16157,-2.92669 -0.83933,-3.24893 0.32222,-0.32222 4.40261,0.43102 9.06751,1.6739 7.14778,1.90438 9.84161,3.47919 17.1292,10.01372 13.4753,12.08281 15.93279,12.92462 37.73174,12.92462 13.94228,0 18.40303,-0.38188 18.40303,-1.57545 0,-0.8665 -2.56141,-4.67323 -5.69201,-8.45941 -6.88573,-8.32766 -12.35572,-19.43269 -14.31044,-29.05263 -1.36154,-6.70082 -1.78305,-7.29156 -7.00659,-9.82023 -8.11677,-3.92925 -13.37788,-12.48175 -7.69459,-12.50837 5.62052,-0.0263 11.77406,-3.45546 20.16926,-11.23959 5.11963,-4.74696 11.02019,-9.51606 13.1124,-10.59798 5.60071,-2.89621 17.67639,-2.56177 24.33668,0.67405 4.90124,2.3812 5.38221,3.00986 4.88656,6.38691 -0.47772,3.25487 0.54627,4.85021 7.81378,12.17385 7.42533,7.48267 8.3867,9.00936 8.57015,13.60981 0.24568,6.16054 -0.50769,7.2047 -3.89158,5.39369 -6.56092,-3.51129 -18.15265,0.51845 -19.74534,6.86425 -1.46017,5.8178 0.37047,17.43751 3.93398,24.97014 2.34835,4.96398 7.00437,10.8886 14.54769,18.51133 6.10168,6.16596 10.74055,11.78265 10.30859,12.48157 -1.80017,2.91272 -12.84055,6.31529 -27.77651,8.56047 -8.75732,1.31641 -17.69588,2.70309 -19.86343,3.08151 -2.16755,0.37843 -6.05184,2.36551 -8.63175,4.41576 -4.91758,3.908 -9.35906,4.88859 -9.35906,2.0663 0,-2.92416 -5.63781,-7.11131 -9.57504,-7.11131 -2.52744,0 -6.2261,1.85164 -11.19845,5.60622 -6.71129,5.06762 -8.09819,5.60943 -14.43649,5.63961 -5.39214,0.0257 -7.53594,0.61241 -9.28028,2.53989 -2.32722,2.57154 -4.25062,3.232 -4.56223,1.56656 l 1e-5,0 z"
       style="fill:#ffe600;fill-opacity:1;fill-rule:evenodd;stroke:none"
       inkscape:connector-curvature="0" />
    <path
       id="path2420"
       d="m -332.10963,411.87955 c -1.19583,-1.98822 0.0619,-18.6542 1.6555,-21.93712 0.92154,-1.89843 1.25536,-3.87192 0.7418,-4.3855 -1.18338,-1.18338 -8.24612,6.61949 -8.24612,9.11025 0,2.23929 -0.25135,2.26285 -4.3274,0.40568 -2.438,-1.11082 -3.97049,-1.09974 -6.48715,0.0469 -1.81227,0.82574 -3.59698,1.19941 -3.96599,0.8304 -0.36903,-0.36899 0.78577,-3.6329 2.56619,-7.25309 1.78038,-3.62018 3.60788,-7.8661 4.06104,-9.43536 0.45315,-1.56925 2.19107,-3.74897 3.862,-4.84381 1.67094,-1.09482 3.03807,-2.48972 3.03807,-3.09973 0,-2.40187 -4.95674,-0.91403 -8.74539,2.62508 l -3.99744,3.7342 -5.52639,-4.61948 c -3.03954,-2.54073 -5.10706,-4.99014 -4.5945,-5.44313 0.51254,-0.45297 4.49547,-2.69168 8.85094,-4.97487 7.36561,-3.86118 8.22611,-4.04025 12.31297,-2.5624 2.41668,0.87387 4.74114,1.24169 5.16546,0.81735 1.3603,-1.3603 -3.05282,-4.7033 -7.40008,-5.60565 -3.39383,-0.70443 -4.13716,-1.39972 -3.82793,-3.58057 0.21106,-1.4885 -0.2576,-3.90476 -1.04148,-5.36944 -0.78388,-1.46469 -1.16157,-2.92669 -0.83933,-3.24893 0.32222,-0.32222 4.3825,0.42579 9.02285,1.66226 7.0545,1.87976 9.89546,3.53162 17.33799,10.08115 13.17247,11.59197 14.67909,12.12554 35.73574,12.65612 9.99929,0.25196 18.50282,-0.0604 19.14571,-0.7033 0.70661,-0.70663 -1.35771,-4.53214 -5.30607,-9.83295 -7.24163,-9.72214 -11.28714,-18.00209 -13.62793,-27.8922 -1.41602,-5.9828 -2.20999,-7.06989 -7.57466,-10.3708 -8.96069,-5.51356 -12.52373,-12.34615 -6.47916,-12.42465 4.47449,-0.0581 12.95944,-5.10119 20.70282,-12.30484 4.43468,-4.12558 9.79403,-8.39617 11.90963,-9.49019 5.64396,-2.9186 17.69315,-2.59635 24.37927,0.65203 4.83458,2.34882 5.3778,3.03999 4.90753,6.24411 -0.44963,3.06345 0.73565,4.9127 7.91568,12.34992 7.41311,7.67863 8.46044,9.3552 8.57507,13.72674 0.15679,5.97954 -0.99216,7.44181 -4.24909,5.40783 -6.05189,-3.77949 -17.9082,0.29548 -19.51769,6.70814 -1.12532,4.48371 0.25816,16.58617 2.51295,21.98264 2.73178,6.53808 12.5112,19.02981 20.40796,26.06808 4.31975,3.85013 6.58699,6.74628 6.01095,7.67835 -1.99609,3.22973 -12.82173,6.5246 -30.54948,9.29802 -18.38656,2.87649 -21.78032,3.91019 -27.55702,8.39353 -3.5525,2.75715 -7.66378,3.04185 -7.66378,0.53074 0,-2.52889 -6.05304,-6.98382 -9.48915,-6.98382 -1.58667,0 -6.59176,2.53783 -11.12239,5.63961 -6.97988,4.77861 -9.16649,5.63962 -14.32254,5.63962 -4.1874,0 -7.07877,0.78166 -9.27153,2.50649 -3.48931,2.74468 -4.24069,2.97601 -5.08842,1.56656 l -10e-6,0 z"
       style="fill:#ffe600;fill-opacity:1;fill-rule:evenodd;stroke:none"
       inkscape:connector-curvature="0" />
  </g>
</svg>
