<?xml version="1.0" ?>
<!-- Created with Inkscape (http://www.inkscape.org/) --><!DOCTYPE svg
  PUBLIC '-//W3C//DTD SVG 1.1//EN'
  'http://www.w3.org/Graphics/SVG/1.1/DTD/svg11.dtd' [
	<!ENTITY stroke_color "#666666">
	<!ENTITY fill_color "#ffffff">
]>
<svg height="55" id="svg2814" inkscape:version="0.47 r22583" sodipodi:docname="prueba4.svg" version="1.1" width="55" xmlns="http://www.w3.org/2000/svg" xmlns:cc="http://creativecommons.org/ns#" xmlns:dc="http://purl.org/dc/elements/1.1/" xmlns:inkscape="http://www.inkscape.org/namespaces/inkscape" xmlns:rdf="http://www.w3.org/1999/02/22-rdf-syntax-ns#" xmlns:sodipodi="http://sodipodi.sourceforge.net/DTD/sodipodi-0.dtd" xmlns:svg="http://www.w3.org/2000/svg">
  <defs id="defs2816">
    <inkscape:perspective id="perspective2822" inkscape:persp3d-origin="24 : 16 : 1" inkscape:vp_x="0 : 24 : 1" inkscape:vp_y="0 : 1000 : 0" inkscape:vp_z="48 : 24 : 1" sodipodi:type="inkscape:persp3d"/>
    <inkscape:perspective id="perspective2832" inkscape:persp3d-origin="0.5 : 0.33333333 : 1" inkscape:vp_x="0 : 0.5 : 1" inkscape:vp_y="0 : 1000 : 0" inkscape:vp_z="1 : 0.5 : 1" sodipodi:type="inkscape:persp3d"/>
  </defs>
  <sodipodi:namedview bordercolor="#666666" borderopacity="1.0" id="base" inkscape:current-layer="layer1" inkscape:cx="62.050101" inkscape:cy="33.991436" inkscape:document-units="px" inkscape:grid-bbox="true" inkscape:pageopacity="0.0" inkscape:pageshadow="2" inkscape:snap-midpoints="true" inkscape:window-height="544" inkscape:window-maximized="1" inkscape:window-width="800" inkscape:window-x="-4" inkscape:window-y="-4" inkscape:zoom="4.9497475" pagecolor="#ffffff" showgrid="true"/>
  <metadata id="metadata2819">
    <rdf:RDF>
      <cc:Work rdf:about="">
        <dc:format>image/svg+xml</dc:format>
        <dc:type rdf:resource="http://purl.org/dc/dcmitype/StillImage"/>
        <dc:title/>
      </cc:Work>
    </rdf:RDF>
  </metadata>
  <g id="layer1" inkscape:groupmode="layer" inkscape:label="Layer 1" transform="translate(-0.59438969,14.502613)">
    <path d="" id="path2879" style="fill:#00ff00" transform="translate(0.59438969,-7.5026134)"/>
    <path d="" id="path2897" style="fill:#00ff00" transform="translate(0.59438969,-7.5026134)"/>
    <path d="" id="path2901" style="fill:#00ff00" transform="translate(0.59438969,-7.5026134)"/>
    <path d="" id="path3591" style="fill:#ffffa6;fill-opacity:1;stroke:#6666cf;stroke-width:0.0404061;stroke-miterlimit:4;stroke-opacity:1;stroke-dasharray:none" transform="translate(0.59438969,-14.502613)"/>
    <path d="" id="path3605" style="fill:#ffffa6;fill-opacity:1;stroke:#6666cf;stroke-width:0.0404061;stroke-miterlimit:4;stroke-opacity:1;stroke-dasharray:none" transform="translate(0.59438969,-14.502613)"/>
    <path d="" id="path3633" style="fill:#ffffa6;fill-opacity:1;stroke:#6666cf;stroke-width:0.02020305;stroke-miterlimit:4;stroke-opacity:1;stroke-dasharray:none" transform="translate(0.59438969,-14.502613)"/>
    <path d="M 12.812378,33.95809 C 12.043952,33.621733 11.45484,33.135306 10.950452,32.420712 9.5314835,30.410376 8.811034,27.506772 9.0947918,24.941911 c 0.083335,-0.75323 0.3360767,-1.82136 0.5470183,-2.311767 0.051395,-0.11949 0.020785,-0.147632 -0.1606152,-0.147632 -0.4678818,0 -1.7422741,-0.873288 -1.9956041,-1.367505 -0.264282,-0.515581 -0.1773119,-2.175656 0.1139791,-2.175656 0.039495,0 0.1096341,-0.108545 0.1558838,-0.2412 0.080858,-0.23196 0.2713991,-0.352825 1.299098,-0.824078 0.1391951,-0.06383 0.4428952,-0.140105 0.6748877,-0.169504 0.3997936,-0.05066 0.8059766,-0.191036 0.5694366,-0.196791 -0.058,-0.0014 -0.105449,-0.05023 -0.105449,-0.108477 0,-0.05825 -0.151851,-0.26712 -0.3374447,-0.464157 -0.209019,-0.221905 -0.3374444,-0.438882 -0.3374444,-0.570122 0,-0.116532 -0.033877,-0.277796 -0.075287,-0.358364 C 9.4018418,15.926098 9.3240661,15.765267 9.2704047,15.649271 9.2167398,15.533275 9.1109084,15.324481 9.0352136,15.185286 8.8929243,14.92363 8.4854931,13.837112 8.3076206,13.244982 8.2518692,13.059388 8.1598559,12.824618 8.1031461,12.723272 8.0464317,12.621915 8.0000352,12.476268 8.0000352,12.399588 c 0,-0.07667 -0.3410889,-1.00657 -0.7579759,-2.066423 C 6.2870665,7.90527 6.2498209,7.7692781 6.3756198,7.1695282 L 6.4733195,6.7037398 5.619226,4.4511295 4.7651325,2.1985187 4.16811,1.6001914 C 3.523486,0.95415682 3.4565683,0.85095953 3.1853744,0.08466711 3.0868493,-0.19372449 2.8011598,-0.84257717 2.5505055,-1.3572286 2.2998513,-1.8718799 2.0947703,-2.3559011 2.0947703,-2.4328313 c 0,-0.07693 -0.034909,-0.1398728 -0.07758,-0.1398728 -0.042671,0 -0.1431732,-0.199303 -0.2233415,-0.4428954 C 1.7136786,-3.2591919 1.6181159,-3.4782377 1.5814837,-3.502368 1.5448549,-3.5264983 1.4369199,-3.7281129 1.3416358,-3.9504003 1.1330627,-4.4369819 1.0596332,-5.7049982 1.2301559,-5.8755198 c 0.057953,-0.057952 0.1053694,-0.1750362 0.1053694,-0.2601858 0,-0.3167695 0.4593889,-0.8802931 0.902691,-1.1073135 0.3200472,-0.1638985 0.8127552,-0.1811823 0.935391,-0.032811 0.1484836,0.1796415 1.2825756,2.3406959 1.2830147,2.4448305 1.685e-4,0.0339 0.1266805,0.2616727 0.2811954,0.5061663 0.154515,0.2444932 0.3067829,0.5014768 0.3383731,0.5710746 0.031596,0.069598 0.1323806,0.2404289 0.2239777,0.3796244 0.091601,0.1391958 0.2054605,0.3420067 0.2530297,0.4506912 0.078359,0.1790287 0.1240827,0.1928675 0.486328,0.1471887 0.3815595,-0.048114 2.5923482,0.1069789 4.0273611,0.2825296 1.673158,0.2046847 2.242059,0.2658027 2.934398,0.3152479 0.407557,0.029106 0.76095,0.08518 0.78532,0.1246102 0.02436,0.03943 0.226696,0.071689 0.449617,0.071689 0.222921,0 0.609796,0.041636 0.859721,0.092523 0.53708,0.1093567 1.252264,0.2094066 2.352532,0.3291055 0.440787,0.047953 1.067167,0.1279247 1.391957,0.1777145 0.324788,0.04979 0.932189,0.1241598 1.349775,0.1652669 0.417587,0.041108 1.214799,0.1492209 1.77158,0.240253 1.357966,0.22202297 2.152051,0.2721482 2.203118,0.13906792 0.03721,-0.0969843 -0.448548,-1.20159002 -0.625337,-1.42199142 -0.04481,-0.05586 -0.100107,-0.2534146 -0.122871,-0.4390088 -0.03295,-0.2685815 0.008,-0.4194769 0.200906,-0.7394261 0.133269,-0.2210902 0.242307,-0.4393742 0.242307,-0.4850757 0,-0.045702 0.034,-0.083094 0.07557,-0.083094 0.04157,0 0.19737,-0.1898121 0.346239,-0.4218048 0.14887,-0.2319928 0.323658,-0.4218055 0.388419,-0.4218055 0.191323,0 0.394719,0.2630943 0.703482,0.9099566 0.159758,0.3346979 0.316592,0.6085417 0.348519,0.6085417 0.03193,0 0.101253,0.1715617 0.154048,0.381248 0.0528,0.2096864 0.171193,0.4564423 0.263096,0.5483465 0.09191,0.091904 0.167945,0.2335327 0.168977,0.3147303 10e-4,0.081198 0.07611,0.2425378 0.166845,0.3585342 0.09074,0.1159964 0.165814,0.2936064 0.166846,0.3946889 0.001,0.1010828 0.06129,0.2432002 0.133907,0.3158171 0.07262,0.0726167 0.14759,0.21783689 0.166607,0.32271131 0.04852,0.26755223 0.448572,1.39835055 0.594645,1.6808228 0.137664,0.26621449 0.07986,0.88858639 -0.08641,0.93033339 -0.09842,0.024717 0.35124,0.9156721 1.790393,3.5474014 0.348878,0.6379799 0.666462,1.1599645 0.705745,1.1599645 0.03929,0 0.07142,0.05316 0.07142,0.1181407 0,0.06498 0.265156,0.5869614 0.589236,1.1599649 0.324079,0.5730012 0.589817,1.1155667 0.590527,1.2056976 0.0013,0.1590789 1.018964,2.1041883 1.721318,3.2898873 0.190749,0.322018 0.425968,0.720624 0.522709,0.885791 0.133661,0.228199 0.245065,0.310428 0.463986,0.34248 0.252463,0.03696 0.288092,0.07265 0.288092,0.288463 0,0.201134 -0.06186,0.279227 -0.337443,0.426005 -0.185594,0.09885 -0.577942,0.357459 -0.871883,0.574694 l -0.534438,0.394971 1.203198,-0.01955 1.203199,-0.01955 0.113968,0.590527 c 0.06269,0.324788 0.103409,0.846857 0.09049,1.160153 -0.01787,0.433416 0.0038,0.569581 0.09031,0.569436 0.08966,-1.69e-4 0.107547,-0.173148 0.08436,-0.815644 -0.02089,-0.578542 -2.53e-4,-0.8252 0.07107,-0.848991 0.200309,-0.06684 0.363483,0.452964 0.363483,1.157912 l 0,0.682902 0.316352,-0.05839 c 0.173995,-0.03212 0.512944,-0.168799 0.75322,-0.303736 0.265665,-0.149198 0.759264,-0.310194 1.259563,-0.410838 0.78517,-0.157945 0.857595,-0.15922 1.587798,-0.02793 0.621554,0.111755 0.81361,0.183511 1.023654,0.382459 0.142203,0.13469 0.38896,0.285396 0.548346,0.334899 0.170135,0.05285 2.310139,0.138652 5.182731,0.207814 4.406634,0.106103 5.413054,0.162458 5.951224,0.333267 0.299926,0.0952 0.21061,0.508971 -0.218205,1.010902 l -0.383149,0.448486 0.741685,0.05442 c 1.063465,0.07803 1.518497,0.197935 1.847526,0.486823 0.250222,0.219699 0.286116,0.301747 0.286116,0.654009 0,0.391335 -0.0126,0.411377 -0.442895,0.704647 -0.243592,0.166022 -0.82252,0.440153 -1.286505,0.609184 -2.249115,0.819356 -2.819508,1.0211 -4.386772,1.551565 -0.92797,0.314087 -2.332582,0.801155 -3.121357,1.082377 -0.788775,0.281222 -1.718855,0.595556 -2.066845,0.698522 -0.347988,0.102961 -0.679361,0.223895 -0.736385,0.268732 -0.136292,0.107169 8.94e-4,0.370644 0.231016,0.443683 0.114632,0.03639 0.169506,0.127199 0.169107,0.279886 -3.37e-4,0.124315 0.01634,0.415839 0.03703,0.647832 0.02069,0.231992 0.03954,0.52349 0.04188,0.647772 0.0024,0.124282 0.05569,0.277394 0.118552,0.340249 0.123361,0.123362 0.139817,0.192607 0.344045,1.447848 0.09769,0.600425 0.112167,0.906635 0.05184,1.096692 -0.04603,0.145027 -0.146886,0.469456 -0.224125,0.720957 -0.269256,0.876735 -1.319045,1.60957 -2.305713,1.60957 -0.916043,0 -1.950283,-0.293353 -1.813651,-0.514427 0.02521,-0.04079 -0.01307,-0.05156 -0.08508,-0.02393 -0.124293,0.0477 -0.136714,0.02308 -0.164668,-0.326345 -0.01009,-0.126551 -0.271741,-0.400715 -0.382376,-0.400715 -0.112133,0 -0.166518,-0.23325 -0.163213,-0.699955 0.0016,-0.222579 -0.0408,-0.457314 -0.09419,-0.521631 -0.06594,-0.07946 -0.07832,-0.306995 -0.03865,-0.70978 0.05227,-0.5304 0.0365,-0.635389 -0.149748,-0.996865 -0.114495,-0.222216 -0.278972,-0.604371 -0.365514,-0.849235 -0.119695,-0.338669 -0.188491,-0.432076 -0.287485,-0.390334 -0.07158,0.03019 -0.281984,0.08566 -0.467579,0.123291 -0.310597,0.06299 -0.593128,0.165523 -1.265414,0.45929 -0.139196,0.06083 -0.362067,0.135006 -0.495267,0.164849 -0.1332,0.02984 -0.297254,0.109336 -0.36456,0.176636 -0.06731,0.06731 -0.186099,0.122949 -0.263983,0.123648 -0.209822,0.0019 -0.733546,0.197321 -0.900854,0.336173 -0.354396,0.294122 -1.487849,0.46089 -1.698791,0.249948 -0.0563,-0.0563 -0.160051,-0.05997 -0.291046,-0.01032 -0.11195,0.04248 -1.038723,0.08888 -2.05949,0.10311 -1.680449,0.02342 -1.919758,0.0087 -2.53083,-0.15492 -0.371189,-0.09943 -0.959607,-0.22185 -1.307596,-0.272032 -0.999854,-0.144179 -1.179537,-0.182572 -1.228995,-0.262598 -0.02551,-0.04127 -0.24344,-0.07518 -0.484294,-0.07536 -0.28093,-1.67e-4 -0.531924,-0.05764 -0.700151,-0.160222 -0.144229,-0.08796 -0.46691,-0.178698 -0.717069,-0.201667 -0.560733,-0.05149 -1.248804,-0.202635 -1.373814,-0.301798 -0.09269,-0.07353 -0.315216,-0.125235 -1.084593,-0.252038 l -0.400714,-0.06605 0,0.491041 c 0,0.380241 -0.02855,0.491041 -0.126541,0.491041 -0.06959,0 -0.126542,0.05694 -0.126542,0.126542 0,0.09724 -0.108086,0.126541 -0.466632,0.126541 -0.336964,0 -0.480128,0.03516 -0.515193,0.126542 -0.0267,0.06959 -0.148893,0.12706 -0.271525,0.127693 -0.542617,0.0029 -0.602592,0.06244 -0.602592,0.599215 0,0.372039 -0.02993,0.496327 -0.119551,0.496327 -0.108556,0 -0.302254,0.624342 -0.302254,0.974303 0,0.06732 -0.02847,0.122634 -0.06327,0.122932 -0.03479,3.38e-4 -0.155895,0.246527 -0.269103,0.547174 -0.212885,0.565357 -0.91451,1.517282 -1.180568,1.601725 -0.08223,0.02611 -0.250287,0.160553 -0.373452,0.298783 -0.123163,0.13823 -0.309055,0.252536 -0.413093,0.254011 -0.10404,0.0015 -0.262852,0.05841 -0.352917,0.126541 -0.282485,0.213661 -1.18058,0.150946 -1.814969,-0.12674 z m 0.567039,-2.533312 C 13.069398,30.13947 12.998854,29.999951 12.562858,29.80982 12.350036,29.717 12.062024,29.589465 11.922828,29.526386 c -0.139197,-0.06308 -0.342246,-0.140022 -0.451223,-0.170989 -0.177421,-0.05041 -0.191755,-0.03557 -0.13708,0.14184 0.08738,0.283578 0.591802,1.137831 0.968047,1.63944 0.176966,0.23593 0.524563,0.564569 0.772436,0.730304 0.247873,0.165736 0.456684,0.295383 0.464023,0.288101 0.0073,-0.0072 -0.06449,-0.335917 -0.159614,-0.730304 z m 1.692928,-0.696895 c 0.09231,-0.289486 0.19072,-0.630002 0.218674,-0.756699 0.0482,-0.218444 0.03956,-0.226081 -0.166768,-0.147633 -0.119675,0.0455 -0.324972,0.08273 -0.456216,0.08273 -0.236337,0 -0.2379,0.0034 -0.163111,0.358535 0.149357,0.709139 0.266256,1.071803 0.332319,1.030975 0.03698,-0.02286 0.142786,-0.278419 0.235102,-0.567906 z m 24.731791,-2.213559 c 0,-0.487186 -0.03482,-0.88579 -0.07737,-0.88579 -0.08502,0 -0.260073,0.722282 -0.260073,1.073111 0,0.121659 -0.06066,0.28823 -0.134806,0.370157 -0.176337,0.19485 -0.08521,0.328312 0.224146,0.328312 l 0.248104,0 0,-0.88579 z m -24.72514,0.569437 0.259385,-0.147632 5.06e-4,-0.906881 c 2.53e-4,-0.498786 -0.01788,-0.906882 -0.04038,-0.906882 -0.02251,0 -0.231295,0.117145 -0.463985,0.260319 l -0.423044,0.26032 9.28e-4,0.47784 c 0.0022,1.102206 0.12077,1.273571 0.666588,0.962916 z m -2.354739,-0.02109 c 0,-0.0464 -0.05378,-0.08435 -0.119512,-0.08435 -0.06572,0 -0.132164,-0.03209 -0.147631,-0.07131 -0.04298,-0.109004 -0.492105,-0.199377 -0.492105,-0.09902 0,0.04728 0.06866,0.08596 0.152598,0.08596 0.08392,0 0.226288,0.05574 0.316353,0.123858 0.193444,0.146313 0.290297,0.161281 0.290297,0.04486 z m 26.266649,-1.347003 c 0.108671,-0.863338 0.145662,-0.987931 0.343941,-1.158485 0.13487,-0.116009 0.859144,-0.390796 1.843138,-0.699279 1.858426,-0.582619 1.627303,-0.505285 4.784503,-1.600884 1.322358,-0.45888 2.992705,-1.033254 3.711883,-1.27639 3.74608,-1.266455 4.639365,-1.672186 4.639691,-2.107361 3.37e-4,-0.40112 -0.568108,-0.765947 -1.075439,-0.690256 -0.156886,0.0234 -0.274174,0.0041 -0.274174,-0.04516 0,-0.04812 -0.344083,-0.11172 -0.780339,-0.144239 -0.959676,-0.07155 -1.77814,0.102022 -2.046185,0.433924 -0.264138,0.327068 -1.718752,0.720932 -2.741301,0.742262 -0.67494,0.01408 -1.094355,0.09419 -2.657371,0.507629 -1.020769,0.270003 -2.021865,0.531084 -2.224658,0.58018 l -0.368717,0.08926 0.368717,0.08891 c 0.35512,0.08563 0.369654,0.10177 0.394189,0.437872 0.02114,0.289581 -0.01078,0.377509 -0.187781,0.51671 l -0.213254,0.167744 0.508978,0.142814 c 0.83945,0.235537 0.772501,0.506894 -0.200058,0.810868 -0.334535,0.104555 -0.978729,0.319082 -1.431542,0.476717 -1.602997,0.55804 -6.527383,2.05746 -6.684731,2.035425 -0.04645,-0.0064 -0.224376,0.05043 -0.395385,0.126525 -0.736674,0.327807 -1.91953,0.556473 -3.335555,0.644822 -2.232319,0.139276 -4.102399,-0.04264 -7.236089,-0.703864 -0.556784,-0.117488 -1.391958,-0.271241 -1.855943,-0.341679 -0.665152,-0.100978 -2.727812,-0.546023 -4.407861,-0.951056 -0.163744,-0.03948 -0.189426,-0.01255 -0.187005,0.196067 0.0054,0.464189 0.199264,0.572825 1.603232,0.898354 2.271944,0.52678 4.694637,1.052667 6.914421,1.500892 1.997957,0.403434 2.244356,0.435212 3.4588,0.446076 1.160568,0.01043 2.781555,-0.05808 3.627523,-0.15319 0.162394,-0.01825 0.523038,-0.148971 0.801429,-0.290472 0.278392,-0.141504 1.170509,-0.470169 1.982483,-0.730369 0.811975,-0.260198 1.723879,-0.564895 2.026454,-0.677103 0.591451,-0.219335 0.966495,-0.259173 1.057266,-0.112305 0.03118,0.05044 0.01443,0.133958 -0.0372,0.185594 -0.05164,0.05164 -0.09388,0.270437 -0.09388,0.486227 0,0.215789 -0.04022,0.507716 -0.08938,0.648725 -0.07036,0.201816 -0.05937,0.325687 0.0516,0.582025 0.139018,0.321131 0.141961,0.32272 0.212403,0.114742 0.03929,-0.115995 0.126228,-0.646223 0.193199,-1.178281 z m 12.286323,-7.468722 c 0,-0.06959 0.05694,-0.126542 0.126542,-0.126542 0.06959,0 0.126541,0.05694 0.126541,0.126542 0,0.06959 -0.05694,0.126542 -0.126541,0.126542 -0.06959,0 -0.126542,-0.05694 -0.126542,-0.126542 z M 14.293724,27.98882 c -0.02804,-0.02803 -0.04797,0.02179 -0.04431,0.110723 0.0041,0.09828 0.02404,0.118265 0.05096,0.05096 0.02436,-0.0609 0.02137,-0.133659 -0.0066,-0.161692 z m 23.907551,-0.360291 c 0,-0.176211 -0.04118,-0.253084 -0.135566,-0.253084 -0.08896,0 -0.117962,0.04588 -0.08435,0.133441 0.02817,0.0734 0.0512,0.187281 0.0512,0.253084 0,0.06581 0.03796,0.119641 0.08436,0.119641 0.0464,0 0.08436,-0.113887 0.08436,-0.253082 z m -6.390381,-0.281546 c 0.197214,-0.06575 0.586346,-0.146842 0.864737,-0.180209 0.278392,-0.03337 0.552274,-0.0985 0.608625,-0.144744 0.05635,-0.04624 0.262742,-0.09231 0.458642,-0.102377 0.206654,-0.01066 0.371807,-0.06517 0.393395,-0.129938 0.02046,-0.06139 -0.01239,-0.318413 -0.07303,-0.571152 -0.09392,-0.391467 -0.09238,-0.471014 0.01032,-0.537107 0.09832,-0.06328 0.08945,-0.08644 -0.04817,-0.125595 -0.0928,-0.0264 -0.293132,-0.211786 -0.445187,-0.411954 L 33.303755,24.779959 31.893,24.728003 c -0.775915,-0.02857 -2.102756,-0.07559 -2.948534,-0.104487 -1.152808,-0.03938 -1.561936,-0.08164 -1.634278,-0.168801 -0.0659,-0.07939 -0.292166,-0.116275 -0.713388,-0.116275 -0.339286,0 -0.723754,-0.04215 -0.854369,-0.09368 -0.130617,-0.05152 -0.798091,-0.108235 -1.483275,-0.126021 -0.905089,-0.0235 -1.331905,-0.06978 -1.560679,-0.169225 -0.332905,-0.144707 -1.020029,-0.238519 -2.676995,-0.365486 -0.556783,-0.04266 -1.079249,-0.103409 -1.161038,-0.135006 -0.0818,-0.03158 -0.203344,-0.01208 -0.270124,0.04333 -0.157896,0.131042 -0.466591,0.0316 -0.468251,-0.150848 -0.0011,-0.116053 -0.01504,-0.120224 -0.07669,-0.02286 -0.06304,0.09958 -0.172556,0.103042 -0.668756,0.02108 -0.931081,-0.153765 -1.014065,-0.142037 -0.948158,0.133998 0.03046,0.127597 0.128561,0.351539 0.217991,0.497649 0.17862,0.291828 0.260766,0.308046 2.130687,0.420691 0.429187,0.02585 0.780339,0.08212 0.780339,0.125034 0,0.04291 0.09491,0.121268 0.210902,0.17412 0.115997,0.05285 0.210902,0.126237 0.210902,0.163079 0,0.08745 -0.409481,0.496459 -0.497039,0.496459 -0.116647,0 -0.612116,0.268741 -0.571096,0.309761 0.02148,0.02148 0.24214,0.05627 0.490334,0.0773 0.248193,0.02103 0.527185,0.07372 0.619982,0.117107 0.361565,0.169037 1.913328,0.522641 2.094274,0.477226 0.105129,-0.02638 1.043572,0.146606 2.08543,0.384423 1.041858,0.237819 2.131553,0.448626 2.421545,0.468461 0.28999,0.01983 0.527255,0.07509 0.527255,0.122804 0,0.05315 0.138841,0.06862 0.358535,0.03993 0.197193,-0.02575 0.423781,-0.02049 0.503526,0.01169 0.07975,0.03218 0.886431,0.06943 1.792635,0.08277 1.250015,0.01841 1.734175,-0.0046 2.006213,-0.09527 z M 11.393252,26.953645 c 0.18561,0 0.191935,-0.155602 0.01651,-0.406061 -0.09636,-0.137582 -0.117749,-0.28342 -0.07695,-0.524864 0.04337,-0.256723 0.0041,-0.47146 -0.169193,-0.924944 -0.124125,-0.324829 -0.260324,-0.590599 -0.302667,-0.590599 -0.04235,0 -0.07698,0.208793 -0.07698,0.463985 0,0.255192 -0.03796,0.463985 -0.08437,0.463985 -0.145379,0 -0.104257,1.368187 0.04765,1.58505 0.121558,0.17355 0.146396,0.17837 0.314034,0.06096 0.100119,-0.07013 0.249514,-0.127504 0.331988,-0.127504 z m 24.197777,-0.601529 c 0.391669,-0.145248 0.881001,-0.297358 1.087402,-0.338024 0.206404,-0.04068 0.529085,-0.14298 0.71707,-0.227365 0.187984,-0.08439 0.607526,-0.217856 0.932316,-0.296603 0.639723,-0.155103 0.80143,-0.290422 0.80143,-0.670654 0,-0.202738 0.02596,-0.234581 0.147631,-0.181125 0.08119,0.03567 0.289991,0.08168 0.463987,0.102251 0.173994,0.02057 0.316353,0.07137 0.316353,0.11289 0,0.04152 0.05348,0.0755 0.118841,0.0755 0.170618,0 2.172972,-0.576476 2.347573,-0.675864 0.08057,-0.04586 0.251399,-0.08606 0.379625,-0.08934 0.213816,-0.0054 0.203425,-0.01916 -0.125397,-0.165261 -0.197194,-0.08762 -0.358535,-0.216614 -0.358535,-0.286657 0,-0.07733 -0.04867,-0.108671 -0.123874,-0.07981 -0.06813,0.02615 -0.115583,0.09138 -0.105449,0.144984 0.02927,0.154807 -0.580699,0.157255 -1.457895,0.0058 -0.440786,-0.07608 -1.067167,-0.156418 -1.391957,-0.178531 -0.32479,-0.0221 -0.630889,-0.07354 -0.680222,-0.114288 -0.08292,-0.06849 -3.117374,0.676538 -3.355116,0.823761 -0.05409,0.0335 -0.2502,0.08142 -0.435794,0.106504 l -0.337444,0.0456 0.01697,0.419977 c 0.0093,0.230988 0.0568,0.433249 0.105461,0.449469 0.04867,0.01622 0.08847,0.101059 0.08847,0.188535 0,0.11461 -0.04124,0.144829 -0.147632,0.108167 -0.131091,-0.04518 -0.130131,-0.03722 0.0086,0.07105 0.09628,0.07516 0.173297,0.273658 0.200784,0.517516 0.02452,0.217572 0.05136,0.395584 0.05965,0.395584 0.0083,0 0.335518,-0.118838 0.727187,-0.264085 z m 6.492544,0.05114 c 0.159682,-0.192403 0.07185,-0.218443 -0.421356,-0.124908 -0.245836,0.04663 -0.612623,0.08477 -0.815084,0.08477 -0.202461,0 -0.36811,0.03796 -0.36811,0.08435 0,0.04992 0.30588,0.08437 0.748919,0.08437 0.568067,0 0.774689,-0.03106 0.855631,-0.128581 z M 14.078225,25.519509 c 0.118118,0 0.16453,-0.05799 0.16453,-0.205558 0,-0.170248 -0.0471,-0.210099 -0.274172,-0.231993 -0.240559,-0.02319 -0.288085,-0.07039 -0.38763,-0.38497 -0.09063,-0.286369 -0.152908,-0.358534 -0.309455,-0.358534 -0.1078,0 -0.251147,-0.02115 -0.318552,-0.04703 -0.189322,-0.07265 -0.223278,0.143739 -0.103444,0.659236 0.143435,0.617041 0.171532,0.653208 0.507465,0.653208 0.156918,0 0.311782,0.04283 0.34414,0.0952 0.04023,0.06508 0.08315,0.05175 0.135712,-0.04218 0.04228,-0.07556 0.150917,-0.137374 0.241408,-0.137374 z m 3.500994,-0.100245 c 0.141507,-0.07834 0.521133,-0.188858 0.84361,-0.245605 0.322478,-0.05675 0.615658,-0.128287 0.651514,-0.158977 0.03585,-0.03069 -0.43142,-0.142542 -1.038392,-0.248561 -0.606971,-0.106023 -1.121004,-0.175344 -1.142294,-0.154053 -0.02129,0.02129 0.03705,0.205702 0.12966,0.409804 0.0926,0.204103 0.169782,0.44702 0.171512,0.539818 0.0017,0.0928 0.03103,0.130759 0.06513,0.08437 0.0341,-0.0464 0.177759,-0.148452 0.319266,-0.226788 z m -3.009602,-0.764455 c -0.160723,-0.302418 -0.529743,-0.860017 -0.605699,-0.91523 -0.03823,-0.02779 -0.161966,-0.03286 -0.274963,-0.01124 -0.16535,0.03161 -0.205449,0.0045 -0.205449,-0.139281 0,-0.10248 0.05393,-0.178558 0.126541,-0.178558 0.06959,0 0.126542,-0.03331 0.126542,-0.07402 0,-0.170603 -0.282782,-0.284734 -0.717274,-0.289489 -0.427134,-0.0047 -0.46378,-0.02051 -0.46378,-0.200402 0,-0.171244 -0.039,-0.194095 -0.316354,-0.185345 -0.314853,0.01 -0.315153,0.01032 -0.06326,0.07438 0.158761,0.0404 0.192131,0.06812 0.08955,0.07438 -0.151515,0.0093 -0.148629,0.02387 0.03925,0.198907 0.111537,0.103913 0.280032,0.180802 0.374441,0.170872 0.09441,-0.01 0.1242,0.0032 0.06621,0.029 -0.058,0.02589 -0.105461,0.100841 -0.105461,0.166572 0,0.06573 -0.03796,0.119512 -0.08436,0.119512 -0.0464,0 -0.08437,0.05252 -0.08437,0.116702 0,0.118954 0.24466,0.217139 0.548347,0.22006 0.09281,8.94e-4 0.310021,0.04086 0.482716,0.08883 0.267904,0.0744 0.327092,0.135843 0.403216,0.418541 0.09512,0.353239 0.260852,0.498935 0.572264,0.50308 0.173739,0.0023 0.182817,-0.01618 0.0919,-0.187247 z M 33.055256,24.42281 c 0,-0.0464 -0.04021,-0.08435 -0.08934,-0.08435 -0.04914,0 -0.06587,0.03796 -0.0372,0.08435 0.02867,0.0464 0.06888,0.08437 0.08934,0.08437 0.02046,0 0.0372,-0.03796 0.0372,-0.08437 z m 0.92797,-0.372985 c 0.760352,-0.16484 1.589367,-0.362611 1.940304,-0.462882 0.162394,-0.0464 0.466093,-0.127403 0.674888,-0.180006 0.625627,-0.157623 1.216545,-0.353684 1.3282,-0.440686 0.05774,-0.04499 0.200446,-0.06354 0.317145,-0.04124 0.223391,0.04271 0.950638,-0.137967 1.729094,-0.429565 0.255191,-0.09559 1.185272,-0.347301 2.066845,-0.559353 1.921753,-0.462259 5.416013,-1.373188 5.652185,-1.473487 0.0928,-0.03941 0.882219,-0.243207 1.75427,-0.452886 1.599753,-0.384649 2.031233,-0.571871 2.246969,-0.974978 0.07386,-0.138029 0.01852,-0.133829 -0.652666,0.0495 -0.887767,0.242497 -1.869234,0.480637 -3.053308,0.740844 -1.960092,0.430742 -3.724845,0.856199 -4.344592,1.047418 -0.278391,0.0859 -1.037641,0.278847 -1.68722,0.428778 -0.64958,0.149933 -1.712528,0.397704 -2.362107,0.550604 -0.64958,0.1529 -1.332903,0.30198 -1.518498,0.331287 -0.185594,0.02932 -0.868918,0.182791 -1.518498,0.341077 -1.50201,0.365999 -3.745968,0.657022 -4.218049,0.547048 -0.570455,-0.132892 -0.692464,-0.108339 -0.741966,0.149357 -0.02451,0.127595 -0.02847,0.248277 -0.0088,0.26818 0.01967,0.0199 0.190739,-0.04653 0.380147,-0.147631 0.423687,-0.226152 0.497157,-0.228914 0.497157,-0.0187 0,0.200285 -0.445709,0.569728 -0.942417,0.781157 l -0.36518,0.155443 1.138874,-0.0452 c 0.626381,-0.02487 1.385629,-0.09871 1.68722,-0.164087 z m -5.14602,-0.1395 c -0.301591,-0.142599 -0.679533,-0.35925 -0.839872,-0.481448 -0.309643,-0.235985 -0.577556,-0.289408 -2.197123,-0.438122 -1.888878,-0.173441 -3.890015,-0.340657 -5.061659,-0.422951 -0.67278,-0.04726 -1.619905,-0.125802 -2.104724,-0.174548 -0.484819,-0.04875 -1.024391,-0.06449 -1.199048,-0.03498 -0.174658,0.02951 -0.366406,0.02298 -0.426107,-0.01452 -0.05971,-0.03749 -0.222434,-0.0728 -0.361629,-0.07845 -0.139196,-0.0056 -0.430096,-0.04848 -0.646444,-0.09517 -0.34502,-0.07447 -0.387064,-0.06849 -0.342127,0.04861 0.168479,0.439055 0.968293,0.70676 2.043282,0.683909 0.783968,-0.01667 0.944108,-0.0053 1.043144,0.07383 0.120277,0.09614 1.723122,0.286016 1.834315,0.217296 0.04531,-0.02801 0.128158,-0.01394 0.184122,0.03123 0.135019,0.108981 0.631607,0.175917 1.97049,0.265594 0.610215,0.04087 1.464372,0.117215 1.898122,0.169651 0.433751,0.05244 1.149281,0.130811 1.590068,0.174167 1.890362,0.185942 2.493652,0.253118 2.57301,0.2865 0.0464,0.01952 0.198248,0.03846 0.337443,0.04209 0.211655,0.0055 0.163321,-0.03585 -0.295263,-0.252676 z m 1.77158,0.175042 c 0,-0.0464 -0.04021,-0.08437 -0.08934,-0.08437 -0.04914,0 -0.06587,0.03796 -0.0372,0.08437 0.02867,0.0464 0.06888,0.08435 0.08934,0.08435 0.02046,0 0.0372,-0.03796 0.0372,-0.08435 z m -1.425013,-0.724888 c -0.437837,-0.393652 -0.561876,-0.709249 -0.278755,-0.709249 0.0837,0 0.282998,0.135983 0.442895,0.302187 0.159897,0.166203 0.365228,0.34269 0.456291,0.392192 0.162117,0.08813 0.162407,0.08518 0.01393,-0.14141 -0.09952,-0.15189 -0.13302,-0.305564 -0.09747,-0.447174 l 0.05415,-0.215755 -0.764068,0.0495 c -0.630561,0.04085 -0.764069,0.02835 -0.764069,-0.07156 0,-0.09683 -0.164691,-0.121286 -0.822519,-0.122176 -0.908901,-0.0013 -3.600134,-0.21205 -3.729777,-0.292175 -0.04519,-0.02794 -0.472499,-0.08854 -0.949566,-0.134692 -0.477065,-0.04614 -1.228035,-0.121863 -1.668822,-0.168256 -1.561847,-0.164389 -2.495428,-0.249361 -3.036995,-0.276419 -0.301591,-0.01506 -0.700197,-0.06791 -0.88579,-0.117445 -0.185594,-0.04953 -0.59369,-0.115771 -0.906882,-0.147214 -0.408911,-0.04105 -0.569435,-0.09096 -0.569435,-0.176996 0,-0.06591 0.06642,-0.120981 0.14763,-0.122393 0.135711,-0.0024 0.136294,-0.0092 0.0072,-0.08451 -0.119505,-0.06974 -1.398134,0.03805 -1.486351,0.12531 -0.01315,0.013 0.167172,0.04899 0.400715,0.07998 0.425271,0.05642 0.593696,0.253519 0.276992,0.324157 -0.269782,0.06018 0.488656,0.146608 5.335831,0.608105 5.892528,0.561024 7.003855,0.654497 7.381587,0.620863 0.261776,-0.02331 0.295264,-0.0037 0.295264,0.173625 0,0.16453 0.123813,0.265319 0.699524,0.569436 0.384737,0.203237 0.739995,0.369522 0.789462,0.369522 0.04947,0 -0.103982,-0.174349 -0.340988,-0.387443 z m -6.995267,0.245456 c -0.0609,-0.02436 -0.133661,-0.02137 -0.161693,0.0066 -0.02803,0.02803 0.02179,0.04797 0.110724,0.04431 0.09828,-0.0041 0.118265,-0.02404 0.05096,-0.05097 z m 19.001037,-0.269222 c 0.02507,-0.04057 -0.13619,-0.149311 -0.358364,-0.241641 l -0.403955,-0.167877 -0.226046,0.194436 -0.226046,0.194438 0.315216,0.03303 c 0.610726,0.06398 0.854071,0.06063 0.899195,-0.01238 z m 0.259631,-0.685483 c 0.02867,-0.0464 -0.007,-0.08436 -0.07938,-0.08436 -0.07234,0 -0.131521,0.03796 -0.131521,0.08436 0,0.0464 0.03572,0.08437 0.07938,0.08437 0.04367,0 0.102848,-0.03796 0.13152,-0.08437 z m -8.267377,-0.08919 c -0.185593,-0.03839 -0.717068,-0.06602 -1.181053,-0.0614 -0.682456,0.0068 -0.763033,0.01944 -0.421806,0.06625 0.231993,0.03183 0.763468,0.05945 1.181055,0.0614 0.609976,0.0029 0.692905,-0.0102 0.421804,-0.06625 z M 12.486992,22.50925 c -0.0609,-0.02436 -0.13366,-0.02137 -0.161692,0.0066 -0.02803,0.02803 0.02179,0.04797 0.110724,0.04431 0.09828,-0.0041 0.118265,-0.02404 0.05097,-0.05096 z m 21.427691,0 c -0.0609,-0.02436 -0.13366,-0.02137 -0.161692,0.0066 -0.02803,0.02803 0.02179,0.04797 0.110723,0.04431 0.09828,-0.0041 0.118265,-0.02404 0.05096,-0.05096 z m 0.511439,-0.08261 c -0.058,-0.0234 -0.152904,-0.0234 -0.210903,0 -0.058,0.0234 -0.01055,0.04256 0.105461,0.04256 0.115996,0 0.163449,-0.01915 0.10545,-0.04256 z m -1.731006,-0.08696 c -0.08207,-0.02138 -0.195968,-0.01998 -0.253082,0.0032 -0.05712,0.02311 0.01009,0.04062 0.149236,0.03889 0.139196,-0.0017 0.185927,-0.02062 0.103845,-0.04202 z m 3.439317,-0.190488 c 2.94909,-0.60893 9.88765,-2.250091 9.61505,-2.274225 -0.13103,-0.0116 -10.853629,2.375688 -11.13355,2.478783 -0.305505,0.112523 0.52414,7.6e-4 1.5185,-0.204558 z m -9.727877,0.0226 c -0.0609,-0.02436 -0.133661,-0.02137 -0.161693,0.0067 -0.02803,0.02803 0.02179,0.04797 0.110724,0.04431 0.09828,-0.0041 0.118265,-0.02404 0.05096,-0.05097 z m 8.462461,-0.334178 c 1.614858,-0.330158 9.255246,-2.030075 12.78069,-2.843586 l 2.319927,-0.535332 -0.970151,-0.05385 c -0.533584,-0.02961 -2.062878,-0.06382 -3.39843,-0.07602 -2.004612,-0.01831 -2.441011,-0.0016 -2.501245,0.09559 -0.05016,0.08096 -1.30821,0.322257 -4.025336,0.772048 -2.173804,0.35985 -5.850494,1.034328 -8.170421,1.498841 -2.319928,0.464511 -4.606912,0.913557 -5.08219,0.997878 -0.660188,0.11713 -0.81982,0.169709 -0.676358,0.222779 0.103282,0.03821 1.498147,0.08813 3.099706,0.110941 1.601559,0.02281 3.215623,0.07353 3.586812,0.112695 0.882212,0.0931 1.31522,0.05003 3.036996,-0.30198 z m -9.643516,0.249826 c -0.0609,-0.02436 -0.133659,-0.02137 -0.161691,0.0066 -0.02803,0.02803 0.02179,0.04797 0.110723,0.04431 0.09828,-0.0041 0.118265,-0.02404 0.05097,-0.05096 z M 10.003614,21.864254 c 0.058,-0.03662 0.10545,-0.121291 0.10545,-0.18815 0,-0.06686 0.03111,-0.121563 0.06913,-0.121563 0.03802,0 0.266184,-0.147025 0.507034,-0.326723 0.24085,-0.179697 0.609327,-0.374717 0.818839,-0.433376 0.209512,-0.05866 0.400639,-0.138541 0.424724,-0.177515 0.02409,-0.03897 0.100004,-0.422879 0.168707,-0.853127 0.154519,-0.967673 0.229542,-1.203323 0.537897,-1.689552 l 0.244027,-0.384789 -0.773558,0.213029 c -0.634678,0.174783 -0.887745,0.2044 -1.409565,0.164971 -0.541197,-0.04089 -0.7211488,-0.01715 -1.2071627,0.159263 -0.8088458,0.293597 -0.9976129,0.404156 -1.3432601,0.786747 -0.6063855,0.671197 -0.6063534,1.560713 8.26e-5,2.245809 0.082142,0.09279 0.3311687,0.285818 0.5533902,0.428934 0.3150383,0.202893 0.4915752,0.258275 0.8014294,0.251421 0.2185643,-0.0049 0.4448429,-0.03875 0.5028416,-0.07538 z M 22.019783,21.75 c -0.0609,-0.02436 -0.133658,-0.02137 -0.161691,0.0067 -0.02803,0.02803 0.02179,0.04797 0.110723,0.04431 0.09828,-0.0041 0.118266,-0.02404 0.05096,-0.05096 z m 2.223411,-0.160534 c 0.322776,-0.03175 0.651275,-0.0908 0.729999,-0.131237 0.07873,-0.04045 0.363442,-0.110345 0.632706,-0.155335 1.347302,-0.225133 2.383287,-0.431049 2.725142,-0.541657 0.208793,-0.06755 0.79721,-0.184191 1.307595,-0.259191 0.510383,-0.075 2.237675,-0.397839 3.838425,-0.717424 1.600749,-0.319584 3.916459,-0.737198 5.14602,-0.928031 1.229562,-0.190833 2.29251,-0.359071 2.362108,-0.373862 0.249712,-0.05308 -1.184586,-0.0843 -3.796244,-0.08267 l -2.657372,0.0017 -1.77158,0.306938 c -0.97437,0.168816 -2.83453,0.462242 -4.133689,0.652057 -1.29916,0.189815 -2.663921,0.403131 -3.032803,0.474033 -0.368882,0.07091 -0.938319,0.161843 -1.265415,0.20209 -1.215268,0.149528 -1.966757,0.253016 -2.788106,0.383953 -0.463985,0.07397 -1.094626,0.166636 -1.401425,0.205931 -0.306799,0.0393 -0.705405,0.107857 -0.88579,0.152369 -0.180387,0.04452 -0.660328,0.129451 -1.066536,0.188759 -0.40621,0.05931 -0.728656,0.117745 -0.716546,0.129854 0.01211,0.01211 0.59122,0.08371 1.286908,0.159119 0.695691,0.07541 1.744636,0.192672 2.330989,0.260589 0.586353,0.06791 1.127802,0.09981 1.203219,0.07087 0.07542,-0.02895 0.185053,-0.01284 0.24364,0.03578 0.126388,0.104888 0.907646,0.167039 1.033867,0.08224 0.04841,-0.03252 0.352112,-0.0851 0.674888,-0.116847 z m -7.364158,-0.42824 c -0.058,-0.0234 -0.152904,-0.0234 -0.210903,0 -0.058,0.0234 -0.01055,0.04256 0.105461,0.04256 0.115996,0 0.16345,-0.01915 0.10545,-0.04256 z m 37.577702,-0.429204 c -0.02122,-0.08119 -0.03858,-0.01477 -0.03858,0.147632 0,0.162394 0.01736,0.228829 0.03858,0.14763 0.02122,-0.08119 0.02122,-0.214065 0,-0.295262 z m -38.173501,0.09001 c -0.0609,-0.02436 -0.13366,-0.02137 -0.161692,0.0066 -0.02803,0.02803 0.02179,0.04797 0.110723,0.04431 0.09828,-0.0041 0.118266,-0.02404 0.05097,-0.05096 z m 0.553618,-0.08489 c -0.08119,-0.02121 -0.214066,-0.02121 -0.295262,0 -0.0812,0.02122 -0.01477,0.03858 0.147631,0.03858 0.162395,0 0.228829,-0.01736 0.147631,-0.03858 z m 0.504561,-0.08468 c -0.08207,-0.02138 -0.195968,-0.01998 -0.253082,0.0032 -0.05713,0.02311 0.01009,0.04062 0.149236,0.03889 0.139197,-0.0017 0.185927,-0.02062 0.103845,-0.04202 z m -3.911152,-0.286943 c 0.05008,-0.250406 -0.08583,-1.816125 -0.169388,-1.951319 -0.07811,-0.126383 -0.199176,-0.06357 -0.199176,0.10334 0,0.0928 -0.0389,0.168721 -0.08645,0.168721 -0.166246,0 -0.271926,0.46981 -0.26567,1.181054 0.0036,0.394387 0.0081,0.726559 0.01055,0.738159 0.0023,0.0116 0.151288,0.02109 0.331082,0.02109 0.297948,0 0.331522,-0.02312 0.379107,-0.261043 z m 2.499711,0.04643 c 0.904772,-0.116572 1.93172,-0.248228 2.282106,-0.292569 1.371745,-0.173592 5.051388,-0.744622 5.136262,-0.797075 0.04937,-0.03051 0.08977,-0.162476 0.08977,-0.293251 0,-0.130775 0.05564,-0.283947 0.123632,-0.34038 0.068,-0.05643 0.514057,-0.156308 0.991242,-0.221947 1.417656,-0.194999 2.204228,-0.375197 2.391545,-0.547883 0.202327,-0.186524 0.458548,-0.212108 0.458548,-0.04578 0,0.06312 -0.09491,0.254621 -0.210902,0.425552 -0.115997,0.170931 -0.210903,0.330255 -0.210903,0.354055 0,0.107548 1.199811,-0.02285 4.085557,-0.444042 1.713474,-0.250095 3.203501,-0.476829 3.31117,-0.503852 0.184775,-0.04637 0.195736,-0.08769 0.195292,-0.735966 -5.06e-4,-0.746613 -0.110505,-1.279328 -0.277358,-1.343358 -0.117978,-0.04527 -6.727344,0.589435 -6.789958,0.65205 -0.02182,0.02182 0.02205,0.193849 0.09744,0.382307 0.181976,0.454803 0.184476,1.014125 0.0046,1.014125 -0.258959,0 -0.404702,-0.25814 -0.422281,-0.747945 -0.02449,-0.682392 -0.02136,-0.670277 -0.186831,-0.722797 -0.08313,-0.02638 -0.256851,-0.256718 -0.386036,-0.511852 l -0.234878,-0.463876 -1.153554,0.0063 c -0.634453,0.0036 -1.456927,0.05121 -1.827718,0.106068 -0.653518,0.09667 -0.675499,0.107433 -0.717718,0.351168 -0.05303,0.306163 -0.326306,0.398953 -0.395515,0.134295 -0.02531,-0.09683 -0.0701,-0.176059 -0.09951,-0.176059 -0.02942,0 -0.224283,0.157409 -0.433057,0.349796 -0.363911,0.335351 -0.369844,0.523046 -0.01043,0.330706 0.25003,-0.133812 1.022823,0.0585 1.022823,0.254542 0,0.185756 0.06837,0.175652 -3.669703,0.542337 -3.47413,0.340794 -5.473525,0.552935 -5.505663,0.584168 -0.01221,0.01187 0.04198,0.169758 0.120441,0.350877 0.101574,0.234501 0.15328,0.651113 0.179601,1.447091 0.03551,1.073938 0.04402,1.117731 0.217004,1.116449 0.09903,-7.58e-4 0.920308,-0.09671 1.82508,-0.21328 z m 1.956119,0.156985 c -0.0609,-0.02436 -0.133658,-0.02137 -0.161691,0.0066 -0.02803,0.02803 0.02179,0.04797 0.110734,0.04431 0.09829,-0.0041 0.118266,-0.02404 0.05096,-0.05096 z m 36.512492,-0.05584 c 0,-0.016 -0.08542,-0.101425 -0.189813,-0.189812 l -0.189811,-0.160707 0.160707,0.189811 c 0.151025,0.178377 0.218917,0.228218 0.218917,0.160708 z m -1.497407,-0.620957 c -0.104406,-0.02012 -0.275228,-0.02012 -0.379625,0 -0.104407,0.0201 -0.01899,0.03655 0.189812,0.03655 0.208795,0 0.294209,-0.01645 0.189813,-0.03655 z m -6.838513,-0.08245 c -0.0609,-0.02436 -0.13366,-0.02137 -0.161692,0.0066 -0.02803,0.02803 0.02179,0.04797 0.110723,0.04431 0.09827,-0.0041 0.118266,-0.02404 0.05096,-0.05096 z m 6.079263,0.0017 c -0.058,-0.0234 -0.152904,-0.0234 -0.210902,0 -0.058,0.0234 -0.01055,0.04256 0.105461,0.04256 0.115996,0 0.163449,-0.01915 0.105461,-0.04256 z m -5.652186,-0.08437 c -0.058,-0.0234 -0.152904,-0.0234 -0.210902,0 -0.058,0.0234 -0.01055,0.04256 0.105449,0.04256 0.115997,0 0.163451,-0.01915 0.105461,-0.04256 z m 0.332171,-0.08611 c -0.0609,-0.02436 -0.133659,-0.02137 -0.161691,0.0067 -0.02803,0.02803 0.02179,0.04797 0.110734,0.04431 0.09827,-0.0041 0.118266,-0.02404 0.05096,-0.05096 z m 0.421805,-0.08435 c -0.0609,-0.02436 -0.13366,-0.02137 -0.161692,0.0067 -0.02803,0.02803 0.02179,0.04797 0.110734,0.04431 0.09827,-0.0041 0.118266,-0.02404 0.05096,-0.05096 z m 0.659071,-0.11109 c 0.166999,-0.05348 0.175781,-0.06754 0.04218,-0.06754 -0.0928,0 -0.263628,0.03039 -0.379624,0.06754 -0.167,0.05348 -0.17578,0.06754 -0.04218,0.06754 0.0928,0 0.263627,-0.03039 0.379624,-0.06754 z m 0.437623,-0.141987 c -0.0609,-0.02436 -0.133661,-0.02137 -0.161692,0.0066 -0.02803,0.02803 0.02179,0.04797 0.110723,0.04431 0.09827,-0.0041 0.118265,-0.02404 0.05096,-0.05096 z m 0.337444,-0.08436 c -0.0609,-0.02436 -0.13366,-0.02137 -0.161693,0.0067 -0.02803,0.02803 0.02179,0.04797 0.110723,0.04431 0.09828,-0.0041 0.118267,-0.02404 0.05096,-0.05097 z m 0.337444,-0.08437 c -0.0609,-0.02436 -0.133661,-0.02137 -0.161693,0.0066 -0.02803,0.02803 0.02179,0.04797 0.110724,0.04431 0.09827,-0.0041 0.118265,-0.02404 0.05096,-0.05096 z m -24.03761,-0.08261 c -0.058,-0.0234 -0.152905,-0.0234 -0.210902,0 -0.058,0.0234 -0.01055,0.04256 0.105461,0.04256 0.115997,0 0.163449,-0.01915 0.105461,-0.04256 z m 0.738159,-0.112844 c 0.102331,-0.06613 0.09021,-0.08202 -0.06326,-0.08307 -0.104406,-7.09e-4 -0.189812,0.03666 -0.189812,0.08307 0,0.105691 0.08953,0.105691 0.253083,0 z m 25.266116,-0.264383 c 0.115827,-0.05068 0.07616,-0.05705 -0.126542,-0.02029 -0.162395,0.02944 -0.371188,0.08677 -0.463985,0.127372 -0.115826,0.05068 -0.07616,0.05705 0.126542,0.02029 0.162394,-0.02944 0.371187,-0.08677 0.463985,-0.127373 z M 51.377408,18.5443 c -0.0609,-0.02436 -0.13366,-0.02137 -0.161692,0.0066 -0.02803,0.02803 0.02179,0.04797 0.110723,0.04431 0.09827,-0.0041 0.118266,-0.02404 0.05096,-0.05096 z M 41.238272,18.180121 c 0,-0.0464 -0.07592,-0.08437 -0.168722,-0.08437 -0.0928,0 -0.168723,0.03796 -0.168723,0.08437 0,0.0464 0.07592,0.08435 0.168723,0.08435 0.0928,0 0.168722,-0.03796 0.168722,-0.08435 z m -4.302411,-0.071 c 0,-0.04281 -0.151849,-0.07992 -0.337443,-0.0825 -0.185595,-0.0026 -0.337445,0.0235 -0.337445,0.05793 0,0.03443 0.15185,0.07155 0.337445,0.0825 0.185594,0.01101 0.337443,-0.01511 0.337443,-0.05793 z M 35.473234,17.31542 c -0.0234,-0.058 -0.04256,-0.01055 -0.04256,0.105461 0,0.115997 0.01915,0.163449 0.04256,0.105461 0.0234,-0.058 0.0234,-0.152905 0,-0.210903 z M 12.69465,17.232912 c 0.364273,-0.0047 0.700277,-0.03071 0.746676,-0.05791 0.0464,-0.02719 0.160286,-0.05241 0.253082,-0.05609 0.0928,-0.0037 0.368026,-0.01315 0.611618,-0.02108 0.314386,-0.0102 0.442895,-0.04837 0.442895,-0.131393 0,-0.151853 0.563259,-0.236382 1.423581,-0.21364 0.364191,0.0096 0.69833,-0.0049 0.742533,-0.03217 0.04421,-0.02731 0.723274,-0.07112 1.509047,-0.09733 1.265064,-0.04221 2.109672,-0.129692 2.173805,-0.225151 0.01176,-0.01749 0.06192,-0.193146 0.11148,-0.39034 0.08958,-0.356461 0.08878,-0.358534 -0.140927,-0.358534 -0.232854,0 -0.470221,-0.188563 -0.393581,-0.312658 0.04597,-0.07445 -0.923989,-0.07659 -1.123525,-0.0025 -0.06959,0.02585 -1.607078,0.170102 -3.41662,0.320564 -2.801532,0.232945 -3.315345,0.296139 -3.460234,0.425576 -0.09358,0.08361 -0.248437,0.146111 -0.344119,0.138904 -0.193476,-0.01457 -0.873778,0.509087 -0.876161,0.674426 -8.44e-4,0.058 -0.04674,0.105461 -0.10201,0.105461 -0.05526,0 -0.02679,0.05574 0.06326,0.123859 0.09007,0.06812 0.306116,0.125066 0.48011,0.126542 0.23705,0.0021 0.316354,0.03768 0.316354,0.142299 0,0.12803 0.0133,0.127585 0.160207,-0.0053 0.120716,-0.109244 0.323457,-0.147074 0.822518,-0.153462 z m -2.010257,-1.092748 c 0.217154,-0.147594 0.476665,-0.346897 0.576691,-0.442895 0.100027,-0.096 0.242385,-0.22349 0.316354,-0.283318 0.166535,-0.134696 0.169369,-0.223914 0.01211,-0.381172 -0.06731,-0.06731 -0.146908,-0.231358 -0.176894,-0.36456 -0.02998,-0.1332 -0.313538,-0.906526 -0.63012,-1.7185 C 10.46595,12.137744 9.8777097,10.619246 9.4753297,9.5752782 9.0729509,8.5313113 8.7092703,7.6410923 8.66715,7.597014 8.6250298,7.5529334 8.5905678,7.4563744 8.5905678,7.3824348 8.5905678,7.3085008 8.4861615,7.0414742 8.3585753,6.789059 8.1570276,6.3903457 8.0874582,6.3237671 7.8284533,6.2817209 7.6644825,6.2550994 7.4875867,6.2069122 7.4353515,6.1746319 7.2352357,6.0509534 7.0782101,6.2347352 6.9095458,6.7900232 c -0.096209,0.3167374 -0.1749193,0.67017 -0.1749193,0.7854056 0,0.2916625 0.6039711,2.0133419 1.0988837,3.1324762 0.2272279,0.513822 0.4491031,1.098139 0.4930576,1.298484 0.043955,0.200342 0.2067514,0.646359 0.3617707,0.991149 0.2253765,0.501274 0.31866,0.626908 0.4655431,0.626981 0.418711,1.7e-4 0.7031715,0.740988 0.504326,1.313344 -0.1022166,0.294227 -0.097597,0.383276 0.040802,0.786591 0.268447,0.782259 0.3780564,0.8285 0.9853784,0.415714 z M 28.915509,15.39065 c 0.329881,-0.0649 0.547383,-0.15561 0.597452,-0.249168 0.0433,-0.0809 0.241146,-0.227504 0.439647,-0.325762 0.198504,-0.09825 0.313462,-0.178678 0.255465,-0.178715 -0.058,-3.7e-5 -0.105461,-0.05957 -0.105461,-0.132292 0,-0.08737 -0.05008,-0.116484 -0.147633,-0.08582 -0.08119,0.02552 -0.438629,0.06488 -0.794295,0.08746 -0.531056,0.03372 -0.685615,0.07716 -0.864542,0.242981 -0.168594,0.156247 -0.343711,0.212024 -0.774165,0.246577 -0.650587,0.05222 -0.758353,0.124184 -0.575951,0.384599 0.121839,0.173951 0.18235,0.185441 0.791341,0.150272 0.362678,-0.02094 0.892837,-0.084 1.178133,-0.140132 z m 0.197628,-0.720318 c 0.02803,-0.02803 0.100795,-0.03103 0.161691,-0.0066 0.06731,0.02693 0.0473,0.04691 -0.05096,0.05097 -0.08893,0.0037 -0.138756,-0.01627 -0.110723,-0.04431 z m 0.460622,-0.08873 c 0.05712,-0.02311 0.171003,-0.02451 0.253083,-0.0032 0.08207,0.02138 0.03536,0.0403 -0.103845,0.04202 -0.139194,0.0017 -0.206351,-0.01579 -0.149237,-0.03889 z m -16.742559,0.6138 c -0.03064,-0.160313 0.01684,-0.228327 0.235562,-0.337444 0.407582,-0.203329 0.669827,-0.180868 0.669827,0.05737 0,0.106711 -0.04745,0.244606 -0.105449,0.30642 -0.08677,0.09248 -0.06062,0.104693 0.147631,0.06892 0.139195,-0.0239 3.94493,-0.36088 8.457189,-0.748836 8.098231,-0.69627 8.204107,-0.707695 8.204107,-0.885335 0,-0.429257 0.683132,-0.476231 0.744042,-0.05115 0.0206,0.143798 0.0704,0.179236 0.210903,0.150087 0.101161,-0.02099 0.516099,-0.06241 0.922086,-0.09206 0.405987,-0.02965 0.738159,-0.06819 0.738159,-0.08565 0,-0.01746 -0.06381,-0.165568 -0.141812,-0.329128 -0.126363,-0.264986 -0.15652,-0.28407 -0.276833,-0.175189 -0.115873,0.104865 -0.182499,0.105874 -0.469804,0.0071 -0.227403,-0.07818 -0.334786,-0.164961 -0.334786,-0.270568 0,-0.216326 0.505508,-0.262574 0.722599,-0.06611 0.08715,0.07888 -0.0208,-0.183117 -0.239885,-0.58221 -0.413407,-0.753044 -0.576088,-0.895188 -0.570401,-0.498397 0.0052,0.355229 -0.266877,0.334402 -0.867082,-0.06639 -0.552006,-0.368616 -0.678446,-0.632758 -0.331735,-0.693013 0.181135,-0.03147 0.178962,-0.03753 -0.04753,-0.132355 -0.201232,-0.08425 -0.233318,-0.141087 -0.210902,-0.373594 0.03791,-0.393202 0.275987,-0.388452 0.783073,0.01563 0.230554,0.183717 0.428464,0.324757 0.4398,0.313421 0.01135,-0.01135 -0.338204,-0.702165 -0.776758,-1.5351745 C 30.294646,8.3587372 29.935397,7.64799 29.934866,7.6123071 29.934359,7.5766301 29.839356,7.5711611 29.723786,7.6001661 29.571809,7.6383081 29.49868,7.6138431 29.4595,7.5117411 29.38183,7.3093325 29.5547,7.1579107 29.713269,7.289506 29.869245,7.4189535 29.698914,7.0977874 28.035783,4.1264897 27.293407,2.800185 26.526372,1.5343374 26.33126,1.3134947 25.947602,0.87923683 25.575758,0.70037574 24.751301,0.55351192 24.061041,0.43055229 23.699976,0.44485918 24.169187,0.57658517 l 0.351451,0.0986638 1.175232,2.31992753 c 0.646379,1.27596 1.883344,3.7106968 2.748815,5.4105239 0.866724,1.7022906 1.573582,3.1908676 1.573582,3.3138166 0,0.122771 -0.04745,0.238498 -0.105461,0.25717 -0.058,0.01867 -1.908666,0.114311 -4.112598,0.212538 -2.20393,0.09823 -5.44972,0.252191 -7.212865,0.342147 -1.763145,0.08996 -3.404144,0.163952 -3.646668,0.164437 -0.522645,10e-4 -0.546577,-0.02623 -1.053539,-1.200486 C 13.129097,9.7394313 9.5832247,1.069088 9.2510344,0.15909631 8.9011488,-0.79937288 8.8970274,-0.82294645 9.0583877,-0.94259584 c 0.1852636,-0.13737436 0.1040624,-0.14188666 3.4801973,0.1933866 1.173839,0.11657029 2.197512,0.19976356 2.274828,0.18487406 0.193418,-0.037249 -7.1654645,-0.83978452 -7.7484753,-0.84502332 -0.5337849,-0.00479 -0.8745987,0.1341292 -0.8008058,0.3264316 0.026815,0.069884 0.073418,0.51303125 0.103558,0.98477151 C 6.421435,0.74299466 6.4418646,0.80956192 7.42575,3.3494376 8.5226194,6.180975 8.7719118,6.707006 9.016937,6.707006 c 0.1028701,0 0.1425954,-0.042395 0.1127066,-0.1202628 -0.027113,-0.070632 0.043542,-0.1790285 0.1712174,-0.2626845 0.2560299,-0.1677566 0.88493,-0.1117482 1.230003,0.1095378 0.29023,0.1861177 0.674889,0.5786623 0.674889,0.6887263 0,0.049973 0.03322,0.090855 0.07381,0.090855 0.124393,0 0.175901,0.4691062 0.0869,0.7914417 -0.178924,0.6480059 -1.224494,0.7648018 -1.8235124,0.2036972 -0.1533834,-0.1436754 -0.1046012,0.038199 0.2748453,1.0247526 0.5753691,1.4959427 0.6248741,1.5934977 0.7212521,1.4212827 0.03969,-0.07093 0.187654,-0.176803 0.328796,-0.235267 0.217639,-0.09014 0.31659,-0.08339 0.651354,0.04446 0.281008,0.107318 0.404112,0.122604 0.427295,0.05305 0.0489,-0.146683 0.222752,-0.118212 0.471114,0.07714 0.224948,0.176945 0.299524,0.415682 0.12985,0.415682 -0.05084,0 -0.198717,-0.07569 -0.328624,-0.168186 -0.187392,-0.133436 -0.245347,-0.144338 -0.280487,-0.05277 -0.02436,0.06348 -0.220152,0.141793 -0.435093,0.174026 -0.299278,0.04487 -0.412421,0.106046 -0.483099,0.26117 -0.109084,0.239409 -0.02809,0.364181 0.472426,0.727791 0.412678,0.299801 0.827743,0.319857 1.018286,0.0492 0.121938,-0.173203 0.121936,-0.19228 -3.2e-5,-0.218015 -0.07352,-0.01551 -0.12157,-0.091 -0.106779,-0.167753 0.03032,-0.157401 0.320199,-0.2484 0.320199,-0.100508 0,0.05254 -0.04383,0.06844 -0.09739,0.03533 -0.05577,-0.03447 -0.07467,-0.02341 -0.04419,0.02589 0.02927,0.04735 0.149015,0.06777 0.266118,0.04538 0.20203,-0.03862 0.212915,-0.02137 0.212915,0.337381 0,0.763461 -0.528141,1.044007 -1.406903,0.747338 -0.269302,-0.09092 -0.49876,-0.15618 -0.509907,-0.145034 -0.02114,0.02114 1.031544,2.615513 1.118066,2.755509 0.0272,0.04401 0.174817,0.08001 0.32804,0.08001 0.247924,0 0.274361,-0.0221 0.240204,-0.200783 z m -0.507657,-0.698697 c -0.154657,-0.0624 -0.128534,-0.318894 0.04883,-0.479401 0.216835,-0.196233 0.324931,-0.174157 0.388558,0.07936 0.08375,0.333644 -0.126162,0.525626 -0.437382,0.400046 z m 1.034024,-0.166481 c -0.09397,-0.09397 -0.110494,-0.165495 -0.05178,-0.2242 0.103673,-0.103672 0.346443,0.06868 0.346443,0.245977 0,0.156031 -0.126178,0.146705 -0.294662,-0.02178 z M 12.89298,14.004228 c 0,-0.06959 0.06643,-0.125959 0.14763,-0.125249 0.115538,0.001 0.122632,0.01713 0.03263,0.07415 -0.09709,0.06151 -0.09709,0.07998 0,0.118589 0.08017,0.03188 0.0703,0.04775 -0.03263,0.05239 -0.08119,0.0037 -0.14763,-0.05028 -0.14763,-0.119881 z m -1.012332,-2.783912 c 0,-0.06959 0.05694,-0.126542 0.12654,-0.126542 0.06959,0 0.126542,0.05694 0.126542,0.126542 0,0.06959 -0.05694,0.126542 -0.126542,0.126542 -0.06959,0 -0.12654,-0.05694 -0.12654,-0.126542 z M 29.090289,8.014598 c 0,-0.0703 0.07499,-0.1265418 0.168722,-0.1265418 0.09373,0 0.168723,0.056233 0.168723,0.1265418 0,0.0703 -0.07499,0.1265407 -0.168723,0.1265407 -0.09373,0 -0.168722,-0.056233 -0.168722,-0.1265407 z M 27.351106,4.5607271 c -0.09749,-0.2540815 0.0069,-0.4263211 0.274354,-0.4523999 0.222799,-0.021724 0.271636,0.00805 0.318243,0.1936925 0.03029,0.1206478 0.03267,0.2555759 0.0053,0.2998399 -0.0783,0.1267001 -0.545851,0.094538 -0.597911,-0.041134 z M 8.2288774,3.364558 C 8.0910787,3.2267614 8.1770812,2.9962472 8.3858434,2.9438525 8.638058,2.8805518 8.78779,2.9947832 8.74539,3.2181534 8.7152845,3.3767601 8.3458074,3.4814892 8.2288774,3.364558 z M 7.6344778,1.5047437 C 7.5086079,1.3788736 7.5823607,1.139179 7.7469551,1.139179 c 0.1237296,0 0.1687216,0.056238 0.1687216,0.2109026 0,0.1985033 -0.1531369,0.2827285 -0.2812023,0.1546621 z M 30.062672,15.243759 c -0.02598,-0.02598 -0.09405,-5.5e-5 -0.151269,0.0576 -0.0827,0.08331 -0.073,0.09301 0.04722,0.04722 0.0832,-0.03168 0.130019,-0.07885 0.104039,-0.104819 z m -8.712503,-0.156525 c -0.058,-0.0234 -0.152905,-0.0234 -0.210902,0 -0.058,0.0234 -0.01055,0.04256 0.105461,0.04256 0.115996,0 0.163449,-0.01915 0.105449,-0.04256 z m 11.222741,-0.667983 0.233417,-0.259866 -0.25516,0.03745 c -0.143279,0.02104 -0.255161,0.08873 -0.255161,0.154416 0,0.147042 -0.364176,0.154101 -0.594245,0.01152 -0.121864,-0.07553 -0.187376,-0.07912 -0.230847,-0.01266 -0.03338,0.05104 -0.117642,0.114483 -0.187239,0.140971 -0.06959,0.02649 0.09294,0.05116 0.361181,0.05483 0.360657,0.0049 0.500942,0.0411 0.538458,0.138873 0.0279,0.07271 0.07446,0.101196 0.103467,0.06327 0.02899,-0.03791 0.15776,-0.185883 0.286138,-0.328809 z m -6.287623,0.243896 c -0.0812,-0.02121 -0.214066,-0.02121 -0.295264,0 -0.08119,0.02122 -0.01477,0.03858 0.147631,0.03858 0.162397,0 0.228829,-0.01736 0.147633,-0.03858 z m 4.407861,-0.0877 c -0.06959,-0.0265 -0.154432,-0.08994 -0.18852,-0.140972 -0.03823,-0.05724 -0.06247,-0.03624 -0.06326,0.05483 -8.69e-4,0.09919 0.061,0.145445 0.188521,0.140972 0.126831,-0.0045 0.147824,-0.02264 0.06327,-0.05483 z m 0.168723,-0.140388 c 0,-0.01823 -0.05892,-0.05576 -0.130924,-0.08339 -0.07507,-0.02881 -0.108934,-0.01467 -0.07938,0.03315 0.04955,0.08016 0.210306,0.118565 0.210306,0.05024 z M 18.341173,12.10291 c 0.282193,-0.04464 1.060423,-0.08425 1.7294,-0.08803 0.668979,-0.0038 1.690856,-0.04182 2.270836,-0.08454 0.579983,-0.04272 2.364218,-0.130786 3.964968,-0.195722 1.600749,-0.06494 2.919944,-0.121803 2.931544,-0.126371 0.07755,-0.03053 -0.0019,-0.441106 -0.105461,-0.544601 -0.06959,-0.06959 -0.126541,-0.180501 -0.126541,-0.24645 0,-0.06596 -0.113887,-0.277128 -0.253082,-0.469282 C 28.613641,10.155757 28.499329,9.9697385 28.498811,9.9345382 28.497841,9.8689848 28.018259,8.9184264 27.285968,7.5306454 27.059176,7.1008358 26.82191,6.7188189 26.758715,6.6817144 26.695512,6.6446156 26.643817,6.5375025 26.643817,6.443695 c 0,-0.093801 -0.05689,-0.2274416 -0.126416,-0.2969704 C 26.447881,6.0771993 26.366159,5.9185678 26.335815,5.7942159 26.305469,5.6698651 26.212669,5.4803349 26.129589,5.37304 26.046506,5.2657469 25.936787,5.0514636 25.885763,4.8968593 25.833703,4.7390871 25.720554,4.5968198 25.627878,4.5725845 25.537057,4.5488314 25.462512,4.4594194 25.462207,4.3738762 25.461901,4.2883299 25.386232,4.1044598 25.29404,3.965264 25.201855,3.8260682 25.126179,3.6488228 25.125874,3.5713857 25.125114,3.3733642 24.849771,2.9119256 24.732019,2.9112849 24.678091,2.911031 24.607532,2.7494106 24.575202,2.5522169 24.542873,2.3550232 24.461521,2.1314368 24.394415,2.0553591 24.327313,1.9792802 24.283989,1.8116565 24.298136,1.6828633 24.320389,1.4804281 24.271929,1.4216672 23.940502,1.249279 23.637365,1.0915998 23.372523,1.0395204 22.675088,1.0004435 22.189967,0.97326603 21.688653,0.90136015 21.561056,0.84066003 c -0.143628,-0.0683233 -0.231993,-0.0773148 -0.231993,-0.0236064 0,0.054911 -0.131584,0.0654892 -0.358534,0.0287986 C 20.773336,0.81398122 20.243264,0.7778351 19.792592,0.76554411 19.341919,0.75325427 18.924333,0.70409147 18.864621,0.6563021 18.804903,0.60851159 18.376429,0.54533585 17.912443,0.51590902 16.458594,0.4237077 15.889299,0.36130351 15.843114,0.2890945 15.818545,0.25068073 15.514847,0.20124622 15.168226,0.17921622 14.821603,0.15719769 13.685129,0.04149205 12.642728,-0.07790054 11.600335,-0.19727399 10.473056,-0.29495758 10.137672,-0.29495758 l -0.6097883,0 0.1785707,0.44289524 c 0.098216,0.24359163 0.2241704,0.49983871 0.2799023,0.56943658 0.05574,0.0695935 0.1261283,0.26508521 0.1564303,0.43441776 0.03031,0.1693326 0.111033,0.3543026 0.179408,0.4110442 0.06837,0.056748 0.12431,0.1814394 0.12431,0.2771058 0,0.1701773 0.103936,0.4263315 0.5885,1.4504424 0.131723,0.2783916 0.264788,0.6188266 0.295701,0.7565235 0.03091,0.1376958 0.141871,0.4413953 0.246575,0.6748879 0.104705,0.2334915 0.316027,0.7282304 0.469605,1.0994189 0.153579,0.3711884 0.33365,0.7887749 0.400162,0.92797 0.0665,0.1391962 0.1793,0.4239146 0.250638,0.6327078 0.19071,0.5581605 0.883737,2.0580656 0.980279,2.1216014 0.04577,0.030117 0.06035,0.1143115 0.03242,0.1871093 -0.02794,0.072788 -0.01449,0.1547913 0.02989,0.1822141 0.04437,0.027423 0.08069,0.1184273 0.08069,0.2022287 0,0.0838 0.07592,0.24889 0.168723,0.366862 0.09279,0.117971 0.168721,0.289273 0.168721,0.380671 0,0.09139 0.05694,0.213436 0.126541,0.271196 0.06959,0.05776 0.126543,0.188121 0.126543,0.289686 0,0.101563 0.07592,0.266161 0.168721,0.365769 0.0928,0.0996 0.168723,0.233305 0.168723,0.29711 0,0.0638 0.01802,0.134031 0.04004,0.156059 0.06852,0.06851 3.011137,-0.01389 3.552203,-0.09949 z M 7.3839921,4.8063097 C 7.5566162,4.7197443 7.556372,4.7168782 7.3267045,4.1314218 7.1998508,3.8080473 6.9158776,3.0796696 6.6956532,2.5128057 6.2921189,1.4740969 6.2067732,1.3855496 6.0382626,1.8307464 5.9689029,2.0139943 5.493442,2.2618886 5.3055679,2.2127582 5.1936983,2.1835057 5.3227416,2.6019596 5.8848585,4.0912043 L 6.608079,6.0072885 6.909352,5.4502661 C 7.0750528,5.1439044 7.2886381,4.8541237 7.3839864,4.8063097 z m -0.955072,-0.00941 C 6.2190218,4.2945405 6.4052003,3.8387278 6.8202919,3.8387278 c 0.2680355,0 0.3361398,0.1221659 0.3361398,0.6029725 0,0.4475326 -0.125518,0.662442 -0.3868973,0.662442 -0.1643961,0 -0.2411778,-0.069265 -0.3406143,-0.3072449 z M 5.9665344,3.5328106 C 5.6836651,3.1919755 5.9359244,2.404593 6.3279841,2.404593 c 0.275297,0 0.4318331,0.7343643 0.2349526,1.1022386 -0.106447,0.19889 -0.440812,0.2134538 -0.5964023,0.025976 z M 5.3405768,1.6419572 C 5.3107464,1.5937024 5.3876611,1.4745125 5.5115007,1.3771033 5.7023521,1.2269798 5.7285528,1.1568048 5.6834714,0.91650474 5.6391958,0.68053017 5.6556702,0.63279549 5.7817442,0.6317207 5.8959068,0.6307468 5.9057214,0.61300162 5.8216174,0.55967839 5.7448518,0.51101544 5.727231,0.39722126 5.7651552,0.19507516 5.7954786,0.03345367 5.7794628,-0.31960284 5.7295697,-0.58949611 5.6657818,-0.93454783 5.6653347,-1.112115 5.7280794,-1.1876908 5.7920507,-1.264774 5.7785457,-1.3700759 5.6803187,-1.5600326 5.6049861,-1.7057068 5.5571795,-1.8663766 5.574078,-1.9170769 5.5909766,-1.9677771 5.5226373,-2.0979236 5.4222022,-2.2062914 5.321774,-2.3146586 4.7380754,-3.387089 4.1251012,-4.5894691 3.5121248,-5.7918503 2.9469033,-6.8328158 2.8690509,-6.9027281 c -0.1271116,-0.114151 -0.1778278,-0.1056101 -0.4972513,0.08369 -0.4617656,0.273653 -0.8178763,0.9604018 -0.8088332,1.5598158 0.00344,0.2256117 0.052782,0.4663412 0.1097258,0.5349557 0.056944,0.068614 0.079861,0.1864605 0.050913,0.2618802 -0.055086,0.1435377 0.2451273,0.7086319 0.3764612,0.7086319 0.04173,0 0.1009097,0.1043972 0.1315174,0.2319928 0.03061,0.1275961 0.3350265,0.8469489 0.6764949,1.5985618 0.3414684,0.7516131 0.6208514,1.40646518 0.6208514,1.45522718 0,0.0487615 0.05441,0.0886588 0.1209001,0.0886588 0.077236,0 0.1185374,0.0837876 0.1143575,0.23199264 C 3.7562777,0.13131291 4.1015174,0.83719011 4.405558,1.1642416 4.5262059,1.2940189 4.7864158,1.4735069 4.983803,1.563103 5.4057974,1.7546514 5.4109438,1.7557886 5.3405959,1.64196 z M 27.234347,1.3880718 c 0,-0.223133 -0.231099,-0.67069848 -0.346313,-0.67069848 -0.05399,0 -0.06802,-0.0950697 -0.03571,-0.24212098 0.04414,-0.20095792 0.02199,-0.25027641 -0.13028,-0.29009595 -0.150334,-0.0393092 -0.173353,-0.08825527 -0.127472,-0.27106264 0.04557,-0.18157425 0.0227,-0.2317919 -0.122901,-0.26986759 -0.129586,-0.0338876 -0.16667,-0.0935151 -0.134551,-0.21634246 0.05009,-0.1915805 -0.177652,-0.6805104 -0.452551,-0.9715306 -0.100875,-0.1067966 -0.162529,-0.2486181 -0.136994,-0.315159 0.07267,-0.1893887 -0.697239,-1.7884637 -0.884703,-1.8374867 -0.09575,-0.025041 -0.159352,-0.1162836 -0.159352,-0.2286208 0,-0.2813575 -0.198118,-0.08109 -0.560078,0.5661556 l -0.300844,0.5379609 0.485309,1.0731067 c 0.266919,0.5902088 0.51757,1.10917115 0.557003,1.15324972 0.121551,0.13587726 0.08104,0.21544068 -0.160299,0.31489965 -0.227057,0.0935736 -0.223018,0.0970313 0.18981,0.16291846 0.231994,0.03703003 0.58792,0.12593258 0.790947,0.19757352 0.203029,0.07164564 0.473607,0.13025569 0.601287,0.13025569 0.320072,0 0.488625,0.2106317 0.348328,0.43528403 -0.09121,0.1460565 -0.08211,0.17454577 0.06835,0.21389137 0.09546,0.024966 0.173577,0.0961244 0.173577,0.15812356 0,0.1664957 0.184794,0.5424768 0.266624,0.5424768 0.03894,0 0.07082,-0.077813 0.07082,-0.1729108 z M 23.585735,0.40613747 c -0.08119,-0.0212137 -0.214067,-0.0212137 -0.295263,0 -0.08119,0.0212252 -0.01477,0.0385835 0.14763,0.0385835 0.162396,0 0.22883,-0.0173583 0.147633,-0.0385835 z M 22.82488,0.32146482 c -0.08207,-0.0213834 -0.195968,-0.0199779 -0.253082,0.003176 -0.05712,0.0231065 0.01009,0.0406126 0.149237,0.0388895 0.139196,-0.001697 0.185926,-0.0206245 0.103844,-0.0420193 z m -0.673282,-0.0840501 c -0.0812,-0.0212137 -0.214066,-0.0212137 -0.295264,0 -0.08119,0.0212252 -0.01477,0.0385834 0.147632,0.0385834 0.162396,0 0.22883,-0.0173583 0.147632,-0.0385834 z m -0.759249,-0.0843551 c -0.08119,-0.0212252 -0.214065,-0.0212252 -0.295264,0 -0.08119,0.0212137 -0.01477,0.0385834 0.147633,0.0385834 0.162394,0 0.228829,-0.0173582 0.147631,-0.0385834 z M 20.717462,0.06869307 c -0.0812,-0.0212252 -0.214067,-0.0212252 -0.295265,0 -0.08119,0.02122519 -0.01477,0.03858345 0.147633,0.03858345 0.162394,0 0.228828,-0.01735826 0.147632,-0.03858345 z m -0.75925,-0.08436655 c -0.08119,-0.02121373 -0.214066,-0.02121373 -0.295263,0 -0.08119,0.0212252 -0.01477,0.03858345 0.147631,0.03858345 0.162396,0 0.22883,-0.01735825 0.147632,-0.03858345 z m -0.760855,-0.08467264 c -0.08207,-0.0213834 -0.195968,-0.0199779 -0.253082,0.0031756 -0.0571,0.0231065 0.01009,0.04061265 0.149237,0.03888955 0.139196,-0.0016967 0.185927,-0.02062447 0.103844,-0.04201934 z m 3.860524,-0.0249328 c 0.02956,-0.0478238 -0.0044,-0.0619628 -0.07938,-0.0331528 -0.146149,0.0560781 -0.17289,0.11655022 -0.05154,0.11655022 0.04367,0 0.102572,-0.03752872 0.130924,-0.08339207 z m -4.533806,-0.0591185 c -0.08119,-0.0212252 -0.214066,-0.0212252 -0.295263,0 -0.08119,0.0212252 -0.01477,0.0385834 0.147632,0.0385834 0.162395,0 0.228829,-0.0173582 0.147631,-0.0385834 z m -0.759248,-0.0843665 c -0.08119,-0.0212137 -0.214067,-0.0212137 -0.295264,0 -0.08119,0.0212252 -0.01477,0.0385834 0.147632,0.0385834 0.162394,0 0.228829,-0.0173583 0.147632,-0.0385834 z m 6.494191,-3.1184e-4 c -0.08207,-0.0213834 -0.195968,-0.0199779 -0.253084,0.003176 -0.0571,0.0231065 0.01009,0.0406138 0.149238,0.0388895 0.139195,-0.001697 0.185926,-0.0206245 0.103845,-0.0420193 z m -7.25344,-0.084049 c -0.08119,-0.0212183 -0.214066,-0.0212183 -0.295264,0 -0.08119,0.0212252 -0.01477,0.0385834 0.147631,0.0385834 0.162397,0 0.228829,-0.0173582 0.147633,-0.0385834 z m 6.537976,0.00227 c -0.058,-0.0234034 -0.152904,-0.0234034 -0.210903,0 -0.058,0.0234023 -0.01055,0.0425524 0.105461,0.0425524 0.115997,0 0.16345,-0.0191501 0.105462,-0.0425524 z m -7.256028,-0.0881544 c -0.104934,-0.0201785 -0.256788,-0.0194115 -0.337444,0.001697 -0.08066,0.0211151 0.0052,0.0376239 0.190795,0.0366872 0.185594,-9.3641e-4 0.251587,-0.0182123 0.146649,-0.0383908 z m 6.621716,0.001204 c -0.08207,-0.0213891 -0.195969,-0.0199824 -0.253084,0.00313 -0.0571,0.0231088 0.01009,0.0406081 0.149237,0.0388896 0.139196,-0.00172 0.185927,-0.0206268 0.103845,-0.0420159 z m -7.379981,-0.0854362 c -0.104407,-0.0201086 -0.275229,-0.0201086 -0.379626,0 -0.104406,0.0201086 -0.01899,0.03656 0.189813,0.03656 0.208794,0 0.294209,-0.0164514 0.189813,-0.03656 z m 6.705093,0.001075 c -0.08207,-0.0213891 -0.195968,-0.0199825 -0.253084,0.00313 -0.0571,0.0231088 0.01009,0.0406081 0.149238,0.0388895 0.139195,-0.00172 0.185926,-0.0206268 0.103844,-0.0420159 z m -0.674888,-0.0843608 c -0.08207,-0.0213891 -0.195968,-0.0199824 -0.253084,0.00313 -0.05711,0.0231088 0.01009,0.0406081 0.149237,0.0388896 0.139196,-0.00172 0.185927,-0.0206268 0.103845,-0.0420159 z m -0.674889,-0.0843608 c -0.08207,-0.0213891 -0.195968,-0.0199825 -0.253082,0.00313 -0.0571,0.0231088 0.01009,0.0406081 0.149236,0.0388895 0.139197,-0.00172 0.185928,-0.0206268 0.103845,-0.0420159 z m -0.673283,-0.0840513 c -0.08119,-0.0212195 -0.214065,-0.0212195 -0.295262,0 -0.0812,0.0212195 -0.01477,0.03858 0.147632,0.03858 0.162394,0 0.228828,-0.0173605 0.14763,-0.03858 z m -0.717067,-0.0820874 c -0.058,-0.0234034 -0.152905,-0.0234034 -0.210903,0 -0.058,0.0234034 -0.01055,0.0425513 0.105461,0.0425513 0.115997,0 0.16345,-0.0191478 0.105461,-0.0425513 z m -0.674888,-0.0843608 c -0.058,-0.0234034 -0.152905,-0.0234034 -0.210902,0 -0.058,0.0234034 -0.01055,0.0425513 0.105449,0.0425513 0.115997,0 0.163449,-0.0191478 0.105461,-0.0425513 z m -2.06845,-0.25564294 c -0.08207,-0.021389 -0.195968,-0.019982 -0.253083,0.00313 -0.05712,0.023109 0.01009,0.040608 0.149238,0.03889 0.139195,-0.00172 0.185926,-0.020627 0.103844,-0.042016 z m -1.622344,-0.1985025 c -0.231992,-0.036135 -0.535691,-0.063638 -0.674887,-0.061118 -0.211176,0.00382 -0.197207,0.014585 0.08437,0.065 0.185594,0.03323 0.489294,0.060733 0.674888,0.061118 0.320342,6.664e-4 0.316068,-0.00263 -0.08437,-0.065 z m -1.118767,-0.1401452 c -0.104934,-0.020179 -0.256787,-0.019411 -0.337443,0.0017 -0.08066,0.021115 0.0052,0.037624 0.190796,0.036688 0.185594,-9.365e-4 0.251585,-0.018212 0.146647,-0.038391 z m -0.594816,-0.082324 c -0.0609,-0.024369 -0.133659,-0.021372 -0.161691,0.00666 -0.02803,0.028033 0.02179,0.047972 0.110723,0.044308 0.09828,-0.00405 0.118265,-0.024037 0.05096,-0.050968 z m -1.963149,-0.2256951 c -0.01933,-0.016631 -0.187001,-0.053518 -0.372595,-0.08197 -0.229797,-0.035228 -0.297077,-0.025993 -0.210902,0.028949 0.11526,0.073487 0.665391,0.1234765 0.583497,0.053022 z m -0.859276,-0.1125827 c -0.08207,-0.021389 -0.195968,-0.019982 -0.253084,0.00313 -0.05712,0.023108 0.01009,0.040608 0.149238,0.03889 0.139195,-0.00172 0.185927,-0.020627 0.103845,-0.042016 z M 9.2865465,-2.1260765 c -0.1044063,-0.020109 -0.2752282,-0.020109 -0.3796253,0 -0.1044064,0.020109 -0.018985,0.03656 0.1898126,0.03656 0.2087943,0 0.2942099,-0.016451 0.1898127,-0.03656 z m -0.7602321,-0.084489 c -0.1049337,-0.020178 -0.2567877,-0.019413 -0.3374455,0.0017 -0.080664,0.021115 0.00527,0.037624 0.1907975,0.036688 0.1855937,-9.364e-4 0.251584,-0.018212 0.146648,-0.038391 z m -0.6748888,-0.084362 c -0.1049337,-0.020178 -0.2567866,-0.019411 -0.3374432,0.0017 -0.080652,0.021115 0.00516,0.037625 0.1907952,0.036688 0.1855949,-9.364e-4 0.2515851,-0.018212 0.146648,-0.038391 z" id="path2846" style="fill:&fill_color;;fill-opacity:1;stroke:&stroke_color;;stroke-width:0.444;stroke-miterlimit:4;stroke-opacity:1;stroke-dasharray:none;fill-rule:nonzero"/>
    <path d="M 14.287159,10.373551 C 13.931935,9.512396 13.364303,8.171419 13.025755,7.393601 11.764741,4.496409 10.065452,0.135304 10.160537,0.04022 c 0.05412,-0.05412 1.937074,0.108697 4.184352,0.361807 2.247277,0.253111 5.08601,0.54156 6.308294,0.640999 3.192155,0.259698 3.005302,0.162432 3.957686,2.060162 0.459303,0.915209 1.087042,2.136057 1.394976,2.712995 2.157552,4.04233 2.83514,5.376761 2.765522,5.446379 -0.08346,0.08345 -11.268602,0.667357 -12.897555,0.673296 l -0.940792,0.0034 -0.645861,-1.565737 z" id="path3589" style="fill:&fill_color;;fill-opacity:1;stroke:&stroke_color;;stroke-width:0.04040605;stroke-miterlimit:4;stroke-opacity:1;stroke-dasharray:none;fill-rule:nonzero"/>
    <path d="M 4.635531,0.979133 C 4.5212779,0.840237 4.183085,0.181112 3.883991,-0.485588 3.584897,-1.152289 3.0394807,-2.334167 2.671955,-3.111985 1.9181097,-4.7073944 1.8238574,-5.1080108 2.0236414,-5.8676202 2.3151089,-6.9758242 2.6730425,-6.669805 4.053,-4.132598 c 1.304528,2.398521 1.3468798,2.521794 1.3468798,3.920329 0,1.091773 -0.067877,1.44394 -0.2783081,1.44394 -0.1530696,0 -0.3717878,-0.113642 -0.4860407,-0.252538 z" id="path3593" style="fill:&fill_color;;fill-opacity:1;stroke:&stroke_color;;stroke-width:0.04040605;stroke-miterlimit:4;stroke-opacity:1;stroke-dasharray:none;fill-rule:nonzero"/>
    <path d="m 24.779098,-1.465938 c -0.542821,-1.159982 -0.618823,-1.949093 -0.187724,-1.949093 0.08657,0 0.31404,0.340927 0.505494,0.757615 0.191454,0.416688 0.474554,1.021595 0.629111,1.344238 0.366288,0.764638 0.35572,1.130635 -0.03265,1.130635 -0.187582,0 -0.555066,-0.515872 -0.914234,-1.283395 z" id="path3595" style="fill:&fill_color;;fill-opacity:1;stroke:&stroke_color;;stroke-width:0.04040605;stroke-miterlimit:4;stroke-opacity:1;stroke-dasharray:none;fill-rule:nonzero"/>
    <path d="M 11.348908,6.83203 C 11.148526,6.309841 9.9571634,5.845558 9.3803427,6.064865 8.8927546,6.250246 8.8604657,6.198103 7.8486838,3.591432 6.8185756,0.937546 6.3986975,-0.834951 6.7488728,-1.051371 c 0.1014361,-0.06269 0.5459717,-0.06549 0.9878571,-0.0062 l 0.8034279,0.107763 1.5785012,3.935682 c 0.868176,2.164625 1.52746,3.986724 1.465075,4.049109 -0.06238,0.06238 -0.168057,-0.02893 -0.234826,-0.202931 l 0,0 z M 8.9987889,3.200858 C 9.0359154,3.006067 8.9220442,2.79134 8.7457418,2.723686 8.3293751,2.563912 7.815398,2.993841 7.962984,3.378444 8.1176789,3.781572 8.9141322,3.645022 8.9987889,3.200858 z M 8.1272917,1.346755 C 8.1272917,0.907401 7.843061,0.758232 7.4638498,0.998569 7.111636,1.221796 7.3863858,1.873899 7.7991592,1.794406 7.9796321,1.759646 8.1272917,1.558207 8.1272917,1.346755 z" id="path3597" style="fill:&fill_color;;fill-opacity:1;stroke:&stroke_color;;stroke-width:0.04040605;stroke-miterlimit:4;stroke-opacity:1;stroke-dasharray:none;fill-rule:nonzero"/>
    <path d="M 9.9510193,15.593018 C 9.8834843,15.380234 9.8844052,14.982312 9.9530656,14.708747 10.046154,14.337853 9.929497,14.038046 9.4943628,13.529891 8.6899499,12.590487 6.9504807,7.849347 7.1226463,7.065482 7.2563083,6.456923 7.6398465,6.307835 7.9676805,6.737002 c 0.1833858,0.240071 1.7421649,4.132175 2.8344285,7.077265 0.488899,1.318226 0.494482,1.384911 0.148002,1.767767 -0.455765,0.503615 -0.841391,0.507855 -0.9990917,0.01098 l 0,0 z" id="path3599" style="fill:&fill_color;;fill-opacity:1;stroke:&stroke_color;;stroke-width:0.04040605;stroke-miterlimit:4;stroke-opacity:1;stroke-dasharray:none;fill-rule:nonzero"/>
    <path d="m 14.019849,14.835058 c -0.07408,-0.07408 -0.134688,-0.298163 -0.134688,-0.497968 0,-0.484392 -0.721063,-0.847212 -1.363359,-0.686006 -0.329787,0.08277 -0.578415,0.03402 -0.685196,-0.134344 -0.266665,-0.420466 -0.201202,-0.621053 0.157733,-0.483316 0.549767,0.210965 1.284731,-0.417628 1.284731,-1.098794 0,-0.330788 -0.09091,-0.601434 -0.202031,-0.601434 -0.111116,0 -0.20203,-0.178628 -0.20203,-0.396952 0,-0.518812 -0.514989,-0.770033 -1.515229,-0.73916 -0.706781,0.02182 -0.839791,-0.04764 -1.06066,-0.553834 -0.3488969,-0.799618 -0.3243508,-0.885943 0.251916,-0.885943 0.69376,0 1.076968,-0.369473 1.150619,-1.109382 0.05133,-0.515672 0.250834,-0.162338 1.142907,2.024171 0.594396,1.456892 1.192739,2.802088 1.32965,2.989326 0.233195,0.318913 0.688464,0.319515 7.20253,0.0095 3.824481,-0.181998 7.348495,-0.330162 7.831145,-0.329252 0.7053,0.0013 0.898064,-0.07682 0.982092,-0.39814 0.09528,-0.364365 0.142351,-0.373316 0.531114,-0.101015 0.234612,0.164328 0.640117,0.298778 0.901121,0.298778 0.435741,0 0.448019,0.02654 0.150104,0.32445 -0.228828,0.228828 -0.263369,0.398049 -0.117198,0.574173 0.329712,0.397279 0.0064,0.523364 -0.49675,0.193705 -0.40851,-0.267666 -0.493854,-0.266168 -0.773607,0.01359 -0.246017,0.246018 -2.016243,0.467644 -8.13506,1.018478 -8.92002,0.803007 -8.055972,0.743231 -8.229854,0.569349 l 0,-1e-6 z" id="path3601" style="fill:&fill_color;;fill-opacity:1;stroke:&stroke_color;;stroke-width:0.04040605;stroke-miterlimit:4;stroke-opacity:1;stroke-dasharray:none;fill-rule:nonzero"/>
    <path d="M 8.5221695,21.140859 C 7.9571189,20.575809 7.8879713,19.903812 8.3299488,19.2728 8.6880176,18.761585 9.520567,18.478275 11.072942,18.339378 l 1.127376,-0.10087 -0.2664,1.042523 c -0.14652,0.573388 -0.415111,1.133437 -0.596869,1.244553 -0.181757,0.111117 -0.641419,0.406587 -1.02147,0.6566 -0.8792251,0.578389 -1.1806415,0.571443 -1.7934095,-0.04133 l 0,0 z" id="path3603" style="fill:&fill_color;;fill-opacity:1;stroke:&stroke_color;;stroke-width:0.04040605;stroke-miterlimit:4;stroke-opacity:1;stroke-dasharray:none;fill-rule:nonzero"/>
    <path d="m 11.258765,16.878726 c 0,-0.483778 7.631775,-1.536888 8.694143,-1.199706 1.056631,0.335362 -0.04313,0.704428 -2.102898,0.705708 -0.68059,4.23e-4 -2.05566,0.135206 -3.055711,0.299519 -1.847817,0.303603 -3.535534,0.39644 -3.535534,0.194479 z" id="path3607" style="fill:&fill_color;;fill-opacity:1;stroke:&stroke_color;;stroke-width:0.04040605;stroke-miterlimit:4;stroke-opacity:1;stroke-dasharray:none;fill-rule:nonzero"/>
    <path d="m 31.407463,18.069714 c 0.136781,-0.05534 0.409522,-0.05871 0.606091,-0.0075 0.19657,0.05122 0.08466,0.0965 -0.248693,0.10062 -0.33335,0.0041 -0.494179,-0.03779 -0.357398,-0.09313 z" id="path3609" style="fill:&fill_color;;fill-opacity:1;stroke:&stroke_color;;stroke-width:0.04040605;stroke-miterlimit:4;stroke-opacity:1;stroke-dasharray:none;fill-rule:nonzero"/>
    <path d="m 25.4009,26.69678 c -0.944492,-0.194908 -2.533177,-0.509282 -3.530409,-0.69861 -0.997233,-0.189327 -1.854853,-0.385933 -1.905821,-0.436902 -0.05097,-0.05097 0.01491,-0.200252 0.146398,-0.33174 0.131488,-0.131488 0.23907,-0.316439 0.23907,-0.411003 0,-0.305393 -1.375567,-0.757407 -2.304939,-0.757407 -0.497037,0 -0.962083,-0.09446 -1.033436,-0.209912 -0.157649,-0.255081 2.463189,-0.110955 5.56071,0.305796 3.377057,0.45436 5.784787,0.69385 8.325113,0.828076 2.458826,0.129919 2.637623,0.199991 2.856723,1.119565 0.120262,0.504744 0.07497,0.538518 -1.01599,0.757614 -1.649755,0.331318 -5.332503,0.248263 -7.337419,-0.165477 z" id="path3611" style="fill:&fill_color;;fill-opacity:1;stroke:&stroke_color;;stroke-width:0.04040605;stroke-miterlimit:4;stroke-opacity:1;stroke-dasharray:none;fill-rule:nonzero"/>
    <path d="m 29.716092,21.861465 c -1.222284,-0.04461 -2.381434,-0.09442 -2.575889,-0.110683 -0.391403,-0.03274 6.352791,-1.347389 11.818785,-2.303836 1.916765,-0.335398 3.719307,-0.676844 4.00565,-0.758768 0.377952,-0.108134 1.028481,-0.147358 2.373858,-0.143132 3.318885,0.01043 3.395932,-0.02111 -3.913896,1.602072 -7.194065,1.597477 -8.355194,1.830096 -9.031603,1.809377 -0.250013,-0.0077 -1.45462,-0.05042 -2.676905,-0.09503 z" id="path3613" style="fill:&fill_color;;fill-opacity:1;stroke:&stroke_color;;stroke-width:0.02020303;stroke-miterlimit:4;stroke-opacity:1;stroke-dasharray:none;fill-rule:nonzero"/>
    <path d="m 27.443249,18.356584 c 0,-0.0577 0.119849,-0.247336 0.266331,-0.42142 0.241535,-0.287048 0.260661,-0.370753 0.205439,-0.899092 l -0.06089,-0.582577 1.234028,-0.13056 c 3.48626,-0.368847 5.116102,-0.473071 5.170751,-0.330657 0.02936,0.07651 0.05338,0.447406 0.05338,0.824219 l 0,0.685115 -0.429314,0.06127 c -0.236124,0.0337 -1.52028,0.218302 -2.853681,0.410237 -3.340232,0.480803 -3.586042,0.507088 -3.586042,0.383469 z" id="path3615" style="fill:&fill_color;;fill-opacity:1;stroke:&stroke_color;;stroke-width:0.02020303;stroke-miterlimit:4;stroke-opacity:1;stroke-dasharray:none;fill-rule:nonzero"/>
    <path d="m 14.104836,19.625139 c -0.0024,-0.402798 -0.04382,-0.936742 -0.092,-1.18654 -0.04894,-0.253741 -0.04922,-0.477903 -6.25e-4,-0.507933 0.04784,-0.02956 1.958765,-0.251142 4.246509,-0.492394 2.287744,-0.241252 4.278743,-0.470311 4.424441,-0.50902 0.330783,-0.08788 0.403227,-0.438386 0.130142,-0.629662 -0.193479,-0.135518 -0.192905,-0.142667 0.03437,-0.427698 0.222924,-0.279573 0.273698,-0.292744 1.428458,-0.370539 1.986377,-0.133821 1.926032,-0.140515 2.115677,0.234699 0.09126,0.180564 0.246241,0.419213 0.344394,0.53033 0.09845,0.111457 0.208841,0.456096 0.246227,0.768746 0.06775,0.566602 0.0677,0.566748 -0.266039,0.723501 -0.183592,0.08623 -0.992005,0.277262 -1.796475,0.424511 -1.459715,0.267184 -1.568422,0.314208 -1.678425,0.726043 -0.04788,0.179258 -0.179069,0.239479 -0.731467,0.335773 -1.892816,0.329955 -7.632239,1.112543 -8.159277,1.112543 -0.232062,0 -0.241686,-0.02866 -0.245913,-0.73236 z" id="path3617" style="fill:&fill_color;;fill-opacity:1;stroke:&stroke_color;;stroke-width:0.02020303;stroke-miterlimit:4;stroke-opacity:1;stroke-dasharray:none;fill-rule:nonzero"/>
    <path d="m 23.185411,21.520813 c -0.02486,-0.02485 -0.793006,-0.114396 -1.707002,-0.19898 -1.716746,-0.158874 -2.364957,-0.244773 -2.303479,-0.305251 0.01957,-0.01925 1.217454,-0.201932 2.661973,-0.405963 1.444518,-0.204032 4.762869,-0.717258 7.374113,-1.140504 4.740564,-0.768378 4.750989,-0.769575 6.919545,-0.794768 1.194505,-0.01388 2.126371,-0.0068 2.070813,0.01568 -0.05556,0.0225 -1.646549,0.31832 -3.535534,0.657375 -2.707359,0.485946 -10.106661,1.916269 -11.222951,2.169454 -0.116758,0.02648 -0.232623,0.02781 -0.257478,0.003 l 0,0 z" id="path3619" style="fill:&fill_color;;fill-opacity:1;stroke:&stroke_color;;stroke-width:0.02020303;stroke-miterlimit:4;stroke-opacity:1;stroke-dasharray:none;fill-rule:nonzero"/>
    <path d="m 27.56788,6.241846 c -1.459308,-2.920319 -2.631939,-5.33102 -2.605847,-5.357113 0.08463,-0.08463 0.515156,0.0664 0.86153,0.302214 0.214456,0.146007 0.604376,0.672611 1.066171,1.439912 0.703198,1.168407 0.720769,1.213333 0.514519,1.315539 -0.251578,0.124668 -0.337288,0.598281 -0.149271,0.824829 0.09147,0.110216 0.241511,0.140849 0.512104,0.104555 l 0.382727,-0.05133 0.579124,1.025757 c 0.639359,1.13245 0.716209,1.591342 0.317144,1.893759 -0.304667,0.23088 -0.175034,0.59672 0.211442,0.59672 0.280124,0 0.469711,-0.222587 0.35192,-0.413177 -0.03124,-0.05054 0.0037,-0.0919 0.07766,-0.0919 0.07395,0 0.374593,0.48285 0.668094,1.073 0.514204,1.033922 0.524506,1.070707 0.282874,1.010061 -0.415457,-0.104272 -0.603004,0.175812 -0.522763,0.780699 0.03682,0.277579 0.111397,0.58774 0.165721,0.689247 0.05432,0.101507 0.06308,0.180585 0.01946,0.175731 -0.04362,-0.0049 -1.273295,-2.39818 -2.732604,-5.3185 l 0,0 z" id="path3621" style="fill:&fill_color;;fill-opacity:1;stroke:&stroke_color;;stroke-width:0.02020303;stroke-miterlimit:4;stroke-opacity:1;stroke-dasharray:none;fill-rule:nonzero"/>
    <path d="m 28.134819,28.571158 c -1.486531,-0.192885 -9.890055,-2.015327 -10.303556,-2.234495 -0.500315,-0.265182 -0.0848,-0.253667 1.119609,0.03103 1.673582,0.395597 6.798039,1.347322 8.167168,1.516823 2.164206,0.267934 4.93122,0.160869 6.340213,-0.245323 3.713159,-1.070449 8.305501,-2.499294 9.495453,-2.954381 1.059809,-0.405315 1.168079,-0.732489 0.361851,-1.093449 -0.250073,-0.11196 -0.356454,-0.207271 -0.282418,-0.253028 0.07176,-0.04435 0.105548,-0.256302 0.08536,-0.535404 l -0.03342,-0.461996 1.515229,-0.392882 c 0.833376,-0.216085 2.038776,-0.455241 2.678667,-0.531456 1.799205,-0.214298 2.627947,-0.442617 3.077824,-0.847943 0.281669,-0.253775 0.656435,-0.332711 0.725472,-0.152804 0.07542,0.196543 0.507336,0.181605 0.620986,-0.02148 0.0938,-0.167602 0.440505,-0.165695 1.570091,0.0086 0.821588,0.126796 0.995389,0.426487 0.443587,0.764894 -0.655086,0.40175 -4.294309,1.70663 -11.266454,4.039701 -2.762346,0.924357 -3.456519,1.204031 -3.456519,1.39259 0,0.04186 -0.179502,0.05898 -0.398892,0.03806 -0.292477,-0.02789 -0.905547,0.130745 -2.298097,0.594654 -1.044563,0.347982 -2.217404,0.764262 -2.606312,0.925067 -0.584066,0.241499 -0.935611,0.308319 -2.020305,0.384011 -1.30367,0.09097 -2.954298,0.104593 -3.535534,0.02918 z" id="path3623" style="fill:&fill_color;;fill-opacity:1;stroke:&stroke_color;;stroke-width:0.02020303;stroke-miterlimit:4;stroke-opacity:1;stroke-dasharray:none;fill-rule:nonzero"/>
    <path d="m 35.008323,26.078425 c -0.293496,-1.437377 -0.322997,-1.362805 0.652132,-1.648445 0.472246,-0.138333 1.321072,-0.356993 1.88628,-0.48591 0.972674,-0.221856 1.076658,-0.227074 1.943775,-0.09754 0.503869,0.07527 1.30408,0.168333 1.778247,0.206807 0.474167,0.03847 0.847313,0.08476 0.829214,0.102859 -0.0181,0.0181 -0.4398,0.14001 -0.937114,0.270915 -0.793444,0.208853 -0.953704,0.222606 -1.308269,0.112267 -0.682675,-0.212445 -0.855573,-0.181804 -0.92471,0.163879 -0.03357,0.167832 -0.111979,0.337609 -0.174251,0.377284 -0.06227,0.03967 -0.920536,0.328937 -1.907252,0.642806 -1.748769,0.556274 -1.795141,0.565232 -1.838052,0.355078 l 0,0 z" id="path3625" style="fill:&fill_color;;fill-opacity:1;stroke:&stroke_color;;stroke-width:0.02020303;stroke-miterlimit:4;stroke-opacity:1;stroke-dasharray:none;fill-rule:nonzero"/>
    <path d="m 32.488839,23.653762 c 0.228784,-0.286732 0.3645,-0.366815 0.621646,-0.366817 1.070338,-10e-6 5.991996,-1.034605 11.323482,-2.380341 1.636702,-0.413124 3.070997,-0.747228 3.187324,-0.742452 0.30263,0.01242 0.07598,0.07709 -3.677585,1.049178 -1.805648,0.467624 -3.747489,0.989117 -4.315204,1.158873 -0.567714,0.169756 -1.158653,0.30867 -1.313198,0.308698 -0.154545,2.8e-5 -0.525445,0.09296 -0.824223,0.206522 -0.859117,0.326531 -3.62124,0.976703 -4.497166,1.058581 l -0.797758,0.07457 0.292682,-0.366813 z" id="path3627" style="fill:&fill_color;;fill-opacity:1;stroke:&stroke_color;;stroke-width:0.02020303;stroke-miterlimit:4;stroke-opacity:1;stroke-dasharray:none;fill-rule:nonzero"/>
    <path d="m 26.266037,23.626666 c -0.638922,-0.07748 -2.070813,-0.232516 -3.181981,-0.344521 -3.098442,-0.31232 -3.808703,-0.397534 -4.192133,-0.502959 -0.194454,-0.05347 -0.739937,-0.106221 -1.212183,-0.117236 -0.792451,-0.01848 -0.808815,-0.02282 -0.212305,-0.05628 0.682615,-0.03829 8.864782,0.622424 9.722574,0.785101 0.276337,0.05241 0.600716,0.164125 0.720843,0.248265 0.212434,0.148795 0.208811,0.152647 -0.132364,0.140744 -0.192927,-0.0067 -0.87353,-0.07563 -1.512451,-0.153114 z" id="path3629" style="fill:&fill_color;;fill-opacity:1;stroke:&stroke_color;;stroke-width:0.02020303;stroke-miterlimit:4;stroke-opacity:1;stroke-dasharray:none;fill-rule:nonzero"/>
    <path d="m 27.579235,15.220482 c 0.250013,-0.04171 0.599713,-0.15284 0.777112,-0.246949 0.241586,-0.12816 0.419067,-0.150805 0.707107,-0.09022 l 0.384563,0.08089 -0.339201,0.119307 c -0.186561,0.06562 -0.709315,0.140346 -1.161676,0.166062 -0.561938,0.03194 -0.67848,0.02273 -0.367905,-0.02909 z" id="path3631" style="fill:&fill_color;;fill-opacity:1;stroke:&stroke_color;;stroke-width:0.02020303;stroke-miterlimit:4;stroke-opacity:1;stroke-dasharray:none;fill-rule:nonzero"/>
    <path d="m 13.627275,25.458764 c -0.04167,-0.01243 -0.159436,-0.03018 -0.261704,-0.03945 -0.183714,-0.01666 -0.186393,-0.01794 -0.223577,-0.106929 -0.03694,-0.08841 -0.13925,-0.522613 -0.170802,-0.724884 l -0.01602,-0.102707 0.183797,0.02765 0.183798,0.02764 0.08912,0.234943 c 0.120732,0.318279 0.209397,0.420365 0.398362,0.458657 0.07993,0.0162 0.173737,0.04124 0.208461,0.05566 0.06152,0.02553 0.06022,0.02718 -0.05051,0.06438 -0.0625,0.02099 -0.143807,0.05928 -0.180675,0.08508 -0.03687,0.0258 -0.07096,0.04593 -0.07576,0.04474 -0.0048,-0.0012 -0.04282,-0.01234 -0.08449,-0.02477 z" id="path3635" style="fill:&fill_color;;fill-opacity:1;stroke:&stroke_color;;stroke-width:0.00505076;stroke-miterlimit:4;stroke-opacity:1;stroke-dasharray:none;fill-rule:nonzero"/>
    <path d="m 10.876559,26.819357 c -0.09537,-0.334593 -0.108735,-1.165531 -0.02034,-1.264775 0.02193,-0.02462 0.05886,-0.132579 0.08208,-0.239912 l 0.04221,-0.19515 0.08384,0.252538 c 0.08105,0.244126 0.08393,0.266838 0.08663,0.681853 l 0.0028,0.429315 0.08209,0.143017 0.0821,0.143017 -0.08989,0.02967 c -0.04944,0.01632 -0.140155,0.05776 -0.201593,0.0921 l -0.111706,0.06243 -0.03822,-0.134101 z" id="path3637" style="fill:&fill_color;;fill-opacity:1;stroke:&stroke_color;;stroke-width:0.00505076;stroke-miterlimit:4;stroke-opacity:1;stroke-dasharray:none;fill-rule:nonzero"/>
    <path d="m 17.326958,25.326257 c 0,-0.01864 -0.03977,-0.135206 -0.08839,-0.259036 -0.04861,-0.12383 -0.08839,-0.229629 -0.08839,-0.23511 0,-0.02686 1.060276,0.140259 1.093799,0.172398 0.01128,0.01082 -0.02849,0.02745 -0.08839,0.03696 -0.170147,0.02703 -0.629087,0.187321 -0.733933,0.256337 -0.06509,0.04285 -0.0947,0.05174 -0.0947,0.02845 z" id="path3639" style="fill:&fill_color;;fill-opacity:1;stroke:&stroke_color;;stroke-width:0.00505076;stroke-miterlimit:4;stroke-opacity:1;stroke-dasharray:none;fill-rule:nonzero"/>
  </g>
</svg>