<?xml version="1.0" encoding="utf-8"?>
<!-- Generator: Adobe Illustrator 13.0.2, SVG Export Plug-In  -->
<!DOCTYPE svg PUBLIC "-//W3C//DTD SVG 1.1//EN" "http://www.w3.org/Graphics/SVG/1.1/DTD/svg11.dtd" [
     <!ENTITY ns_svg "http://www.w3.org/2000/svg">
     <!ENTITY ns_xlink " http://www.w3.org/1999/xlink">
     <!ENTITY stroke_color "#000000">
     <!ENTITY fill_color "#AAAAAA">
 ]>
<svg version="1.1"
	 xmlns="http://www.w3.org/2000/svg" xmlns:xlink="http://www.w3.org/1999/xlink" xmlns:a="http://ns.adobe.com/AdobeSVGViewerExtensions/3.0/"
	 x="0px" y="0px" width="44px" height="44px" viewBox="0 0 44 44" enable-background="new 0 0 44 44" xml:space="preserve">
<defs>
</defs>
<polygon style="fill:&fill_color;;fill-rule:evenodd;stroke:&stroke_color;;stroke-width:1.0;stroke-linejoin:round;"
	id="polygon239_1_" points="33.061,37.678 34.857,39.584 32.25,39.852 30.991,42.15 29.934,39.754 27.357,39.268 
	29.311,37.52 28.977,34.92 31.242,36.236 33.611,35.115 "/>
<polygon style="fill:&fill_color;;fill-rule:evenodd;stroke:&stroke_color;;stroke-width:1.0;stroke-linejoin:round;"
	id="polygon241_1_" points="13.061,6.172 20,6.975 15.143,11.994 16.523,18.842 10.248,15.773 4.163,19.201 5.143,12.285 
	0,7.559 6.881,6.352 9.787,0 "/>
<polygon style="fill:&fill_color;;fill-rule:evenodd;stroke:&stroke_color;;stroke-width:1.0;stroke-linejoin:round;"
	id="polygon243_1_" points="31.104,5.957 36.081,8.124 31.334,10.756 30.811,16.159 26.839,12.457 21.539,13.628 
	23.833,8.71 21.081,4.03 26.471,4.69 30.066,0.627 "/>
<polygon style="fill:&fill_color;;fill-rule:evenodd;stroke:&stroke_color;;stroke-width:1.0;stroke-linejoin:round;"
	id="polygon245_1_" points="24.55,39.879 26,40.852 24.346,41.41 23.867,43.091 22.825,41.689 21.079,41.755 22.089,40.329 
	21.489,38.689 23.156,39.211 24.529,38.133 "/>
<polygon style="fill:&fill_color;;fill-rule:evenodd;stroke:&stroke_color;;stroke-width:1.0;stroke-linejoin:round;"
	id="polygon247_1_" points="39.329,29.953 41.727,32.495 38.25,32.852 36.57,35.917 35.16,32.723 31.727,32.073 
	34.331,29.741 33.884,26.275 36.906,28.031 40.064,26.537 "/>
<polygon style="fill:&fill_color;;fill-rule:evenodd;stroke:&stroke_color;;stroke-width:1.0;stroke-linejoin:round;"
	id="polygon249_1_" points="38.831,15.907 43.337,15.506 40.915,19.326 42.689,23.486 38.307,22.365 34.896,25.338 
	34.611,20.825 30.73,18.5 34.936,16.832 35.943,12.423 "/>
</svg>
