<?xml version="1.0" ?><!-- Created with Inkscape (http://www.inkscape.org/) --><!DOCTYPE svg  PUBLIC '-//W3C//DTD SVG 1.1//EN'  'http://www.w3.org/Graphics/SVG/1.1/DTD/svg11.dtd' [
	<!ENTITY stroke_color "#000000">
	<!ENTITY fill_color "#666666">
]><svg height="55" id="svg2" version="1.1" width="55" xmlns="http://www.w3.org/2000/svg" xmlns:svg="http://www.w3.org/2000/svg">
  <defs id="defs4"/>
  <g id="layer1" transform="translate(0,-997.36218)">
    <g id="stock-xo_1_" style="display:block" transform="translate(0.030326,996.5725)">
	
	<g id="g3609" transform="matrix(0.43022115,-0.07954038,0.11839734,0.45109771,-3.4836121,31.164323)">
  <path d="m 33.233,35.1 10.102,10.1 c 0.752,0.75 1.217,1.783 1.217,2.932 0,2.287 -1.855,4.143 -4.146,4.143 -1.145,0 -2.178,-0.463 -2.932,-1.211 l -10.102,-10.103 -10.1,10.1 c -0.75,0.75 -1.787,1.211 -2.934,1.211 -2.284,0 -4.143,-1.854 -4.143,-4.141 0,-1.146 0.465,-2.184 1.212,-2.934 L 21.511,35.095 11.409,24.995 c -0.747,-0.748 -1.212,-1.785 -1.212,-2.93 0,-2.289 1.854,-4.146 4.146,-4.146 1.143,0 2.18,0.465 2.93,1.214 L 27.372,29.235 37.474,19.132 c 0.754,-0.749 1.787,-1.214 2.934,-1.214 2.289,0 4.146,1.856 4.146,4.145 0,1.146 -0.467,2.18 -1.217,2.932 L 33.233,35.1 z" id="path2821" style="fill:&stroke_color;;fill-opacity:1;stroke:none"/>
  <circle cx="27.371" cy="10.849" id="circle2823" r="8.1219997" style="fill:&stroke_color;;fill-opacity:1;stroke:none"/>
</g>

<g id="g3774" style="stroke-width:3.5;stroke-miterlimit:4;stroke-dasharray:none" transform="matrix(0.96592583,0.25881905,-0.25881905,0.96592583,6.2475841,-7.3005904)">
  <g id="g3783" style="stroke-width:3.5;stroke-miterlimit:4;stroke-dasharray:none">
    <g id="g3792" style="stroke-width:5.54217672;stroke-miterlimit:4;stroke-dasharray:none" transform="matrix(0.44655267,0.44655267,-0.44655267,0.44655267,35.977223,-6.913374)">
      <path d="m 55,25 a 15,5 0 1 1 -30,0 15,5 0 1 1 30,0 z" id="path3632" style="fill:&fill_color;;fill-opacity:1;stroke:&stroke_color;;stroke-width:4.15663242;stroke-miterlimit:4;stroke-opacity:1;stroke-dasharray:none" transform="matrix(1.3333333,0,0,1.3333333,-24.363659,-17.21032)"/>
      <path d="M 55,25 A 15,5 0 0 1 25.004518,25.122706" id="path3632-3" style="fill:none;stroke:&stroke_color;;stroke-width:9.01027393;stroke-miterlimit:4;stroke-opacity:1;stroke-dasharray:none;display:block" transform="matrix(0.61509523,0,0,0.61509523,4.2547464,43.247537)"/>
      <path d="M 55,25 A 15,5 0 0 1 25.004518,25.122706" id="path3632-3-4" style="fill:none;stroke:&stroke_color;;stroke-width:4.15647602;stroke-miterlimit:4;stroke-opacity:1;stroke-dasharray:none;display:block" transform="matrix(1.3333835,0,0,1.3333835,-24.36642,-8.2118259)"/>
      <path d="m 8.969674,25.576142 0,-9.373831" id="path3700" style="fill:none;stroke:&stroke_color;;stroke-width:5.54217672;stroke-linecap:round;stroke-linejoin:miter;stroke-miterlimit:4;stroke-opacity:1;stroke-dasharray:none"/>
      <path d="m 48.969674,25.347738 0,-9.37383" id="path3700-2" style="fill:none;stroke:&stroke_color;;stroke-width:5.54217672;stroke-linecap:round;stroke-linejoin:miter;stroke-miterlimit:4;stroke-opacity:1;stroke-dasharray:none;display:block"/>
      <path d="m 19.690985,58.947516 -6.362941,-29.656823 0,0" id="path3750" style="fill:none;stroke:&stroke_color;;stroke-width:5.54217672;stroke-linecap:butt;stroke-linejoin:miter;stroke-miterlimit:4;stroke-opacity:1;stroke-dasharray:none"/>
      <path d="m 37.969674,59.201029 6.362941,-29.656823 0,0" id="path3750-1" style="fill:none;stroke:&stroke_color;;stroke-width:5.54217672;stroke-linecap:butt;stroke-linejoin:miter;stroke-miterlimit:4;stroke-opacity:1;stroke-dasharray:none;display:block"/>
      <path d="m 21.605021,31.36355 c -0.423328,-0.429023 -1.020422,-1.161016 -1.326875,-1.626651 -0.986614,-1.499094 -1.855021,-3.4996 -1.911644,-4.403761 l -0.02284,-0.364666 5.799803,-5.24598 5.799804,-5.245981 0.413328,1.133856 c 1.395136,3.827176 3.8704,8.103263 6.36744,10.999927 0.317492,0.368304 0.566863,0.680196 0.554159,0.693093 -0.01271,0.0129 -2.952281,0.968033 -6.532389,2.122522 -3.580109,1.15449 -6.928196,2.238261 -7.440195,2.408378 l -0.930907,0.309305 -0.769687,-0.780042 0,0 z" id="path3990" style="fill:&fill_color;;fill-opacity:1;stroke:&stroke_color;;stroke-width:0.3125;stroke-linecap:round;stroke-miterlimit:4;stroke-opacity:1;stroke-dasharray:none" transform="matrix(0.7917395,-1.371333,1.371333,0.7917395,-26.418479,63.038611)"/>
      <path d="m 42.989103,27.373802 c -1.780516,-0.928069 -4.268276,-3.67546 -6.269876,-6.924222 -2.411346,-3.913817 -3.955919,-8.020343 -3.955919,-10.517527 0,-0.9337334 0.0413,-1.0058381 0.826128,-1.4423305 0.572827,-0.3185843 0.554891,-0.3307209 0.645203,0.4365887 0.236342,2.0079978 1.641111,5.7673918 3.246052,8.6869748 2.220156,4.038733 4.469963,6.870558 7.367296,9.273193 0.06272,0.05201 -1.080517,0.795244 -1.223234,0.795244 -0.02469,0 -0.310736,-0.138565 -0.63565,-0.307921 z" id="path3992" style="fill:&fill_color;;fill-opacity:1;stroke:&stroke_color;;stroke-width:0.3125;stroke-linecap:round;stroke-miterlimit:4;stroke-opacity:1;stroke-dasharray:none" transform="matrix(0.7917395,-1.371333,1.371333,0.7917395,-26.418479,63.038611)"/>
    </g>
  </g>
</g>
</g>
  </g>
</svg>