<?xml version="1.0" encoding="UTF-8" standalone="no"?>
<!DOCTYPE svg PUBLIC "-//W3C//DTD SVG 1.1//EN" "http://www.w3.org/Graphics/SVG/1.1/DTD/svg11.dtd" [
<!ENTITY stroke_color "#FFFFFF">
<!ENTITY fill_color "#666666">
]>
<!-- Created with Inkscape (http://www.inkscape.org/) -->

<svg
   xmlns:dc="http://purl.org/dc/elements/1.1/"
   xmlns:cc="http://creativecommons.org/ns#"
   xmlns:rdf="http://www.w3.org/1999/02/22-rdf-syntax-ns#"
   xmlns:svg="http://www.w3.org/2000/svg"
   xmlns="http://www.w3.org/2000/svg"
   xmlns:sodipodi="http://sodipodi.sourceforge.net/DTD/sodipodi-0.dtd"
   xmlns:inkscape="http://www.inkscape.org/namespaces/inkscape"
   id="svg2"
   version="1.1"
   inkscape:version="0.48.0 r9654"
   width="67"
   height="55"
   sodipodi:docname="screencast-icon.svg">
  <metadata
     id="metadata8">
    <rdf:RDF>
      <cc:Work
         rdf:about="">
        <dc:format>image/svg+xml</dc:format>
        <dc:type
           rdf:resource="http://purl.org/dc/dcmitype/StillImage" />
        <dc:title />
      </cc:Work>
    </rdf:RDF>
  </metadata>
  <defs
     id="defs6" />
  <sodipodi:namedview
     pagecolor="#ffffff"
     bordercolor="#666666"
     borderopacity="1"
     objecttolerance="10"
     gridtolerance="10"
     guidetolerance="10"
     inkscape:pageopacity="0"
     inkscape:pageshadow="2"
     inkscape:window-width="1024"
     inkscape:window-height="575"
     id="namedview4"
     showgrid="false"
     inkscape:zoom="2.8454546"
     inkscape:cx="-11.144058"
     inkscape:cy="39.866968"
     inkscape:window-x="0"
     inkscape:window-y="0"
     inkscape:window-maximized="1"
     inkscape:current-layer="svg2" />
  <path
     inkscape:connector-curvature="0"
     id="path2994"
     d="m 17.201706,52.56196 c -6.411192,-1.062413 -7.9429284,-2.170074 -6.411759,-4.636608 0.990308,-1.59527 5.095772,-3.246317 11.525471,-4.635065 2.651519,-0.5727 4.352999,-2.981193 3.304528,-4.677653 -0.309243,-0.500367 -4.949695,-0.909758 -10.312114,-0.909758 -13.9737644,0 -13.3862404,0.902255 -12.0467024,-18.5 0.607555,-8.8 1.260005,-16.1606228 1.449888,-16.3569378 0.189883,-0.196315 13.3096204,0.02869 29.1549714,0.5 l 28.80973,0.856937 -0.243132,14.0000008 c -0.133722,7.7 -0.615113,15.35 -1.069757,17 l -0.826625,3 -9.74644,0.28701 c -8.321471,0.245049 -9.70021,0.521786 -9.430243,1.892817 0.394819,2.005088 2.304948,3.052402 6.892464,3.779103 8.516589,1.349099 8.989778,6.043057 0.827694,8.210593 -5.178589,1.375235 -24.045915,1.487428 -31.877974,0.189561 z"
     style="fill:&fill_color;" />
  <path
     inkscape:connector-curvature="0"
     id="path2986"
     d="m 27.202874,51.121599 c -1.1,-0.169903 -4.613139,-0.594204 -7.806975,-0.942893 -7.260889,-0.792712 -7.091497,-2.580183 0.381373,-4.024361 4.439888,-0.858035 5.788959,-1.623169 7.425602,-4.211479 2.652915,-4.195518 4.127078,-4.044492 4.978195,0.51001 0.385427,2.0625 1.165609,4.3125 1.733736,5 1.416685,1.714354 5.275755,1.572227 6.788069,-0.25 0.684689,-0.825 2.735494,-1.5 4.557345,-1.5 4.237105,0 9.061287,1.799591 7.855494,2.930378 -2.36492,2.217813 -17.965367,3.715884 -25.912839,2.488345 z m 12,-15.458376 c -6.6,-0.379043 -16.810942,-0.750184 -22.690983,-0.824758 -5.880039,-0.07457 -10.8663895,-0.473089 -11.0807769,-0.885589 -0.671821,-1.292642 0.4328152,-10.25 1.264047,-10.25 0.434994,0 1.0651428,1.092677 1.4003305,2.428172 0.5246508,2.090375 1.3892723,2.525606 6.2151314,3.128557 14.767446,1.845071 32.214905,-1.223139 38.032095,-6.688106 C 56.534891,18.633157 54.781107,13.280323 48.202874,9.9360252 44.04456,7.8219854 31.202686,6.5867492 20.494216,7.27078 L 9.7855599,7.9548229 8.3231649,12.07885 6.8607701,16.202876 6.7818228,10.511893 C 6.7384017,7.3818517 7.0418234,4.611428 7.4560931,4.3553952 7.8703629,4.0993625 15.407861,4.5053682 24.206092,5.2576303 c 8.79823,0.752262 20.209363,1.3851858 25.358073,1.4064971 l 9.361291,0.038748 -0.850532,3.7500006 c -0.467792,2.0625 -0.855373,8.25 -0.861291,13.75 -0.01175,10.923177 -0.527746,12.588066 -3.819776,12.324758 -1.205041,-0.09638 -7.590983,-0.485369 -14.190983,-0.864411 z"
     style="fill:&stroke_color;" />
</svg>
