<?xml version="1.0" encoding="UTF-8" standalone="no"?>
<!-- Generator: Adobe Illustrator 12.0.1, SVG Export Plug-In . SVG Version: 6.00 Build 51448)  -->

<svg
   xmlns:dc="http://purl.org/dc/elements/1.1/"
   xmlns:cc="http://creativecommons.org/ns#"
   xmlns:rdf="http://www.w3.org/1999/02/22-rdf-syntax-ns#"
   xmlns:svg="http://www.w3.org/2000/svg"
   xmlns="http://www.w3.org/2000/svg"
   xmlns:sodipodi="http://sodipodi.sourceforge.net/DTD/sodipodi-0.dtd"
   xmlns:inkscape="http://www.inkscape.org/namespaces/inkscape"
   enable-background="new 0 0 50.878 48.833"
   height="48.833"
   id="Icon"
   inkscape:version="0.48.1 r9760"
   overflow="visible"
   sodipodi:docname="CucaraSims.svg"
   version="1.1"
   viewBox="0 0 50.878 48.833"
   width="50.878"
   xml:space="preserve"><metadata
   id="metadata17"><rdf:RDF><cc:Work
       rdf:about=""><dc:format>image/svg+xml</dc:format><dc:type
         rdf:resource="http://purl.org/dc/dcmitype/StillImage" /><dc:title></dc:title></cc:Work></rdf:RDF></metadata><defs
   id="defs15"><inkscape:perspective
     id="perspective19"
     inkscape:persp3d-origin="25.438999 : 16.277667 : 1"
     inkscape:vp_x="0 : 24.4165 : 1"
     inkscape:vp_y="0 : 1000 : 0"
     inkscape:vp_z="50.877998 : 24.4165 : 1"
     sodipodi:type="inkscape:persp3d" /><inkscape:perspective
     id="perspective2841"
     inkscape:persp3d-origin="0.5 : 0.33333333 : 1"
     inkscape:vp_x="0 : 0.5 : 1"
     inkscape:vp_y="0 : 1000 : 0"
     inkscape:vp_z="1 : 0.5 : 1"
     sodipodi:type="inkscape:persp3d" /><inkscape:perspective
     id="perspective2993"
     inkscape:persp3d-origin="0.5 : 0.33333333 : 1"
     inkscape:vp_x="0 : 0.5 : 1"
     inkscape:vp_y="0 : 1000 : 0"
     inkscape:vp_z="1 : 0.5 : 1"
     sodipodi:type="inkscape:persp3d" /></defs><sodipodi:namedview
   bordercolor="#666666"
   borderopacity="1"
   gridtolerance="10"
   guidetolerance="10"
   id="namedview13"
   inkscape:current-layer="Icon"
   inkscape:cx="-27.381568"
   inkscape:cy="35.606862"
   inkscape:pageopacity="0"
   inkscape:pageshadow="2"
   inkscape:window-height="715"
   inkscape:window-maximized="1"
   inkscape:window-width="1360"
   inkscape:window-x="0"
   inkscape:window-y="26"
   inkscape:zoom="4.8327975"
   objecttolerance="10"
   pagecolor="#ffffff"
   showgrid="false" />








<path
   style="fill:#00ff00;stroke:#00ff00;stroke-width:0.36950952px;stroke-linecap:butt;stroke-linejoin:miter;stroke-opacity:1"
   d="m 20.963158,13.036847 c 2.187514,0.03015 4.406478,0.228867 6.77819,0.646642 7.370979,1.673368 15.185061,4.612798 18.879627,9.768908 0,0 2.055877,5.62634 -1.120075,6.397133 -1.891024,-0.777156 -2.055397,-4.353284 -2.055397,-4.353284 0,0 1.105107,4.309531 2.713585,2.89834 0.835909,-0.299059 0.519623,-1.905283 0.519623,-1.905283 -0.01596,-0.185612 -0.03374,-0.370367 -0.05774,-0.542717 l -0.866038,0.935321 -1.120075,-0.796755 -0.461887,-1.385661 0.265585,-0.854491 -0.588906,-0.727471 -0.796755,0.392603 -0.658189,1.59351 -0.461887,-0.404151 -2.240152,-1.443396 -1.91683,-0.138566 -3.036907,-0.06928 -3.314038,-0.127019 1.397208,2.240151 2.771321,2.505736 1.651246,0.20785 2.043849,-1.189359 -0.981509,1.050792 -1.327925,0.993058 -2.297888,0.923773 0.05774,0.06928 -2.967623,1.120076 -4.953737,0.05774 -3.452605,-0.265585 0.484982,1.454944 -0.196302,0.993057 -2.04385,0.265585 -0.993056,-0.392604 -2.170869,-0.06928 -1.581963,0.196302 -1.720528,0.588905 -1.974567,0.207849 1.51268,-0.923773 2.309434,-0.727472 4.549586,0.05774 1.524227,0.207849 -0.404151,-0.727472 -0.404151,-1.235547 -3.290944,-0.415699 -5.47336,-1.316377 -4.9421887,-1.789812 -0.866038,-1.120076 3.8336597,1.385661 2.967624,0.993056 4.087699,0.531171 3.152378,0.138566 -0.115472,-0.346416 -0.277132,-1.466491 -2.297887,-0.381056 -3.360228,-1.177812 -5.7389427,-2.309434 -4.826718,-2.713586 -1.120076,-1.581962 0.53117,-0.727472 2.240152,-0.05774 1.454943,0.323321 4.2839997,0.796755 5.877511,1.38566 2.690491,0.36951 0.01153,-0.311774 1.120076,-2.829057 1.789811,-1.524227 1.581963,0.461887 2.771321,2.251699 2.57502,3.025359 0.03462,0.05774 2.794416,0.08083 6.535699,-0.461887 1.581963,0.53117 0.658189,-0.265585 1.847548,-0.415698 C 42.976579,20.447634 38.153234,16.714627 30.050747,14.942142 26.511851,14.131944 22.833269,13.549058 18.76916,13.614217 c 0,0 -4.158634,-0.194654 -10.4270957,1.454944 1.517631,-0.857791 6.0738117,-1.651246 6.0738117,-1.651246 2.206962,-0.274435 4.359732,-0.411205 6.547247,-0.381057 z m 3.152378,5.196228 -1.247095,1.789811 -0.404151,1.224001 0.138566,0.02309 4.676605,0.796755 0.381057,0.01153 -0.704378,-1.662793 -1.847548,-1.986114 -0.993056,-0.196302 z m -15.5655877,0.993057 -2.644302,0.06928 0.127019,0.923773 4.2262647,2.57502 4.884453,2.101585 4.549586,1.524227 1.558868,0.24249 -0.300227,-1.558868 0.103925,-3.498793 -2.147774,-0.196302 -3.96068,-0.727472 L 11.783155,19.9536 8.5499483,19.226129 z m 13.6718507,2.725132 -0.277132,0.842944 0.28868,4.029963 2.413359,0.381057 6.397133,0.138566 0,0.265585 -7.124605,-0.06928 -1.651246,-0.265585 0,0.06928 0.542717,1.639698 1.697435,0.06928 5.946793,-0.127018 2.505737,-0.969963 -0.923774,-0.612 -2.309435,-1.847548 -1.524226,-2.113132 -0.242491,-0.588906 -0.150113,0 -4.087699,-0.404151 -1.501133,-0.438793 z m 20.045892,3.672001 0.392604,2.378717 c 0.561732,1.412565 1.114943,2.88972 1.847548,3.10619 0.879647,1.74795 1.37517,1.747551 1.91683,1.974567 l 1.316378,0.06928 -0.727472,0.785207 -1.316378,-0.323321 -1.524226,-1.38566 -1.708982,-2.378718 -0.265585,0.392604 -1.258642,-0.196302 -0.727472,-0.461887 -2.04385,2.57502 -2.505736,1.38566 -2.309434,0.461887 c 2.278488,-0.523521 3.032923,-1.470382 4.618869,-2.840601 l 1.986113,-3.163926 0.588906,-0.334868 0.923774,1.327926 0.334868,-0.404152 -0.265585,-1.905283 0.727472,-1.06234 z"
   id="path3050"
   inkscape:connector-curvature="0" /></svg>