<?xml version="1.0" ?><!DOCTYPE svg  PUBLIC '-//W3C//DTD SVG 1.1//EN'  'http://www.w3.org/Graphics/SVG/1.1/DTD/svg11.dtd' [
	<!ENTITY stroke_color "#000">
	<!ENTITY fill_color "#eee">
]><svg height="55px" viewBox="0 0 55 55" width="55px" xmlns="http://www.w3.org/2000/svg" xmlns:xlink="http://www.w3.org/1999/xlink" stroke-linecap="round" stroke-linejoin="round" stroke-width="3.5" stroke="&stroke_color;" fill="&fill_color;">
  <g
     transform="translate(-164.9317,-522.38248)"
     id="layer1">
    <path
       d="m 172.31971,536.76347 c -0.72411,-2.08754 -3.85535,-2.66829 -4.57016,-4.75911 -0.54398,-1.59114 0.41111,-4.84994 1.17519,-6.34548 0.87849,-1.71948 3.58403,-1.89878 5.48419,-2.11515 2.90308,-0.33058 4.65817,4.0255 5.87592,3.83372 1.55514,-0.1023 2.2545,-2.48793 3.7867,-2.77614 2.1694,-0.40808 4.92014,0.0599 6.39823,1.71856 1.68249,1.88803 1.99295,5.13094 1.17518,7.53525 -0.58154,1.70978 -3.24117,2.02778 -3.91728,3.70153 -1.51719,3.75593 0.59363,8.10493 0.5223,12.16216 -0.0785,4.46388 -2.44397,9.11811 -1.0446,13.35194 0.64576,1.9538 3.46637,2.65253 4.04785,4.62691 0.51535,1.74982 0.13809,3.85051 -0.78345,5.4201 -0.77839,1.32577 -2.19739,2.33161 -3.65613,2.77614 -1.41951,0.43258 -3.07626,0.32499 -4.43959,-0.26439 -1.52949,-0.66121 -2.02542,-3.10643 -3.65612,-3.43714 -1.72831,-0.35049 -2.54848,1.76353 -4.30901,1.85077 -2.0667,0.1024 -5.18389,-0.11769 -6.65938,-1.58637 -1.38558,-1.37919 -1.76507,-3.72751 -1.56691,-5.68449 0.15485,-1.52924 1.08998,-2.94065 2.08922,-4.09812 0.69927,-0.81 2.11477,-0.89977 2.61152,-1.85076 1.58723,-3.03868 -0.0538,-6.87906 0.13057,-10.3114 0.24699,-4.59719 -0.0601,-8.61145 1.30576,-13.74853 z"
       id="path3060"
       style="fill:&fill_color;;fill-opacity:1;stroke:&stroke_color;;stroke-width:2.4120214;stroke-linecap:butt;stroke-linejoin:miter;stroke-miterlimit:4;stroke-opacity:1;stroke-dasharray:none" />
    <text
       x="174.17461"
       y="554.1217"
       transform="scale(0.99384853,1.0061895)"
       id="text3062"
       xml:space="preserve"
       style="font-size:21.02147293px;font-style:normal;font-weight:normal;line-height:125%;letter-spacing:0px;word-spacing:0px;fill:&stroke_color;;fill-opacity:1;stroke:none;font-family:Sans"><tspan
         x="174.17461"
         y="554.1217"
         id="tspan3064">1</tspan></text>
    <path
       d="m 198.96079,536.76347 c -0.72412,-2.08754 -3.85535,-2.66829 -4.57016,-4.75911 -0.54398,-1.59114 0.41111,-4.84994 1.17518,-6.34548 0.8785,-1.71948 3.58403,-1.89878 5.4842,-2.11515 2.90308,-0.33058 4.65816,4.0255 5.87592,3.83372 1.55514,-0.1023 2.25449,-2.48793 3.7867,-2.77614 2.16939,-0.40808 4.92014,0.0599 6.39822,1.71856 1.6825,1.88803 1.99296,5.13094 1.17519,7.53525 -0.58155,1.70978 -3.24118,2.02778 -3.91728,3.70153 -1.5172,3.75593 0.59363,8.10493 0.5223,12.16216 -0.0785,4.46388 -2.44397,9.11811 -1.04461,13.35194 0.64577,1.9538 3.46637,2.65253 4.04786,4.62691 0.51535,1.74982 0.13809,3.85051 -0.78346,5.4201 -0.77839,1.32577 -2.19739,2.33161 -3.65612,2.77614 -1.41951,0.43258 -3.07626,0.32499 -4.43959,-0.26439 -1.5295,-0.66121 -2.02542,-3.10643 -3.65613,-3.43714 -1.72831,-0.35049 -2.54847,1.76353 -4.309,1.85077 -2.0667,0.1024 -5.1839,-0.11769 -6.65938,-1.58637 -1.38558,-1.37919 -1.76507,-3.72751 -1.56691,-5.68449 0.15485,-1.52924 1.08998,-2.94065 2.08921,-4.09812 0.69927,-0.81 2.11478,-0.89977 2.61152,-1.85076 1.58724,-3.03868 -0.0538,-6.87906 0.13058,-10.3114 0.24699,-4.59719 -0.0601,-8.61145 1.30576,-13.74853 z"
       id="path3060-2"
       style="fill:&fill_color;;fill-opacity:1;stroke:&stroke_color;;stroke-width:2.4120214;stroke-linecap:butt;stroke-linejoin:miter;stroke-miterlimit:4;stroke-opacity:1;stroke-dasharray:none" />
    <text
       x="200.98058"
       y="554.26031"
       transform="scale(0.99384853,1.0061895)"
       id="text3062-9"
       xml:space="preserve"
       style="font-size:21.02147293px;font-style:normal;font-weight:normal;line-height:125%;letter-spacing:0px;word-spacing:0px;fill:&stroke_color;;fill-opacity:1;stroke:none;font-family:Sans"><tspan
         x="200.98058"
         y="554.26031"
         id="tspan3064-9">2</tspan></text>
  </g>
</svg>
