<?xml version="1.0" encoding="UTF-8" standalone="no"?>
 <!DOCTYPE svg PUBLIC "-//W3C//DTD SVG 1.1//EN" "http://www.w3.org/Graphics/SVG/1.1/DTD/svg11.dtd" [
     <!ENTITY stroke_color "#666666">
     <!ENTITY fill_color "#FFFFFF">
 ]>

<svg
   xmlns:dc="http://purl.org/dc/elements/1.1/"
   xmlns:cc="http://creativecommons.org/ns#"
   xmlns:rdf="http://www.w3.org/1999/02/22-rdf-syntax-ns#"
   xmlns:svg="http://www.w3.org/2000/svg"
   xmlns="http://www.w3.org/2000/svg"
   xmlns:sodipodi="http://sodipodi.sourceforge.net/DTD/sodipodi-0.dtd"
   xmlns:inkscape="http://www.inkscape.org/namespaces/inkscape"
   width="50"
   height="50"
   id="svg3049"
   version="1.1"
   inkscape:version="0.48.0 r9654"
   sodipodi:docname="activity-imageprocessor.svg">
  <metadata
     id="metadata3073">
    <rdf:RDF>
      <cc:Work
         rdf:about="">
        <dc:format>image/svg+xml</dc:format>
        <dc:type
           rdf:resource="http://purl.org/dc/dcmitype/StillImage" />
      </cc:Work>
    </rdf:RDF>
  </metadata>
  <defs
     id="defs3071" />
  <sodipodi:namedview
     pagecolor="&fill_color;"
     bordercolor="#666666"
     borderopacity="1"
     objecttolerance="10"
     gridtolerance="10"
     guidetolerance="10"
     inkscape:pageopacity="0"
     inkscape:pageshadow="2"
     inkscape:window-width="1366"
     inkscape:window-height="701"
     id="namedview3069"
     showgrid="false"
     inkscape:zoom="6"
     inkscape:cx="4.7372372"
     inkscape:cy="14.40738"
     inkscape:window-x="0"
     inkscape:window-y="0"
     inkscape:window-maximized="1"
     inkscape:current-layer="svg3049" />
  <rect
     x="3"
     y="7"
     width="44"
     height="36"
     style="fill:&fill_color;;stroke:&stroke_color;;stroke-width:3"
     id="rect3051" />
  <polyline
     points="15,7 25,1 35,7"
     style="fill:none;;stroke:&stroke_color;;stroke-width:1.25"
     id="polyline3053" />
  <circle
     cx="14"
     cy="19"
     r="4.5"
     style="fill:&stroke_color;;stroke:&stroke_color;;stroke-width:1.5"
     id="circle3055"
     sodipodi:cx="14"
     sodipodi:cy="19"
     sodipodi:rx="4.5"
     sodipodi:ry="4.5"
     transform="translate(13.166667,13.166667)" />
  <polyline
     points="3,36 16,32 26,35"
     style="fill:none;;stroke:&stroke_color;;stroke-width:2.5"
     id="polyline3057" />
  <polyline
     points="15,43 37,28 47,34 47,43"
     style="fill:&stroke_color;;stroke:&stroke_color;;stroke-width:3"
     id="polyline3059" />
  <polyline
     points="22,41.5 35,30 27,41.5"
     style="fill:&fill_color;;stroke:none;;stroke-width:0"
     id="polyline3061" />
  <path
     sodipodi:type="star"
     style="fill:&stroke_color;"
     id="path3111"
     sodipodi:sides="5"
     sodipodi:cx="21.5"
     sodipodi:cy="11.166667"
     sodipodi:r1="1.771691"
     sodipodi:r2="0.88584542"
     sodipodi:arg1="0.71883"
     sodipodi:arg2="1.3471485"
     inkscape:flatsided="false"
     inkscape:rounded="0"
     inkscape:randomized="0"
     d="m 22.833333,12.333334 -1.136863,-0.302884 -0.894013,0.764812 -0.06325,-1.174817 -1.003645,-0.613918 1.097772,-0.423193 0.273727,-1.1442338 0.741712,0.9132688 1.172817,-0.09326 -0.63937,0.987626 z"
     inkscape:transform-center-x="0.1214251"
     inkscape:transform-center-y="-0.049485824"
     transform="translate(-0.66666667,0.66666667)" />
  <path
     sodipodi:type="star"
     style="fill:&stroke_color;"
     id="path3113"
     sodipodi:sides="5"
     sodipodi:cx="26.833332"
     sodipodi:cy="12.666667"
     sodipodi:r1="1.6996732"
     sodipodi:r2="0.84983653"
     sodipodi:arg1="1.3734008"
     sodipodi:arg2="2.0017193"
     inkscape:flatsided="false"
     inkscape:rounded="0"
     inkscape:randomized="0"
     d="m 27.166665,14.333334 -0.688318,-0.894522 -1.127103,0.0599 0.638038,-0.931052 -0.405264,-1.053428 1.082647,0.3191 0.876637,-0.710957 0.03107,1.128266 0.947056,0.614034 -1.063443,0.378207 z"
     inkscape:transform-center-x="-0.10300566"
     inkscape:transform-center-y="0.061188296"
     transform="translate(1.6666667,-0.66666667)" />
  <path
     sodipodi:type="star"
     style="fill:&stroke_color;"
     id="path3115"
     sodipodi:sides="5"
     sodipodi:cx="22.333332"
     sodipodi:cy="16"
     sodipodi:r1="1.9002924"
     sodipodi:r2="0.95014614"
     sodipodi:arg1="0.90975316"
     sodipodi:arg2="1.5380717"
     inkscape:flatsided="false"
     inkscape:rounded="0"
     inkscape:randomized="0"
     d="M 23.499999,17.5 22.36442,16.949637 21.267267,17.573091 21.43978,16.32302 20.507801,15.472224 21.749999,15.25 l 0.521158,-1.149275 0.595208,1.112729 1.254072,0.140506 -0.874339,0.909928 z"
     inkscape:transform-center-x="0.019213219"
     inkscape:transform-center-y="-0.16309176"
     transform="translate(0,0.66666667)" />
  <path
     sodipodi:type="star"
     style="fill:&stroke_color;"
     id="path3117"
     sodipodi:sides="5"
     sodipodi:cx="36"
     sodipodi:cy="14.166667"
     sodipodi:r1="1.771691"
     sodipodi:r2="0.88584542"
     sodipodi:arg1="0.71883"
     sodipodi:arg2="1.3471485"
     inkscape:flatsided="false"
     inkscape:rounded="0"
     inkscape:randomized="0"
     d="m 37.333333,15.333334 -1.136863,-0.302884 -0.894013,0.764812 -0.06325,-1.174817 -1.003645,-0.613918 1.097772,-0.423193 0.273727,-1.144234 0.741712,0.913269 1.172817,-0.09326 -0.63937,0.987626 z"
     inkscape:transform-center-x="0.1214251"
     inkscape:transform-center-y="-0.049485824"
     transform="translate(0.66666667,-1.3333333)" />
  <path
     sodipodi:type="star"
     style="fill:&stroke_color;"
     id="path3119"
     sodipodi:sides="5"
     sodipodi:cx="31.833332"
     sodipodi:cy="18.166668"
     sodipodi:r1="1.5"
     sodipodi:r2="0.74999994"
     sodipodi:arg1="1.5707963"
     sodipodi:arg2="2.1991149"
     inkscape:flatsided="false"
     inkscape:rounded="0"
     inkscape:randomized="0"
     d="m 31.833332,19.666668 -0.440839,-0.893237 -0.985746,-0.143238 0.713293,-0.695288 -0.168386,-0.981763 0.881678,0.463526 0.881678,-0.463526 -0.168386,0.981763 0.713293,0.695288 -0.985746,0.143238 z"
     inkscape:transform-center-y="0.14323725"
     transform="translate(-0.16666667,-2.1666667)" />
  <path
     sodipodi:type="star"
     style="fill:&stroke_color;"
     id="path3121"
     sodipodi:sides="5"
     sodipodi:cx="25.833332"
     sodipodi:cy="20.166668"
     sodipodi:r1="1.6666667"
     sodipodi:r2="0.83333325"
     sodipodi:arg1="1.5707963"
     sodipodi:arg2="2.1991149"
     inkscape:flatsided="false"
     inkscape:rounded="0"
     inkscape:randomized="0"
     d="m 25.833332,21.833335 -0.489821,-0.992486 -1.095273,-0.159153 0.792547,-0.772542 -0.187095,-1.090848 0.979642,0.515029 0.979642,-0.515029 -0.187095,1.090848 0.792547,0.772542 -1.095273,0.159153 z"
     inkscape:transform-center-y="0.1591525"
     transform="translate(2,0.83333333)" />
  <path
     sodipodi:type="star"
     style="fill:&stroke_color;"
     id="path3123"
     sodipodi:sides="5"
     sodipodi:cx="38.833332"
     sodipodi:cy="18"
     sodipodi:r1="2"
     sodipodi:r2="0.99999988"
     sodipodi:arg1="1.5707963"
     sodipodi:arg2="2.1991149"
     inkscape:flatsided="false"
     inkscape:rounded="0"
     inkscape:randomized="0"
     d="M 38.833332,20 38.245547,18.809017 36.931219,18.618034 37.882276,17.690983 37.657762,16.381966 38.833332,17 l 1.175571,-0.618034 -0.224515,1.309017 0.951057,0.927051 -1.314328,0.190983 z"
     inkscape:transform-center-y="0.19098301"
     transform="translate(-18.5,5.6666666)" />
  <path
     sodipodi:type="star"
     style="fill:&stroke_color;"
     id="path3127"
     sodipodi:sides="5"
     sodipodi:cx="40.5"
     sodipodi:cy="12.166667"
     sodipodi:r1="1.6996732"
     sodipodi:r2="0.84983653"
     sodipodi:arg1="0.19739556"
     sodipodi:arg2="0.82571409"
     inkscape:flatsided="false"
     inkscape:rounded="0"
     inkscape:randomized="0"
     d="m 42.166667,12.5 -1.09045,0.291324 -0.378208,1.063443 L 40.083976,12.907711 38.95571,12.876637 39.666667,12 l -0.3191,-1.082647 1.053428,0.405264 0.931052,-0.638039 -0.0599,1.127104 z"
     inkscape:transform-center-x="-0.061188296"
     inkscape:transform-center-y="0.10300566"
     transform="translate(1.6666666,11.5)" />
  <path
     sodipodi:type="star"
     style="fill:&stroke_color;"
     id="path3111-6"
     sodipodi:sides="5"
     sodipodi:cx="21.5"
     sodipodi:cy="11.166667"
     sodipodi:r1="1.771691"
     sodipodi:r2="0.88584542"
     sodipodi:arg1="0.71883"
     sodipodi:arg2="1.3471485"
     inkscape:flatsided="false"
     inkscape:rounded="0"
     inkscape:randomized="0"
     d="m 22.833333,12.333334 -1.136863,-0.302884 -0.894013,0.764812 -0.06325,-1.174817 -1.003645,-0.613918 1.097772,-0.423193 0.273727,-1.1442338 0.741712,0.9132688 1.172817,-0.09326 -0.63937,0.987626 z"
     inkscape:transform-center-x="0.1214251"
     inkscape:transform-center-y="-0.049485824"
     transform="translate(-9.3785749,5.3828188)" />
  <path
     sodipodi:type="star"
     style="fill:&stroke_color;"
     id="path3111-4"
     sodipodi:sides="5"
     sodipodi:cx="21.5"
     sodipodi:cy="11.166667"
     sodipodi:r1="1.771691"
     sodipodi:r2="0.88584542"
     sodipodi:arg1="0.71883"
     sodipodi:arg2="1.3471485"
     inkscape:flatsided="false"
     inkscape:rounded="0"
     inkscape:randomized="0"
     d="m 22.833333,12.333334 -1.136863,-0.302884 -0.894013,0.764812 -0.06325,-1.174817 -1.003645,-0.613918 1.097772,-0.423193 0.273727,-1.1442338 0.741712,0.9132688 1.172817,-0.09326 -0.63937,0.987626 z"
     inkscape:transform-center-x="0.1214251"
     inkscape:transform-center-y="-0.049485824"
     transform="translate(-12.878575,0.04948551)" />
  <path
     sodipodi:type="star"
     style="fill:&stroke_color;"
     id="path3111-1"
     sodipodi:sides="5"
     sodipodi:cx="21.5"
     sodipodi:cy="11.166667"
     sodipodi:r1="1.771691"
     sodipodi:r2="0.88584542"
     sodipodi:arg1="0.71883"
     sodipodi:arg2="1.3471485"
     inkscape:flatsided="false"
     inkscape:rounded="0"
     inkscape:randomized="0"
     d="m 22.833333,12.333334 -1.136863,-0.302884 -0.894013,0.764812 -0.06325,-1.174817 -1.003645,-0.613918 1.097772,-0.423193 0.273727,-1.1442338 0.741712,0.9132688 1.172817,-0.09326 -0.63937,0.987626 z"
     inkscape:transform-center-x="0.1214251"
     inkscape:transform-center-y="-0.049485824"
     transform="translate(14.954758,9.7161522)" />
  <g
     transform="matrix(0.16889331,0,0,0.13072195,5.0807054,25.30874)"
     id="g3534">
    <g
       transform="scale(0.92,0.92)"
       id="g3536">
      <path
         style="fill:&fill_color;;stroke:&stroke_color;;stroke-width:3"
         inkscape:connector-curvature="0"
         id="Left"
         d="M 12.99,13.58 C 6.25,14.6 1.54,5.1 11.04,1.5 21.21,1.49 20.24,12.49 12.99,13.58 z M 17,50.37 c -0.21,10.84 -9.79,10.84 -10,0 0,0 0,-24.36 0,-24.36 0.01,-3.75 -0.58,-10.27 5.04,-10.27 4.52,0 14.97,10.11 16.12,14.17 1.08,3.83 -2.27,6.92 -6.16,6.18 -1.59,-0.3 -3.58,-1.51 -5,-2.28 0,0 0,16.56 0,16.56 z" />
      <path
         style="fill:&stroke_color;;stroke:&fill_color;;stroke-width:3"
         inkscape:connector-curvature="0"
         id="Right"
         d="M 47.98,13.8 C 41.36,14.71 35.84,4.88 46.01,1.5 c 10.41,0.26 8.5,11.4 1.97,12.3 z M 30.84,29.99 c 1.14,-4.06 11.61,-14.18 16.12,-14.18 5.28,0 5.02,5.68 5.04,9.31 0,0 0,24.36 0,24.36 -0.08,10.9 -6.33,10.31 -9.15,6.59 C 40.77,53.32 41,48.85 41,45.58 c 0,0 0,-11.69 0,-11.69 -8.15,5.58 -11.2,-0.18 -10.16,-3.9 z" />
    </g>
  </g>
</svg>
