<?xml version="1.0" ?><!DOCTYPE svg  PUBLIC '-//W3C//DTD SVG 1.1//EN'  'http://www.w3.org/Graphics/SVG/1.1/DTD/svg11.dtd' [
	<!ENTITY stroke_color "#00ff03">
	<!ENTITY fill_color "#ff0000">
]><!--Generator: Xara Xtreme (www.xara.com), SVG filter version: 1.0.0.13--><svg fill-rule="evenodd" height="41.25pt" overflow="visible" stroke-linejoin="bevel" stroke-width="0.501" version="1.1" viewBox="0 0 41.25 41.25" width="41.25pt" xmlns="http://www.w3.org/2000/svg" xmlns:xlink="http://www.w3.org/1999/xlink">
 <defs>
  <marker id="DefaultArrow2" markerHeight="1" markerUnits="strokeWidth" markerWidth="1" orient="auto" overflow="visible" viewBox="0 0 1 1">
   <!-- REF_ARROW_STRAIGHT (-2) -->
   <g transform="scale(0.0092592592)">
    <!-- 1/108 -->
    <path d="M -9 54 L -9 -54 L 117 0 z"/>
   </g>
  </marker>
  <marker id="DefaultArrow3" markerHeight="1" markerUnits="strokeWidth" markerWidth="1" orient="auto" overflow="visible" viewBox="0 0 1 1">
   <!-- REF_ARROW_ANGLED -->
   <g transform="scale(0.0092592592)">
    <path d="M -27 54 L -9 0 L -27 -54 L 135 0 z"/>
   </g>
  </marker>
  <marker id="DefaultArrow4" markerHeight="1" markerUnits="strokeWidth" markerWidth="1" orient="auto" overflow="visible" viewBox="0 0 1 1">
   <!-- REF_ARROW_ROUNDED -->
   <g transform="scale(0.0092592592)">
    <path d="M -9,0 L -9,-45 C -9,-51.708 2.808,-56.580 9,-54 L 117,-9 C 120.916,-7.369 126.000,-4.242 126,0 C 126,4.242 120.916,7.369 117,9 L 9,54 C 2.808,56.580 -9,51.708 -9,45 z"/>
   </g>
  </marker>
  <marker id="DefaultArrow5" markerHeight="1" markerUnits="strokeWidth" markerWidth="1" orient="auto" overflow="visible" viewBox="0 0 1 1">
   <!-- REF_ARROW_SPOT -->
   <g transform="scale(0.0092592592)">
    <path d="M -54, 0 C -54,29.807 -29.807,54 0,54 C 29.807,54 54,29.807 54,0 C 54,-29.807 29.807,-54 0,-54 C -29.807,-54 -54,-29.807 -54,0 z"/>
   </g>
  </marker>
  <marker id="DefaultArrow6" markerHeight="1" markerUnits="strokeWidth" markerWidth="1" orient="auto" overflow="visible" viewBox="0 0 1 1">
   <!-- REF_ARROW_DIAMOND -->
   <g transform="scale(0.0092592592)">
    <path d="M -63,0 L 0,63 L 63,0 L 0,-63 z"/>
   </g>
  </marker>
  <marker id="DefaultArrow7" markerHeight="1" markerUnits="strokeWidth" markerWidth="1" orient="auto" overflow="visible" viewBox="0 0 1 1">
   <!-- REF_ARROW_FEATHER -->
   <g transform="scale(0.0092592592)">
    <path d="M 18,-54 L 108,-54 L 63,0 L 108,54 L 18, 54 L -36,0 z"/>
   </g>
  </marker>
  <marker id="DefaultArrow8" markerHeight="1" markerUnits="strokeWidth" markerWidth="1" orient="auto" overflow="visible" viewBox="0 0 1 1">
   <!-- REF_ARROW_FEATHER2 -->
   <g transform="scale(0.0092592592)">
    <path d="M -36,0 L 18,-54 L 54,-54 L 18,-18 L 27,-18 L 63,-54 L 99,-54 L 63,-18 L 72,-18 L 108,-54 L 144,-54 L 90,0 L 144,54 L 108,54 L 72,18 L 63,18 L 99,54 L 63,54 L 27,18 L 18,18 L 54,54 L 18,54 z"/>
   </g>
  </marker>
  <marker id="DefaultArrow9" markerHeight="1" markerUnits="strokeWidth" markerWidth="1" orient="auto" overflow="visible" viewBox="0 0 1 1">
   <!-- REF_ARROW_HOLLOWDIAMOND -->
   <g transform="scale(0.0092592592)">
    <path d="M 0,45 L -45,0 L 0, -45 L 45, 0 z M 0, 63 L-63, 0 L 0, -63 L 63, 0 z"/>
   </g>
  </marker>
  <filter id="StainedFilter">
   <feBlend in="SourceGraphic" in2="BackgroundImage" mode="multiply" result="blend"/>
   <feComposite in="blend" in2="SourceAlpha" operator="in" result="comp"/>
  </filter>
  <filter id="BleachFilter">
   <feBlend in="SourceGraphic" in2="BackgroundImage" mode="screen" result="blend"/>
   <feComposite in="blend" in2="SourceAlpha" operator="in" result="comp"/>
  </filter>
  <filter id="InvertTransparencyBitmapFilter">
   <feComponentTransfer>
    <feFuncR amplitude="1.055" exponent=".416666666" offset="-0.055" type="gamma"/>
    <feFuncG amplitude="1.055" exponent=".416666666" offset="-0.055" type="gamma"/>
    <feFuncB amplitude="1.055" exponent=".416666666" offset="-0.055" type="gamma"/>
   </feComponentTransfer>
   <feComponentTransfer>
    <feFuncR intercept="1" slope="-1" type="linear"/>
    <feFuncG intercept="1" slope="-1" type="linear"/>
    <feFuncB intercept="1" slope="-1" type="linear"/>
    <feFuncA intercept="0" slope="1" type="linear"/>
   </feComponentTransfer>
   <feComponentTransfer>
    <feFuncR amplitude="1" exponent="2.4" offset="0" type="gamma"/>
    <feFuncG amplitude="1" exponent="2.4" offset="0" type="gamma"/>
    <feFuncB amplitude="1" exponent="2.4" offset="0" type="gamma"/>
   </feComponentTransfer>
  </filter>
 </defs>
 <g fill="none" font-family="Times New Roman" font-size="16" id="Document" stroke="black" transform="scale(1 -1)">
  <g id="Spread" transform="translate(0 -41.25)">
   <g id="Layer 1">
    <g id="Group" stroke-miterlimit="79.8403193612775" stroke-width="0.75">
     <path d="M 0.369,40.642 L 0.369,15.437 L 10.615,15.437 L 10.615,25.698 L 5.333,25.698 L 5.333,40.644 L 0.369,40.642 Z" fill="&stroke_color;" marker-end="none" marker-start="none" stroke-linecap="round" stroke-linejoin="round"/>
     <path d="M 25.505,25.639 L 25.505,15.26 L 30.477,15.26 L 30.477,10.109 L 40.587,10.109 L 40.587,25.646 L 25.443,25.646 L 25.505,25.639 Z" fill="&stroke_color;" marker-end="none" marker-start="none" stroke-linecap="round" stroke-linejoin="round"/>
     <path d="M 20.595,0.38 L 0.366,0.38 L 0.366,15.536 L 10.721,15.536 L 10.721,5.597 L 20.476,5.537 L 20.476,0.379 L 20.595,0.38 Z" fill="&fill_color;" marker-end="none" marker-start="none" stroke-linejoin="miter"/>
     <path d="M 25.797,15.615 L 30.65,15.615 L 30.65,9.996 L 40.646,9.996 L 40.646,5.587 L 25.679,5.587 L 25.679,15.697 L 25.797,15.615 Z" fill="&fill_color;" marker-end="none" marker-start="none" stroke-linejoin="miter"/>
     <path d="M 20.536,15.675 L 20.536,30.714 L 35.595,30.714 L 35.595,25.407 L 25.499,25.407 L 25.499,15.591 L 20.536,15.675 Z" fill="&fill_color;" marker-end="none" marker-start="none" stroke-linejoin="miter"/>
     <path d="M 40.587,25.58 L 40.587,40.817 L 30.461,40.817 L 30.461,30.562 L 35.688,30.562 L 35.688,25.291 L 40.704,25.291 L 40.587,25.58 Z" fill="&fill_color;" marker-end="none" marker-start="none" stroke-linejoin="miter"/>
     <path d="M 5.423,40.614 L 10.805,40.614 L 11.035,30.65 L 20.621,30.65 L 20.539,15.585 L 15.676,15.585 L 15.676,25.578 L 5.068,25.578 L 5.068,40.731 L 5.423,40.614 Z" fill="&fill_color;" marker-end="none" marker-start="none" stroke-linejoin="miter"/>
     <path d="M 10.684,25.668 L 15.833,25.668 L 15.827,15.819 L 20.972,15.819 L 20.76,5.274 L 10.471,5.274 L 10.684,25.668 Z" fill="&stroke_color;" marker-end="none" marker-start="none" stroke="#000000" stroke-linejoin="miter"/>
     <path d="M 20.536,15.675 L 25.807,15.675 L 25.807,5.641 L 40.704,5.641 L 40.704,0.433 L 20.578,0.433 L 20.536,15.675 Z" fill="&stroke_color;" marker-end="none" marker-start="none" stroke-linecap="round" stroke-linejoin="round"/>
     <path d="M 10.657,40.642 L 10.657,30.676 L 30.649,30.676 L 30.649,40.817 L 10.54,40.817 L 10.657,40.642 Z" fill="&stroke_color;" marker-end="none" marker-start="none" stroke-linecap="round" stroke-linejoin="round"/>
    </g>
   </g>
  </g>
 </g>
</svg>