<?xml version="1.0" ?><!-- Created with Inkscape (http://www.inkscape.org/) --><!DOCTYPE svg  PUBLIC '-//W3C//DTD SVG 1.1//EN'  'http://www.w3.org/Graphics/SVG/1.1/DTD/svg11.dtd' [
	<!ENTITY stroke_color "#000000">
	<!ENTITY fill_color "#eeeeee">
]><svg height="45" id="svg2" inkscape:version="0.48.3.1 r9886" sodipodi:docname="remember.svg" style="fill:&fill_color;;stroke:&stroke_color;;stroke-width:3.5;stroke-linecap:round;stroke-linejoin:round" version="1.1" viewBox="0 0 45 45" width="45" xmlns="http://www.w3.org/2000/svg" xmlns:cc="http://creativecommons.org/ns#" xmlns:dc="http://purl.org/dc/elements/1.1/" xmlns:inkscape="http://www.inkscape.org/namespaces/inkscape" xmlns:rdf="http://www.w3.org/1999/02/22-rdf-syntax-ns#" xmlns:sodipodi="http://sodipodi.sourceforge.net/DTD/sodipodi-0.dtd" xmlns:svg="http://www.w3.org/2000/svg">
  <sodipodi:namedview bordercolor="#666666" borderopacity="1" gridtolerance="10" guidetolerance="10" id="namedview10" inkscape:current-layer="svg2" inkscape:cx="22.5" inkscape:cy="22.5" inkscape:pageopacity="0" inkscape:pageshadow="2" inkscape:window-height="550" inkscape:window-maximized="1" inkscape:window-width="1024" inkscape:window-x="0" inkscape:window-y="0" inkscape:zoom="5.2444444" objecttolerance="10" pagecolor="#ffffff" showgrid="false"/>
  <metadata id="metadata13">
    <rdf:RDF>
      <cc:Work rdf:about="">
        <dc:format>image/svg+xml</dc:format>
        <dc:type rdf:resource="http://purl.org/dc/dcmitype/StillImage"/>
        <dc:title/>
      </cc:Work>
    </rdf:RDF>
  </metadata>
  <defs id="defs11"/>
  <g id="g2390" style="fill:none" transform="matrix(1.1239407,0,0,1.1239407,0.21186456,0.02118488)"/>
  <path d="m 29.745763,16.588984 a 7.6271186,6.8644066 0 1 1 -15.254237,0 7.6271186,6.8644066 0 1 1 15.254237,0 z" id="path2987" sodipodi:cx="22.118645" sodipodi:cy="16.588984" sodipodi:rx="7.6271186" sodipodi:ry="6.8644066" sodipodi:type="arc" style="fill:#0000ff;stroke:&stroke_color;;stroke-width:1.89999998;stroke-linejoin:round;stroke-miterlimit:4;stroke-dasharray:none" transform="matrix(0.98510675,0,0,1.0945631,-0.12905644,-6.8305698)"/>
  <path d="m 29.745763,16.588984 a 7.6271186,6.8644066 0 1 1 -15.254237,0 7.6271186,6.8644066 0 1 1 15.254237,0 z" id="path2987-5" sodipodi:cx="22.118645" sodipodi:cy="16.588984" sodipodi:rx="7.6271186" sodipodi:ry="6.8644066" sodipodi:type="arc" style="fill:#ffff00;stroke:&stroke_color;;stroke-width:1.89999998;stroke-linecap:round;stroke-linejoin:round;stroke-miterlimit:4;stroke-dasharray:none" transform="matrix(0.98510675,0,0,1.0945631,-11.229903,5.1733106)"/>
  <path d="m 29.745763,16.588984 a 7.6271186,6.8644066 0 1 1 -15.254237,0 7.6271186,6.8644066 0 1 1 15.254237,0 z" id="path2987-5-6" sodipodi:cx="22.118645" sodipodi:cy="16.588984" sodipodi:rx="7.6271186" sodipodi:ry="6.8644066" sodipodi:type="arc" style="fill:#ff0000;stroke:&stroke_color;;stroke-width:1.89999998;stroke-linecap:round;stroke-linejoin:round;stroke-miterlimit:4;stroke-dasharray:none" transform="matrix(0.98510675,0,0,1.0945631,-0.12922619,16.927056)"/>
  <path d="m 29.745763,16.588984 a 7.6271186,6.8644066 0 1 1 -15.254237,0 7.6271186,6.8644066 0 1 1 15.254237,0 z" id="path2987-5-9" sodipodi:cx="22.118645" sodipodi:cy="16.588984" sodipodi:rx="7.6271186" sodipodi:ry="6.8644066" sodipodi:type="arc" style="fill:#00ff00;stroke:&stroke_color;;stroke-width:1.89999998;stroke-linecap:round;stroke-linejoin:round;stroke-miterlimit:4;stroke-dasharray:none" transform="matrix(0.98510675,0,0,1.0945631,10.507383,4.7236666)"/>
</svg>