<?xml version="1.0" encoding="UTF-8" standalone="no"?>
<svg
   xmlns:dc="http://purl.org/dc/elements/1.1/"
   xmlns:cc="http://creativecommons.org/ns#"
   xmlns:rdf="http://www.w3.org/1999/02/22-rdf-syntax-ns#"
   xmlns:svg="http://www.w3.org/2000/svg"
   xmlns="http://www.w3.org/2000/svg"
   xmlns:sodipodi="http://sodipodi.sourceforge.net/DTD/sodipodi-0.dtd"
   xmlns:inkscape="http://www.inkscape.org/namespaces/inkscape"
   width="290"
   id="svg2"
   version="1.1"
   inkscape:version="0.48.1 r9760"
   height="290"
   sodipodi:docname="geogebra.svg">
  <metadata
     id="metadata24">
    <rdf:RDF>
      <cc:Work
         rdf:about="">
        <dc:format>image/svg+xml</dc:format>
        <dc:type
           rdf:resource="http://purl.org/dc/dcmitype/StillImage" />
      </cc:Work>
    </rdf:RDF>
  </metadata>
  <defs
     id="defs22" />
  <sodipodi:namedview
     pagecolor="#ffffff"
     bordercolor="#666666"
     borderopacity="1"
     objecttolerance="10"
     gridtolerance="10"
     guidetolerance="10"
     inkscape:pageopacity="0"
     inkscape:pageshadow="2"
     inkscape:window-width="1278"
     inkscape:window-height="751"
     id="namedview20"
     showgrid="false"
     inkscape:zoom="1.0680733"
     inkscape:cx="145"
     inkscape:cy="44.147821"
     inkscape:window-x="0"
     inkscape:window-y="16"
     inkscape:window-maximized="0"
     inkscape:current-layer="svg2" />
  <rect
     width="290"
     height="290"
     id="rect4"
     x="0"
     y="-0.36218262"
     style="fill:#ffffff" />
  <g
     id="g6"
     style="fill:#9999ff;stroke:#000000;stroke-width:8"
     transform="translate(0,-0.36218)">
    <ellipse
       cx="148"
       cy="147"
       rx="99"
       ry="122"
       transform="matrix(0.5,0.8660254,-0.8660254,0.5,201.30573,-54.67176)"
       id="ellipse8"
       sodipodi:cx="148"
       sodipodi:cy="147"
       sodipodi:rx="99"
       sodipodi:ry="122"
       style="fill:none;stroke:#666666;stroke-width:20"
       d="m 247,147 c 0,67.37874 -44.32381,122 -99,122 C 93.32381,269 49,214.37874 49,147 49,79.621261 93.32381,25 148,25 c 54.67619,0 99,54.621261 99,122 z" />
    <circle
       cx="135"
       cy="46"
       r="22"
       id="circle10"
       sodipodi:cx="135"
       sodipodi:cy="46"
       sodipodi:rx="22"
       sodipodi:ry="22"
       d="m 157,46 c 0,12.150264 -9.84974,22 -22,22 -12.15026,0 -22,-9.849736 -22,-22 0,-12.150264 9.84974,-22 22,-22 12.15026,0 22,9.849736 22,22 z" />
    <circle
       cx="255"
       cy="88"
       r="22"
       id="circle12"
       sodipodi:cx="255"
       sodipodi:cy="88"
       sodipodi:rx="22"
       sodipodi:ry="22"
       d="m 277,88 c 0,12.15026 -9.84974,22 -22,22 -12.15026,0 -22,-9.84974 -22,-22 0,-12.150264 9.84974,-22 22,-22 12.15026,0 22,9.849736 22,22 z" />
    <circle
       cx="228"
       cy="211"
       r="22"
       id="circle14"
       sodipodi:cx="228"
       sodipodi:cy="211"
       sodipodi:rx="22"
       sodipodi:ry="22"
       d="m 250,211 c 0,12.15026 -9.84974,22 -22,22 -12.15026,0 -22,-9.84974 -22,-22 0,-12.15026 9.84974,-22 22,-22 12.15026,0 22,9.84974 22,22 z" />
    <circle
       cx="91"
       cy="246"
       r="22"
       id="circle16"
       sodipodi:cx="91"
       sodipodi:cy="246"
       sodipodi:rx="22"
       sodipodi:ry="22"
       d="m 113,246 c 0,12.15026 -9.84974,22 -22,22 -12.150264,0 -22,-9.84974 -22,-22 0,-12.15026 9.849736,-22 22,-22 12.15026,0 22,9.84974 22,22 z" />
    <circle
       cx="34"
       cy="144"
       r="22"
       id="circle18"
       sodipodi:cx="34"
       sodipodi:cy="144"
       sodipodi:rx="22"
       sodipodi:ry="22"
       d="m 56,144 c 0,12.15026 -9.849736,22 -22,22 -12.150264,0 -22,-9.84974 -22,-22 0,-12.15026 9.849736,-22 22,-22 12.150264,0 22,9.84974 22,22 z" />
  </g>
</svg>
