<?xml version="1.0" ?><!-- Created with Inkscape (http://www.inkscape.org/) --><!DOCTYPE svg  PUBLIC '-//W3C//DTD SVG 1.1//EN'  'http://www.w3.org/Graphics/SVG/1.1/DTD/svg11.dtd' [
	<!ENTITY stroke_color "#ff0000">
	<!ENTITY fill_color "#000000">
]>
<svg
   xmlns:dc="http://purl.org/dc/elements/1.1/"
   xmlns:cc="http://creativecommons.org/ns#"
   xmlns:rdf="http://www.w3.org/1999/02/22-rdf-syntax-ns#"
   xmlns:svg="http://www.w3.org/2000/svg"
   xmlns="http://www.w3.org/2000/svg"
   xmlns:xlink="http://www.w3.org/1999/xlink"
   xmlns:sodipodi="http://sodipodi.sourceforge.net/DTD/sodipodi-0.dtd"
   xmlns:inkscape="http://www.inkscape.org/namespaces/inkscape"
   enable-background="new 0 0 55 55"
   height="55px"
   version="1.1"
   viewBox="0 0 55 55"
   width="55px"
   x="0px"
   xml:space="preserve"
   y="0px"
   id="svg2"
   inkscape:version="0.48.4 r9939"
   sodipodi:docname="activity-comodo.svg"><metadata
     id="metadata19"><rdf:RDF><cc:Work
         rdf:about=""><dc:format>image/svg+xml</dc:format><dc:type
           rdf:resource="http://purl.org/dc/dcmitype/StillImage" /><dc:title></dc:title></cc:Work></rdf:RDF></metadata><defs
     id="defs17"><linearGradient
       y2="56.695801"
       x2="8.7949696"
       y1="39.12252"
       x1="-66.111282"
       gradientTransform="matrix(1.0023618,0,0,1,100.19202,0)"
       gradientUnits="userSpaceOnUse"
       id="linearGradient3218"
       xlink:href="#linearGradient3246" /><linearGradient
       id="linearGradient3246"><stop
         stop-color="#00fffc"
         offset="0"
         id="stop3248" /><stop
         stop-color="#00fffc"
         stop-opacity="0.506"
         offset="1"
         id="stop3250" /></linearGradient><linearGradient
       gradientUnits="userSpaceOnUse"
       y2="66.760162"
       x2="67.680893"
       y1="51.086689"
       x1="27.57523"
       id="linearGradient3244"
       xlink:href="#linearGradient3238" /><linearGradient
       id="linearGradient3238"><stop
         stop-color="#fffffc"
         id="stop3240"
         offset="0" /><stop
         stop-color="#fffffc"
         stop-opacity="0"
         id="stop3242"
         offset="1" /></linearGradient><linearGradient
       gradientTransform="matrix(-1,0,0,1,132.32599,0.9036872)"
       y2="73.172028"
       x2="63.88126"
       y1="51.324169"
       x1="5.9648499"
       gradientUnits="userSpaceOnUse"
       id="linearGradient3254"
       xlink:href="#linearGradient3256" /><linearGradient
       id="linearGradient3256"><stop
         stop-color="#ffffff"
         stop-opacity="0.66176"
         offset="0"
         id="stop3258" /><stop
         stop-color="#fffffc"
         stop-opacity="0"
         offset="1"
         id="stop3260" /></linearGradient><linearGradient
       inkscape:collect="always"
       xlink:href="#linearGradient3246"
       id="linearGradient3205"
       gradientUnits="userSpaceOnUse"
       gradientTransform="matrix(1.0023618,0,0,1,100.19202,0)"
       x1="-66.111282"
       y1="39.12252"
       x2="8.7949696"
       y2="56.695801" /><linearGradient
       inkscape:collect="always"
       xlink:href="#linearGradient3238"
       id="linearGradient3207"
       gradientUnits="userSpaceOnUse"
       x1="27.57523"
       y1="51.086689"
       x2="67.680893"
       y2="66.760162" /><linearGradient
       inkscape:collect="always"
       xlink:href="#linearGradient3256"
       id="linearGradient3209"
       gradientUnits="userSpaceOnUse"
       gradientTransform="matrix(-1,0,0,1,132.32599,0.9036872)"
       x1="5.9648499"
       y1="51.324169"
       x2="63.88126"
       y2="73.172028" /><linearGradient
       inkscape:collect="always"
       xlink:href="#linearGradient3256"
       id="linearGradient3212"
       gradientUnits="userSpaceOnUse"
       gradientTransform="matrix(-0.51293903,0,0,0.44229355,90.99111,-0.02908182)"
       x1="5.9648499"
       y1="51.324169"
       x2="63.88126"
       y2="73.172028" /><linearGradient
       inkscape:collect="always"
       xlink:href="#linearGradient3238"
       id="linearGradient3215"
       gradientUnits="userSpaceOnUse"
       x1="27.57523"
       y1="51.086689"
       x2="67.680893"
       y2="66.760162"
       gradientTransform="matrix(0.51293903,0,0,0.44229355,23.115945,-0.42877684)" /><linearGradient
       inkscape:collect="always"
       xlink:href="#linearGradient3246"
       id="linearGradient3219"
       gradientUnits="userSpaceOnUse"
       gradientTransform="matrix(0.51415049,0,0,0.44229355,74.508343,-0.42877684)"
       x1="-66.111282"
       y1="39.12252"
       x2="8.7949696"
       y2="56.695801" /></defs><sodipodi:namedview
     pagecolor="#ffffff"
     bordercolor="#666666"
     borderopacity="1"
     objecttolerance="10"
     gridtolerance="10"
     guidetolerance="10"
     inkscape:pageopacity="0"
     inkscape:pageshadow="2"
     inkscape:window-width="1366"
     inkscape:window-height="725"
     id="namedview15"
     showgrid="false"
     inkscape:zoom="9.5272727"
     inkscape:cx="23.251533"
     inkscape:cy="27.581861"
     inkscape:window-x="0"
     inkscape:window-y="20"
     inkscape:window-maximized="1"
     inkscape:current-layer="svg2" /><path
     style="fill:&fill_color;;stroke-width:1.12;stroke-miterlimit:4;stroke-dasharray:none;opacity:1;stroke:&stroke_color;;stroke-opacity:1"
     d="m 24.912019,48.282656 c -1.453138,0.285105 -3.487434,-0.319984 -2.537755,-2.685132 0.557348,-1.191708 2.77766,-3.822626 0.217045,-3.172049 -2.885804,0.06519 -5.821038,-0.482994 -8.448143,-1.864884 -1.505951,-0.608027 -3.168992,-1.49605 -3.010741,-3.670163 0.257706,-2.307112 -0.998503,-3.629349 -2.8736972,-3.694764 -1.6465332,-0.300165 -2.5548877,-2.297746 -3.8860287,-2.390249 -0.017365,-1.316436 0.2458126,-3.29396 1.6049576,-1.707799 1.0037213,0.251834 0.8922672,1.191146 -0.033933,1.361786 1.3707894,2.170852 3.9337726,1.492824 5.7620443,2.656963 1.349211,1.274332 2.563952,2.408513 4.135811,2.856955 0.461524,0.270174 1.405651,0.07485 1.748456,0.459191 0.817339,-1.874414 1.522373,1.455041 2.200666,-0.609865 0.96252,0.134696 1.22899,0.583032 1.74487,-0.751968 1.135789,0.60087 1.331632,-1.228737 2.425434,-0.525871 0.198912,-1.490206 1.745329,-0.365822 1.760304,-2.122641 1.559502,0.724599 0.286367,-1.929273 1.992549,-1.391176 -0.377024,-1.224859 0.299601,-2.049565 0.90296,-2.54998 -0.724779,-1.581478 1.511419,-1.445006 0.645962,-3.013393 0.559238,-0.838827 0.960884,-1.051722 0.04113,-2.103655 0.403303,-0.916808 -0.246291,-2.626691 -0.927328,-3.30342 -1.953239,-0.293549 -3.919781,0.216311 -5.813649,0.73628 -2.435419,-2.256856 -5.366443,-3.645238 -8.305615,-4.781905 -1.595458,-1.720261 -3.369564,-3.372389 -4.6749475,-5.360453 0.7637525,-0.455609 1.8566115,-0.6888923 0.4479605,0.06001 0.902994,1.287785 3.392877,2.127309 4.200045,3.972182 1.811732,-1.375571 3.483122,-3.074759 5.462916,-4.160715 0.820358,-0.8420033 0.787328,-1.5644283 1.599003,-0.06335 0.63124,1.542741 0.0098,0.480264 -0.392957,-0.349981 0.151685,2.170832 0.958138,4.243288 1.258667,6.406402 0.519119,1.240062 0.07144,4.520999 1.924098,3.050753 1.534648,-1.248839 4.321652,-0.300503 5.290267,-0.626016 0.08106,-2.445445 -4.302737,-2.82982 -4.075561,-3.611376 1.041551,0.360781 2.795841,2.165815 2.691778,-0.0063 -1.118629,-1.418419 -1.901207,-3.754196 -3.969438,-4.352437 -1.117436,-0.564228 -1.503864,-2.7008186 0.151766,-1.5908563 0.823669,0.7729773 1.673934,-0.580321 2.020868,-0.916595 -1.954642,-1.3194263 1.728924,-0.01526 1.12109,-0.8912423 -0.877865,-1.490341 2.130491,0.710534 1.200982,-1.068402 1.259199,-0.849092 2.731118,2.9593683 3.042833,0.76429 1.403517,-0.09406 0.399502,2.6625913 1.694704,3.3447296 0.51371,0.919835 1.941668,1.054029 1.51689,2.402269 0.981587,0.763826 2.905219,1.622251 2.303094,-0.652188 0.201194,-1.735951 -1.96792,-4.6563596 0.864937,-4.2733166 2.040292,-0.52228 4.13988,-0.653615 6.184714,-0.06841 0.77368,0.132219 3.601853,1.0040963 3.065928,1.1330983 -2.279692,-0.9697223 -4.700611,-1.3934883 -7.122148,-1.2777123 -0.987141,0.351681 -2.937703,0.271892 -3.43094,0.8852413 2.499827,1.20159 4.933589,2.4764863 7.255903,4.0699573 1.588357,1.246117 0.973639,5.01e-4 1.273134,-1.367457 0.864932,-1.116042 3.351205,-0.869511 3.826581,-1.5398133 -2.346334,-1.192498 2.652608,0.4742023 0.10364,0.9351983 -1.609519,0.219809 -3.191784,1.295073 -2.643482,3.367384 -0.865538,0.905351 -3.109882,1.158968 -3.552528,3.136393 -2.29872,-0.05457 -3.307595,2.218407 -3.988989,4.460801 -0.246704,0.935755 -2.555,3.225527 -0.300755,2.539889 1.563299,-1.080703 4.016556,-1.799794 4.465273,0.994457 0.48408,1.777665 -2.710956,1.590132 -3.738904,1.775635 -1.306733,0.48305 -3.261719,-0.894962 -2.53392,1.522628 -0.122188,2.27324 -0.908363,4.481501 -1.413597,6.596524 -0.477537,1.51501 -2.738287,2.787197 -2.702704,3.91599 0.914667,1.264174 3.122627,2.241283 3.070406,3.769367 -0.0025,1.886308 2.365548,3.602552 3.550738,2.733571 -1.016904,-1.536297 0.29224,-0.679173 0.598402,-0.320809 0.07736,-1.06263 -2.081945,-1.795586 -0.08304,-1.309191 1.20714,0.944266 -0.460655,-1.506881 -1.329429,-0.890225 -1.419655,0.03828 -1.53998,-3.065289 -2.955423,-2.649097 0.476449,-1.258905 1.049937,1.161531 1.270467,-0.950376 0.757417,-1.378761 -1.125007,-4.055381 -0.835036,-4.130741 1.38641,1.203683 1.447839,3.44309 0.973699,5.20881 0.508061,2.200792 2.395883,1.910024 3.679608,3.058707 2.363516,1.328224 -0.219124,4.842109 -1.859012,2.637376 -2.434138,0.02103 -3.194268,-2.618989 -3.958787,-4.719936 -1.150761,-0.304769 -2.10329,-3.279543 -3.080306,-2.062626 -1.687519,1.200195 -3.150634,2.66161 -4.699601,4.062785 -0.801473,1.043408 0.04282,3.415107 -1.300145,4.426192 -0.194989,0.135006 -0.617368,0.693177 -0.814037,0.246732 z m 3.2e-4,-1.462974 c -0.324323,-0.463801 0.415882,-2.071374 0.856183,-0.712356 1.253086,-0.479822 -0.01971,-4.05011 1.855164,-3.398261 1.994315,-0.866224 1.708697,-4.681756 2.270609,-5.629673 0.559099,1.664134 1.470711,-1.879301 2.036284,-2.517699 1.173568,-2.32698 1.397,-5.072527 1.552372,-7.691185 0.02506,-1.836194 -0.417366,-3.035301 -1.913533,-3.593065 1.366843,0.22629 3.684532,1.586813 5.311095,0.622604 1.820733,-0.990078 1.913814,-3.712216 3.172559,-5.320207 0.528309,-1.60658 -0.893806,-0.314035 -1.014329,-0.693151 -1.229841,-0.411545 -2.54265,0.910337 -3.074712,2.649469 -0.01442,0.841593 -0.809037,3.458118 -0.624575,1.130456 0.10286,-2.009579 -2.957241,-0.759868 -4.110895,-1.212744 1.355482,-1.0686 -1.364719,-3.430339 -2.076071,-4.895535 -1.69498,-2.021028 0.462267,3.083514 0.793288,4.048641 0.459187,2.890568 1.00693,6.10994 -0.357208,8.822724 -1.072463,2.367016 -2.343606,4.716224 -4.446478,6.046447 -1.746359,1.260875 -3.78658,1.877711 -5.775439,2.421944 -2.160912,0.08543 -4.596937,0.154569 -6.340781,-1.533571 -0.06348,-1.724095 -2.951794,-3.16979 -3.3516878,-2.572686 -1.2202511,0.249177 -3.8792983,-2.169429 -3.9618111,-1.806204 1.1537235,2.239556 3.8427571,1.768995 5.3709259,3.270361 1.015509,1.71606 1.131496,4.37912 3.34293,4.750259 1.640424,0.551515 3.012145,0.791103 4.594585,1.091164 1.810809,-0.09036 3.735091,0.07599 5.466032,-0.390103 -0.11628,-1.085111 2.148322,-3.313562 0.785251,-1.20887 -0.659071,1.397042 -0.491926,2.924721 -0.637903,4.346805 -0.434467,-0.656376 -2.125388,2.645063 -1.954879,3.564155 0.690763,1.388978 1.667233,-1.714503 1.335102,0.449855 0.07661,0.439977 0.692202,0.03743 0.897922,-0.03957 z M 36.853232,22.736031 c 0.37749,-0.683863 0.594296,0.19446 0,0 z m 0.426339,-0.613232 c 0.15912,-0.38729 0.240546,0.420908 0,0 z M 21.695336,41.88729 c 1.493217,-1.012065 -1.731141,-1.987422 -1.543528,-0.832181 -0.653755,1.390626 0.853086,1.051572 1.543528,0.832181 z m 2.214134,-0.0451 c -0.975569,-0.333545 -1.810651,0.478409 0,0 z m -4.489743,-0.107887 c 1.15626,-1.547126 -2.948478,-1.638024 -1.699086,-0.220093 0.54937,0.0054 1.178568,0.463959 1.699086,0.220093 z m 3.848462,-0.340182 c 0.692536,0.432361 1.266587,-1.036282 0.274643,-0.949661 -1.751935,-0.621396 -1.398699,1.878385 -0.274643,0.949661 z m -6.213366,-0.55136 c 0.620698,-1.446623 -3.240766,-0.703276 -0.885779,0.185775 0.294008,0.07872 0.654332,0.07668 0.885779,-0.185775 z m 13.53657,-0.880243 c 0.396847,-1.213824 -1.206374,-1.751549 -0.93955,0.03693 -0.400936,1.243564 0.595663,0.07772 0.93955,-0.03693 z M 15.039127,40.12847 c 0.445419,-1.162536 -2.991666,-1.019917 -1.048275,-0.12307 0.284114,0.169461 0.785466,0.602269 1.048275,0.12307 z m 17.177679,-1.58642 c 1.795257,-1.406653 -1.639432,-2.815196 -1.734243,-0.430756 0.0097,1.109223 0.819421,2.059105 1.509968,0.666095 l 0.224275,-0.235339 0,0 z m -19.201891,0.560119 c -1.167558,-2.306122 -0.913595,0.547563 0,0 z m -1.23075,-1.409574 c -0.526914,-0.664839 0.255475,0.71788 0,0 z M 33.6212,37.227448 c 1.78255,-1.005219 0.713223,-4.365026 -1.056923,-2.598566 -0.932982,0.94046 -1.184351,1.720942 0.06899,2.213524 0.45676,0.365743 0.442754,1.419139 0.987933,0.385042 z m 1.689951,-3.002546 c 1.633552,-1.684673 -0.733376,-5.030342 -1.67009,-2.929052 -0.503915,0.942238 -1.914877,3.941113 0.02787,2.209792 0.877009,-0.712862 1.444616,1.865289 1.642224,0.71926 z m 0.999465,-3.550878 c 1.393714,-2.274377 -2.44056,-5.154864 -2.552056,-1.670104 -0.655247,2.039237 1.772432,0.57942 2.360607,2.239869 l 0.08318,-0.186247 0.108268,-0.383523 0,5e-6 z m 0.08542,-3.158773 c -0.191685,-0.824454 0.48416,-3.08641 -0.731059,-2.828862 -1.101788,-0.0036 -2.75952,-0.981431 -1.918571,1.19781 -0.05023,1.614604 2.068163,0.561438 2.65584,1.824351 l -0.0062,-0.19327 3.6e-5,-2.9e-5 z m 2.527442,-0.720277 c 0.900719,-0.04931 3.72478,-0.114476 3.165866,-1.070883 -1.127593,0.629476 0.77315,-1.740393 -0.791486,-0.741377 0.565053,-2.471236 -2.391045,-0.531478 -2.482011,0.741281 0.06955,-1.925966 -1.235867,0.836045 -1.426237,-1.053631 -1.363298,-0.491688 -0.506639,3.324034 0.973055,2.223527 l 0.276274,-0.02307 0.28454,-0.07584 -10e-7,-1e-6 z M 22.641934,20.315145 c -0.387626,-2.502045 -0.997953,-4.949937 -1.423712,-7.44509 -0.210865,-1.437901 -0.576542,-3.6099873 -1.964558,-1.78004 -1.769728,1.287076 -3.74875,2.431938 -4.889763,4.532923 1.411845,1.04695 3.604179,0.50085 5.254912,1.312798 1.555326,0.361258 2.248209,2.49492 3.023121,3.379409 z m 12.719115,0.01964 c -0.400373,-1.288355 -3.991932,-1.511857 -2.879671,-0.188365 0.957638,-0.05441 1.96017,0.228662 2.879671,0.188365 z M 35.896936,19.8712 c 1.234097,-1.461995 -0.105101,-1.22929 -0.853799,-0.455167 0.320374,0.228153 0.552352,1.369914 0.853799,0.455167 z m -1.714964,-1.127343 c -0.404533,-1.034285 -3.768237,-2.324748 -2.859323,-0.416219 0.409979,1.602947 2.711148,0.281844 3.179666,0.821252 l -0.140373,-0.186013 -0.17997,-0.219024 0,4e-6 z m 1.285661,-0.05254 c 1.095333,-1.069925 -1.956984,1.088778 0,0 l 0,0 z M 35.29466,18.206691 c 1.061836,-0.240057 2.060978,-0.03 2.334747,-1.50784 0.724777,-0.306991 1.046091,-1.139161 1.879753,-0.216696 0.46499,-0.637273 2.367072,0.647566 1.116772,-0.793255 -1.452756,-1.440949 -2.663439,-4.04538 -3.657027,-5.310101 0.524277,2.165069 1.153433,4.995186 -1.288103,5.923254 -0.898769,1.026861 -3.307885,0.664708 -1.295052,2.272749 0.319403,0.134844 0.598134,-0.37564 0.90891,-0.368111 z m -3.994221,-1.132358 c 1.039903,0.04752 1.450849,9.57e-4 0.307541,-0.730318 -0.943123,-0.303308 -3.128894,-2.080161 -1.507231,0.03753 0.417497,0.360139 0.61143,1.420762 1.19969,0.692783 z m 3.128239,-0.23432 c 0.958984,0.07091 3.333657,-3.187531 1.306767,-1.766191 -0.545171,1.611007 -2.267333,1.689207 -3.311761,1.636141 0.510328,0.601656 1.384958,0.256356 2.004994,0.13005 z m -17.906441,-0.31326 c -0.663252,-0.121567 -0.0083,0.212034 0,0 z M 41.892078,15.90324 c -0.496924,-2.320264 5.27312,-1.191475 2.129752,-2.716616 -2.325721,-1.644455 -4.771896,-3.053903 -7.32319,-4.1769863 0.75389,1.7788423 1.592897,3.5135223 2.813594,4.9325193 0.429373,0.236286 2.668765,3.88578 2.379844,1.961083 z m -1.446702,-2.277451 c 0.339079,-1.053735 0.235111,0.533597 0,0 z m -0.291135,-0.51494 c -0.335298,-0.756925 0.66385,0.495591 0,0 z m -5.755811,3.217824 c 0.92904,-0.716641 1.435392,-1.952568 -0.137424,-1.550155 -1.354255,0.08459 -4.014991,-0.537436 -4.248333,-1.872701 1.295329,-0.348303 0.143564,1.105932 1.696481,1.049628 1.579313,0.269366 2.80632,0.876756 4.409643,0.215164 -0.998453,-0.668399 -2.192611,-1.305121 -2.297549,-2.636046 -1.299668,0.405119 -2.059034,-1.061092 -1.385413,-1.8533963 -0.6057,0.5686583 -2.176583,0.109575 -3.00193,0.3243153 -0.133886,-2.2525456 -1.898236,2.265619 -1.971948,-0.2605013 -1.395736,1.9534983 -2.722914,-0.496137 -4.315989,-0.439702 0.819908,2.4045693 3.522479,2.4673043 4.68666,4.6523753 2.044326,1.560019 -1.525434,-2.709908 0.312271,-0.749366 1.493229,2.062239 3.858851,3.685559 6.253531,3.120385 z m -2.744123,-3.220462 c -0.968776,-1.620547 1.798402,-0.445373 0.299356,-0.357261 -0.766722,-0.393875 1.137533,1.054306 -0.299356,0.357261 z m -2.12678,-1.266413 c -2.066753,-1.279336 2.972124,-2.0463493 1.524327,-0.116294 -0.485749,0.196691 -1.01973,0.209022 -1.524327,0.116294 z m 0.82405,-0.381101 c -0.28698,-0.493888 -0.251183,0.477144 0,0 z m -5.542394,-0.693008 c -0.992412,-0.402748 -1.655738,-1.4572733 -0.116879,-0.605491 0.989621,0.171719 1.766862,1.830641 0.116879,0.605491 z m 0.319754,-0.09048 c -0.453847,-0.444408 -0.257695,0.222036 0,0 z m 12.150634,3.566677 c -0.439754,-0.212622 -0.440584,1.291072 0,0 z M 11.645997,12.686225 c -0.564502,-0.447744 0.119488,0.422364 0,0 z m 26.379665,31.250996 c 0.159119,-0.387293 0.240544,0.420905 0,0 z m -1.279014,-0.490212 c 0.286983,-0.493887 0.25118,0.477148 0,0 z m 0.332117,-0.153191 c 0.187509,-0.467268 0.356461,0.78704 0,0 z M 36.586771,43.07935 c -0.02245,-0.494126 0.437986,0.461517 0,0 z M 23.861382,14.493881 c -1.69709,-1.438151 0.4236,-0.114944 0.797092,0.643402 -0.277788,-0.194125 -0.534311,-0.424391 -0.797092,-0.643402 z m -1.382874,-1.378869 c -1.028281,-1.481198 1.162523,1.196857 0,0 z m -0.579082,-1.066063 c -0.558625,-1.453319 0.73255,1.199593 0,0 z M 17.135099,9.4070517 c 1.245906,-0.210434 1.84375,0.297186 0,0 z m 1.731998,0.0083 c 0.913928,-0.11923 0.03925,0.197354 0,0 z m 0.797355,0.0041 c 1.4949,-0.07034 -0.266849,0.155872 0,0 z m -5.43581,-0.122522 c 1.495788,-0.0704 -0.26753,0.155867 0,0 z m 0.803632,0.0063 c 0.525774,-0.209257 0.07615,0.252148 0,0 z m 0.639508,0 c 0.525773,-0.209257 0.07614,0.252146 0,0 z m 0.426337,0 c 0.525774,-0.209257 0.07615,0.252148 0,0 z m 0.475383,-0.0063 c 1.495963,-0.07039 -0.267666,0.155863 0,0 z"
     id="path3111"
     inkscape:connector-curvature="0" /></svg>
