<?xml version="1.0" encoding="UTF-8" standalone="no"?>
<!-- Created with Inkscape (http://www.inkscape.org/) -->

<svg
   xmlns:dc="http://purl.org/dc/elements/1.1/"
   xmlns:cc="http://creativecommons.org/ns#"
   xmlns:rdf="http://www.w3.org/1999/02/22-rdf-syntax-ns#"
   xmlns:svg="http://www.w3.org/2000/svg"
   xmlns="http://www.w3.org/2000/svg"
   xmlns:sodipodi="http://sodipodi.sourceforge.net/DTD/sodipodi-0.dtd"
   xmlns:inkscape="http://www.inkscape.org/namespaces/inkscape"
   id="svg2"
   version="1.1"
   inkscape:version="0.47 r22583"
   width="48"
   height="48"
   sodipodi:docname="jclicsvg.svg">
  <metadata
     id="metadata8">
    <rdf:RDF>
      <cc:Work
         rdf:about="">
        <dc:format>image/svg+xml</dc:format>
        <dc:type
           rdf:resource="http://purl.org/dc/dcmitype/StillImage" />
        <dc:title></dc:title>
      </cc:Work>
    </rdf:RDF>
  </metadata>
  <defs
     id="defs6">
    <inkscape:perspective
       sodipodi:type="inkscape:persp3d"
       inkscape:vp_x="0 : 0.5 : 1"
       inkscape:vp_y="0 : 1000 : 0"
       inkscape:vp_z="1 : 0.5 : 1"
       inkscape:persp3d-origin="0.5 : 0.33333333 : 1"
       id="perspective10" />
  </defs>
  <sodipodi:namedview
     pagecolor="#ffffff"
     bordercolor="#666666"
     borderopacity="1"
     objecttolerance="10"
     gridtolerance="10"
     guidetolerance="10"
     inkscape:pageopacity="0"
     inkscape:pageshadow="2"
     inkscape:window-width="1366"
     inkscape:window-height="706"
     id="namedview4"
     showgrid="false"
     inkscape:zoom="4.9166667"
     inkscape:cx="24"
     inkscape:cy="24"
     inkscape:window-x="-8"
     inkscape:window-y="-8"
     inkscape:window-maximized="1"
     inkscape:current-layer="svg2" />
  <path
     style="fill:#000000;stroke:#000000;stroke-width:0;stroke-miterlimit:4;stroke-opacity:1;stroke-dasharray:none"
     d="M 19.610169,44.744533 C 15.311921,43.630023 11.7953,40.539413 9.9812901,36.282119 8.4022761,32.576333 8.1404021,23.408366 9.5880091,22.513696 c 0.5378119,-0.332386 3.3194869,0.09106 6.1815009,0.940983 8.150028,2.420298 8.405569,2.307772 9.812243,-4.320778 1.865689,-8.791526 1.694107,-8.676329 9.920371,-6.660379 8.335973,2.042836 8.261086,1.815041 4.699568,14.29544 C 35.957944,41.640057 29.472333,47.301735 19.610169,44.744533 z M 30.40791,41.347505 c 1.263757,-0.800895 3.145387,-2.850016 4.1814,-4.553602 2.072239,-3.407524 6.365827,-18.258999 5.783642,-20.005555 -0.33436,-1.00308 -7.812364,-3.73716 -10.320018,-3.773167 -0.581479,-0.0084 -1.876585,3.143864 -2.878013,7.004919 -1.001429,3.861055 -2.165258,7.232999 -2.586286,7.493209 -0.421029,0.26021 -2.500923,-0.130254 -4.621987,-0.867698 -2.121063,-0.737445 -5.093979,-1.642962 -6.606479,-2.012262 -2.699931,-0.659228 -2.75,-0.587374 -2.75,3.94647 0,12.227335 10.235029,18.827969 19.797741,12.767686 z M 14.61017,20.70571 C 11.035169,19.620261 7.9523041,18.597064 7.7593591,18.43194 7.0202741,17.799424 11.024957,2.9999998 11.9352,2.9999998 c 0.527639,0 3.999127,0.905287 7.714419,2.011749 l 6.755075,2.011749 -1.832276,7.1232642 c -1.007752,3.917796 -2.19902,7.440341 -2.647262,7.827878 -0.448243,0.387537 -3.739987,-0.183481 -7.314986,-1.26893 z m 8.047184,-3.88094 c 2.285049,-8.4860252 2.095337,-8.9604762 -4.360699,-10.9056932 -4.224012,-1.272704 -5.918473,-1.432747 -6.197397,-0.58535 -0.211136,0.64145 -1.063714,3.547005 -1.894618,6.4567882 -1.6825739,5.892291 -1.9900539,5.47232 5.905529,8.066071 4.848729,1.592839 5.36645,1.353097 6.547185,-3.031816 z" />
  <path
     style="fill:#d9ff00;fill-opacity:1;fill-rule:nonzero;stroke:#666666;stroke-width:0;stroke-linejoin:round;stroke-miterlimit:4;stroke-opacity:1;stroke-dasharray:none"
     d="m 18.040679,20.31022 c -2.561412,-0.697048 -6.898944,-2.262791 -7.674189,-2.770195 -1.3544221,-0.88648 -1.3182271,-1.414631 0.527998,-7.7045301 0.879989,-2.998033 1.433264,-4.553095 1.68569,-4.737887 0.56564,-0.414085 3.247326,0.113939 7.086497,1.395332 4.229716,1.411745 4.743533,2.415958 3.666212,7.1653071 -1.158883,5.108911 -1.9188,6.727939 -3.25831,6.941938 -0.335593,0.05361 -1.250847,-0.07687 -2.033898,-0.289965 z"
     id="path2816" />
  <path
     style="fill:#ff9900;fill-opacity:1;fill-rule:nonzero;stroke:#666666;stroke-width:0;stroke-linejoin:round;stroke-miterlimit:4;stroke-opacity:1;stroke-dasharray:none"
     d="m 20.379661,43.162849 c -5.468142,-1.442636 -9.377259,-6.96193 -9.567662,-13.508612 -0.141329,-4.859355 0.03797,-5.382071 1.737277,-5.064607 1.199255,0.224045 3.062115,0.765549 6.711741,1.950997 3.089909,1.003645 5.141721,1.31865 5.53133,0.8492 0.408098,-0.491728 1.069224,-2.379187 2.119918,-6.052182 1.220668,-4.267188 1.867725,-6.151426 2.488153,-7.245537 0.443848,-0.782714 0.49452,-0.809767 1.465258,-0.782272 1.860844,0.05271 8.483491,2.501529 9.233351,3.414169 0.25934,0.31564 0.251257,0.622116 -0.06584,2.496338 -0.674364,3.985875 -3.169058,12.297287 -4.719011,15.72203 -2.030762,4.487125 -5.144816,7.151676 -9.646383,8.253964 -1.450312,0.355133 -3.873267,0.339789 -5.288135,-0.03349 z"
     id="path2818" />
</svg>
