<?xml version="1.0" ?><!DOCTYPE svg  PUBLIC '-//W3C//DTD SVG 1.1//EN'  'http://www.w3.org/Graphics/SVG/1.1/DTD/svg11.dtd' [
	<!ENTITY stroke_color "#010101">
	<!ENTITY fill_color "#A0A0A0">
]><svg enable-background="new 0 0 55 55" height="55px" version="1.1" viewBox="0 0 55 55" width="55px" x="0px" xml:space="preserve" xmlns="http://www.w3.org/2000/svg" xmlns:xlink="http://www.w3.org/1999/xlink" y="0px">
  <g
     transform="translate(0,-997.36218)"
     id="layer1">
    <path
       d="m 27.8238,1000.6615 c 0.02162,0.052 0.09158,-0.049 0,0 z m 0.253658,0.021 c 0.03739,0.038 0.207253,-0.039 0,0 z m 0.355354,50.6668 c -3.727199,-0.01 -7.567451,0.2077 -11.174529,-0.8799 -2.034395,-1.1275 -1.314699,-4.3969 -1.038265,-6.2949 1.888826,-0.6235 4.081568,-0.361 4.81206,-2.7208 2.01227,-2.7245 3.32548,-6.2305 2.783632,-9.6294 -1.032115,-1.6437 -4.80492,-1.9737 -2.858741,-4.559 0.709346,-2.3047 -2.538867,-3.0772 -3.499052,-4.8029 -2.932982,-3.2611 -3.662782,-8.0344 -2.341242,-12.1535 1.395145,-5.1726 6.319007,-8.9786 11.555038,-9.6047 -2.272802,-2.09108 2.760661,-3.69399 2.111282,-0.6671 -1.386586,1.4191 2.28387,0.6587 2.960356,1.5569 4.558858,1.7773 8.09433,6.0512 8.590754,10.9717 0.8908,4.7349 -1.566844,9.5271 -5.366041,12.2956 -2.71753,1.1849 1.834411,4.0851 -1.370546,5.0197 -2.595842,1.0033 -1.757804,4.0251 -1.311982,6.0948 0.566794,2.657 2.070373,4.9978 3.783061,7.0606 1.667465,0.1034 4.292903,0.044 3.706043,2.4736 0.446981,2.2656 -0.03761,5.0598 -2.943086,4.989 -2.762313,0.5615 -5.587766,0.7367 -8.398742,0.8503 z"
       id="path3085"
       style="fill:&fill_color;;fill-opacity:1;fill-rule:nonzero;stroke:&stroke_color;;stroke-width:0.75;stroke-miterlimit:4;stroke-opacity:1;stroke-dasharray:none" />
    <path
       d="m 37.512907,1013.9386 c -0.09552,1e-4 -0.180383,0.063 -0.269046,0.099 -0.118049,0.048 -0.224283,0.1318 -0.349759,0.1526 -0.03552,0.01 -0.08164,0.016 -0.107618,-0.01 -0.05217,-0.05 -0.04856,-0.1462 -0.0269,-0.2153 0.08433,-0.2685 0.327713,-0.4761 0.564998,-0.6277 0.137083,-0.088 0.306561,-0.113 0.466347,-0.1434 0.0383,-0.01 0.07782,-0.013 0.116586,-0.01 0.170322,0.018 0.340746,0.066 0.493252,0.1436 0.06071,0.03 0.118841,0.072 0.161427,0.1257 0.07018,0.088 0.117584,0.1954 0.143493,0.3048 0.02689,0.1135 0.05579,0.2429 0.009,0.3497 -0.01276,0.029 -0.03998,0.061 -0.07174,0.062 -0.08308,0 -0.127561,-0.1073 -0.197301,-0.1525 -0.116715,-0.075 -0.229664,-0.1801 -0.367697,-0.1973 -0.02446,0 -0.0547,10e-5 -0.07174,0.018 -0.113899,0.119 -0.06282,0.3235 -0.09865,0.4844 -0.08564,0.3842 -0.134157,0.7813 -0.278013,1.1478 -0.12519,0.319 -0.298121,0.6217 -0.50222,0.8969 -0.192697,0.2598 -0.424026,0.4925 -0.672616,0.6995 -0.437736,0.3645 -0.931916,0.6581 -1.425945,0.9417 -0.439464,0.2522 -0.891304,0.4879 -1.363166,0.6727 -0.539972,0.2112 -1.101955,0.3678 -1.668086,0.4932 -0.534145,0.1182 -1.078723,0.1893 -1.623247,0.2421 -0.630254,0.06 -0.660742,0.1021 -1.946098,0.1344 -0.287031,0.01 -0.313866,-0.8512 -0.0269,-0.8609 0.837821,-0.028 1.505304,-0.098 2.251018,-0.2062 0.880782,-0.1275 1.766319,-0.2644 2.618717,-0.5202 0.568919,-0.1708 1.13792,-0.3719 1.650149,-0.6726 0.231094,-0.1356 0.422372,-0.33 0.627775,-0.5022 0.32311,-0.2707 0.663526,-0.5254 0.95063,-0.834 0.283413,-0.3047 0.537781,-0.6396 0.753329,-0.9956 0.123296,-0.2036 0.234828,-0.4182 0.304918,-0.6456 0.03387,-0.1099 0.112216,-0.2418 0.05381,-0.3409 -0.01777,-0.029 -0.06367,-0.036 -0.09865,-0.036 z m -11.450039,5.6323 c -0.01662,5e-4 -0.303695,-0.02 -0.692868,-0.02 -0.425064,0 -0.677317,-0.01 -0.685726,-0.022 -0.008,-0.013 -0.154947,-0.021 -0.368586,-0.021 -0.195407,0 -0.3716,-0.01 -0.391538,-0.02 -0.01993,-0.011 -0.18638,-0.025 -0.369868,-0.032 -0.363952,-0.015 -0.797342,-0.046 -0.882472,-0.063 -0.179046,-0.036 -0.76147,-0.1161 -0.957804,-0.1313 -0.163396,-0.013 -0.628142,-0.077 -0.860948,-0.1195 -0.05919,-0.011 -0.170235,-0.03 -0.246765,-0.044 -0.132472,-0.023 -0.573397,-0.1687 -0.733022,-0.2417 -0.04118,-0.018 -0.210473,-0.093 -0.376205,-0.1664 -0.310147,-0.136 -0.550484,-0.2833 -0.944722,-0.5792 -0.504235,-0.3784 -0.537704,-0.4118 -1.014415,-1.0151 -0.647891,-0.82 -0.920881,-1.3665 -1.10098,-2.2044 -0.05299,-0.2464 -0.122291,-0.6249 -0.151729,-0.8287 -0.0094,-0.065 -0.02616,-0.1183 -0.03721,-0.1183 -0.03383,0 -0.215378,0.2912 -0.295118,0.4735 -0.04144,0.094 -0.111661,0.2884 -0.156042,0.4304 -0.148096,0.4741 -0.159333,0.5036 -0.164136,0.4306 l -0.0043,-0.064 -0.01818,0.064 c -0.03215,0.1142 -0.003,-0.5078 0.03124,-0.6673 0.04458,-0.2074 0.238587,-0.803 0.329324,-1.0109 0.09325,-0.2136 0.257674,-0.4349 0.522904,-0.7037 0.167946,-0.1702 0.220528,-0.2109 0.289456,-0.2237 0.04633,-0.01 0.09778,-0.01 0.114341,0 0.03107,0.019 0.159937,0.299 0.186085,0.4032 0.04378,0.1745 -0.127723,0.3709 -0.375776,0.4303 -0.03063,0.01 -0.08265,0.034 -0.115602,0.061 -0.05751,0.046 -0.05935,0.053 -0.04597,0.1831 0.01671,0.1631 0.157603,0.6535 0.26498,0.9223 0.2924,0.7318 0.476184,1.0116 1.243082,1.8924 0.07138,0.082 0.236314,0.2391 0.366533,0.3493 0.130218,0.1101 0.299717,0.2543 0.376664,0.3202 0.130101,0.1117 0.562933,0.419 0.589989,0.419 0.0066,0 0.06219,0.03 0.123514,0.069 0.110709,0.068 0.497411,0.2326 0.546727,0.2326 0.01417,0 0.194051,0.049 0.399753,0.1079 0.324548,0.093 0.494789,0.1317 0.912099,0.2047 0.279968,0.05 0.649354,0.098 0.903995,0.1202 0.578139,0.05 0.937479,0.066 1.39904,0.062 0.307214,0 0.548128,0.01 0.634949,0.022 0.07695,0.014 0.319089,0.034 0.538092,0.045 0.848551,0.042 1.09838,0.06 1.166729,0.082 0.04264,0.014 0.538075,0.032 1.243414,0.047 0.644891,0.013 1.174714,0.033 1.182224,0.032 2.149598,-0.1948 2.066505,1.1198 -1.681889,0.8945 -0.158767,-0.01 -0.34459,0.011 -0.393057,0.01 -0.212361,0 -0.0659,-0.024 -0.300255,-0.015 z m 9.394015,-13.2084 c -0.01776,-0.01 -0.154342,-0.1351 -0.30352,-0.2853 -0.421781,-0.4244 -0.7407,-0.645 -1.493709,-1.0335 -0.448027,-0.231 -1.153542,-0.4289 -1.573392,-0.4412 -0.274679,-0.01 -0.386565,-0.058 -0.385569,-0.172 4.52e-4,-0.052 0.08119,-0.094 0.323161,-0.1732 0.40435,-0.1315 1.062074,-0.036 1.592753,0.2308 0.200968,0.1012 0.451604,0.2609 0.75333,0.4805 0.353816,0.2574 1.069357,1.0214 1.212873,1.295 0.04664,0.09 -0.01824,0.1398 -0.125927,0.099 z m -16.164293,-0.1854 c 0,-0.065 0.136777,-0.268 0.316346,-0.4686 0.426361,-0.4762 0.591611,-0.6274 0.985837,-0.9024 0.171021,-0.1193 0.496442,-0.3221 0.516846,-0.3221 0.0041,0 0.07084,-0.029 0.148282,-0.065 0.215285,-0.1 0.561403,-0.2053 0.808399,-0.2467 0.238522,-0.04 0.559638,-0.037 0.635795,0.01 0.02367,0.013 0.09832,0.046 0.165879,0.072 0.131758,0.051 0.158947,0.085 0.123858,0.1501 -0.04405,0.082 -0.120376,0.1081 -0.41166,0.1388 -0.427636,0.045 -0.657816,0.101 -1.169498,0.2843 -0.510334,0.1829 -1.402056,0.7663 -1.823382,1.1931 -0.214908,0.2176 -0.296702,0.2621 -0.296702,0.1613 z"
       id="path3860"
       style="fill:&stroke_color;;fill-opacity:1;stroke:none" />
    <path
       d="m -507.45186,270.20447 a 180.95183,76.70784 0 1 1 -361.90365,0 180.95183,76.70784 0 1 1 361.90365,0 z"
       transform="matrix(-0.0229432,-0.00554395,-0.01070526,0.04391975,19.457406,994.86456)"
       id="path3863-4"
       style="fill:#ffffff;fill-opacity:1;fill-rule:evenodd;stroke:none" />
    <path
       d="m -507.45186,270.20447 a 180.95183,76.70784 0 1 1 -361.90365,0 180.95183,76.70784 0 1 1 361.90365,0 z"
       transform="matrix(0.0229432,-0.00554395,0.01070526,0.04391975,35.252771,994.75841)"
       id="path3863"
       style="fill:#ffffff;fill-opacity:1;fill-rule:evenodd;stroke:none" />
    <path
       d="m -603.17277,347.56793 a 66.873497,71.46286 0 1 1 -133.74699,0 66.873497,71.46286 0 1 1 133.74699,0 z"
       transform="matrix(-0.02116596,0.01518956,0.01545121,0.02153056,12.71548,1013.3944)"
       id="path3883-9"
       style="fill:&fill_color;;fill-rule:evenodd;stroke:none" />
    <path
       d="m -603.17277,347.56793 a 66.873497,71.46286 0 1 1 -133.74699,0 66.873497,71.46286 0 1 1 133.74699,0 z"
       transform="matrix(0.02116596,0.01518956,-0.01545121,0.02153056,41.797578,1013.3489)"
       id="path3883"
       style="fill:&fill_color;;fill-rule:evenodd;stroke:none" />
    <path
       d="m -624.15265,313.47556 a 49.171692,41.304222 0 1 1 -98.34338,0 49.171692,41.304222 0 1 1 98.34338,0 z"
       transform="matrix(0.02311205,0,0,0.02641301,38.019246,1002.3595)"
       id="path3905"
       style="fill:#000000;fill-opacity:1;fill-rule:evenodd;stroke:none" />
    <path
       d="m -624.15265,313.47556 a 49.171692,41.304222 0 1 1 -98.34338,0 49.171692,41.304222 0 1 1 98.34338,0 z"
       transform="matrix(0.02311205,0,0,0.02641301,48.102847,1002.4505)"
       id="path3905-8"
       style="fill:#000000;fill-opacity:1;fill-rule:evenodd;stroke:none" />
    <path
       d="m -664.80126,311.5087 a 34.747997,19.668676 0 1 1 -69.49599,0 34.747997,19.668676 0 1 1 69.49599,0 z"
       transform="matrix(0.01794307,-0.01459301,0.01459301,0.01794307,29.826692,994.02256)"
       id="path3927"
       style="fill:#ffffff;fill-opacity:1;fill-rule:evenodd;stroke:none" />
    <path
       d="m -664.80126,311.5087 a 34.747997,19.668676 0 1 1 -69.49599,0 34.747997,19.668676 0 1 1 69.49599,0 z"
       transform="matrix(0.01872547,-0.01494194,0.01522933,0.0183721,40.10777,993.65998)"
       id="path3927-2"
       style="fill:#ffffff;fill-opacity:1;fill-rule:evenodd;stroke:none" />
    <path
       d="m 14.666548,1033.6198 c 0.58998,0.6396 0.641205,0.9825 1.037137,1.4116 0.387768,0.4204 0.72737,1.0671 1.296421,1.1236 0.40656,0.04 0.846859,-0.2602 1.065947,-0.605 0.599168,-0.9431 0.432136,-3.1114 0.460947,-3.2266 0.0288,-0.1158 0.119489,-3.2151 -0.143981,-3.8029 -0.224714,-0.5013 -0.921893,-1.7863 -1.382839,-2.1608 -0.591331,-0.4803 -1.235815,-1.1153 -2.160706,-1.2388 -0.748003,-0.099 -1.97607,0.016 -2.794504,0.4898 -0.908742,0.5261 -1.459966,1.5297 -2.016667,2.42 -0.6699557,1.0715 -1.0989294,2.2789 -1.5557048,3.4571 -0.2228288,0.5749 -0.4420507,1.1557 -0.5761903,1.7575 -0.2062933,0.9253 -0.3644496,1.8753 -0.3457024,2.8232 0.00891,0.4183 -0.061303,0.9135 0.2016622,1.2388 0.2981293,0.369 1.2957975,0.992 1.3252319,0.5187 0.053881,-0.8672 -0.1531095,-1.6903 -0.1151846,-2.5353 0.035179,-0.7842 0.1134034,-1.1861 0.3169061,-2.3335 -0.2032058,1.4738 -0.201202,1.5525 -0.2304731,2.3335 -0.030577,0.8159 -0.08431,1.8706 0.028796,2.6792 0.068725,0.4914 0.1312155,0.7952 0.4033244,1.2101 0.1538368,0.2345 0.4130616,0.3905 0.6626236,0.5186 0.213611,0.1098 0.452159,0.2215 0.691419,0.2016 0.308179,-0.025 0.617381,-0.1841 0.835475,-0.4033 0.157518,-0.1584 0.250096,-0.3849 0.288095,-0.605 0.111622,-0.6469 -0.155173,-1.3043 -0.201677,-1.9591 -0.06947,-0.9778 -0.05744,-1.2149 -0.115184,-2.9385 0.01039,1.3874 0.01039,1.9424 0.08639,2.9097 0.0475,0.608 0.101232,1.2274 0.230488,1.8151 0.06739,0.3061 0.336678,0.5579 0.604987,0.7202 0.269199,0.1627 0.612348,0.2575 0.921907,0.2016 0.348627,-0.062 0.670179,-0.3008 0.893082,-0.5761 0.323185,-0.3993 0.40227,-0.9478 0.547379,-1.4406 0.130325,-0.4426 0.189535,-0.9032 0.288095,-1.354 0.103013,-0.4711 0.40996,-0.9384 0.316906,-1.4116 -0.09707,-0.4941 -0.351758,-0.5712 -0.864285,-1.2388 z"
       id="path4035"
       style="fill:&fill_color;;fill-opacity:1;stroke:&stroke_color;;stroke-width:0.75;stroke-linecap:round;stroke-linejoin:round;stroke-miterlimit:4;stroke-opacity:1;stroke-dasharray:none" />
    <path
       d="m 40.719614,1033.87 c -0.58998,0.6396 -0.6412,0.9825 -1.03713,1.4116 -0.38777,0.4204 -0.72737,1.0671 -1.29642,1.1236 -0.40656,0.04 -0.84686,-0.2602 -1.06595,-0.605 -0.59917,-0.9431 -0.43214,-3.1114 -0.46095,-3.2266 -0.0288,-0.1158 -0.11949,-3.2151 0.14398,-3.8029 0.22472,-0.5013 0.9219,-1.7862 1.38284,-2.1607 0.59133,-0.4803 1.23582,-1.1153 2.16071,-1.2388 0.748,-0.099 1.97607,0.016 2.7945,0.4898 0.90874,0.5261 1.45997,1.5297 2.01667,2.4199 0.66996,1.0715 1.09893,2.2789 1.5557,3.4571 0.22283,0.5749 0.44206,1.1557 0.57619,1.7575 0.2063,0.9253 0.36445,1.8753 0.34571,2.8232 -0.009,0.4183 0.0613,0.9135 -0.20167,1.2388 -0.29812,0.369 -1.29579,0.992 -1.32523,0.5187 -0.0539,-0.8672 0.15311,-1.6903 0.11519,-2.5353 -0.0352,-0.7842 -0.11341,-1.1861 -0.31691,-2.3335 0.20321,1.4738 0.2012,1.5525 0.23047,2.3335 0.0306,0.8159 0.0843,1.8706 -0.0288,2.6792 -0.0687,0.4914 -0.13122,0.7952 -0.40333,1.2101 -0.15383,0.2345 -0.41306,0.3905 -0.66262,0.5186 -0.21361,0.1098 -0.45216,0.2215 -0.69142,0.2016 -0.30818,-0.025 -0.61738,-0.1841 -0.83547,-0.4033 -0.15752,-0.1584 -0.2501,-0.3849 -0.2881,-0.605 -0.11162,-0.6469 0.15517,-1.3043 0.20168,-1.9591 0.0695,-0.9778 0.0574,-1.2149 0.11518,-2.9385 -0.0104,1.3874 -0.0104,1.9424 -0.0864,2.9097 -0.0475,0.608 -0.10123,1.2274 -0.23049,1.8151 -0.0674,0.3061 -0.33667,0.5579 -0.60498,0.7202 -0.2692,0.1627 -0.61235,0.2575 -0.92191,0.2016 -0.34863,-0.062 -0.67018,-0.3008 -0.89308,-0.5761 -0.32319,-0.3993 -0.40227,-0.9478 -0.54738,-1.4406 -0.13033,-0.4426 -0.18954,-0.9032 -0.2881,-1.354 -0.10301,-0.4711 -0.40996,-0.9384 -0.3169,-1.4116 0.0971,-0.4941 0.35176,-0.5712 0.86428,-1.2388 z"
       id="path4035-7"
       style="fill:&fill_color;;fill-opacity:1;stroke:&stroke_color;;stroke-width:0.75;stroke-linecap:round;stroke-linejoin:round;stroke-miterlimit:4;stroke-opacity:1;stroke-dasharray:none" />
  </g>
<text
     x="43"
     y="15"
     style="font-size:40px;font-style:normal;font-weight:normal;line-height:125%;letter-spacing:0px;word-spacing:0px;fill:&stroke_color;;fill-opacity:1;stroke:none;font-family:Sans"><tspan
       x="43"
       y="15"
       style="font-size:14px">4</tspan>
</text>
</svg>
