<?xml version="1.0" ?><!DOCTYPE svg  PUBLIC '-//W3C//DTD SVG 1.1//EN'  'http://www.w3.org/Graphics/SVG/1.1/DTD/svg11.dtd' [
	<!ENTITY stroke_color "#010101">
	<!ENTITY fill_color "#FFFFFF">
]>
<!-- Created with Inkscape (http://www.inkscape.org/) -->

<svg
   xmlns:dc="http://purl.org/dc/elements/1.1/"
   xmlns:cc="http://creativecommons.org/ns#"
   xmlns:rdf="http://www.w3.org/1999/02/22-rdf-syntax-ns#"
   xmlns:svg="http://www.w3.org/2000/svg"
   xmlns="http://www.w3.org/2000/svg"
   version="1.1"
   width="55"
   height="55"
   viewBox="0 0 55 55"
   id="svg2"
   xml:space="preserve"><defs
   id="defs8" /><metadata
   id="metadata17"><rdf:RDF><cc:Work
       rdf:about=""><dc:format>image/svg+xml</dc:format><dc:type
         rdf:resource="http://purl.org/dc/dcmitype/StillImage" /><dc:title></dc:title></cc:Work></rdf:RDF></metadata>
     <g
   id="activity-mathme"><path
     d="m 8.7843342,5.3133326 37.8503158,0 c 3.026464,0 5.462932,2.4364677 5.462932,5.4629324 l 0,32.647523 c 0,3.026464 -2.436468,5.462932 -5.462932,5.462932 l -37.8503158,0 c -3.0264645,0 -5.4629322,-2.436468 -5.4629322,-5.462932 l 0,-32.647523 c 0,-3.0264647 2.4364677,-5.4629324 5.4629322,-5.4629324 z"
     id="rect2983"
     fill="&fill_color;" height="32.442" stroke="&stroke_color;" stroke-linecap="round" stroke-width="3.5" width="43.457"  /><path
     d="m 41.147366,20 c -1.488317,1.3e-5 -2.65018,0.424995 -3.46875,1.21875 -0.545715,0.595335 -0.920115,1.306437 -1.09375,2.125 -0.04961,0.347283 -0.01192,0.639844 0.0625,0.9375 0.09921,0.272864 0.41659,0.406258 0.9375,0.40625 l 1.34375,0 0,-0.09375 c -3e-6,-0.71934 0.183975,-1.272246 0.53125,-1.71875 0.372076,-0.421678 0.892756,-0.656239 1.5625,-0.65625 0.595321,1.1e-5 1.058972,0.15274 1.40625,0.5 0.347266,0.322479 0.499994,0.779684 0.5,1.375 -6e-6,0.496114 -0.209762,0.991014 -0.65625,1.4375 -0.4465,0.446502 -1.087681,0.916597 -1.90625,1.4375 -0.198445,0.124032 -0.382423,0.275772 -0.53125,0.375 -0.148828,0.07443 -0.269336,0.0754 -0.34375,0.125 -1.041823,0.719358 -1.822841,1.500375 -2.34375,2.34375 -0.570518,0.917797 -0.84375,2.0281 -0.84375,3.21875 l 9.21875,0 0,-2.3125 -5.625,0 c 0.07442,-0.372076 0.411118,-0.728114 1.03125,-1.125 0.644933,-0.39688 1.172056,-0.733585 1.59375,-1.03125 1.190645,-0.793765 2.022247,-1.549003 2.46875,-2.21875 0.42168,-0.59532 0.624992,-1.332198 0.625,-2.25 -8e-6,-1.215447 -0.393741,-2.231026 -1.1875,-3 C 43.634845,20.374409 42.536455,20.000014 41.147366,20 z m -27.25,0.1875 -4.9062498,7.65625 0,2.3125 5.5937498,0 0,2.875 2.5625,0 0,-2.875 1.53125,0 0,-2.125 -1.53125,0 0,-5.71875 0,-0.8125 c -0.02482,-0.347263 -0.12696,-0.626936 -0.375,-0.875 -0.24806,-0.272852 -0.596678,-0.437489 -0.96875,-0.4375 l -1.90625,0 z m 13.75,2.0625 c -0.347277,8e-6 -0.626952,0.09571 -0.875,0.34375 -0.22325,0.24806 -0.343753,0.55254 -0.34375,0.875 -3e-6,0.322476 0.120512,0.595709 0.34375,0.84375 0.248048,0.223266 0.527723,0.343757 0.875,0.34375 0.322464,7e-6 0.589249,-0.120498 0.8125,-0.34375 0.24805,-0.248041 0.374996,-0.521274 0.375,-0.84375 -4e-6,-0.32246 -0.12696,-0.62694 -0.375,-0.875 -0.223251,-0.248051 -0.490036,-0.343742 -0.8125,-0.34375 z m -13,0.25 0,5.625 -3.5625,0 3.5625,-5.625 z m 9.625,3.28125 c -0.545715,9e-6 -0.84375,0.266791 -0.84375,0.8125 l 0,0.875 8.40625,0 0,-1.6875 -7.5625,0 z m 3.4375,2.8125 c -0.347275,-7e-6 -0.658202,0.120485 -0.90625,0.34375 -0.223238,0.248042 -0.312503,0.521274 -0.3125,0.84375 -3e-6,0.322461 0.08925,0.658188 0.3125,0.90625 0.248048,0.248041 0.558975,0.312492 0.90625,0.3125 0.322465,-8e-6 0.589247,-0.06445 0.8125,-0.3125 0.248039,-0.248062 0.374996,-0.583789 0.375,-0.90625 -4e-6,-0.322476 -0.126951,-0.595708 -0.375,-0.84375 -0.223253,-0.223251 -0.490035,-0.343757 -0.8125,-0.34375 z"
     id="path3785"
     fill="&stroke_color;" stroke="&stroke_color;" stroke-width="0.2" /></g>
     </svg>
