<?xml version="1.0" ?><!DOCTYPE svg  PUBLIC '-//W3C//DTD SVG 1.1//EN'  'http://www.w3.org/Graphics/SVG/1.1/DTD/svg11.dtd' [
	<!ENTITY stroke_color "#00ff03">
	<!ENTITY fill_color "#ff0000">
]><!--Generator: Xara Xtreme (www.xara.com), SVG filter version: 1.0.0.13--><svg fill-rule="evenodd" height="41.25pt" overflow="visible" stroke-linejoin="bevel" stroke-width="0.501" version="1.1" viewBox="0 0 41.25 41.25" width="41.25pt" xmlns="http://www.w3.org/2000/svg" xmlns:xlink="http://www.w3.org/1999/xlink">
 <defs>
  <marker id="DefaultArrow2" markerHeight="1" markerUnits="strokeWidth" markerWidth="1" orient="auto" overflow="visible" viewBox="0 0 1 1">
   <!-- REF_ARROW_STRAIGHT (-2) -->
   <g transform="scale(0.0092592592)">
    <!-- 1/108 -->
    <path d="M -9 54 L -9 -54 L 117 0 z"/>
   </g>
  </marker>
  <marker id="DefaultArrow3" markerHeight="1" markerUnits="strokeWidth" markerWidth="1" orient="auto" overflow="visible" viewBox="0 0 1 1">
   <!-- REF_ARROW_ANGLED -->
   <g transform="scale(0.0092592592)">
    <path d="M -27 54 L -9 0 L -27 -54 L 135 0 z"/>
   </g>
  </marker>
  <marker id="DefaultArrow4" markerHeight="1" markerUnits="strokeWidth" markerWidth="1" orient="auto" overflow="visible" viewBox="0 0 1 1">
   <!-- REF_ARROW_ROUNDED -->
   <g transform="scale(0.0092592592)">
    <path d="M -9,0 L -9,-45 C -9,-51.708 2.808,-56.580 9,-54 L 117,-9 C 120.916,-7.369 126.000,-4.242 126,0 C 126,4.242 120.916,7.369 117,9 L 9,54 C 2.808,56.580 -9,51.708 -9,45 z"/>
   </g>
  </marker>
  <marker id="DefaultArrow5" markerHeight="1" markerUnits="strokeWidth" markerWidth="1" orient="auto" overflow="visible" viewBox="0 0 1 1">
   <!-- REF_ARROW_SPOT -->
   <g transform="scale(0.0092592592)">
    <path d="M -54, 0 C -54,29.807 -29.807,54 0,54 C 29.807,54 54,29.807 54,0 C 54,-29.807 29.807,-54 0,-54 C -29.807,-54 -54,-29.807 -54,0 z"/>
   </g>
  </marker>
  <marker id="DefaultArrow6" markerHeight="1" markerUnits="strokeWidth" markerWidth="1" orient="auto" overflow="visible" viewBox="0 0 1 1">
   <!-- REF_ARROW_DIAMOND -->
   <g transform="scale(0.0092592592)">
    <path d="M -63,0 L 0,63 L 63,0 L 0,-63 z"/>
   </g>
  </marker>
  <marker id="DefaultArrow7" markerHeight="1" markerUnits="strokeWidth" markerWidth="1" orient="auto" overflow="visible" viewBox="0 0 1 1">
   <!-- REF_ARROW_FEATHER -->
   <g transform="scale(0.0092592592)">
    <path d="M 18,-54 L 108,-54 L 63,0 L 108,54 L 18, 54 L -36,0 z"/>
   </g>
  </marker>
  <marker id="DefaultArrow8" markerHeight="1" markerUnits="strokeWidth" markerWidth="1" orient="auto" overflow="visible" viewBox="0 0 1 1">
   <!-- REF_ARROW_FEATHER2 -->
   <g transform="scale(0.0092592592)">
    <path d="M -36,0 L 18,-54 L 54,-54 L 18,-18 L 27,-18 L 63,-54 L 99,-54 L 63,-18 L 72,-18 L 108,-54 L 144,-54 L 90,0 L 144,54 L 108,54 L 72,18 L 63,18 L 99,54 L 63,54 L 27,18 L 18,18 L 54,54 L 18,54 z"/>
   </g>
  </marker>
  <marker id="DefaultArrow9" markerHeight="1" markerUnits="strokeWidth" markerWidth="1" orient="auto" overflow="visible" viewBox="0 0 1 1">
   <!-- REF_ARROW_HOLLOWDIAMOND -->
   <g transform="scale(0.0092592592)">
    <path d="M 0,45 L -45,0 L 0, -45 L 45, 0 z M 0, 63 L-63, 0 L 0, -63 L 63, 0 z"/>
   </g>
  </marker>
  <filter id="StainedFilter">
   <feBlend in="SourceGraphic" in2="BackgroundImage" mode="multiply" result="blend"/>
   <feComposite in="blend" in2="SourceAlpha" operator="in" result="comp"/>
  </filter>
  <filter id="BleachFilter">
   <feBlend in="SourceGraphic" in2="BackgroundImage" mode="screen" result="blend"/>
   <feComposite in="blend" in2="SourceAlpha" operator="in" result="comp"/>
  </filter>
  <filter id="InvertTransparencyBitmapFilter">
   <feComponentTransfer>
    <feFuncR amplitude="1.055" exponent=".416666666" offset="-0.055" type="gamma"/>
    <feFuncG amplitude="1.055" exponent=".416666666" offset="-0.055" type="gamma"/>
    <feFuncB amplitude="1.055" exponent=".416666666" offset="-0.055" type="gamma"/>
   </feComponentTransfer>
   <feComponentTransfer>
    <feFuncR intercept="1" slope="-1" type="linear"/>
    <feFuncG intercept="1" slope="-1" type="linear"/>
    <feFuncB intercept="1" slope="-1" type="linear"/>
    <feFuncA intercept="0" slope="1" type="linear"/>
   </feComponentTransfer>
   <feComponentTransfer>
    <feFuncR amplitude="1" exponent="2.4" offset="0" type="gamma"/>
    <feFuncG amplitude="1" exponent="2.4" offset="0" type="gamma"/>
    <feFuncB amplitude="1" exponent="2.4" offset="0" type="gamma"/>
   </feComponentTransfer>
  </filter>
 </defs>
 <g fill="none" font-family="Times New Roman" font-size="16" id="Document" stroke="black" transform="scale(1 -1)">
  <g id="Spread" transform="translate(0 -41.25)">
   <g id="Layer 1">
    <g id="Group" stroke="none">
     <path d="M 25.445,12.43 C 26.404,12.781 27.426,12.812 28.4,13.1 C 29.936,13.56 31.16,14.558 32.611,15.205 L 37.297,17.091 C 34.966,15.883 32.681,14.168 30.443,12.656 C 29.001,11.666 27.386,10.996 25.757,10.77 C 25.632,10.747 25.499,10.747 25.367,10.785 C 25.328,10.801 25.281,10.825 25.242,10.856 C 25.211,10.879 25.18,10.91 25.156,10.949 C 25.133,10.988 25.117,11.027 25.102,11.074 C 25.094,11.113 25.086,11.167 25.086,11.214 C 25.078,11.316 25.086,11.432 25.109,11.526 C 25.18,11.845 25.297,12.157 25.445,12.43 Z" fill="#92d9d9" marker-end="none" marker-start="none"/>
     <path d="M 17.616,23.879 C 16.665,23.544 15.659,23.505 14.692,23.232 C 13.187,22.796 11.916,21.884 10.473,21.276 L 5.795,19.522 C 8.142,20.637 10.442,22.203 12.719,23.598 C 14.185,24.502 15.784,25.126 17.398,25.352 C 17.522,25.375 17.647,25.383 17.772,25.344 C 17.811,25.337 17.858,25.313 17.897,25.29 C 17.92,25.266 17.951,25.235 17.975,25.204 C 17.99,25.173 18.006,25.134 18.014,25.095 C 18.029,25.056 18.029,25.009 18.029,24.97 C 18.029,24.877 18.014,24.768 17.99,24.682 C 17.904,24.386 17.764,24.113 17.616,23.879 Z" fill="#92d9d9" marker-end="none" marker-start="none"/>
     <path d="M 18.622,25.243 C 17.904,24.993 17.148,24.962 16.423,24.752 C 15.292,24.432 14.333,23.746 13.249,23.287 L 9.74,21.969 C 11.502,22.803 13.233,23.98 14.941,25.032 C 16.041,25.71 17.242,26.178 18.45,26.35 C 18.544,26.365 18.645,26.365 18.739,26.342 C 18.77,26.334 18.801,26.318 18.825,26.295 C 18.848,26.279 18.872,26.264 18.887,26.233 C 18.903,26.209 18.91,26.186 18.918,26.155 C 18.926,26.123 18.934,26.092 18.934,26.061 C 18.934,25.991 18.918,25.913 18.903,25.843 C 18.833,25.625 18.731,25.414 18.622,25.243 Z" fill="#4dc2c2" marker-end="none" marker-start="none"/>
     <path d="M 25.109,27.004 C 26.225,27.573 27.308,27.659 28.486,27.744 C 29.671,27.83 30.887,27.815 32.057,28.041 C 32.213,28.072 32.369,28.158 32.494,28.29 C 32.588,28.384 32.681,28.516 32.728,28.672 C 32.743,28.734 32.751,28.797 32.751,28.859 C 32.751,28.882 32.743,28.914 32.736,28.937 C 32.728,28.961 32.712,28.984 32.704,29.007 C 32.665,29.054 32.619,29.077 32.572,29.085 C 32.502,29.109 32.432,29.093 32.361,29.077 C 31.574,28.937 30.802,29 30.007,29.03 C 28.93,29.069 27.69,28.929 26.63,28.68 C 25.881,28.508 25.109,28.111 24.392,27.76 C 24.634,27.511 24.875,27.254 25.109,27.004 Z" fill="#4dc2c2" marker-end="none" marker-start="none"/>
     <path d="M 36.385,11.69 C 36.432,11.924 36.487,12.157 36.564,12.375 C 36.588,12.43 36.603,12.477 36.635,12.523 C 36.642,12.539 36.65,12.547 36.658,12.555 C 36.665,12.562 36.673,12.57 36.681,12.57 C 36.689,12.562 36.697,12.562 36.697,12.555 C 36.705,12.547 36.712,12.531 36.712,12.523 C 36.728,12.485 36.736,12.446 36.736,12.415 C 36.751,12.298 36.744,12.173 36.744,12.056 C 36.728,11.83 36.705,11.557 36.619,11.362 C 36.611,11.331 36.588,11.308 36.572,11.3 C 36.564,11.292 36.549,11.292 36.541,11.292 C 36.533,11.3 36.525,11.308 36.518,11.316 C 36.487,11.347 36.471,11.394 36.455,11.432 C 36.424,11.51 36.401,11.588 36.385,11.674 C 36.385,11.674 36.385,11.682 36.385,11.69 Z" fill="#4dc2c2" marker-end="none" marker-start="none"/>
     <path d="M 23.215,9.928 C 23.909,10.185 24.642,10.201 25.343,10.411 C 26.443,10.747 27.332,11.456 28.369,11.931 L 31.745,13.287 C 30.061,12.422 28.424,11.183 26.817,10.092 C 25.772,9.383 24.611,8.899 23.441,8.736 C 23.347,8.72 23.254,8.72 23.16,8.744 C 23.129,8.759 23.098,8.775 23.074,8.798 C 23.051,8.814 23.028,8.837 23.012,8.86 C 22.996,8.892 22.981,8.923 22.973,8.954 C 22.965,8.985 22.957,9.016 22.957,9.056 C 22.95,9.125 22.957,9.211 22.973,9.281 C 23.028,9.515 23.113,9.733 23.215,9.928 Z" fill="#4dc2c2" marker-end="none" marker-start="none"/>
     <path d="M 30.622,11.845 C 30.607,11.861 30.583,11.869 30.568,11.884 C 30.7,12.57 31.168,12.734 31.34,13.357 C 31.379,13.474 31.394,13.591 31.441,13.708 C 31.449,13.732 31.464,13.763 31.472,13.786 C 31.48,13.794 31.488,13.802 31.488,13.809 C 31.496,13.817 31.504,13.817 31.504,13.817 C 31.511,13.817 31.511,13.817 31.519,13.817 C 31.519,13.817 31.527,13.809 31.527,13.802 C 31.535,13.786 31.543,13.771 31.543,13.747 C 31.558,13.685 31.558,13.615 31.558,13.552 C 31.566,13.357 31.55,13.163 31.527,12.976 C 31.511,12.828 31.48,12.648 31.418,12.531 C 31.277,12.266 31.16,11.986 31.005,11.744 C 30.973,11.69 30.934,11.643 30.895,11.604 C 30.864,11.573 30.825,11.549 30.786,11.549 C 30.771,11.549 30.755,11.557 30.739,11.565 C 30.724,11.581 30.708,11.596 30.693,11.619 C 30.662,11.682 30.638,11.768 30.622,11.845 Z" fill="#36a1a1" marker-end="none" marker-start="none"/>
     <path d="M 29.921,10.006 C 29.96,10.17 29.999,10.333 30.053,10.49 C 30.069,10.52 30.077,10.56 30.1,10.591 C 30.108,10.598 30.108,10.606 30.116,10.614 C 30.123,10.614 30.131,10.622 30.131,10.622 C 30.139,10.622 30.147,10.614 30.147,10.614 C 30.155,10.606 30.155,10.598 30.162,10.591 C 30.17,10.567 30.17,10.536 30.17,10.513 C 30.178,10.427 30.178,10.342 30.178,10.264 C 30.17,10.108 30.147,9.913 30.092,9.772 C 30.084,9.757 30.069,9.733 30.053,9.733 C 30.053,9.726 30.046,9.726 30.037,9.726 C 30.03,9.733 30.022,9.733 30.014,9.741 C 29.999,9.764 29.983,9.796 29.975,9.827 C 29.952,9.882 29.936,9.936 29.928,9.991 C 29.928,9.998 29.928,9.998 29.921,10.006 Z" fill="#36a1a1" marker-end="none" marker-start="none"/>
     <path d="M 20.696,8.767 C 21.172,8.946 21.686,8.962 22.178,9.11 C 22.95,9.344 23.573,9.843 24.306,10.178 L 26.669,11.129 C 25.492,10.52 24.338,9.648 23.207,8.884 C 22.482,8.385 21.671,8.042 20.852,7.933 C 20.79,7.925 20.719,7.918 20.657,7.941 C 20.634,7.949 20.61,7.956 20.595,7.972 C 20.579,7.988 20.564,8.003 20.548,8.027 C 20.54,8.042 20.532,8.066 20.524,8.081 C 20.517,8.105 20.517,8.128 20.509,8.159 C 20.509,8.206 20.517,8.268 20.524,8.315 C 20.564,8.479 20.618,8.635 20.696,8.767 Z" fill="#36a1a1" marker-end="none" marker-start="none"/>
     <path d="M 11.518,24.565 C 11.534,24.557 11.557,24.541 11.573,24.526 C 11.378,23.793 10.856,23.653 10.614,22.998 C 10.575,22.874 10.544,22.757 10.489,22.64 C 10.473,22.609 10.458,22.578 10.442,22.554 C 10.434,22.546 10.427,22.538 10.427,22.531 C 10.419,22.523 10.411,22.523 10.403,22.523 C 10.403,22.523 10.395,22.523 10.395,22.523 C 10.388,22.531 10.388,22.531 10.38,22.538 C 10.372,22.554 10.372,22.578 10.364,22.593 C 10.356,22.655 10.356,22.733 10.356,22.796 C 10.372,22.998 10.395,23.193 10.434,23.388 C 10.465,23.544 10.505,23.731 10.583,23.848 C 10.754,24.12 10.91,24.417 11.097,24.666 C 11.136,24.721 11.183,24.775 11.23,24.814 C 11.261,24.845 11.308,24.869 11.347,24.869 C 11.37,24.869 11.386,24.861 11.401,24.853 C 11.417,24.837 11.433,24.822 11.448,24.798 C 11.487,24.728 11.502,24.65 11.518,24.565 Z" fill="#36a1a1" marker-end="none" marker-start="none"/>
     <path d="M 12.415,26.474 C 12.36,26.303 12.306,26.131 12.236,25.975 C 12.22,25.936 12.204,25.897 12.181,25.866 C 12.173,25.859 12.165,25.851 12.158,25.843 C 12.15,25.835 12.142,25.835 12.142,25.835 C 12.134,25.835 12.126,25.835 12.126,25.843 C 12.119,25.851 12.119,25.859 12.111,25.866 C 12.103,25.89 12.103,25.921 12.103,25.944 C 12.095,26.03 12.103,26.116 12.111,26.202 C 12.134,26.373 12.165,26.568 12.236,26.708 C 12.244,26.724 12.259,26.747 12.283,26.755 C 12.283,26.755 12.29,26.755 12.298,26.755 C 12.306,26.755 12.314,26.747 12.321,26.739 C 12.345,26.716 12.353,26.685 12.368,26.653 C 12.384,26.599 12.399,26.544 12.407,26.482 C 12.407,26.482 12.407,26.474 12.415,26.474 Z" fill="#36a1a1" marker-end="none" marker-start="none"/>
     <path d="M 22.864,27.909 C 22.31,27.714 21.725,27.69 21.172,27.526 C 20.298,27.277 19.558,26.747 18.723,26.396 L 16.002,25.375 C 17.366,26.022 18.708,26.934 20.026,27.744 C 20.883,28.267 21.803,28.633 22.739,28.766 C 22.809,28.774 22.887,28.781 22.957,28.758 C 22.981,28.75 23.004,28.742 23.028,28.727 C 23.043,28.711 23.059,28.695 23.074,28.672 C 23.082,28.656 23.09,28.633 23.098,28.61 C 23.105,28.586 23.105,28.563 23.105,28.54 C 23.105,28.485 23.098,28.422 23.082,28.376 C 23.028,28.204 22.95,28.041 22.864,27.909 Z" fill="#36a1a1" marker-end="none" marker-start="none"/>
     <path d="M 12.544,8.254 C 12.544,8.254 11.152,9.392 10.203,11.036 C 9.254,12.679 9.002,13.185 9.002,13.185 C 9.002,13.185 7.926,13.122 7.041,13.88 C 6.155,14.639 4.89,15.145 4.89,16.788 C 4.89,18.432 4.574,19.507 5.143,20.645 C 5.712,21.783 6.408,23.806 6.345,24.817 C 6.282,25.828 6.788,26.46 7.294,27.029 C 7.8,27.598 8.496,28.041 8.496,28.041 L 8.875,28.61 C 8.875,28.61 7.547,29.685 7.483,30.949 C 7.42,32.213 6.155,34.11 5.143,35.501 C 4.131,36.891 4.005,38.092 4.068,39.357 C 4.131,40.621 4.005,41.822 5.523,40.874 C 7.041,39.926 9.381,37.839 11.342,35.248 C 13.302,32.656 14.125,31.202 14.125,31.202 C 14.125,31.202 15.832,33.667 18.362,35.88 C 20.892,38.092 23.549,39.42 23.422,37.081 C 23.296,34.742 23.422,34.615 23.422,34.615 C 23.422,34.615 27.154,34.489 29.368,33.667 C 31.581,32.845 33.922,30.696 34.807,28.041 C 35.692,25.386 36.198,25.196 36.704,24.564 C 37.211,23.932 37.843,22.415 37.717,20.139 C 37.59,17.863 37.337,17.421 37.717,16.03 C 38.096,14.639 37.084,11.225 36.388,10.404 C 35.692,9.582 35.566,6.295 35.376,4.904 C 35.186,3.513 34.111,0.479 32.783,0.289 C 31.455,0.099 30.633,0.542 30.633,0.542 C 30.633,0.542 30.127,-0.28 28.862,0.036 C 27.597,0.352 27.533,0.732 27.533,0.732 C 27.533,0.732 27.154,0.605 26.648,0.668 C 26.142,0.732 25.256,1.68 26.585,4.019 C 27.913,6.358 28.862,7.432 29.051,8.001 C 29.241,8.57 29.747,10.024 28.925,9.392 C 28.103,8.76 26.648,5.915 26.332,4.714 C 26.015,3.513 25.699,0.795 25.13,0.415 C 24.561,0.036 23.612,0.858 23.612,0.858 C 23.612,0.858 22.727,0.352 21.841,0.415 C 20.956,0.479 20.956,0.984 20.956,0.984 C 20.956,0.984 20.956,-0.027 19.754,0.542 C 18.552,1.111 18.489,2.185 19.311,3.134 C 20.133,4.082 20.639,5.283 20.639,5.283 C 20.639,5.283 19.691,5.599 18.868,5.852 C 18.046,6.105 17.16,5.978 17.16,5.978 C 17.16,5.978 17.287,3.829 16.781,2.818 C 16.275,1.806 15.579,1.49 15.136,1.869 C 14.694,2.249 14.441,2.122 14.441,2.122 C 14.441,2.122 12.48,0.984 11.405,2.185 C 10.33,3.387 11.215,4.588 11.911,5.03 C 12.607,5.473 12.986,5.662 12.986,6.231 C 12.986,6.8 12.544,8.254 12.544,8.254 Z" fill="#000000" marker-end="none" marker-start="none"/>
     <path d="M 10.393,12.806 C 10.393,12.806 12.923,7.748 17.477,6.927 C 22.031,6.105 22.284,6.295 21.778,5.157 C 21.272,4.019 19.88,2.691 20.196,1.996 C 20.513,1.3 20.892,1.364 21.335,1.806 C 21.778,2.249 21.398,1.3 21.841,1.237 C 22.284,1.174 22.79,1.49 23.043,2.249 C 23.296,3.007 23.106,2.059 23.802,1.806 C 24.498,1.553 25.256,2.375 25.573,4.208 C 25.889,6.042 26.015,7.306 26.648,8.065 C 27.28,8.823 28.988,10.656 29.494,10.973 C 30,11.289 32.151,10.404 30.633,8.001 C 29.115,5.599 27.344,4.208 26.964,3.197 C 26.585,2.185 26.458,1.743 26.964,1.49 C 27.47,1.237 28.039,2.818 28.039,2.818 C 28.039,2.818 28.103,0.858 29.178,0.858 C 30.253,0.858 30.569,2.375 30.569,2.375 C 30.569,2.375 30.316,1.111 31.771,1.237 C 33.226,1.364 33.922,2.059 34.491,5.283 C 35.06,8.507 34.87,10.088 36.009,11.478 C 37.147,12.869 37.274,14.829 36.894,16.978 C 36.515,19.127 37.717,21.593 36.009,23.932 C 34.301,26.271 34.554,27.282 33.669,28.736 C 32.783,30.19 31.581,31.581 29.874,32.592 C 28.166,33.604 24.308,33.604 23.738,33.604 C 23.169,33.604 22.41,32.782 22.41,32.782 C 22.41,32.782 20.196,28.041 19.501,27.282 C 18.805,26.524 23.106,22.162 19.817,18.495 C 16.528,14.829 21.398,20.265 19.691,24.627 C 17.983,28.989 18.552,27.219 20.133,30.001 C 21.715,32.782 22.284,34.426 22.284,35.437 C 22.284,36.449 22.284,37.144 22.284,37.144 C 22.284,37.144 20.26,37.081 17.54,33.92 C 14.82,30.759 14.82,29.874 14.82,29.874 C 14.82,29.874 13.302,30.064 13.049,31.328 C 12.796,32.592 10.646,35.058 8.496,37.207 C 6.345,39.357 5.333,39.926 5.333,39.926 C 5.333,39.926 4.258,37.966 6.218,35.627 C 8.179,33.288 8.306,32.213 8.369,31.202 C 8.432,30.19 9.571,29.432 10.013,28.989 C 10.456,28.547 10.14,28.104 9.065,27.346 C 7.989,26.587 7.294,25.449 7.294,24.88 C 7.294,24.311 7.294,24.058 7.294,24.058 C 7.294,24.058 6.092,21.024 5.712,20.265 C 5.333,19.507 5.649,17.673 5.649,17.673 C 5.649,17.673 5.46,17.041 6.472,17.041 C 7.483,17.041 7.61,16.536 6.978,15.777 C 6.345,15.018 7.104,14.892 7.547,14.576 C 7.989,14.26 8.938,14.702 8.938,14.702 C 8.938,14.702 9.002,14.26 8.369,14.07 C 7.736,13.88 9.634,14.007 11.911,14.386 C 14.188,14.765 15.959,15.777 15.959,15.777 C 15.959,15.777 14.125,13.817 11.911,13.754 C 9.697,13.691 10.393,12.806 10.393,12.806 Z" fill="#ffffff" marker-end="none" marker-start="none"/>
     <path d="M 18.933,18.016 C 19.506,19.32 20.661,22.147 19.691,24.627 C 17.983,28.989 18.552,27.219 20.133,30.001 C 21.715,32.782 22.284,34.426 22.284,35.437 C 22.284,36.449 22.284,37.144 22.284,37.144 C 22.284,37.144 20.26,37.081 17.54,33.92 C 14.82,30.759 14.82,29.874 14.82,29.874 C 14.82,29.874 13.302,30.064 13.049,31.328 C 12.796,32.592 10.646,35.058 8.496,37.207 C 6.345,39.357 5.333,39.926 5.333,39.926 C 5.333,39.926 4.258,37.966 6.218,35.627 C 8.179,33.288 8.306,32.213 8.369,31.202 C 8.432,30.19 9.571,29.432 10.013,28.989 C 10.456,28.547 10.14,28.104 9.065,27.346 C 7.989,26.587 7.294,25.449 7.294,24.88 C 7.294,24.867 7.294,24.855 7.294,24.843 C 7.574,24.716 7.888,24.627 8.179,24.627 C 8.875,24.627 9.634,26.208 10.709,27.282 C 11.784,28.357 12.986,27.598 12.354,26.84 C 11.721,26.081 10.836,24.69 10.709,23.806 C 10.583,22.92 10.393,20.013 10.962,19.507 C 11.531,19.001 12.86,18.306 11.784,18.306 C 10.709,18.306 15.2,15.651 15.136,15.587 C 15.073,15.524 16.781,15.967 17.224,16.346 C 17.544,16.621 18.362,17.425 18.933,18.016 Z" fill="&fill_color;" marker-end="none" marker-start="none"/>
     <path d="M 18.933,18.016 C 19.506,19.32 20.661,22.147 19.691,24.627 C 17.983,28.989 18.552,27.219 20.133,30.001 C 21.715,32.782 22.284,34.426 22.284,35.437 C 22.284,36.449 22.284,37.144 22.284,37.144 C 22.284,37.144 22.269,37.144 22.242,37.141 C 20.293,36.056 18.179,34.532 17.222,33.096 C 15.933,31.165 14.484,28.267 16.255,28.267 C 18.027,28.267 17.705,27.302 16.9,26.98 C 16.094,26.658 16.9,25.209 17.705,23.921 C 18.51,22.634 18.832,21.99 16.577,19.254 C 15.582,18.046 14.147,17.434 12.854,17.127 C 13.882,16.409 15.171,15.621 15.136,15.587 C 15.073,15.524 16.781,15.967 17.224,16.346 C 17.544,16.621 18.362,17.425 18.933,18.016 Z" fill="&stroke_color;" marker-end="none" marker-start="none"/>
     <path d="M 13.239,7.748 C 13.302,7.812 15.326,6.105 13.239,4.904 C 11.152,3.703 11.658,2.375 13.429,2.628 C 15.2,2.881 14.757,3.387 14.757,3.387 C 14.757,3.387 14.378,2.628 15.326,2.628 C 16.275,2.628 16.275,3.829 16.275,4.588 C 16.275,5.346 16.781,6.168 16.528,6.484 C 16.275,6.8 15.516,6.611 14.757,6.99 C 13.998,7.369 13.176,7.685 13.239,7.748 Z" fill="#ffffff" marker-end="none" marker-start="none"/>
     <path d="M 14.607,25.919 C 14.607,25.822 11.982,25.628 11.982,23.296 C 11.982,20.964 11.69,20.38 11.69,20.38 C 11.69,20.38 12.468,20.478 14.413,20.672 C 16.357,20.866 16.551,23.393 16.357,24.656 C 16.163,25.919 14.607,26.016 14.607,25.919 Z" fill="#54381e" marker-end="none" marker-start="none"/>
     <path d="M 15.385,24.753 C 15.385,24.753 15.482,21.935 13.926,21.741 C 12.371,21.547 12.274,23.976 13.246,24.753 C 14.218,25.53 15.385,24.753 15.385,24.753 Z" fill="#000000" marker-end="none" marker-start="none"/>
     <path d="M 13.732,23.976 C 13.732,23.976 14.218,23.198 13.246,23.101 C 12.274,23.004 13.246,24.267 13.246,24.267 L 13.732,23.976 Z" fill="#ffffff" marker-end="none" marker-start="none"/>
     <path d="M 5.839,16.725 C 5.839,16.725 7.167,17.104 6.788,16.283 C 6.408,15.461 6.472,15.082 6.029,15.777 C 5.586,16.472 5.839,16.725 5.839,16.725 Z" fill="&fill_color;" marker-end="none" marker-start="none"/>
     <path d="M 16.085,28.926 C 16.085,28.926 16.402,31.708 18.425,33.604 C 20.45,35.501 21.715,36.069 21.715,36.069 C 21.715,36.069 21.715,32.782 19.501,30.443 C 17.287,28.104 16.085,28.926 16.085,28.926 Z" fill="#000000" marker-end="none" marker-start="none"/>
     <path d="M 5.04,38.477 C 5.053,37.714 5.31,36.711 6.218,35.627 C 8.179,33.288 8.306,32.213 8.369,31.202 C 8.432,30.19 9.571,29.432 10.013,28.989 C 10.069,28.933 10.113,28.878 10.145,28.821 C 10.353,28.823 10.536,28.838 10.709,28.863 C 11.152,28.926 11.089,29.369 10.899,29.558 C 10.709,29.748 8.622,33.288 7.926,35.058 C 7.423,36.34 5.925,37.687 5.04,38.477 Z" fill="&stroke_color;" marker-end="none" marker-start="none"/>
     <path d="M 18.109,30.253 C 18.109,30.253 19.817,30.443 20.45,32.466 C 21.082,34.489 21.462,35.437 20.386,34.678 C 19.311,33.92 18.489,33.098 18.236,32.213 C 17.983,31.328 18.109,30.253 18.109,30.253 Z" fill="&fill_color;" marker-end="none" marker-start="none"/>
     <path d="M 29.235,10.773 C 29.339,10.862 29.427,10.93 29.494,10.973 C 30,11.289 32.151,10.404 30.633,8.001 C 29.739,6.587 28.758,5.524 28.024,4.682 C 28.127,4.742 28.239,4.816 28.356,4.904 C 29.368,5.662 32.277,6.042 33.352,4.714 C 33.707,4.276 34.02,4.196 34.303,4.335 C 34.368,4.624 34.43,4.939 34.491,5.283 C 34.911,7.661 34.918,9.145 35.349,10.318 C 35.053,11.598 34.83,12.835 35.313,13.438 C 36.278,14.643 36.495,16.136 36.842,17.368 C 36.648,19.422 37.614,21.733 36.009,23.932 C 34.301,26.271 34.554,27.282 33.669,28.736 C 32.783,30.19 31.581,31.581 29.874,32.592 C 28.166,33.604 24.308,33.604 23.738,33.604 C 23.401,33.604 22.995,33.314 22.722,33.079 C 22.545,32.006 22.761,30.411 24.687,28.736 C 28.103,25.765 31.138,19.064 30,17.041 C 28.862,15.018 27.85,14.639 30.19,14.765 C 32.53,14.892 30.063,12.427 28.545,11.731 C 27.554,11.277 28.424,10.958 29.235,10.773 Z" fill="&fill_color;" marker-end="none" marker-start="none"/>
     <path d="M 24.47,14.088 C 24.631,14.088 26.318,10.313 24.47,8.867 C 22.621,7.422 20.612,9.349 20.452,11.277 C 20.291,13.205 22.059,14.811 22.3,16.257 C 22.541,17.703 24.47,17.301 24.631,16.578 C 24.791,15.856 24.309,14.088 24.47,14.088 Z" fill="&fill_color;" marker-end="none" marker-start="none"/>
     <path d="M 19.627,14.449 C 19.564,14.323 20.196,11.668 18.995,12.49 C 17.793,13.311 17.92,14.639 18.236,15.018 C 18.552,15.398 19.691,14.576 19.627,14.449 Z" fill="&fill_color;" marker-end="none" marker-start="none"/>
     <path d="M 31.695,5.54 C 32.367,5.438 32.973,5.182 33.352,4.714 C 33.707,4.276 34.02,4.196 34.303,4.335 C 34.368,4.624 34.43,4.939 34.491,5.283 C 34.911,7.661 34.918,9.145 35.349,10.318 C 35.053,11.598 34.83,12.835 35.313,13.438 C 36.278,14.643 36.495,16.136 36.842,17.368 C 36.648,19.422 37.614,21.733 36.009,23.932 C 34.301,26.271 34.554,27.282 33.669,28.736 C 32.783,30.19 31.581,31.581 29.874,32.592 C 28.166,33.604 24.308,33.604 23.738,33.604 C 23.588,33.604 23.425,33.547 23.266,33.463 C 23.34,33.446 23.419,33.431 23.502,33.418 C 28.655,32.613 26.884,29.716 32.359,26.014 C 37.834,22.312 33.486,14.103 33.486,14.103 C 33.486,14.103 31.232,10.562 32.198,9.758 C 33.164,8.953 34.614,7.987 32.842,7.021 C 31.961,6.541 31.718,5.981 31.695,5.54 Z" fill="&stroke_color;" marker-end="none" marker-start="none"/>
    </g>
   </g>
  </g>
 </g>
</svg>