<?xml version="1.0" encoding="UTF-8"?>
<!DOCTYPE svg PUBLIC "-//W3C//DTD SVG 1.1//EN" "http://www.w3.org/Graphics/SVG/1.1/DTD/svg11.dtd" [
  <!ENTITY fill_color "#FFFFFF">
  <!ENTITY stroke_color "#000000">
]>
<svg xmlns="http://www.w3.org/2000/svg" width="48" height="48">
  <g
     transform="matrix(0.7841945,0,0,0.7841945,-0.404643,-6.3643322e-2)"
     id="g2177">
    <path
       style="fill:&fill_color;;fill-rule:evenodd;stroke:&stroke_color;;stroke-width:1.875"
       d="M 52.27842,33.464954 C 52.652002,29.768513 50.878695,28.604257 48.754824,28.369478 C 43.879317,27.901967 38.409862,26.61097 38.198878,29.668589 C 37.402772,33.824171 36.881231,36.51102 36.082649,43.323409 C 35.702789,46.19626 37.142344,54.547371 30.849441,55.125682 C 24.420437,55.716957 21.003087,51.132523 22.812593,46.729063 C 25.358444,40.695725 31.78962,44.537067 32.448185,42.280894 C 34.392319,35.426535 34.120835,27.539564 35.692488,20.544512 C 35.754124,20.270186 36.581711,19.993372 37.063423,19.926957 C 38.324628,19.622207 53.625263,20.87144 54.605143,21.505075 C 55.086854,21.438661 55.758653,22.015085 55.951252,22.200179 C 57.570098,23.755946 56.595074,30.293652 56.29716,31.673115 C 55.501054,35.828697 54.945675,38.497552 54.14709,45.309942 C 53.767231,48.182793 55.240627,56.551897 48.947724,57.130208 C 42.518719,57.721482 39.101366,53.13705 40.910874,48.733589 C 43.456727,42.700251 49.854061,46.523598 50.512627,44.267428 C 51.484693,40.840247 51.904838,37.161393 52.27842,33.464954 z" />
    <path
       style="fill:&fill_color;;fill-rule:evenodd;stroke:&stroke_color;;stroke-width:1.875"
       d="M 28.509365,2.7503064 C 24.417809,9.9338948 22.055477,18.700368 17.60062,25.603227 C 16.113716,27.869078 10.334658,21.481325 5.4931027,27.275959 C 2.0130568,31.521585 4.2324437,37.721717 11.521109,39.237346 C 18.655323,40.721382 19.86982,31.020739 21.257316,27.980901 C 24.434816,20.738084 25.930221,17.960148 28.209207,13.646177 C 29.002824,12.225479 30.463451,13.033145 32.412736,14.103558 C 34.818109,15.424425 42.232416,14.961012 42.401712,14.574773 C 42.557164,14.22012 36.484883,12.698672 34.60618,10.797711 C 33.514279,9.5588598 32.294678,5.3557283 31.034113,3.0943571 C 30.734165,2.5562716 28.830282,2.1868687 28.509365,2.7503064 z" />
  </g>
</svg>
