<?xml version="1.0" ?><!DOCTYPE svg  PUBLIC '-//W3C//DTD SVG 1.1//EN'  'http://www.w3.org/Graphics/SVG/1.1/DTD/svg11.dtd' [
	<!ENTITY stroke_color "#010101">
	<!ENTITY fill_color "#BBBBBB">
]>
<svg
   xmlns:dc="http://purl.org/dc/elements/1.1/"
   xmlns:cc="http://web.resource.org/cc/"
   xmlns:rdf="http://www.w3.org/1999/02/22-rdf-syntax-ns#"
   xmlns:svg="http://www.w3.org/2000/svg"
   xmlns="http://www.w3.org/2000/svg"
   xmlns:sodipodi="http://sodipodi.sourceforge.net/DTD/sodipodi-0.dtd"
   xmlns:inkscape="http://www.inkscape.org/namespaces/inkscape"
   version="1.0"
   width="55"
   height="55"
   viewBox="0 0 55 55"
   id="svg2"
   xml:space="preserve"
   sodipodi:version="0.32"
   inkscape:version="0.45.1"
   sodipodi:docname="activity-xaos2.svg"
   inkscape:output_extension="org.inkscape.output.svg.inkscape"
   sodipodi:docbase="/usr/local/src/xaos/activity/activity"><metadata
   id="metadata8"><rdf:RDF><cc:Work
       rdf:about=""><dc:format>image/svg+xml</dc:format><dc:type
         rdf:resource="http://purl.org/dc/dcmitype/StillImage" /></cc:Work></rdf:RDF></metadata><sodipodi:namedview
   inkscape:cy="29.026261"
   inkscape:cx="35.608679"
   inkscape:zoom="13.893067"
   inkscape:window-height="923"
   inkscape:window-width="1206"
   inkscape:pageshadow="2"
   inkscape:pageopacity="0.0"
   guidetolerance="10.0"
   gridtolerance="10.0"
   objecttolerance="10.0"
   borderopacity="1.0"
   bordercolor="#666666"
   pagecolor="#ffffff"
   id="base"
   inkscape:window-x="499"
   inkscape:window-y="228"
   inkscape:current-layer="g2349" /><defs
   id="defs8" />

<g
   transform="matrix(4.3719556e-2,0,0,4.3719556e-2,-20.768996,2.0538233)"
   id="g2349"><path
     style="fill:&stroke_color;"
     d="M 1221.3895,1070.2328 C 1220.0638,1054.4623 1223.9593,1056.5644 1237.1759,1048.2063 C 1229.0121,1032.9793 1258.6354,1029.5306 1245.7476,1015.6829 C 1241.5299,1000.7917 1230.6651,1007.5519 1220.2573,1000.5736 C 1238.6699,987.98533 1197.1853,946.13008 1193.0217,962.67084 C 1181.0793,982.3994 1179.4049,956.48411 1163.6747,954.70269 C 1147.3387,962.84985 1157.397,939.99369 1170.7674,949.34688 C 1181.2889,936.28857 1172.5801,927.66819 1168.0863,919.07534 C 1156.5111,910.35478 1186.2496,899.49911 1180.5808,884.86808 C 1192.7608,865.3618 1167.2381,878.60317 1159.6542,876.58939 C 1149.53,860.14115 1143.1014,904.5985 1132.6198,892.98814 C 1118.4928,900.05433 1120.3349,872.82167 1117.2311,861.7446 C 1103.9601,849.9638 1096.2074,858.51698 1088.7378,867.42279 C 1076.5478,871.66001 1056.7145,881.25721 1073.2573,902.28087 C 1061.0709,917.81684 1057.8213,868.33397 1049.2573,884.24905 C 1046.5445,875.57717 1019.2813,876.36946 1023.259,888.8561 C 997.40384,885.20877 1045.7264,863.6222 1017.9808,862.20166 C 1012.1391,845.50625 1026.2979,839.4625 1013.0323,816.19645 C 1011.0851,802.64803 1015.9717,796.06455 992.66252,784.38455 C 980.96492,774.77354 983.68282,802.89326 971.27207,785.0854 C 963.30655,773.65591 948.65069,778.96348 954.15248,760.33295 C 965.77509,756.14229 989.73202,731.88139 965.38717,733.83105 C 953.67513,723.30563 947.86779,721.20308 957.85452,705.08875 C 941.93218,692.92627 954.92809,684.08974 945.37243,667.76604 C 937.93092,653.52597 932.22731,697.16067 928.40887,709.87921 C 912.01701,710.08308 917.85474,724.5362 899.14133,716.40185 C 891.48922,724.12684 889.93252,729.94285 888.91931,739.92724 C 877.61537,738.60914 870.54921,711.34468 860.32943,734.92722 C 858.48234,744.98523 839.29557,738.28942 838.75385,750.91631 C 850.33104,764.9798 838.01067,769.34701 832.83508,757.05816 C 819.68933,751.2207 840.5424,735.82128 831.50726,726.76092 C 823.24683,725.42398 805.79284,710.64843 802.242,723.91246 C 794.14175,724.18928 784.98495,736.75467 781.45729,740.78812 C 777.8567,724.9872 753.5952,736.4995 742.3817,740.38945 C 735.20369,750.44769 740.85562,759.8173 738.39069,770.6063 C 728.36096,777.11749 740.30619,754.07844 731.34998,750.87059 C 729.73443,745.75108 738.81176,725.81244 754.34821,728.98814 C 760.33927,721.36286 759.23626,703.11397 742.48274,700.61324 C 739.66539,695.72046 757.54994,669.59179 739.8145,668.10995 C 731.54296,652.98602 710.1845,676.38619 713.864,660.20193 C 732.80068,653.26774 731.65684,632.97176 728.25046,622.92857 C 723.40058,608.62943 706.32006,617.84256 701.2312,623.87813 C 699.46594,606.20697 666.33209,614.81684 657.28956,619.94926 C 650.13356,634.6706 640.26354,642.98915 644.37601,627.87813 C 657.25362,623.26554 664.48812,585.61316 642.10778,594.38038 C 645.92473,585.04947 627.22383,568.29007 615.68767,582.27118 C 606.31458,602.76944 618.56529,568.15431 601.15082,574.43603 C 576.46367,569.34242 611.98836,561.92369 612.13271,550.75548 C 606.91042,530.46151 621.28669,569.14319 634.14875,553.53228 C 644.26844,543.64992 638.92612,533.08479 656.07089,530.78137 C 663.39603,512.5079 640.52628,503.84838 643.67123,492.27749 C 648.17233,486.88031 655.15324,514.19584 668.35452,513.0354 C 682.048,524.00711 691.62315,483.10089 702.3033,503.52226 C 717.80628,511.04881 713.10103,489.48722 723.55583,486.77522 C 733.44807,476.36995 696.36456,463.20087 716.13957,467.67196 C 724.87995,474.73865 732.32353,473.23816 736.44761,465.71632 C 727.03297,452.74523 739.34202,440.12362 749.6259,430.3521 C 746.42053,414.66559 748.6751,393.51191 734.39196,390.65808 C 727.22288,377.81108 727.53544,377.19787 729.99521,362.06742 C 731.26027,348.57036 735.70907,352.62914 736.02811,366.28176 C 730.88346,377.39508 743.30656,395.43168 757.19976,389.70779 C 768.56408,398.44081 786.34204,372.38724 784.79779,375.5955 C 787.50731,392.7183 802.6387,397.75038 809.82845,411.18206 C 818.02298,406.58496 835.65996,413.16708 834.25726,397.92053 C 821.93257,384.69457 834.36463,377.17809 838.23987,369.41824 C 849.52268,360.09789 834.55467,387.50948 844.00726,388.9194 C 858.16924,389.91137 859.83166,403.63225 873.16119,407.9508 C 875.02913,399.45446 892.85125,385.55598 890.28052,400.89471 C 889.68424,409.71744 901.10804,421.43038 911.60371,415.3384 C 915.40705,428.58466 931.38733,436.47866 941.17293,448.14653 C 959.84939,458.72389 946.07173,445.32726 952.79362,434.35735 C 943.64371,416.23614 974.17889,419.64941 956.34081,403.00286 C 958.33309,395.41075 978.59502,381.68704 986.35879,375.80251 C 982.58636,362.09743 976.94832,357.28697 974.22729,345.911 C 984.71776,344.46962 985.54766,335.28533 995.72924,332.41848 C 1003.3709,346.4721 1013.6835,335.76663 1022.8789,324.01265 C 1032.0577,309.48402 1020.5416,283.92444 1035.6652,267.53052 C 1020.2616,260.34118 1009.6024,251.83291 1028.6718,239.83114 C 1009.2838,234.98612 1019.1834,209.8529 1022.8122,225.99378 C 1036.7244,237.63003 1045.1342,218.55194 1054.6645,228.13272 C 1057.9132,215.24367 1077.7156,211.9325 1069.0513,226.64945 C 1059.3434,251.46816 1091.83,231.64192 1095.5174,250.80488 C 1099.3484,263.31467 1124.4138,267.09279 1117.438,255.55883 C 1122.9179,239.99032 1125.6599,235.52788 1141.0658,234.2464 C 1149.2365,257.1523 1151.5302,233.4848 1166.8193,240.56077 C 1186.4618,240.40044 1179.6565,240.7315 1177.3791,228.93972 C 1169.2474,220.83248 1156.686,204.58945 1169.445,198.47537 C 1178.5438,188.87425 1183.9666,149.83425 1171.528,155.41396 C 1160.5058,145.79554 1179.3034,150.29549 1185.7573,146.80817 C 1191.0849,118.58763 1196.6938,150.81206 1210.4621,147.52918 C 1235.0491,142.81938 1214.0739,128.273 1230.3177,121.82805 C 1242.208,128.00186 1245.6568,113.04858 1249.2573,104.44687 C 1236.3812,96.362651 1241.3751,78.272301 1228.1293,73.975381 C 1217.3343,77.592931 1219.3581,46.829937 1229.8168,61.76367 C 1237.3946,70.688681 1242.9532,71.837291 1242.6561,83.494921 C 1249.7845,86.863561 1255.2552,106.29617 1267.0424,92.521801 C 1272.039,86.262791 1297.7682,77.908021 1289.2573,89.044321 C 1281.6486,95.620161 1274.7089,90.691251 1267.0108,101.07553 C 1256.0659,103.34489 1260.0155,129.08442 1270.6075,126.09297 C 1284.0071,125.20962 1271.3285,148.84214 1276.0181,154.32713 C 1288.0448,175.5099 1296.3683,143.57011 1308.961,142.69095 C 1321.6063,137.02695 1297.4647,155.67432 1311.8055,158.57803 C 1326.2652,166.17763 1312.247,182.02199 1314.5746,198.28013 C 1326.7693,201.99245 1322.1591,227.54273 1313.1906,233.08572 C 1306.3815,246.50861 1305.121,247.72834 1329.3279,245.68977 C 1342.3169,231.03053 1344.2803,262.38407 1351.4512,236.48542 C 1361.06,231.82637 1363.3209,219.08891 1368.4237,235.07925 C 1378.324,236.26957 1379.7787,249.19812 1374.9259,258.40808 C 1385.7691,266.04546 1400.1529,288.62089 1414.8553,265.70724 C 1409.6703,249.38401 1424.6209,254.5967 1432.7505,257.01171 C 1436.9135,267.26655 1462.3649,255.76365 1459.9037,238.26636 C 1448.0891,227.88804 1473.0484,223.57336 1462.2427,211.80811 C 1464.4861,207.64112 1475.6288,222.31894 1465.9037,227.72278 C 1468.9557,237.22722 1476.6932,294.19006 1494.6023,288.71138 C 1509.2239,286.33692 1480.2814,295.48587 1497.0332,306.3775 C 1507.2061,317.87711 1477.6938,295.59105 1479.1436,315.63428 C 1482.0674,326.92031 1491.3762,329.78484 1478.6522,337.49991 C 1463.1568,337.79956 1467.527,366.01393 1487.7257,362.74132 C 1498.4242,368.29299 1483.1553,399.82958 1505.2738,387.77027 C 1515.6553,400.37381 1529.091,395.51632 1532.9407,380.29312 C 1543.5253,383.88378 1528.9045,394.11801 1533.1427,402.24991 C 1548.0269,404.65569 1534.3735,409.66636 1534.0114,416.74991 C 1528.1999,417.78802 1503.3368,425.09962 1502.9315,433.93542 C 1499.1221,445.33171 1512.8668,465.45855 1523.3837,451.55002 C 1527.3559,457.53848 1527.894,466.92343 1525.8919,471.92953 C 1516.4754,473.91994 1498.9196,476.30968 1508.033,490.15848 C 1522.4417,485.19499 1516.8168,507.12017 1505.8779,504.82721 C 1495.8687,506.82767 1523.9069,524.10251 1507.7028,526.18042 C 1505.4689,535.96075 1480.062,543.05406 1471.0013,550.95673 C 1450.9448,559.83739 1462.9448,573.19142 1473.057,580.14215 C 1484.0427,586.18072 1497.3407,598.49657 1507.3285,601.85109 C 1511.7996,613.02353 1500.518,618.56621 1517.8391,621.00353 C 1527.6628,636.66761 1506.8899,627.09229 1508.919,643.04895 C 1515.3168,651.57568 1529.0843,646.77266 1533.1846,655.99994 C 1527.0437,660.6533 1541.6825,678.42711 1524.1244,666.71521 C 1510.4417,666.73448 1506.4176,691.71295 1515.0475,695.99994 C 1522.6231,706.26598 1533.6763,703.08648 1537.1988,712.46265 C 1549.0701,720.47862 1532.9444,715.50928 1535.9092,729.16146 C 1546.0796,735.71397 1535.7491,750.47977 1531.1552,733.59918 C 1521.6694,715.053 1497.7793,744.05483 1484.1271,732.99994 C 1478.9351,747.0987 1483.9654,762.95516 1463.3685,763.7402 C 1451.661,778.33452 1485.0986,783.155 1487.9528,789.99994 C 1498.1309,796.92637 1471.8782,805.6796 1491.8853,816.99994 C 1506.4245,808.5685 1506.6708,814.46913 1497.1892,826.07031 C 1512.8802,834.08859 1513.2828,837.80336 1495.4012,833.16949 C 1489.9956,839.57206 1487.0031,855.91146 1493.0334,860.45007 C 1491.5972,868.44436 1481.9487,879.23946 1488.0008,860.34277 C 1472.4092,854.25858 1488.0126,853.60015 1479.9569,841.40843 C 1467.2898,830.42931 1458.5759,849.9193 1450.1991,847.23176 C 1430.8693,857.37782 1421.2243,853.92244 1396.0573,854.21996 C 1394.4762,869.48875 1363.2443,865.61281 1377.2128,881.71996 C 1376.6818,894.93548 1367.8065,894.78517 1363.5084,904.96884 C 1356.3754,909.29918 1351.8646,889.09162 1341.8523,887.22393 C 1328.1036,903.37248 1320.8043,860.93418 1303.0928,871.83815 C 1299.5054,882.36878 1312.7997,888.81118 1316.6664,895.42487 C 1326.5471,907.26826 1311.9747,920.63173 1324.0137,934.64284 C 1333.915,939.7623 1342.1499,940.94164 1326.0137,948.77431 C 1335.6484,962.86196 1332.4632,963.07339 1319.2737,959.02016 C 1314.8788,937.35113 1271.0586,978.84323 1275.1567,987.16533 C 1282.2418,998.83807 1271.8822,1001.3682 1262.2573,1004.9559 C 1256.8006,1020.052 1264.8521,1025.0182 1274.1695,1034.2841 C 1284.0586,1030.1874 1295.2095,1046.2918 1288.7878,1044.4662 C 1275.1281,1041.5575 1270.6838,1038.1488 1257.9231,1030.5736 C 1249.7578,1034.6751 1241.1552,1045.3141 1241.9387,1052.21 C 1238.5001,1053.7203 1231.15,1070.4654 1221.3895,1070.2328 z "
     id="path2357"
     sodipodi:nodetypes="cccccccccccccccccccsccccccccccccccccccccsccccccccccccccccccccccccccccccccccccccccccccccccccccccsccccccccccccccccccccccccccccccccccccccccccccccccccccccccccccccccccccc" /><path
     d="M 1248.7051,958.56055 C 1231.4205,956.53857 1250.3218,935.49882 1237.4507,936.51931 C 1224.0892,935.88399 1220.8559,931.91305 1212.3702,922.01935 C 1194.5685,934.56296 1210.2947,916.4267 1204.1205,907.64026 C 1196.6084,895.70833 1202.2135,901.04215 1201.5122,885.79712 C 1206.8196,878.36064 1214.108,858.16935 1231.5073,855.94487 C 1244.643,848.26316 1180.9656,845.12663 1183.6184,847.24994 C 1174.9319,839.59378 1167.7556,853.53826 1161.7573,839.04437 C 1155.4493,843.60975 1146.0766,826.66688 1143.7006,842.7774 C 1130.5558,860.81439 1132.2853,819.65873 1136.1048,829.52448 C 1127.441,824.05919 1120.6253,825.69564 1116.2573,823.12238 C 1112.0282,820.96755 1090.4066,798.64421 1088.8988,807.08535 C 1095.0244,818.48813 1084.3193,837.72745 1071.4762,830.43279 C 1054.5337,841.2408 1061.4566,828.51359 1057.2573,814.7204 C 1052.1517,809.95415 1063.7519,795.70129 1073.8657,797.79413 C 1087.0146,798.01165 1062.5762,782.14992 1056.9482,781.99994 C 1055.1168,769.82702 1043.0326,779.50235 1043.3296,764.69336 C 1034.6024,751.10296 1030.6721,751.6036 1020.3501,761.34161 C 1006.6417,762.81795 1011.0165,752.58854 1016.5673,743.99994 C 1037.9807,744.57872 1006.517,730.11246 1009.3695,719.46558 C 1009.3382,704.87002 991.98874,725.69061 992.15948,713.99994 C 998.17287,706.85241 1003.8241,706.11615 995.37616,696.8537 C 998.56755,684.49464 973.05599,693.43166 988.91473,681.45026 C 983.03859,669.49232 978.54559,671.16922 980.25726,658.6016 C 972.36042,656.67588 976.42015,645.88303 973.22802,637.07803 C 970.18935,627.49702 969.27448,616.67585 966.55534,602.99992 C 968.47173,584.26622 962.21425,560.01071 959.48279,592.49994 C 953.50781,608.12871 945.02026,622.71471 937.7148,634.46385 C 933.51958,644.23996 927.0385,640.05954 923.64716,649.19922 C 918.28012,651.47557 911.53938,665.8889 900.22515,662.53865 C 886.78888,659.46243 891.05693,687.95785 884.21762,669.87298 C 877.8407,671.14674 854.42141,669.95065 856.99944,680.24866 C 850.4767,702.22592 846.2059,669.62242 841.26447,673.10303 C 825.98302,674.05297 827.55762,672.47613 815.68596,667.94967 C 789.63006,645.8645 809.09146,682.17422 788.86676,679.99994 C 780.86273,692.65826 774.372,667.86726 779.89467,662.80524 C 795.08102,655.64848 789.75053,654.61975 777.19484,645.45293 C 766.93423,646.96448 770.47598,626.62447 760.25726,631.99994 C 742.28157,636.69124 768.53613,623.40363 753.25726,617.83038 C 746.56565,610.35113 749.28761,608.57081 745.25726,595.36063 C 741.7127,568.56708 740.17341,565.9177 723.92511,585.04633 C 713.65262,589.05887 697.68271,590.42305 694.94019,583.10455 C 692.0452,568.85921 680.79241,566.70172 672.25726,560.09375 C 686.55786,559.47563 692.90812,549.07299 694.93268,536.40344 C 704.55177,536.41295 716.03096,531.78501 727.96863,539.90717 C 742.53277,569.84992 742.12724,534.78888 746.2644,521.49554 C 748.62038,509.29956 748.89404,510.83795 759.25726,499.50641 C 749.19639,492.26424 755.39225,487.64522 765.21412,491.20963 C 769.95456,480.18226 773.22093,480.25105 783.20935,472.0029 C 803.20128,465.73341 775.6373,465.60127 777.14008,453.28271 C 780.54766,439.9761 782.35633,437.51089 796.76898,442.99991 C 795.80553,469.47835 804.24923,457.94637 823.52933,453.60457 C 822.74439,443.55783 841.02331,454.88406 847.25726,448.62967 C 838.59985,434.26493 865.14645,430.97513 855.89274,449.38618 C 866.66749,444.06004 883.80105,462.81335 884.75726,447.7157 C 893.87432,445.73146 890.80347,466.62519 906.76738,461.48982 C 912.05337,457.59352 926.97094,472.34441 923.64716,473.8006 C 928.75428,482.17401 932.10798,480.54093 939.65639,489.49991 C 943.61139,502.86237 955.03137,514.77255 959.48279,530.49994 C 965.81286,573.12335 965.89332,517.41753 969.04998,503.31786 C 970.41635,493.78251 973.97483,489.4908 973.27661,479.22876 C 972.38259,467.07207 983.25144,467.81248 980.48512,456.38548 C 976.98068,451.81601 997.8158,442.94573 983.07593,434.85303 C 993.36005,435.20358 996.54645,428.25666 999.5959,418.74628 C 1003.8787,416.47819 984.80838,407.78322 993.8147,407.04404 C 1003.1273,404.48171 1012.1892,414.92028 1010.565,395.15857 C 1028.8056,383.31789 1024.806,381.35952 1013.1014,373.24414 C 1005.3568,361.66859 1020.0664,358.67321 1027.8011,365.37819 C 1030.1899,379.65461 1047.6185,356.62903 1045.4309,349.98712 C 1052.5188,349.6546 1056.5859,343.33897 1064.5022,337.99991 C 1074.7014,330.20816 1085.9219,324.86312 1064.6359,322.88456 C 1051.0167,315.4023 1057.5866,306.41769 1059.8748,295.06418 C 1053.0775,279.39691 1078.3286,298.94911 1083.2573,292.83463 C 1095.2806,297.43488 1085.3848,319.29437 1092.0999,318.39252 C 1102.9423,310.39903 1114.7725,300.40021 1120.0549,298.60266 C 1122.3239,297.91499 1141.4219,295.2823 1135.8937,289.05176 C 1124.3462,278.23435 1146.6775,270.03488 1145.2573,287.03412 C 1154.8658,285.93316 1160.1303,285.13329 1166.401,278.23894 C 1169.4665,274.70936 1191.1786,280.73342 1187.2742,277.20743 C 1206.2515,269.38238 1261.9395,276.07165 1215.5886,258.55433 C 1207.5511,248.07383 1198.9159,239.76823 1202.1918,226.50728 C 1193.4375,225.03247 1207.7071,218.21506 1207.2573,208.74867 C 1193.7745,190.39667 1210.7514,204.16616 1218.4588,195.16521 C 1221.7648,185.89195 1235.5424,188.7021 1244.2573,184.85794 C 1233.812,175.31121 1244.695,162.89057 1253.2573,163.11795 C 1267.4018,171.18909 1242.7041,190.65716 1265.5073,190.19689 C 1273.5542,195.7388 1273.9146,194.09362 1280.4624,205.36433 C 1300.9935,199.4015 1275.7438,212.74787 1286.062,225.45163 C 1294.1507,228.61803 1283.3931,238.21762 1281.7121,247.93668 C 1283.1772,261.60618 1240.578,268.56642 1260.0313,271.11491 C 1275.3709,272.08389 1290.1446,272.2944 1301.8123,275.99991 C 1306.7627,269.15704 1319.0895,289.6366 1321.1533,274.99991 C 1322.7254,284.91671 1327.4025,281.67169 1338.0496,288.26456 C 1352.3558,299.59411 1344.0619,282.92514 1354.1029,280.99991 C 1366.1033,272.64658 1360.8974,293.75473 1356.1794,297.40604 C 1364.2882,302.89794 1376.1865,302.65967 1380.2573,306.58963 C 1382.8803,316.56357 1395.8821,318.23365 1401.3259,327.5217 C 1418.9683,344.1724 1398.4493,316.37936 1413.2573,309.75504 C 1420.0897,304.46944 1423.2663,298.29264 1431.7014,303.38205 C 1442.9144,308.98897 1459.1759,301.8549 1443.2573,315.75504 C 1450.5257,325.09601 1446.196,332.63427 1438.0589,338.63 C 1417.649,342.39235 1417.0949,342.28704 1430.961,357.96478 C 1442.4303,360.20673 1435.5962,377.24307 1448.2354,374.05429 C 1448.879,379.04255 1446.8139,388.79961 1454.3693,395.78117 C 1456.2333,403.69743 1459.4129,418.78084 1464.0073,403.91098 C 1476.0122,393.85387 1490.8094,410.58647 1476.7095,419.09027 C 1465.4855,420.80026 1456.9026,413.49284 1465.8956,430.04058 C 1471.267,443.29928 1465.5659,444.99153 1471.6573,460.08289 C 1487.1035,453.21934 1479.6712,479.51275 1469.9421,466.91516 C 1474.4877,472.77309 1457.2585,497.07003 1472.1869,493.99991 C 1473.3282,499.10238 1456.566,499.68697 1462.1479,513.58807 C 1459.0802,520.46914 1450.4491,535.72666 1438.3301,546.61843 C 1421.5429,558.04807 1406.8608,564.68606 1437.3321,575.50792 C 1449.764,586.73993 1459.311,601.95428 1462.1479,609.4118 C 1455.9563,623.63892 1473.4672,624.01698 1472.1869,628.99994 C 1457.2938,626.03063 1474.2226,650.10844 1469.9421,656.08466 C 1480.0562,643.3743 1486.7662,669.92929 1471.6573,662.91693 C 1466.7021,678.72698 1470.3311,679.04088 1465.4082,694.21185 C 1455.43,711.77171 1468.7489,699.2841 1478.1907,704.67803 C 1490.7494,714.00768 1474.8792,728.94303 1464.0073,719.08887 C 1458.6988,703.62439 1456.7482,721.47306 1453.0213,728.70821 C 1445.7221,735.25511 1450.3236,744.10036 1448.2354,748.94556 C 1435.8386,746.29496 1442.3254,763.89839 1429.5316,766.30669 C 1414.22,783.21227 1421.0991,779.25833 1438.9794,784.82109 C 1446.2583,790.90741 1450.8374,798.53885 1443.2573,807.24481 C 1460.4472,821.71186 1441.1196,813.97796 1429.4503,819.25409 C 1423.6166,825.90839 1417.6428,816.72587 1411.7618,812.00372 C 1399.6144,802.26309 1419.142,780.03142 1399.3596,796.10223 C 1395.6905,807.48002 1379.3795,806.07148 1380.2573,818.69052 C 1372.4612,818.04427 1363.1808,822.14789 1354.8566,827.18768 C 1366.366,832.51678 1362.9899,849.53712 1351.8226,841.99994 C 1347.6313,833.9317 1348.2216,825.93485 1336.2573,836.14508 C 1322.5569,836.95393 1326.8029,844.93197 1320.4027,845.84671 C 1315.8959,835.51941 1306.4817,854.62918 1299.532,846.99994 C 1288.7867,851.67605 1271.7788,850.29154 1257.2142,852.10792 C 1246.4059,855.95792 1284.3992,862.41056 1282.319,877.26123 C 1285.6205,887.89825 1293.1873,893.19868 1285.7825,899.81134 C 1279.2969,914.64947 1299.2894,921.16816 1278.7573,918.70416 C 1273.5968,932.02917 1272.3917,928.24706 1259.1078,934.45073 C 1248.5408,938.12314 1266.0188,954.57109 1251.571,960.7337 C 1249.8335,962.24616 1249.5844,959.50232 1248.7051,958.56055 z "
     style="fill:&fill_color;"
     id="path2351" /></g></svg>
