<?xml version="1.0" ?><!DOCTYPE svg  PUBLIC '-//W3C//DTD SVG 1.1//EN'  'http://www.w3.org/Graphics/SVG/1.1/DTD/svg11.dtd' [
	<!ENTITY stroke_color "#666666">
	<!ENTITY fill_color "#FFFFFF">
]><svg enable-background="new 0 0 55 55" height="55px" version="1.1" viewBox="0 0 55 55" width="55px" x="0px" xml:space="preserve" xmlns="http://www.w3.org/2000/svg" xmlns:xlink="http://www.w3.org/1999/xlink" y="0px"><defs
   id="defs10" />
  <rect
   width="50"
   height="50"
   x="5"
   y="5"
   transform="matrix(0.68770843,0,0,0.69320514,8.9434765,6.5594193)"
   id="rect4"
   style="fill:&fill_color;;stroke:&stroke_color;;stroke-width:3.5" />
  <g
   transform="matrix(0.68770843,0,0,0.69320514,16.549154,-6.2574121)"
   id="Pencil">
    <g
   id="g36"
   style="display:inline">
      <path
   d="m 12.727,45.969 c -0.053,0.132 -0.02,0.281 0.09,0.373 0.11,0.092 0.264,0.103 0.385,0.025 l 4.635,-2.984 -3.009,-2.407 -2.101,4.993 z m 30.24,-31.898 c 0,-0.073 -0.004,-0.15 -0.014,-0.227 C 42.841,12.895 42.05,11.735 40.891,10.819 39.731,9.904 38.417,9.406 37.467,9.515 37.053,9.567 36.72,9.743 36.494,10.006 L 36.473,9.991 19.716,32.17 l -0.073,0.073 -0.011,0.015 c -0.026,0.029 -0.029,0.069 -0.05,0.103 l -2.177,2.677 c 0,0 0.128,0.099 0.256,0.201 l -0.002,0.004 -0.009,0.011 c -0.128,-0.103 -0.252,-0.197 -0.252,-0.197 l -0.042,0.051 c -0.097,0.121 -0.155,0.271 -0.203,0.429 -0.015,0.019 -0.046,0.025 -0.057,0.048 l -1.361,3.236 4.097,3.278 3.202,-2.062 c 0.019,-0.011 0.015,-0.037 0.031,-0.052 0.083,-0.065 0.178,-0.121 0.243,-0.201 0.008,-0.011 0.043,-0.059 0.048,-0.062 l 2.237,-2.79 0.033,-0.033 -0.004,-0.004 0.023,-0.029 0.006,0.004 16.939,-21.85 c 0.029,-0.029 0.071,-0.044 0.1,-0.077 0.032,-0.044 0.049,-0.103 0.076,-0.15 l 0.015,-0.019 -0.003,-0.003 c 0.117,-0.205 0.189,-0.432 0.189,-0.7 z"
   id="path38"
   style="fill:&stroke_color;;" />
    </g>
  </g>
</svg>
