<?xml version="1.0" ?><!DOCTYPE svg  PUBLIC '-//W3C//DTD SVG 1.1//EN'  'http://www.w3.org/Graphics/SVG/1.1/DTD/svg11.dtd' [
	<!ENTITY stroke_color "#000000">
	<!ENTITY fill_color "#c8c4b7">
]><svg enable-background="new 0 0 98.023 100" height="55" id="Your_Icon" inkscape:version="0.48.4 r9939" sodipodi:docname="activity-icon.svg" version="1.1" viewBox="0 0 54.999999 55" width="55" x="0px" xml:space="preserve" xmlns="http://www.w3.org/2000/svg" xmlns:cc="http://creativecommons.org/ns#" xmlns:dc="http://purl.org/dc/elements/1.1/" xmlns:inkscape="http://www.inkscape.org/namespaces/inkscape" xmlns:rdf="http://www.w3.org/1999/02/22-rdf-syntax-ns#" xmlns:sodipodi="http://sodipodi.sourceforge.net/DTD/sodipodi-0.dtd" xmlns:svg="http://www.w3.org/2000/svg" y="0px"><metadata id="metadata15"><rdf:RDF><cc:Work rdf:about=""><dc:format>image/svg+xml</dc:format><dc:type rdf:resource="http://purl.org/dc/dcmitype/StillImage"/></cc:Work></rdf:RDF></metadata><defs id="defs13"/><sodipodi:namedview bordercolor="#666666" borderopacity="1" gridtolerance="10" guidetolerance="10" id="namedview11" inkscape:current-layer="Your_Icon" inkscape:cx="116.59625" inkscape:cy="50" inkscape:pageopacity="0" inkscape:pageshadow="2" inkscape:window-height="713" inkscape:window-maximized="1" inkscape:window-width="1366" inkscape:window-x="-2" inkscape:window-y="-3" inkscape:zoom="2.36" objecttolerance="10" pagecolor="#ffffff" showgrid="false"/><path d="m 22.842414,11.702814 h 17.064188 c 0.600825,0 1.087415,-0.715873 1.087415,-1.601407 C 40.994017,9.2158725 40.507427,8.5 39.906602,8.5 H 22.842414 c -0.60131,0 -1.087414,0.7158725 -1.087414,1.601407 -4.87e-4,0.884818 0.486104,1.601407 1.087414,1.601407 z" id="path3" inkscape:connector-curvature="0" style="fill:&fill_color;;stroke:&stroke_color;;stroke-opacity:1"/><path d="M 41.736098,14.243458 H 26.803363 c -0.855097,0 -1.546363,0.810581 -1.546363,1.813271 0,1.002689 0.691266,1.813271 1.546363,1.813271 H 41.73679 c 0.854405,0 1.546363,-0.810582 1.546363,-1.813271 -6.92e-4,-1.00269 -0.691958,-1.813271 -1.547055,-1.813271 z" id="path5" inkscape:connector-curvature="0" style="fill:&fill_color;;stroke:&stroke_color;;stroke-opacity:1"/><path d="M 35.82829,21.145458 H 21.455769 c -0.940479,0 -1.700769,0.811392 -1.700769,1.81327 0,1.00188 0.76029,1.813272 1.700769,1.813272 H 35.82829 c 0.939718,0 1.700768,-0.811392 1.700768,-1.813272 0,-1.001878 -0.76105,-1.81327 -1.700768,-1.81327 z" id="path7" inkscape:connector-curvature="0" style="fill:&fill_color;;stroke:&stroke_color;;stroke-opacity:1"/><path d="m 50.781853,47.612076 -3.300034,-6.868102 c 0.528836,-0.07948 0.941526,-0.503233 0.941526,-1.038547 V 4.7999195 C 48.423839,4.2076271 47.929105,3.7288136 47.317732,3.7288136 H 16.624003 c -0.611374,0 -1.105613,0.4788135 -1.105613,1.0711059 V 10.833927 L 3.2765819,15.057063 c -0.5743058,0.198708 -0.8748031,0.811589 -0.6706824,1.36797 L 14.690045,49.308512 c 0.09835,0.268136 0.302474,0.486475 0.567881,0.608572 0.14926,0.06943 0.310876,0.103903 0.473975,0.103903 0.125042,0 0.250579,-0.02107 0.371174,-0.06177 l 24.327929,-8.392644 4.231675,8.804902 c 0.248603,0.515683 0.696383,0.914055 1.247954,1.108933 0.245637,0.08667 0.501158,0.129761 0.757174,0.129761 0.319773,0 0.638557,-0.06703 0.934606,-0.201102 l 2.108919,-0.951402 c 1.106107,-0.499403 1.585519,-1.773047 1.070521,-2.845589 z M 17.729615,5.8710254 H 46.212119 V 38.101881 L 42.43119,30.233059 C 42.35458,30.074093 42.258206,29.924224 42.145026,29.78872 l -3.019801,-3.613127 c -0.430977,-0.514725 -1.068051,-0.793873 -1.719952,-0.793873 -0.314336,0 -0.632626,0.06464 -0.932135,0.199665 -0.919779,0.41561 -1.430822,1.382814 -1.238563,2.348581 l 0.9094,4.563093 c 0.0341,0.172373 0.09094,0.339957 0.166064,0.497966 l 2.71189,5.643297 H 17.729615 V 5.8710254 z M 38.09869,31.00347 37.405767,27.523932 39.707933,30.278546 38.09869,31.00347 z M 5.060785,16.716152 15.51839,13.10925 v 26.596656 c 0,0.591814 0.494239,1.071106 1.105613,1.071106 H 36.125688 L 16.402583,47.581911 5.060785,16.716152 z m 41.607022,32.751326 -7.886573,-16.409419 2.110401,-0.94853 9.89e-4,-0.0014 7.884596,16.407983 -2.109413,0.951402 z" id="path9" inkscape:connector-curvature="0" style="fill:&fill_color;;stroke:&stroke_color;;stroke-opacity:1"/></svg>