<?xml version="1.0" ?><!-- Created with Inkscape (http://www.inkscape.org/) --><!DOCTYPE svg  PUBLIC '-//W3C//DTD SVG 1.1//EN'  'http://www.w3.org/Graphics/SVG/1.1/DTD/svg11.dtd' [
	<!ENTITY stroke_color "#000000">
	<!ENTITY fill_color "#ffffff">
]><svg height="48" id="svg2" version="1.0" width="48" xmlns="http://www.w3.org/2000/svg" xmlns:svg="http://www.w3.org/2000/svg">
  <defs id="defs10"/>
  <path d="M 9.4647608,4.0702459 C 8.7117238,3.0387764 7.7902795,3.1708991 6.9653207,3.6244087 C 5.0887315,4.683664 2.799342,5.6767879 3.4577132,6.5063054 C 4.1681773,7.7567968 4.6250771,8.5669628 5.9730539,10.494526 C 6.5259155,11.317811 9.053524,13.096259 6.9153389,14.764349 C 4.731018,16.468636 2.3928234,16.127243 1.9895015,14.568723 C 1.4609893,12.417249 4.7112094,11.841067 4.4073804,11.107444 C 3.463849,8.8923414 1.4704485,6.9497803 0.35832352,4.7888759 C 0.31470837,4.704132 0.54766406,4.4336423 0.70601611,4.3003128 C 1.0891693,3.9179142 6.9260294,0.5381985 7.4328665,0.46272023 C 7.5912173,0.32939087 7.9728262,0.31380298 8.0869963,0.31438438 C 9.0466261,0.31927601 10.264751,2.2195406 10.488419,2.6427778 C 11.198887,3.893266 11.639218,4.7070303 12.987192,6.6345934 C 13.540058,7.4578817 16.084232,9.2327302 13.946047,10.900822 C 11.761726,12.605107 9.4235294,12.263715 9.0202075,10.705194 C 8.4916965,8.5537196 11.725348,7.981137 11.421522,7.2475116 C 10.949755,6.1399596 10.217793,5.1017167 9.4647608,4.0702459 z" id="path2391" style="fill:&fill_color;;fill-rule:evenodd;stroke:&stroke_color;;stroke-width:0.72668952"/>
  <path d="M 26.206087,4.1716944 C 25.45305,3.1402249 24.531605,3.2723476 23.706646,3.7258572 C 21.830057,4.7851125 19.540668,5.7782366 20.199039,6.6077536 C 20.909503,7.8582456 21.366403,8.6684116 22.71438,10.595974 C 23.267241,11.419259 25.79485,13.197707 23.656665,14.865797 C 21.472344,16.570084 19.134149,16.228691 18.730827,14.670171 C 18.202315,12.518697 21.452535,11.942515 21.148706,11.208892 C 20.205175,8.9937896 18.211774,7.0512286 17.099649,4.8903244 C 17.056034,4.8055805 17.28899,4.5350908 17.447342,4.4017613 C 17.830495,4.0193627 23.667355,0.63964704 24.174192,0.56416874 C 24.332543,0.43083944 24.714152,0.41525154 24.828322,0.41583294 C 25.787952,0.42072454 27.006077,2.3209891 27.229745,2.7442263 C 27.940213,3.9947145 28.380544,4.8084788 29.728518,6.7360416 C 30.281384,7.5593306 32.825558,9.3341786 30.687373,11.00227 C 28.503052,12.706555 26.164855,12.365163 25.761533,10.806642 C 25.233022,8.6551686 28.466674,8.0825856 28.162848,7.3489606 C 27.691081,6.2414086 26.959119,5.2031652 26.206087,4.1716944 z" id="path2404" style="fill:&stroke_color;;fill-rule:evenodd;stroke:&stroke_color;;stroke-width:0.72668952"/>
  <path d="M 42.413879,4.1716945 C 41.660842,3.140225 40.739398,3.2723477 39.914439,3.7258573 C 38.03785,4.7851126 35.748461,5.7782365 36.406832,6.607754 C 37.117296,7.8582454 37.574196,8.6684114 38.922173,10.595975 C 39.475034,11.41926 42.002643,13.197708 39.864458,14.865798 C 37.680137,16.570085 35.341942,16.228692 34.93862,14.670172 C 34.410108,12.518698 37.660328,11.942516 37.356499,11.208893 C 36.412968,8.99379 34.419567,7.0512289 33.307442,4.8903245 C 33.263827,4.8055806 33.496783,4.5350909 33.655135,4.4017614 C 34.038288,4.0193628 39.875148,0.63964707 40.381985,0.56416877 C 40.540336,0.43083947 40.921945,0.41525157 41.036115,0.41583297 C 41.995745,0.42072457 43.21387,2.3209892 43.437538,2.7442264 C 44.148006,3.9947146 44.588337,4.8084789 45.936311,6.736042 C 46.489177,7.5593303 49.033351,9.3341788 46.895166,11.002271 C 44.710845,12.706556 42.372648,12.365164 41.969326,10.806643 C 41.440815,8.6551682 44.674467,8.0825856 44.370641,7.3489602 C 43.898874,6.2414082 43.166912,5.2031653 42.413879,4.1716945 z" id="path2406" style="fill:&fill_color;;fill-rule:evenodd;stroke:&stroke_color;;stroke-width:0.72668952"/>
  <path d="M 6.0017051,27.20493 C 6.7547421,28.236399 7.6761864,28.104277 8.5011452,27.650767 C 10.377734,26.591512 12.667124,25.598388 12.008753,24.76887 C 11.298289,23.518379 10.841389,22.708213 9.493412,20.78065 C 8.9405504,19.957365 6.4129419,18.178917 8.551127,16.510827 C 10.735448,14.80654 13.073642,15.147933 13.476964,16.706453 C 14.005477,18.857927 10.755256,19.434109 11.059085,20.167732 C 12.002617,22.382834 13.996017,24.325395 15.108142,26.4863 C 15.151757,26.571044 14.918802,26.841533 14.76045,26.974863 C 14.377297,27.357261 8.5404365,30.736977 8.0335994,30.812455 C 7.8752486,30.945785 7.4936397,30.961373 7.3794696,30.960791 C 6.4198398,30.9559 5.2017148,29.055635 4.9780468,28.632398 C 4.2675788,27.38191 3.8272478,26.568145 2.4792738,24.640582 C 1.9264078,23.817294 -0.61776619,22.042445 1.5204188,20.374354 C 3.7047398,18.670069 6.0429365,19.011461 6.4462584,20.569982 C 6.9747694,22.721456 3.7411178,23.294039 4.0449438,24.027664 C 4.5167108,25.135216 5.2486728,26.173459 6.0017051,27.20493 z" id="path2408" style="fill:&stroke_color;;fill-rule:evenodd;stroke:&stroke_color;;stroke-width:0.72668952"/>
  <path d="M 9.6866067,35.75611 C 8.9335697,34.72464 8.0121254,34.856763 7.1871666,35.310273 C 5.3105774,36.369528 3.0211879,37.362652 3.6795591,38.192169 C 4.3900232,39.442661 4.846923,40.252827 6.1948998,42.18039 C 6.7477614,43.003675 9.2753699,44.782123 7.1371848,46.450213 C 4.9528639,48.1545 2.6146693,47.813107 2.2113474,46.254587 C 1.6828352,44.103113 4.9330553,43.526931 4.6292263,42.793308 C 3.6856949,40.578205 1.6922944,38.635644 0.58016939,36.47474 C 0.53655424,36.389996 0.76950993,36.119506 0.92786198,35.986177 C 1.3110152,35.603778 7.1478753,32.224062 7.6547124,32.148584 C 7.8130632,32.015255 8.1946721,31.999667 8.3088422,32.000248 C 9.268472,32.00514 10.486597,33.905404 10.710265,34.328642 C 11.420733,35.57913 11.861064,36.392894 13.209038,38.320457 C 13.761904,39.143746 16.306078,40.918594 14.167893,42.586686 C 11.983572,44.290971 9.6453753,43.949579 9.2420534,42.391058 C 8.7135424,40.239583 11.947194,39.667001 11.643368,38.933375 C 11.171601,37.825823 10.439639,36.787581 9.6866067,35.75611 z" id="path2410" style="fill:&fill_color;;fill-rule:evenodd;stroke:&stroke_color;;stroke-width:0.72668952"/>
  <path d="M 22.417289,27.308826 C 23.170326,28.340295 24.091771,28.208173 24.916729,27.754663 C 26.793319,26.695408 29.082708,25.702284 28.424337,24.872766 C 27.713873,23.622275 27.256973,22.812109 25.908996,20.884546 C 25.356135,20.061261 22.828526,18.282813 24.966711,16.614723 C 27.151032,14.910436 29.489227,15.251829 29.892549,16.810349 C 30.421061,18.961823 27.170841,19.538005 27.47467,20.271628 C 28.418201,22.48673 30.411602,24.429291 31.523727,26.590196 C 31.567342,26.67494 31.334386,26.945429 31.176034,27.078759 C 30.792881,27.461158 24.956021,30.840873 24.449184,30.916352 C 24.290833,31.049681 23.909224,31.065269 23.795054,31.064687 C 22.835424,31.059796 21.617299,29.159531 21.393631,28.736294 C 20.683163,27.485806 20.242832,26.672041 18.894858,24.744478 C 18.341992,23.92119 15.797818,22.146342 17.936003,20.47825 C 20.120324,18.773965 22.458521,19.115357 22.861843,20.673878 C 23.390354,22.825352 20.156702,23.397935 20.460528,24.13156 C 20.932295,25.239112 21.664257,26.277355 22.417289,27.308826 z" id="path2412" style="fill:&fill_color;;fill-rule:evenodd;stroke:&stroke_color;;stroke-width:0.72668952"/>
  <path d="M 38.521186,27.204929 C 39.274223,28.236399 40.195667,28.104276 41.020626,27.650767 C 42.897215,26.591511 45.186604,25.598387 44.528233,24.76887 C 43.817769,23.518379 43.360869,22.708213 42.012893,20.780649 C 41.460031,19.957364 38.932422,18.178916 41.070608,16.510826 C 43.254928,14.806539 45.593123,15.147932 45.996445,16.706452 C 46.524957,18.857926 43.274737,19.434108 43.578566,20.167731 C 44.522097,22.382834 46.515498,24.325395 47.627623,26.486299 C 47.671238,26.571043 47.438282,26.841533 47.27993,26.974863 C 46.896777,27.357261 41.059917,30.736977 40.55308,30.812455 C 40.394729,30.945785 40.01312,30.961372 39.89895,30.960791 C 38.93932,30.955899 37.721195,29.055635 37.497527,28.632398 C 36.787059,27.381909 36.346728,26.568145 34.998754,24.640582 C 34.445888,23.817294 31.901714,22.042445 34.039899,20.374353 C 36.22422,18.670068 38.562417,19.01146 38.965739,20.569981 C 39.49425,22.721456 36.260598,23.294038 36.564424,24.027664 C 37.036191,25.135216 37.768153,26.173459 38.521186,27.204929 z" id="path2414" style="fill:&stroke_color;;fill-rule:evenodd;stroke:&stroke_color;;stroke-width:0.72668952"/>
  <path d="M 25.790502,35.860006 C 25.037465,34.828537 24.116021,34.960659 23.291062,35.414169 C 21.414473,36.473424 19.125084,37.466548 19.783455,38.296066 C 20.493919,39.546557 20.950819,40.356723 22.298796,42.284286 C 22.851657,43.107571 25.379266,44.886019 23.241081,46.554109 C 21.05676,48.258396 18.718565,47.917003 18.315243,46.358483 C 17.786731,44.207009 21.036951,43.630827 20.733122,42.897204 C 19.789591,40.682102 17.79619,38.739541 16.684065,36.578636 C 16.64045,36.493892 16.873406,36.223403 17.031758,36.090073 C 17.414911,35.707675 23.251771,32.327959 23.758608,32.252481 C 23.916959,32.119151 24.298568,32.103563 24.412738,32.104145 C 25.372368,32.109036 26.590493,34.009301 26.814161,34.432538 C 27.524629,35.683026 27.96496,36.496791 29.312934,38.424354 C 29.8658,39.247642 32.409974,41.022491 30.271789,42.690582 C 28.087468,44.394867 25.749271,44.053475 25.345949,42.494954 C 24.817438,40.34348 28.05109,39.770897 27.747264,39.037272 C 27.275497,37.92972 26.543535,36.891477 25.790502,35.860006 z" id="path2416" style="fill:&stroke_color;;fill-rule:evenodd;stroke:&stroke_color;;stroke-width:0.72668952"/>
  <path d="M 42.206088,35.75611 C 41.453051,34.72464 40.531606,34.856763 39.706648,35.310272 C 37.830058,36.369528 35.540669,37.362652 36.19904,38.192169 C 36.909504,39.442661 37.366404,40.252827 38.714381,42.18039 C 39.267242,43.003675 41.794851,44.782123 39.656666,46.450213 C 37.472345,48.1545 35.13415,47.813107 34.730828,46.254587 C 34.202316,44.103113 37.452536,43.526931 37.148707,42.793308 C 36.205176,40.578205 34.211775,38.635644 33.09965,36.47474 C 33.056035,36.389996 33.288991,36.119506 33.447343,35.986177 C 33.830496,35.603778 39.667356,32.224062 40.174193,32.148584 C 40.332544,32.015255 40.714153,31.999667 40.828323,32.000248 C 41.787953,32.00514 43.006078,33.905404 43.229746,34.328642 C 43.940214,35.57913 44.380545,36.392894 45.728519,38.320457 C 46.281385,39.143745 48.825559,40.918594 46.687374,42.586686 C 44.503053,44.290971 42.164856,43.949579 41.761534,42.391058 C 41.233023,40.239583 44.466675,39.667001 44.162849,38.933375 C 43.691082,37.825823 42.95912,36.78758 42.206088,35.75611 z" id="path2418" style="fill:&fill_color;;fill-rule:evenodd;stroke:&stroke_color;;stroke-width:0.72668952"/>
</svg>