<?xml version="1.0" ?><!-- Generator: Adobe Illustrator 18.0.0, SVG Export Plug-In . SVG Version: 6.00 Build 0)  --><!DOCTYPE svg  PUBLIC '-//W3C//DTD SVG 1.1//EN'  'http://www.w3.org/Graphics/SVG/1.1/DTD/svg11.dtd' [
	<!ENTITY stroke_color "#666666">
	<!ENTITY fill_color "#ffffff">
]><svg enable-background="new 10 10 55 55" id="Layer_1" version="1.1" viewBox="10 10 55 55" x="0px" xml:space="preserve" xmlns="http://www.w3.org/2000/svg" xmlns:xlink="http://www.w3.org/1999/xlink" y="0px">
<g>
	<g>
		<path d="M35.1,63.3c-0.8,0-2.2-0.1-4.5-0.7    c-4.2-1.1-7.2-3.7-8.1-6.9c-0.6-2.2-0.2-4.4,1.3-6c0.1-0.1,0.1-0.1,0.2-0.2l-0.9,0.3c-0.1,0-0.3,0.1-0.4,0.1    c-0.4,0-0.7-0.2-0.9-0.5c-0.5-0.8-0.8-1.7-1.2-2.5c-0.2-0.5-0.4-1-0.7-1.5c-0.1-0.3-0.1-0.6,0-0.8c0.1-0.2,0.2-0.4,0.4-0.5    c-0.1,0-0.2,0-0.3,0c-0.2,0-0.3,0-0.4-0.1c-0.3-0.1-0.5-0.3-0.5-0.6c-0.8-2.3-5.3-22.1-6.7-28.2l0-0.2c0-0.1,0-0.1,0-0.2    c-0.1-1,0.5-2,1.4-2.6c0.5-0.3,1.1-0.5,1.7-0.5c0.9,0,1.7,0.4,2.2,1.1c0,0,0.1,0.1,0.1,0.2c0.4,1,10.6,24.2,11.4,26.5    c0.2,0.5,0,1-0.5,1.3c0.2,0,0.3,0,0.5,0.1c0.3,0.1,0.5,0.4,0.5,0.7c0.1,0.6,0.4,1.1,0.7,1.7c0.4,0.8,0.7,1.5,0.9,2.4    c0.1,0.5-0.2,1-0.7,1.1l-0.9,0.3c0,0,0.1,0,0.1,0c0,0,0,0,0,0c1.9,0,3.5,0.7,4.6,1.9c1,1.2,2.1,3.4,1.5,7.5c-0.4,3,0.9,4.6,1,4.6    c0.2,0.3,0.3,0.6,0.2,1c-0.1,0.3-0.3,0.6-0.7,0.7C36.1,63.2,35.7,63.3,35.1,63.3L35.1,63.3z" fill="&fill_color;" stroke="&stroke_color;" stroke-miterlimit="10" stroke-width="2"/>
	</g>
</g>
<g>
	<path d="M37.7,37.3c-1.8,0-3.3-0.8-3.9-2.2   c-0.4-0.9-0.4-1.9,0-2.8c0.5-1.3,1.7-2.4,3.1-3.1c0.8-0.4,1.7-0.6,2.6-0.6c0.2,0,0.3,0,0.5,0l-0.4-15.1c0-0.5,0.2-0.9,0.5-1.3   c0.3-0.4,0.8-0.6,1.3-0.6c0,0,0,0,0,0c0.5,0,1,0.2,1.4,0.6c0.2,0.1,0.3,0.3,0.4,0.5l0.1,0.2c0.2,0.6,0.3,1.1,0.5,1.5   c0.2,0.4,0.4,0.8,0.7,1c0.3,0.2,0.6,0.5,1.1,0.7c0.3,0.1,0.6,0.3,0.9,0.4c0.4,0.2,0.7,0.4,1.1,0.6c0.4,0.2,0.8,0.5,1.3,0.9   c0.5,0.5,0.9,0.9,1.2,1.5c0,0,0.1,0.2,0.1,0.3c0,0,0,0.1,0,0.1l0,0c0,0,0,0.1,0,0.1c0,0.1,0.1,0.2,0.1,0.4c0.1,0.3,0.2,0.5,0.2,0.8   c0.1,0.5,0.2,1.1,0.1,1.6c0,1-0.3,2-0.8,2.9c-0.2,0.4-0.5,0.8-0.8,1.2c-0.3,0.3-0.6,0.7-1.2,1C47.6,28,47.4,28,47.2,28   c-0.2,0-0.5-0.1-0.6-0.2c-0.3-0.3-0.5-0.7-0.4-1.1c0.3-1.3,0.4-2.5,0.1-3.4c-0.1-0.2-0.1-0.4-0.2-0.6c0-0.1-0.1-0.1-0.1-0.2   l-0.1-0.1c0,0-0.1-0.1-0.1-0.1c-0.1-0.1-0.3-0.3-0.9-0.6c-0.3-0.1-0.6-0.3-0.9-0.4c0,0-0.5-0.3-0.7-0.4l0.3,11.3c0,0.1,0,0.3,0,0.4   c-0.2,1.7-1.5,3.3-3.4,4.2C39.4,37.1,38.5,37.3,37.7,37.3z" fill="&fill_color;" stroke="&stroke_color;" stroke-miterlimit="10" stroke-width="2"/>
</g>
<g>
	<path d="M57.5,57.7c-1.6,0-3-0.8-3.5-2.1   c-0.4-0.9-0.3-2,0.3-3c0.5-0.9,1.4-1.6,2.5-2.1c0.7-0.3,1.4-0.4,2.1-0.4c0.2,0,0.4,0,0.6,0v-9.3h-9.2v12.5c0,0.1,0,0.2,0,0.3   c-0.2,1.5-1.3,2.9-3,3.6c-0.7,0.3-1.4,0.4-2.1,0.4c-1.6,0-3-0.8-3.5-2.1c-0.8-1.9,0.5-4.1,2.8-5.1c0.7-0.3,1.4-0.4,2.1-0.4   c0.2,0,0.4,0,0.6,0V37.6c0,0,0-0.1,0-0.1V37c0-0.9,0.8-1.7,1.7-1.7h12.1c0.9,0,1.7,0.8,1.7,1.7v0.5c0,0,0,0.1,0,0.1v15.7   c0,0.1,0,0.2,0,0.2c-0.1,1.5-1.3,3-3,3.7C58.9,57.6,58.2,57.7,57.5,57.7L57.5,57.7z" fill="&fill_color;" stroke="&stroke_color;" stroke-miterlimit="10" stroke-width="2"/>
</g>
</svg>