<?xml version="1.0" ?><!-- Created with Inkscape (http://www.inkscape.org/) --><!DOCTYPE svg  PUBLIC '-//W3C//DTD SVG 1.1//EN'  'http://www.w3.org/Graphics/SVG/1.1/DTD/svg11.dtd' [
	<!ENTITY stroke_color "#000000">
	<!ENTITY fill_color "#ffffff">
]><svg height="55" id="svg2" inkscape:version="0.48.4 r9939" sodipodi:docname="madagascar.svg" version="1.1" width="55" xmlns="http://www.w3.org/2000/svg" xmlns:cc="http://creativecommons.org/ns#" xmlns:dc="http://purl.org/dc/elements/1.1/" xmlns:inkscape="http://www.inkscape.org/namespaces/inkscape" xmlns:rdf="http://www.w3.org/1999/02/22-rdf-syntax-ns#" xmlns:sodipodi="http://sodipodi.sourceforge.net/DTD/sodipodi-0.dtd" xmlns:svg="http://www.w3.org/2000/svg">
  <metadata id="metadata8">
    <rdf:RDF>
      <cc:Work rdf:about="">
        <dc:format>image/svg+xml</dc:format>
        <dc:type rdf:resource="http://purl.org/dc/dcmitype/StillImage"/>
        <dc:title/>
      </cc:Work>
    </rdf:RDF>
  </metadata>
  <defs id="defs6"/>
  <sodipodi:namedview bordercolor="#666666" borderopacity="1" gridtolerance="10" guidetolerance="10" id="namedview4" inkscape:current-layer="svg2" inkscape:cx="30.868966" inkscape:cy="-0.15871879" inkscape:pageopacity="0" inkscape:pageshadow="2" inkscape:window-height="744" inkscape:window-maximized="1" inkscape:window-width="1366" inkscape:window-x="0" inkscape:window-y="24" inkscape:zoom="3.9831224" objecttolerance="10" pagecolor="#ffffff" showgrid="false"/>
  <path d="m 38.994218,2.0056815 c 2.294721,0.7987576 1.940413,3.7789336 2.268659,5.7261409 0.13356,2.1361569 2.391165,4.6583946 0.71362,6.5719606 -2.0184,0.479818 -4.225052,1.855469 -2.525675,4.054429 0.433468,2.232075 -1.362215,4.248034 -1.481961,6.516456 -0.467681,2.94882 -2.231741,5.487162 -2.743976,8.435787 -0.669769,2.579732 -1.652006,5.052064 -2.729063,7.479646 -1.087441,3.08383 -0.737552,6.746077 -2.799287,9.42646 -1.727837,1.778602 -4.106726,2.595951 -6.414399,3.252538 -2.634468,0.379822 -5.243813,-1.595089 -5.980264,-4.091557 0.338526,-3.003248 -2.257678,-5.485099 -1.752487,-8.532654 0.172406,-2.344182 1.159195,-4.54714 2.71646,-6.292933 1.050352,-1.775528 2.821312,-4.225941 1.345332,-6.235222 -1.217033,-1.939796 -1.717236,-4.340621 -1.862055,-6.585761 0.25496,-2.354227 1.691575,-4.679484 3.932721,-5.581958 2.399326,-0.143755 4.151906,-2.109523 6.432284,-2.700675 2.090315,-0.919019 4.625393,-2.086538 4.536215,-4.7569344 -0.0088,-2.7190508 3.546336,-2.5903015 3.71371,-5.1098366 0.133778,-1.1136067 1.578019,-3.02443169 2.630166,-1.5758865 z" id="path3763" inkscape:connector-curvature="0" style="fill:&fill_color;;fill-opacity:1;stroke:&stroke_color;;stroke-width:2.96788359;stroke-linecap:butt;stroke-linejoin:miter;stroke-miterlimit:4;stroke-opacity:1;stroke-dasharray:none"/>
</svg>