<?xml version="1.0" ?><!DOCTYPE svg  PUBLIC '-//W3C//DTD SVG 1.1//EN'  'http://www.w3.org/Graphics/SVG/1.1/DTD/svg11.dtd' [
	<!ENTITY stroke_color "#010101">
	<!ENTITY fill_color "#FFFFFF">
]><svg enable-background="new 0 0 55 55" height="55px" version="1.1" viewBox="0 0 55 55" width="55px" x="0px" xml:space="preserve" xmlns="http://www.w3.org/2000/svg" xmlns:xlink="http://www.w3.org/1999/xlink" y="0px"><g display="block" id="activity-edittam">
	<rect display="inline" fill="&fill_color;" height="20" width="44.332" x="5.543" y="25"/>
	<path d="   M10.958,37.7c1.353-1.464,3.64-1.547,5.112-0.189c1.467,1.358,1.557,3.646,0.201,5.111c-1.355,1.464-3.644,1.546-5.11,0.189   C9.691,41.452,9.6,39.163,10.958,37.7z" display="inline" fill="&stroke_color;" id="path25_1_" stroke="&stroke_color;" stroke-linecap="round" stroke-linejoin="round"/>
	<path d="   M21.881,27.854c1.354-1.464,3.641-1.548,5.111-0.19c1.468,1.359,1.558,3.646,0.202,5.113c-1.355,1.464-3.644,1.545-5.11,0.19   C20.616,31.607,20.524,29.319,21.881,27.854z" display="inline" fill="&stroke_color;" id="path25_2_" stroke="&stroke_color;" stroke-linecap="round" stroke-linejoin="round"/>
	<path d="   M36.845,33.095c1.354-1.464,3.641-1.547,5.112-0.189c1.466,1.357,1.557,3.646,0.2,5.109c-1.354,1.464-3.643,1.549-5.109,0.189   C35.58,36.847,35.487,34.56,36.845,33.095z" display="inline" fill="&stroke_color;" id="path25_3_" stroke="&stroke_color;" stroke-linecap="round" stroke-linejoin="round"/>
	<polygon display="inline" fill="&stroke_color;" points="16.737,19.72 27.58,15.817 27.58,11.817    16.737,15.72  " stroke="&stroke_color;" stroke-width="2.25"/>
	
		<line display="inline" fill="none" stroke="&stroke_color;" stroke-linecap="round" stroke-linejoin="round" stroke-width="2.25" x1="27.58" x2="27.58" y1="11.817" y2="30.031"/>
	
		<line display="inline" fill="none" stroke="&stroke_color;" stroke-linecap="round" stroke-linejoin="round" stroke-width="2.25" x1="16.737" x2="16.737" y1="15.72" y2="40.44"/>
	
		<line display="inline" fill="none" stroke="&stroke_color;" stroke-linecap="round" stroke-linejoin="round" stroke-width="2.25" x1="42.532" x2="42.532" y1="34.512" y2="13.692"/>
	
		<line display="inline" fill="none" stroke="&stroke_color;" stroke-linecap="round" stroke-linejoin="round" stroke-width="3.5" x1="5.543" x2="49.875" y1="25" y2="25"/>
	
		<line display="inline" fill="none" stroke="&stroke_color;" stroke-linecap="round" stroke-linejoin="round" stroke-width="3.5" x1="5.543" x2="49.875" y1="35" y2="35"/>
	
		<line display="inline" fill="none" stroke="&stroke_color;" stroke-linecap="round" stroke-linejoin="round" stroke-width="3.5" x1="5.543" x2="49.875" y1="45" y2="45"/>
</g></svg>