<?xml version="1.0" ?><!DOCTYPE svg  PUBLIC '-//W3C//DTD SVG 1.1//EN'  'http://www.w3.org/Graphics/SVG/1.1/DTD/svg11.dtd' [
	<!ENTITY stroke_color "#00ff03">
	<!ENTITY fill_color "#ff0000">
]><!--Generator: Xara Xtreme (www.xara.com), SVG filter version: 1.0.0.13--><svg fill-rule="evenodd" height="41.25pt" overflow="visible" stroke-linejoin="bevel" stroke-width="0.501" version="1.1" viewBox="0 0 41.25 41.25" width="41.25pt" xmlns="http://www.w3.org/2000/svg" xmlns:xlink="http://www.w3.org/1999/xlink">
 <defs>
  <marker id="DefaultArrow2" markerHeight="1" markerUnits="strokeWidth" markerWidth="1" orient="auto" overflow="visible" viewBox="0 0 1 1">
   <!-- REF_ARROW_STRAIGHT (-2) -->
   <g transform="scale(0.0092592592)">
    <!-- 1/108 -->
    <path d="M -9 54 L -9 -54 L 117 0 z"/>
   </g>
  </marker>
  <marker id="DefaultArrow3" markerHeight="1" markerUnits="strokeWidth" markerWidth="1" orient="auto" overflow="visible" viewBox="0 0 1 1">
   <!-- REF_ARROW_ANGLED -->
   <g transform="scale(0.0092592592)">
    <path d="M -27 54 L -9 0 L -27 -54 L 135 0 z"/>
   </g>
  </marker>
  <marker id="DefaultArrow4" markerHeight="1" markerUnits="strokeWidth" markerWidth="1" orient="auto" overflow="visible" viewBox="0 0 1 1">
   <!-- REF_ARROW_ROUNDED -->
   <g transform="scale(0.0092592592)">
    <path d="M -9,0 L -9,-45 C -9,-51.708 2.808,-56.580 9,-54 L 117,-9 C 120.916,-7.369 126.000,-4.242 126,0 C 126,4.242 120.916,7.369 117,9 L 9,54 C 2.808,56.580 -9,51.708 -9,45 z"/>
   </g>
  </marker>
  <marker id="DefaultArrow5" markerHeight="1" markerUnits="strokeWidth" markerWidth="1" orient="auto" overflow="visible" viewBox="0 0 1 1">
   <!-- REF_ARROW_SPOT -->
   <g transform="scale(0.0092592592)">
    <path d="M -54, 0 C -54,29.807 -29.807,54 0,54 C 29.807,54 54,29.807 54,0 C 54,-29.807 29.807,-54 0,-54 C -29.807,-54 -54,-29.807 -54,0 z"/>
   </g>
  </marker>
  <marker id="DefaultArrow6" markerHeight="1" markerUnits="strokeWidth" markerWidth="1" orient="auto" overflow="visible" viewBox="0 0 1 1">
   <!-- REF_ARROW_DIAMOND -->
   <g transform="scale(0.0092592592)">
    <path d="M -63,0 L 0,63 L 63,0 L 0,-63 z"/>
   </g>
  </marker>
  <marker id="DefaultArrow7" markerHeight="1" markerUnits="strokeWidth" markerWidth="1" orient="auto" overflow="visible" viewBox="0 0 1 1">
   <!-- REF_ARROW_FEATHER -->
   <g transform="scale(0.0092592592)">
    <path d="M 18,-54 L 108,-54 L 63,0 L 108,54 L 18, 54 L -36,0 z"/>
   </g>
  </marker>
  <marker id="DefaultArrow8" markerHeight="1" markerUnits="strokeWidth" markerWidth="1" orient="auto" overflow="visible" viewBox="0 0 1 1">
   <!-- REF_ARROW_FEATHER2 -->
   <g transform="scale(0.0092592592)">
    <path d="M -36,0 L 18,-54 L 54,-54 L 18,-18 L 27,-18 L 63,-54 L 99,-54 L 63,-18 L 72,-18 L 108,-54 L 144,-54 L 90,0 L 144,54 L 108,54 L 72,18 L 63,18 L 99,54 L 63,54 L 27,18 L 18,18 L 54,54 L 18,54 z"/>
   </g>
  </marker>
  <marker id="DefaultArrow9" markerHeight="1" markerUnits="strokeWidth" markerWidth="1" orient="auto" overflow="visible" viewBox="0 0 1 1">
   <!-- REF_ARROW_HOLLOWDIAMOND -->
   <g transform="scale(0.0092592592)">
    <path d="M 0,45 L -45,0 L 0, -45 L 45, 0 z M 0, 63 L-63, 0 L 0, -63 L 63, 0 z"/>
   </g>
  </marker>
  <filter id="StainedFilter">
   <feBlend in="SourceGraphic" in2="BackgroundImage" mode="multiply" result="blend"/>
   <feComposite in="blend" in2="SourceAlpha" operator="in" result="comp"/>
  </filter>
  <filter id="BleachFilter">
   <feBlend in="SourceGraphic" in2="BackgroundImage" mode="screen" result="blend"/>
   <feComposite in="blend" in2="SourceAlpha" operator="in" result="comp"/>
  </filter>
  <filter id="InvertTransparencyBitmapFilter">
   <feComponentTransfer>
    <feFuncR amplitude="1.055" exponent=".416666666" offset="-0.055" type="gamma"/>
    <feFuncG amplitude="1.055" exponent=".416666666" offset="-0.055" type="gamma"/>
    <feFuncB amplitude="1.055" exponent=".416666666" offset="-0.055" type="gamma"/>
   </feComponentTransfer>
   <feComponentTransfer>
    <feFuncR intercept="1" slope="-1" type="linear"/>
    <feFuncG intercept="1" slope="-1" type="linear"/>
    <feFuncB intercept="1" slope="-1" type="linear"/>
    <feFuncA intercept="0" slope="1" type="linear"/>
   </feComponentTransfer>
   <feComponentTransfer>
    <feFuncR amplitude="1" exponent="2.4" offset="0" type="gamma"/>
    <feFuncG amplitude="1" exponent="2.4" offset="0" type="gamma"/>
    <feFuncB amplitude="1" exponent="2.4" offset="0" type="gamma"/>
   </feComponentTransfer>
  </filter>
 </defs>
 <g fill="none" font-family="Times New Roman" font-size="16" id="Document" stroke="black" transform="scale(1 -1)">
  <g id="Spread" transform="translate(0 -41.25)">
   <g id="Page background">
    <rect fill="&fill_color;" height="41.249" stroke="none" stroke-linejoin="bevel" stroke-miterlimit="79.8403193612775" stroke-width="0" width="41.249" x="0.001" y="0.001"/>
   </g>
   <g id="Layer 1">
    <rect fill="&stroke_color;" height="13.575" stroke="#000000" stroke-linecap="round" stroke-linejoin="miter" stroke-miterlimit="79.8403193612775" stroke-width="0.519" transform="translate(34.195 20.568) rotate(90)" width="13.575" x="-6.787" y="-6.787"/>
    <rect fill="&stroke_color;" height="13.575" stroke="#000000" stroke-linecap="round" stroke-linejoin="miter" stroke-miterlimit="79.8403193612775" stroke-width="0.519" transform="translate(7.203 20.601) rotate(90)" width="13.575" x="-6.787" y="-6.787"/>
    <rect fill="&stroke_color;" height="13.573" stroke="#000000" stroke-linecap="round" stroke-linejoin="miter" stroke-miterlimit="79.8403193612775" stroke-width="0.519" transform="translate(20.635 34.012) rotate(90)" width="13.575" x="-6.787" y="-6.786"/>
    <rect fill="&stroke_color;" height="13.573" stroke="#000000" stroke-linecap="round" stroke-linejoin="miter" stroke-miterlimit="79.8403193612775" stroke-width="0.519" transform="translate(20.635 20.515) rotate(90)" width="13.573" x="-6.786" y="-6.786"/>
    <path d="M 13.848,0.416 L 0.274,13.874 L 0.274,13.944 L 13.848,13.944 L 13.848,0.416 Z" fill="&stroke_color;" marker-end="none" marker-start="none" stroke="#000000" stroke-linecap="round" stroke-linejoin="miter" stroke-miterlimit="79.8403193612775" stroke-width="0.519"/>
    <path d="M 27.43,27.324 L 27.43,40.828 L 41.005,27.369 L 41.005,27.324 L 27.43,27.324 Z" fill="&stroke_color;" marker-end="none" marker-start="none" stroke="#000000" stroke-linecap="round" stroke-linejoin="miter" stroke-miterlimit="79.8403193612775" stroke-width="0.519"/>
    <path d="M 13.864,40.838 L 0.289,27.379 L 0.289,27.309 L 13.864,27.309 L 13.864,40.838 Z" fill="&stroke_color;" marker-end="none" marker-start="none" stroke="#000000" stroke-linecap="round" stroke-linejoin="miter" stroke-miterlimit="79.8403193612775" stroke-width="0.519"/>
    <path d="M 27.148,13.851 L 27.148,0.347 L 40.722,13.806 L 40.722,13.851 L 27.148,13.851 Z" fill="&stroke_color;" marker-end="none" marker-start="none" stroke="#000000" stroke-linecap="round" stroke-linejoin="miter" stroke-miterlimit="79.8403193612775" stroke-width="0.519"/>
    <rect fill="&stroke_color;" height="13.573" stroke="#000000" stroke-linecap="round" stroke-linejoin="miter" stroke-miterlimit="79.8403193612775" stroke-width="0.519" transform="translate(20.635 7.123) rotate(90)" width="13.575" x="-6.787" y="-6.786"/>
    <rect fill="&stroke_color;" height="13.695" stroke="#000000" stroke-linecap="round" stroke-linejoin="miter" stroke-miterlimit="79.8403193612775" stroke-width="0.519" width="13.575" x="27.408" y="13.906"/>
    <rect fill="&stroke_color;" height="13.695" stroke="#000000" stroke-linecap="round" stroke-linejoin="miter" stroke-miterlimit="79.8403193612775" stroke-width="0.519" width="13.575" x="0.416" y="13.939"/>
    <rect fill="&stroke_color;" height="13.695" stroke="#000000" stroke-linecap="round" stroke-linejoin="miter" stroke-miterlimit="79.8403193612775" stroke-width="0.519" width="13.573" x="13.849" y="27.469"/>
    <rect fill="&stroke_color;" height="13.695" stroke="#000000" stroke-linecap="round" stroke-linejoin="miter" stroke-miterlimit="79.8403193612775" stroke-width="0.519" width="13.573" x="13.849" y="13.852"/>
    <path d="M 13.848,0.422 L 0.274,13.999 L 0.274,14.07 L 13.848,14.07 L 13.848,0.422 Z" fill="&stroke_color;" marker-end="none" marker-start="none" stroke="#000000" stroke-linecap="round" stroke-linejoin="miter" stroke-miterlimit="79.8403193612775" stroke-width="0.519"/>
    <path d="M 27.43,27.569 L 27.43,41.192 L 41.005,27.614 L 41.005,27.569 L 27.43,27.569 Z" fill="&stroke_color;" marker-end="none" marker-start="none" stroke="#000000" stroke-linecap="round" stroke-linejoin="miter" stroke-miterlimit="79.8403193612775" stroke-width="0.519"/>
    <path d="M 13.864,41.202 L 0.289,27.624 L 0.289,27.554 L 13.864,27.554 L 13.864,41.202 Z" fill="&stroke_color;" marker-end="none" marker-start="none" stroke="#000000" stroke-linecap="round" stroke-linejoin="miter" stroke-miterlimit="79.8403193612775" stroke-width="0.519"/>
    <path d="M 27.148,13.976 L 27.148,0.353 L 40.722,13.931 L 40.722,13.976 L 27.148,13.976 Z" fill="&stroke_color;" marker-end="none" marker-start="none" stroke="#000000" stroke-linecap="round" stroke-linejoin="miter" stroke-miterlimit="79.8403193612775" stroke-width="0.519"/>
    <rect fill="&stroke_color;" height="13.695" stroke="#000000" stroke-linecap="round" stroke-linejoin="miter" stroke-miterlimit="79.8403193612775" stroke-width="0.519" width="13.573" x="13.849" y="0.342"/>
    <rect fill="&stroke_color;" height="13.695" stroke="#000000" stroke-linecap="round" stroke-linejoin="miter" stroke-miterlimit="79.8403193612775" stroke-width="0.519" width="13.698" x="27.282" y="13.906"/>
    <rect fill="&stroke_color;" height="13.695" stroke="#000000" stroke-linecap="round" stroke-linejoin="miter" stroke-miterlimit="79.8403193612775" stroke-width="0.519" width="13.696" x="0.048" y="13.939"/>
    <rect fill="&stroke_color;" height="13.695" stroke="#000000" stroke-linecap="round" stroke-linejoin="miter" stroke-miterlimit="79.8403193612775" stroke-width="0.519" width="13.696" x="13.601" y="27.469"/>
    <rect fill="&stroke_color;" height="13.695" stroke="#000000" stroke-linecap="round" stroke-linejoin="miter" stroke-miterlimit="79.8403193612775" stroke-width="0.519" width="13.696" x="13.601" y="13.852"/>
    <path d="M 13.601,0.422 L -0.096,13.999 L -0.096,14.07 L 13.601,14.07 L 13.601,0.422 Z" fill="&stroke_color;" marker-end="none" marker-start="none" stroke="#000000" stroke-linecap="round" stroke-linejoin="miter" stroke-miterlimit="79.8403193612775" stroke-width="0.519"/>
    <path d="M 27.305,27.569 L 27.305,41.192 L 41.003,27.614 L 41.003,27.569 L 27.305,27.569 Z" fill="&stroke_color;" marker-end="none" marker-start="none" stroke="#000000" stroke-linecap="round" stroke-linejoin="miter" stroke-miterlimit="79.8403193612775" stroke-width="0.519"/>
    <path d="M 13.617,41.202 L -0.081,27.624 L -0.081,27.554 L 13.617,27.554 L 13.617,41.202 Z" fill="&stroke_color;" marker-end="none" marker-start="none" stroke="#000000" stroke-linecap="round" stroke-linejoin="miter" stroke-miterlimit="79.8403193612775" stroke-width="0.519"/>
    <path d="M 27.021,13.976 L 27.021,0.353 L 40.717,13.931 L 40.717,13.976 L 27.021,13.976 Z" fill="&stroke_color;" marker-end="none" marker-start="none" stroke="#000000" stroke-linecap="round" stroke-linejoin="miter" stroke-miterlimit="79.8403193612775" stroke-width="0.519"/>
    <rect fill="&stroke_color;" height="13.695" stroke="#000000" stroke-linecap="round" stroke-linejoin="miter" stroke-miterlimit="79.8403193612775" stroke-width="0.519" width="13.696" x="13.601" y="0.342"/>
    <rect fill="&stroke_color;" height="13.722" stroke="#000000" stroke-linecap="round" stroke-linejoin="miter" stroke-miterlimit="79.8403193612775" stroke-width="0.519" width="13.698" x="27.282" y="13.851"/>
    <rect fill="&stroke_color;" height="13.72" stroke="#000000" stroke-linecap="round" stroke-linejoin="miter" stroke-miterlimit="79.8403193612775" stroke-width="0.519" width="13.696" x="0.048" y="13.886"/>
    <rect fill="&stroke_color;" height="13.72" stroke="#000000" stroke-linecap="round" stroke-linejoin="miter" stroke-miterlimit="79.8403193612775" stroke-width="0.519" width="13.696" x="13.601" y="27.442"/>
    <rect fill="&stroke_color;" height="13.722" stroke="#000000" stroke-linecap="round" stroke-linejoin="miter" stroke-miterlimit="79.8403193612775" stroke-width="0.519" width="13.696" x="13.601" y="13.797"/>
    <path d="M 13.601,0.342 L -0.096,13.945 L -0.096,14.017 L 13.601,14.017 L 13.601,0.342 Z" fill="&stroke_color;" marker-end="none" marker-start="none" stroke="#000000" stroke-linecap="round" stroke-linejoin="miter" stroke-miterlimit="79.8403193612775" stroke-width="0.519"/>
    <path d="M 27.305,27.542 L 27.305,41.191 L 41.003,27.587 L 41.003,27.542 L 27.305,27.542 Z" fill="&stroke_color;" marker-end="none" marker-start="none" stroke="#000000" stroke-linecap="round" stroke-linejoin="miter" stroke-miterlimit="79.8403193612775" stroke-width="0.519"/>
    <path d="M 13.617,41.201 L -0.081,27.597 L -0.081,27.527 L 13.617,27.527 L 13.617,41.201 Z" fill="&stroke_color;" marker-end="none" marker-start="none" stroke="#000000" stroke-linecap="round" stroke-linejoin="miter" stroke-miterlimit="79.8403193612775" stroke-width="0.519"/>
    <path d="M 27.021,13.922 L 27.021,0.273 L 40.717,13.877 L 40.717,13.922 L 27.021,13.922 Z" fill="&stroke_color;" marker-end="none" marker-start="none" stroke="#000000" stroke-linecap="round" stroke-linejoin="miter" stroke-miterlimit="79.8403193612775" stroke-width="0.519"/>
    <rect fill="&stroke_color;" height="13.722" stroke="#000000" stroke-linecap="round" stroke-linejoin="miter" stroke-miterlimit="79.8403193612775" stroke-width="0.519" width="13.696" x="13.601" y="0.261"/>
   </g>
  </g>
 </g>
</svg>