<?xml version="1.0" ?><!-- Created with Inkscape (http://www.inkscape.org/) --><!DOCTYPE svg  PUBLIC '-//W3C//DTD SVG 1.1//EN'  'http://www.w3.org/Graphics/SVG/1.1/DTD/svg11.dtd' [
	<!ENTITY stroke_color "#000000">
	<!ENTITY fill_color "#ffffff">
]><svg height="55" id="svg2" inkscape:version="0.48.4 r9939" sodipodi:docname="ruanda-icon.svg" version="1.1" width="55" xmlns="http://www.w3.org/2000/svg" xmlns:cc="http://creativecommons.org/ns#" xmlns:dc="http://purl.org/dc/elements/1.1/" xmlns:inkscape="http://www.inkscape.org/namespaces/inkscape" xmlns:rdf="http://www.w3.org/1999/02/22-rdf-syntax-ns#" xmlns:sodipodi="http://sodipodi.sourceforge.net/DTD/sodipodi-0.dtd" xmlns:svg="http://www.w3.org/2000/svg">
  <metadata id="metadata8">
    <rdf:RDF>
      <cc:Work rdf:about="">
        <dc:format>image/svg+xml</dc:format>
        <dc:type rdf:resource="http://purl.org/dc/dcmitype/StillImage"/>
        <dc:title/>
      </cc:Work>
    </rdf:RDF>
  </metadata>
  <defs id="defs6">
    <inkscape:path-effect effect="spiro" id="path-effect3838" is_visible="true"/>
    <inkscape:path-effect effect="spiro" id="path-effect3834" is_visible="true"/>
    <inkscape:path-effect effect="spiro" id="path-effect3830" is_visible="true"/>
    <inkscape:path-effect effect="spiro" id="path-effect3814" is_visible="true"/>
  </defs>
  <sodipodi:namedview bordercolor="#666666" borderopacity="1" gridtolerance="10" guidetolerance="10" id="namedview4" inkscape:current-layer="svg2" inkscape:cx="-17.260372" inkscape:cy="37.562804" inkscape:pageopacity="0" inkscape:pageshadow="2" inkscape:window-height="744" inkscape:window-maximized="1" inkscape:window-width="1366" inkscape:window-x="0" inkscape:window-y="24" inkscape:zoom="5.9334116" objecttolerance="10" pagecolor="#ffffff" showgrid="false"/>
  <path d="m 51.315079,17.250958 -1.006118,-3.35372 C 48.754224,13.397516 47.343755,12.457203 46.284499,11.214261 45.325947,10.089487 44.656107,8.7206877 44.356105,7.2736433 44.52731,7.1009565 44.651032,6.8816547 44.710301,6.6458176 44.769569,6.4099805 44.764226,6.1582429 44.695002,5.9251334 44.613859,5.6518846 44.444563,5.4055648 44.218538,5.2318933 43.992513,5.0582218 43.710901,4.9580765 43.425972,4.9500452 l -3.094334,1.2336403 -2.431447,2.5991304 -2.282623,2.9533631 -2.664115,1.909528 -4.359832,0.838435 -2.599103,-3.521402 -3.186036,1.7607 -5.282111,2.263764 -3.353721,2.17992 -3.018348,2.515294 c -1.114481,1.091506 -1.9096971,2.50522 -2.2637644,4.02446 -0.334066,1.433418 -0.2754925,2.95631 0.1676878,4.359833 l 0.251525,5.533633 -4.2759895,3.186032 -3.1021914,2.263766 -0.083835,2.431445 c -0.1153865,0.480449 -0.080903,0.995776 0.097468,1.456568 0.1783708,0.460793 0.4998457,0.865027 0.9086463,1.142565 0.1107692,0.0752 0.2277152,0.141303 0.3492728,0.197419 l 2.0821737,2.653241 3.1021875,-2.850658 4.5181962,1.036792 1.613894,2.350903 1.078404,2.481312 3.772932,4e-6 3.588785,-1.002213 2.367604,-0.141892 3.685559,-1.455034 0.132477,-5.450514 c -0.362039,-0.259067 -0.647973,-0.62318 -0.813812,-1.03632 -0.165839,-0.413141 -0.211016,-0.873897 -0.128581,-1.31138 0.08244,-0.437484 0.292202,-0.8502 0.597027,-1.174653 0.304824,-0.324453 0.703665,-0.559533 1.135161,-0.669073 0.406838,-0.103281 0.841422,-0.09496 1.244008,0.02382 0.402586,0.11878 0.772085,0.347698 1.0577,0.655282 l 4.154199,0.99776 3.689092,-2.012231 3.605245,-0.08384 4.95111,0.915979 4.486983,-0.995781 0.444778,-4.091161 -0.588847,-4.053978 0.01253,-3.848443 -0.725081,-4.704014 -0.951767,-3.261091" id="path3836" inkscape:connector-curvature="0" inkscape:original-d="m 51.315079,17.250958 c -0.509857,-1.048295 -0.848707,-2.198533 -1.006118,-3.35372 -1.31232,-1.036112 -3.012931,-1.433762 -4.024462,-2.682977 -0.752888,-0.96834 -1.392432,-2.6786311 -1.928394,-3.9406177 -0.588575,-0.1332 -0.261245,-0.9810661 0.338897,-1.3485099 0.58717,-0.3595016 -1.62153,-0.9366159 -1.26903,-0.9750882 -1.567482,0.778886 -3.654638,-0.805842 -3.094334,1.2336403 -1.429188,-0.00199 -0.97728,2.1829675 -2.431447,2.5991304 -1.723741,0.1023797 -1.893283,1.6572971 -2.282623,2.9533631 -0.846687,0.940924 -2.889747,-0.01264 -2.664115,1.909528 -1.266838,0.587192 -3.124483,1.101781 -4.359832,0.838435 -1.184966,-0.475212 -0.427735,-4.7548237 -2.599103,-3.521402 0.118462,1.915884 -2.559318,-0.0635 -3.186036,1.7607 -1.946902,0.09106 -4.225625,0.393142 -5.282111,2.263764 -1.370536,1.048051 -2.966032,0.39507 -3.353721,2.17992 -0.673371,1.137425 -1.938423,1.763354 -3.018348,2.515294 0.0202,1.778961 -1.6519254,2.620747 -2.2637644,4.02446 -0.5354975,1.445416 -0.7843979,2.960415 0.1676878,4.359833 0.8406214,1.644783 1.2100736,3.781279 0.251525,5.533633 -0.8146722,1.855809 -3.2438095,1.843997 -4.2759895,3.186032 -0.405379,1.703137 -3.3465818,0.707021 -3.1021914,2.263766 0.017571,1.05282 0.9162157,2.140792 -0.083835,2.431445 -0.2760835,1.204051 0.7608594,1.72001 1.0061143,2.599133 0.070243,0.216598 0.6558236,-1.78861 0.3492728,0.197419 -0.7487329,2.132405 0.9240024,1.398349 2.0821737,2.653241 2.4942616,2.117495 0.2238865,-3.730495 3.1021875,-2.850658 1.7710402,0.04202 2.7898462,0.734075 4.5181962,1.036792 1.615574,0.149351 1.622008,1.171687 1.613894,2.350903 -0.445311,1.008335 -1.008086,3.400485 1.078404,2.481312 0.938459,-1.413693 2.504673,-0.248389 3.772932,4e-6 1.059468,-0.689912 2.641935,-1.234014 3.588785,-1.002213 0.552838,0.444736 1.753337,0.785495 2.367604,-0.141892 1.155279,-0.713415 2.663094,-0.04284 3.685559,-1.455034 0.677112,-1.781957 0.342436,-3.604054 0.132477,-5.450514 1.422874,-0.702596 0.783995,-2.674238 0.789795,-4.191426 0.04782,-1.913598 1.26157,0.690366 2.301708,0.679104 1.610642,-0.340824 2.75449,1.573983 4.154199,0.99776 -0.199831,-2.704382 3.156163,-0.705618 3.689092,-2.012231 1.05749,-0.976561 2.736877,-1.397932 3.605245,-0.08384 0.692739,1.491206 3.758021,1.47711 4.95111,0.915979 1.50571,-1.311959 4.054891,1.485578 4.486983,-0.995781 0.841881,-1.270693 -0.782618,-2.832663 0.444778,-4.091161 0.816283,-1.403838 1.80657,-3.547393 -0.588847,-4.053978 -0.640235,-1.009197 -1.102523,-3.00918 0.01253,-3.848443 0.462801,-1.768063 -0.83421,-3.274435 -0.725081,-4.704014 1.853755,-0.436422 -0.554319,-2.262238 -0.951767,-3.261091 z" inkscape:path-effect="#path-effect3838" sodipodi:nodetypes="ccccsccccccccccccccccccccccccccccccccccccccccc" style="fill:&fill_color;;stroke:&stroke_color;;stroke-width:3.588;stroke-linecap:butt;stroke-linejoin:miter;stroke-miterlimit:4;stroke-opacity:1;stroke-dasharray:none;fill-opacity:1"/>
</svg>