<?xml version="1.0" ?><!-- Created with Inkscape (http://www.inkscape.org/) --><!DOCTYPE svg  PUBLIC '-//W3C//DTD SVG 1.1//EN'  'http://www.w3.org/Graphics/SVG/1.1/DTD/svg11.dtd' [
	<!ENTITY stroke_color "#000000">
	<!ENTITY fill_color "#666666">
]><svg height="55px" id="svg3737" version="1.0" width="55px" xmlns="http://www.w3.org/2000/svg" xmlns:svg="http://www.w3.org/2000/svg">
  <defs id="defs3"/>
  <g id="layer1">
    <path d="M 8.906382,7.3606237 C 8.906382,7.7322009 10.647913,9.7722576 11.049239,10.574911 C 11.542539,11.56151 12.108364,12.668553 12.299239,13.432053 C 12.588773,14.590189 12.942075,15.753429 13.370667,16.824911 C 13.829335,17.971579 13.769986,19.136472 14.084953,20.396339 C 14.375579,21.558844 14.416031,22.944583 14.620667,23.967768 C 14.838883,25.058846 14.97781,26.006522 14.97781,27.182053 C 14.97781,28.297644 15.156382,29.571657 15.156382,30.753482 C 15.156382,32.003482 15.156382,33.253482 15.156382,34.503482 C 15.156382,35.813006 15.156382,37.122529 15.156382,38.432053 C 15.156382,39.741577 15.156382,41.051101 15.156382,42.360625 C 15.156382,43.610625 15.156382,44.860625 15.156382,46.110625 C 15.156382,47.182053 15.156382,48.253482 15.156382,49.32491" id="path3341" style="fill:none;fill-rule:evenodd;stroke:&stroke_color;;stroke-width:3.5px;stroke-linecap:butt;stroke-linejoin:miter;stroke-opacity:1"/>
    <path d="M 14.904323,48.653767 C 15.700637,49.440116 16.935789,47.653227 18.028322,47.383512 C 18.995158,47.144827 20.077246,47.285987 21.152322,47.020582 C 22.158165,46.772267 23.117551,46.657652 24.27632,46.657652 C 25.440163,46.657652 26.604006,46.657652 27.767849,46.657652 C 29.054201,46.657652 30.340554,46.657652 31.626906,46.657652 C 32.790749,46.657652 33.954592,46.657652 35.118435,46.657652 C 36.221024,46.657652 37.323611,46.657652 38.4262,46.657652 C 39.730935,46.657652 40.962923,46.639886 42.101492,47.202046 C 43.097595,47.693864 44.440498,48.084717 45.225492,48.472302 C 45.974476,48.842108 46.680364,49.044432 47.614432,49.198162" id="path3355" style="fill:none;fill-rule:evenodd;stroke:&stroke_color;;stroke-width:3.5px;stroke-linecap:butt;stroke-linejoin:miter;stroke-opacity:1"/>
    <path d="M 47.385984,49.759824 C 47.245209,49.467002 47.385984,47.538833 47.385984,46.636601 C 47.385984,45.364178 47.385984,44.091755 47.385984,42.81933 C 47.385984,41.778255 47.385984,40.737183 47.385984,39.696108 C 47.385984,38.539359 47.385984,37.38261 47.385984,36.225861 C 47.385984,34.66425 47.385984,33.102639 47.385984,31.541027 C 47.385984,29.870535 47.052321,28.335622 47.052321,26.682681 C 47.052321,25.489221 46.885489,24.415814 46.885489,23.212435 C 46.885489,22.112167 46.466348,20.427662 46.218163,19.395163 C 45.834003,17.796986 45.427111,16.277757 45.050343,14.710331 C 44.686443,13.196442 43.768911,11.812245 43.215194,10.37252 C 42.720272,9.0856606 42.001614,8.2581449 41.546881,7.0757851 C 41.343637,6.5473323 41.10997,6.3941768 40.879553,6.034711" id="path3359" style="fill:none;fill-rule:evenodd;stroke:&stroke_color;;stroke-width:3.5px;stroke-linecap:butt;stroke-linejoin:miter;stroke-opacity:1"/>
    <path d="M 41.049239,6.1106237 C 40.612213,5.8921109 39.06339,5.0391951 38.370667,5.0391951 C 37.120667,5.0391951 35.870667,5.0391951 34.620667,5.0391951 C 33.311144,5.0391951 32.00162,5.0391951 30.692096,5.0391951 C 29.561144,5.0391951 28.430191,5.0391951 27.299239,5.0391951 C 26.108763,5.0391951 24.918286,5.0391951 23.72781,5.0391951 C 22.436892,5.0391951 21.010348,4.9149893 19.799239,5.2177665 C 18.651054,5.5048128 17.460443,5.5069543 16.22781,5.7534808 C 14.915446,6.0159537 13.595961,6.1435859 12.299239,6.4677665 C 11.148647,6.7554146 7.755789,7.8268432 8.906382,7.5391951 C 8.906382,7.7266304 7.780583,9.5423906 7.656382,10.039196 C 7.459305,10.827502 7.299239,11.598257 7.299239,12.539196 C 7.299239,13.432053 7.299239,14.324911 7.299239,15.217768 C 7.299239,15.396339 7.299239,15.574911 7.299239,15.753482 C 7.299239,16.860689 8.987494,14.284354 9.97781,13.789196 C 10.770011,13.393096 10.967804,13.074911 11.942096,13.074911" id="path3361" style="fill:none;fill-rule:evenodd;stroke:&stroke_color;;stroke-width:3.5px;stroke-linecap:butt;stroke-linejoin:miter;stroke-opacity:1"/>
    <path d="M 37.393565,13.673909 C 37.02255,13.659039 36.650922,13.659459 36.279629,13.658184 C 35.878539,13.684946 35.462607,13.60819 35.06898,13.699057 C 34.972075,13.741171 34.861616,13.732612 34.763033,13.767224 C 34.675573,13.797931 34.336647,14.029274 34.526348,13.922091 C 35.233378,13.522612 37.361914,12.339424 36.636672,12.704798 C 35.819855,13.116307 35.046379,13.608728 34.251233,14.060693 C 38.081726,11.679303 36.40704,12.764261 35.619583,13.469462 C 35.30119,13.758367 35.005755,14.080418 34.740789,14.419444 C 34.503671,14.767064 34.289492,15.127504 34.044787,15.470249 C 33.778453,15.805317 33.51831,16.145022 33.258685,16.485399 C 32.958038,16.903882 32.659942,17.324479 32.351557,17.737289 C 32.080909,18.113653 31.796902,18.480246 31.534921,18.862764 C 31.233862,19.309525 30.940206,19.75967 30.620048,20.193185 C 30.287598,20.648459 29.920258,21.07325 29.608498,21.543519 C 29.409373,21.860623 29.169345,22.148499 28.928784,22.434327 L 26.563952,23.434702 C 26.805292,23.160319 27.046519,22.884203 27.247071,22.577669 C 27.560131,22.10386 27.906105,21.660835 28.258596,21.215862 C 28.566331,20.780044 28.888024,20.354981 29.168004,19.899984 C 29.417777,19.50571 29.70517,19.138758 29.973094,18.756934 C 30.297867,18.358037 30.591546,17.933899 30.8852,17.512729 C 31.124952,17.164513 31.383225,16.828702 31.653659,16.503997 C 31.909245,16.163359 32.150315,15.819215 32.363503,15.450199 C 32.605265,15.081993 32.917503,14.772917 33.207746,14.443867 C 33.36767,14.318411 33.499908,14.16882 33.656817,14.040981 C 34.453461,13.391924 35.509394,13.002935 36.297004,12.425808 C 35.59491,12.831779 33.485038,14.043418 34.190722,13.643722 C 35.277831,13.027987 36.014146,12.276604 37.163732,12.136342 C 37.567941,12.124193 37.972468,12.13808 38.376807,12.134495 C 38.762539,12.133182 39.148545,12.13315 39.534031,12.118769 L 37.393565,13.673909 z" id="path3375" style="fill:&fill_color;;fill-opacity:1"/>
    <path d="M 27.696413,12.239847 C 28.010042,12.181171 28.328351,12.158723 28.646504,12.142873 C 29.061391,12.134862 29.476339,12.131634 29.891292,12.129988 C 30.296564,12.164465 30.57069,12.421281 30.870383,12.661989 C 31.231942,12.959963 31.486963,13.348629 31.765959,13.717918 C 32.12886,14.180378 32.44753,14.672539 32.774351,15.160232 C 32.990665,15.531635 33.223071,15.891449 33.430514,16.26792 C 33.678467,16.647995 33.849386,17.068966 34.038581,17.479569 C 34.204955,17.879716 34.304382,18.301913 34.445364,18.711475 C 34.603158,19.112077 34.770812,19.509776 34.985301,19.883581 C 35.181193,20.250998 35.461951,20.562844 35.745918,20.863824 C 36.089132,21.244292 36.515032,21.50589 36.997305,21.667072 C 37.344619,21.764387 37.706856,21.773423 38.064935,21.781577 L 35.957603,23.299206 C 35.582515,23.2764 35.202302,23.248566 34.848314,23.111484 C 34.354989,22.899734 33.912908,22.604025 33.54309,22.211385 C 33.230187,21.906202 32.935913,21.57436 32.737399,21.181449 C 32.512358,20.794106 32.344244,20.379575 32.176928,19.964707 C 32.035296,19.562283 31.9182,19.156597 31.78442,18.752301 C 31.602063,18.347458 31.419543,17.938677 31.179804,17.564119 C 30.968467,17.196628 30.745397,16.837927 30.550966,16.461104 C 30.235675,15.972006 29.939001,15.472883 29.548149,15.037542 C 29.275759,14.688511 29.020397,14.325937 28.670431,14.046258 C 28.403508,13.840284 28.138857,13.655248 27.785964,13.66032 C 27.372831,13.660524 26.959,13.658562 26.546792,13.689987 C 26.227296,13.717013 25.90239,13.748355 25.601656,13.867255 L 27.696413,12.239847 z" id="path3377" style="fill:&fill_color;;fill-opacity:1"/>
    <path d="M -48.928572,41.875 A 0.8035714,0.8035714 0 1 1 -50.535715,41.875 A 0.8035714,0.8035714 0 1 1 -48.928572,41.875 z" id="path3405" style="fill:&fill_color;;fill-opacity:1" transform="translate(68.72781,3.91948e-2)"/>
    <path d="M -48.928572,41.875 A 0.8035714,0.8035714 0 1 1 -50.535715,41.875 A 0.8035714,0.8035714 0 1 1 -48.928572,41.875 z" id="path3407" style="fill:&fill_color;;fill-opacity:1;display:inline" transform="translate(73.281382,-2.7286623)"/>
    <path d="M -48.928572,41.875 A 0.8035714,0.8035714 0 1 1 -50.535715,41.875 A 0.8035714,0.8035714 0 1 1 -48.928572,41.875 z" id="path3409" style="fill:&fill_color;;fill-opacity:1;display:inline" transform="translate(70.959954,-1.1215194)"/>
    <path d="M -48.928572,41.875 A 0.8035714,0.8035714 0 1 1 -50.535715,41.875 A 0.8035714,0.8035714 0 1 1 -48.928572,41.875 z" id="path3411" style="fill:&fill_color;;fill-opacity:1;display:inline" transform="translate(78.459953,-5.9429479)"/>
    <path d="M -48.928572,41.875 A 0.8035714,0.8035714 0 1 1 -50.535715,41.875 A 0.8035714,0.8035714 0 1 1 -48.928572,41.875 z" id="path3413" style="fill:&fill_color;;fill-opacity:1;display:inline" transform="translate(75.60281,-4.5143765)"/>
    <path d="M -48.928572,41.875 A 0.8035714,0.8035714 0 1 1 -50.535715,41.875 A 0.8035714,0.8035714 0 1 1 -48.928572,41.875 z" id="path3415" style="fill:&fill_color;;fill-opacity:1;display:inline" transform="translate(84.709953,-5.942948)"/>
    <path d="M -48.928572,41.875 A 0.8035714,0.8035714 0 1 1 -50.535715,41.875 A 0.8035714,0.8035714 0 1 1 -48.928572,41.875 z" id="path3417" style="fill:&fill_color;;fill-opacity:1;display:inline" transform="translate(81.674239,-6.3000908)"/>
    <path d="M -48.928572,41.875 A 0.8035714,0.8035714 0 1 1 -50.535715,41.875 A 0.8035714,0.8035714 0 1 1 -48.928572,41.875 z" id="path3419" style="fill:&fill_color;;fill-opacity:1;display:inline" transform="translate(88.281383,-8.9786617)"/>
    <path d="M -48.928572,41.875 A 0.8035714,0.8035714 0 1 1 -50.535715,41.875 A 0.8035714,0.8035714 0 1 1 -48.928572,41.875 z" id="path3421" style="fill:&fill_color;;fill-opacity:1;display:inline" transform="translate(87.567096,-6.1215193)"/>
    <path d="M -48.928572,41.875 A 0.8035714,0.8035714 0 1 1 -50.535715,41.875 A 0.8035714,0.8035714 0 1 1 -48.928572,41.875 z" id="path3423" style="fill:&fill_color;;fill-opacity:1;display:inline" transform="translate(87.209954,-10.764378)"/>
    <path d="M -48.928572,41.875 A 0.8035714,0.8035714 0 1 1 -50.535715,41.875 A 0.8035714,0.8035714 0 1 1 -48.928572,41.875 z" id="path3425" style="fill:&fill_color;;fill-opacity:1;display:inline" transform="translate(89.709953,-7.5500908)"/>
    <path d="M -48.928572,41.875 A 0.8035714,0.8035714 0 1 1 -50.535715,41.875 A 0.8035714,0.8035714 0 1 1 -48.928572,41.875 z" id="path3427" style="fill:&fill_color;;fill-opacity:1;display:inline" transform="translate(85.42424,-12.728661)"/>
    <path d="M -48.928572,41.875 A 0.8035714,0.8035714 0 1 1 -50.535715,41.875 A 0.8035714,0.8035714 0 1 1 -48.928572,41.875 z" id="path3429" style="fill:&fill_color;;fill-opacity:1;display:inline" transform="translate(84.174239,-14.514375)"/>
    <path d="M -48.928572,41.875 A 0.8035714,0.8035714 0 1 1 -50.535715,41.875 A 0.8035714,0.8035714 0 1 1 -48.928572,41.875 z" id="path3431" style="fill:&fill_color;;fill-opacity:1;display:inline" transform="translate(82.567097,-17.014376)"/>
    <path d="M -48.928572,41.875 A 0.8035714,0.8035714 0 1 1 -50.535715,41.875 A 0.8035714,0.8035714 0 1 1 -48.928572,41.875 z" id="path3433" style="fill:&fill_color;;fill-opacity:1;display:inline" transform="translate(82.388525,-19.514375)"/>
    <path d="M 43.541223,47.280861 L 40.594794,46.089357 L 33.005508,46.016261 C 25.51826,45.944148 24.502414,45.988407 19.951521,46.585021 C 18.014546,46.838955 17.61358,46.975002 16.649367,47.705427 C 16.345453,47.935653 16.011051,48.124018 15.906251,48.124018 C 15.774144,48.124018 15.689528,44.65995 15.630353,36.829375 C 15.579407,30.087666 15.470407,25.174816 15.359951,24.641875 C 15.258175,24.150804 14.962762,22.382946 14.70348,20.713304 C 14.351167,18.444591 13.989323,16.925202 13.271339,14.69972 C 12.195482,11.364966 11.794173,10.484472 10.629884,8.9042026 L 9.82326,7.8093914 L 11.101882,7.4358824 C 12.911282,6.9073324 13.642694,6.7614646 17.506396,6.1586074 L 20.93258,5.6240164 L 29.733289,5.6240164 C 37.239901,5.6240164 38.635024,5.6644396 39.221062,5.8989253 C 40.026191,6.2210753 40.572328,7.0854914 42.826883,11.606161 C 44.075799,14.110391 44.364103,14.882386 45.160991,17.856161 C 45.999896,20.986752 46.091583,21.531989 46.347082,24.909732 C 46.649898,28.91298 46.885851,48.484562 46.631207,48.476764 C 46.552249,48.474348 45.161758,47.936191 43.541223,47.280862 L 43.541223,47.280861 z M 19.576935,42.552587 C 19.916485,42.213041 19.837287,41.375521 19.445819,41.166014 C 18.976557,40.914871 18.793751,40.932714 18.464692,41.261773 C 17.897687,41.828773 18.223639,42.766875 18.987651,42.766875 C 19.193901,42.766875 19.45908,42.670446 19.576937,42.552589 L 19.576935,42.552587 z M 21.762648,41.368434 C 22.528462,40.748311 21.833828,39.690778 20.863066,39.998886 C 20.29835,40.178118 20.190155,40.974255 20.676942,41.368432 C 20.89906,41.548287 21.143341,41.695446 21.219794,41.695446 C 21.296248,41.695446 21.54053,41.548289 21.762646,41.368432 L 21.762648,41.368434 z M 24.084076,39.761291 C 24.849891,39.141168 24.155257,38.083636 23.184494,38.391743 C 22.619778,38.570975 22.511584,39.367112 22.998371,39.761289 C 23.220489,39.941145 23.464769,40.088303 23.541223,40.088303 C 23.617676,40.088303 23.861958,39.941146 24.084075,39.761289 L 24.084076,39.761291 z M 26.405505,37.975577 C 27.171319,37.355453 26.476685,36.297921 25.505923,36.606029 C 24.941207,36.785261 24.833012,37.581398 25.3198,37.975575 C 25.541917,38.15543 25.786198,38.302589 25.862651,38.302589 C 25.939105,38.302589 26.183387,38.155432 26.405503,37.975575 L 26.405505,37.975577 z M 29.262648,36.547005 C 30.028462,35.926882 29.333828,34.86935 28.363066,35.177457 C 27.79835,35.356689 27.690155,36.152827 28.176942,36.547004 C 28.39906,36.726859 28.643341,36.874018 28.719794,36.874018 C 28.796248,36.874018 29.04053,36.726861 29.262646,36.547004 L 29.262648,36.547005 z M 35.512648,36.547005 C 36.278462,35.926882 35.583828,34.86935 34.613066,35.177457 C 34.04835,35.356689 33.940155,36.152827 34.426942,36.547004 C 34.64906,36.726859 34.893341,36.874018 34.969794,36.874018 C 35.046248,36.874018 35.29053,36.726861 35.512646,36.547004 L 35.512648,36.547005 z M 38.369791,36.368434 C 39.135605,35.748311 38.440971,34.690779 37.470208,34.998886 C 36.905492,35.178118 36.797298,35.974255 37.284085,36.368432 C 37.506203,36.548287 37.750483,36.695446 37.826937,36.695446 C 37.903391,36.695446 38.147673,36.548289 38.369789,36.368432 L 38.369791,36.368434 z M 32.476933,36.189862 C 33.242748,35.569739 32.548114,34.512207 31.577351,34.820314 C 31.012635,34.999546 30.904441,35.795684 31.391228,36.189861 C 31.613346,36.369716 31.857626,36.516875 31.93408,36.516875 C 32.010533,36.516875 32.254816,36.369718 32.476932,36.189861 L 32.476933,36.189862 z M 40.512648,34.939862 C 41.278462,34.319739 40.583828,33.262207 39.613066,33.570314 C 39.048349,33.749546 38.940155,34.545684 39.426942,34.939861 C 39.64906,35.119716 39.893341,35.266875 39.969794,35.266875 C 40.046248,35.266875 40.29053,35.119718 40.512646,34.939861 L 40.512648,34.939862 z M 39.084076,33.511291 C 39.849891,32.891168 39.155257,31.833636 38.184494,32.141743 C 37.619778,32.320975 37.511583,33.117112 37.998371,33.511289 C 38.220489,33.691145 38.464769,33.838304 38.541223,33.838304 C 38.617676,33.838304 38.861958,33.691146 39.084074,33.511289 L 39.084076,33.511291 z M 38.012648,31.725577 C 38.778462,31.105454 38.083828,30.047921 37.113066,30.356029 C 36.548349,30.535261 36.440155,31.331398 36.926942,31.725575 C 37.14906,31.90543 37.393341,32.052589 37.469794,32.052589 C 37.546248,32.052589 37.79053,31.905432 38.012646,31.725575 L 38.012648,31.725577 z M 36.226933,29.761291 C 36.992748,29.141168 36.298114,28.083636 35.327351,28.391743 C 34.762635,28.570975 34.654441,29.367112 35.141228,29.761289 C 35.363346,29.941145 35.607626,30.088304 35.68408,30.088304 C 35.760533,30.088304 36.004816,29.941146 36.226932,29.761289 L 36.226933,29.761291 z M 34.976933,27.975577 C 35.742748,27.355454 35.048114,26.297921 34.077351,26.606029 C 33.512635,26.785261 33.404441,27.581398 33.891228,27.975575 C 34.113346,28.15543 34.357626,28.302589 34.43408,28.302589 C 34.510533,28.302589 34.754816,28.155432 34.976932,27.975575 L 34.976933,27.975577 z M 33.369791,25.475577 C 34.135605,24.855454 33.440971,23.797921 32.470208,24.106029 C 31.905492,24.285261 31.797298,25.081398 32.284085,25.475575 C 32.506203,25.65543 32.750483,25.802589 32.826937,25.802589 C 32.903391,25.802589 33.147673,25.655432 33.369789,25.475575 L 33.369791,25.475577 z M 27.892392,22.956139 C 28.927187,22.491857 29.182185,22.269232 30.096537,21.031823 C 30.665223,20.262211 31.259126,19.436329 31.416326,19.196529 L 31.702141,18.760527 L 31.931562,19.469059 C 32.057742,19.85875 32.30833,20.470843 32.488421,20.829264 L 32.815864,21.480936 L 32.377691,21.590913 C 31.733437,21.752609 31.577144,22.547727 32.105514,22.975575 C 32.625144,23.396343 32.758228,23.387532 33.24568,22.90008 L 33.648187,22.497573 L 34.353633,22.897141 C 35.354932,23.464288 35.918942,23.408748 37.036576,22.632946 C 38.074548,21.912445 38.214507,21.695446 37.641251,21.695446 C 37.047792,21.695446 35.915385,21.027434 35.44938,20.402452 C 35.210703,20.08235 34.794753,19.257946 34.52505,18.570446 C 34.255346,17.882946 33.921185,17.098686 33.782471,16.827646 C 33.54405,16.361779 33.568416,16.278821 34.228316,15.309789 C 35.272246,13.776829 35.526955,13.595575 36.485414,13.703607 C 37.312262,13.796804 37.808169,13.5662 39.255508,12.41547 L 39.701937,12.060529 L 38.312269,12.056563 C 37.503603,12.05425 36.667639,12.159123 36.312753,12.307404 C 35.537669,12.631252 33.580019,13.956613 33.080291,14.495829 L 32.698644,14.907634 L 31.936117,13.820582 C 30.937576,12.397064 30.360185,12.054107 28.960701,12.053257 C 27.932876,12.05263 27.792364,12.105179 26.773201,12.871297 C 26.174183,13.321588 25.68408,13.726038 25.68408,13.770075 C 25.68408,13.814114 26.256776,13.827391 26.956739,13.799582 L 28.229398,13.749018 L 29.166114,14.779657 C 29.681303,15.346507 30.283462,16.150802 30.504244,16.566979 L 30.905666,17.323663 L 29.070658,19.911339 C 28.061408,21.334563 27.087444,22.664911 26.906298,22.86767 C 26.596885,23.213995 26.485087,23.481161 26.649576,23.481161 C 26.68953,23.481161 27.248794,23.244902 27.892391,22.956139 L 27.892392,22.956139 z" id="path3472" style="fill:#ffffff;fill-opacity:1"/>
    <path d="M 7.830475,13.811579 C 7.835882,12.078005 8.140585,10.338989 8.595909,9.4430596 L 9.007107,8.6339545 L 9.733294,9.6736296 C 10.132696,10.24545 10.663021,11.1173 10.911796,11.611072 L 11.364116,12.508838 L 10.568603,12.837866 C 10.131071,13.018832 9.335205,13.567097 8.800014,14.056232 L 7.826937,14.945568 L 7.830475,13.811579 z" id="path3474" style="fill:#ffffff;fill-opacity:1"/>
    <path d="M 26.874718,23.185549 C 26.896662,23.136907 27.348332,22.506484 27.87843,21.784609 C 28.408529,21.062734 29.350432,19.756914 29.971548,18.882788 L 31.100853,17.293467 L 30.713363,16.632788 C 30.15679,15.683822 29.04226,14.254788 28.608739,13.934272 C 28.294054,13.701613 28.069197,13.658832 27.138427,13.654529 L 26.039615,13.649451 L 26.477115,13.275206 C 27.618674,12.298702 27.798025,12.224982 29.035823,12.223491 C 30.10669,12.222201 30.213523,12.245812 30.653903,12.581107 C 30.913233,12.778554 31.38736,13.307331 31.707515,13.756164 C 32.758238,15.229199 32.587073,15.154784 33.316329,14.455581 C 33.855277,13.938842 34.74985,13.358048 36.459418,12.414954 C 36.667722,12.300044 37.274142,12.214206 38.102115,12.182431 L 39.414615,12.132063 L 38.415035,12.864588 L 37.415454,13.597109 L 36.395335,13.640712 C 35.217868,13.691041 35.214464,13.693477 34.05454,15.316803 L 33.361659,16.286498 L 33.607665,16.703444 C 33.742967,16.932764 33.986862,17.508902 34.149652,17.983749 C 34.975507,20.392704 35.985713,21.572161 37.398544,21.776961 L 37.882473,21.847109 L 36.961827,22.503359 C 35.67392,23.421393 35.078043,23.391696 33.78504,22.345033 L 33.280464,21.936587 L 33.327129,22.336298 C 33.381534,22.802313 33.138038,23.065859 32.65307,23.065859 C 32.233005,23.065859 31.945865,22.769832 31.945865,22.336768 C 31.945865,21.909706 32.301493,21.627733 32.758365,21.692546 C 32.947428,21.719367 33.102115,21.730013 33.102115,21.716204 C 33.102115,21.702396 32.963689,21.443426 32.7945,21.140716 C 32.542118,20.689156 32.164174,19.767991 31.781982,18.672907 C 31.744613,18.565837 31.488788,18.836053 31.118142,19.374087 C 30.278905,20.592334 29.008132,22.249868 28.820862,22.370546 C 28.510602,22.570478 26.835784,23.271857 26.874719,23.185548 L 26.874718,23.185549 z" id="path3884" style="fill:&stroke_color;;fill-opacity:1"/>
    <path d="M 32.532307,25.501158 C 32.044373,25.234396 31.951193,24.709939 32.330708,24.366483 C 32.680668,24.049773 33.185308,24.104598 33.435548,24.486513 C 33.625654,24.776649 33.629492,24.848988 33.469679,25.129682 C 33.247099,25.520617 32.853328,25.676668 32.532305,25.501158 L 32.532307,25.501158 z" id="path3886" style="fill:&stroke_color;;fill-opacity:1"/>
    <path d="M 34.227115,28.064489 C 33.950778,27.978068 33.727115,27.650473 33.727115,27.332147 C 33.727115,26.647057 34.67683,26.400887 35.060548,26.986513 C 35.25065,27.276649 35.254492,27.348988 35.094679,27.629682 C 34.900163,27.971333 34.527099,28.158306 34.227115,28.064489 z" id="path3888" style="fill:&stroke_color;;fill-opacity:1"/>
    <path d="M 35.258365,29.718729 C 34.729134,29.345592 35.028094,28.406372 35.674458,28.411523 C 35.990164,28.414038 36.155967,28.533127 36.346154,28.893969 C 36.479715,29.147378 36.4669,29.238857 36.258577,29.518969 C 35.962228,29.917437 35.633353,29.983119 35.258365,29.718731 L 35.258365,29.718729 z" id="path3890" style="fill:&stroke_color;;fill-opacity:1"/>
    <path d="M 36.933987,31.556017 C 36.662589,31.256124 36.671429,30.873752 36.955708,30.616483 C 37.426148,30.190739 38.227115,30.507211 38.227115,31.118828 C 38.227115,31.703557 37.339184,32.003753 36.933989,31.556017 L 36.933987,31.556017 z" id="path3892" style="fill:&stroke_color;;fill-opacity:1"/>
    <path d="M 38.129932,33.465022 C 37.592867,33.088848 37.907392,32.159609 38.571779,32.159609 C 39.204842,32.159609 39.47573,33.096297 38.949302,33.465022 C 38.796508,33.572044 38.612145,33.659609 38.539615,33.659609 C 38.467085,33.659609 38.282725,33.572044 38.129929,33.465022 L 38.129932,33.465022 z" id="path3894" style="fill:&stroke_color;;fill-opacity:1"/>
    <path d="M 39.423947,34.794917 C 39.135684,34.476394 39.214433,34.053104 39.617755,33.753148 C 39.897868,33.544823 39.989347,33.532007 40.242755,33.665571 C 40.609517,33.858877 40.722735,34.021607 40.725202,34.358986 C 40.729593,34.959679 39.842114,35.256991 39.423944,34.794918 L 39.423947,34.794917 z" id="path3896" style="fill:&stroke_color;;fill-opacity:1"/>
    <path d="M 37.602115,36.447863 C 37.32494,36.348802 37.102115,36.023357 37.102115,35.717592 C 37.102115,35.086291 38.04431,34.793857 38.407528,35.312423 C 38.674489,35.693566 38.652825,35.870263 38.295297,36.227791 C 37.979339,36.543748 37.921653,36.562062 37.602115,36.447862 L 37.602115,36.447863 z" id="path3898" style="fill:&stroke_color;;fill-opacity:1"/>
    <path d="M 34.421703,36.381797 C 34.31468,36.228999 34.227115,36.003999 34.227115,35.881796 C 34.227115,35.583433 34.667263,35.159609 34.977115,35.159609 C 35.316349,35.159609 35.727115,35.593996 35.727115,35.952736 C 35.727115,36.604908 34.793019,36.911923 34.421703,36.381796 L 34.421703,36.381797 z" id="path3900" style="fill:&stroke_color;;fill-opacity:1"/>
    <path d="M 31.43399,36.056017 C 31.010019,35.587536 31.30077,34.878359 31.91681,34.878359 C 32.363152,34.878359 32.766264,35.331636 32.654888,35.708282 C 32.486237,36.278613 31.809793,36.471276 31.433989,36.056017 L 31.43399,36.056017 z" id="path3902" style="fill:&stroke_color;;fill-opacity:1"/>
    <path d="M 28.171703,36.381797 C 28.06468,36.228999 27.977115,36.003999 27.977115,35.881796 C 27.977115,35.583433 28.417263,35.159609 28.727115,35.159609 C 29.066349,35.159609 29.477115,35.593996 29.477115,35.952736 C 29.477115,36.604908 28.543019,36.911923 28.171703,36.381796 L 28.171703,36.381797 z" id="path3904" style="fill:&stroke_color;;fill-opacity:1"/>
    <path d="M 25.63235,38.023489 C 25.477103,37.964873 25.286312,37.776949 25.208368,37.605882 C 24.891147,36.909653 25.875817,36.314243 26.395242,36.888202 C 26.89948,37.445378 26.33318,38.288108 25.632349,38.023491 L 25.63235,38.023489 z" id="path3906" style="fill:&stroke_color;;fill-opacity:1"/>
    <path d="M 23.129928,39.715022 C 22.592867,39.338848 22.907392,38.409609 23.571779,38.409609 C 24.204842,38.409609 24.47573,39.346297 23.949302,39.715022 C 23.796504,39.822044 23.612145,39.909609 23.539615,39.909609 C 23.467085,39.909609 23.282725,39.822044 23.129929,39.715022 L 23.129928,39.715022 z" id="path3908" style="fill:&stroke_color;;fill-opacity:1"/>
    <path d="M 20.914615,41.385241 C 20.59033,41.201351 20.481385,41.032523 20.479029,40.710233 C 20.474698,40.117724 21.36092,39.810907 21.770242,40.263202 C 22.128442,40.659007 22.023873,41.123879 21.516583,41.390897 C 21.191792,41.561852 21.226643,41.562181 20.914615,41.385241 z" id="path3910" style="fill:&stroke_color;;fill-opacity:1"/>
    <path d="M 18.477115,42.409609 C 18.339615,42.272109 18.227115,42.047109 18.227115,41.909609 C 18.227115,41.772109 18.339615,41.547109 18.477115,41.409609 C 18.614615,41.272109 18.839615,41.159609 18.977115,41.159609 C 19.316349,41.159609 19.727115,41.593996 19.727115,41.952736 C 19.727115,42.586301 18.941095,42.873589 18.477115,42.409609 z" id="path3912" style="fill:&stroke_color;;fill-opacity:1"/>
    <path d="M 43.614198,47.246769 L 40.926698,46.162434 L 31.864198,46.162434 C 23.891903,46.162434 22.636288,46.188412 21.426698,46.378386 C 20.670448,46.497162 19.560957,46.657451 18.96116,46.734591 C 18.078744,46.848076 17.732843,46.959187 17.14866,47.316797 C 16.751582,47.559871 16.286073,47.834757 16.114198,47.927652 L 15.801698,48.096554 L 15.773205,44.50449 C 15.757532,42.52886 15.687875,37.509309 15.61841,33.349934 C 15.49456,25.934031 15.485027,25.741395 15.126625,23.412434 C 14.478638,19.201687 14.120953,17.377266 13.686855,16.068695 C 13.453083,15.364001 13.0901,14.224934 12.880225,13.537434 C 12.383915,11.911645 11.672752,10.461459 10.65811,9.0061623 C 10.208085,8.3606935 9.8594153,7.8140885 9.8832903,7.791486 C 9.907164,7.7688823 10.517323,7.5778723 11.239198,7.3670198 C 12.546377,6.9852048 15.024239,6.4878323 16.926698,6.2253885 C 17.476698,6.149516 18.601698,5.975921 19.426698,5.839621 C 20.839689,5.606176 21.445124,5.5938498 29.864198,5.6271173 L 38.801698,5.6624335 L 39.696854,6.0820773 L 40.592012,6.501716 L 41.529134,8.2695773 C 42.044553,9.2418973 42.872153,10.909309 43.368247,11.974934 C 44.202088,13.766055 44.339114,14.186302 45.181922,17.537434 C 46.23915,21.741139 46.315007,22.227525 46.49037,25.927354 C 46.562445,27.448061 46.675618,29.163685 46.74186,29.739854 C 46.808103,30.316024 46.862728,34.738996 46.863249,39.568684 L 46.864198,48.349934 L 46.582948,48.340519 C 46.42826,48.335336 45.092323,47.843149 43.614198,47.246766 L 43.614198,47.246769 z M 19.534582,42.536694 C 19.822047,42.249227 19.894018,41.889694 19.72741,41.573405 C 19.531378,41.201256 19.37484,41.10418 18.96702,41.101847 C 18.631355,41.099926 18.114198,41.591472 18.114198,41.912434 C 18.114198,41.997016 18.23078,42.21443 18.37327,42.395576 C 18.668258,42.770594 19.232162,42.839114 19.53458,42.536694 L 19.534582,42.536694 z M 21.6284,41.467335 C 22.13575,41.195807 22.170755,40.392117 21.689235,40.070597 C 21.38957,39.870506 20.754887,39.972774 20.558785,40.252747 C 20.28456,40.64426 20.31629,40.93839 20.671017,41.293115 C 21.005509,41.627611 21.246857,41.671529 21.628399,41.467334 L 21.6284,41.467335 z M 24.114198,39.724934 C 24.417897,39.421235 24.437933,38.888596 24.157324,38.578526 C 23.899559,38.293697 23.271202,38.282224 22.96779,38.556807 C 22.469125,39.008091 22.867219,39.974934 23.551698,39.974934 C 23.723573,39.974934 23.976698,39.862434 24.114198,39.724934 z M 26.432378,37.918114 C 26.798389,37.552106 26.821315,37.22904 26.508677,36.842949 C 26.232865,36.502334 25.576978,36.458581 25.274912,36.760647 C 24.972845,37.062714 25.016598,37.7186 25.357213,37.994412 C 25.743304,38.307052 26.06637,38.284125 26.432379,37.918115 L 26.432378,37.918114 z M 29.355127,36.395576 C 29.690784,35.968856 29.681718,35.78109 29.307379,35.406752 C 28.904494,35.003864 28.451122,35.012495 28.12327,35.429291 C 27.7971,35.84395 27.796028,36.104621 28.119068,36.451364 C 28.476424,36.834944 29.029143,36.809996 29.355125,36.395576 L 29.355127,36.395576 z M 35.605127,36.395576 C 35.940784,35.968856 35.931718,35.78109 35.557379,35.406752 C 35.154494,35.003864 34.701122,35.012495 34.37327,35.429291 C 34.0471,35.84395 34.046028,36.104621 34.369068,36.451364 C 34.726424,36.834944 35.279143,36.809996 35.605125,36.395576 L 35.605127,36.395576 z M 38.34327,36.381184 C 38.959747,35.855986 38.619284,34.974934 37.799858,34.974934 C 37.058528,34.974934 36.742373,35.758587 37.260987,36.310627 C 37.584705,36.655211 37.99056,36.681669 38.34327,36.381184 z M 32.520448,36.124061 C 33.004607,35.70824 32.603884,34.724934 31.950268,34.724934 C 31.272319,34.724934 30.842969,35.699907 31.332948,36.126749 C 31.754118,36.49365 32.091007,36.492886 32.520448,36.12406 L 32.520448,36.124061 z M 40.282033,35.086151 C 40.687335,34.901481 40.891877,34.43901 40.742275,34.045529 C 40.496319,33.398617 39.675729,33.324046 39.289499,33.913507 C 39.022482,34.321032 39.146977,34.791851 39.584537,35.029269 C 40.004075,35.256907 39.921955,35.250211 40.282033,35.08615 L 40.282033,35.086151 z M 39.114198,33.474934 C 39.417897,33.171235 39.437933,32.638596 39.157324,32.328526 C 38.899559,32.043697 38.271202,32.032224 37.96779,32.306807 C 37.469125,32.758091 37.867219,33.724934 38.551698,33.724934 C 38.723573,33.724934 38.976698,33.612434 39.114198,33.474934 z M 37.8784,31.842335 C 38.449457,31.536712 38.436135,30.708194 37.855335,30.40785 C 37.439064,30.192591 36.953028,30.325387 36.746798,30.710732 C 36.542604,31.092276 36.586522,31.333621 36.921017,31.668115 C 37.255509,32.002611 37.496857,32.046529 37.878399,31.842334 L 37.8784,31.842335 z M 36.211385,29.780346 C 36.397352,29.650089 36.489198,29.457047 36.489198,29.196439 C 36.489198,28.675177 36.1723,28.349934 35.664413,28.349934 C 34.946059,28.349934 34.601147,29.211882 35.114198,29.724934 C 35.413885,30.024621 35.832452,30.045761 36.211384,29.780346 L 36.211385,29.780346 z M 34.965627,27.970062 C 35.507298,27.465421 35.162439,26.568684 34.426698,26.568684 C 33.654338,26.568684 33.336357,27.488239 33.943555,27.965861 C 34.358214,28.292031 34.618885,28.293104 34.965628,27.970064 L 34.965627,27.970062 z M 33.364198,25.474934 C 33.663193,25.175939 33.690764,24.569357 33.417769,24.296362 C 32.916273,23.794862 31.989198,24.197764 31.989198,24.917209 C 31.989198,25.24275 32.521604,25.724934 32.881055,25.724934 C 33.009284,25.724934 33.226698,25.612434 33.364198,25.474934 z M 28.614198,22.598342 C 29.037019,22.381407 29.566752,21.742885 31.021783,19.696321 L 31.708654,18.730206 L 32.047483,19.69632 C 32.233838,20.227682 32.486778,20.836499 32.609569,21.049245 L 32.832829,21.436054 L 32.4114,21.588447 C 31.727982,21.835572 31.665034,22.759201 32.308153,23.103389 C 32.588409,23.253376 32.678723,23.252216 32.955428,23.095066 C 33.132295,22.994619 33.338809,22.799934 33.41435,22.662434 C 33.489893,22.524934 33.565982,22.388775 33.58344,22.359857 C 33.600899,22.330941 33.741524,22.422349 33.89594,22.562987 C 34.568493,23.175527 35.461832,23.416951 36.087905,23.155361 C 36.541729,22.965741 37.979408,21.96553 37.985554,21.835142 C 37.987557,21.792631 37.758532,21.726912 37.476607,21.689099 C 36.805904,21.599137 35.907719,21.034761 35.422202,20.398205 C 35.208732,20.118326 34.875024,19.500781 34.680633,19.025884 C 34.486239,18.550987 34.149353,17.736936 33.931994,17.216882 L 33.536798,16.271332 L 34.139939,15.404381 C 34.47167,14.927561 34.938259,14.354621 35.176807,14.131184 C 35.579494,13.753999 35.672239,13.724934 36.473118,13.724934 C 37.271387,13.724934 37.390368,13.688009 38.068704,13.229752 C 38.47185,12.957405 38.970448,12.589869 39.176698,12.41301 L 39.551698,12.09145 L 38.051698,12.131596 C 36.887553,12.162751 36.45374,12.223687 36.114198,12.403749 C 35.243792,12.86533 33.659912,13.96415 33.235577,14.4008 C 32.996942,14.646361 32.767808,14.847871 32.726385,14.848602 C 32.684965,14.849335 32.307222,14.385639 31.886958,13.818166 C 31.466672,13.250662 30.884655,12.631956 30.593499,12.443166 C 30.124905,12.139326 29.948677,12.100581 29.057927,12.105571 C 28.504499,12.108672 27.903302,12.178985 27.721929,12.261821 C 27.361327,12.426516 25.7541,13.620652 25.744903,13.730711 C 25.741764,13.768262 26.25951,13.779016 26.895448,13.754606 C 27.891633,13.71637 28.107884,13.745566 28.457568,13.965511 C 28.85635,14.216339 30.168244,15.88905 30.694513,16.817694 L 30.962327,17.290276 L 29.589524,19.226352 C 28.834482,20.291197 27.856153,21.647025 27.415459,22.239302 C 26.974764,22.83158 26.614198,23.347952 26.614198,23.386796 C 26.614198,23.466289 27.945322,22.941525 28.614198,22.598344 L 28.614198,22.598342 z" id="path3943" style="fill:&fill_color;;fill-opacity:1"/>
    <path d="M 7.8651415,13.479569 C 7.8656615,12.686394 7.921974,11.671809 7.9902803,11.224934 C 8.1084803,10.451649 8.8091515,8.7249335 9.0047365,8.7249335 C 9.2404628,8.7249335 11.364198,12.141534 11.364198,12.520762 C 11.364198,12.549399 11.20951,12.611599 11.020448,12.65898 C 10.472615,12.796272 9.3082628,13.556134 8.5567403,14.266805 L 7.8641978,14.9217 L 7.8651415,13.479569 z" id="path3945" style="fill:&fill_color;;fill-opacity:1"/>
  </g>
</svg>
