<?xml version="1.0" standalone="no"?>
<!DOCTYPE svg PUBLIC "-//W3C//DTD SVG 20010904//EN"
 "http://www.w3.org/TR/2001/REC-SVG-20010904/DTD/svg10.dtd">
<svg version="1.0" xmlns="http://www.w3.org/2000/svg"
 width="1200.000000pt" height="825.000000pt" viewBox="0 0 1200.000000 825.000000"
 preserveAspectRatio="xMidYMid meet">
<metadata>
Created by potrace 1.12, written by Peter Selinger 2001-2015
</metadata>
<g transform="translate(0.000000,825.000000) scale(0.100000,-0.100000)"
fill="#000000" stroke="none">
<path d="M0 4125 l0 -4125 6000 0 6000 0 0 4125 0 4125 -6000 0 -6000 0 0
-4125z m8280 2098 c-1 -10 -279 -974 -618 -2143 l-618 -2125 -1184 0 -1184 0
-618 2125 c-339 1169 -617 2133 -618 2143 0 16 122 17 2420 17 2298 0 2420 -1
2420 -17z m-2420 -5043 c1397 0 1759 3 1763 13 3 7 6 5 6 -5 1 -17 -90 -18
-1769 -18 -1679 0 -1770 1 -1769 18 0 10 3 12 6 5 4 -10 366 -13 1763 -13z"/>
<path d="M4217 6163 c-2 -5 168 -722 377 -1595 l381 -1588 895 0 895 0 381
1588 c209 873 379 1590 377 1595 -2 4 -746 7 -1653 7 -907 0 -1651 -3 -1653
-7z"/>
</g>
</svg>
