<?xml version="1.0" ?><!-- Created with Inkscape (http://www.inkscape.org/) --><!DOCTYPE svg  PUBLIC '-//W3C//DTD SVG 1.1//EN'  'http://www.w3.org/Graphics/SVG/1.1/DTD/svg11.dtd' [
	<!ENTITY stroke_color "#000000">
	<!ENTITY fill_color "#ffffff">
]><svg height="48" id="svg2" version="1.0" width="48" xmlns="http://www.w3.org/2000/svg" xmlns:svg="http://www.w3.org/2000/svg">
  <defs id="defs11"/>
  <path d="M 31.113503,30.780875 C 31.388312,28.375302 30.083851,27.617627 28.521512,27.464839 C 24.935045,27.16059 20.911664,26.320436 20.756461,28.310274 C 20.170841,31.014643 19.787187,32.763195 19.199743,37.196561 C 18.920316,39.066156 19.979265,44.500894 15.350148,44.877248 C 10.620914,45.262039 8.1070794,42.278579 9.4381704,39.412893 C 11.310919,35.486517 16.041752,37.986387 16.526199,36.518113 C 17.956322,32.057432 17.756617,26.924746 18.912738,22.372505 C 18.958079,22.193977 19.56686,22.013833 19.921211,21.970612 C 20.848965,21.772286 32.104253,22.585264 32.825062,22.99762 C 33.179412,22.954397 33.673593,23.329524 33.815273,23.449981 C 35.006109,24.46244 34.288873,28.717053 34.069724,29.61478 C 33.484102,32.319151 33.075558,34.055988 32.488112,38.489357 C 32.208685,40.358952 33.292528,45.805397 28.663411,46.181753 C 23.934175,46.566542 21.420341,43.583088 22.751431,40.717398 C 24.624183,36.791021 29.330122,39.279182 29.814569,37.810909 C 30.52963,35.580568 30.83869,33.186444 31.113503,30.780875 z" id="path4" style="fill:&fill_color;;stroke:&stroke_color;;stroke-width:1.29730475"/>
  <path d="M 21.185485,11.48052 C 21.185485,15.692821 17.491645,19.107565 12.935064,19.107565 C 8.3784831,19.107565 4.6846441,15.692821 4.6846441,11.48052 C 4.6846441,7.26822 8.3784831,3.8534758 12.935064,3.8534758 C 17.491645,3.8534758 21.185485,7.26822 21.185485,11.48052 L 21.185485,11.48052 z" id="path2398" style="fill:&fill_color;;stroke:&stroke_color;;stroke-width:1.43422401;stroke-opacity:1"/>
  <path d="M 1.1416508,11.368556 L 3.3258817,11.384692 L 3.1184034,11.373275" id="path2401" style="fill:none;fill-rule:evenodd;stroke:&stroke_color;;stroke-width:1px;stroke-linecap:butt;stroke-linejoin:miter;stroke-opacity:1"/>
  <path d="M 4.2597402,3.8441558 L 5.9220779,5.2987013" id="path2403" style="fill:none;fill-rule:evenodd;stroke:&stroke_color;;stroke-width:1px;stroke-linecap:butt;stroke-linejoin:miter;stroke-opacity:1"/>
  <path d="M 12.571429,0.58100334 C 12.571429,2.5358798 12.571429,2.5358798 12.571429,2.5358798" id="path2405" style="fill:none;fill-rule:evenodd;stroke:&stroke_color;;stroke-width:1.15930045px;stroke-linecap:butt;stroke-linejoin:miter;stroke-opacity:1"/>
  <path d="M 19.577594,4.941886 C 21.045782,3.4736983 21.045782,3.4736983 21.045782,3.4736983" id="path2407" style="fill:none;fill-rule:evenodd;stroke:&stroke_color;;stroke-width:1.09025395px;stroke-linecap:butt;stroke-linejoin:miter;stroke-opacity:1"/>
  <path d="M 19.830731,17.856705 C 21.312126,19.441997 21.312126,19.441997 21.312126,19.441997" id="path2411" style="fill:none;fill-rule:evenodd;stroke:&stroke_color;;stroke-width:1.18094206px;stroke-linecap:butt;stroke-linejoin:miter;stroke-opacity:1"/>
  <path d="M 12.779221,20.569056 C 12.779221,22.443932 12.779221,22.443932 12.779221,22.443932" id="path2413" style="fill:none;fill-rule:evenodd;stroke:&stroke_color;;stroke-width:1.09683442px;stroke-linecap:butt;stroke-linejoin:miter;stroke-opacity:1"/>
  <path d="M 5.9463699,17.949734 C 4.3393444,19.141175 4.3393444,19.141175 4.3393444,19.141175" id="path2415" style="fill:none;fill-rule:evenodd;stroke:&stroke_color;;stroke-width:1.15920818px;stroke-linecap:butt;stroke-linejoin:miter;stroke-opacity:1"/>
  <path d="M 22.440435,11.276162 C 24.832293,11.269292 24.832293,11.269292 24.832293,11.269292" id="path2394" style="fill:none;fill-rule:evenodd;stroke:&stroke_color;;stroke-width:1px;stroke-linecap:butt;stroke-linejoin:miter;stroke-opacity:1"/>
  <path d="M 36.295717,14.480639 C 42.775943,13.994601 42.992481,9.597368 42.893637,13.678247 C 42.819815,16.726076 38.971813,19.785021 34.80458,19.170489 C 30.637349,18.555958 26.70832,14.12874 27.373078,9.6209099 C 28.037836,5.1130803 32.257758,2.6922802 36.374503,4.0964477 C 31.050227,6.1182866 31.229069,11.651146 36.295717,14.480639 z" id="path15" style="fill:&fill_color;;stroke:&stroke_color;;stroke-width:1.43422401;stroke-opacity:1"/>
</svg>