<?xml version="1.0" ?><!DOCTYPE svg  PUBLIC '-//W3C//DTD SVG 1.1//EN'  'http://www.w3.org/Graphics/SVG/1.1/DTD/svg11.dtd' [
	<!ENTITY stroke_color "#000000">
	<!ENTITY fill_color "#ff0000">
]><svg height="45" id="svg2215" inkscape:output_extension="org.inkscape.output.svg.inkscape" inkscape:version="0.48.3.1 r9886" sodipodi:docname="JAMath.svg" sodipodi:version="0.32" version="1.1" width="45" xmlns="http://www.w3.org/2000/svg" xmlns:cc="http://creativecommons.org/ns#" xmlns:dc="http://purl.org/dc/elements/1.1/" xmlns:inkscape="http://www.inkscape.org/namespaces/inkscape" xmlns:rdf="http://www.w3.org/1999/02/22-rdf-syntax-ns#" xmlns:sodipodi="http://sodipodi.sourceforge.net/DTD/sodipodi-0.dtd" xmlns:svg="http://www.w3.org/2000/svg">
  <metadata id="metadata2232">
    <rdf:RDF>
      <cc:Work rdf:about="">
        <dc:format>image/svg+xml</dc:format>
        <dc:type rdf:resource="http://purl.org/dc/dcmitype/StillImage"/>
      </cc:Work>
    </rdf:RDF>
  </metadata>
  <defs id="defs2230"/>
  <sodipodi:namedview bordercolor="#666666" borderopacity="1.0" gridtolerance="10.0" guidetolerance="10.0" id="base" inkscape:current-layer="svg2215" inkscape:cx="20.246385" inkscape:cy="24.451309" inkscape:guide-bbox="true" inkscape:pageopacity="0.0" inkscape:pageshadow="2" inkscape:window-height="1000" inkscape:window-maximized="1" inkscape:window-width="1215" inkscape:window-x="65" inkscape:window-y="24" inkscape:zoom="14.377838" objecttolerance="10.0" pagecolor="#ffffff" showgrid="false" showguides="true"/>
  <path d="m 38.299702,11.330105 -0.0698,0.03274 -0.677906,0.197137 c -1.374888,0.428547 -2.52664,1.559104 -3.168692,3.049314 -0.349291,0.810708 -0.574334,2.250217 -0.482607,3.124856 0.149138,1.422039 0.801745,2.852508 1.704815,3.494637 0.265715,0.188937 0.524546,0.320471 0.783417,0.377373 0.258873,0.05691 0.526141,0.01907 0.751984,-0.117814 0.45169,-0.273762 0.682097,-0.825919 0.874718,-1.611219 0.325951,-1.328889 1.128755,-2.425326 2.355112,-3.231384 0.754736,-0.496071 1.550745,-0.768566 2.574451,-0.87854 0.204604,-0.02198 0.420762,-0.0589 0.598052,-0.0993 0.17729,-0.0404 0.281252,-0.0724 0.43649,-0.171147 0.27779,-0.176705 0.444828,-0.507264 0.428518,-0.818237 -0.01631,-0.310974 -0.163683,-0.61318 -0.356404,-0.906394 -0.385445,-0.586426 -1.032745,-1.151855 -1.852515,-1.560113 -0.511189,-0.254582 -0.964765,-0.385763 -2.25907,-0.604564 l -1.556434,-0.263113 -0.08414,-0.01425 z" id="path3036" inkscape:connector-curvature="0" style="font-size:medium;font-style:normal;font-variant:normal;font-weight:normal;font-stretch:normal;text-indent:0;text-align:start;text-decoration:none;line-height:normal;letter-spacing:normal;word-spacing:normal;text-transform:none;direction:ltr;block-progression:tb;writing-mode:lr-tb;text-anchor:start;baseline-shift:baseline;color:#000000;fill:&fill_color;;fill-opacity:1;fill-rule:nonzero;stroke:&stroke_color;;stroke-width:0.69251597;stroke-opacity:1;marker:none;visibility:visible;display:inline;overflow:visible;enable-background:accumulate;font-family:Sans;-inkscape-font-specification:Sans"/>
  <path d="m 30.145755,11.443574 c -0.540125,-0.117195 -1.101879,-0.186128 -1.464677,-0.158532 -0.77653,0.05905 -1.491705,0.304006 -2.068158,0.67466 -0.576452,0.370653 -1.020343,0.877229 -1.113706,1.481749 -0.02284,0.147951 -0.03423,0.308603 0.03479,0.473486 0.06901,0.164883 0.204645,0.283846 0.352707,0.371363 0.296121,0.175029 0.698556,0.272612 1.340325,0.404715 0.99055,0.203897 1.034381,0.215836 1.551581,0.57403 0.616759,0.427145 1.317078,1.359781 1.555045,2.088769 0.05227,0.160114 0.09685,0.315255 0.146653,0.447863 0.0498,0.132607 0.08567,0.210526 0.145725,0.314105 0.131894,0.227497 0.417911,0.361286 0.660573,0.334339 0.242659,-0.02695 0.452761,-0.134016 0.694663,-0.30564 0.316751,-0.224727 0.571243,-0.517745 0.743086,-0.898661 0.171845,-0.380917 0.28281,-0.841568 0.381831,-1.494139 0.189853,-1.251357 0.07772,-1.895773 -0.502243,-2.756936 -0.555453,-0.824777 -1.327565,-1.305846 -2.45819,-1.551168 z" id="path3032" inkscape:connector-curvature="0" style="font-size:medium;font-style:normal;font-variant:normal;font-weight:normal;font-stretch:normal;text-indent:0;text-align:start;text-decoration:none;line-height:normal;letter-spacing:normal;word-spacing:normal;text-transform:none;direction:ltr;block-progression:tb;writing-mode:lr-tb;text-anchor:start;baseline-shift:baseline;color:#000000;fill:#44aa00;fill-opacity:1;fill-rule:nonzero;stroke:&stroke_color;;stroke-width:0.69251597;stroke-opacity:1;marker:none;visibility:visible;display:inline;overflow:visible;enable-background:accumulate;font-family:Sans;-inkscape-font-specification:Sans"/>
  <path d="m 41.396956,19.224052 c -0.472774,-0.07992 -0.980614,0.04773 -1.397878,0.387163 l -0.348085,0.297428 -0.118571,0.06904 -0.02011,0.130203 -0.244654,1.584129 -0.18768,1.215221 -5.23719,-0.885342 c -2.594479,-0.43763 -3.987669,-0.676231 -4.798851,-0.788979 -0.811187,-0.112707 -1.095206,-0.108694 -1.330851,-0.04685 -0.982098,0.257778 -1.79595,0.975102 -2.105256,1.893071 l -0.04115,0.126639 -1.710368,-0.244605 c -0.670454,-0.09683 -1.191838,-0.141732 -1.56984,-0.176304 -0.189001,-0.01729 -0.344222,-0.0334 -0.469425,-0.03484 -0.125203,-0.0014 -0.192374,-0.01616 -0.3289,0.03347 -0.252813,0.09194 -0.483225,0.240685 -0.633992,0.471764 -0.150764,0.231081 -0.231789,0.522622 -0.28464,0.864828 -0.04336,0.280761 -0.05852,0.472454 -0.01976,0.686934 0.03876,0.214478 0.124929,0.381589 0.256091,0.577698 l 0.282904,0.404096 0.08841,0.126281 0.126198,0.02134 2.012455,0.384735 1.672578,0.34954 -0.853691,5.667356 -0.857043,5.689057 -0.276779,-0.02452 c -0.251074,-0.02431 -0.438908,-0.02918 -0.626711,0.0054 -0.1878,0.03455 -0.35375,0.119995 -0.509642,0.225583 -0.832492,0.563863 -1.004509,1.770377 -0.346711,2.524353 0.12982,0.148807 0.310563,0.303924 0.587417,0.388774 0.276858,0.08484 0.673301,0.136091 1.447919,0.26704 0.725569,0.122657 1.105956,0.196115 1.391523,0.212962 0.285552,0.01694 0.510299,-0.04662 0.667852,-0.132036 0.298822,-0.16198 0.572246,-0.385662 0.722979,-0.768458 0.15073,-0.382796 0.225251,-0.899486 0.365657,-1.80861 l 0.204437,-1.323724 4.837566,0.817786 4.816534,0.81423 -0.211141,1.367126 c -0.09935,0.64327 -0.170969,1.126705 -0.192534,1.526137 -0.02152,0.399438 0.02228,0.754614 0.206745,1.036962 0.184466,0.282348 0.467102,0.434797 0.823056,0.539942 0.355955,0.105143 0.800704,0.157631 1.38482,0.256373 l 1.619532,0.27378 0.126197,0.02134 0.118571,-0.06904 0.33803,-0.232326 c 0.166333,-0.118009 0.318342,-0.250775 0.413609,-0.44222 0.09526,-0.191444 0.125873,-0.386219 0.170349,-0.683744 0.03245,-0.217295 0.05188,-0.420416 0.04846,-0.59302 -0.0035,-0.172607 -0.01213,-0.29808 -0.101236,-0.462451 -0.268685,-0.495579 -0.753141,-0.816816 -1.347373,-0.918048 l -0.168265,-0.02845 1.528253,-9.895377 1.581875,-10.242581 0.02011,-0.130202 -0.07073,-0.101032 -0.240838,-0.396983 C 42.313333,19.592465 41.86976,19.303979 41.396986,19.224058 z" id="path3028" inkscape:connector-curvature="0" style="font-size:medium;font-style:normal;font-variant:normal;font-weight:normal;font-stretch:normal;text-indent:0;text-align:start;text-decoration:none;line-height:normal;letter-spacing:normal;word-spacing:normal;text-transform:none;direction:ltr;block-progression:tb;writing-mode:lr-tb;text-anchor:start;baseline-shift:baseline;color:#000000;fill:#44aa00;fill-opacity:1;fill-rule:nonzero;stroke:&stroke_color;;stroke-width:0.69251597;stroke-opacity:1;marker:none;visibility:visible;display:inline;overflow:visible;enable-background:accumulate;font-family:Sans;-inkscape-font-specification:Sans"/>
  <path d="m 35.521717,25.823875 c -0.217991,-0.03684 -0.371652,-0.06802 -0.556909,-0.02736 -0.185255,0.04068 -0.333464,0.156454 -0.47428,0.276096 -0.636704,0.540964 -0.667461,1.544269 -0.01388,2.046214 0.4643,0.35657 1.085765,0.42051 1.576543,0.132909 0.159534,-0.09349 0.301833,-0.210461 0.403555,-0.377117 0.101716,-0.166656 0.137838,-0.333488 0.171274,-0.549987 0.03133,-0.202838 0.05071,-0.37781 0.02065,-0.553178 -0.03007,-0.175376 -0.111996,-0.325251 -0.209748,-0.45853 -0.09775,-0.133279 -0.226554,-0.251159 -0.380442,-0.331516 -0.15389,-0.08035 -0.333208,-0.123122 -0.536803,-0.157538 z" id="path3024" inkscape:connector-curvature="0" style="font-size:medium;font-style:normal;font-variant:normal;font-weight:normal;font-stretch:normal;text-indent:0;text-align:start;text-decoration:none;line-height:normal;letter-spacing:normal;word-spacing:normal;text-transform:none;direction:ltr;block-progression:tb;writing-mode:lr-tb;text-anchor:start;baseline-shift:baseline;color:#000000;fill:#ffffff;fill-opacity:1;fill-rule:nonzero;stroke:&stroke_color;;stroke-width:0.69251597;stroke-opacity:1;marker:none;visibility:visible;display:inline;overflow:visible;enable-background:accumulate;font-family:Sans;-inkscape-font-specification:Sans"/>
  <path d="m 36.538571,29.580751 c -0.384651,-0.177642 -0.816466,-0.07421 -1.259201,0.187938 -0.778587,0.461045 -1.19722,0.637076 -1.906599,0.746504 -1.057091,0.163067 -1.554693,0.03875 -2.662047,-0.650416 -0.166098,-0.103382 -0.340461,-0.191886 -0.49901,-0.262494 -0.158551,-0.07061 -0.262061,-0.138095 -0.45267,-0.143325 -0.236896,-0.0065 -0.479224,0.106262 -0.624862,0.272907 -0.145641,0.166645 -0.214748,0.374193 -0.265456,0.600865 -0.101419,0.453343 -0.07814,0.999191 0.105277,1.554218 0.303159,0.917347 1.097258,2.018893 1.85228,2.539818 1.693658,1.168538 4.263651,0.536488 5.593365,-1.281139 0.250703,-0.342694 0.458207,-0.772711 0.59736,-1.212768 0.139153,-0.440057 0.214547,-0.860294 0.17,-1.240478 -0.05905,-0.504003 -0.263784,-0.933988 -0.648437,-1.111629 z" id="path3016" inkscape:connector-curvature="0" style="font-size:medium;font-style:normal;font-variant:normal;font-weight:normal;font-stretch:normal;text-indent:0;text-align:start;text-decoration:none;line-height:normal;letter-spacing:normal;word-spacing:normal;text-transform:none;direction:ltr;block-progression:tb;writing-mode:lr-tb;text-anchor:start;baseline-shift:baseline;color:#000000;fill:#ffffff;fill-opacity:1;fill-rule:nonzero;stroke:&stroke_color;;stroke-width:0.69251597;stroke-opacity:1;marker:none;visibility:visible;display:inline;overflow:visible;enable-background:accumulate;font-family:Sans;-inkscape-font-specification:Sans"/>
  <path d="m 31.118106,26.103999 c -0.21799,-0.03685 -0.371653,-0.06802 -0.556907,-0.02736 -0.185256,0.04068 -0.333466,0.156453 -0.474282,0.276094 -0.636703,0.540967 -0.667461,1.544271 -0.01388,2.046214 0.464299,0.356569 1.085764,0.420512 1.576542,0.132909 0.159533,-0.09349 0.301832,-0.210462 0.403555,-0.377117 0.101717,-0.166658 0.137839,-0.333489 0.171274,-0.549989 0.03133,-0.202836 0.05071,-0.377811 0.02065,-0.553177 -0.03007,-0.175374 -0.111998,-0.32525 -0.209749,-0.458529 -0.09775,-0.13328 -0.226553,-0.251162 -0.380441,-0.331518 -0.15389,-0.08035 -0.333209,-0.123121 -0.536803,-0.157538 z" id="path3024-0" inkscape:connector-curvature="0" style="font-size:medium;font-style:normal;font-variant:normal;font-weight:normal;font-stretch:normal;text-indent:0;text-align:start;text-decoration:none;line-height:normal;letter-spacing:normal;word-spacing:normal;text-transform:none;direction:ltr;block-progression:tb;writing-mode:lr-tb;text-anchor:start;baseline-shift:baseline;color:#000000;fill:#ffffff;fill-opacity:1;fill-rule:nonzero;stroke:&stroke_color;;stroke-width:0.69251597;stroke-opacity:1;marker:none;visibility:visible;display:inline;overflow:visible;enable-background:accumulate;font-family:Sans;-inkscape-font-specification:Sans"/>
  <text id="text3208" sodipodi:linespacing="125%" style="font-size:8px;font-style:normal;font-weight:normal;line-height:125%;letter-spacing:0px;word-spacing:0px;fill:&stroke_color;;fill-opacity:1;stroke:none;font-family:Sans" x="3.1993685" xml:space="preserve" y="8.8332262"><tspan id="tspan3210" sodipodi:role="line" x="3.1993685" y="8.8332262"/></text>
  <text id="text3212" sodipodi:linespacing="125%" style="font-size:12.44820976px;font-style:normal;font-weight:normal;line-height:125%;letter-spacing:0px;word-spacing:0px;fill:&stroke_color;;fill-opacity:1;stroke:none;font-family:Sans" transform="matrix(0.91568965,-0.23481272,0.2627644,1.0246917,0,0)" x="-2.2878265" xml:space="preserve" y="16.036421"><tspan id="tspan3214" sodipodi:role="line" style="font-weight:bold;-inkscape-font-specification:Sans Bold" x="-2.2878265" y="16.036421">Math</tspan></text>
  <text id="text3216" sodipodi:linespacing="125%" style="font-size:12.47142029px;font-style:normal;font-weight:bold;line-height:125%;letter-spacing:0px;word-spacing:0px;fill:&stroke_color;;fill-opacity:1;stroke:none;font-family:Sans;-inkscape-font-specification:Sans Bold" transform="matrix(0.83413284,0.61994815,-0.57396585,0.7722642,0,0)" x="13.398046" xml:space="preserve" y="18.987263"><tspan id="tspan3218" sodipodi:role="line" x="13.398046" y="18.987263">1</tspan></text>
  <text id="text3220" sodipodi:linespacing="125%" style="font-size:12px;font-style:normal;font-weight:bold;line-height:125%;letter-spacing:0px;word-spacing:0px;fill:&stroke_color;;fill-opacity:1;stroke:none;font-family:Sans;-inkscape-font-specification:Sans Bold" transform="matrix(0.96255598,-0.27108298,0.27108298,0.96255598,0,0)" x="5.9540663" xml:space="preserve" y="27.087587"><tspan id="tspan3222" sodipodi:role="line" x="5.9540663" y="27.087587">-</tspan></text>
  <text id="text3224" sodipodi:linespacing="125%" style="font-size:7.93606806000000020px;font-style:normal;font-weight:bold;line-height:125%;letter-spacing:0px;word-spacing:0px;fill:&stroke_color;;fill-opacity:1;stroke:none;font-family:Sans;-inkscape-font-specification:Sans Bold" transform="matrix(0.85085407,-0.45381418,0.48802474,0.91499528,0,0)" x="7.4633331" xml:space="preserve" y="27.195242"><tspan id="tspan3226" sodipodi:role="line" x="7.4633331" y="27.195242">3</tspan></text>
  <text id="text3228" sodipodi:linespacing="125%" style="font-size:9.18771744000000012px;font-style:normal;font-weight:bold;line-height:125%;letter-spacing:0px;word-spacing:0px;fill:&stroke_color;;fill-opacity:1;stroke:none;font-family:Sans;-inkscape-font-specification:Sans Bold" transform="matrix(0.99585653,-0.22380681,0.2190237,0.95493776,0,0)" x="6.2737784" xml:space="preserve" y="33.877575"><tspan id="tspan3230" sodipodi:role="line" x="6.2737784" y="33.877575">7</tspan></text>
  <text id="text3232" sodipodi:linespacing="125%" style="font-size:8.77895927px;font-style:normal;font-weight:bold;line-height:125%;letter-spacing:0px;word-spacing:0px;fill:&stroke_color;;fill-opacity:1;stroke:none;font-family:Sans;-inkscape-font-specification:Sans Bold" transform="scale(0.96739305,1.033706)" x="8.5385809" xml:space="preserve" y="31.758053"><tspan id="tspan3234" sodipodi:role="line" x="8.5385809" y="31.758053">x</tspan></text>
  <text id="text3236" sodipodi:linespacing="125%" style="font-size:5.83719397px;font-style:normal;font-weight:bold;line-height:125%;letter-spacing:0px;word-spacing:0px;fill:&stroke_color;;fill-opacity:1;stroke:none;font-family:Sans;-inkscape-font-specification:Sans Bold" transform="scale(0.99248107,1.0075759)" x="9.7179298" xml:space="preserve" y="19.014357"><tspan id="tspan3238" sodipodi:role="line" x="9.7179298" y="19.014357">+</tspan></text>
  <text id="text3240" sodipodi:linespacing="125%" style="font-size:8.59427166px;font-style:normal;font-weight:normal;line-height:125%;letter-spacing:0px;word-spacing:0px;fill:&stroke_color;;fill-opacity:1;stroke:none;font-family:Sans" transform="matrix(0.72214153,-0.79664132,0.68906112,0.62462194,0,0)" x="-21.782873" xml:space="preserve" y="28.276722"><tspan id="tspan3242" sodipodi:role="line" style="font-weight:bold;-inkscape-font-specification:Sans Bold" x="-21.782873" y="28.276722">4</tspan></text>
  <text id="text3244" sodipodi:linespacing="125%" style="font-size:7.80626917px;font-style:normal;font-weight:bold;line-height:125%;letter-spacing:0px;word-spacing:0px;fill:&stroke_color;;fill-opacity:1;stroke:none;font-family:Sans;-inkscape-font-specification:Sans Bold" transform="matrix(0.80701209,0.53860248,-0.57215287,0.85728214,0,0)" x="32.517094" xml:space="preserve" y="17.220757"><tspan id="tspan3246" sodipodi:role="line" x="32.517094" y="17.220757">9</tspan></text>
  <text id="text3248" sodipodi:linespacing="125%" style="font-size:12px;font-style:normal;font-weight:bold;line-height:125%;letter-spacing:0px;word-spacing:0px;fill:&stroke_color;;fill-opacity:1;stroke:none;font-family:Sans;-inkscape-font-specification:Sans Bold" transform="matrix(0.75016912,0.66124601,-0.66124601,0.75016912,0,0)" x="25.85169" xml:space="preserve" y="29.91967"><tspan id="tspan3250" sodipodi:role="line" x="25.85169" y="29.91967">5</tspan></text>
  <text id="text3252" sodipodi:linespacing="125%" style="font-size:9.58456326px;font-style:normal;font-weight:bold;line-height:125%;letter-spacing:0px;word-spacing:0px;fill:&stroke_color;;fill-opacity:1;stroke:none;font-family:Sans;-inkscape-font-specification:Sans Bold" transform="matrix(0.83921401,0.41184091,-0.47127151,0.96031656,0,0)" x="28.297302" xml:space="preserve" y="30.264116"><tspan id="tspan3254" sodipodi:role="line" x="28.297302" y="30.264116">%</tspan></text>
</svg>