<?xml version="1.0" standalone="no"?>
<!DOCTYPE svg PUBLIC "-//W3C//DTD SVG 20010904//EN"
 "http://www.w3.org/TR/2001/REC-SVG-20010904/DTD/svg10.dtd">
<svg version="1.0" xmlns="http://www.w3.org/2000/svg"
 width="468pt" height="437pt" viewBox="0 0 468 437"
 preserveAspectRatio="xMidYMid meet">
<metadata>
Created by potrace 1.8, written by Peter Selinger 2001-2007
</metadata>
<g transform="translate(0,437) scale(0.078000,-0.078000)"
fill="#000000" stroke="none">
<path d="M5792 5576 c-6 -14 -21 -32 -34 -40 -27 -17 -177 -71 -228 -81 -43
-8 -151 -75 -243 -148 l-68 -55 -212 -6 c-116 -4 -509 -11 -872 -17 -363 -5
-822 -14 -1020 -19 -198 -5 -542 -12 -765 -16 -427 -7 -433 -8 -477 -56 -23
-26 -76 -123 -112 -208 -13 -30 -53 -116 -88 -190 -36 -74 -73 -153 -83 -175
-10 -22 -46 -98 -80 -170 -34 -71 -78 -164 -97 -205 -20 -41 -64 -135 -99
-209 -35 -73 -64 -136 -64 -138 0 -3 -41 -88 -90 -190 -50 -101 -90 -186 -90
-188 0 -2 -38 -82 -85 -179 -47 -97 -85 -178 -85 -180 0 -2 -33 -73 -73 -157
-41 -85 -82 -172 -92 -194 -17 -38 -125 -263 -220 -460 -24 -49 -81 -148 -126
-220 -111 -176 -244 -436 -268 -526 -30 -109 -88 -279 -106 -305 -12 -19 -15
-62 -14 -241 0 -120 2 -213 4 -208 2 6 11 62 19 125 9 63 18 125 22 138 5 16
2 22 -10 22 -24 0 -20 19 23 106 21 43 51 117 65 162 14 46 31 92 36 103 6 10
15 44 21 74 11 62 117 274 183 369 47 67 50 72 65 106 6 14 32 59 59 100 26
41 67 118 91 170 59 129 122 262 188 400 56 117 93 194 180 380 82 174 112
237 206 430 49 102 103 214 119 250 16 36 55 119 85 185 31 66 90 192 133 280
42 88 85 178 95 200 9 22 44 95 76 163 33 67 80 168 105 225 25 56 57 127 71
157 15 30 40 86 58 123 l31 68 329 1 c181 0 441 4 579 9 417 13 1150 28 1721
35 771 9 703 5 734 41 28 32 115 103 126 103 4 0 20 11 37 25 16 14 35 25 43
25 7 0 16 7 19 15 4 12 14 14 41 9 26 -5 36 -2 41 9 3 9 12 13 20 10 7 -3 17
2 20 11 5 13 17 16 51 14 24 -1 48 2 51 8 4 5 23 9 42 9 28 0 35 4 35 20 0 13
7 20 20 20 13 0 19 6 17 18 -2 9 4 20 12 23 8 3 12 12 10 19 -6 15 30 30 46
20 13 -8 50 3 50 16 0 5 -38 9 -83 9 -79 0 -84 -1 -95 -24z"/>
<path d="M5972 5448 c2 -46 7 -73 16 -76 9 -3 12 16 12 72 0 62 -3 76 -15 76
-13 0 -15 -12 -13 -72z"/>
<path d="M5578 5350 c25 -24 32 -25 32 -6 0 8 -7 17 -16 20 -31 12 -38 6 -16
-14z"/>
<path d="M5979 5338 c-1 -2 -3 -67 -5 -145 -2 -95 -10 -173 -25 -240 -11 -54
-25 -127 -29 -163 -5 -36 -18 -110 -29 -165 -12 -55 -25 -128 -31 -163 -5 -34
-17 -104 -26 -155 -8 -50 -22 -130 -29 -177 -8 -47 -21 -125 -30 -175 -8 -49
-22 -130 -31 -180 -8 -49 -21 -124 -28 -165 -7 -41 -23 -131 -35 -200 -12 -69
-28 -159 -35 -200 -27 -143 -36 -196 -36 -219 0 -13 -7 -53 -15 -90 -8 -36
-24 -122 -35 -191 -12 -69 -28 -163 -36 -210 -13 -76 -22 -128 -53 -315 -5
-27 -23 -131 -40 -230 -18 -99 -36 -207 -41 -240 -4 -33 -13 -80 -19 -105 -5
-25 -18 -90 -27 -145 -9 -55 -25 -147 -36 -205 -11 -58 -23 -127 -28 -155 -5
-27 -13 -72 -18 -100 -50 -261 -55 -307 -39 -329 37 -50 57 6 111 314 19 107
47 269 61 360 15 91 40 244 56 340 17 96 46 267 65 380 18 113 43 255 54 315
23 133 84 495 110 660 18 110 85 500 124 720 9 50 23 131 31 180 21 136 95
564 106 613 5 23 12 91 15 150 5 111 20 192 35 192 5 0 9 99 9 220 0 140 -4
220 -10 220 -5 0 -11 -1 -11 -2z"/>
<path d="M5535 5312 c-22 -5 -61 -28 -89 -54 -11 -10 -25 -18 -31 -18 -6 0
-18 -9 -28 -21 -17 -19 -17 -21 1 -43 l18 -24 16 28 c8 15 41 44 73 65 69 46
88 77 40 67z"/>
<path d="M5258 5099 c-10 -5 -18 -14 -18 -18 0 -8 31 -22 55 -25 38 -5 83 -39
100 -76 10 -22 15 -43 12 -46 -4 -4 -1 -16 4 -27 9 -16 6 -24 -15 -44 -52 -48
-24 -59 34 -13 37 30 100 42 100 20 0 -16 70 -7 113 15 36 18 39 18 66 2 35
-21 41 -21 41 -3 0 8 -14 20 -30 28 -17 7 -29 17 -27 23 5 14 78 37 99 31 11
-2 18 1 18 10 0 21 16 17 32 -8 22 -33 45 -17 53 37 4 25 11 48 16 51 5 3 9
14 9 25 0 15 -6 20 -22 17 -15 -2 -23 -10 -23 -23 0 -15 -6 -19 -23 -18 -16 2
-25 -4 -32 -22 -8 -22 -16 -25 -56 -25 -42 0 -46 2 -41 21 4 16 1 20 -16 17
-14 -2 -23 -11 -25 -25 -2 -13 -10 -23 -18 -23 -8 0 -17 -8 -21 -17 -3 -10
-22 -33 -42 -50 -37 -34 -64 -36 -87 -7 -6 7 -20 11 -32 7 -28 -7 -28 4 0 35
21 22 22 24 5 33 -24 14 -22 32 3 24 15 -5 18 -3 14 8 -5 13 -23 18 -137 34
-23 3 -41 13 -48 24 -11 21 -34 24 -61 8z"/>
<path d="M5137 5003 c-94 -83 -169 -131 -238 -153 -36 -11 -117 -43 -180 -71
-63 -28 -132 -58 -154 -66 -75 -27 -368 -170 -415 -203 -14 -9 -54 -32 -90
-50 -245 -126 -277 -137 -316 -102 -10 9 -46 37 -79 61 -33 25 -62 48 -65 52
-15 21 -363 239 -381 239 -5 0 -34 16 -66 35 -60 36 -73 41 -73 26 0 -4 26
-20 58 -35 71 -33 120 -61 218 -126 41 -27 79 -50 83 -50 4 0 16 -9 26 -20 10
-11 23 -20 30 -20 6 0 20 -8 31 -18 10 -10 35 -28 54 -42 19 -13 42 -31 50
-40 8 -8 31 -27 50 -41 54 -41 76 -62 89 -86 13 -26 37 -29 66 -9 11 7 94 52
185 98 325 168 405 210 435 228 17 10 53 26 80 35 28 9 113 48 189 86 77 38
146 69 155 69 8 0 61 22 117 49 107 52 188 120 200 168 10 40 -1 37 -59 -14z"/>
<path d="M5355 4959 c-4 -6 -41 -38 -84 -71 -99 -79 -108 -92 -92 -132 10 -28
9 -32 -11 -45 -31 -20 -163 -153 -218 -220 -55 -67 -166 -186 -237 -254 -29
-27 -53 -55 -53 -61 0 -6 -10 -16 -22 -21 -12 -6 -26 -19 -32 -30 -6 -11 -17
-24 -23 -28 -7 -4 -13 -15 -13 -22 0 -8 -6 -15 -14 -15 -15 0 -163 -147 -180
-178 -5 -9 -23 -31 -40 -48 -43 -43 -76 -84 -76 -95 0 -5 -5 -9 -11 -9 -15 0
-99 -86 -99 -102 0 -7 -12 -25 -27 -38 -16 -14 -53 -55 -83 -90 -30 -36 -115
-124 -187 -195 -73 -72 -133 -133 -133 -137 0 -3 -54 -60 -119 -126 -98 -99
-118 -125 -114 -143 5 -17 3 -20 -8 -13 -8 5 -22 7 -32 6 -18 -3 -67 -44 -67
-56 0 -4 -124 -130 -275 -280 -151 -150 -275 -278 -275 -284 0 -7 -7 -12 -15
-12 -8 0 -15 -7 -15 -15 0 -8 9 -15 20 -15 11 0 20 4 20 8 0 10 108 122 117
122 12 0 83 81 83 95 0 8 4 15 9 15 5 0 33 16 64 36 43 27 54 40 50 55 -4 14
5 29 33 52 52 44 160 145 197 184 22 24 33 30 43 22 8 -7 14 -7 19 1 3 5 1 10
-4 10 -6 0 -11 5 -11 10 0 6 11 10 24 10 13 0 29 7 36 15 7 8 18 15 26 15 21
0 27 20 10 33 -14 10 -4 24 71 100 47 48 92 87 98 87 7 0 25 17 41 38 26 35
74 82 176 177 50 46 98 101 98 112 0 5 25 35 56 68 30 33 67 76 82 95 15 19
43 48 62 65 19 16 54 50 77 74 26 27 47 42 56 38 15 -6 27 11 27 40 0 27 154
203 178 203 7 0 16 8 19 18 4 9 46 55 93 102 48 47 95 98 104 113 10 15 27 27
37 27 11 0 19 6 19 13 0 18 57 85 79 92 10 3 21 15 24 25 3 14 14 20 31 20 16
0 26 6 26 14 0 8 11 28 25 44 14 17 25 33 25 38 0 12 44 74 53 74 9 0 54 47
67 70 7 12 12 13 29 2 18 -10 21 -10 21 4 0 19 19 39 47 48 12 4 26 13 33 21
9 11 17 11 35 3 13 -6 26 -16 29 -23 5 -15 -43 -84 -99 -144 -22 -23 -40 -50
-40 -59 0 -29 31 -25 51 7 11 16 45 59 78 95 50 56 63 66 92 66 18 0 35 -4 38
-8 3 -5 -18 -33 -45 -63 -62 -66 -76 -89 -54 -89 8 0 15 4 15 10 0 5 12 21 28
35 35 34 187 135 202 135 7 0 10 6 8 13 -5 16 -64 44 -110 52 l-38 7 16 -32
c19 -37 13 -48 -19 -32 -12 6 -42 15 -67 20 -43 8 -45 10 -44 40 1 18 -3 32
-10 32 -6 0 -21 3 -33 6 -14 4 -23 2 -23 -5 0 -6 8 -11 17 -11 10 0 0 -9 -22
-21 -22 -12 -47 -28 -57 -36 -24 -22 -33 3 -9 28 11 12 17 27 15 33 -3 7 7 18
21 24 14 6 25 17 25 24 0 7 21 33 45 57 42 42 57 71 36 71 -6 0 -13 -5 -16
-11z"/>
<path d="M5811 4905 c-11 -20 -27 -38 -36 -41 -10 -4 -15 -20 -15 -49 0 -35
-7 -51 -36 -87 -20 -23 -44 -47 -53 -52 -9 -5 -38 -27 -64 -48 -27 -21 -53
-38 -59 -38 -11 0 -81 -48 -119 -82 -14 -13 -45 -51 -67 -86 -49 -76 -71 -163
-70 -285 0 -56 -5 -95 -14 -110 -18 -29 -9 -122 12 -122 18 0 26 42 34 175 3
58 12 127 20 154 31 101 100 177 216 236 65 33 105 64 198 151 93 87 120 129
84 129 -13 0 -23 12 -32 39 -12 36 -11 41 14 77 26 38 34 74 17 74 -5 0 -18
-16 -30 -35z"/>
<path d="M5030 4770 c-8 -4 -71 -32 -140 -61 -69 -29 -132 -58 -140 -65 -8 -6
-26 -15 -39 -19 -13 -4 -50 -22 -82 -41 -31 -19 -60 -34 -63 -34 -6 0 -298
-143 -326 -160 -8 -5 -40 -20 -70 -33 -173 -78 -211 -98 -204 -109 4 -7 3 -8
-5 -4 -6 4 -17 4 -24 -1 -7 -6 -28 -15 -47 -23 -31 -11 -205 -92 -270 -125
-14 -7 -37 -15 -52 -19 -16 -3 -28 -11 -28 -16 0 -6 -7 -10 -16 -10 -28 0
-844 -420 -885 -456 -8 -8 -19 -14 -24 -14 -4 0 -31 -15 -59 -34 -28 -18 -82
-50 -121 -70 -38 -21 -99 -56 -135 -78 -36 -22 -102 -63 -148 -92 -46 -28 -98
-60 -117 -71 -90 -53 -249 -152 -339 -211 -16 -10 -36 -24 -45 -29 -37 -23
-76 -50 -81 -55 -13 -13 -70 -50 -78 -50 -5 0 -17 -9 -27 -20 -10 -11 -22 -20
-27 -20 -4 0 -16 -7 -26 -15 -9 -9 -51 -41 -92 -72 -41 -31 -77 -59 -80 -62
-3 -4 -25 -22 -50 -41 -68 -51 -322 -282 -430 -390 -43 -44 -129 -144 -158
-187 -27 -39 -30 -63 -4 -40 21 19 42 22 42 7 0 -5 5 -10 10 -10 14 0 12 28
-2 32 -8 3 -2 15 15 34 15 16 27 32 27 35 0 3 12 19 26 35 14 16 32 39 41 51
8 13 43 41 77 65 33 23 55 34 48 26 -25 -31 8 -30 38 1 31 31 38 51 18 51 -6
0 25 35 69 77 143 140 226 213 240 213 7 0 13 4 13 10 0 5 12 16 28 24 15 8
41 27 57 42 32 28 63 50 175 124 38 25 103 69 145 98 42 28 80 52 84 52 4 0
16 9 26 20 10 11 22 20 28 20 5 0 29 14 54 30 24 17 47 30 50 30 4 0 16 9 27
19 12 11 48 34 81 52 33 18 79 45 102 61 23 15 45 28 50 28 4 0 37 20 73 45
36 25 69 45 74 45 6 0 40 20 77 45 37 25 73 45 79 45 7 0 32 14 57 30 24 17
48 30 54 30 5 0 9 4 9 10 0 5 17 19 38 30 20 11 44 24 52 29 8 4 38 19 65 32
28 13 82 42 120 65 97 58 402 217 495 258 24 11 75 39 114 63 70 43 99 52 111
33 7 -12 55 -14 55 -2 0 4 17 16 38 27 20 10 47 28 60 39 20 17 24 18 32 6 7
-12 12 -12 22 -2 6 6 24 12 39 12 15 0 32 6 38 14 6 8 34 24 62 35 28 12 74
37 102 55 29 18 70 41 92 51 22 10 55 29 73 42 27 21 33 22 38 9 9 -23 33 -19
43 7 5 12 19 27 32 33 13 6 36 17 51 24 15 7 44 14 65 14 20 1 39 8 41 15 3 9
-5 11 -33 5 -29 -5 -37 -4 -33 6 2 8 11 17 19 20 8 4 29 15 47 24 18 10 63 28
100 40 38 13 91 35 118 50 27 14 53 26 58 26 5 0 17 6 25 14 20 18 71 31 71
19 0 -6 -9 -18 -20 -28 -11 -10 -20 -24 -20 -31 0 -7 -16 -18 -35 -25 -23 -9
-38 -22 -41 -36 -4 -13 -11 -23 -18 -23 -6 0 -19 -14 -29 -31 -14 -25 -22 -30
-42 -25 -24 6 -43 -8 -25 -19 18 -11 11 -27 -10 -22 -11 3 -23 1 -26 -4 -3 -5
2 -9 10 -9 27 0 18 -17 -26 -53 -56 -45 -77 -51 -121 -32 -46 19 -167 21 -167
2 0 -7 -27 -21 -60 -30 -33 -10 -62 -22 -65 -28 -4 -5 -13 -9 -22 -9 -8 0 -27
-12 -42 -27 -15 -16 -47 -46 -70 -67 -37 -35 -101 -118 -101 -132 0 -3 -10
-20 -22 -36 -12 -17 -23 -45 -24 -62 -2 -17 -9 -52 -16 -78 -11 -42 -15 -46
-40 -46 -16 1 -31 5 -34 9 -15 25 -262 -32 -309 -71 -10 -8 -25 -19 -34 -25
-67 -41 -81 -51 -81 -62 0 -6 -18 -34 -40 -62 -22 -28 -40 -55 -40 -60 0 -6
-11 -18 -25 -27 -18 -11 -23 -22 -20 -38 3 -11 -1 -39 -9 -61 -13 -37 -17 -40
-48 -37 -111 9 -198 3 -258 -18 -35 -12 -68 -27 -74 -31 -6 -5 -36 -28 -66
-52 -30 -23 -57 -46 -59 -51 -2 -5 -16 -22 -30 -37 -16 -16 -37 -60 -50 -101
-39 -123 -36 -118 -73 -111 -18 3 -39 11 -47 17 -9 7 -59 11 -131 10 -101 -1
-122 -4 -151 -22 -19 -11 -55 -32 -80 -45 -49 -26 -139 -106 -139 -124 0 -6
-6 -16 -14 -23 -8 -6 -12 -18 -9 -26 3 -8 0 -21 -7 -29 -25 -30 -50 -154 -43
-216 l6 -59 -32 0 c-18 0 -30 3 -27 8 2 4 -35 4 -84 0 -83 -6 -155 -24 -204
-50 -50 -27 -199 -161 -190 -171 3 -3 -8 -32 -25 -64 -17 -32 -31 -68 -31 -80
0 -29 -10 -53 -22 -53 -6 0 -8 7 -4 15 6 17 -2 19 -24 5 -8 -5 -19 -5 -25 -1
-22 17 -135 36 -135 22 0 -3 -30 -12 -68 -19 -66 -13 -192 -68 -192 -85 0 -4
-5 -5 -10 -2 -6 4 -17 -9 -25 -27 -8 -18 -14 -29 -15 -25 0 15 -53 -51 -80
-102 -40 -77 -65 -288 -38 -331 11 -18 9 -23 -17 -45 -17 -13 -38 -24 -48 -25
-31 0 -158 -91 -198 -142 -21 -27 -43 -66 -49 -87 -5 -21 -19 -50 -30 -64 -11
-14 -24 -47 -29 -74 -13 -63 -21 -84 -32 -77 -10 6 -2 -66 12 -104 5 -13 9
-34 9 -48 0 -13 9 -32 20 -41 11 -10 20 -28 20 -41 0 -13 5 -33 11 -44 10 -19
4 -29 -63 -92 -41 -39 -83 -78 -94 -87 -10 -9 -32 -31 -48 -50 -15 -19 -46
-53 -67 -76 -36 -39 -50 -73 -31 -73 5 0 16 8 24 18 81 89 224 231 273 269 33
26 70 57 82 70 12 13 27 23 33 23 6 0 25 13 43 30 43 40 13 40 -38 0 -42 -34
-44 -34 -66 -17 -20 15 -61 169 -60 222 2 51 24 121 69 214 41 85 142 196 188
206 16 4 39 11 52 16 35 14 80 11 110 -9 47 -30 62 -46 62 -67 0 -11 7 -29 16
-40 8 -11 19 -36 25 -57 12 -47 29 -49 29 -4 0 70 -39 153 -87 186 -40 27 -51
46 -69 115 -44 163 30 358 172 456 83 56 268 94 290 58 3 -5 14 -9 25 -9 33 0
99 -39 143 -84 53 -55 86 -98 86 -113 0 -23 62 -105 72 -95 6 6 4 21 -6 40 -9
17 -16 38 -16 46 0 8 -6 19 -12 23 -7 4 -19 17 -26 28 -7 11 -22 35 -34 53
-11 19 -32 38 -44 43 -21 7 -24 15 -24 61 1 82 32 161 96 239 66 81 124 120
224 149 59 18 88 21 138 16 123 -13 233 -87 262 -176 7 -25 27 -78 43 -119 42
-108 36 -139 -43 -213 -34 -31 -74 -59 -89 -63 -15 -3 -34 -15 -42 -26 -24
-36 -103 -112 -154 -152 -28 -21 -68 -60 -90 -87 -22 -27 -50 -52 -63 -56 -31
-9 -72 30 -72 67 0 28 -26 47 -43 30 -5 -5 -11 -45 -12 -88 -1 -43 -7 -89 -14
-103 -12 -23 -88 -100 -98 -100 -3 0 -22 -13 -43 -30 -21 -17 -42 -30 -48 -30
-6 0 -12 -4 -14 -8 -1 -5 -30 -27 -63 -50 -33 -24 -79 -58 -103 -77 -24 -19
-53 -35 -66 -35 -25 0 -86 73 -86 103 0 10 -14 37 -32 60 l-32 40 -8 -28 c-5
-18 -3 -34 5 -43 13 -17 36 -96 37 -130 0 -18 4 -21 24 -16 33 8 43 -22 16
-51 -20 -21 -27 -55 -11 -55 4 0 22 10 40 23 17 12 63 44 102 71 39 28 73 55
75 61 4 10 127 98 182 130 35 21 77 50 87 60 6 6 33 29 60 50 28 22 57 47 66
57 9 9 36 32 62 50 25 18 101 83 169 143 69 61 149 130 178 155 30 25 61 52
70 61 9 8 25 22 37 30 20 14 199 179 373 344 52 50 115 108 140 129 25 21 108
100 185 175 77 75 176 168 219 206 67 59 136 128 274 273 13 13 21 26 18 29
-12 12 -57 -9 -66 -31 -9 -25 -42 -44 -48 -27 -5 16 -22 13 -22 -4 0 -8 5 -15
10 -15 19 0 10 -19 -12 -26 -13 -4 -30 -15 -38 -24 -8 -9 -25 -20 -36 -24 -12
-4 -24 -15 -27 -25 -2 -11 -24 -33 -48 -50 -24 -17 -54 -40 -66 -52 -12 -11
-41 -23 -65 -27 -39 -7 -43 -11 -48 -40 -3 -18 -8 -33 -12 -32 -5 0 -12 0 -18
0 -5 0 -10 14 -10 31 0 26 -3 31 -20 26 -17 -4 -20 0 -20 24 0 18 -7 32 -20
39 -11 6 -20 19 -20 30 0 10 -8 21 -18 25 -11 3 -32 22 -49 43 -70 87 -45 219
62 327 71 74 92 85 215 120 111 33 168 30 263 -13 64 -29 187 -138 187 -166 0
-7 6 -19 14 -26 12 -9 19 -6 38 15 13 15 51 55 86 91 80 82 84 123 7 73 -16
-11 -38 -22 -48 -25 -10 -4 -17 -14 -15 -24 3 -18 -28 -60 -44 -60 -5 0 -41
30 -79 68 -38 37 -81 71 -94 75 -22 8 -25 15 -25 53 0 24 4 52 9 62 4 9 18 37
29 62 28 62 132 173 195 208 152 86 333 83 432 -9 23 -22 48 -39 54 -39 16 0
348 337 367 373 19 35 10 34 -27 -4 -16 -16 -42 -35 -58 -40 -18 -6 -32 -20
-35 -35 -4 -14 -14 -24 -24 -24 -21 0 -57 -29 -65 -52 -4 -10 -14 -18 -22 -18
-9 0 -14 -4 -10 -10 3 -5 -23 -38 -58 -73 l-63 -63 -31 20 c-65 43 -75 126
-27 234 13 29 24 56 24 60 0 5 35 41 78 81 70 67 147 116 212 136 14 4 36 15
49 24 27 17 98 24 107 10 3 -5 14 -9 24 -9 11 0 38 -10 60 -21 l41 -22 40 44
c22 24 63 71 92 103 176 199 240 269 324 353 51 51 93 95 93 98 0 8 -23 5 -40
-5z m-2511 -1886 c24 -8 55 -21 70 -29 42 -22 171 -153 171 -173 0 -10 11 -47
25 -82 14 -35 25 -75 25 -88 0 -22 -20 -52 -35 -52 -6 0 -72 -47 -85 -60 -3
-3 -22 -13 -42 -22 -21 -10 -38 -22 -38 -28 0 -6 -6 -10 -12 -8 -23 4 -58 -13
-58 -27 0 -8 -11 -22 -25 -31 -13 -9 -27 -25 -31 -37 -4 -12 -17 -29 -30 -39
-13 -11 -21 -25 -18 -33 4 -9 -2 -18 -12 -22 -11 -3 -41 -29 -69 -56 -63 -62
-88 -79 -107 -72 -19 7 -48 68 -48 99 0 13 -7 29 -15 36 -8 7 -15 21 -15 32 0
25 -117 148 -135 142 -15 -6 -19 4 -39 101 -15 75 -10 132 18 221 16 51 98
164 119 164 6 0 19 8 30 17 10 10 58 30 105 45 96 30 170 31 251 2z"/>
<path d="M2345 2510 c-3 -5 3 -10 14 -10 12 0 21 5 21 10 0 6 -6 10 -14 10 -8
0 -18 -4 -21 -10z"/>
<path d="M2190 2300 c0 -5 7 -10 15 -10 8 0 15 5 15 10 0 6 -7 10 -15 10 -8 0
-15 -4 -15 -10z"/>
<path d="M5132 4497 c-10 -28 -9 -39 4 -65 15 -31 34 -35 34 -7 0 8 16 19 35
26 42 16 45 29 7 29 -18 0 -30 7 -37 22 -15 33 -30 32 -43 -5z"/>
<path d="M4572 4455 c-35 -19 -45 -32 -37 -46 6 -9 11 -9 19 2 6 8 24 24 40
37 31 24 16 28 -22 7z"/>
<path d="M5297 4433 c-29 -45 -32 -53 -19 -53 12 0 54 70 49 83 -2 7 -16 -7
-30 -30z"/>
<path d="M5097 4416 c-4 -10 -5 -21 -2 -24 9 -9 17 6 13 25 -3 17 -4 17 -11
-1z"/>
<path d="M5190 4373 c-17 -26 -33 -57 -35 -68 -8 -33 -27 -147 -32 -190 -3
-22 -9 -44 -13 -50 -4 -5 -17 -39 -30 -75 -33 -97 -70 -181 -113 -255 -17 -27
-39 -66 -50 -85 -63 -113 -210 -281 -299 -341 -31 -21 -58 -42 -60 -46 -6 -14
-229 -211 -283 -251 -22 -16 -66 -53 -97 -83 -31 -30 -67 -61 -79 -69 -12 -8
-32 -24 -44 -35 -48 -43 -82 -72 -135 -115 -67 -55 -92 -77 -150 -131 -25 -23
-69 -59 -98 -81 -54 -40 -133 -106 -189 -158 -17 -17 -34 -30 -37 -30 -3 0
-14 -8 -24 -17 -10 -10 -43 -38 -72 -63 -30 -25 -81 -71 -115 -103 -33 -32
-90 -82 -127 -110 -38 -29 -68 -55 -68 -59 0 -5 -5 -8 -10 -8 -6 0 -32 -20
-58 -45 -26 -25 -65 -58 -87 -73 -22 -15 -49 -36 -61 -47 -11 -11 -33 -29 -48
-40 -16 -11 -38 -28 -50 -37 -11 -10 -52 -43 -91 -73 -122 -98 -159 -129 -209
-177 -26 -26 -64 -60 -84 -75 -20 -15 -45 -36 -57 -48 -41 -41 -187 -165 -194
-165 -4 0 -41 -33 -82 -72 l-74 -73 33 -3 c20 -2 32 -9 32 -18 0 -8 6 -14 13
-14 21 0 107 63 200 146 49 44 112 99 142 124 29 25 98 86 152 135 54 50 119
105 143 122 25 18 70 53 100 78 63 52 60 50 126 100 27 21 90 72 139 114 50
42 113 94 140 116 28 21 68 57 90 80 59 59 119 112 215 190 47 38 114 94 150
125 36 31 81 67 100 80 19 13 60 47 90 76 30 29 82 74 114 101 33 26 83 68
110 93 28 25 69 59 91 75 22 16 65 52 95 81 30 28 72 63 92 76 40 27 184 155
257 229 25 26 55 50 67 53 54 16 219 207 320 371 43 69 144 279 144 298 0 3
11 31 25 61 14 30 25 63 25 73 0 18 20 111 47 210 10 39 17 51 28 47 9 -4 15
0 15 10 0 9 -4 16 -10 16 -15 0 -12 77 5 110 26 50 -3 44 -35 -7z m-598 -1165
c-15 -15 -26 -4 -18 18 5 13 9 15 18 6 9 -9 9 -15 0 -24z"/>
<path d="M5083 4293 c-12 -29 -21 -66 -30 -121 -3 -18 -9 -35 -14 -38 -5 -3
-9 -18 -9 -34 0 -16 -4 -32 -10 -35 -5 -3 -10 -17 -10 -30 0 -13 -4 -27 -10
-30 -5 -3 -10 -16 -10 -28 0 -12 -6 -34 -14 -49 -8 -15 -12 -36 -9 -48 3 -11
0 -27 -7 -35 -7 -9 -10 -18 -6 -22 8 -8 8 -8 38 67 48 117 87 244 97 315 5 39
13 80 17 93 9 31 -9 27 -23 -5z"/>
<path d="M4954 4283 c-9 -14 -8 -23 4 -40 18 -28 32 -29 32 -3 0 11 -4 20 -9
20 -5 0 -11 9 -13 20 -3 19 -4 20 -14 3z"/>
<path d="M3676 4249 c-21 -12 -56 -33 -77 -49 -39 -28 -118 -63 -219 -95 -30
-10 -72 -29 -92 -42 -34 -21 -194 -105 -363 -191 -76 -39 -149 -72 -159 -72
-5 0 -25 -13 -46 -30 -21 -16 -43 -30 -49 -30 -6 0 -11 -4 -11 -10 0 -5 -18
-19 -41 -30 -23 -12 -39 -24 -36 -27 6 -5 34 7 100 45 20 12 54 31 75 43 20
12 46 30 58 40 11 10 28 19 37 19 10 0 25 4 35 9 9 4 89 43 177 86 88 43 164
85 168 92 4 7 14 13 22 13 8 0 38 13 67 28 29 16 67 32 83 36 62 15 173 65
254 115 46 28 88 51 93 51 4 0 8 5 8 10 0 16 -42 11 -84 -11z"/>
<path d="M4446 4114 c-9 -24 -4 -24 18 -3 16 16 17 19 4 19 -9 0 -19 -7 -22
-16z"/>
<path d="M4760 4007 c0 -15 -4 -27 -9 -27 -5 0 -11 -8 -14 -17 -2 -10 -8 -27
-12 -38 -5 -16 -1 -14 19 8 31 33 43 74 27 90 -8 8 -11 4 -11 -16z"/>
<path d="M3530 3994 c0 -9 7 -14 17 -12 25 5 28 28 4 28 -12 0 -21 -6 -21 -16z"/>
<path d="M3461 3933 c-22 -27 -36 -50 -31 -51 6 -2 20 8 31 21 11 14 28 29 39
32 20 6 29 45 11 45 -5 0 -28 -21 -50 -47z"/>
<path d="M4650 3895 c-7 -8 -18 -15 -25 -15 -14 0 -85 -82 -85 -99 0 -19 25
-2 42 29 9 17 27 34 40 40 13 5 37 21 53 35 27 23 28 25 9 25 -12 0 -27 -7
-34 -15z"/>
<path d="M3286 3864 c-17 -16 -21 -34 -8 -34 13 1 42 27 42 39 0 16 -16 14
-34 -5z"/>
<path d="M4891 3856 c-16 -19 -11 -29 8 -17 7 5 12 14 9 21 -3 9 -8 7 -17 -4z"/>
<path d="M4818 3834 c-16 -8 -28 -19 -28 -24 0 -13 -37 -50 -49 -50 -18 0 -63
-49 -59 -65 2 -12 29 8 93 69 88 85 97 100 43 70z"/>
<path d="M4861 3796 c-8 -9 -11 -19 -7 -23 9 -9 29 13 24 27 -2 8 -8 7 -17 -4z"/>
<path d="M4907 3747 c-10 -16 -13 -28 -7 -32 6 -3 10 0 10 9 0 8 5 16 12 18 6
2 9 10 7 17 -3 9 -10 5 -22 -12z"/>
<path d="M4835 3739 c-6 -19 0 -38 9 -28 10 12 16 49 7 49 -5 0 -13 -9 -16
-21z"/>
<path d="M3055 3729 c-4 -6 -4 -13 -1 -16 8 -8 36 5 36 17 0 13 -27 13 -35 -1z"/>
<path d="M3000 3695 c0 -17 2 -18 24 -9 23 9 20 24 -4 24 -11 0 -20 -7 -20
-15z"/>
<path d="M4744 3685 c-22 -34 -7 -55 17 -24 10 13 19 30 19 37 0 20 -18 14
-36 -13z"/>
<path d="M4590 3640 c0 -13 11 -13 30 0 12 8 11 10 -7 10 -13 0 -23 -4 -23
-10z"/>
<path d="M4697 3624 c-4 -4 -7 -15 -7 -25 0 -10 -8 -20 -18 -23 -22 -7 -49
-53 -38 -63 4 -5 13 0 20 10 7 9 18 17 23 17 14 0 45 72 35 82 -4 4 -11 5 -15
2z"/>
<path d="M2847 3585 c-10 -14 -16 -25 -13 -25 9 0 46 34 46 42 0 15 -15 7 -33
-17z"/>
<path d="M4581 3499 c-12 -20 -39 -49 -61 -63 -22 -14 -46 -39 -55 -56 -9 -16
-22 -30 -30 -30 -8 0 -15 -4 -15 -9 0 -17 56 6 87 35 48 46 92 82 105 86 9 3
9 13 2 39 l-11 34 -22 -36z"/>
<path d="M2593 3443 c-16 -6 -17 -33 -3 -33 11 0 26 28 19 34 -2 2 -10 1 -16
-1z"/>
<path d="M2536 3374 c-4 -10 -1 -14 6 -12 15 5 23 28 10 28 -5 0 -13 -7 -16
-16z"/>
<path d="M4050 3321 c0 -10 50 -25 58 -16 3 3 -2 5 -11 5 -9 0 -17 5 -17 10 0
6 -7 10 -15 10 -8 0 -15 -4 -15 -9z"/>
<path d="M3632 3284 c4 -21 22 -23 26 -1 2 10 -3 17 -13 17 -10 0 -15 -6 -13
-16z"/>
<path d="M4298 3243 c-16 -8 -28 -21 -28 -29 0 -20 15 -17 46 9 32 28 21 40
-18 20z"/>
<path d="M2220 3235 c-14 -16 -10 -18 14 -9 9 3 16 10 16 15 0 14 -16 11 -30
-6z"/>
<path d="M4210 3165 c-8 -8 -41 -39 -72 -70 -67 -65 -79 -94 -26 -62 31 18 61
50 78 81 8 16 25 33 37 39 13 6 23 14 23 19 0 13 -24 9 -40 -7z"/>
<path d="M3805 3149 c-12 -19 5 -23 22 -6 16 16 16 17 1 17 -9 0 -20 -5 -23
-11z"/>
<path d="M3896 3094 c-12 -31 3 -34 22 -4 10 16 10 20 -2 20 -8 0 -17 -7 -20
-16z"/>
<path d="M3684 3045 c-9 -22 1 -29 15 -11 8 10 9 16 1 21 -5 3 -13 -1 -16 -10z"/>
<path d="M4047 3013 c-12 -12 -7 -22 8 -17 8 4 15 10 15 15 0 11 -14 12 -23 2z"/>
<path d="M1801 2944 c-12 -14 -20 -28 -17 -32 7 -6 56 37 56 50 0 15 -16 8
-39 -18z"/>
<path d="M1324 2910 c-82 -42 -293 -202 -389 -296 -100 -98 -175 -184 -174
-198 0 -6 3 -6 6 2 2 6 10 12 16 12 7 0 55 41 107 91 150 142 285 257 348 294
13 8 94 67 151 112 2 2 2 5 -1 8 -2 3 -31 -9 -64 -25z"/>
<path d="M3560 2920 c0 -5 7 -10 15 -10 8 0 15 5 15 10 0 6 -7 10 -15 10 -8 0
-15 -4 -15 -10z"/>
<path d="M3095 2903 c-47 -19 -50 -21 -43 -29 9 -8 118 26 118 37 0 13 -29 10
-75 -8z"/>
<path d="M3880 2850 c-8 -5 -11 -12 -7 -16 4 -4 15 0 24 9 18 18 8 23 -17 7z"/>
<path d="M790 2219 c-66 -71 -62 -95 4 -27 51 51 68 79 49 77 -5 0 -28 -23
-53 -50z"/>
<path d="M2776 2203 c-6 -18 -49 -43 -73 -43 -7 0 -23 -11 -35 -25 -12 -14
-28 -25 -36 -25 -7 0 -12 -6 -9 -12 2 -7 -4 -28 -14 -45 -23 -41 -18 -41 24
-4 17 16 55 46 82 67 70 52 98 81 90 94 -9 15 -23 12 -29 -7z"/>
<path d="M691 2121 c-7 -5 -12 -14 -9 -21 2 -7 10 -4 22 9 19 21 12 28 -13 12z"/>
<path d="M1805 2029 c-4 -6 -5 -12 -2 -15 7 -7 37 7 37 17 0 13 -27 11 -35 -2z"/>
<path d="M2755 2009 c-10 -15 3 -25 16 -12 7 7 7 13 1 17 -6 3 -14 1 -17 -5z"/>
<path d="M595 1990 c-3 -11 -12 -20 -18 -20 -17 0 -34 -31 -43 -76 -3 -22 -13
-46 -21 -55 -7 -9 -11 -23 -7 -32 5 -14 -32 -99 -61 -137 -7 -8 -22 -41 -35
-72 -12 -32 -28 -58 -34 -58 -26 0 -121 -214 -109 -245 3 -9 -2 -26 -11 -40
-9 -13 -16 -33 -16 -44 0 -11 -4 -23 -10 -26 -5 -3 -10 -19 -10 -34 0 -48 -12
-91 -25 -91 -13 0 -24 -23 -49 -110 -23 -80 -30 -120 -20 -120 14 1 45 73 35
83 -10 10 46 138 65 150 7 4 23 40 35 80 12 39 28 79 35 87 15 17 38 110 29
118 -3 3 -5 -2 -5 -11 0 -10 -4 -17 -10 -17 -19 0 -10 29 15 48 14 11 25 23
25 26 0 16 60 134 74 145 9 8 16 20 16 28 0 14 75 161 91 178 5 5 9 24 9 41 0
18 5 36 11 40 17 10 52 96 50 121 -2 17 2 21 21 17 13 -2 17 -2 11 2 -7 3 -13
14 -13 25 0 25 -17 24 -25 -1z"/>
<path d="M2473 1946 c-17 -12 -43 -40 -58 -63 -15 -23 -46 -58 -68 -77 -83
-71 -93 -86 -61 -86 10 0 14 6 10 15 -3 9 0 15 9 15 16 0 99 79 108 103 3 9
18 24 34 34 15 10 36 26 45 36 10 9 23 17 28 17 14 0 12 17 -2 22 -7 3 -27 -5
-45 -16z"/>
<path d="M1550 1815 c-10 -12 -8 -18 11 -35 22 -18 39 -25 39 -17 0 7 -31 67
-35 67 -1 0 -8 -7 -15 -15z"/>
<path d="M1649 1759 c-17 -32 17 -90 36 -60 3 5 1 12 -3 15 -5 3 -7 16 -5 30
6 32 -13 42 -28 15z"/>
<path d="M2206 1686 c-24 -14 -34 -26 -27 -30 6 -4 27 5 46 20 55 42 44 48
-19 10z"/>
<path d="M2500 1663 c0 -6 -13 -16 -30 -22 -27 -9 -42 -31 -22 -31 15 0 66 49
59 56 -4 4 -7 3 -7 -3z"/>
<path d="M1753 871 c-54 -44 -141 -121 -193 -172 -84 -82 -152 -139 -165 -139
-5 0 -207 -151 -215 -161 -3 -3 -12 -9 -20 -13 -8 -3 -1 -4 15 0 80 15 284
135 364 214 114 113 233 220 280 250 50 34 86 37 164 16 29 -7 111 -19 182
-25 72 -6 211 -18 310 -26 99 -9 223 -20 275 -25 52 -5 131 -12 175 -15 101
-7 393 -29 735 -55 146 -12 351 -27 455 -35 105 -8 242 -19 305 -25 63 -5 187
-15 275 -20 88 -6 176 -14 196 -19 19 -4 71 -9 115 -10 43 -1 97 -4 119 -7 22
-3 54 0 70 6 l30 12 -39 13 c-39 14 -190 32 -336 41 -41 2 -118 9 -170 14 -52
5 -153 14 -225 20 -71 6 -209 17 -305 26 -96 8 -231 19 -300 24 -69 5 -201 16
-295 24 -205 19 -514 45 -610 52 -38 2 -117 9 -175 14 -103 9 -178 15 -310 25
-36 3 -139 12 -230 20 -91 8 -209 17 -262 21 -75 4 -98 9 -98 20 0 25 -17 15
-117 -65z"/>
<path d="M935 861 c-6 -5 -38 -19 -72 -31 -35 -13 -63 -28 -63 -35 0 -15 28
-11 77 11 17 8 35 14 40 14 11 0 43 33 43 43 0 10 -14 9 -25 -2z"/>
<path d="M113 813 c-7 -3 -13 -14 -13 -26 0 -20 1 -20 16 -5 18 18 16 37 -3
31z"/>
<path d="M3738 803 c12 -2 32 -2 45 0 12 2 2 4 -23 4 -25 0 -35 -2 -22 -4z"/>
<path d="M4188 763 c18 -2 45 -2 60 0 15 2 0 4 -33 4 -33 0 -45 -2 -27 -4z"/>
<path d="M4375 745 c24 -8 165 -11 165 -3 0 4 -39 8 -87 7 -49 0 -83 -2 -78
-4z"/>
<path d="M4648 718 c47 -6 78 -5 90 1 12 8 -8 10 -73 9 l-90 -1 73 -9z"/>
<path d="M4811 706 c2 -2 53 -7 113 -10 76 -5 106 -4 101 3 -4 7 -47 11 -112
11 -59 0 -104 -2 -102 -4z"/>
<path d="M5073 683 c15 -2 39 -2 55 0 15 2 2 4 -28 4 -30 0 -43 -2 -27 -4z"/>
<path d="M742 658 c-14 -14 -16 -28 -3 -28 5 0 11 9 14 20 6 23 5 24 -11 8z"/>
<path d="M985 415 l-30 -13 26 -1 c15 -1 32 6 39 14 15 18 5 18 -35 0z"/>
<path d="M5936 384 c-5 -13 -15 -16 -51 -12 -31 4 -45 2 -49 -8 -3 -8 -14 -14
-25 -14 -11 0 -21 -6 -24 -12 -3 -10 -11 -10 -33 -2 -21 7 -47 6 -94 -3 -36
-8 -92 -18 -125 -23 -33 -5 -78 -14 -100 -19 -22 -5 -175 -36 -340 -70 -320
-64 -590 -123 -642 -139 -17 -6 -34 -7 -38 -4 -4 4 -13 -1 -20 -12 -12 -15
-24 -18 -74 -14 -46 3 -62 1 -66 -10 -4 -10 -15 -13 -39 -9 -24 4 -36 1 -40
-8 -4 -10 -19 -12 -59 -8 -35 4 -57 2 -61 -6 -12 -18 343 -15 380 3 27 14 381
104 604 154 216 49 503 101 615 112 122 11 172 18 283 41 58 12 62 15 62 41 0
18 -5 28 -14 28 -8 0 -21 3 -29 6 -8 3 -17 -2 -21 -12z"/>
<path d="M871 359 c-14 -15 -35 -22 -72 -24 -61 -5 -136 -49 -131 -78 2 -12
-4 -17 -21 -17 -14 0 -28 -7 -31 -16 -3 -9 -13 -14 -20 -11 -8 3 -17 -1 -20
-10 -5 -12 -16 -14 -51 -11 -25 3 -45 2 -45 -2 0 -11 -59 -40 -81 -40 -10 0
-21 -5 -24 -11 -4 -6 -13 -8 -20 -5 -20 7 -89 -14 -98 -30 -4 -8 -15 -14 -22
-14 -8 0 -15 -4 -15 -10 0 -5 -9 -10 -20 -10 -14 0 -20 -7 -20 -23 0 -13 -5
-28 -12 -35 -9 -9 -8 -12 5 -12 10 0 22 11 26 23 11 27 34 38 145 67 43 11 94
27 113 35 53 22 68 3 39 -53 -27 -53 -29 -72 -8 -72 23 0 53 33 75 81 9 20 34
52 54 70 21 19 38 41 38 49 0 8 9 15 20 15 14 0 21 8 23 26 3 30 23 39 84 39
49 0 85 17 92 44 4 16 8 18 18 8 6 -6 21 -12 33 -12 19 1 18 2 -4 14 -15 8
-20 16 -12 20 6 4 11 11 11 17 0 16 -29 10 -49 -12z"/>
<path d="M0 157 c0 -26 4 -47 9 -47 10 0 7 77 -3 87 -3 4 -6 -15 -6 -40z"/>
<path d="M3 40 c0 -25 2 -35 4 -22 2 12 2 32 0 45 -2 12 -4 2 -4 -23z"/>
</g>
</svg>
