<?xml version="1.0" ?><!DOCTYPE svg  PUBLIC '-//W3C//DTD SVG 1.1//EN'  'http://www.w3.org/Graphics/SVG/1.1/DTD/svg11.dtd' [
	<!ENTITY stroke_color "#000000">
	<!ENTITY fill_color "#ffffff">
]><svg enable-background="new 0 0 55 55" height="55px" id="Layer_1" inkscape:version="0.48.2 r9819" sodipodi:docname="analyzejournal.svg" version="1.1" viewBox="0 0 55 55" width="55px" x="0px" xml:space="preserve" xmlns="http://www.w3.org/2000/svg" xmlns:cc="http://creativecommons.org/ns#" xmlns:dc="http://purl.org/dc/elements/1.1/" xmlns:inkscape="http://www.inkscape.org/namespaces/inkscape" xmlns:rdf="http://www.w3.org/1999/02/22-rdf-syntax-ns#" xmlns:sodipodi="http://sodipodi.sourceforge.net/DTD/sodipodi-0.dtd" xmlns:svg="http://www.w3.org/2000/svg" xmlns:xlink="http://www.w3.org/1999/xlink" y="0px"><metadata id="metadata18"><rdf:RDF><cc:Work rdf:about=""><dc:format>image/svg+xml</dc:format><dc:type rdf:resource="http://purl.org/dc/dcmitype/StillImage"/></cc:Work></rdf:RDF></metadata><defs id="defs16"><linearGradient id="linearGradient3775" inkscape:collect="always"><stop id="stop3777" offset="0" style="stop-color:#3e3e3e;stop-opacity:1;"/><stop id="stop3779" offset="1" style="stop-color:#3e3e3e;stop-opacity:0;"/></linearGradient><radialGradient cx="26.6255" cy="27.5" fx="26.6255" fy="27.5" gradientTransform="matrix(1,0,0,1.1075912,0,-2.9587571)" gradientUnits="userSpaceOnUse" id="radialGradient3783" inkscape:collect="always" r="20.991501" xlink:href="#linearGradient3775"/></defs><sodipodi:namedview bordercolor="#666666" borderopacity="1" gridtolerance="10" guidetolerance="10" id="namedview14" inkscape:current-layer="Layer_1" inkscape:cx="-15.963983" inkscape:cy="27.5" inkscape:pageopacity="0" inkscape:pageshadow="2" inkscape:window-height="746" inkscape:window-maximized="1" inkscape:window-width="1280" inkscape:window-x="0" inkscape:window-y="26" inkscape:zoom="4.2909091" objecttolerance="10" pagecolor="#ffffff" showgrid="false"/><g display="block" id="activity-journal" style="fill:&fill_color;;fill-opacity:1;stroke:&stroke_color;;stroke-opacity:1;display:block" transform="translate(-0.23305083,-1.3983046)">
	<path d="M 45.866,44.669 C 45.866,47.18 44.338,49 41.534,49 H 12.077 V 6 h 29.458 c 2.15,0 4.332,2.154 4.332,4.33 l -10e-4,34.339 0,0 z" id="path4" inkscape:connector-curvature="0" style="fill:&fill_color;;fill-opacity:1;stroke:&stroke_color;;stroke-width:3.5;stroke-linecap:round;stroke-linejoin:round;stroke-opacity:1"/>
	
		<line id="line6" style="fill:&fill_color;;fill-opacity:1;stroke:&stroke_color;;stroke-width:3.5;stroke-linecap:round;stroke-linejoin:round;stroke-opacity:1" x1="21.341" x2="21.341" y1="6.1209998" y2="48.881001"/>
	<path d="m 7.384,14.464 c 0,0 2.084,0.695 4.17,0.695 2.086,0 4.173,-0.695 4.173,-0.695" id="path8" inkscape:connector-curvature="0" style="fill:&fill_color;;fill-opacity:1;stroke:&stroke_color;;stroke-width:3.5;stroke-linecap:round;stroke-linejoin:round;stroke-opacity:1"/>
	<path d="m 7.384,28.021 c 0,0 1.912,0.695 4.345,0.695 2.433,0 3.999,-0.695 3.999,-0.695" id="path10" inkscape:connector-curvature="0" style="fill:&fill_color;;fill-opacity:1;stroke:&stroke_color;;stroke-width:3.5;stroke-linecap:round;stroke-linejoin:round;stroke-opacity:1"/>
	<path d="m 7.384,41.232 c 0,0 1.736,0.695 4.518,0.695 2.781,0 3.825,-0.695 3.825,-0.695" id="path12" inkscape:connector-curvature="0" style="fill:&fill_color;;fill-opacity:1;stroke:&stroke_color;;stroke-width:3.5;stroke-linecap:round;stroke-linejoin:round;stroke-opacity:1"/>
</g><g id="activity-browse" style="stroke:&stroke_color;;stroke-opacity:1;display:block;fill-rule:nonzero" transform="matrix(0.49068413,0,0,0.46420516,53.794333,31.983196)"><g id="g7" style="stroke:&stroke_color;;stroke-opacity:1;display:inline;fill-rule:nonzero" transform="translate(-128.87712,-22.838983)"><g id="g6167" style="stroke:&stroke_color;;stroke-opacity:1;fill-rule:nonzero" transform="matrix(0.10822504,0,0,0.09945444,61.358446,34.085169)"><g id="g6651" style="stroke:&stroke_color;;stroke-opacity:1;fill-rule:nonzero"><path d="m 7.8813553,48.68644 a 27.584746,27.584746 0 1 1 -55.1694913,0 27.584746,27.584746 0 1 1 55.1694913,0 z" id="path6649" inkscape:connector-curvature="0" style="color:#000000;fill:#999999;fill-opacity:1;stroke:&stroke_color;;stroke-width:1.65464817999999991;stroke-linecap:square;stroke-linejoin:miter;stroke-miterlimit:4;stroke-opacity:1;stroke-dasharray:none;stroke-dashoffset:0;marker:none;visibility:visible;display:inline;overflow:visible;enable-background:accumulate;fill-rule:nonzero" transform="matrix(8.3764085,0,0,9.1150996,519.78133,-368.75859)"/><path d="M -0.94352875,28.463043 A 27.584745,27.584745 0 1 1 -47.288136,48.686438 l 27.584746,2e-6 z" id="path6617" inkscape:connector-curvature="0" style="color:#000000;fill:#808080;fill-opacity:1;stroke:&stroke_color;;stroke-width:1.65464817999999991;stroke-linecap:square;stroke-linejoin:miter;stroke-miterlimit:4;stroke-opacity:1;stroke-dasharray:none;stroke-dashoffset:0;marker:none;visibility:visible;display:inline;overflow:visible;enable-background:accumulate;fill-rule:nonzero" transform="matrix(8.3764085,0,0,9.1150996,519.78133,-368.75859)"/><path d="M 7.8771928,48.20725 A 27.584745,27.584745 0 0 1 -25.496945,75.655921 L -19.70339,48.68644 z" id="path6619" inkscape:connector-curvature="0" style="color:#000000;fill:#666666;fill-opacity:1;stroke:&stroke_color;;stroke-width:1.65464817999999991;stroke-linecap:square;stroke-linejoin:miter;stroke-miterlimit:4;stroke-opacity:1;stroke-dasharray:none;stroke-dashoffset:0;marker:none;visibility:visible;display:inline;overflow:visible;enable-background:accumulate;fill-rule:nonzero" transform="matrix(8.3764085,0,0,9.1150996,519.78133,-368.75859)"/></g><path d="m 7.8813553,48.68644 a 27.584746,27.584746 0 1 1 -55.1694913,0 27.584746,27.584746 0 1 1 55.1694913,0 z" id="path6107" inkscape:connector-curvature="0" style="color:#000000;fill:none;stroke:&stroke_color;;stroke-width:3.86084579999999988;stroke-linecap:square;stroke-linejoin:miter;stroke-miterlimit:4;stroke-opacity:1;stroke-dasharray:none;stroke-dashoffset:0;marker:none;visibility:visible;display:inline;overflow:visible;enable-background:accumulate;fill-rule:nonzero" transform="matrix(8.3764085,0,0,9.1150996,519.78184,-368.75804)"/></g></g></g></svg>