<?xml version="1.0" ?><!DOCTYPE svg  PUBLIC '-//W3C//DTD SVG 1.1//EN'  'http://www.w3.org/Graphics/SVG/1.1/DTD/svg11.dtd' [
	<!ENTITY stroke_color "#666666">
	<!ENTITY fill_color "#ffffff">
]><svg height="55px" id="svg2985" inkscape:version="0.48.0 r9654" sodipodi:docname="activity-helloworld.sugar.svg" version="1.1" width="55px" xmlns="http://www.w3.org/2000/svg" xmlns:cc="http://creativecommons.org/ns#" xmlns:dc="http://purl.org/dc/elements/1.1/" xmlns:inkscape="http://www.inkscape.org/namespaces/inkscape" xmlns:rdf="http://www.w3.org/1999/02/22-rdf-syntax-ns#" xmlns:sodipodi="http://sodipodi.sourceforge.net/DTD/sodipodi-0.dtd" xmlns:svg="http://www.w3.org/2000/svg">
  <sodipodi:namedview bordercolor="#666666" borderopacity="1.0" id="base" inkscape:current-layer="layer1" inkscape:cx="-2.7298136" inkscape:cy="30.83706" inkscape:document-units="px" inkscape:grid-bbox="true" inkscape:guide-bbox="true" inkscape:pageopacity="0.0" inkscape:pageshadow="2" inkscape:window-height="751" inkscape:window-maximized="1" inkscape:window-width="1280" inkscape:window-x="0" inkscape:window-y="24" inkscape:zoom="13.782154" pagecolor="#ffffff" showgrid="true" showguides="true"/>
  <defs id="defs2987"/>
  <metadata id="metadata2990">
    <rdf:RDF>
      <cc:Work rdf:about="">
        <dc:format>image/svg+xml</dc:format>
        <dc:type rdf:resource="http://purl.org/dc/dcmitype/StillImage"/>
        <dc:title/>
      </cc:Work>
    </rdf:RDF>
  </metadata>
  <g id="layer1" inkscape:groupmode="layer" inkscape:label="Layer 1" transform="translate(0,-9)">
    <g id="g3972" style="stroke-width:2.5;stroke-miterlimit:4;stroke-dasharray:none">
      <g id="g4093" style="stroke-width:2.92263829;stroke-miterlimit:4;stroke-dasharray:none;stroke:&stroke_color;;stroke-opacity:1;stroke-linejoin:round;stroke-linecap:butt;fill:none;fill-opacity:0" transform="matrix(0.85420911,0,0,0.85657556,0.43095806,6.7455913)">
        <g id="g4028" style="stroke-width:9.83971021;stroke-miterlimit:4;stroke-dasharray:none;stroke:&stroke_color;;stroke-opacity:1;stroke-linejoin:round;stroke-linecap:butt;fill:none;fill-opacity:0" transform="matrix(0.28377019,0,0,0.31089859,-30.558803,-8.90412)">
          <path d="m 190.51472,104.29289 c 0,0 4.5,2 6.5,-1.5 2,-3.499997 0.5,-5.999997 0.5,-5.999997 0,0 -7,0 -7.5,-2.5 -0.5,-2.5 -3,-10.5 -3,-10.5 l 7,-4.5 c 0,0 -5.5,-5.5 -11,-7 -5.5,-1.5 -18,-3 -22,0 -4,3 -12.5,9.5 -12.5,9.5" id="path3078" inkscape:connector-curvature="0" style="fill:none;stroke:&stroke_color;;stroke-width:9.83971021;stroke-linecap:butt;stroke-linejoin:round;stroke-opacity:1;stroke-miterlimit:4;stroke-dasharray:none;fill-opacity:0"/>
          <path d="m 160.51472,74.292893 c 0,0 -12.75,1.625 -18.25,6.625 -5.5,5 -3.375,23.374997 -3.375,23.374997 0,0 11.625,0.5 12.625,6.5 1,6 -4.5,9 -4.5,9 0,0 -11.07004,0.37668 -18.20711,2.88909 -8.2071,2.88908 -13.58578,9.39949 -16.58578,12.89949 -3,3.5 -0.20711,75.71142 -0.20711,75.71142 l 53,-2 -11,-14.5 c 0,0 -4.5,1 -9.5,2.5 -5,1.5 -4.49519,1.10626 -4.49519,1.10626 0,0 7.3321,-6.14339 9.49519,-8.60626 9.27804,-10.56385 15.5,-18 16,-22.5 0.5,-4.5 0.5,-12 0.5,-12 l 6,-5.5 -6.5,-16 c 0,0 6,-6 10.5,-3 4.5,3 8,7.5 9,4 1,-3.5 0,-7 2,-9 2,-2 -1,-6.5 -1,-6.5 l 5.5,2.5 0.5,-17" id="path3080" inkscape:connector-curvature="0" sodipodi:nodetypes="cscscsscccscsscccsssccc" style="fill:none;stroke:&stroke_color;;stroke-width:9.83971021;stroke-linecap:butt;stroke-linejoin:round;stroke-opacity:1;stroke-miterlimit:4;stroke-dasharray:none;fill-opacity:0"/>
          <path d="m 155.77837,182.6389 c 0,0 5.58406,-1.75 6.33406,0 0.75,1.75 1.125,-0.13405 2.625,-0.50905 1.5,-0.375 2.68442,-0.31703 3.58538,1.71014" id="path3082" inkscape:connector-curvature="0" sodipodi:nodetypes="cssc" style="fill:none;stroke:&stroke_color;;stroke-width:9.83971021;stroke-linecap:butt;stroke-linejoin:round;stroke-opacity:1;stroke-miterlimit:4;stroke-dasharray:none;fill-opacity:0"/>
          <path d="m 155.19914,196.41608 c 0,0 10.56558,-10.12319 12.81558,-11.87319 2.25,-1.75 4.125,-3.25 5,-1.75 0.875,1.5 -0.75,3.375 0.75,3 1.5,-0.375 3.5,-1.75 3.875,0.25 0.375,2 -0.69058,4.51087 0.30942,3.13587 1,-1.375 1.69058,-2.88587 3.81558,-1.63587 2.125,1.25 1.125,2.625 2.25,3 1.125,0.375 6.25,2.125 8.75,2.875 2.5,0.75 4.375,4.125 0.875,3.75 -3.5,-0.375 -12.5,-4.25 -14.375,-2 -1.875,2.25 -8.375,6.75 -8.375,6.75" id="path3084" inkscape:connector-curvature="0" sodipodi:nodetypes="cssssssssssc" style="fill:none;stroke:&stroke_color;;stroke-width:9.83971021;stroke-linecap:butt;stroke-linejoin:round;stroke-opacity:1;stroke-miterlimit:4;stroke-dasharray:none;fill-opacity:0"/>
          <path d="m 150.88972,115.91789 14.75,18.25" id="path3088" inkscape:connector-curvature="0" style="fill:none;stroke:&stroke_color;;stroke-width:9.83971021;stroke-linecap:butt;stroke-linejoin:round;stroke-opacity:1;stroke-miterlimit:4;stroke-dasharray:none;fill-opacity:0"/>
          <path d="m 146.63972,120.04289 18.75,35.625" id="path3090" inkscape:connector-curvature="0" style="fill:none;stroke:&stroke_color;;stroke-width:9.83971021;stroke-linecap:butt;stroke-linejoin:round;stroke-opacity:1;stroke-miterlimit:4;stroke-dasharray:none;fill-opacity:0"/>
          <path d="m 186.76472,83.292893 -10.125,3.375 -2.625,11 c 0,0 -4.02502,-2.21702 -3.92295,4.480697 0.35207,7.19771 4.17295,6.3943 4.17295,6.3943" id="path3092" inkscape:connector-curvature="0" sodipodi:nodetypes="ccccc" style="fill:none;stroke:&stroke_color;;stroke-width:9.83971021;stroke-linecap:butt;stroke-linejoin:round;stroke-opacity:1;stroke-miterlimit:4;stroke-dasharray:none;fill-opacity:0"/>
          <path d="m 171.63972,108.16789 c 0,0 -0.625,8.375 -3.125,11.25 -2.5,2.875 -5,5.125 -5,5.125 l 0.25,-4.125 c 0,0 -3.34837,3.36504 -5.22337,4.61504" id="path3094" inkscape:connector-curvature="0" sodipodi:nodetypes="csccc" style="fill:none;stroke:&stroke_color;;stroke-width:9.83971021;stroke-linecap:butt;stroke-linejoin:round;stroke-opacity:1;stroke-miterlimit:4;stroke-dasharray:none;fill-opacity:0"/>
          <path d="m 171.25,204.5 -3,-1.25" id="path3970" inkscape:connector-curvature="0" sodipodi:nodetypes="cc" style="fill:none;stroke:&stroke_color;;stroke-width:9.83971021;stroke-linecap:butt;stroke-linejoin:round;stroke-opacity:1;stroke-miterlimit:4;stroke-dasharray:none;fill-opacity:0"/>
        </g>
        <g id="g4017" style="stroke-width:9.83971021;stroke-miterlimit:4;stroke-dasharray:none;stroke:&stroke_color;;stroke-opacity:1;stroke-linejoin:round;stroke-linecap:butt;fill:none;fill-opacity:0" transform="matrix(0.28377019,0,0,0.31089859,-30.558803,-8.90412)">
          <path d="m 253.29157,164.99657 64.72315,1.29632" id="path3064" inkscape:connector-curvature="0" sodipodi:nodetypes="cc" style="fill:none;stroke:&stroke_color;;stroke-width:9.83971021;stroke-linecap:butt;stroke-linejoin:round;stroke-opacity:1;stroke-miterlimit:4;stroke-dasharray:none;fill-opacity:0"/>
          <g id="g3997" style="stroke-width:9.83971021;stroke-miterlimit:4;stroke-dasharray:none;stroke:&stroke_color;;stroke-opacity:1;stroke-linejoin:round;stroke-linecap:butt;fill:none;fill-opacity:0">
            <path d="m 241.928,206.03051 0.0867,-14.23762 c 0,0 -2.5,-4 -7,-5 -4.5,-1 -66,22.5 -66,22.5 l 68,-0.5 5,-3 11,0.5 27,-4 c 0,0 0,-0.5 10.5,-1.5 10.5,-1 33.5,0 35,-2 1.5,-2 5.5,-26.5 5,-30 -0.5,-3.5 -13,-2.5 -13,-2.5 l 2.57923,-72.327896 c 0,0 0.55193,-1.920288 -3.57923,-3.960144 -4.22301,-2.085211 -65.82538,-11.517413 -65.82538,-11.517413 0,0 -40.17462,5.805456 -42.17462,8.305456 -2,2.5 -4.5,40.999997 -5.5,48.499997 -1,7.5 -2,29 -2,29 0,0 52,-3 53,1.5 1,4.5 -1.5,40 -1.5,40" id="path3058" inkscape:connector-curvature="0" sodipodi:nodetypes="ccscccccsssccscsscsc" style="fill:none;stroke:&stroke_color;;stroke-width:9.83971021;stroke-linecap:butt;stroke-linejoin:round;stroke-opacity:1;stroke-miterlimit:4;stroke-dasharray:none;fill-opacity:0"/>
            <path d="m 250.62019,78.51213 -4.94862,84.84142" id="path3066" inkscape:connector-curvature="0" sodipodi:nodetypes="cc" style="fill:none;stroke:&stroke_color;;stroke-width:9.83971021;stroke-linecap:butt;stroke-linejoin:round;stroke-opacity:1;stroke-miterlimit:4;stroke-dasharray:none;fill-opacity:0"/>
            <path d="m 212.01472,96.792893 30.59619,-8.707107 -2.64644,68.353554 -33.44975,0.35355 z" id="path3068" inkscape:connector-curvature="0" sodipodi:nodetypes="ccccc" style="fill:none;stroke:&stroke_color;;stroke-width:9.83971021;stroke-linecap:butt;stroke-linejoin:round;stroke-opacity:1;stroke-miterlimit:4;stroke-dasharray:none;fill-opacity:0"/>
            <path d="m 242.24918,91.106862 -27.23446,7.686031 -6,57.999997" id="path3070" inkscape:connector-curvature="0" sodipodi:nodetypes="ccc" style="fill:none;stroke:&stroke_color;;stroke-width:9.83971021;stroke-linecap:butt;stroke-linejoin:round;stroke-opacity:1;stroke-miterlimit:4;stroke-dasharray:none;fill-opacity:0"/>
            <path d="m 201.06798,164.26481 c 0,0 -7.12666,1.30695 -10.42826,0.65308 -0.25082,-0.0497 -2.5,21.625 -2.5,21.625" id="path3072" inkscape:connector-curvature="0" sodipodi:nodetypes="csc" style="fill:none;stroke:&stroke_color;;stroke-width:9.83971021;stroke-linecap:butt;stroke-linejoin:round;stroke-opacity:1;stroke-miterlimit:4;stroke-dasharray:none;fill-opacity:0"/>
            <path d="m 181.01472,186.79289 50.05193,0.40399" id="path3074" inkscape:connector-curvature="0" sodipodi:nodetypes="cc" style="fill:none;stroke:&stroke_color;;stroke-width:9.83971021;stroke-linecap:butt;stroke-linejoin:round;stroke-opacity:1;stroke-miterlimit:4;stroke-dasharray:none;fill-opacity:0"/>
            <path d="m 185.5966,190.7168 20.91812,1.57609 -41,14.5" id="path3076" inkscape:connector-curvature="0" sodipodi:nodetypes="ccc" style="fill:none;stroke:&stroke_color;;stroke-width:9.83971021;stroke-linecap:butt;stroke-linejoin:round;stroke-opacity:1;stroke-miterlimit:4;stroke-dasharray:none;fill-opacity:0"/>
          </g>
        </g>
        <path d="m 15.354695,55.051818 2.615382,-1.17995" id="path3086" inkscape:connector-curvature="0" sodipodi:nodetypes="cc" style="fill:none;stroke:&stroke_color;;stroke-width:2.92263829;stroke-linecap:butt;stroke-linejoin:round;stroke-opacity:1;stroke-miterlimit:4;stroke-dasharray:none;fill-opacity:0"/>
        <g id="g3917" style="stroke-width:9.83971021;stroke-miterlimit:4;stroke-dasharray:none;stroke:&stroke_color;;stroke-opacity:1;stroke-linejoin:round;stroke-linecap:butt;fill:none;fill-opacity:0" transform="matrix(0.28377019,0,0,0.31089859,-30.558803,-8.90412)">
          <path d="m 66.724874,99.75 c 0,3.40237 -2.171363,6.16053 -4.849874,6.16053 -2.678511,0 -4.849874,-2.75816 -4.849874,-6.16053 0,-3.402369 2.171363,-6.160534 4.849874,-6.160534 2.678511,0 4.849874,2.758165 4.849874,6.160534 z" id="path3100" sodipodi:cx="61.875" sodipodi:cy="99.75" sodipodi:rx="4.8498735" sodipodi:ry="6.1605339" sodipodi:type="arc" style="fill:none;fill-opacity:0;stroke:&stroke_color;;stroke-width:11.65254561;stroke-linecap:butt;stroke-linejoin:round;stroke-miterlimit:4;stroke-opacity:1;stroke-dasharray:none;stroke-dashoffset:0" transform="matrix(0.71305494,0,0,1,182.68845,18.772078)"/>
          <path d="m 221.59683,122.7255 c 9.375,17.5 9.125,17.25 9.125,17.25" id="path3870" inkscape:connector-curvature="0" style="fill:none;stroke:&stroke_color;;stroke-width:9.83971021;stroke-linecap:butt;stroke-linejoin:round;stroke-opacity:1;stroke-miterlimit:4;stroke-dasharray:none;fill-opacity:0"/>
          <path d="m 232.57538,122.80761 -11.875,16.125" id="path3872" inkscape:connector-curvature="0" style="fill:none;stroke:&stroke_color;;stroke-width:9.83971021;stroke-linecap:butt;stroke-linejoin:round;stroke-opacity:1;stroke-miterlimit:4;stroke-dasharray:none;fill-opacity:0"/>
        </g>
        <path d="m 16.476106,55.218715 1.064138,0.854972" id="path3968" inkscape:connector-curvature="0" style="fill:none;stroke:&stroke_color;;stroke-width:2.92263829;stroke-linecap:butt;stroke-linejoin:round;stroke-opacity:1;stroke-miterlimit:4;stroke-dasharray:none;fill-opacity:0"/>
      </g>
      <path d="m 12.083999,21.902094 -0.657704,-0.897099 -0.0093,-0.889177 c -0.0085,-0.815301 -0.03485,-0.925347 -0.317109,-1.324523 -0.36642,-0.518196 -1.2195165,-0.986079 -2.1046219,-1.154287 L 8.39544,17.523011 8.3222373,16.647233 c -0.128715,-1.539914 0.1917012,-3.823621 0.6304179,-4.493187 0.1618956,-0.247084 1.3211698,-1.051434 1.5153848,-1.051434 0.05825,0 -0.01493,0.126982 -0.162609,0.282183 l -0.26851,0.282183 0.254237,0.293629 c 0.226103,0.261138 0.273563,0.277359 0.428883,0.146586 1.56021,-1.313621 2.067709,-1.701236 2.303844,-1.759619 0.171433,-0.04238 0.282682,-0.139478 0.283454,-0.247384 6.98e-4,-0.09769 0.173856,-0.2930539 0.384794,-0.4341453 0.367368,-0.2457231 0.448365,-0.2563656 1.922704,-0.2526304 2.313862,0.00586 3.429061,0.3414185 4.709251,1.4169827 l 0.39955,0.335686 -0.515909,0.378712 c -0.283751,0.208292 -0.578986,0.378824 -0.65608,0.37896 -0.275625,4.82e-4 -2.603518,0.920399 -2.715027,1.072896 -0.06255,0.08555 -0.222405,0.690478 -0.355221,1.344286 -0.234677,1.155228 -0.250794,1.19263 -0.571696,1.326712 -0.181616,0.07588 -0.408384,0.257277 -0.503929,0.403097 -0.253586,0.387022 -0.301366,1.429183 -0.09683,2.11209 0.273339,0.912636 0.119007,2.342527 -0.352615,3.266981 -0.286182,0.560963 -0.473152,0.695308 -0.679915,0.488545 -0.24166,-0.24166 -0.314515,-0.213706 -0.909443,0.348951 -0.298367,0.282183 -0.561111,0.512794 -0.583876,0.51247 -0.02276,-3.08e-4 -0.337358,-0.404284 -0.699095,-0.897689 l 0,0 z" id="path3010" inkscape:connector-curvature="0" style="fill:&fill_color;;fill-opacity:1;stroke:none;stroke-width:2.5;stroke-miterlimit:4;stroke-dasharray:none" transform="translate(0,9)"/>
      <path d="M 18.180135,25.396365 C 17.35346,24.6487 16.811402,24.338939 16.338684,24.344056 c -0.530328,0.0057 -1.056227,0.194209 -1.512039,0.541874 l -0.359231,0.274 -0.595802,-0.827496 c -0.5533,-0.768466 -0.583743,-0.839555 -0.426755,-0.996543 0.156988,-0.156988 0.169047,-0.156756 0.169047,0.0032 0,0.09476 0.09898,0.225266 0.219946,0.290007 0.198668,0.106325 0.289509,0.04463 0.939009,-0.637714 0.837218,-0.879556 1.123979,-1.442181 1.365647,-2.679399 0.116469,-0.596266 0.221694,-0.897855 0.313262,-0.897855 0.09245,0 0.137882,-0.135228 0.137882,-0.410448 0,-0.282199 -0.04461,-0.410447 -0.142776,-0.410447 -0.31933,0 -0.587286,-1.256013 -0.409453,-1.919262 0.04892,-0.182434 0.114238,-0.215445 0.337836,-0.170725 0.172618,0.03452 0.322652,6.67e-4 0.397686,-0.08974 0.06627,-0.07985 0.238477,-0.695655 0.382681,-1.368454 0.144205,-0.672799 0.284771,-1.297829 0.312369,-1.388955 0.04773,-0.157592 1.773419,-0.859482 1.871646,-0.761255 0.02446,0.02446 0.199196,0.630941 0.3883,1.347733 0.21187,0.803091 0.425273,1.389956 0.556052,1.529164 0.237639,0.252955 0.83396,0.461423 1.319897,0.461423 0.290071,0 0.321583,0.03067 0.321583,0.312931 0,0.38597 -0.244223,0.877148 -0.505721,1.017097 -0.107669,0.05762 -0.332468,0.07743 -0.499553,0.04401 -0.192842,-0.03857 -0.333164,-0.01323 -0.384218,0.06937 -0.04423,0.07157 -0.09997,1.034363 -0.123849,2.139535 -0.02388,1.105171 -0.05542,2.021507 -0.07008,2.0363 -0.01466,0.01479 -0.244327,-0.06939 -0.510368,-0.187071 -0.396189,-0.175253 -0.51204,-0.19046 -0.640267,-0.08404 -0.174526,0.144844 -0.148129,0.407907 0.110375,1.099982 0.159125,0.426015 0.157147,0.46019 -0.04564,0.788312 -0.140167,0.226795 -0.249208,0.666892 -0.321869,1.299084 -0.06044,0.52585 -0.139406,0.986595 -0.175485,1.023878 -0.03608,0.03728 -0.296475,-0.141024 -0.578658,-0.396236 z" id="path3014" inkscape:connector-curvature="0" style="fill:&fill_color;;fill-opacity:1;stroke:none;stroke-width:2.5;stroke-miterlimit:4;stroke-dasharray:none" transform="translate(0,9)"/>
      <path d="M 1.8696135,45.863115 C 1.7969503,45.632469 1.6052637,35.662222 1.6106695,32.39459 c 0.00612,-3.700187 0.1168264,-5.702467 0.3335424,-6.032658 0.3023126,-0.460608 1.46483,-1.678407 2.068616,-2.166985 1.2006687,-0.971572 3.04474,-1.59053 4.8662769,-1.633355 l 0.7549396,-0.01775 1.5243366,3.18097 c 0.838385,1.749534 1.855908,3.868001 2.261164,4.707705 l 0.736827,1.526734 -0.05635,1.423379 c -0.0521,1.316161 -0.08033,1.474636 -0.374789,2.103872 -0.652737,1.394867 -3.032395,4.516783 -4.6967544,6.161755 -0.6384654,0.631028 -1.1608462,1.210529 -1.1608462,1.287779 0,0.207161 0.2158609,0.386724 0.4648961,0.386724 0.120245,0 0.8382721,-0.185841 1.5956157,-0.412981 0.7573438,-0.22714 1.4338468,-0.400297 1.5033398,-0.384795 0.130523,0.02912 2.106998,2.857026 2.04215,2.921874 -0.02004,0.02004 -2.178458,0.124879 -4.7964946,0.232985 -2.6180367,0.108106 -5.2116035,0.222587 -5.7634818,0.2544 -0.7569429,0.04364 -1.0133956,0.02616 -1.0440471,-0.07113 l 0,0 z" id="path3016" inkscape:connector-curvature="0" style="fill:&fill_color;;fill-opacity:1;stroke:none;stroke-width:2.5;stroke-miterlimit:4;stroke-dasharray:none" transform="translate(0,9)"/>
      <path d="m 14.202225,30.177365 c -0.195183,-0.417187 -1.125063,-2.364805 -2.0664,-4.32804 l -1.711521,-3.569518 0.222156,-0.311988 c 0.122185,-0.171594 0.255993,-0.2738 0.29735,-0.227124 0.04136,0.04668 0.776107,1.040136 1.632778,2.207689 l 1.557583,2.122824 0.713033,1.930348 0.713033,1.930347 -0.501567,0.501992 -0.501566,0.501992 -0.354879,-0.758522 0,0 z" id="path3018" inkscape:connector-curvature="0" style="fill:&fill_color;;fill-opacity:1;stroke:none;stroke-width:2.5;stroke-miterlimit:4;stroke-dasharray:none" transform="translate(0,9)"/>
      <path d="m 24.76404,41.391619 c 0.100273,-0.383444 -0.204929,-0.453266 -2.942481,-0.673157 -2.066545,-0.165993 -2.675536,-0.246702 -2.719152,-0.360365 -0.04807,-0.125258 0.245106,-0.136703 2.024754,-0.07904 1.144528,0.03708 3.166081,0.06907 4.49234,0.07109 l 2.411381,0.0037 -1.635518,0.612274 c -0.899535,0.336751 -1.645562,0.612274 -1.657837,0.612274 -0.01228,0 -3.49e-4,-0.08403 0.02651,-0.186739 z" id="path3020" inkscape:connector-curvature="0" style="fill:&fill_color;;fill-opacity:1;stroke:none;stroke-width:2.5;stroke-miterlimit:4;stroke-dasharray:none" transform="translate(0,9)"/>
      <path d="m 13.125172,43.398668 -0.64265,-0.94312 1.616261,-1.618632 c 0.888943,-0.890248 1.645661,-1.618632 1.681596,-1.618632 0.03593,0 0.09254,0.136015 0.125786,0.302255 0.07886,0.394303 0.395805,0.567461 0.788255,0.430652 l 0.295447,-0.102994 0.03077,0.531592 c 0.02766,0.47796 0.05649,0.535218 0.285717,0.567536 0.186476,0.02629 0.327973,-0.05153 0.526848,-0.289749 l 0.271901,-0.325693 0.294047,0.435694 c 0.269478,0.399292 0.39264,0.472306 1.474083,0.873888 1.250369,0.464311 1.353348,0.586655 0.206249,0.245034 -1.56948,-0.467411 -2.187279,-0.475157 -2.593926,-0.03252 -0.645778,0.702927 -2.036988,1.735514 -2.830095,2.100559 -0.471221,0.21689 -0.863712,0.392749 -0.872202,0.390798 -0.0085,-0.002 -0.304628,-0.427951 -0.658086,-0.946666 l 0,0 z" id="path3022" inkscape:connector-curvature="0" style="fill:&fill_color;;fill-opacity:1;stroke:none;stroke-width:2.5;stroke-miterlimit:4;stroke-dasharray:none" transform="translate(0,9)"/>
      <path d="m 10.337042,41.515857 c 0.314097,-0.332462 0.83949,-0.950792 1.167539,-1.374066 0.32805,-0.423274 0.688001,-0.850396 0.799891,-0.94916 0.251604,-0.222089 0.928137,-0.237806 1.104208,-0.02565 0.165534,0.199455 0.509701,0.196158 0.800707,-0.0077 0.625207,-0.437912 0.285796,0.03505 -0.897915,1.25124 -1.053783,1.082692 -1.343479,1.327581 -1.480066,1.251143 -0.151462,-0.08476 -1.070523,0.105885 -1.8602258,0.38588 -0.1208902,0.04286 0.029455,-0.175637 0.3658618,-0.531714 z" id="path3024" inkscape:connector-curvature="0" style="fill:&fill_color;;fill-opacity:1;stroke:none;stroke-width:2.5;stroke-miterlimit:4;stroke-dasharray:none" transform="translate(0,9)"/>
      <path d="m 17.444717,45.409907 c 0.0094,-0.009 1.574126,-0.644748 3.477115,-1.412731 4.090274,-1.650697 6.665932,-2.624463 8.682825,-3.282674 1.700542,-0.554969 1.847533,-0.545597 2.563689,0.163472 l 0.428767,0.424523 -2.05e-4,1.702763 -2.05e-4,1.702762 -0.486896,0.307836 c -0.476838,0.301476 -0.517641,0.308351 -1.975096,0.33276 -1.860344,0.03116 -12.713321,0.08357 -12.690037,0.06129 l 4.3e-5,0 z" id="path3026" inkscape:connector-curvature="0" style="fill:&fill_color;;fill-opacity:1;stroke:none;stroke-width:2.5;stroke-miterlimit:4;stroke-dasharray:none" transform="translate(0,9)"/>
      <path d="m 35.983307,44.315534 c 0,-0.131214 0.06951,-1.504931 0.154458,-3.052705 0.08495,-1.547774 0.165759,-3.702846 0.179571,-4.789049 l 0.02511,-1.974915 0.359142,-0.0031 c 0.197528,-0.0017 3.983908,0.07127 8.414179,0.162165 5.358458,0.109945 8.192443,0.20533 8.465485,0.284926 0.361077,0.10526 0.414392,0.160796 0.443241,0.461701 0.06177,0.644274 -0.672688,5.750914 -1.004167,6.981933 -0.08434,0.313213 -0.16843,0.412886 -0.389008,0.461096 -0.154775,0.03383 -1.759021,0.108198 -3.564991,0.165266 -3.619706,0.114383 -5.353396,0.24178 -6.511694,0.478503 -0.901024,0.184143 -6.213158,1.062758 -6.42547,1.062758 -0.08425,0 -0.145859,-0.100775 -0.145859,-0.238571 z" id="path3028" inkscape:connector-curvature="0" style="fill:&fill_color;;fill-opacity:1;stroke:none;stroke-width:2.5;stroke-miterlimit:4;stroke-dasharray:none" transform="translate(0,9)"/>
      <path d="m 34.059333,44.580743 -0.641324,-0.03643 0,-1.724111 0,-1.724111 -0.289995,-0.400191 c -0.511766,-0.706231 -1.645053,-1.378694 -2.057046,-1.220598 -0.176312,0.06766 -10.597663,0.06942 -10.665278,0.0018 -0.04595,-0.04595 0.360164,-4.178767 0.459943,-4.68057 0.05239,-0.263494 0.06779,-0.267536 1.659439,-0.435608 2.465908,-0.260391 8.217615,-0.418765 10.379877,-0.285812 2.040843,0.125488 2.52145,0.225822 2.623617,0.547721 0.08443,0.266023 -0.01454,3.475591 -0.217662,7.05813 -0.08159,1.439133 -0.148383,2.697412 -0.148422,2.796176 -4.9e-5,0.123654 -0.07196,0.173414 -0.230947,0.159799 -0.126982,-0.01087 -0.519473,-0.03616 -0.872202,-0.0562 z" id="path3030" inkscape:connector-curvature="0" style="fill:&fill_color;;fill-opacity:1;stroke:none;stroke-width:2.5;stroke-miterlimit:4;stroke-dasharray:none" transform="translate(0,9)"/>
      <path d="m 42.755695,33.822969 c -6.569038,-0.155847 -6.931874,-0.172297 -7.772854,-0.352426 l -0.641325,-0.137363 0.0026,-0.571908 c 0.0043,-0.959466 1.104576,-21.15821 1.155308,-21.208942 0.08961,-0.08961 11.14815,1.906066 13.752681,2.481873 1.203216,0.266006 1.885613,0.525346 2.115762,0.80408 0.127326,0.154204 0.109746,1.383348 -0.133428,9.32871 -0.154042,5.033107 -0.302933,9.301174 -0.330869,9.484593 l -0.05079,0.333489 -1.252346,-0.01472 c -0.688791,-0.0081 -3.768905,-0.07442 -6.844698,-0.147391 z" id="path3032" inkscape:connector-curvature="0" style="fill:&fill_color;;fill-opacity:1;stroke:none;stroke-width:2.5;stroke-miterlimit:4;stroke-dasharray:none" transform="translate(0,9)"/>
      <path d="m 25.460394,31.086287 c 0.03048,-0.183419 0.333858,-3.381063 0.674176,-7.105877 0.340318,-3.724813 0.652355,-6.884976 0.693414,-7.022583 0.06754,-0.226349 0.348476,-0.335014 2.947544,-1.140097 1.58009,-0.489446 2.882321,-0.883053 2.893847,-0.874682 0.01683,0.01222 -0.559076,16.360581 -0.579525,16.451075 -0.0032,0.01411 -1.508589,0.02565 -3.345334,0.02565 l -3.339538,0 0.05542,-0.333489 0,0 z m 5.167777,-3.82458 c 0.01759,-0.01512 -0.20314,-0.496042 -0.490521,-1.068716 l -0.522511,-1.041225 0.737676,-1.073908 c 0.405721,-0.59065 0.718806,-1.088849 0.695744,-1.10711 -0.02306,-0.01826 -0.155143,-0.109571 -0.293514,-0.202911 -0.233898,-0.157781 -0.252087,-0.232927 -0.258757,-1.069053 -0.0061,-0.759072 -0.04667,-0.968932 -0.260372,-1.345504 -0.616496,-1.086323 -1.632296,-0.871103 -2.051009,0.434552 -0.07746,0.241531 -0.108781,0.696838 -0.07942,1.154384 0.02667,0.41555 0.01807,0.755545 -0.0191,0.755545 -0.03717,0 -0.150451,0.06059 -0.251726,0.134645 -0.172725,0.126299 -0.151577,0.199528 0.341196,1.181494 l 0.525334,1.04685 -0.625797,0.930694 c -0.344188,0.511881 -0.610447,0.942116 -0.591685,0.956076 0.242976,0.180796 0.557757,0.367779 0.619147,0.367779 0.04269,0 0.28291,-0.306018 0.533822,-0.68004 l 0.456203,-0.680039 0.42012,0.835579 0.42012,0.835578 0.331529,-0.16859 c 0.18234,-0.09272 0.345924,-0.18096 0.363519,-0.19608 l 0,0 z" id="path3034" inkscape:connector-curvature="0" style="fill:&fill_color;;fill-opacity:1;stroke:none;stroke-width:2.5;stroke-miterlimit:4;stroke-dasharray:none" transform="translate(0,9)"/>
      <path d="m 23.501321,32.69016 c 0.03322,-0.444747 0.08717,-1.362735 0.119886,-2.039973 0.128976,-2.669826 1.161248,-14.669273 1.390309,-16.161381 0.16853,-1.097806 0.114968,-1.042449 1.326269,-1.37075 1.366053,-0.370244 8.179957,-1.668199 8.27238,-1.575774 0.02214,0.02214 -0.213782,4.792235 -0.524282,10.600202 -0.310498,5.807968 -0.564705,10.679822 -0.564903,10.826341 l -4.11e-4,0.266402 -4.694496,0.06899 c -2.581973,0.03795 -4.849906,0.09725 -5.03985,0.131782 l -0.345354,0.06279 0.0604,-0.808631 5.1e-5,0 z m 8.363681,-0.516297 c 0.844119,-0.05992 0.946272,-0.08902 0.990312,-0.282183 0.04316,-0.18929 0.66551,-17.159647 0.665363,-18.1432 -1.03e-4,-0.720883 -0.02114,-0.717954 -4.171683,0.580949 -2.071728,0.648342 -3.824945,1.238029 -3.89604,1.310415 -0.192201,0.195694 -1.522019,16.266909 -1.361967,16.45976 0.09496,0.114423 0.751295,0.141068 3.474942,0.141068 1.846826,0 3.781409,-0.03007 4.299073,-0.06681 z" id="path3036" inkscape:connector-curvature="0" style="fill:&fill_color;;fill-opacity:1;stroke:none;stroke-width:2.5;stroke-miterlimit:4;stroke-dasharray:none" transform="translate(0,9)"/>
      <path d="m 29.057584,22.530578 c -0.218224,-0.459873 -0.178278,-1.516001 0.07079,-1.871595 l 0.167253,-0.238788 0.180864,0.276034 c 0.268683,0.410061 0.31407,1.307324 0.09114,1.801699 -0.10046,0.222781 -0.216556,0.405057 -0.257991,0.405057 -0.04143,0 -0.15486,-0.167583 -0.252055,-0.372407 z" id="path3038" inkscape:connector-curvature="0" style="fill:&fill_color;;fill-opacity:1;stroke:none;stroke-width:2.5;stroke-miterlimit:4;stroke-dasharray:none" transform="translate(0,9)"/>
      <path d="m 29.116452,24.046935 c -0.156578,-0.292569 -0.142822,-0.323054 0.145773,-0.323054 0.289982,0 0.312459,0.07151 0.107494,0.341962 -0.137283,0.181147 -0.146572,0.180453 -0.253267,-0.01891 z" id="path3040" inkscape:connector-curvature="0" style="fill:&fill_color;;fill-opacity:1;stroke:none;stroke-width:2.5;stroke-miterlimit:4;stroke-dasharray:none" transform="translate(0,9)"/>
      <path d="" id="path3042" inkscape:connector-curvature="0" style="fill:&fill_color;;fill-opacity:1;stroke:none;stroke-width:2.5;stroke-miterlimit:4;stroke-dasharray:none" transform="translate(0,9)"/>
      <path d="m 16.765651,43.61161 c 0.213601,-0.179753 0.626678,-0.555066 0.917949,-0.834028 0.498635,-0.477563 0.552605,-0.503054 0.923507,-0.436176 0.521335,0.094 1.174219,0.28657 1.128067,0.332723 -0.05945,0.05945 -3.177396,1.264304 -3.271789,1.264304 -0.04735,0 0.08867,-0.147071 0.302266,-0.326823 z" id="path3044" inkscape:connector-curvature="0" style="fill:&fill_color;;fill-opacity:1;stroke:none;stroke-width:2.5;stroke-miterlimit:4;stroke-dasharray:none" transform="translate(0,9)"/>
      <path d="m 21.781368,41.618239 c -0.04644,-0.121017 -0.01962,-0.148525 0.100026,-0.102612 0.08991,0.0345 0.263592,0.06344 0.385958,0.0643 0.181264,0.0013 0.193967,0.02 0.06857,0.10104 -0.232972,0.150559 -0.483583,0.12221 -0.554551,-0.06273 z" id="path3046" inkscape:connector-curvature="0" style="fill:&fill_color;;fill-opacity:1;stroke:none;stroke-width:2.5;stroke-miterlimit:4;stroke-dasharray:none" transform="translate(0,9)"/>
      <path d="m 22.014937,42.674515 0.02982,-0.05386 1.231343,-0.478046 c 0.677239,-0.262926 1.248659,-0.487678 1.269823,-0.499449 0.06467,-0.03597 0.136444,-0.111032 0.164268,-0.17179 0.03263,-0.07125 0.03463,-0.201968 0.0042,-0.27413 -0.02596,-0.06154 -0.02606,-0.06674 -8.64e-4,-0.04583 0.05784,0.048 0.06886,0.126691 0.03763,0.268655 -0.01009,0.04585 -0.01854,0.102748 -0.01879,0.12643 -3.76e-4,0.03594 0.0033,0.04158 0.022,0.03414 0.01234,-0.0049 0.432253,-0.160689 0.933127,-0.346192 1.531636,-0.567253 2.340835,-0.871507 2.340835,-0.880139 0,-0.0045 -0.991327,-0.01158 -2.20295,-0.01567 -1.211622,-0.0041 -2.471344,-0.01323 -2.799382,-0.02032 -1.227949,-0.02651 -2.861238,-0.07201 -2.712803,-0.07557 0.08466,-0.002 1.784486,0.01097 3.777402,0.0289 1.992917,0.01793 3.762011,0.03296 3.93132,0.03342 0.195132,5.23e-4 0.298444,0.0051 0.282183,0.01246 -0.01411,0.0064 -0.320021,0.11795 -0.679804,0.247893 -1.302317,0.470359 -3.487366,1.30836 -5.268581,2.020584 -0.19582,0.0783 -0.359309,0.142362 -0.36331,0.142362 -0.004,0 0.0061,-0.02423 0.02255,-0.05385 l 0,0 z" id="path3048" inkscape:connector-curvature="0" style="fill:&fill_color;;fill-opacity:1;stroke:none;stroke-width:2.5;stroke-miterlimit:4;stroke-dasharray:none" transform="translate(0,9)"/>
      <path d="m 15.403484,45.310394 c -0.04781,-0.03937 -0.08533,-0.07314 -0.08337,-0.07502 0.002,-0.0019 1.312658,-0.512011 2.912661,-1.133607 l 2.909096,-1.130175 0.102642,0.0086 0.102641,0.0086 -0.754275,0.304184 c -1.099993,0.443606 -2.712315,1.103596 -3.981765,1.6299 -0.611116,0.253364 -1.113273,0.460332 -1.115905,0.459928 -0.0026,-4.04e-4 -0.04391,-0.03295 -0.09172,-0.07233 l 0,0 z" id="path3050" inkscape:connector-curvature="0" style="fill:&fill_color;;fill-opacity:1;stroke:none;stroke-width:2.5;stroke-miterlimit:4;stroke-dasharray:none" transform="translate(0,9)"/>
      <path d="m 21.88561,41.829561 c -0.06371,-0.09391 -0.190528,-0.226121 -0.294063,-0.306575 -0.04971,-0.03863 -0.08924,-0.07139 -0.08784,-0.07279 0.0014,-0.0014 0.29687,0.02159 0.656595,0.05109 l 0.654046,0.05364 -0.436501,0.169862 c -0.240076,0.09343 -0.439207,0.169714 -0.442514,0.169532 -0.0033,-1.82e-4 -0.02568,-0.02932 -0.04972,-0.06476 z m 0.308508,-0.07615 c 0.09049,-0.02864 0.220169,-0.110289 0.226304,-0.142497 0.0051,-0.02663 -0.03169,-0.03646 -0.138374,-0.03701 -0.11546,-5.95e-4 -0.24302,-0.0203 -0.374236,-0.05781 -0.06121,-0.0175 -0.120373,-0.02833 -0.131471,-0.02407 -0.0414,0.01589 -0.01434,0.131977 0.04718,0.202357 0.07457,0.08532 0.216225,0.107879 0.370598,0.05903 z" id="path3052" inkscape:connector-curvature="0" style="fill:&fill_color;;fill-opacity:1;stroke:none;stroke-width:2.5;stroke-miterlimit:4;stroke-dasharray:none" transform="translate(0,9)"/>
      <path d="m 20.813414,42.15635 c -0.134036,-0.0389 -0.382229,-0.113315 -0.551539,-0.165371 -0.828533,-0.254743 -1.120457,-0.33248 -1.466971,-0.390645 -0.306815,-0.0515 -0.477603,-0.05915 -0.739559,-0.03313 -0.05893,0.0059 -0.06036,0.0054 -0.01887,-0.0064 0.07691,-0.02184 0.369188,-0.02952 0.519473,-0.01366 0.360819,0.0381 0.757464,0.128311 1.52455,0.346752 0.607845,0.173094 0.813595,0.218616 0.800559,0.177123 -0.01362,-0.04336 -0.347739,-0.187299 -1.048873,-0.451862 -0.484757,-0.182916 -0.872465,-0.342224 -0.850604,-0.349511 0.0069,-0.0023 0.170819,0.05424 0.364244,0.125656 0.53529,0.197632 0.919643,0.336286 1.298296,0.468355 0.189074,0.06595 0.370987,0.134715 0.404251,0.15282 0.06431,0.035 0.1819,0.129909 0.1819,0.146814 0,0.01 -0.139229,0.06536 -0.161648,0.06432 -0.0063,-2.92e-4 -0.121176,-0.03236 -0.255213,-0.07125 z" id="path3054" inkscape:connector-curvature="0" style="fill:&fill_color;;fill-opacity:1;stroke:none;stroke-width:2.5;stroke-miterlimit:4;stroke-dasharray:none" transform="translate(0,9)"/>
      <path d="m 15.924902,44.218863 c 0.005,-0.008 -0.0028,-0.03762 -0.01714,-0.0658 -0.03863,-0.07572 -0.03174,-0.09058 0.01349,-0.02908 l 0.03963,0.05389 0.04054,-0.02865 c 0.07859,-0.05555 0.825139,-0.65803 0.99611,-0.803892 0.441866,-0.376973 0.793687,-0.71072 0.981641,-0.931212 0.04811,-0.05644 0.102328,-0.11127 0.120487,-0.121852 0.02597,-0.01514 0.0768,-0.01889 0.23824,-0.01761 0.228819,0.0018 0.391125,0.02734 0.750798,0.118099 0.221954,0.05601 0.860024,0.243847 0.87502,0.257597 0.0053,0.0049 -0.892209,0.359025 -1.994519,0.786984 -2.33198,0.905364 -2.055512,0.799671 -2.044298,0.781528 z M 16.71535,43.86089 c 0.605087,-0.213408 2.793508,-1.065202 2.976317,-1.158464 0.0279,-0.01424 0.05073,-0.03186 0.05073,-0.03916 0,-0.04646 -0.517935,-0.201276 -1.006879,-0.300977 -0.359379,-0.07328 -0.480919,-0.06495 -0.638993,0.04381 -0.08602,0.05918 -0.142845,0.109675 -0.534631,0.475046 -0.194001,0.180921 -0.479711,0.440751 -0.634912,0.5774 -0.1552,0.136649 -0.31027,0.275011 -0.344599,0.30747 -0.07635,0.07219 -0.138457,0.154327 -0.128668,0.170165 0.0086,0.01396 0.0083,0.01405 0.26163,-0.07529 z" id="path3056" inkscape:connector-curvature="0" style="fill:&fill_color;;fill-opacity:1;stroke:none;stroke-width:2.5;stroke-miterlimit:4;stroke-dasharray:none" transform="translate(0,9)"/>
      <path d="m 17.139528,45.481243 c 0.02211,-0.02319 3.166355,-1.3057 4.962949,-2.024345 4.958142,-1.983276 8.226053,-3.154513 9.031876,-3.237072 0.07211,-0.0074 0.101105,-0.0035 0.194205,0.02616 0.229114,0.07295 0.503418,0.226884 0.720864,0.404524 0.130531,0.106636 0.372539,0.362205 0.487799,0.515134 l 0.09991,0.132568 -0.0085,1.095579 c -0.0047,0.602569 -0.0085,1.376711 -0.0085,1.720315 l 0,0.624735 -0.477787,0.314351 -0.477787,0.314351 -6.753148,0.05269 c -3.714232,0.02898 -6.984025,0.05629 -7.266208,0.06068 -0.282183,0.0044 -0.509767,0.0045 -0.505743,3.17e-4 l 0,10e-7 z m 4.962949,-0.07209 c 5.112327,-0.02306 8.306127,-0.0508 8.891336,-0.07722 0.322021,-0.01454 0.460492,-0.02948 0.600268,-0.06475 0.195202,-0.04926 0.270201,-0.08793 0.713555,-0.36793 l 0.299579,-0.189198 -6e-6,-1.705924 -8e-6,-1.705923 -0.341131,-0.33129 c -0.464043,-0.450658 -0.577801,-0.537184 -0.806667,-0.61356 -0.07986,-0.02665 -0.11247,-0.02985 -0.295009,-0.02894 -0.172112,8.56e-4 -0.231671,0.0067 -0.369141,0.03596 -0.242998,0.05179 -0.703763,0.188665 -1.323956,0.393291 -2.221223,0.732866 -4.855238,1.738484 -9.767374,3.729001 -1.863591,0.755172 -2.257463,0.917259 -2.257463,0.928996 0,0.01344 1.271417,0.01275 4.656017,-0.0025 z" id="path3059" inkscape:connector-curvature="0" style="fill:&fill_color;;fill-opacity:1;stroke:none;stroke-width:2.5;stroke-miterlimit:4;stroke-dasharray:none" transform="translate(0,9)"/>
      <path d="m 34.306885,44.632321 c -0.444438,-0.02325 -0.847802,-0.04269 -0.896365,-0.04319 l -0.0883,-9.18e-4 0.008,-0.554745 c 0.0044,-0.305111 0.0095,-1.085935 0.01134,-1.735165 0.0033,-1.145976 0.0026,-1.182091 -0.02163,-1.237756 -0.03223,-0.0739 -0.173904,-0.283717 -0.28536,-0.422598 -0.113125,-0.14096 -0.378559,-0.41471 -0.492496,-0.507926 -0.04913,-0.0402 -0.08645,-0.07597 -0.08292,-0.0795 0.0098,-0.0098 0.17702,0.130125 0.324064,0.271263 0.169437,0.162628 0.270259,0.282466 0.4703,0.558997 l 0.16196,0.22389 0,1.72253 c 0,0.947392 0.002,1.722531 0.0044,1.722531 0.02349,0 0.939355,0.05592 1.156419,0.07061 0.499457,0.03379 0.555128,0.02617 0.581701,-0.07964 0.0067,-0.02678 0.01885,-0.198754 0.02696,-0.382173 0.0081,-0.183419 0.04029,-0.801015 0.07154,-1.372435 0.09982,-1.825727 0.133524,-2.462752 0.159476,-3.014226 0.03541,-0.752374 0.03816,-0.788829 0.05957,-0.788829 0.01335,0 0.01786,0.02022 0.01786,0.08019 0,0.287882 -0.163463,3.411105 -0.26332,5.031168 -0.01739,0.282183 -0.03164,0.528933 -0.03166,0.548333 -2.5e-5,0.03159 -0.0044,0.03509 -0.04172,0.03357 -0.02293,-9.35e-4 -0.405317,-0.02072 -0.849755,-0.04398 z" id="path3061" inkscape:connector-curvature="0" style="fill:&fill_color;;fill-opacity:1;stroke:none;stroke-width:2.5;stroke-miterlimit:4;stroke-dasharray:none" transform="translate(0,9)"/>
      <path d="" id="path3063" inkscape:connector-curvature="0" style="fill:&fill_color;;fill-opacity:1;stroke:none;stroke-width:2.5;stroke-miterlimit:4;stroke-dasharray:none" transform="translate(0,9)"/>
      <path d="m 29.170035,22.871595 c -0.337227,-0.351094 -0.44807,-1.263897 -0.235957,-1.943125 0.07558,-0.242032 0.232332,-0.483479 0.337732,-0.520221 0.114799,-0.04002 0.292385,0.181477 0.396774,0.494881 0.209475,0.628902 0.128391,1.507259 -0.176719,1.914341 -0.07047,0.09402 -0.134738,0.141092 -0.192644,0.141092 -0.03962,0 -0.0567,-0.0115 -0.129186,-0.08697 z m 0.224232,-0.04694 c 0.06986,-0.09789 0.185306,-0.326875 0.22367,-0.443619 0.07002,-0.213072 0.083,-0.317833 0.08341,-0.673055 3.03e-4,-0.260452 -0.0044,-0.358771 -0.02131,-0.448927 -0.03106,-0.165257 -0.08104,-0.331708 -0.13236,-0.440767 -0.04574,-0.09721 -0.236222,-0.399037 -0.251963,-0.399249 -0.0158,-2.14e-4 -0.203085,0.2795 -0.234103,0.349637 -0.04463,0.100912 -0.08026,0.229056 -0.111578,0.401236 -0.02414,0.132707 -0.02793,0.200608 -0.02827,0.506004 -4.27e-4,0.378043 0.01694,0.533003 0.08192,0.73111 0.06371,0.194232 0.251399,0.500233 0.306818,0.500233 0.01587,0 0.04607,-0.02979 0.08376,-0.0826 l 0,0 z" id="path3065" inkscape:connector-curvature="0" style="fill:&fill_color;;fill-opacity:1;stroke:none;stroke-width:2.5;stroke-miterlimit:4;stroke-dasharray:none" transform="translate(0,9)"/>
      <path d="m 27.75896,22.921849 c 0,-0.02989 0.19833,-0.170801 0.297452,-0.211337 0.06426,-0.02628 0.06833,-0.0521 0.06703,-0.42534 -7.9e-4,-0.226903 0.0017,-0.282544 0.0096,-0.211637 0.01679,0.151828 0.05832,0.369058 0.09426,0.493071 0.01814,0.06261 0.02842,0.11779 0.02284,0.12262 -0.02264,0.01958 -0.491146,0.24148 -0.491146,0.232623 z" id="path3067" inkscape:connector-curvature="0" style="fill:&fill_color;;fill-opacity:1;stroke:none;stroke-width:2.5;stroke-miterlimit:4;stroke-dasharray:none" transform="translate(0,9)"/>
      <path d="m 30.575329,27.263992 c 0.0082,-0.02133 -0.0847,-0.221909 -0.592568,-1.279606 l -0.403992,-0.841364 0.691332,-1.031304 c 0.380233,-0.567217 0.700987,-1.046258 0.712785,-1.064536 l 0.02145,-0.03323 -0.296267,-0.197132 -0.296267,-0.197132 -0.02425,0.03155 c -0.01334,0.01735 -0.02438,0.03684 -0.02453,0.04331 -1.57e-4,0.0065 -0.0035,0.0085 -0.0075,0.0046 -0.004,-0.004 0.0075,-0.06119 0.02539,-0.127196 0.04602,-0.169517 0.08142,-0.349005 0.09212,-0.467079 0.01178,-0.129993 0.02859,-0.09357 0.02995,0.06489 0.0015,0.170939 0.03057,0.341546 0.07235,0.424122 0.04021,0.07948 0.07346,0.108822 0.303632,0.268005 0.08995,0.0622 0.163538,0.117367 0.163538,0.122584 0,0.02038 -0.231573,0.393513 -0.429721,0.692401 -0.114582,0.172837 -0.387924,0.575608 -0.607426,0.895046 l -0.399094,0.580796 0.370667,0.740332 c 0.386422,0.771799 0.462778,0.929056 0.564993,1.163607 0.0791,0.181509 0.08433,0.199302 0.06265,0.213042 -0.02535,0.01606 -0.03677,0.01385 -0.02928,-0.0057 z" id="path3069" inkscape:connector-curvature="0" style="fill:&fill_color;;fill-opacity:1;stroke:none;stroke-width:2.5;stroke-miterlimit:4;stroke-dasharray:none" transform="translate(0,9)"/>
      <path d="m 29.005153,23.964901 c -0.250765,-0.517522 -0.235161,-0.480116 -0.185543,-0.444785 0.07212,0.05135 0.22481,0.117126 0.322216,0.138797 0.186123,0.04141 0.423993,0.0017 0.583503,-0.09749 0.03493,-0.02171 0.06547,-0.03752 0.06786,-0.03513 0.0043,0.0043 -0.56868,0.868834 -0.575846,0.868834 -0.002,0 -0.09753,-0.193603 -0.21219,-0.430229 z m 0.298651,0.189732 c 0.02589,-0.02645 0.07931,-0.09539 0.118714,-0.15318 0.05702,-0.08364 0.07289,-0.118092 0.07777,-0.168833 0.0059,-0.06164 0.0047,-0.06453 -0.03708,-0.08714 -0.064,-0.03464 -0.361199,-0.03464 -0.414059,-3e-6 -0.0327,0.02143 -0.03562,0.02918 -0.02993,0.07967 0.0065,0.05749 0.103197,0.261759 0.159043,0.335899 0.04065,0.05396 0.06782,0.05258 0.125545,-0.0064 l 0,0 z" id="path3071" inkscape:connector-curvature="0" style="fill:&fill_color;;fill-opacity:1;stroke:none;stroke-width:2.5;stroke-miterlimit:4;stroke-dasharray:none" transform="translate(0,9)"/>
      <path d="m 29.51619,26.780858 c -0.229187,-0.458547 -0.419625,-0.833592 -0.423196,-0.833433 -0.0036,1.6e-4 -0.07576,0.105196 -0.16041,0.233415 -0.345898,0.5239 -0.680338,0.994967 -0.695573,0.979732 -0.0072,-0.0072 0.868293,-1.31623 0.879861,-1.315623 0.0082,4.29e-4 0.400248,0.81342 0.663306,1.375472 0.07848,0.167687 0.145315,0.307505 0.148516,0.310706 0.0032,0.0032 0.143475,-0.05175 0.311719,-0.122108 0.441877,-0.184795 0.440542,-0.174053 -0.007,0.0564 -0.159318,0.08204 -0.292108,0.149158 -0.295088,0.149158 -0.003,0 -0.192937,-0.375175 -0.422123,-0.833722 z" id="path3073" inkscape:connector-curvature="0" style="fill:&fill_color;;fill-opacity:1;stroke:none;stroke-width:2.5;stroke-miterlimit:4;stroke-dasharray:none" transform="translate(0,9)"/>
      <path d="m 27.893433,27.207036 c -0.218218,-0.126193 -0.406311,-0.260119 -0.397515,-0.28304 0.0267,-0.06959 0.320189,-0.528332 0.733823,-1.147024 l 0.478215,-0.715289 -0.341482,-0.682798 c -0.475984,-0.951739 -0.616968,-1.256783 -0.60546,-1.310022 0.0044,-0.02046 0.985702,1.986271 0.985627,2.015626 -2.6e-5,0.0088 -0.272045,0.421446 -0.604494,0.91703 -0.33245,0.495583 -0.60654,0.906862 -0.60909,0.913952 -0.0025,0.0071 0.110726,0.09055 0.251725,0.185464 0.140999,0.09492 0.256361,0.174278 0.256361,0.176364 0,0.01181 -0.03258,-0.0037 -0.14771,-0.07026 l 0,0 z" id="path3075" inkscape:connector-curvature="0" style="fill:&fill_color;;fill-opacity:1;stroke:none;stroke-width:2.5;stroke-miterlimit:4;stroke-dasharray:none" transform="translate(0,9)"/>
      <path d="m 26.231615,22.572893 c 0,-0.03719 0.541456,-5.807049 0.548783,-5.847942 0.0029,-0.01635 1.025795,-0.341594 2.970261,-0.944463 l 2.965792,-0.919524 0.0045,0.110051 c 0.0069,0.170551 -0.260139,7.609397 -0.273657,7.622915 -0.0066,0.0066 -0.01529,0.0086 -0.01937,0.0044 -0.0041,-0.0042 0.03204,-1.138096 0.08025,-2.519865 0.120402,-3.450807 0.171259,-5.113059 0.156876,-5.127443 -0.01556,-0.01556 -0.583254,0.149772 -1.885378,0.549093 -2.303466,0.706401 -3.321644,1.038646 -3.631984,1.185167 -0.209903,0.0991 -0.28959,0.16032 -0.315075,0.242056 -0.04077,0.130743 -0.181639,1.479123 -0.412602,3.949261 -0.08722,0.932818 -0.165283,1.703788 -0.173473,1.713266 -0.0086,0.0099 -0.01489,0.0028 -0.01489,-0.01698 z" id="path3077" inkscape:connector-curvature="0" style="fill:&fill_color;;fill-opacity:1;stroke:none;stroke-width:2.5;stroke-miterlimit:4;stroke-dasharray:none" transform="translate(0,9)"/>
      <path d="" id="path3079" inkscape:connector-curvature="0" style="fill:&fill_color;;fill-opacity:1;stroke:none;stroke-width:2.5;stroke-miterlimit:4;stroke-dasharray:none" transform="translate(0,9)"/>
      <path d="m 25.95283,17.364933 c -1.6e-4,-0.01447 0.09767,-1.199724 0.09923,-1.202194 4.56e-4,-7.23e-4 1.50719,-0.472228 3.348298,-1.047788 1.841108,-0.57556 3.351077,-1.047853 3.355486,-1.049541 0.0053,-0.002 0.008,0.0032 0.008,0.01526 l 0,0.01833 -3.20502,0.993414 c -1.762761,0.546377 -3.222336,1.000233 -3.2435,1.008568 -0.0494,0.01946 -0.11801,0.07099 -0.1469,0.11035 -0.03208,0.04371 -0.05895,0.103596 -0.06733,0.150084 -0.0062,0.03442 -0.09681,0.97684 -0.09681,1.006973 0,0.0085 -0.0057,0.01098 -0.02565,0.01098 -0.02228,0 -0.02567,-0.0019 -0.02581,-0.01443 z" id="path3081" inkscape:connector-curvature="0" style="fill:&fill_color;;fill-opacity:1;stroke:none;stroke-width:2.5;stroke-miterlimit:4;stroke-dasharray:none" transform="translate(0,9)"/>
      <path d="m 25.594809,21.667818 c -5.28e-4,-0.01095 0.05386,-0.676163 0.120869,-1.478254 0.06701,-0.80209 0.12184,-1.46484 0.121852,-1.472776 1.8e-5,-0.01175 0.0036,-0.01443 0.01926,-0.01443 0.01252,0 0.01924,0.0032 0.01924,0.0093 0,0.01114 -0.274817,2.937005 -0.278027,2.960045 -0.0019,0.01328 -0.0024,0.01262 -0.0032,-0.0039 l 0,0 z" id="path3083" inkscape:connector-curvature="0" style="fill:&fill_color;;fill-opacity:1;stroke:none;stroke-width:2.5;stroke-miterlimit:4;stroke-dasharray:none" transform="translate(0,9)"/>
      <path d="m 25.840318,18.686269 c 0.0017,-0.0079 0.02693,-0.30519 0.05616,-0.660564 l 0.05315,-0.646134 0.02717,0 c 0.02609,0 0.02705,7.03e-4 0.02419,0.01764 -0.0016,0.0097 -0.02913,0.300461 -0.0611,0.646135 -0.03197,0.345674 -0.05947,0.634991 -0.06112,0.642927 -0.0023,0.01109 -0.0074,0.01443 -0.02224,0.01443 -0.01657,0 -0.01882,-0.002 -0.01623,-0.01443 z" id="path3085" inkscape:connector-curvature="0" style="fill:&fill_color;;fill-opacity:1;stroke:none;stroke-width:2.5;stroke-miterlimit:4;stroke-dasharray:none" transform="translate(0,9)"/>
    </g>
  </g>
</svg>