<?xml version="1.0" ?><!-- Created with Inkscape (http://www.inkscape.org/) --><!DOCTYPE svg  PUBLIC '-//W3C//DTD SVG 1.1//EN'  'http://www.w3.org/Graphics/SVG/1.1/DTD/svg11.dtd' [
	<!ENTITY stroke_color "#000000">
	<!ENTITY fill_color "#000000">
]><svg height="48px" id="svg2985" inkscape:version="0.48.3.1 r9886" sodipodi:docname="activity.svg" style="" version="1.1" width="48px" xmlns="http://www.w3.org/2000/svg" xmlns:cc="http://creativecommons.org/ns#" xmlns:dc="http://purl.org/dc/elements/1.1/" xmlns:inkscape="http://www.inkscape.org/namespaces/inkscape" xmlns:rdf="http://www.w3.org/1999/02/22-rdf-syntax-ns#" xmlns:sodipodi="http://sodipodi.sourceforge.net/DTD/sodipodi-0.dtd" xmlns:svg="http://www.w3.org/2000/svg">
  <defs id="defs2987" style=""/>
  <sodipodi:namedview bordercolor="#666666" borderopacity="1.0" id="base" inkscape:current-layer="layer1" inkscape:cx="44.290565" inkscape:cy="13.515443" inkscape:document-units="px" inkscape:grid-bbox="true" inkscape:guide-bbox="true" inkscape:pageopacity="0.0" inkscape:pageshadow="2" inkscape:window-height="744" inkscape:window-maximized="1" inkscape:window-width="1366" inkscape:window-x="0" inkscape:window-y="24" inkscape:zoom="7" pagecolor="#ffffff" showgrid="true" showguides="true" style=""/>
  <metadata id="metadata2990" style="">
    <rdf:RDF style="">
      <cc:Work rdf:about="" style="">
        <dc:format style="">image/svg+xml</dc:format>
        <dc:type rdf:resource="http://purl.org/dc/dcmitype/StillImage" style=""/>
        <dc:title style=""/>
      </cc:Work>
    </rdf:RDF>
  </metadata>
  <g id="layer1" inkscape:groupmode="layer" inkscape:label="Layer 1" style="">
    <text id="text3012" sodipodi:linespacing="125%" style="font-size:9px;font-style:normal;font-variant:normal;font-weight:normal;font-stretch:normal;line-height:125%;letter-spacing:0px;word-spacing:0px;fill:&fill_color;;fill-opacity:1;stroke:none;font-family:GROBOLD;-inkscape-font-specification:GROBOLD" transform="matrix(0.89718942,0.44164594,-0.44164594,0.89718942,0,0)" x="2.9139707" xml:space="preserve" y="5.8678083"><tspan id="tspan3014" sodipodi:role="line" style="" x="2.9139707" y="5.8678083">1</tspan></text>
    <path d="m 36.022321,1.7723214 -0.09375,0.0625 -0.9375,0.4375 c -1.894956,0.9276217 -3.30983,2.7875284 -3.90625,5.03125 -0.324467,1.2206394 -0.32841,3.2942706 0,4.4999996 0.533948,1.960343 1.798791,3.813072 3.25,4.5 0.426997,0.202119 0.831187,0.32531 1.21875,0.34375 0.387563,0.01844 0.766095,-0.09807 1.0625,-0.34375 0.59281,-0.491366 0.802955,-1.320939 0.90625,-2.46875 0.174794,-1.942327 1.092034,-3.671557 2.6875,-5.0937496 0.981896,-0.875259 2.073553,-1.4465352 3.53125,-1.84375 0.291344,-0.07939 0.596077,-0.1824828 0.84375,-0.28125 0.247673,-0.098767 0.391054,-0.1683324 0.59375,-0.34375 0.362712,-0.3138983 0.530658,-0.8174399 0.4375,-1.25 -0.09316,-0.4325601 -0.374127,-0.8217206 -0.71875,-1.1875 -0.689247,-0.7315588 -1.752956,-1.3715266 -3.03125,-1.75 -0.797115,-0.2360081 -1.48321,-0.3125 -3.40625,-0.3125 l -2.3125,0 -0.125,0 z" id="path3036" inkscape:connector-curvature="0" style="font-size:medium;font-style:normal;font-variant:normal;font-weight:normal;font-stretch:normal;text-indent:0;text-align:start;text-decoration:none;line-height:normal;letter-spacing:normal;word-spacing:normal;text-transform:none;direction:ltr;block-progression:tb;writing-mode:lr-tb;text-anchor:start;baseline-shift:baseline;color:#000000;fill:#ff0000;fill-opacity:1;fill-rule:nonzero;stroke:&stroke_color;;stroke-width:1;stroke-opacity:1;marker:none;visibility:visible;display:inline;overflow:visible;enable-background:accumulate;font-family:Sans;-inkscape-font-specification:Sans"/>
    <path d="m 24.241071,3.8660714 c -0.80829,-0.036333 -1.637105,2.038e-4 -2.15625,0.125 -1.111181,0.2671132 -2.091956,0.7805542 -2.84375,1.4375 -0.751794,0.6569458 -1.28125,1.4732012 -1.28125,2.34375 0,0.2130592 0.01947,0.4412195 0.15625,0.65625 0.136776,0.2150305 0.359791,0.3498065 0.59375,0.4375 0.467917,0.175387 1.072449,0.2168602 2.03125,0.25 1.479873,0.05115 1.546012,0.057506 2.375,0.4375 0.988565,0.4531406 2.211163,1.5958776 2.71875,2.5624996 0.111486,0.212308 0.210739,0.41946 0.3125,0.59375 0.101761,0.17429 0.171137,0.275132 0.28125,0.40625 0.241852,0.287982 0.685912,0.40789 1.03125,0.3125 0.345338,-0.09539 0.625615,-0.295501 0.9375,-0.59375 0.40839,-0.390536 0.711358,-0.862142 0.875,-1.4375 0.163642,-0.575358 0.221301,-1.248173 0.21875,-2.1874996 -0.0049,-1.8012296 -0.311415,-2.6790139 -1.34375,-3.75 -0.988714,-1.0257321 -2.214284,-1.5176959 -3.90625,-1.59375 z" id="path3032" inkscape:connector-curvature="0" style="font-size:medium;font-style:normal;font-variant:normal;font-weight:normal;font-stretch:normal;text-indent:0;text-align:start;text-decoration:none;line-height:normal;letter-spacing:normal;word-spacing:normal;text-transform:none;direction:ltr;block-progression:tb;writing-mode:lr-tb;text-anchor:start;baseline-shift:baseline;color:#000000;fill:#44aa00;fill-opacity:1;fill-rule:nonzero;stroke:&stroke_color;;stroke-width:1;stroke-opacity:1;marker:none;visibility:visible;display:inline;overflow:visible;enable-background:accumulate;font-family:Sans;-inkscape-font-specification:Sans"/>
    <path d="m 42.272321,12.116071 c -0.702432,0 -1.409222,0.299631 -1.9375,0.875 l -0.4375,0.5 -0.15625,0.125 0,0.1875 0,2.28125 0,1.75 -7.78125,0 c -3.854579,0.0014 -5.925226,-0.003 -7.125,0.03125 -1.199774,0.03429 -1.610127,0.10729 -1.9375,0.25 -1.364399,0.594774 -2.382415,1.79457 -2.625,3.15625 l -0.03125,0.1875 -2.53125,0.0625 c -0.992449,0.02318 -1.757435,0.08385 -2.3125,0.125 -0.277533,0.02058 -0.505887,0.03485 -0.6875,0.0625 -0.181613,0.02765 -0.282167,0.02294 -0.46875,0.125 -0.345506,0.189 -0.645872,0.452428 -0.8125,0.8125 -0.166628,0.360072 -0.21875,0.788452 -0.21875,1.28125 0,0.404316 0.0209,0.676942 0.125,0.96875 0.104098,0.291808 0.266227,0.505893 0.5,0.75 l 0.5,0.5 0.15625,0.15625 0.1875,0 3,0.0625 2.5,0.09375 0.03125,8.15625 0.03125,8.1875 -0.40625,0.03125 c -0.368976,0.02552 -0.642047,0.0632 -0.90625,0.15625 -0.264203,0.09305 -0.485385,0.252328 -0.6875,0.4375 -1.079322,0.988846 -1.058589,2.722909 0.0625,3.625 0.221251,0.178038 0.517648,0.352854 0.9375,0.40625 0.419852,0.0534 1.005349,0.03125 2.15625,0.03125 1.078028,0 1.645242,0.01274 2.0625,-0.03125 0.417258,-0.04399 0.728466,-0.186513 0.9375,-0.34375 0.396461,-0.298223 0.742347,-0.677014 0.875,-1.25 0.132653,-0.572986 0.125,-1.3158 0.125,-2.625 l 0,-1.90625 7.1875,0 7.15625,0 0,1.96875 c 0,0.926355 0.0044,1.62181 0.0625,2.1875 0.05815,0.56569 0.201008,1.053761 0.53125,1.40625 0.330242,0.352489 0.773577,0.499388 1.3125,0.5625 0.538923,0.06311 1.194641,0.03125 2.0625,0.03125 l 2.40625,0 0.1875,0 0.15625,-0.125 0.4375,-0.40625 c 0.214455,-0.205078 0.404868,-0.42747 0.5,-0.71875 0.09513,-0.29128 0.09589,-0.571892 0.09375,-1 -0.0016,-0.312657 -0.01889,-0.60233 -0.0625,-0.84375 -0.04361,-0.24142 -0.0842,-0.415458 -0.25,-0.625 -0.499871,-0.63176 -1.273184,-0.967658 -2.15625,-0.96875 l -0.25,0 0,-14.25 0,-14.75 0,-0.1875 -0.125,-0.125 -0.4375,-0.5 c -0.528278,-0.575369 -1.235068,-0.875 -1.9375,-0.875 z" id="path3028" inkscape:connector-curvature="0" style="font-size:medium;font-style:normal;font-variant:normal;font-weight:normal;font-stretch:normal;text-indent:0;text-align:start;text-decoration:none;line-height:normal;letter-spacing:normal;word-spacing:normal;text-transform:none;direction:ltr;block-progression:tb;writing-mode:lr-tb;text-anchor:start;baseline-shift:baseline;color:#000000;fill:#44aa00;fill-opacity:1;fill-rule:nonzero;stroke:&stroke_color;;stroke-width:1;stroke-opacity:1;marker:none;visibility:visible;display:inline;overflow:visible;enable-background:accumulate;font-family:Sans;-inkscape-font-specification:Sans"/>
    <path d="m 35.241071,22.772321 c -0.323884,0 -0.553353,-0.0073 -0.8125,0.09375 -0.259147,0.10105 -0.447859,0.298684 -0.625,0.5 -0.800951,0.910261 -0.621121,2.325623 0.4375,2.875 0.752026,0.390266 1.666184,0.332562 2.3125,-0.1875 0.210093,-0.169054 0.389978,-0.366978 0.5,-0.625 0.110022,-0.258022 0.125,-0.500728 0.125,-0.8125 0,-0.2921 -0.01098,-0.542259 -0.09375,-0.78125 -0.08277,-0.238991 -0.234903,-0.429895 -0.40625,-0.59375 -0.171346,-0.163856 -0.384206,-0.298736 -0.625,-0.375 -0.240794,-0.07626 -0.510007,-0.09375 -0.8125,-0.09375 z" id="path3024" inkscape:connector-curvature="0" style="font-size:medium;font-style:normal;font-variant:normal;font-weight:normal;font-stretch:normal;text-indent:0;text-align:start;text-decoration:none;line-height:normal;letter-spacing:normal;word-spacing:normal;text-transform:none;direction:ltr;block-progression:tb;writing-mode:lr-tb;text-anchor:start;baseline-shift:baseline;color:#000000;fill:#ffffff;fill-opacity:1;fill-rule:nonzero;stroke:&stroke_color;;stroke-width:1;stroke-opacity:1;marker:none;visibility:visible;display:inline;overflow:visible;enable-background:accumulate;font-family:Sans;-inkscape-font-specification:Sans"/>
    <path d="m 37.553571,27.803571 c -0.596688,-0.158049 -1.198811,0.08953 -1.78125,0.5625 -1.024264,0.83176 -1.591065,1.178126 -2.59375,1.5 -1.494164,0.479645 -2.242478,0.423219 -4,-0.28125 -0.263622,-0.105669 -0.535885,-0.188521 -0.78125,-0.25 -0.245365,-0.06148 -0.410336,-0.131622 -0.6875,-0.09375 -0.344471,0.04706 -0.670136,0.262823 -0.84375,0.53125 -0.173614,0.268427 -0.227267,0.576102 -0.25,0.90625 -0.04547,0.660295 0.110296,1.420829 0.5,2.15625 0.644104,1.215505 2.040264,2.573047 3.25,3.125 2.713673,1.238139 6.293589,-0.258622 7.8125,-3.125 0.286375,-0.540423 0.490669,-1.193149 0.59375,-1.84375 0.103081,-0.650601 0.118262,-1.25826 -0.03125,-1.78125 -0.198206,-0.693322 -0.590812,-1.248201 -1.1875,-1.40625 z" id="path3016" inkscape:connector-curvature="0" style="font-size:medium;font-style:normal;font-variant:normal;font-weight:normal;font-stretch:normal;text-indent:0;text-align:start;text-decoration:none;line-height:normal;letter-spacing:normal;word-spacing:normal;text-transform:none;direction:ltr;block-progression:tb;writing-mode:lr-tb;text-anchor:start;baseline-shift:baseline;color:#000000;fill:#ffffff;fill-opacity:1;fill-rule:nonzero;stroke:&stroke_color;;stroke-width:1;stroke-opacity:1;marker:none;visibility:visible;display:inline;overflow:visible;enable-background:accumulate;font-family:Sans;-inkscape-font-specification:Sans"/>
    <text id="text3040" sodipodi:linespacing="125%" style="font-size:40px;font-style:normal;font-variant:normal;font-weight:normal;font-stretch:normal;line-height:125%;letter-spacing:0px;word-spacing:0px;fill:&fill_color;;fill-opacity:1;stroke:none;font-family:GROBOLD;-inkscape-font-specification:GROBOLD" transform="matrix(0.86014968,-0.51004169,0.51004169,0.86014968,0,0)" x="-15.970999" xml:space="preserve" y="35.89381"><tspan id="tspan3042" sodipodi:role="line" style="font-size:13px" x="-15.970999" y="35.89381">2</tspan></text>
    <text id="text3044" sodipodi:linespacing="125%" style="font-size:13px;font-style:normal;font-variant:normal;font-weight:normal;font-stretch:normal;line-height:125%;letter-spacing:0px;word-spacing:0px;fill:&fill_color;;fill-opacity:1;stroke:none;font-family:GROBOLD;-inkscape-font-specification:GROBOLD" transform="matrix(0.92161127,0.38811425,-0.38811425,0.92161127,0,0)" x="9.0613699" xml:space="preserve" y="11.414103"><tspan id="tspan3046" sodipodi:role="line" style="" x="9.0613699" y="11.414103">4</tspan></text>
    <text id="text3048" sodipodi:linespacing="125%" style="font-size:40px;font-style:normal;font-variant:normal;font-weight:normal;font-stretch:normal;line-height:125%;letter-spacing:0px;word-spacing:0px;fill:&fill_color;;fill-opacity:1;stroke:none;font-family:GROBOLD;-inkscape-font-specification:GROBOLD" transform="matrix(0.50224024,-0.86472813,0.86472813,0.50224024,0,0)" x="0.57413107" xml:space="preserve" y="16.74444"><tspan id="tspan3050" sodipodi:role="line" style="font-size:9px" x="0.57413107" y="16.74444">3</tspan></text>
    <path d="" id="path3104" inkscape:connector-curvature="0" style="fill:#999999;fill-opacity:1"/>
    <text id="text3106" inkscape:transform-center-x="-6.5714286" inkscape:transform-center-y="-1.8571429" sodipodi:linespacing="125%" style="font-size:10px;font-style:normal;font-variant:normal;font-weight:normal;font-stretch:normal;line-height:125%;letter-spacing:0px;word-spacing:0px;fill:&fill_color;;fill-opacity:1;stroke:none;font-family:GROBOLD;-inkscape-font-specification:GROBOLD" transform="matrix(0.7147693,-0.69936031,0.69936031,0.7147693,0,0)" x="-12.886573" xml:space="preserve" y="20.977394"><tspan id="tspan3108" sodipodi:role="line" style="fill:&fill_color;;fill-opacity:1" x="-12.886573" y="20.977394">5</tspan></text>
    <text id="text3110" sodipodi:linespacing="125%" style="font-size:40px;font-style:normal;font-variant:normal;font-weight:normal;font-stretch:normal;line-height:125%;letter-spacing:0px;word-spacing:0px;fill:&fill_color;;fill-opacity:1;stroke:none;font-family:GROBOLD;-inkscape-font-specification:GROBOLD" transform="matrix(0.78480244,0.61974602,-0.61974602,0.78480244,0,0)" x="20.845013" xml:space="preserve" y="6.1155734"><tspan id="tspan3112" sodipodi:role="line" style="font-size:11px" x="20.845013" y="6.1155734">7</tspan></text>
    <text id="text3118" inkscape:transform-center-x="-2.2857143" inkscape:transform-center-y="-4.6318952" sodipodi:linespacing="125%" style="font-size:9px;font-style:normal;font-variant:normal;font-weight:normal;font-stretch:normal;line-height:125%;letter-spacing:0px;word-spacing:0px;fill:&fill_color;;fill-opacity:1;stroke:none;font-family:GROBOLD;-inkscape-font-specification:GROBOLD" transform="matrix(0.66800628,-0.74415564,0.74415564,0.66800628,0,0)" x="-15.875153" xml:space="preserve" y="28.193632"><tspan id="tspan3120" sodipodi:role="line" x="-15.875153" y="28.193632">6</tspan></text>
    <text id="text3122" sodipodi:linespacing="125%" style="font-size:40px;font-style:normal;font-variant:normal;font-weight:normal;font-stretch:normal;line-height:125%;letter-spacing:0px;word-spacing:0px;fill:&fill_color;;fill-opacity:1;stroke:none;font-family:GROBOLD;-inkscape-font-specification:GROBOLD" transform="matrix(0.96144379,0.27500153,-0.27500153,0.96144379,0,0)" x="20.4907" xml:space="preserve" y="32.554798"><tspan id="tspan3124" sodipodi:role="line" style="font-size:11px" x="20.4907" y="32.554798">8</tspan></text>
    <text id="text3126" sodipodi:linespacing="125%" style="font-size:12px;font-style:normal;font-variant:normal;font-weight:normal;font-stretch:normal;line-height:125%;letter-spacing:0px;word-spacing:0px;fill:&fill_color;;fill-opacity:1;stroke:none;font-family:GROBOLD;-inkscape-font-specification:GROBOLD" transform="matrix(0.48563966,0.87415909,-0.87415909,0.48563966,0,0)" x="38.060867" xml:space="preserve" y="18.251862"><tspan id="tspan3128" sodipodi:role="line" style="" x="38.060867" y="18.251862">9</tspan></text>
    <path d="m 28.927442,24.210202 c -0.323884,0 -0.553353,-0.0073 -0.8125,0.09375 -0.259147,0.10105 -0.447859,0.298684 -0.625,0.5 -0.800951,0.910261 -0.621121,2.325623 0.4375,2.875 0.752026,0.390266 1.666184,0.332562 2.3125,-0.1875 0.210093,-0.169054 0.389978,-0.366978 0.5,-0.625 0.110022,-0.258022 0.125,-0.500728 0.125,-0.8125 0,-0.2921 -0.01098,-0.542259 -0.09375,-0.78125 -0.08277,-0.238991 -0.234903,-0.429895 -0.40625,-0.59375 -0.171346,-0.163856 -0.384206,-0.298736 -0.625,-0.375 -0.240794,-0.07626 -0.510007,-0.09375 -0.8125,-0.09375 z" id="path3024-0" inkscape:connector-curvature="0" style="font-size:medium;font-style:normal;font-variant:normal;font-weight:normal;font-stretch:normal;text-indent:0;text-align:start;text-decoration:none;line-height:normal;letter-spacing:normal;word-spacing:normal;text-transform:none;direction:ltr;block-progression:tb;writing-mode:lr-tb;text-anchor:start;baseline-shift:baseline;color:#000000;fill:#ffffff;fill-opacity:1;fill-rule:nonzero;stroke:&stroke_color;;stroke-width:1;stroke-opacity:1;marker:none;visibility:visible;display:inline;overflow:visible;enable-background:accumulate;font-family:Sans;-inkscape-font-specification:Sans"/>
  </g>
</svg>