<?xml version="1.0" ?>
<!DOCTYPE svg
  PUBLIC '-//W3C//DTD SVG 1.1//EN'
  'http://www.w3.org/Graphics/SVG/1.1/DTD/svg11.dtd' [
	<!ENTITY stroke_color "#666666">
	<!ENTITY fill_color "#ffffff">
]>
<svg height="55px" id="svg6397" inkscape:version="0.47pre4 r22446" sodipodi:docname="Bee-55.svg" version="1.0" viewBox="0 0 55 55" width="55px" xmlns="http://www.w3.org/2000/svg" xmlns:cc="http://creativecommons.org/ns#" xmlns:dc="http://purl.org/dc/elements/1.1/" xmlns:inkscape="http://www.inkscape.org/namespaces/inkscape" xmlns:rdf="http://www.w3.org/1999/02/22-rdf-syntax-ns#" xmlns:sodipodi="http://sodipodi.sourceforge.net/DTD/sodipodi-0.dtd" xmlns:svg="http://www.w3.org/2000/svg">
  <sodipodi:namedview bordercolor="#666666" borderopacity="1" gridtolerance="10" guidetolerance="10" id="namedview18" inkscape:current-layer="svg6397" inkscape:cx="3.6652536" inkscape:cy="27.508465" inkscape:pageopacity="0" inkscape:pageshadow="2" inkscape:window-height="950" inkscape:window-maximized="1" inkscape:window-width="1280" inkscape:window-x="0" inkscape:window-y="25" inkscape:zoom="6.7428571" objecttolerance="10" pagecolor="#ffffff" showgrid="false"/>
  <defs id="defs6399">
    <inkscape:perspective id="perspective20" inkscape:persp3d-origin="180 : 93.333333 : 1" inkscape:vp_x="0 : 140 : 1" inkscape:vp_y="0 : 1000 : 0" inkscape:vp_z="360 : 140 : 1" sodipodi:type="inkscape:persp3d"/>
  </defs>
  <metadata id="metadata6402">
    <rdf:RDF>
      <cc:Work rdf:about="">
        <dc:format>image/svg+xml</dc:format>
        <dc:type rdf:resource="http://purl.org/dc/dcmitype/StillImage"/>
        <dc:title/>
      </cc:Work>
    </rdf:RDF>
  </metadata>
  <g id="layer1" style="fill:&fill_color;;fill-opacity:1;stroke:&stroke_color;;stroke-width:3.49922243000000011;stroke-opacity:1;stroke-miterlimit:4;stroke-dasharray:none" transform="matrix(0.19629287,0,0,0.1963658,-43.456851,-57.372644)">
    <g id="g6306" style="opacity:0.59999999999999998;fill:&fill_color;;fill-opacity:1;stroke:&stroke_color;;stroke-width:0.18181293000000001;stroke-opacity:1;stroke-miterlimit:4;stroke-dasharray:none" transform="matrix(17.048652,0,0,21.727187,-2323.6781,-2707.9177)">
      <path d="m 157.5,141.44 c -1.1075,1e-5 -1.9525,0.75246 -2.4688,1.625 -0.51621,0.87253 -0.8125,1.945 -0.8125,3.125 -1e-5,1.18 0.29627,2.2837 0.8125,3.1562 0.51626,0.87252 1.3612,1.625 2.4688,1.625 1.1075,1e-5 1.9838,-0.75247 2.5,-1.625 0.51624,-0.87253 0.78125,-1.9763 0.78125,-3.1562 1e-5,-1.18 -0.26503,-2.2525 -0.78125,-3.125 -0.51624,-0.87254 -1.3925,-1.625 -2.5,-1.625 z m 0,1.125 c 1.3974,0 2.5312,1.7315 2.5312,3.8438 0,2.1122 -1.1339,3.8125 -2.5312,3.8125 -1.3974,10e-6 -2.5312,-1.7003 -2.5312,-3.8125 0,-2.1122 1.1339,-3.8438 2.5312,-3.8438 z" id="path6279" style="fill:&fill_color;;fill-opacity:1;stroke:&stroke_color;;stroke-width:0.18181293000000001;stroke-opacity:1;stroke-miterlimit:4;stroke-dasharray:none"/>
      <path d="m 157.51,143.38 c -1.3253,0 -2.5004,0.7134 -3.218,1.8294 -0.0391,0.34998 -0.0568,0.71475 -0.0631,1.0841 0.70869,-1.0261 1.9073,-1.6939 3.2811,-1.6939 1.3592,0 2.5546,0.65205 3.2601,1.66 -0.006,-0.34634 -0.0293,-0.68708 -0.0631,-1.0164 -0.71066,-1.1243 -1.8659,-1.8633 -3.197,-1.8633 z" id="path5951" style="fill:&fill_color;;fill-opacity:1;stroke:&stroke_color;;stroke-width:0.18181293000000001;stroke-opacity:1;stroke-miterlimit:4;stroke-dasharray:none"/>
      <path d="m 156.95,147.81 c -0.82295,0.10739 -1.562,0.48471 -2.1793,0.99408 0.0755,0.14972 0.13941,0.32071 0.2294,0.45881 0.0766,0.11753 0.17629,0.23319 0.26763,0.3441 0.65318,-0.34002 1.4053,-0.53527 2.2176,-0.53527 0.81227,0 1.5637,0.19527 2.2176,0.53527 0.0913,-0.11091 0.19102,-0.22656 0.26763,-0.3441 0.0931,-0.14292 0.19111,-0.30348 0.26763,-0.45881 -0.74809,-0.62694 -1.7081,-0.99408 -2.7528,-0.99408 -0.18827,0 -0.35341,-0.0237 -0.53528,0 z" id="path5956" style="fill:&fill_color;;fill-opacity:1;stroke:&stroke_color;;stroke-width:0.18181293000000001;stroke-opacity:1;stroke-miterlimit:4;stroke-dasharray:none"/>
      <path d="m 157.49,145.54 c -1.2526,0 -2.1824,0.59147 -3.0242,1.4459 0.0479,0.35447 -0.0686,0.63944 0.0419,0.96284 0.81143,-0.62056 1.8458,-0.99409 2.9822,-0.99409 1.1365,0 2.1746,0.37353 2.9822,0.99409 0.10702,-0.3234 0.028,-0.60837 0.0731,-0.96284 -0.8369,-0.86037 -1.7953,-1.4459 -3.0554,-1.4459 z" id="path5958" style="fill:&fill_color;;fill-opacity:1;stroke:&stroke_color;;stroke-width:0.18181293000000001;stroke-opacity:1;stroke-miterlimit:4;stroke-dasharray:none"/>
      <path d="m 159.02108,139.29831 c 0.27063,0 0.50011,0.37344 0.50011,0.83351 0,0.46007 -0.22949,0.8335 -0.50011,0.8335 -0.27063,1e-5 -0.47629,-0.37343 -0.47629,-0.8335 0,-0.46007 0.20566,-0.83351 0.47629,-0.83351 z m -3.04596,0 c 0.27062,0 0.47629,0.37344 0.47629,0.83351 -1e-5,0.46007 -0.20567,0.8335 -0.47629,0.8335 -0.27064,1e-5 -0.50011,-0.37343 -0.50011,-0.8335 0,-0.46007 0.22949,-0.83351 0.50011,-0.83351 z M 157.51,138.08 c -1.5977,0 -2.9054,1.1091 -2.9054,2.5005 0,0.85234 0.49087,1.6145 1.2384,2.0719 0.15172,-0.36117 0.78628,-0.643 1.5718,-0.643 0.84159,0 1.5361,0.31482 1.6194,0.71444 0.81642,-0.44623 1.3574,-1.2402 1.3574,-2.1433 0,-1.3914 -1.2838,-2.5005 -2.8816,-2.5005 z" id="path5883" style="fill:&fill_color;;fill-opacity:1;stroke:&stroke_color;;stroke-width:0.18181293;stroke-miterlimit:4;stroke-opacity:1;stroke-dasharray:none"/>
      <g id="g6140" style="fill:&fill_color;;fill-opacity:1;stroke:&stroke_color;;stroke-width:0.14860222000000001;stroke-opacity:1;stroke-miterlimit:4;stroke-dasharray:none" transform="matrix(1.2234873,0,0,1.2234873,-35.199248,-30.859496)">
        <path d="m 152.47,139.31 c 0.80018,0.0566 2.0102,0.39256 3.3868,1.1873 0.12836,0.0741 0.22996,0.15798 0.35036,0.23357 -0.13259,0.11323 -0.24255,0.24209 -0.35036,0.36983 -0.0795,-0.0502 -0.15047,-0.10773 -0.23358,-0.15572 -0.81876,-0.47271 -1.6521,-0.7421 -2.3357,-0.79804 -0.68363,-0.0559 -1.2167,0.0992 -1.4404,0.48661 -0.44734,0.77484 0.71888,1.8998 2.3564,2.8452 0.11049,0.0638 0.30891,0.19156 0.42061,0.24695 -0.0154,0.0174 -0.33154,0.23609 -0.34396,0.25576 -0.11107,-0.0608 -0.21587,-0.10877 -0.33089,-0.17518 -1.3766,-0.79477 -2.2954,-1.671 -2.7445,-2.3357 -0.44911,-0.66467 -0.52651,-1.2093 -0.29197,-1.6156 0.23454,-0.40623 0.75697,-0.6016 1.5572,-0.545 z m 2.5888,4.9634 c 0.01,0.0381 0.012,0.0775 0.0195,0.11679 -0.0126,-0.006 -0.0263,-0.0138 -0.0389,-0.0195 0.0138,-0.0326 0.014,-0.0612 0.0195,-0.0973 z" id="path6132" style="fill:&fill_color;;fill-opacity:1;stroke:&stroke_color;;stroke-width:0.14860222000000001;stroke-opacity:1;stroke-miterlimit:4;stroke-dasharray:none"/>
        <path d="m 155.24,143.33 c -0.0239,0.0902 -0.0702,0.17466 -0.0883,0.26694 -0.006,0.003 0.002,0.022 -0.005,0.0246 -1.7447,0.69266 -2.7968,1.6517 -2.4,2.3257 0.33162,0.56334 1.557,0.76531 3.084,0.61705 0.0246,0.0332 0.0257,0.0722 0.0515,0.10496 0.0362,0.0461 0.078,0.0905 0.11736,0.13625 -0.81174,0.12183 -1.5532,0.17368 -2.1533,0.14669 -1.0704,-0.0482 -1.7999,-0.28559 -2.0556,-0.71999 -0.25571,-0.4344 0.0173,-0.97667 0.73223,-1.5324 0.58365,-0.45372 1.51,-0.94959 2.7169,-1.3697 z" id="path6134" style="fill:&fill_color;;fill-opacity:1;stroke:&stroke_color;;stroke-width:0.14860222000000001;stroke-opacity:1;stroke-miterlimit:4;stroke-dasharray:none"/>
      </g>
      <g id="g6144" style="fill:&fill_color;;fill-opacity:1;stroke:&stroke_color;;stroke-width:0.14860222000000001;stroke-opacity:1;stroke-miterlimit:4;stroke-dasharray:none" transform="matrix(-1.2234873,0,0,1.2234873,350.19925,-30.859496)">
        <path d="m 152.47,139.31 c 0.80018,0.0566 2.0102,0.39256 3.3868,1.1873 0.12836,0.0741 0.22996,0.15798 0.35036,0.23357 -0.13259,0.11323 -0.24255,0.24209 -0.35036,0.36983 -0.0795,-0.0502 -0.15047,-0.10773 -0.23358,-0.15572 -0.81876,-0.47271 -1.6521,-0.7421 -2.3357,-0.79804 -0.68363,-0.0559 -1.2167,0.0992 -1.4404,0.48661 -0.44734,0.77484 0.71888,1.8998 2.3564,2.8452 0.11049,0.0638 0.30891,0.19156 0.42061,0.24695 -0.0154,0.0174 -0.33154,0.23609 -0.34396,0.25576 -0.11107,-0.0608 -0.21587,-0.10877 -0.33089,-0.17518 -1.3766,-0.79477 -2.2954,-1.671 -2.7445,-2.3357 -0.44911,-0.66467 -0.52651,-1.2093 -0.29197,-1.6156 0.23454,-0.40623 0.75697,-0.6016 1.5572,-0.545 z m 2.5888,4.9634 c 0.01,0.0381 0.012,0.0775 0.0195,0.11679 -0.0126,-0.006 -0.0263,-0.0138 -0.0389,-0.0195 0.0138,-0.0326 0.014,-0.0612 0.0195,-0.0973 z" id="path6146" style="fill:&fill_color;;fill-opacity:1;stroke:&stroke_color;;stroke-width:0.14860222000000001;stroke-opacity:1;stroke-miterlimit:4;stroke-dasharray:none"/>
        <path d="m 155.24,143.33 c -0.0239,0.0902 -0.0702,0.17466 -0.0883,0.26694 -0.006,0.003 0.002,0.022 -0.005,0.0246 -1.7447,0.69266 -2.7968,1.6517 -2.4,2.3257 0.33162,0.56334 1.557,0.76531 3.084,0.61705 0.0246,0.0332 0.0257,0.0722 0.0515,0.10496 0.0362,0.0461 0.078,0.0905 0.11736,0.13625 -0.81174,0.12183 -1.5532,0.17368 -2.1533,0.14669 -1.0704,-0.0482 -1.7999,-0.28559 -2.0556,-0.71999 -0.25571,-0.4344 0.0173,-0.97667 0.73223,-1.5324 0.58365,-0.45372 1.51,-0.94959 2.7169,-1.3697 z" id="path6148" style="fill:&fill_color;;fill-opacity:1;stroke:&stroke_color;;stroke-width:0.14860222000000001;stroke-opacity:1;stroke-miterlimit:4;stroke-dasharray:none"/>
      </g>
    </g>
  </g>
</svg>