<?xml version="1.0" encoding="UTF-8" standalone="no"?>
<!-- Created with Inkscape (http://www.inkscape.org/) -->
<svg
   xmlns:svg="http://www.w3.org/2000/svg"
   xmlns="http://www.w3.org/2000/svg"
   version="1.0"
   width="55"
   height="55"
   viewBox="0 0 55 55"
   id="svg2439"
   xml:space="preserve"><defs
     id="defs2449">
	
		
	
	
</defs><g
     id="g2463"><rect
       width="41.438"
       height="30.771"
       x="6.7049999"
       y="11.959506"
       id="rect2442"
       style="fill:#ffffff;stroke:#010101;stroke-width:3.5;stroke-linejoin:round;display:inline" /><path
       d="M 30.070001,25.567005 C 30.070001,29.179001 27.717998,32.567005 25.142001,32.567005 C 23.238003,32.567005 22.034001,31.223002 22.034001,28.703005 C 22.034001,25.007008 24.386003,21.703005 26.962001,21.703005 C 28.837999,21.703005 30.070001,23.047007 30.070001,25.567005 M 21.614001,35.115005 L 19.794001,36.627005 C 18.954002,37.327004 18.422001,37.831006 18.422001,38.615005 C 18.422001,39.231004 18.870001,39.707005 19.514001,39.707005 C 20.326,39.707005 21.698002,38.615005 23.462001,38.615005 C 24.582,38.615005 25.982002,39.483005 27.578001,39.483005 C 29.565999,39.483005 31.330001,38.307004 31.330001,37.215005 C 31.330001,36.683005 30.994,36.431005 30.350001,36.431005 C 29.762001,36.431005 28.95,37.047005 28.138001,37.047005 C 27.326002,37.047005 26.205999,36.431005 24.666001,36.431005 C 23.294002,36.431005 22.061999,36.823005 20.634001,37.495005 L 22.986001,35.507005 C 23.63,35.647005 24.274001,35.703005 24.918001,35.703005 C 30.041996,35.703005 33.962001,31.054999 33.962001,25.455005 C 33.962001,21.115009 31.469997,18.623005 27.298001,18.623005 C 24.694003,18.623005 22.369999,19.687007 20.746001,21.591005 C 19.038002,23.579003 18.058001,26.267007 18.058001,28.899005 C 18.058001,31.923002 19.262003,34.023006 21.614001,35.115005"
       id="text2458"
       style="font-size:16px;font-style:normal;font-variant:normal;font-weight:normal;font-stretch:normal;fill:#000000;fill-opacity:1;stroke:none;stroke-width:1px;stroke-linecap:butt;stroke-linejoin:miter;stroke-opacity:1;font-family:Arial Black;-inkscape-font-specification:Arial Black" /></g></svg>