<?xml version="1.0" encoding="UTF-8" standalone="no"?>
<!DOCTYPE svg PUBLIC "-//W3C//DTD SVG 1.1//EN" "http://www.w3.org/Graphics/SVG/1.1/DTD/svg11.dtd" [
    <!ENTITY stroke_color "#666666">
    <!ENTITY fill_color "#FFFFFF">
]>
<svg
   xmlns:dc="http://purl.org/dc/elements/1.1/"
   xmlns:cc="http://creativecommons.org/ns#"
   xmlns:rdf="http://www.w3.org/1999/02/22-rdf-syntax-ns#"
   xmlns:svg="http://www.w3.org/2000/svg"
   xmlns="http://www.w3.org/2000/svg"
   xmlns:sodipodi="http://sodipodi.sourceforge.net/DTD/sodipodi-0.dtd"
   xmlns:inkscape="http://www.inkscape.org/namespaces/inkscape"
   width="45"
   height="45"
   id="svg2215"
   sodipodi:version="0.32"
   inkscape:version="0.46"
   sodipodi:docname="peruicono.svg"
   sodipodi:docbase="/home/mcfletch/olpc/code/productive/Productive.activity/activity"
   inkscape:output_extension="org.inkscape.output.svg.inkscape">
  <metadata
     id="metadata2232">
    <rdf:RDF>
      <cc:Work
         rdf:about="">
        <dc:format>image/svg+xml</dc:format>
        <dc:type
           rdf:resource="http://purl.org/dc/dcmitype/StillImage" />
      </cc:Work>
    </rdf:RDF>
  </metadata>
  <defs
     id="defs2230">
    <inkscape:perspective
       sodipodi:type="inkscape:persp3d"
       inkscape:vp_x="0 : 22.5 : 1"
       inkscape:vp_y="0 : 1000 : 0"
       inkscape:vp_z="45 : 22.5 : 1"
       inkscape:persp3d-origin="22.5 : 15 : 1"
       id="perspective2456" />
    <inkscape:perspective
       id="perspective2556"
       inkscape:persp3d-origin="372.04724 : 350.78739 : 1"
       inkscape:vp_z="744.09448 : 526.18109 : 1"
       inkscape:vp_y="0 : 1000 : 0"
       inkscape:vp_x="0 : 526.18109 : 1"
       sodipodi:type="inkscape:persp3d" />
  </defs>
  <sodipodi:namedview
     inkscape:cy="23.07043"
     inkscape:cx="21.808205"
     inkscape:zoom="9.85"
     inkscape:window-height="735"
     inkscape:window-width="960"
     inkscape:pageshadow="2"
     inkscape:pageopacity="0.0"
     guidetolerance="10.0"
     gridtolerance="10.0"
     objecttolerance="10.0"
     borderopacity="1.0"
     bordercolor="#666666"
     pagecolor="#ffffff"
     id="base"
     inkscape:window-x="15"
     inkscape:window-y="70"
     inkscape:current-layer="svg2215"
     showgrid="false" />
  <path
     fill="&fill_color;" stroke="&stroke_color;" stroke-width="3.5"
     d="M 33.213538,44.470166 C 32.296762,44.633991 29.898518,42.506696 30.226231,42.085413 C 28.635461,41.46878 26.00745,40.022466 22.74537,38.06882 C 21.87666,37.875527 21.154578,37.340107 20.686872,36.211106 C 19.614994,35.933418 19.285388,34.980961 18.929616,34.052211 C 19.350702,33.700147 19.360092,33.165011 19.180648,32.545995 L 17.02175,29.834805 C 17.162404,28.922437 16.607936,28.407262 15.816776,28.027372 C 15.904429,26.898909 15.424568,26.196104 14.712212,25.667635 C 14.739162,24.81353 14.255286,24.406407 13.758275,24.010782 C 13.92386,23.517966 13.672239,23.233761 13.306408,23.006649 C 13.459515,22.722138 13.353336,22.437636 13.105589,22.153121 C 13.247668,21.651077 12.734401,21.268202 12.151645,20.897941 C 12.459228,20.208104 12.062216,20.094776 11.649571,19.994217 C 11.378782,19.291314 10.998944,18.588412 10.394406,17.885501 C 9.5784149,16.791081 8.3642154,16.015237 7.2313347,15.174321 L 7.9836151,14.448144 L 7.1811329,13.768528 L 6.7794708,12.362723 C 6.3927243,12.207318 8.208953,8.978749 9.2898351,8.9988479 C 9.943687,9.010449 8.988607,11.157747 8.988607,11.157747 L 10.042953,11.358587 C 11.051701,12.265775 12.048465,13.146562 12.402682,12.613753 C 12.402682,12.613753 12.918018,12.214888 12.954953,11.961066 C 13.20658,10.232171 14.461179,8.4465538 14.461179,8.4465538 C 14.351222,8.3507462 20.725471,6.3724419 20.234997,4.3295701 C 20.137309,3.9226725 20.737078,3.425846 20.737078,3.425846 C 21.115578,2.8455035 21.233778,2.2131047 20.285199,1.3673509 L 21.088528,0.6644478 C 21.556941,1.1491475 21.740033,1.1583074 21.808517,0.97644795 L 22.594732,1.3171382 L 23.399713,2.2999775 L 23.849912,3.425846 L 25.305927,3.9279196 L 25.607184,5.2333023 L 26.360279,5.2834998 L 26.862358,6.6893102 L 27.766074,6.4884773 L 28.714306,6.3078629 L 29.874782,6.0868243 L 31.431203,6.187237 L 32.887206,6.6391065 L 33.740724,7.2917964 L 32.485559,9.7017382 L 32.837021,9.7017382 L 33.991765,11.007127 L 33.690534,11.659817 L 32.033701,11.157747 L 30.125818,12.011281 C 30.125818,12.011281 29.255722,12.353324 28.870638,12.31251 C 27.887487,12.208315 26.947888,13.887865 26.209658,15.274741 C 26.150061,15.386684 27.320584,16.869631 26.348707,16.870589 C 25.761141,16.871153 25.023266,16.726998 25.139021,17.624545 C 25.233234,18.355089 24.447489,18.535397 24.50677,18.866017 C 24.69079,19.89233 25.897244,21.066672 26.513646,21.813461 C 26.793828,22.15291 26.952096,22.404019 26.837021,22.51274 C 25.704071,23.583131 28.116795,22.853837 28.358164,23.499981 C 28.572525,24.073785 29.124296,24.679529 29.84859,24.489459 C 30.988789,24.190226 32.250246,23.362644 32.334935,23.207471 C 32.419621,23.052298 32.385141,26.671762 32.385141,26.671762 L 34.343215,26.621551 L 35.14653,27.173824 L 36.953997,30.788759 L 36.401724,31.441451 L 36.351508,33.349326 L 36.451924,34.253059 L 35.196736,36.562582 L 35.849431,37.165035 C 35.33863,37.625689 34.772922,38.080534 35.497985,38.671286 C 35.366111,39.047373 35.470362,39.364338 36.401724,39.474574 C 36.050305,39.907601 35.819725,40.295314 36.000055,40.528977 C 35.509935,40.808039 35.219882,41.137194 34.995923,41.482891 C 34.740875,41.557909 34.491749,41.642203 34.694665,42.436803 C 34.111345,42.817123 33.670452,43.103372 34.217719,43.616707 C 34.217719,43.616707 34.130376,44.306455 33.213538,44.470166 z"
     id="path2560"
     sodipodi:nodetypes="cccccccccccccccccccscccssscccccccccccccccccccccccssssssssszcccccccccccccccz"
     style="stroke-width:1;stroke-miterlimit:4;stroke-dasharray:none" />
</svg>