<?xml version="1.0" ?><!-- Created with Inkscape (http://www.inkscape.org/) --><!DOCTYPE svg  PUBLIC '-//W3C//DTD SVG 1.1//EN'  'http://www.w3.org/Graphics/SVG/1.1/DTD/svg11.dtd' [
	<!ENTITY stroke_color "#000000">
	<!ENTITY fill_color "#ffffff">
]><svg height="55" id="svg5629" inkscape:version="0.47pre4 r22446" sodipodi:docname="activity.svg" version="1.1" width="55" xmlns="http://www.w3.org/2000/svg" xmlns:cc="http://creativecommons.org/ns#" xmlns:dc="http://purl.org/dc/elements/1.1/" xmlns:inkscape="http://www.inkscape.org/namespaces/inkscape" xmlns:rdf="http://www.w3.org/1999/02/22-rdf-syntax-ns#" xmlns:sodipodi="http://sodipodi.sourceforge.net/DTD/sodipodi-0.dtd" xmlns:svg="http://www.w3.org/2000/svg">
  <defs id="defs5631">
    <inkscape:perspective id="perspective5637" inkscape:persp3d-origin="372.04724 : 350.78739 : 1" inkscape:vp_x="0 : 526.18109 : 1" inkscape:vp_y="0 : 1000 : 0" inkscape:vp_z="744.09448 : 526.18109 : 1" sodipodi:type="inkscape:persp3d"/>
    <inkscape:perspective id="perspective5624" inkscape:persp3d-origin="0.5 : 0.33333333 : 1" inkscape:vp_x="0 : 0.5 : 1" inkscape:vp_y="0 : 1000 : 0" inkscape:vp_z="1 : 0.5 : 1" sodipodi:type="inkscape:persp3d"/>
  </defs>
  <sodipodi:namedview bordercolor="#666666" borderopacity="1.0" id="base" inkscape:current-layer="layer1" inkscape:cx="-25.11652" inkscape:cy="24.916078" inkscape:document-units="px" inkscape:pageopacity="0.0" inkscape:pageshadow="2" inkscape:window-height="721" inkscape:window-maximized="1" inkscape:window-width="1366" inkscape:window-x="0" inkscape:window-y="24" inkscape:zoom="6.7733255" pagecolor="#ffffff" showgrid="false"/>
  <metadata id="metadata5634">
    <rdf:RDF>
      <cc:Work rdf:about="">
        <dc:format>image/svg+xml</dc:format>
        <dc:type rdf:resource="http://purl.org/dc/dcmitype/StillImage"/>
        <dc:title/>
      </cc:Work>
    </rdf:RDF>
  </metadata>
  <g id="layer1" inkscape:groupmode="layer" inkscape:label="Capa 1" transform="translate(0,-997.3622)">
    <path d="m 46.537953,1049.3769 c -2.934869,-0.6331 -5.371406,-2.7815 -8.423886,-2.9882 -2.885537,1.6458 -6.42331,0.6765 -9.155717,-0.8157 -2.390115,0.7447 -4.792238,0.6086 -6.176227,-1.7101 -3.238686,-2.4684 -7.073101,-4.5275 -9.022392,-8.2802 -2.052629,-2.7342 -5.4647117,-3.9044 -7.8808289,-6.2663 -0.9083159,-1.2214 -4.0198987,-2.4698 -2.951045,-4.1054 2.4518402,1.463 4.5357965,0.1478 6.7560621,-1.0722 2.2398128,-1.7163 1.7405318,-4.9473 3.1123548,-7.1758 1.728572,-1.2474 4.481194,0.065 5.705852,-2.4478 1.679166,-2.6862 3.917308,1.3543 5.900675,-0.2927 0.932186,-1.8018 3.162943,-2.4014 4.483895,-3.9378 1.80547,-1.3521 1.989028,-3.7384 3.251828,-5.4 2.320339,-2.0175 4.439015,1.5176 6.842813,0.7041 2.762087,-0.5434 5.190292,-2.1119 7.853825,-2.9359 1.219093,-1.0199 5.31278,-3.5234 5.150957,-0.7648 -3.323842,1.1531 1.365137,2.6208 1.010421,4.7996 0.269457,0.9313 0.140165,2.685 -0.89713,2.2253 0.341496,1.6482 -0.179388,4.166 -2.372111,2.9349 1.748993,2.3471 -1.51549,4.8588 -0.07067,7.2472 -0.507282,3.4395 1.862593,6.8663 1.080195,10.1356 -2.182074,1.2917 0.956747,-4.3758 -2.018912,-3.6347 0.625666,0.8663 1.415674,3.2504 -0.655011,3.7361 0.707605,1.429 2.152343,3.9444 0.818583,4.9621 0.284298,-1.9679 -3.187187,-0.3606 -0.963277,-0.3346 0.359833,1.2022 -0.536191,3.5425 1.292995,3.2113 1.879285,2.6972 -3.10468,4.4447 -1.641822,7.3199 1.761595,1.6842 4.400954,6.005 -0.192918,4.8845 l -0.41994,-0.015 -0.418565,0.016 0,0 z" id="path4834" style="fill:&fill_color;;fill-opacity:1;stroke:&stroke_color;;stroke-width:3.00911832;stroke-miterlimit:4;stroke-opacity:1;stroke-dasharray:none"/>
  </g>
</svg>