<?xml version="1.0" ?>
<!DOCTYPE svg  PUBLIC '-//W3C//DTD SVG 1.1//EN'  'http://www.w3.org/Graphics/SVG/1.1/DTD/svg11.dtd' [
	<!ENTITY stroke_color "#000">
	<!ENTITY fill_color "#aaa">
]>
<svg height="100px" viewBox="0 0 100 100" width="100px" xmlns="http://www.w3.org/2000/svg" xmlns:xlink="http://www.w3.org/1999/xlink" stroke-linecap="round" stroke-linejoin="round" stroke-width="5" stroke="&stroke_color;" fill="&fill_color;">
  <path
     d="m 27.244106,89.262617 c 0,0 -7.017272,0.778025 -10.256605,-0.320519 -2.428841,-0.823684 -5.502117,-2.034058 -6.250118,-4.487264 -0.714813,-2.344362 0.926132,-4.225902 2.164151,-6.341156 0.575464,-0.983225 -0.571555,-1.444017 -1.19493,-2.164151 C 11.45019,75.653313 7.9191641,75.400968 11.057902,71.473819 10.330296,70.77052 8.8633092,71.582823 8.4937506,68.749408 8.3158082,67.385119 9.7164474,67.139013 9.7758261,66.185257 9.8356669,65.224079 10.090014,64.642891 9.4642695,63.910847 8.0043824,62.202958 3.9408345,62.86163 3.03467,60.805658 2.5905119,59.79792 3.2095049,58.043342 3.6859672,57.050469 5.8631447,52.513573 11.66244,49.928135 12.820756,45.03101 c 0.400332,-1.692522 -1.254103,-1.59493 -0.961557,-5.128302 0.553581,-6.686149 3.897973,-15.42045 6.891156,-18.910614 5.730863,-6.682403 16.073443,-8.814921 24.840214,-9.615567 9.941246,-0.907909 22.497161,0.783036 28.786441,4.556486 5.225846,3.13541 8.368285,6.056785 10.797642,10.668161 2.895643,5.496474 4.190816,12.173259 3.285967,18.319577 -0.62656,4.255998 -3.434782,7.664991 -5.689859,11.328421 -1.608169,2.612511 -4.425275,4.588359 -5.288562,7.532193 -1.083276,3.694003 0.480779,11.538681 0.480779,11.538681"
     id="path3058"
     style="fill:none;stroke:&stroke_color;;stroke-width:5;stroke-linecap:round;stroke-linejoin:miter;stroke-miterlimit:4;stroke-opacity:1;stroke-dasharray:none" />
  <path
     d="m 67.889791,48.869614 c 0.672525,-0.364284 3.279585,0.776458 4.82898,1.420288 1.54569,0.642291 2.745891,2.651206 4.402895,2.414491 1.325603,-0.189372 2.272461,-2.272462 2.840577,-2.840577 0.568115,-0.568116 2.198384,-8.228133 1.704346,-12.35651 -0.598563,-5.001834 -2.137887,-10.344917 -5.539125,-14.060856 -4.14561,-4.529185 -10.499599,-6.826991 -16.475347,-8.237674 -6.911472,-1.631577 -20.594183,0 -21.304327,0 -0.710145,0 -11.518071,3.26431 -15.481145,7.3855 -3.821984,3.974471 -6.903588,9.695552 -6.533327,15.197087 0.185369,2.754314 1.90616,5.66062 4.260865,7.101443 4.16903,2.550991 10.490495,-1.606062 14.628972,0.994202 2.028651,1.27463 1.708543,4.717444 3.550721,6.249269 2.00311,1.665645 4.783397,2.430495 7.3855,2.55652 4.037203,0.19553 7.830539,-2.020449 11.788395,-2.840577 2.164484,-0.448514 4.445238,-0.410946 6.533327,-1.136231 1.220672,-0.423993 3.408693,-1.846375 3.408693,-1.846375 z"
     id="path3830"
     style="fill:&fill_color;;fill-opacity:1;stroke:&fill_color;;stroke-width:1px;stroke-linecap:butt;stroke-linejoin:miter;stroke-opacity:1" />
  <text
     x="41.89851"
     y="44.608749"
     id="text3833"
     xml:space="preserve"
     style="font-size:11px;font-style:normal;font-weight:normal;line-height:125%;letter-spacing:0px;word-spacing:0px;fill:&stroke_color;;fill-opacity:1;stroke:none;font-family:Sans"><tspan
       x="41.89851"
       y="44.608749"
       id="tspan3835"
       style="font-size:32px;font-weight:bold;fill:&stroke_color;;fill-opacity:1;-inkscape-font-specification:Sans Bold">?</tspan></text>
</svg>
