<?xml version="1.0" ?><!-- Created with Inkscape (http://www.inkscape.org/) --><!DOCTYPE svg  PUBLIC '-//W3C//DTD SVG 1.1//EN'  'http://www.w3.org/Graphics/SVG/1.1/DTD/svg11.dtd' [
	<!ENTITY stroke_color "#000000">
	<!ENTITY fill_color "#cc0000">
]><svg height="55" id="svg2" inkscape:version="0.47pre4 r22446" sodipodi:docname="icono.svg" version="1.1" width="55" xmlns="http://www.w3.org/2000/svg" xmlns:cc="http://creativecommons.org/ns#" xmlns:dc="http://purl.org/dc/elements/1.1/" xmlns:inkscape="http://www.inkscape.org/namespaces/inkscape" xmlns:rdf="http://www.w3.org/1999/02/22-rdf-syntax-ns#" xmlns:sodipodi="http://sodipodi.sourceforge.net/DTD/sodipodi-0.dtd" xmlns:svg="http://www.w3.org/2000/svg">
  <defs id="defs4">
    <inkscape:perspective id="perspective10" inkscape:persp3d-origin="372.04724 : 350.78739 : 1" inkscape:vp_x="0 : 526.18109 : 1" inkscape:vp_y="0 : 1000 : 0" inkscape:vp_z="744.09448 : 526.18109 : 1" sodipodi:type="inkscape:persp3d"/>
    <inkscape:perspective id="perspective2832" inkscape:persp3d-origin="0.5 : 0.33333333 : 1" inkscape:vp_x="0 : 0.5 : 1" inkscape:vp_y="0 : 1000 : 0" inkscape:vp_z="1 : 0.5 : 1" sodipodi:type="inkscape:persp3d"/>
  </defs>
  <sodipodi:namedview bordercolor="#666666" borderopacity="1.0" id="base" inkscape:current-layer="layer1" inkscape:cx="41.643878" inkscape:cy="34.17616" inkscape:document-units="px" inkscape:pageopacity="0.0" inkscape:pageshadow="2" inkscape:window-height="723" inkscape:window-maximized="1" inkscape:window-width="1366" inkscape:window-x="0" inkscape:window-y="20" inkscape:zoom="11.844038" pagecolor="#ffffff" showgrid="false"/>
  <metadata id="metadata7">
    <rdf:RDF>
      <cc:Work rdf:about="">
        <dc:format>image/svg+xml</dc:format>
        <dc:type rdf:resource="http://purl.org/dc/dcmitype/StillImage"/>
        <dc:title/>
      </cc:Work>
    </rdf:RDF>
  </metadata>
  <g id="layer1" inkscape:groupmode="layer" inkscape:label="Capa 1" transform="translate(0,-997.36218)">
    <path d="m 32.357336,1002.884 c -0.322467,0.8695 0.716759,3.3339 -0.817068,2.6422 -10.656496,-2.0726 -22.5674729,4.776 -25.0270952,15.5359 -0.3214539,1.2014 -0.2110811,2.7288 -1.6814703,2.9595 -2.8994462,1.5606 -3.243784,6.2599 -0.3183381,7.9373 0.9969584,0.7404 2.7623183,0.2698 2.7589302,1.9631 4.0079044,10.3469 16.7598634,16.1134 27.1754614,12.3409 6.337356,-2.1293 11.762282,-7.2318 13.762817,-13.6567 4.582388,0.088 6.322185,-7.221 1.803916,-8.7756 -1.792666,-0.2954 -1.03147,-2.5794 -1.793305,-3.8094 -1.255121,-3.918 -3.728138,-7.4154 -6.897325,-10.017 1.670537,-2.1567 -0.709621,-6.0201 -3.395606,-4.7327 -0.750735,-0.043 -1.485588,-1.3755 -2.387536,-1.6766 -1.001009,-0.1834 -3.853562,-3.3655 -3.183381,-0.7109 z" id="contorno" inkscape:label="#path3636" style="opacity:0.91379310999999996;fill:&fill_color;;fill-opacity:1;fill-rule:evenodd;stroke:&stroke_color;;stroke-opacity:1;stroke-width:0.4;stroke-miterlimit:4;stroke-dasharray:none"/>
    <path d="m 92.630989,46.408855 a 41.719299,41.719299 0 1 1 -83.4385986,0 41.719299,41.719299 0 1 1 83.4385986,0 z" id="path2838" sodipodi:cx="50.91169" sodipodi:cy="46.408855" sodipodi:rx="41.719299" sodipodi:ry="41.719299" sodipodi:type="arc" style="fill:#e9c57c;fill-opacity:1;fill-rule:evenodd;stroke:none" transform="matrix(0.06164392,0,0,0.05972421,44.970944,1025.1835)"/>
    <path d="m 92.630989,46.408855 a 41.719299,41.719299 0 1 1 -83.4385986,0 41.719299,41.719299 0 1 1 83.4385986,0 z" id="path2840" sodipodi:cx="50.91169" sodipodi:cy="46.408855" sodipodi:rx="41.719299" sodipodi:ry="41.719299" sodipodi:type="arc" style="fill:#e9c57c;fill-opacity:1;fill-rule:evenodd;stroke:none" transform="matrix(0.06164392,0,0,0.05972421,4.0937859,1025.3188)"/>
    <path d="m 92.630989,46.408855 a 41.719299,41.719299 0 1 1 -83.4385986,0 41.719299,41.719299 0 1 1 83.4385986,0 z" id="path2818" sodipodi:cx="50.91169" sodipodi:cy="46.408855" sodipodi:rx="41.719299" sodipodi:ry="41.719299" sodipodi:type="arc" style="fill:#ffdc94;fill-opacity:1;fill-rule:evenodd;stroke:none" transform="matrix(0.46881833,0,0,0.45421844,3.7347498,1005.1959)"/>
    <path d="m 34.675646,1005.2351 c 0,0 -0.02393,0.1436 0.502482,1.5792 0.343016,0.9355 0.351302,1.6594 0.299093,2.1116 -2.409961,-1.0285 -5.069678,-1.5971 -7.872173,-1.5971 -10.802012,0 -19.560796,8.0962 -19.560796,18.5618 0,0.1615 2.255888,0.3049 4.354819,0.072 3.34142,-0.3711 8.092918,0.646 14.727425,0.646 7.426537,0 11.238157,-5.2568 11.628804,-5.9041 0.81662,-1.3532 8.021723,5.5854 8.404561,5.5692 0,-6.6849 -3.570542,-12.5565 -8.96686,-15.9298 0.134511,-0.3599 0.312597,-0.9068 0.550336,-1.7587 0.574262,-2.0578 1.124595,-0.6221 1.124595,-0.6221 0,0 0.19142,-0.4786 -0.430696,-0.9571 -0.622115,-0.4786 -2.344903,2.4406 -2.344903,2.4406 l -0.04785,-1.3878 c -0.04785,-1.3878 -2.368832,-2.8235 -2.368832,-2.8235 z" id="path2844" sodipodi:nodetypes="cscsssssccscsccc" style="fill:&stroke_color;;fill-opacity:1;fill-rule:evenodd;stroke:none"/>
    <path d="m 49.14392,46.055302 a 11.667262,11.667262 0 1 1 -23.334524,0 11.667262,11.667262 0 1 1 23.334524,0 z" id="path2822" sodipodi:cx="37.476658" sodipodi:cy="46.055302" sodipodi:rx="11.667262" sodipodi:ry="11.667262" sodipodi:type="arc" style="opacity:0.91379311;fill:#2e3436;fill-opacity:1;fill-rule:evenodd;stroke:none" transform="matrix(0.10683825,0,0,0.1998802,26.658301,1021.8727)"/>
    <path d="m 49.14392,46.055302 a 11.667262,11.667262 0 1 1 -23.334524,0 11.667262,11.667262 0 1 1 23.334524,0 z" id="path2842" sodipodi:cx="37.476658" sodipodi:cy="46.055302" sodipodi:rx="11.667262" sodipodi:ry="11.667262" sodipodi:type="arc" style="opacity:0.91379311;fill:#2e3436;fill-opacity:1;fill-rule:evenodd;stroke:none" transform="matrix(0.10683825,0,0,0.1998802,20.929037,1021.8124)"/>
    <path d="m 16.548359,1033.0588 c 0.210118,8.7127 5.04807,9.6998 11.121877,10.183 6.073807,0.4833 13.746992,-3.9903 11.699642,-10.7608 -7.716824,5.6202 -15.296445,4.449 -22.821519,0.5778 z" id="path3621" sodipodi:nodetypes="czcc" style="fill:#323232;fill-opacity:1;stroke:#323232;stroke-width:0.14443998px;stroke-linecap:butt;stroke-linejoin:miter;stroke-opacity:1"/>
    <rect height="6.9372373" id="rect3624" ry="0.11070058" style="fill:#323232;fill-opacity:1;fill-rule:evenodd;stroke:none" width="0.21665996" x="20.628786" y="1034.8644"/>
    <rect height="6.9372373" id="rect3626" ry="0.11070059" style="fill:#323232;fill-opacity:1;fill-rule:evenodd;stroke:none" width="0.21665996" x="27.814674" y="1036.3322"/>
    <rect height="6.7886796" id="rect3628" ry="0.10832998" style="fill:#323232;fill-opacity:1;fill-rule:evenodd;stroke:none" width="0.21665996" x="34.422798" y="1035.1171"/>
    <path d="m 16.801128,1035.5504 c 0,0 3.833648,4.2024 11.157989,4.6582 8.124746,0.5055 11.59812,-5.889 11.59812,-5.889" id="path3630" sodipodi:nodetypes="csc" style="fill:none;stroke:#323232;stroke-width:0.14443998px;stroke-linecap:butt;stroke-linejoin:miter;stroke-opacity:1"/>
    <path d="m 39.31708,1032.5078 c -0.05097,0.2856 -0.286807,0.7875 -0.635733,1.8221 -0.361347,1.0714 -1.051446,2.1885 -1.036627,2.2497 0.01783,0.074 1.267301,1.3768 1.008899,1.7226 1.049368,-1.4559 1.513693,-4.9408 0.663461,-5.7944 z" id="path3632" sodipodi:nodetypes="csscc" style="fill:#323232;fill-opacity:1;stroke:none"/>
    <path d="m 16.640392,1033.1676 c 0.05097,0.2856 0.285501,0.6513 0.897632,1.674 0.58073,0.9702 1.254831,2.2012 1.240012,2.2625 -0.01786,0.074 -1.267303,1.2922 -1.0089,1.638 -0.228516,-0.5351 -0.584415,-1.341 -0.804547,-2.193 -0.349455,-1.3524 -0.498216,-2.8078 -0.324197,-3.3815 z" id="path3634" sodipodi:nodetypes="csscsc" style="fill:#323232;fill-opacity:1;stroke:none"/>
    <path d="m 20.111992,1037.8511 c -1.03959,-0.5814 -1.296778,-0.7695 -1.431519,-1.0468 -0.142628,-0.2936 -1.140893,-2.0427 -1.619782,-2.8381 -0.279431,-0.4641 -0.361448,-0.6603 -0.276069,-0.6603 0.01724,0 0.247954,0.1089 0.512698,0.242 0.667339,0.3355 1.947529,0.8965 2.682288,1.1753 l 0.615183,0.2334 9e-5,1.5757 c 4.9e-5,0.8666 -0.0067,1.5749 -0.01492,1.5739 -0.0083,-10e-4 -0.21884,-0.1158 -0.467968,-0.2551 l -3e-6,0 z" id="path3785" style="fill:#ffffff;fill-opacity:1;fill-rule:evenodd;stroke:#323232;stroke-width:0.06002641;stroke-linecap:round;stroke-miterlimit:4;stroke-opacity:1;stroke-dasharray:0.06002641, 0.12005281;stroke-dashoffset:0"/>
    <path d="m 20.050411,1041.1827 c -0.804544,-0.5499 -1.609707,-1.4254 -2.073259,-2.2543 l -0.213725,-0.3821 0.155677,-0.2786 c 0.08562,-0.1532 0.29728,-0.4452 0.470353,-0.649 l 0.314678,-0.3705 0.390171,0.2509 c 0.214595,0.1379 0.640032,0.3912 0.945416,0.5627 l 0.555245,0.312 0,1.5568 c 0,0.8563 -0.0222,1.5569 -0.04934,1.5569 -0.02713,0 -0.249983,-0.1372 -0.495217,-0.3048 z" id="path3787" style="fill:#ffffff;fill-opacity:1;fill-rule:evenodd;stroke:#323232;stroke-width:0.06002641;stroke-linecap:round;stroke-miterlimit:4;stroke-opacity:1;stroke-dasharray:0.06002641, 0.12005281;stroke-dashoffset:0"/>
    <path d="m 26.957766,1043.0744 c -3.062249,-0.3222 -4.070922,-0.541 -5.807555,-1.2595 l -0.255112,-0.1055 0,-1.6077 0,-1.6077 0.464781,0.2147 c 1.688512,0.7802 3.918816,1.356 6.003064,1.55 l 0.435191,0.041 0,1.4345 c 0,0.789 -0.02026,1.4312 -0.04502,1.4271 -0.02476,0 -0.382669,-0.043 -0.79535,-0.086 l 0,0 z" id="path3789" style="fill:#ffffff;fill-opacity:1;fill-rule:evenodd;stroke:#323232;stroke-width:0.06002641;stroke-linecap:round;stroke-miterlimit:4;stroke-opacity:1;stroke-dasharray:0.06002641, 0.12005281;stroke-dashoffset:0"/>
    <path d="m 27.197871,1040.0397 c -1.966849,-0.1975 -4.165957,-0.7845 -5.789903,-1.5455 l -0.512869,-0.2403 0,-1.5908 0,-1.5908 0.525231,0.178 c 1.74002,0.5899 4.471346,1.1332 5.709494,1.1358 0.219006,3e-4 0.458969,0.017 0.533252,0.037 l 0.135059,0.036 0,1.8238 c 0,1.0031 -0.02026,1.8202 -0.04502,1.8158 -0.02476,0 -0.274621,-0.031 -0.555245,-0.059 z" id="path3791" style="fill:#ffffff;fill-opacity:1;fill-rule:evenodd;stroke:#323232;stroke-width:0.06002641;stroke-linecap:round;stroke-miterlimit:4;stroke-opacity:1;stroke-dasharray:0.06002641, 0.12005281;stroke-dashoffset:0"/>
    <path d="m 28.038241,1038.282 0,-1.8249 0.70531,-0.036 c 1.224183,-0.063 2.058771,-0.1576 2.956467,-0.3363 0.799705,-0.1592 2.339462,-0.5906 2.594023,-0.7269 0.101539,-0.054 0.106999,0.034 0.106999,1.7377 l 0,1.7949 -0.765337,0.3159 c -1.448895,0.5981 -3.007212,0.9006 -4.639103,0.9006 l -0.958359,0 0,-1.8249 z" id="path3793" style="fill:#ffffff;fill-opacity:1;fill-rule:evenodd;stroke:none"/>
    <path d="m 28.038101,1041.752 -1.4e-4,-1.435 0.525371,0.021 c 1.605883,0.063 3.599858,-0.2968 5.129957,-0.9267 0.353564,-0.1455 0.657447,-0.2646 0.675297,-0.2646 0.01785,0 0.03246,0.5958 0.03246,1.324 l 0,1.324 -0.456215,0.2079 c -1.477853,0.6735 -3.21751,1.0737 -4.983827,1.1466 l -0.922758,0.038 -1.4e-4,-1.435 z" id="path3795" style="fill:#ffffff;fill-opacity:1;fill-rule:evenodd;stroke:#323232;stroke-width:0.06002641;stroke-linecap:round;stroke-miterlimit:4;stroke-opacity:1;stroke-dasharray:0.06002641, 0.12005281;stroke-dashoffset:0"/>
    <path d="m 34.641146,1040.3208 0,-1.3527 0.345152,-0.1748 c 0.736564,-0.373 1.81663,-1.1516 2.477714,-1.7862 l 0.27174,-0.2608 0.328485,0.4213 c 0.180663,0.2318 0.387594,0.5319 0.45985,0.667 l 0.131365,0.2456 -0.154211,0.248 c -0.694357,1.1167 -2.064851,2.355 -3.454917,3.1218 l -0.405178,0.2234 0,-1.3526 z" id="path3797" style="fill:#ffffff;fill-opacity:1;fill-rule:evenodd;stroke:none"/>
    <path d="m 34.641146,1036.9706 0,-1.7669 0.225099,-0.068 c 0.643412,-0.194 2.909708,-1.416 3.901717,-2.1038 0.239353,-0.166 0.435192,-0.293 0.435192,-0.2823 0,0.043 -0.540724,1.5361 -0.713057,1.9683 -0.101692,0.255 -0.347004,0.7871 -0.545138,1.1823 -0.337221,0.6727 -0.392573,0.7469 -0.866019,1.1608 -0.603708,0.5278 -1.441809,1.128 -2.018816,1.4456 l -0.418978,0.2307 0,-1.7669 z" id="path3799" style="fill:#ffffff;fill-opacity:1;fill-rule:evenodd;stroke:none"/>
  </g>
</svg>