<?xml version="1.0" ?><!-- Generator: Adobe Illustrator 16.0.0, SVG Export Plug-In . SVG Version: 6.00 Build 0)  --><!DOCTYPE svg  PUBLIC '-//W3C//DTD SVG 1.1//EN'  'http://www.w3.org/Graphics/SVG/1.1/DTD/svg11.dtd' [
	<!ENTITY stroke_color "#666666">
	<!ENTITY fill_color "#ffffff">
]><svg enable-background="new 0 0 55 55" height="55px" id="Layer_1" inkscape:version="0.48.4 r9939" sodipodi:docname="3d20.sugar.svg" style="" version="1.1" viewBox="0 0 55 55" width="55px" x="0px" xml:space="preserve" xmlns="http://www.w3.org/2000/svg" xmlns:cc="http://creativecommons.org/ns#" xmlns:dc="http://purl.org/dc/elements/1.1/" xmlns:inkscape="http://www.inkscape.org/namespaces/inkscape" xmlns:rdf="http://www.w3.org/1999/02/22-rdf-syntax-ns#" xmlns:sodipodi="http://sodipodi.sourceforge.net/DTD/sodipodi-0.dtd" xmlns:svg="http://www.w3.org/2000/svg" y="0px"><metadata id="metadata3430" style=""><rdf:RDF style=""><cc:Work rdf:about="" style=""><dc:format style="">image/svg+xml</dc:format><dc:type rdf:resource="http://purl.org/dc/dcmitype/StillImage" style=""/></cc:Work></rdf:RDF></metadata><defs id="defs3428" style=""/><sodipodi:namedview bordercolor="#666666" borderopacity="1" gridtolerance="10" guidetolerance="10" id="namedview3426" inkscape:current-layer="Layer_1" inkscape:cx="32" inkscape:cy="32" inkscape:pageopacity="0" inkscape:pageshadow="2" inkscape:window-height="744" inkscape:window-maximized="1" inkscape:window-width="1301" inkscape:window-x="65" inkscape:window-y="24" inkscape:zoom="3.6875" objecttolerance="10" pagecolor="#ffffff" showgrid="false" style="fill:&fill_color;"/><g id="g3420" style="" transform="matrix(1.2792483,0,0,1.306041,-12.695656,-14.339008)"><path d="m 43.968,10.944 c -5.255,0 -9.53,4.274 -9.53,9.529 0,0.782 0.105,1.538 0.283,2.266 l -11.114,-2.266 -13.087,6.923 0.116,0.221 -0.133,-0.028 v 21.306 l 17.63,4.161 13.55,-7.456 V 29.715 c 0.733,0.182 1.496,0.289 2.285,0.289 5.255,0 9.529,-4.275 9.529,-9.53 0,-5.255 -4.274,-9.53 -9.529,-9.53 z M 27.245,51.787 11.44,48.148 V 28.749 l 15.805,3.402 v 19.636 z m 0.842,-20.413 -16.311,-3.511 11.981,-6.338 11.301,2.303 c 0.405,1.072 0.995,2.051 1.734,2.898 l -8.705,4.648 z m 12.034,-7.081 c -0.947,0 -1.763,-0.264 -2.183,-0.54 l 0.336,-1.115 c 0.3,0.18 1.031,0.479 1.774,0.479 1.128,0 1.584,-0.636 1.571,-1.247 0,-0.924 -0.863,-1.319 -1.763,-1.319 h -0.684 v -1.079 h 0.659 c 0.684,0 1.548,-0.313 1.548,-1.092 0,-0.527 -0.396,-0.972 -1.248,-0.972 -0.635,0 -1.271,0.276 -1.595,0.492 L 38.2,16.833 c 0.444,-0.312 1.308,-0.6 2.243,-0.6 1.606,0 2.435,0.888 2.435,1.907 0,0.815 -0.479,1.486 -1.439,1.822 v 0.024 c 0.947,0.168 1.715,0.888 1.715,1.942 10e-4,1.321 -1.102,2.365 -3.033,2.365 z m 9.771,-1.151 c -0.804,0.731 -2.087,1.104 -3.658,1.104 -0.863,0 -1.512,-0.048 -1.991,-0.108 v -7.951 c 0.647,-0.108 1.476,-0.168 2.351,-0.168 1.512,0 2.555,0.312 3.299,0.936 0.779,0.636 1.259,1.595 1.259,2.974 -0.002,1.437 -0.493,2.517 -1.26,3.213 z" id="path3422" inkscape:connector-curvature="0" style=""/><path d="m 46.725,17.169 c -0.468,0 -0.803,0.036 -1.007,0.084 v 5.78 c 0.204,0.036 0.516,0.036 0.815,0.036 1.919,0.012 3.059,-1.043 3.059,-3.094 0.012,-1.787 -1.02,-2.806 -2.867,-2.806 z" id="path3424" inkscape:connector-curvature="0" style=""/></g></svg>