<?xml version="1.0" ?><!-- Creator: CorelDRAW --><!DOCTYPE svg  PUBLIC '-//W3C//DTD SVG 1.1//EN'  'http://www.w3.org/Graphics/SVG/1.1/DTD/svg11.dtd' [
	<!ENTITY stroke_color "#00ff00">
	<!ENTITY fill_color "#0000ff">
]><svg height="55" id="svg2" inkscape:version="0.48.4 r9939" sodipodi:docname="activity-vnclauncher.svg" style="fill-rule:evenodd" version="1.1" viewBox="0 0 4.163192 4.163192" width="55" xml:space="preserve" xmlns="http://www.w3.org/2000/svg" xmlns:cc="http://creativecommons.org/ns#" xmlns:dc="http://purl.org/dc/elements/1.1/" xmlns:inkscape="http://www.inkscape.org/namespaces/inkscape" xmlns:rdf="http://www.w3.org/1999/02/22-rdf-syntax-ns#" xmlns:sodipodi="http://sodipodi.sourceforge.net/DTD/sodipodi-0.dtd" xmlns:svg="http://www.w3.org/2000/svg"><metadata id="metadata22"><rdf:RDF><cc:Work rdf:about=""><dc:format>image/svg+xml</dc:format><dc:type rdf:resource="http://purl.org/dc/dcmitype/StillImage"/></cc:Work></rdf:RDF></metadata><sodipodi:namedview bordercolor="#666666" borderopacity="1" gridtolerance="10" guidetolerance="10" id="namedview20" inkscape:current-layer="svg2" inkscape:cx="71.834842" inkscape:cy="7.7587586" inkscape:guide-bbox="true" inkscape:pageopacity="0" inkscape:pageshadow="2" inkscape:window-height="551" inkscape:window-maximized="1" inkscape:window-width="1024" inkscape:window-x="0" inkscape:window-y="25" inkscape:zoom="4" objecttolerance="10" pagecolor="#ffffff" showgrid="false" showguides="true"/><defs id="defs4"><style id="style6" type="text/css">
    .str0 {stroke:white;stroke-width:0.0481685}
    .str1 {stroke:#010101;stroke-width:0.192674}
    .str3 {stroke:#010101;stroke-width:0.192674}
    .str2 {stroke:#010101;stroke-width:0.192674;stroke-linecap:round}
    .fil0 {fill:#FFFFFF}
    .fil2 {fill:#FFFFFF}
    .fil1 {fill:#FFFFFF}
   </style></defs><rect height="33" id="rect3938" rx="4.3554327e-12" ry="8.0272794e-12" style="fill:&fill_color;;stroke:none;stroke-width:0.70399999999999996;stroke-miterlimit:4;stroke-dasharray:none" transform="scale(0.0756944,0.0756944)" width="44.75" x="5.75" y="6.25"/><g id="layer11" style="fill:&fill_color;;stroke:&stroke_color;" transform="matrix(0.2448791,0,0,0.2448791,-20.202648,-129.4186)"><path d="m 85.188,529 c -1.2016,0 -2.1875,0.98751 -2.1875,2.1874 v 8.6244 c 0,1.1998 0.98591,2.1874 2.1875,2.1874 h 11.625 c 1.2016,0 2.1875,-0.98751 2.1875,-2.1874 v -8.6244 C 99.0005,529.9876 98.01459,529 96.813,529 H 85.188 z m 0,1.9999 h 11.625 c 0.1238,0 0.1875,0.0566 0.1875,0.18749 v 8.6244 c 0,0.13088 -0.0637,0.18749 -0.1875,0.18749 H 85.188 c -0.1238,0 -0.1875,-0.0566 -0.1875,-0.18749 v -8.6244 c 0,-0.13088 0.0637,-0.18749 0.1875,-0.18749 z" id="rect11749-9" inkscape:connector-curvature="0" style="text-indent:0;text-transform:none;block-progression:tb;color:#bebebe;fill:&stroke_color;;stroke:#000000;stroke-width:0.35083902;stroke-miterlimit:4;stroke-dasharray:none"/><path d="m 87.907,543 a 1.0011479,1.0010479 0 1 0 0.09375,1.9999 h 6 a 1.0001,1 0 1 0 0,-1.9999 h -6 a 1.0001,1 0 0 0 -0.0937,0 z" id="path11751-0" inkscape:connector-curvature="0" style="text-indent:0;text-transform:none;block-progression:tb;color:#bebebe;fill:&fill_color;;stroke:&stroke_color;;stroke-width:0.75268107;stroke-miterlimit:4;stroke-dasharray:none"/><path d="m 86.438,534 c -0.24298,0 -0.4375,0.29728 -0.4375,0.6562 v 3.6872 c 0,0.35893 0.19452,0.65621 0.4375,0.65621 h 4.125 c 0.24298,0 0.4375,-0.29728 0.4375,-0.65621 v -3.6872 C 91.0005,534.29728 90.80598,534 90.563,534 z m 0.5625,1.9999 h 3 v 1.9999 h -3 z" id="rect5771" inkscape:connector-curvature="0" style="color:#bebebe;fill:&fill_color;;stroke:&stroke_color;;stroke-width:0.53630458;stroke-miterlimit:4;stroke-dasharray:none"/><path d="m 92.438,532 c -0.24298,0 -0.4375,0.28489 -0.4375,0.62495 v 2.7498 c 0,0.34006 0.19452,0.62496 0.4375,0.62496 h 3.125 c 0.24298,0 0.4375,-0.2849 0.4375,-0.62496 v -2.7498 C 96.0005,532.28489 95.80598,532 95.563,532 z m 0.5625,1.9999 h 2 v 0.99993 h -2 z" id="rect7987" inkscape:connector-curvature="0" style="color:#bebebe;fill:&fill_color;;stroke:&stroke_color;;stroke-width:0.53630458;stroke-miterlimit:4;stroke-dasharray:none"/><path d="m 88.217022,543.43475 a 0.89016827,0.56582043 0 1 0 0.08335,1.1304 H 93.6352 a 0.88922696,0.56522205 0 1 0 0,-1.1304 h -5.334825 a 0.88922696,0.56522205 0 0 0 -0.08331,0 z" id="path3936" inkscape:connector-curvature="0" style="text-indent:0;text-transform:none;block-progression:tb;color:#bebebe;fill:none;stroke:#000000;stroke-width:0.20826317;stroke-miterlimit:4;stroke-dasharray:none"/></g></svg>