<?xml version="1.0" ?><!DOCTYPE svg  PUBLIC '-//W3C//DTD SVG 1.1//EN'  'http://www.w3.org/Graphics/SVG/1.1/DTD/svg11.dtd' [
	<!ENTITY stroke_color "#00ff03">
	<!ENTITY fill_color "#ff0000">
]><!--Generator: Xara Xtreme (www.xara.com), SVG filter version: 1.0.0.13--><svg fill-rule="evenodd" height="41.25pt" overflow="visible" stroke-linejoin="bevel" stroke-width="0.501" version="1.1" viewBox="0 0 41.25 41.25" width="41.25pt" xmlns="http://www.w3.org/2000/svg" xmlns:xlink="http://www.w3.org/1999/xlink">
 <defs>
  <marker id="DefaultArrow2" markerHeight="1" markerUnits="strokeWidth" markerWidth="1" orient="auto" overflow="visible" viewBox="0 0 1 1">
   <!-- REF_ARROW_STRAIGHT (-2) -->
   <g transform="scale(0.0092592592)">
    <!-- 1/108 -->
    <path d="M -9 54 L -9 -54 L 117 0 z"/>
   </g>
  </marker>
  <marker id="DefaultArrow3" markerHeight="1" markerUnits="strokeWidth" markerWidth="1" orient="auto" overflow="visible" viewBox="0 0 1 1">
   <!-- REF_ARROW_ANGLED -->
   <g transform="scale(0.0092592592)">
    <path d="M -27 54 L -9 0 L -27 -54 L 135 0 z"/>
   </g>
  </marker>
  <marker id="DefaultArrow4" markerHeight="1" markerUnits="strokeWidth" markerWidth="1" orient="auto" overflow="visible" viewBox="0 0 1 1">
   <!-- REF_ARROW_ROUNDED -->
   <g transform="scale(0.0092592592)">
    <path d="M -9,0 L -9,-45 C -9,-51.708 2.808,-56.580 9,-54 L 117,-9 C 120.916,-7.369 126.000,-4.242 126,0 C 126,4.242 120.916,7.369 117,9 L 9,54 C 2.808,56.580 -9,51.708 -9,45 z"/>
   </g>
  </marker>
  <marker id="DefaultArrow5" markerHeight="1" markerUnits="strokeWidth" markerWidth="1" orient="auto" overflow="visible" viewBox="0 0 1 1">
   <!-- REF_ARROW_SPOT -->
   <g transform="scale(0.0092592592)">
    <path d="M -54, 0 C -54,29.807 -29.807,54 0,54 C 29.807,54 54,29.807 54,0 C 54,-29.807 29.807,-54 0,-54 C -29.807,-54 -54,-29.807 -54,0 z"/>
   </g>
  </marker>
  <marker id="DefaultArrow6" markerHeight="1" markerUnits="strokeWidth" markerWidth="1" orient="auto" overflow="visible" viewBox="0 0 1 1">
   <!-- REF_ARROW_DIAMOND -->
   <g transform="scale(0.0092592592)">
    <path d="M -63,0 L 0,63 L 63,0 L 0,-63 z"/>
   </g>
  </marker>
  <marker id="DefaultArrow7" markerHeight="1" markerUnits="strokeWidth" markerWidth="1" orient="auto" overflow="visible" viewBox="0 0 1 1">
   <!-- REF_ARROW_FEATHER -->
   <g transform="scale(0.0092592592)">
    <path d="M 18,-54 L 108,-54 L 63,0 L 108,54 L 18, 54 L -36,0 z"/>
   </g>
  </marker>
  <marker id="DefaultArrow8" markerHeight="1" markerUnits="strokeWidth" markerWidth="1" orient="auto" overflow="visible" viewBox="0 0 1 1">
   <!-- REF_ARROW_FEATHER2 -->
   <g transform="scale(0.0092592592)">
    <path d="M -36,0 L 18,-54 L 54,-54 L 18,-18 L 27,-18 L 63,-54 L 99,-54 L 63,-18 L 72,-18 L 108,-54 L 144,-54 L 90,0 L 144,54 L 108,54 L 72,18 L 63,18 L 99,54 L 63,54 L 27,18 L 18,18 L 54,54 L 18,54 z"/>
   </g>
  </marker>
  <marker id="DefaultArrow9" markerHeight="1" markerUnits="strokeWidth" markerWidth="1" orient="auto" overflow="visible" viewBox="0 0 1 1">
   <!-- REF_ARROW_HOLLOWDIAMOND -->
   <g transform="scale(0.0092592592)">
    <path d="M 0,45 L -45,0 L 0, -45 L 45, 0 z M 0, 63 L-63, 0 L 0, -63 L 63, 0 z"/>
   </g>
  </marker>
  <filter id="StainedFilter">
   <feBlend in="SourceGraphic" in2="BackgroundImage" mode="multiply" result="blend"/>
   <feComposite in="blend" in2="SourceAlpha" operator="in" result="comp"/>
  </filter>
  <filter id="BleachFilter">
   <feBlend in="SourceGraphic" in2="BackgroundImage" mode="screen" result="blend"/>
   <feComposite in="blend" in2="SourceAlpha" operator="in" result="comp"/>
  </filter>
  <filter id="InvertTransparencyBitmapFilter">
   <feComponentTransfer>
    <feFuncR amplitude="1.055" exponent=".416666666" offset="-0.055" type="gamma"/>
    <feFuncG amplitude="1.055" exponent=".416666666" offset="-0.055" type="gamma"/>
    <feFuncB amplitude="1.055" exponent=".416666666" offset="-0.055" type="gamma"/>
   </feComponentTransfer>
   <feComponentTransfer>
    <feFuncR intercept="1" slope="-1" type="linear"/>
    <feFuncG intercept="1" slope="-1" type="linear"/>
    <feFuncB intercept="1" slope="-1" type="linear"/>
    <feFuncA intercept="0" slope="1" type="linear"/>
   </feComponentTransfer>
   <feComponentTransfer>
    <feFuncR amplitude="1" exponent="2.4" offset="0" type="gamma"/>
    <feFuncG amplitude="1" exponent="2.4" offset="0" type="gamma"/>
    <feFuncB amplitude="1" exponent="2.4" offset="0" type="gamma"/>
   </feComponentTransfer>
  </filter>
 </defs>
 <g fill="none" font-family="Times New Roman" font-size="16" id="Document" stroke="black" transform="scale(1 -1)">
  <g id="Spread" transform="translate(0 -41.25)">
   <g id="Layer 1">
    <path d="M 1.915,21.006 L 0.456,16.478 L 0.376,16.022 L 0.495,15.566 L 0.693,15.071 L 0.969,14.652 L 1.323,14.234 L 1.678,13.927 L 1.993,13.699 L 2.27,13.623 L 9.407,12.976 L 9.919,12.443 L 10.353,11.758 L 10.748,10.959 L 10.984,10.161 L 11.102,9.324 L 11.023,8.562 L 10.707,7.916 L 10.155,7.421 L 9.682,7.231 L 9.287,7.041 L 8.894,6.811 L 8.578,6.584 L 8.263,6.317 L 8.026,6.013 L 7.83,5.708 L 7.672,5.366 L 7.513,4.682 L 7.553,3.958 L 7.751,3.274 L 8.145,2.626 L 8.617,1.98 L 9.25,1.447 L 9.998,0.99 L 10.827,0.648 L 11.733,0.457 L 12.599,0.381 L 13.429,0.457 L 14.216,0.686 L 14.888,0.99 L 15.478,1.447 L 15.952,1.98 L 16.269,2.626 L 16.385,3.35 L 16.269,4.112 L 15.992,4.872 L 15.519,5.633 L 15.281,6.394 L 15.4,7.156 L 15.716,7.916 L 16.228,8.637 L 16.898,9.248 L 17.647,9.741 L 18.435,10.047 L 19.183,10.198 L 24.901,6.356 L 25.572,5.975 L 26.202,5.824 L 26.677,5.862 L 27.112,6.051 L 27.465,6.356 L 27.741,6.736 L 27.977,7.192 L 28.135,7.611 L 27.229,12.71 L 27.425,13.09 L 27.702,13.394 L 28.057,13.66 L 28.452,13.888 L 28.884,14.082 L 29.358,14.196 L 29.831,14.272 L 30.344,14.31 L 30.855,14.31 L 31.328,14.234 L 31.802,14.12 L 32.275,13.966 L 32.669,13.774 L 33.025,13.547 L 33.301,13.281 L 33.537,12.938 L 33.734,12.52 L 33.931,12.101 L 34.167,11.758 L 34.405,11.417 L 34.72,11.111 L 35.035,10.845 L 35.351,10.655 L 35.746,10.502 L 36.455,10.351 L 37.164,10.389 L 37.874,10.58 L 38.584,10.959 L 39.215,11.417 L 39.766,12.025 L 40.24,12.748 L 40.595,13.547 L 40.793,14.423 L 40.87,15.26 L 40.793,16.059 L 40.595,16.82 L 40.24,17.468 L 39.805,18.038 L 39.254,18.495 L 38.584,18.799 L 38.19,18.876 L 37.795,18.951 L 37.401,18.912 L 37.007,18.876 L 36.574,18.762 L 36.18,18.609 L 35.783,18.38 L 35.391,18.114 L 34.601,17.886 L 33.814,17.886 L 32.985,18.076 L 32.236,18.457 L 31.565,18.912 L 31.014,19.446 L 30.658,19.979 L 30.462,20.511 L 30.699,21.31 L 31.093,21.92 L 31.565,22.452 L 32.118,22.87 L 32.709,23.289 L 33.261,23.746 L 33.734,24.354 L 34.129,25.077 L 34.167,25.535 L 34.01,26.068 L 33.734,26.638 L 33.301,27.209 L 32.827,27.742 L 32.275,28.16 L 31.684,28.464 L 31.132,28.616 L 25.139,29.111 L 24.508,29.301 L 24.075,29.758 L 23.917,30.366 L 23.917,31.127 L 24.113,31.927 L 24.508,32.687 L 25.02,33.334 L 25.691,33.79 L 26.124,33.982 L 26.559,34.17 L 26.914,34.399 L 27.267,34.627 L 27.543,34.894 L 27.819,35.199 L 28.017,35.541 L 28.175,35.883 L 28.332,36.571 L 28.293,37.293 L 28.095,37.978 L 27.741,38.663 L 27.229,39.271 L 26.597,39.805 L 25.85,40.261 L 25.02,40.604 L 24.153,40.794 L 23.285,40.869 L 22.457,40.794 L 21.669,40.604 L 20.958,40.261 L 20.368,39.805 L 19.895,39.271 L 19.579,38.625 L 19.422,37.902 L 19.5,37.103 L 19.776,36.341 L 20.25,35.58 L 20.445,34.818 L 20.329,34.019 L 19.975,33.258 L 19.422,32.572 L 18.752,32.003 L 18.081,31.66 L 17.411,31.546 L 16.898,31.736 L 9.801,35.465 L 9.367,35.617 L 8.974,35.693 L 8.578,35.655 L 8.223,35.541 L 7.869,35.313 L 7.593,35.046 L 7.317,34.703 L 7.119,34.323 L 6.251,32.954 L 5.463,31.927 L 4.675,31.241 L 4.005,30.709 L 3.453,30.329 L 3.018,29.909 L 2.742,29.376 L 2.665,28.693 L 2.861,27.97 L 3.255,27.36 L 3.847,26.867 L 4.557,26.486 L 5.346,26.257 L 6.213,26.143 L 7.079,26.257 L 7.869,26.523 L 8.263,26.79 L 8.696,26.98 L 9.091,27.171 L 9.485,27.285 L 9.919,27.322 L 10.314,27.322 L 10.668,27.285 L 11.061,27.209 L 11.733,26.904 L 12.284,26.448 L 12.717,25.877 L 13.073,25.192 L 13.27,24.43 L 13.35,23.631 L 13.27,22.794 L 13.073,21.92 L 12.717,21.12 L 12.246,20.397 L 11.694,19.789 L 11.061,19.332 L 10.393,18.99 L 9.682,18.799 L 8.934,18.762 L 8.223,18.912 L 7.869,19.066 L 7.513,19.256 L 7.198,19.522 L 6.922,19.826 L 6.686,20.169 L 6.449,20.511 L 6.251,20.93 L 6.055,21.349 L 5.621,21.92 L 5.148,22.262 L 4.635,22.414 L 4.083,22.376 L 3.532,22.223 L 2.979,21.882 L 2.428,21.5 L 1.915,21.006 Z" fill="&stroke_color;" marker-end="none" marker-start="none" stroke="&fill_color;" stroke-miterlimit="79.8403193612775" stroke-width="0.763"/>
   </g>
  </g>
 </g>
</svg>