<?xml version="1.0" encoding="UTF-8" standalone="no"?>
<!-- Created with Inkscape (http://www.inkscape.org/) -->
<!DOCTYPE svg PUBLIC "-//W3C//DTD SVG 1.1//EN"
 "http://www.w3.org/Graphics/SVG/1.1/DTD/svg11.dtd" [
  <!ENTITY fill_color "#FFFFFF">
  <!ENTITY stroke_color "#000000">
]>
<svg
   xmlns:svg="http://www.w3.org/2000/svg"
   xmlns="http://www.w3.org/2000/svg"
   version="1.0"
   width="48"
   height="48"
   id="svg2435">
  <defs
     id="defs2437" />
  <g
     id="layer1">
    <path
       d="M 35.816281,25.771428 C 35.816281,36.596238 30.433905,45.37148 23.794409,45.37148 C 17.154912,45.37148 11.772537,36.596238 11.772537,25.771428 C 11.772537,14.946618 17.154912,6.1713761 23.794409,6.1713761 C 30.433905,6.1713761 35.816281,14.946618 35.816281,25.771428 z"
       id="path2445"
       fill="&fill_color;"
       stroke="&stroke_color;"
       stroke-width="3.5"/>
    <path
       d="M 24.413999,14.752935 C 24.414178,15.134601 24.120373,15.444103 23.757883,15.444103 C 23.395394,15.444103 23.101589,15.134601 23.101768,14.752935 C 23.101589,14.371269 23.395394,14.061769 23.757883,14.061769 C 24.120373,14.061769 24.414178,14.371269 24.413999,14.752935 z"
       id="path3231"
       fill="&fill_color;"
       stroke="&stroke_color;"
       stroke-width="3.5"/>
    <path
       d="M 22.983642,4.7728793 C 23.271833,4.4617985 24.319293,3.9334549 24.726711,3.7366667 C 25.740758,3.2468705 24.351458,2.5126833 24.0563,2.441401 C 23.21692,2.2386858 23.547233,1.7410958 23.788135,1.2756618 C 23.89607,1.0671286 24.462041,0.82063106 24.592629,0.75755546"
       id="path2383"
       fill="&fill_color;"
       stroke="&stroke_color;"
       stroke-width="1.5"/>
  </g>
</svg>
