<?xml version="1.0" encoding="UTF-8" standalone="no"?>
<!-- Created with Inkscape (http://www.inkscape.org/) -->
<!DOCTYPE svg  PUBLIC '-//W3C//DTD SVG 1.1//EN'  'http://www.w3.org/Graphics/SVG/1.1/DTD/svg11.dtd' [
	<!ENTITY stroke_color "#666666">
	<!ENTITY fill_color "#ffffff">
]>
<svg
   xmlns:dc="http://purl.org/dc/elements/1.1/"
   xmlns:cc="http://creativecommons.org/ns#"
   xmlns:rdf="http://www.w3.org/1999/02/22-rdf-syntax-ns#"
   xmlns:svg="http://www.w3.org/2000/svg"
   xmlns="http://www.w3.org/2000/svg"
   xmlns:sodipodi="http://sodipodi.sourceforge.net/DTD/sodipodi-0.dtd"
   xmlns:inkscape="http://www.inkscape.org/namespaces/inkscape"
   width="55"
   height="55"
   id="svg2"
   version="1.1"
   inkscape:version="0.48.3.1 r9886"
   sodipodi:docname="New document 1">
  <defs
     id="defs4" />
  <sodipodi:namedview
     id="base"
     pagecolor="#ffffff"
     bordercolor="#666666"
     borderopacity="1.0"
     inkscape:pageopacity="0.0"
     inkscape:pageshadow="2"
     inkscape:zoom="7.472722"
     inkscape:cx="51.958412"
     inkscape:cy="22.977936"
     inkscape:document-units="px"
     inkscape:current-layer="layer1"
     showgrid="false"
     inkscape:window-width="1366"
     inkscape:window-height="709"
     inkscape:window-x="0"
     inkscape:window-y="27"
     inkscape:window-maximized="1" />
  <metadata
     id="metadata7">
    <rdf:RDF>
      <cc:Work
         rdf:about="">
        <dc:format>image/svg+xml</dc:format>
        <dc:type
           rdf:resource="http://purl.org/dc/dcmitype/StillImage" />
        <dc:title></dc:title>
      </cc:Work>
    </rdf:RDF>
  </metadata>
  <g
     inkscape:label="Layer 1"
     inkscape:groupmode="layer"
     id="layer1"
     transform="translate(0,-997.36218)">
    <path
       sodipodi:type="arc"
       style="fill:#ffffff;fill-rule:evenodd;stroke:#000000;stroke-width:1px;stroke-linecap:butt;stroke-linejoin:miter;stroke-opacity:1"
       id="path2999" stroke="&stroke_color;" fill="&fill_color;"
       sodipodi:cx="18.199526"
       sodipodi:cy="38.004856"
       sodipodi:rx="14.051105"
       sodipodi:ry="13.783464"
       d="m 32.25063,38.004856 a 14.051105,13.783464 0 1 1 -28.1022087,0 14.051105,13.783464 0 1 1 28.1022087,0 z"
       transform="matrix(0.98128354,0,0,1.0003376,1.9465067,996.54639)" />
    <path
       sodipodi:type="arc"
       style="fill:#ffffff;fill-rule:evenodd;stroke:#000000;stroke-width:1px;stroke-linecap:butt;stroke-linejoin:miter;stroke-opacity:1"
       id="path3001" stroke="&stroke_color;" fill="&fill_color;"
       sodipodi:cx="41.618034"
       sodipodi:cy="17.396568"
       sodipodi:rx="11.909984"
       sodipodi:ry="12.445264"
       d="m 53.528018,17.396568 a 11.909984,12.445264 0 1 1 -23.819967,0 11.909984,12.445264 0 1 1 23.819967,0 z"
       transform="matrix(0.86594906,0,0,0.82870393,5.1103337,998.00055)" />
    <path
       sodipodi:type="arc"
       style="fill-rule:evenodd;stroke-width:1px;stroke-linecap:butt;stroke-linejoin:miter;stroke-opacity:1"
       id="path3001-9" stroke="&stroke_color;" fill="&fill_color;"
       sodipodi:cx="41.618034"
       sodipodi:cy="17.396568"
       sodipodi:rx="11.909984"
       sodipodi:ry="12.445264"
       d="m 53.528018,17.396568 a 11.909984,12.445264 0 1 1 -23.819967,0 11.909984,12.445264 0 1 1 23.819967,0 z"
       transform="matrix(0.72565676,0,0,0.69444571,-10.328204,1022.7508)" />
    <path
       sodipodi:type="arc"
       style="fill-rule:evenodd;stroke-width:1px;stroke-linecap:butt;stroke-linejoin:miter;stroke-opacity:1"
       id="path3001-9-3" stroke="&stroke_color;" fill="&fill_color;"
       sodipodi:cx="41.618034"
       sodipodi:cy="17.396568"
       sodipodi:rx="11.909984"
       sodipodi:ry="12.445264"
       d="m 53.528018,17.396568 a 11.909984,12.445264 0 1 1 -23.819967,0 11.909984,12.445264 0 1 1 23.819967,0 z"
       transform="matrix(0.59076808,0,0,0.56535869,16.563235,1002.5815)" />
    <path
       sodipodi:type="arc"
       style="fill:#ffffff;fill-rule:evenodd;stroke:#000000;stroke-width:1px;stroke-linecap:butt;stroke-linejoin:miter;stroke-opacity:1"
       id="path3001-9-3-8" 
       sodipodi:cx="41.618034"
       sodipodi:cy="17.396568"
       sodipodi:rx="11.909984"
       sodipodi:ry="12.445264"
       d="m 53.528018,17.396568 a 11.909984,12.445264 0 1 1 -23.819967,0 11.909984,12.445264 0 1 1 23.819967,0 z"
       transform="matrix(0.4769921,0,0,0.47798169,-0.04610714,1026.5835)" />
    <path
       sodipodi:type="arc"
       style="fill:#ffffff;fill-rule:evenodd;stroke-width:1px;stroke-linecap:butt;stroke-linejoin:miter;stroke-opacity:1"
       id="path3001-9-3-8-8" stroke="&stroke_color;" fill="&fill_color;"
       sodipodi:cx="41.618034"
       sodipodi:cy="17.396568"
       sodipodi:rx="11.909984"
       sodipodi:ry="12.445264"
       d="m 53.528018,17.396568 a 11.909984,12.445264 0 1 1 -23.819967,0 11.909984,12.445264 0 1 1 23.819967,0 z"
       transform="matrix(0.36390368,0,0,0.35900459,26.138736,1006.1712)" />
    
    <rect stroke="&stroke_color;" fill="&fill_color;"       
       id="rect3083"
       width="6.9501677"
       height="4.9004655"
       x="-747.30511"
       y="697.35413"
       ry="0.59399587"
       transform="matrix(0.67804712,-0.73501844,0.73189074,0.68142201,0,0)" />
    <rect stroke="&stroke_color;" fill="&fill_color;" 
       
       id="rect3083-6"
       width="7.4658313"
       height="5.3927817"
       x="32.684891"
       y="1015.5206"
       ry="0.65367055"
       transform="matrix(0.99988441,0.01520415,-0.01604819,0.99987122,0,0)" />
    <rect stroke="&stroke_color;" fill="&fill_color;" 
       
       id="rect3083-6-2"
       width="6.9501677"
       height="4.9004655"
       x="798.27252"
       y="638.30426"
       ry="0.59399587"
       transform="matrix(0.64928185,0.76054788,-0.76352739,0.64577544,0,0)"
       inkscape:transform-center-x="0.65787899"
       inkscape:transform-center-y="-4.439195" />
    <rect stroke="&stroke_color;" fill="&fill_color;" 

       id="rect3083-6-2-3"
       width="6.9501677"
       height="4.9004655"
       x="1031.7188"
       y="-6.1568794"
       ry="0.59399587"
       transform="matrix(0.03117125,0.99951406,-0.99964691,0.02657182,0,0)"
       inkscape:transform-center-x="-2.2622234"
       inkscape:transform-center-y="-3.8757326" />
    <rect stroke="&stroke_color;" fill="&fill_color;" 

       id="rect3083-6-2-3-5"
       width="6.9501677"
       height="4.9004655"
       x="775.0658"
       y="-696.76801"
       ry="0.59399587"
       transform="matrix(-0.6412748,0.7673113,-0.76435246,-0.64479867,0,0)"
       inkscape:transform-center-x="-4.2666583"
       inkscape:transform-center-y="-1.3908343" />
    <rect stroke="&stroke_color;" fill="&fill_color;" 

       id="rect3083-6-2-3-5-0"
       width="6.9501677"
       height="4.9004655"
       x="-7.9532619"
       y="-1053.089"
       ry="0.59399587"
       transform="matrix(-0.99981617,0.01917381,-0.01457313,-0.99989381,0,0)"
       inkscape:transform-center-x="-3.8482782"
       inkscape:transform-center-y="2.3086679" />
    <rect stroke="&stroke_color;" fill="&fill_color;" 

       id="rect3083-6-2-3-5-0-0"
       width="6.9501677"
       height="4.9004655"
       x="-757.51202"
       y="-730.54285"
       ry="0.59399587"
       transform="matrix(-0.70212098,-0.71205767,0.71528081,-0.69883715,0,0)"
       inkscape:transform-center-x="-0.97425226"
       inkscape:transform-center-y="4.3806421" />
    <rect stroke="&stroke_color;" fill="&fill_color;" 
      
       id="rect3083-6-2-3-5-0-0-8"
       width="6.9501677"
       height="4.9004655"
       x="-1038.1637"
       y="-13.239439"
       ry="0.59399587"
       transform="matrix(-0.01396017,-0.99990255,0.9999562,-0.00935915,0,0)"
       inkscape:transform-center-x="2.3286959"
       inkscape:transform-center-y="3.8362268" />
    <rect stroke="&stroke_color;" fill="&fill_color;" 
      
       id="rect3083-6-8"
       width="7.4658313"
       height="5.3927817"
       x="988.08911"
       y="218.34746"
       ry="0.65367055"
       transform="matrix(0.24524962,0.96945997,-0.96966665,0.24443116,0,0)" />
    <rect stroke="&stroke_color;" fill="&fill_color;" 
      
       id="rect3083-6-2-3-1"
       width="6.9501677"
       height="4.9004655"
       x="915.61237"
       y="-437.31052"
       ry="0.59399587"
       transform="matrix(-0.37974282,0.9250921,-0.92333498,-0.38399547,0,0)"
       inkscape:transform-center-x="-3.6478254"
       inkscape:transform-center-y="-2.6139221" />
    <rect stroke="&stroke_color;" fill="&fill_color;" 
      
       id="rect3083-6-2-3-5-2"
       width="6.9501677"
       height="4.9004655"
       x="-117.55618"
       y="-1022.3768"
       ry="0.59399587"
       transform="matrix(-0.99778213,-0.06656442,0.07115485,-0.99746528,0,0)"
       inkscape:transform-center-x="-3.636338"
       inkscape:transform-center-y="2.6297945" />
    <rect stroke="&stroke_color;" fill="&fill_color;" 
      
       id="rect3083-6-8-4"
       width="7.4658313"
       height="5.3927817"
       x="653.19604"
       y="-760.57214"
       ry="0.65367055"
       transform="matrix(-0.73359569,0.67958617,-0.67896666,-0.7341691,0,0)" />
    <rect stroke="&stroke_color;" fill="&fill_color;" 
      
       id="rect3083-6-8-4-0"
       width="7.4658313"
       height="5.3927817"
       x="-600.99963"
       y="-809.05933"
       ry="0.65367055"
       transform="matrix(-0.83146371,-0.55557907,0.55628075,-0.83099442,0,0)" />
  </g>
</svg>
