<?xml version="1.0" ?><!DOCTYPE svg  PUBLIC '-//W3C//DTD SVG 1.1//EN'  'http://www.w3.org/Graphics/SVG/1.1/DTD/svg11.dtd' [
	<!ENTITY stroke_color "#666666">
	<!ENTITY fill_color "#ffffff">
]><svg height="55" id="svg20" version="1.1" viewBox="0 0 55 55" width="55" xmlns="http://www.w3.org/2000/svg" xmlns:cc="http://creativecommons.org/ns#" xmlns:dc="http://purl.org/dc/elements/1.1/" xmlns:rdf="http://www.w3.org/1999/02/22-rdf-syntax-ns#" xmlns:svg="http://www.w3.org/2000/svg">
  <metadata id="metadata26">
    <rdf:RDF>
      <cc:Work rdf:about="">
        <dc:format>image/svg+xml</dc:format>
        <dc:type rdf:resource="http://purl.org/dc/dcmitype/StillImage"/>
        <dc:title/>
      </cc:Work>
    </rdf:RDF>
  </metadata>
  <defs id="defs24"/>
  <path d="m 27.5,51.5 c -13.165867,0 -24,-10.834133 -24,-24 0,-13.165867 10.834133,-24 24,-24 13.165867,0 24,10.834133 24,24 C 51.326133,40.775733 41.2728,50.816267 28.115466,51.492534 Z M 26.977333,35.1192 c 1.538134,0.07573 3.051734,-0.759466 3.5104,-2.289067 0.252801,-0.843733 0.146134,-1.931733 0.146134,-2.7456 2.6272,-0.667733 5.202133,-1.9776 6.759467,-4.274133 1.983999,-2.9248 2.0448,-7.125333 0.388266,-10.208 -2.024533,-3.768533 -6.228267,-5.409067 -10.3168,-5.488 -2.282667,0.03947 -4.568533,0.674133 -6.545067,1.824 -2.482133,1.445333 -4.705067,4.154667 -3.990399,7.198934 0.188799,0.802133 0.638933,1.551999 1.361066,1.976533 2.597333,1.525333 4.410666,-1.623467 5.986133,-3.077334 0.937601,-0.864 2.2656,-1.461333 3.564801,-1.279999 1.540266,0.214399 3.010132,1.135999 3.469866,2.685866 0.161067,0.544 0.1664,1.1168 0.08747,1.675733 -0.263467,1.8752 -1.7472,2.718934 -3.431466,3.245867 -1.469867,0.459733 -4.174934,0.603733 -4.247467,2.647466 h 0.0011 v 4.8 c -0.01067,1.805867 1.1904,2.985601 2.871467,3.275734 z m 0.0064,10.321066 c 2.1088,0.102401 3.936,-1.624532 3.936,-3.740799 0,-2.076801 -1.706666,-3.6928 -3.744,-3.744 -2.072533,0.0043 -3.899733,1.826133 -3.738666,3.936 0.1408,1.856 1.374933,3.141333 3.169066,3.510399 z" id="path2" style="fill:&fill_color;;stroke:&stroke_color;;stroke-width:1.00157475"/>
  <g id="g16" style="fill:#ffffff;stroke:&stroke_color;">
    <g id="g8" style="fill:#ffffff;stroke:&stroke_color;;stroke-width:2.09378099" transform="matrix(0.49175612,0,0,0.44506553,27.229512,32.936252)">
      <path d="M 5.962,43.944 H 48.788 V 23.002 L 36.849,11.058 H 5.962 Z" id="path4"/>
      <path d="M 36.849,11.058 V 23.002 H 48.788" id="path6" style="opacity:0.98999999" transform="translate(-0.53922063,0.59578877)"/>
    </g>
    <g id="g14" style="fill:&stroke_color;;stroke:none" transform="matrix(1.0826179,0,0,1.0826179,-3.1187403,-2.4410496)">
      <path d="m 40.465838,41.462905 c -2.993558,0 -5.487233,2.985426 -5.487233,2.985426 0,0 2.493675,2.999777 5.487233,2.997863 2.994036,-0.0024 5.489146,-3.001212 5.489146,-3.001212 0,0 -2.49511,-2.983991 -5.489146,-2.982077 z m 0,5.090675 c -1.159059,0 -2.098552,-0.94045 -2.098552,-2.099509 0,-1.157145 0.939493,-2.09903 2.098552,-2.09903 1.157624,0 2.098073,0.941885 2.098073,2.09903 0,1.159537 -0.940449,2.099509 -2.098073,2.099509 z" id="path10"/>
      <circle cx="40.465839" cy="44.455029" id="circle12" r="0.95240879"/>
    </g>
  </g>
</svg>