<?xml version="1.0" ?><!DOCTYPE svg  PUBLIC '-//W3C//DTD SVG 1.1//EN'  'http://www.w3.org/Graphics/SVG/1.1/DTD/svg11.dtd' [
	<!ENTITY stroke_color "#00ff03">
	<!ENTITY fill_color "#ff0000">
]><!--Generator: Xara Xtreme (www.xara.com), SVG filter version: 1.0.0.13--><svg fill-rule="evenodd" height="41.25pt" overflow="visible" stroke-linejoin="bevel" stroke-width="0.501" version="1.1" viewBox="0 0 41.25 41.25" width="41.25pt" xmlns="http://www.w3.org/2000/svg" xmlns:xlink="http://www.w3.org/1999/xlink">
 <defs>
  <marker id="DefaultArrow2" markerHeight="1" markerUnits="strokeWidth" markerWidth="1" orient="auto" overflow="visible" viewBox="0 0 1 1">
   <!-- REF_ARROW_STRAIGHT (-2) -->
   <g transform="scale(0.0092592592)">
    <!-- 1/108 -->
    <path d="M -9 54 L -9 -54 L 117 0 z"/>
   </g>
  </marker>
  <marker id="DefaultArrow3" markerHeight="1" markerUnits="strokeWidth" markerWidth="1" orient="auto" overflow="visible" viewBox="0 0 1 1">
   <!-- REF_ARROW_ANGLED -->
   <g transform="scale(0.0092592592)">
    <path d="M -27 54 L -9 0 L -27 -54 L 135 0 z"/>
   </g>
  </marker>
  <marker id="DefaultArrow4" markerHeight="1" markerUnits="strokeWidth" markerWidth="1" orient="auto" overflow="visible" viewBox="0 0 1 1">
   <!-- REF_ARROW_ROUNDED -->
   <g transform="scale(0.0092592592)">
    <path d="M -9,0 L -9,-45 C -9,-51.708 2.808,-56.580 9,-54 L 117,-9 C 120.916,-7.369 126.000,-4.242 126,0 C 126,4.242 120.916,7.369 117,9 L 9,54 C 2.808,56.580 -9,51.708 -9,45 z"/>
   </g>
  </marker>
  <marker id="DefaultArrow5" markerHeight="1" markerUnits="strokeWidth" markerWidth="1" orient="auto" overflow="visible" viewBox="0 0 1 1">
   <!-- REF_ARROW_SPOT -->
   <g transform="scale(0.0092592592)">
    <path d="M -54, 0 C -54,29.807 -29.807,54 0,54 C 29.807,54 54,29.807 54,0 C 54,-29.807 29.807,-54 0,-54 C -29.807,-54 -54,-29.807 -54,0 z"/>
   </g>
  </marker>
  <marker id="DefaultArrow6" markerHeight="1" markerUnits="strokeWidth" markerWidth="1" orient="auto" overflow="visible" viewBox="0 0 1 1">
   <!-- REF_ARROW_DIAMOND -->
   <g transform="scale(0.0092592592)">
    <path d="M -63,0 L 0,63 L 63,0 L 0,-63 z"/>
   </g>
  </marker>
  <marker id="DefaultArrow7" markerHeight="1" markerUnits="strokeWidth" markerWidth="1" orient="auto" overflow="visible" viewBox="0 0 1 1">
   <!-- REF_ARROW_FEATHER -->
   <g transform="scale(0.0092592592)">
    <path d="M 18,-54 L 108,-54 L 63,0 L 108,54 L 18, 54 L -36,0 z"/>
   </g>
  </marker>
  <marker id="DefaultArrow8" markerHeight="1" markerUnits="strokeWidth" markerWidth="1" orient="auto" overflow="visible" viewBox="0 0 1 1">
   <!-- REF_ARROW_FEATHER2 -->
   <g transform="scale(0.0092592592)">
    <path d="M -36,0 L 18,-54 L 54,-54 L 18,-18 L 27,-18 L 63,-54 L 99,-54 L 63,-18 L 72,-18 L 108,-54 L 144,-54 L 90,0 L 144,54 L 108,54 L 72,18 L 63,18 L 99,54 L 63,54 L 27,18 L 18,18 L 54,54 L 18,54 z"/>
   </g>
  </marker>
  <marker id="DefaultArrow9" markerHeight="1" markerUnits="strokeWidth" markerWidth="1" orient="auto" overflow="visible" viewBox="0 0 1 1">
   <!-- REF_ARROW_HOLLOWDIAMOND -->
   <g transform="scale(0.0092592592)">
    <path d="M 0,45 L -45,0 L 0, -45 L 45, 0 z M 0, 63 L-63, 0 L 0, -63 L 63, 0 z"/>
   </g>
  </marker>
  <filter id="StainedFilter">
   <feBlend in="SourceGraphic" in2="BackgroundImage" mode="multiply" result="blend"/>
   <feComposite in="blend" in2="SourceAlpha" operator="in" result="comp"/>
  </filter>
  <filter id="BleachFilter">
   <feBlend in="SourceGraphic" in2="BackgroundImage" mode="screen" result="blend"/>
   <feComposite in="blend" in2="SourceAlpha" operator="in" result="comp"/>
  </filter>
  <filter id="InvertTransparencyBitmapFilter">
   <feComponentTransfer>
    <feFuncR amplitude="1.055" exponent=".416666666" offset="-0.055" type="gamma"/>
    <feFuncG amplitude="1.055" exponent=".416666666" offset="-0.055" type="gamma"/>
    <feFuncB amplitude="1.055" exponent=".416666666" offset="-0.055" type="gamma"/>
   </feComponentTransfer>
   <feComponentTransfer>
    <feFuncR intercept="1" slope="-1" type="linear"/>
    <feFuncG intercept="1" slope="-1" type="linear"/>
    <feFuncB intercept="1" slope="-1" type="linear"/>
    <feFuncA intercept="0" slope="1" type="linear"/>
   </feComponentTransfer>
   <feComponentTransfer>
    <feFuncR amplitude="1" exponent="2.4" offset="0" type="gamma"/>
    <feFuncG amplitude="1" exponent="2.4" offset="0" type="gamma"/>
    <feFuncB amplitude="1" exponent="2.4" offset="0" type="gamma"/>
   </feComponentTransfer>
  </filter>
 </defs>
 <g fill="none" font-family="Times New Roman" font-size="16" id="Document" stroke="black" transform="scale(1 -1)">
  <g id="Spread" transform="translate(0 -41.25)">
   <g id="Layer 1">
    <path d="M 19.614,13.639 C 18.547,13.098 17.483,12.416 16.495,11.559 C 14.916,9.604 12.466,8.345 9.71,8.345 C 4.95,8.345 1.092,12.087 1.092,16.698 C 1.092,21.315 4.95,25.05 9.71,25.05 C 12.235,25.05 14.506,23.997 16.083,22.318 C 16.825,21.621 17.629,21.034 18.454,20.54 C 17.744,22.51 16.614,24.642 14.817,26.44 L 14.815,26.44 C 13.118,27.965 12.057,30.145 12.057,32.565 C 12.057,37.177 15.914,40.917 20.669,40.917 C 25.429,40.917 29.285,37.177 29.285,32.565 C 29.285,30.145 28.223,27.965 26.526,26.44 C 24.786,24.698 23.69,22.585 23,20.615 C 23.873,21.154 24.717,21.798 25.489,22.569 L 25.489,22.487 C 27.059,24.106 29.287,25.117 31.756,25.117 C 36.517,25.117 40.374,21.375 40.374,16.764 C 40.374,12.147 36.517,8.412 31.756,8.412 C 29.287,8.412 27.059,9.421 25.489,11.039 L 25.489,10.859 C 24.375,11.973 23.133,12.831 21.88,13.491 C 21.984,12.257 22.283,9.828 23.109,7.4 C 24.284,3.943 26.52,0.484 30.77,0.489 L 10.742,0.489 C 18.09,0.496 19.395,10.829 19.614,13.639 Z" fill="&stroke_color;" fill-rule="nonzero" marker-end="none" marker-start="none" stroke="&fill_color;" stroke-miterlimit="79.8403193612775" stroke-width="0.821"/>
   </g>
  </g>
 </g>
</svg>