<?xml version="1.0" ?><!-- Generator: Adobe Illustrator 15.1.0, SVG Export Plug-In . SVG Version: 6.00 Build 0)  --><!DOCTYPE svg  PUBLIC '-//W3C//DTD SVG 1.1//EN'  'http://www.w3.org/Graphics/SVG/1.1/DTD/svg11.dtd' [
	<!ENTITY stroke_color "#ffffff">
	<!ENTITY fill_color "#000000">
]><svg enable-background="new 0 0 100 100" height="55" id="Layer_1" inkscape:version="0.48.4 r9939" sodipodi:docname="agenda.svg" version="1.1" viewBox="0 0 55 55" width="55" x="0px" xml:space="preserve" xmlns="http://www.w3.org/2000/svg" xmlns:cc="http://creativecommons.org/ns#" xmlns:dc="http://purl.org/dc/elements/1.1/" xmlns:inkscape="http://www.inkscape.org/namespaces/inkscape" xmlns:rdf="http://www.w3.org/1999/02/22-rdf-syntax-ns#" xmlns:sodipodi="http://sodipodi.sourceforge.net/DTD/sodipodi-0.dtd" xmlns:svg="http://www.w3.org/2000/svg" y="0px"><metadata id="metadata15"><rdf:RDF><cc:Work rdf:about=""><dc:format>image/svg+xml</dc:format><dc:type rdf:resource="http://purl.org/dc/dcmitype/StillImage"/><dc:title/></cc:Work></rdf:RDF></metadata><defs id="defs13"/><sodipodi:namedview bordercolor="#666666" borderopacity="1" gridtolerance="10" guidetolerance="10" id="namedview11" inkscape:current-layer="Layer_1" inkscape:cx="85.896284" inkscape:cy="40.12603" inkscape:pageopacity="0" inkscape:pageshadow="2" inkscape:window-height="551" inkscape:window-maximized="1" inkscape:window-width="1024" inkscape:window-x="0" inkscape:window-y="0" inkscape:zoom="4" objecttolerance="10" pagecolor="#ffffff" showgrid="false"/><path d="m 17.307942,34.854876 c 0.664904,-0.664905 1.33055,-1.33018 1.995084,-1.995456 2.069002,2.069376 4.13875,4.138381 6.208124,6.207756 0.241443,0.241445 0.644102,0.241072 0.885922,0 1.334265,-1.334266 2.66853,-2.668162 4.002797,-4.0028 0.241444,-0.241446 0.241444,-0.644475 0,-0.885921 -2.069376,-2.069374 -4.138752,-4.13912 -6.208127,-6.207752 0.665275,-0.665275 1.330552,-1.330553 1.995456,-1.995085 0.378512,-0.378884 0.109576,-1.084649 -0.442773,-1.069419 -2.881005,0.07838 -5.762752,0.156755 -8.643755,0.235876 -0.348426,0.009 -0.617359,0.277849 -0.626644,0.626272 -0.07913,2.881004 -0.157497,5.762749 -0.235874,8.644126 -0.01411,0.551982 0.691648,0.820917 1.06979,0.442403 z" id="path3" inkscape:connector-curvature="0" style="fill:&stroke_color;;stroke:&fill_color;"/><path d="m 45.905943,19.808848 -5.474399,6.735327 c -0.279341,0.351737 -0.487523,1.020034 -0.01349,1.449888 l 1.384041,1.382404 7.034708,-8.654336 -1.382401,-1.150912 c -0.538652,-0.234761 -1.200815,-0.105113 -1.548459,0.237629 z" id="path5" inkscape:connector-curvature="0" style="fill:&stroke_color;;stroke:&fill_color;"/><path d="m 38.711311,39.454924 -0.0059,-0.0059 c -2.401618,2.349268 -4.61428,4.087497 -5.3881,4.678087 -1.214305,0.867069 -1.538639,0.771363 -2.33577,0.326377 -0.548054,-0.306337 -0.805313,-0.478523 -1.149684,-0.775455 l -8.724316,7.091114 c 0.697337,0.674839 1.895692,1.559089 3.182391,2.271966 1.3914,0.754188 2.907545,1.357042 3.954164,1.455617 3.762345,-1.47934 10.472318,-5.201602 15.389253,-10.118539 l 0.0033,-0.0033 c 4.917357,-4.917239 8.639212,-11.627621 10.119369,-15.389967 -0.09898,-1.046209 -0.702249,-2.562354 -1.455619,-3.953753 -0.713286,-1.2867 -1.596716,-2.485463 -2.272783,-3.182392 l -7.09032,8.724273 c 0.296522,0.34519 0.468708,0.601221 0.775455,1.149685 0.444577,0.797948 0.540691,1.121055 -0.326377,2.33577 -0.590181,0.773818 -2.328819,2.986481 -4.678087,5.388101 l 0.0059,0.0059 -0.0028,0.0025 z" id="path7" inkscape:connector-curvature="0" style="fill:&stroke_color;;stroke:&fill_color;"/><path d="m 19.067687,46.647101 c -0.342735,0.347236 -0.472796,1.009808 -0.238442,1.548454 l 1.152138,1.381994 8.654335,-7.034714 -1.383629,-1.384042 c -0.42822,-0.474431 -1.097744,-0.265027 -1.449479,0.0139 l -6.734923,5.4744 z" id="path9" inkscape:connector-curvature="0" style="fill:&stroke_color;;stroke:&fill_color;"/><path d="m 36.632528,19.672679 c -0.664905,0.664904 -1.330551,1.330179 -1.995086,1.995455 -2.069001,-2.069375 -4.138749,-4.13838 -6.208123,-6.207753 -0.241446,-0.241447 -0.644103,-0.241076 -0.885922,0 -1.334265,1.334264 -2.668531,2.668161 -4.002798,4.002797 -0.241443,0.241448 -0.241443,0.644476 0,0.885921 2.069377,2.069377 4.138753,4.13912 6.208127,6.207752 -0.665276,0.665275 -1.330551,1.330551 -1.995456,1.995084 -0.378514,0.378886 -0.109576,1.084648 0.442774,1.069419 2.881003,-0.07838 5.762751,-0.156753 8.643753,-0.235874 0.348427,-0.009 0.61736,-0.277848 0.626648,-0.626274 0.07912,-2.881004 0.157496,-5.762749 0.235873,-8.644125 0.01412,-0.551982 -0.691649,-0.820915 -1.06979,-0.442402 z" id="path3-5" inkscape:connector-curvature="0" style="fill:&fill_color;;stroke:&stroke_color;"/><path d="m 8.3532814,35.190955 5.4743996,-6.735327 c 0.279341,-0.351737 0.487522,-1.020034 0.01349,-1.449888 l -1.38404,-1.382404 -7.0347089,8.654335 1.3824016,1.150912 c 0.5386512,0.234762 1.2008141,0.105114 1.5484587,-0.237628 z" id="path5-6" inkscape:connector-curvature="0" style="fill:&fill_color;;stroke:&stroke_color;"/><path d="m 15.547914,15.54488 0.0059,0.0059 c 2.401618,-2.349267 4.614281,-4.087497 5.3881,-4.678086 1.214306,-0.86707 1.538639,-0.771363 2.33577,-0.326377 0.548055,0.306337 0.805314,0.478523 1.149684,0.775455 L 33.151645,4.2306177 C 32.454308,3.5557778 31.255952,2.6715282 29.969254,1.9586515 28.577853,1.2044632 27.061708,0.60160883 26.01509,0.50303475 22.252745,1.9823745 15.542772,5.7046365 10.625837,10.621573 l -0.0033,0.0033 c -4.9173569,4.917239 -8.6392116,11.62762 -10.11936891,15.389965 0.0989823,1.04621 0.70224891,2.562355 1.45561881,3.953754 0.7132859,1.286699 1.5967161,2.485462 2.2727836,3.182391 L 11.32189,24.426712 c -0.296521,-0.34519 -0.468707,-0.601222 -0.775455,-1.149685 -0.444576,-0.797948 -0.540691,-1.121056 0.326377,-2.33577 0.590182,-0.773818 2.32882,-2.986481 4.678087,-5.388101 l -0.0059,-0.0059 0.0028,-0.0025 z" id="path7-3" inkscape:connector-curvature="0" style="fill:&fill_color;;stroke:&stroke_color;"/><path d="M 35.191537,8.352702 C 35.534272,8.0054667 35.664333,7.3428946 35.42998,6.8042484 l -1.152138,-1.3819944 -8.654335,7.034715 1.383629,1.384041 c 0.42822,0.474431 1.097743,0.265027 1.449478,-0.0139 l 6.734923,-5.4744009 z" id="path9-1" inkscape:connector-curvature="0" style="fill:&fill_color;;stroke:&stroke_color;"/></svg>