<?xml version="1.0" ?><!DOCTYPE svg  PUBLIC '-//W3C//DTD SVG 1.1//EN'  'http://www.w3.org/Graphics/SVG/1.1/DTD/svg11.dtd' [
	<!ENTITY stroke_color "#010101">
	<!ENTITY fill_color "#FFFFFF">
]><svg version="1.1" id="Layer_1" xmlns="http://www.w3.org/2000/svg" xmlns:xlink="http://www.w3.org/1999/xlink" x="0px" y="0px"
	 width="55px" height="55px" viewBox="0 0 55 55" enable-background="new 0 0 55 55" xml:space="preserve">
<g>
	<path id="path8" fill="&stroke_color;" stroke="&stroke_color;" stroke-width="2" stroke-linecap="round" stroke-linejoin="round" d="
		M4.455,25.83h23.59c0.512,0,0.929,0.417,0.929,0.931v1.568c0,0.512-0.417,0.93-0.929,0.93H4.455c-0.515,0-0.931-0.417-0.931-0.93
		v-1.566C3.524,26.247,3.939,25.83,4.455,25.83z"/>
	
		<rect id="rect10" x="5.25" y="29.259" fill="&fill_color;" stroke="&stroke_color;" stroke-width="2" stroke-linecap="round" stroke-linejoin="round" width="21.995" height="14.687"/>
	<path id="path17" fill="&stroke_color;" stroke="&stroke_color;" stroke-width="2" stroke-linecap="round" stroke-linejoin="round" d="
		M4.455,43.945h23.59c0.512,0,0.929,0.416,0.929,0.932v1.566c0,0.515-0.417,0.934-0.929,0.934H4.455
		c-0.515,0-0.931-0.417-0.931-0.934v-1.566C3.524,44.365,3.939,43.945,4.455,43.945z"/>
	<path id="path19" fill="none" stroke="&stroke_color;" stroke-width="2" stroke-linecap="round" stroke-linejoin="round" d="M5.25,43.945
		l5.671-14.687l5.241,14.685l5.26-14.685"/>
	<path id="path21" fill="none" stroke="&stroke_color;" stroke-width="2" stroke-linecap="round" stroke-linejoin="round" d="
		M27.242,43.945l-5.82-14.687"/>
</g>
<line id="line27" fill="none" stroke="&stroke_color;" stroke-width="2" stroke-linecap="round" stroke-linejoin="round" x1="20.305" y1="22.694" x2="29.119" y2="18.362"/>
<line id="line29" fill="none" stroke="&stroke_color;" stroke-width="2" stroke-linecap="round" stroke-linejoin="round" x1="3.668" y1="16.114" x2="12.464" y2="20.487"/>
<path id="path23" fill="&fill_color;" stroke="&stroke_color;" stroke-width="2" stroke-linecap="round" stroke-linejoin="round" d="
	M15.51,20.681c0.331,0.873-0.103,1.845-0.968,2.173c-0.864,0.328-1.834-0.113-2.165-0.986c-0.33-0.872,0.104-1.845,0.968-2.173
	C14.21,19.368,15.18,19.809,15.51,20.681z"/>
<path id="path25" fill="&fill_color;" stroke="&stroke_color;" stroke-width="2" stroke-linecap="round" stroke-linejoin="round" d="
	M20.094,24.676c-0.626,0.677-1.684,0.715-2.364,0.086c-0.679-0.627-0.721-1.686-0.094-2.362c0.626-0.678,1.685-0.717,2.363-0.088
	C20.679,22.941,20.721,23.999,20.094,24.676z"/>
<path fill="none" stroke="&stroke_color;" stroke-width="2" stroke-linecap="round" stroke-linejoin="round" d="M29.604,26.749"/>
<path fill="none" stroke="&stroke_color;" stroke-width="2" stroke-linecap="round" stroke-linejoin="round" d="M29.266,9.782"/>
<g>
	<g id="XMLID_1_">
		<g>
			<path fill="&fill_color;" d="M24.533,14.555l-7.044,4.876L17.407,5.393l7.126,5.772c0,0.021,0.397,0.305,20.951,0.631v2.545
				L24.533,14.555z"/>
		</g>
		<g>
			<path fill="none" stroke="&stroke_color;" stroke-width="2" stroke-linecap="round" stroke-linejoin="round" d="M45.483,11.796
				c-20.554-0.326-20.951-0.61-20.951-0.631l-7.126-5.772l0.082,14.038l7.044-4.876l20.951-0.213V11.796z"/>
		</g>
	</g>
	
		<line fill="none" stroke="&stroke_color;" stroke-width="2" stroke-linecap="round" stroke-linejoin="round" x1="36.449" y1="8.237" x2="36.449" y2="11.291"/>
	
		<line fill="none" stroke="&stroke_color;" stroke-width="2" stroke-linecap="round" stroke-linejoin="round" x1="33.521" y1="8.237" x2="33.521" y2="11.291"/>
	
		<line fill="none" stroke="&stroke_color;" stroke-width="2" stroke-linecap="round" stroke-linejoin="round" x1="30.467" y1="8.237" x2="30.467" y2="11.291"/>
</g>
<path fill="none" stroke="&stroke_color;" stroke-width="2" stroke-linecap="round" stroke-linejoin="round" d="M43.051,6.261"/>
<path fill="none" stroke="&stroke_color;" stroke-width="2" stroke-linecap="round" stroke-linejoin="round" d="M40.778,25.476"/>
<g>
	<g id="XMLID_3_">
		<g>
			<path fill="&fill_color;" d="M47.486,42.039c0.626,6.335-6.97,6.215-6.97,6.215h-0.068c0,0-7.604,0.12-6.97-6.215
				c0.111-1.071,2.041-1.929,2.041-1.929s0.856-1.604,0.103-3.644l-1.286-3.326c0,0-0.643-5.247,5.684-5.247h0.926
				c6.318,0,5.684,5.247,5.684,5.247l-1.285,3.326c-0.755,2.04,0.103,3.644,0.103,3.644S47.375,40.968,47.486,42.039z"/>
		</g>
		<g>
			<path fill="none" stroke="&stroke_color;" stroke-width="3" stroke-linecap="round" stroke-linejoin="round" d="M40.945,27.894
				c6.318,0,5.684,5.247,5.684,5.247l-1.285,3.326c-0.755,2.04,0.103,3.644,0.103,3.644s1.929,0.857,2.04,1.929
				c0.626,6.335-6.97,6.215-6.97,6.215"/>
			<path fill="none" stroke="&stroke_color;" stroke-width="3" stroke-linecap="round" stroke-linejoin="round" d="M40.02,27.894
				c-6.326,0-5.684,5.247-5.684,5.247l1.286,3.326c0.754,2.04-0.103,3.644-0.103,3.644s-1.93,0.857-2.041,1.929
				c-0.634,6.335,6.97,6.215,6.97,6.215"/>
		</g>
	</g>
</g>
<circle fill="&fill_color;" stroke="&stroke_color;" stroke-linecap="round" stroke-linejoin="round" cx="40.588" cy="37.883" r="2.036"/>
<g id="XMLID_2_">
	<g>
		<polygon fill="&fill_color;" points="41.705,8.001 41.959,33.452 39.258,33.452 39.385,8.128 		"/>
	</g>
	<g>
		<polygon fill="none" stroke="&stroke_color;" stroke-width="2" stroke-linecap="round" stroke-linejoin="round" points="41.705,8.001 
			41.959,33.452 39.258,33.452 39.385,8.128 		"/>
	</g>
</g>
</svg>
