<?xml version="1.0" encoding="UTF-8" ?>
<!DOCTYPE svg PUBLIC "-//W3C//DTD SVG 1.1//EN" "http://www.w3.org/Graphics/SVG/1.1/DTD/svg11.dtd">
<svg width="57pt" height="45pt" viewBox="0 0 57 45" version="1.1" xmlns="http://www.w3.org/2000/svg">
<path fill="#ffffff" d=" M 0.00 0.00 L 57.00 0.00 L 57.00 45.00 L 0.00 45.00 L 0.00 0.00 Z" />
<path fill="#03ac3f" d=" M 30.58 13.03 C 30.88 7.27 36.22 2.27 41.99 2.34 C 48.20 2.08 53.92 7.75 53.70 13.97 C 53.84 17.12 52.29 20.03 50.29 22.35 C 46.03 27.45 41.86 32.60 37.57 37.67 C 42.71 37.79 47.87 37.49 53.01 37.79 C 53.44 38.35 54.29 39.46 54.71 40.01 C 54.29 40.54 53.44 41.59 53.02 42.11 C 46.34 42.09 39.66 42.19 32.98 42.09 C 31.07 42.38 29.71 39.67 31.17 38.35 C 36.59 31.69 42.24 25.21 47.65 18.53 C 50.49 15.39 49.69 9.97 46.02 7.84 C 42.45 5.28 36.91 7.18 35.48 11.24 C 34.76 12.87 35.21 15.69 32.89 16.01 C 31.30 15.92 30.20 14.63 30.58 13.03 Z" />
<path fill="#989898" d=" M 2.15 6.09 C 3.13 4.78 4.05 3.18 5.97 3.64 C 13.32 3.66 20.67 3.52 28.02 3.71 C 30.33 3.48 31.15 7.10 28.85 7.80 C 25.45 8.11 22.02 7.85 18.61 7.92 C 18.58 17.95 18.58 27.99 18.62 38.03 C 18.41 39.23 18.96 40.96 17.72 41.74 C 16.49 43.28 14.07 41.61 14.33 39.92 C 14.22 29.26 14.37 18.58 14.28 7.92 C 10.30 7.27 5.14 9.57 2.15 6.09 Z" />
</svg>
