<?xml version="1.0" ?><!DOCTYPE svg  PUBLIC '-//W3C//DTD SVG 1.1//EN'  'http://www.w3.org/Graphics/SVG/1.1/DTD/svg11.dtd' [
	<!ENTITY stroke_color "#010101">
	<!ENTITY fill_color "#FFFFFF">
]>
<svg
   xmlns:dc="http://purl.org/dc/elements/1.1/"
   xmlns:cc="http://creativecommons.org/ns#"
   xmlns:rdf="http://www.w3.org/1999/02/22-rdf-syntax-ns#"
   xmlns:svg="http://www.w3.org/2000/svg"
   xmlns="http://www.w3.org/2000/svg"
   xmlns:sodipodi="http://sodipodi.sourceforge.net/DTD/sodipodi-0.dtd"
   xmlns:inkscape="http://www.inkscape.org/namespaces/inkscape"
   height="55px"
   viewBox="0 0 55 55"
   width="55px"
   stroke-linecap="round"
   stroke-linejoin="round"
   stroke-width="3.5"
   stroke="#000"
   fill="#eee"
   id="svg2985"
   version="1.1"
   inkscape:version="0.48.4 r9939"
   sodipodi:docname="activity-icon.svg"><metadata
   id="metadata2997">
  <rdf:RDF>
    <cc:Work
       rdf:about="">
      <dc:format>image/svg+xml</dc:format>
      <dc:type
         rdf:resource="http://purl.org/dc/dcmitype/StillImage" />
    </cc:Work>
  </rdf:RDF>
</metadata>
<defs
   id="defs2995" />
<sodipodi:namedview
   pagecolor="#ffffff"
   bordercolor="#666666"
   borderopacity="1"
   objecttolerance="10"
   gridtolerance="10"
   guidetolerance="10"
   inkscape:pageopacity="0"
   inkscape:pageshadow="2"
   inkscape:window-width="1280"
   inkscape:window-height="745"
   id="namedview2993"
   showgrid="false"
   showguides="true"
   inkscape:guide-bbox="true"
   inkscape:zoom="6.9419819"
   inkscape:cx="1.6475888"
   inkscape:cy="29.205517"
   inkscape:window-x="0"
   inkscape:window-y="27"
   inkscape:window-maximized="1"
   inkscape:current-layer="svg2985" />

`  <rect
   fill="&fill_color;"
   stroke="&stroke_color;"
   style="fill-opacity:1;stroke-width:3.5;stroke-linecap:round;stroke-miterlimit:4;stroke-opacity:1;stroke-dasharray:none"
   id="rect3001-9-0"
   width="40.864159"
   height="34.464157"
   x="-3.0492306"
   y="13.757218"
   ry="3.378839"
   rx="4.00629"
   transform="matrix(0.98480775,-0.17364817,0.17364817,0.98480775,0,0)" />
<rect
   fill="&fill_color;"
   stroke="&stroke_color;"
   style="fill-opacity:1;stroke-width:3.5;stroke-linecap:round;stroke-miterlimit:4;stroke-opacity:1;stroke-dasharray:none"
   id="rect3001-9"
   width="40.864159"
   height="34.464157"
   x="16.349497"
   y="4.2065687"
   ry="3.378839"
   rx="4.00629"
   transform="matrix(0.98480775,0.17364818,-0.17364818,0.98480775,0,0)" />
<rect
   stroke="&fill_color;"
   fill="&stroke_color;"
   style="fill-opacity:1;stroke-width:3.5;stroke-linecap:round;stroke-miterlimit:4;stroke-opacity:1;stroke-dasharray:none"
   id="rect3001"
   width="40.864159"
   height="34.464157"
   x="7.0679216"
   y="10.267921"
   ry="3.378839"
   rx="4.00629" />
<g
   fill="&fill_color;"
   style="font-size:32px;font-style:normal;font-weight:normal;line-height:125%;letter-spacing:0px;word-spacing:0px;fill-opacity:1;stroke:none;font-family:Sans"
   id="text3003">
  <path
     d="m 34.304687,16.585937 0,3.078125 c -1.197932,-0.572896 -2.328139,-0.999979 -3.390625,-1.28125 -1.062512,-0.281228 -2.088553,-0.421853 -3.078125,-0.421875 -1.718758,2.2e-5 -3.046882,0.333355 -3.984375,1 -0.927089,0.666687 -1.39063,1.614602 -1.390625,2.84375 -5e-6,1.031267 0.307287,1.812516 0.921875,2.34375 0.624994,0.520848 1.802076,0.942723 3.53125,1.265625 l 1.90625,0.390625 c 2.354153,0.44793 4.088526,1.239596 5.203125,2.375 1.124983,1.12501 1.687482,2.635425 1.6875,4.53125 -1.8e-5,2.260421 -0.760434,3.973961 -2.28125,5.140625 -1.510431,1.166667 -3.729179,1.75 -6.65625,1.75 -1.104175,0 -2.281257,-0.125 -3.53125,-0.375 -1.239588,-0.249999 -2.526045,-0.619791 -3.859375,-1.109375 l 0,-3.25 c 1.281247,0.718754 2.536454,1.26042 3.765625,1.625 1.22916,0.364586 2.437492,0.546878 3.625,0.546875 1.802072,3e-6 3.192696,-0.354164 4.171875,-1.0625 0.979152,-0.708329 1.468735,-1.718745 1.46875,-3.03125 -1.5e-5,-1.145825 -0.354181,-2.041658 -1.0625,-2.6875 -0.69793,-0.645823 -1.84897,-1.130198 -3.453125,-1.453125 l -1.921875,-0.375 c -2.354173,-0.468738 -4.057296,-1.203113 -5.109375,-2.203125 -1.052085,-0.999986 -1.578127,-2.390609 -1.578125,-4.171875 -2e-6,-2.06248 0.723956,-3.687479 2.171875,-4.875 1.458328,-1.187476 3.463534,-1.781226 6.015625,-1.781249 1.093739,2.3e-5 2.208321,0.09898 3.34375,0.296875 1.135402,0.197939 2.29686,0.494814 3.484375,0.890624"
     fill="&fill_color;"
     id="path3812" />
</g>
</svg>
