<?xml version="1.0" ?><!-- Created with Inkscape (http://www.inkscape.org/) --><!DOCTYPE svg  PUBLIC '-//W3C//DTD SVG 1.1//EN'  'http://www.w3.org/Graphics/SVG/1.1/DTD/svg11.dtd' [
	<!ENTITY stroke_color "#666666">
	<!ENTITY fill_color "#ffffff">
]><svg height="48" id="svg2" version="1.0" width="48" xmlns="http://www.w3.org/2000/svg" xmlns:svg="http://www.w3.org/2000/svg">
  <defs id="defs10"/>
  <g id="g2177" transform="matrix(0.7841945,0,0,0.7841945,0.2187336,0.6636294)">
    <path d="M 34.058322,51.120439 C 35.957706,53.219362 38.477558,52.472662 40.780575,51.007139 C 46.023315,47.607712 52.377326,44.171749 50.70658,42.508548 C 48.953496,39.868899 47.826928,38.157142 44.438323,34.206958 C 43.053105,32.509048 36.441408,29.467159 42.479715,24.497365 C 48.648328,19.419861 54.947536,19.133922 55.823633,22.650134 C 56.956344,27.517369 48.052633,30.41306 48.774426,32.014697 C 51.024789,36.838396 56.163323,40.521258 58.878954,45.136952 C 58.985452,45.317968 58.315124,46.07044 57.866559,46.461775 C 56.772808,47.55083 40.454089,58.326464 39.067674,58.743849 C 38.61911,59.135184 37.581032,59.351392 37.271196,59.403604 C 34.666931,59.842454 31.626978,55.896219 31.079221,54.994931 C 29.326131,52.355283 28.245043,50.627188 24.856443,46.67701 C 23.471224,44.97909 16.814052,41.95354 22.852347,36.983745 C 29.020957,31.906246 35.320175,31.620301 36.196275,35.136507 C 37.328987,40.003751 28.470752,42.883113 29.192547,44.484748 C 30.317731,46.896591 32.158942,49.021523 34.058322,51.120439 z" id="path2387" style="fill:&fill_color;;fill-rule:evenodd;stroke:&stroke_color;;stroke-width:1.83669972"/>
    <path d="M 54.281488,16.060986 C 55.198233,13.145652 53.380907,11.596495 51.047238,10.694778 C 45.68046,8.683577 39.763711,5.7969643 39.114589,8.2411835 C 37.665073,11.393143 36.720288,13.428817 34.90816,18.764927 C 34.095983,21.000843 34.568163,28.34917 27.48111,26.725147 C 20.240721,25.066374 17.055581,20.155909 19.667349,17.138208 C 23.319975,13.025767 29.962412,18.330676 31.001474,16.694915 C 34.095152,11.7065 34.861036,5.129612 37.55891,-0.098788352 C 37.664709,-0.30383194 38.623929,-0.25535964 39.169432,-0.14925797 C 40.615375,0.020918594 57.487264,6.1533597 58.492792,7.0014005 C 59.038293,7.1075072 59.708428,7.8057045 59.897863,8.0221892 C 61.490138,9.841792 59.518699,14.893131 59.000059,15.92822 C 57.550538,19.080183 56.570505,21.089762 54.758373,26.42587 C 53.94619,28.661785 54.453637,36.036202 47.366581,34.412178 C 40.12619,32.753406 36.941047,27.84294 39.552812,24.825237 C 43.205452,20.712801 49.81263,25.991625 50.851701,24.355864 C 52.398533,21.861654 53.364751,18.976316 54.281488,16.060986 z" id="path5" style="fill:&fill_color;;fill-rule:evenodd;stroke:&stroke_color;;stroke-width:1.83821511"/>
    <path d="M 5.8946454,44.279961 C 5.4438624,47.293699 7.3295291,48.723371 9.6037146,49.460441 C 14.82527,51.09236 20.672506,53.567729 20.940261,51.049925 C 21.850348,47.757407 22.446074,45.630319 23.394885,40.104087 C 23.841215,37.78458 22.411028,30.39565 29.166619,31.508176 C 36.068323,32.644374 39.670411,37.368084 37.670314,40.611581 C 34.85852,45.038706 28.014685,40.174173 27.277885,41.904263 C 25.100148,47.174729 25.284139,53.876542 23.503906,59.359961 C 23.434088,59.575007 22.542928,59.597533 22.025494,59.530995 C 20.668987,59.466839 4.2794392,54.528737 3.2373364,53.746891 C 2.7199063,53.680348 2.0073804,53.024904 1.8033706,52.820304 C 0.088654182,51.100622 1.2229281,45.850224 1.5611077,44.765802 C 2.4711863,41.473286 3.1029519,39.369924 4.0517655,33.843705 C 4.4981018,31.524195 3.0318651,24.111533 9.7874609,25.22405 C 16.689162,26.360261 20.291249,31.083972 18.291155,34.327462 C 15.479367,38.754579 8.6715695,33.91379 7.9347644,35.643872 C 6.845901,38.279103 6.3454303,41.266225 5.8946454,44.279961 z" id="path2389" style="fill:&fill_color;;fill-rule:evenodd;stroke:&stroke_color;;stroke-width:1.78393352"/>
    <path d="M 24.399365,8.8326613 C 22.873602,6.2858475 20.464273,6.3771311 18.176842,7.2300679 C 12.962723,9.2338606 6.7179907,10.990231 8.0800672,13.05058 C 9.411701,16.091445 10.265745,18.060776 12.965377,22.806465 C 14.059887,24.828127 19.836137,29.503025 13.715783,32.847133 C 7.4632924,36.263854 1.6127592,34.938762 1.1869049,31.260134 C 0.67134036,26.188456 9.2126071,25.613075 8.7204885,23.855174 C 7.1676612,18.54132 2.8222561,13.612158 0.81692205,8.3840814 C 0.73827839,8.1790488 1.4396126,7.6105305 1.8966919,7.340343 C 3.0259029,6.5490278 19.276761,0.12084851 20.603089,0.064186246 C 21.060166,-0.20600027 22.042745,-0.15378499 22.334675,-0.12609447 C 24.788416,0.10665278 27.166378,4.7595663 27.574107,5.7848912 C 28.905747,8.8257561 29.716002,10.799537 32.415619,15.545229 C 33.510138,17.566891 39.330183,22.237339 33.209825,25.58144 C 26.957335,28.998161 21.106798,27.673074 20.680948,23.994443 C 20.165384,18.922766 28.662856,18.35184 28.17074,16.593936 C 27.39432,13.93701 25.925126,11.379473 24.399365,8.8326613 z" id="path2391" style="fill:&fill_color;;fill-rule:evenodd;stroke:&stroke_color;;stroke-width:1.77659035"/>
  </g>
</svg>