<?xml version="1.0" ?><!DOCTYPE svg  PUBLIC '-//W3C//DTD SVG 1.1//EN'  'http://www.w3.org/Graphics/SVG/1.1/DTD/svg11.dtd' [
	<!ENTITY stroke_color "#000">
	<!ENTITY fill_color "#eee">
]><svg height="55px" viewBox="0 0 55 55" width="55px" xmlns="http://www.w3.org/2000/svg" xmlns:xlink="http://www.w3.org/1999/xlink">
 <rect stroke-linejoin="round" rx="16" ry="19" height="52" width="52" stroke="&stroke_color;" stroke-linecap="round" stroke-dasharray="none" x="1.6" y="1.8" stroke-miterlimit="4" stroke-width="3.5" fill="&fill_color;"/>
 <path stroke="&stroke_color;" style="baseline-shift:baseline;block-progression:tb;direction:ltr;text-indent:0;text-align:start;enable-background:accumulate;text-transform:none;" fill="&fill_color;" d="m30,12c-5.1,0.000036-9.6,1.8-13,5.4-3,3-4.6,6.6-4.6,11-0.000001,4.6,1.7,8.4,5,11,3.5,3,8.3,4.5,14,4.5,3.6,0.000003,6.8-1.3,9.7-3.8v-1l-1-1h-1c-0.29,0.22-0.55,0.42-0.83,0.63v-6.6c-0.000024-1,0.31-1.6,0.83-2,0.6-0.41,1.8-0.68,3.6-0.71l0.54-0.027v-0.41-0.84-0.43h-0.57-13-0.57v0.43,0.84,0.43h0.57c1.5,0.000016,2.6,0.22,3.2,0.65l0.036,0.027c0.61,0.32,0.97,0.93,0.97,2v8.9c-0.83,0.2-1.7,0.35-2.5,0.35-3.9,0.000004-7.1-1.1-9.7-3.2-3.3-2.9-4.9-6.4-4.9-11-0.000005-3.9,1.7-7.3,5-10,2.9-2.5,5.7-3.8,8.3-3.8,1.7,0.00003,3.4,0.61,5,1.9,1.3,1,2.4,2.8,3.1,5.4l0.11,0.35h0.47,0.93,0.57v-0.43l0.4-5.6v-0.22l-0.25-0.14c-3.8-2.1-7.3-3.2-10-3.2zm0,0.87c2.7,0.000032,5.9,1,9.4,2.9l-0.32,4.9c-0.74-2.5-1.8-4.3-3.3-5.5-1.8-1.4-3.8-2.1-5.9-2.1-3.1,0.000036-6.2,1.4-9.2,4.1-3.5,3.1-5.3,6.7-5.3,11-0.000004,4.4,1.7,8.2,5.2,11v0.027c2.8,2.3,6.4,3.5,11,3.5,1.1,0.000004,2.2-0.15,3.3-0.46l0.36-0.11v-0.3-9.2c-0.000024-1.2-0.47-2.1-1.4-2.6l0.036-0.027c-0.02-0.013-0.052-0.015-0.072-0.027-0.83-0.51-2-0.73-3.3-0.79v-0.027h12v0.027c-1.6,0.079-2.9,0.31-3.7,0.87-0.85,0.56-1.2,1.5-1.2,2.6v7.6,1.1l0.97-0.76c0.42-0.32,0.89-0.68,1.4-1l0.25,0.19c-0.84,0.69-1.7,1.1-2.6,1.6-1.9,0.98-3.7,1.7-5.8,1.7-5.5,0.000003-9.9-1.4-13-4.2s-4.7-6.3-4.7-11c-0.000001-3.9,1.4-7.2,4.3-10,3.5-3.4,7.6-5.1,12-5.1z"/>
</svg>
