<?xml version="1.0" encoding="UTF-8" standalone="no"?>
<!-- Created with Inkscape (http://www.inkscape.org/) -->

<svg
   xmlns:dc="http://purl.org/dc/elements/1.1/"
   xmlns:cc="http://creativecommons.org/ns#"
   xmlns:rdf="http://www.w3.org/1999/02/22-rdf-syntax-ns#"
   xmlns:svg="http://www.w3.org/2000/svg"
   xmlns="http://www.w3.org/2000/svg"
   xmlns:sodipodi="http://sodipodi.sourceforge.net/DTD/sodipodi-0.dtd"
   xmlns:inkscape="http://www.inkscape.org/namespaces/inkscape"
   width="50.032673"
   height="26.008291"
   id="svg3874"
   version="1.1"
   inkscape:version="0.48.4 r9939"
   sodipodi:docname="JAMTank.svg">
  <defs
     id="defs3876" />
  <sodipodi:namedview
     id="base"
     pagecolor="#ffffff"
     bordercolor="#666666"
     borderopacity="1.0"
     inkscape:pageopacity="0.0"
     inkscape:pageshadow="2"
     inkscape:zoom="7.919596"
     inkscape:cx="25.103441"
     inkscape:cy="3.1219416"
     inkscape:document-units="px"
     inkscape:current-layer="layer1"
     showgrid="false"
     inkscape:window-width="1366"
     inkscape:window-height="713"
     inkscape:window-x="0"
     inkscape:window-y="27"
     inkscape:window-maximized="1"
     fit-margin-top="0"
     fit-margin-left="0"
     fit-margin-right="0"
     fit-margin-bottom="0" />
  <metadata
     id="metadata3879">
    <rdf:RDF>
      <cc:Work
         rdf:about="">
        <dc:format>image/svg+xml</dc:format>
        <dc:type
           rdf:resource="http://purl.org/dc/dcmitype/StillImage" />
        <dc:title></dc:title>
      </cc:Work>
    </rdf:RDF>
  </metadata>
  <g
     inkscape:label="Layer 1"
     inkscape:groupmode="layer"
     id="layer1"
     transform="translate(-303.56491,-439.35734)">
    <g
       id="g3007"
       transform="matrix(0.08456822,0,0,0.08456822,300.78473,414.10672)"
       inkscape:export-filename="/home/flavio/Documentos/JAMTank.png"
       inkscape:export-xdpi="89.971306"
       inkscape:export-ydpi="89.971306">
      <path
         inkscape:connector-curvature="0"
         inkscape:export-ydpi="53.524284"
         inkscape:export-xdpi="53.524284"
         inkscape:export-filename="U:\stuff\aw.png"
         sodipodi:nodetypes="ccccccccc"
         id="path3717-4"
         d="m 44.684871,510.17607 7.436536,16.0408 109.069063,50.65515 213.59359,-33.7701 60.3185,-10.97529 28.09355,-35.45861 1.65256,-40.52412 -422.229491,15.19655 2.065692,38.83562 z"
         style="fill:#22241c;stroke:#000000;stroke-width:3.24463415;stroke-miterlimit:4;stroke-opacity:1;stroke-dasharray:none" />
      <path
         inkscape:connector-curvature="0"
         inkscape:export-ydpi="53.524284"
         inkscape:export-xdpi="53.524284"
         inkscape:export-filename="U:\stuff\aw.png"
         sodipodi:nodetypes="ccccccccc"
         id="path3715"
         d="m 210.92164,448.74408 266.26792,4.29369 33.62839,-28.58974 -120.78381,-4.04633 -40.88875,5.80735 -69.31236,2.56275 -38.42206,-7.52585 -71.07735,3.94399 z"
         style="fill:#171812;fill-opacity:1;stroke:#000000;stroke-width:3.24463415;stroke-miterlimit:4;stroke-opacity:1;stroke-dasharray:none" />
      <path
         inkscape:connector-curvature="0"
         inkscape:export-ydpi="53.524284"
         inkscape:export-xdpi="53.524284"
         inkscape:export-filename="U:\stuff\aw.png"
         sodipodi:nodetypes="ccccccccccccccc"
         id="path2850"
         d="m 510.98897,424.94565 -123.33816,-4.18598 -36.90435,2.09299 -2.91349,-20.92996 3.88467,-41.85992 -63.14154,0 -10.03935,38.20167 1.31453,30.86717 -40.04337,-6.64896 -70.66964,4.55597 34.962,-51.27839 85.91345,-24.42784 63.34643,-0.36999 121.69565,13.28636 35.93317,60.69688 z"
         style="fill:#8a916f;stroke:#000000;stroke-width:3.24463415;stroke-miterlimit:4;stroke-opacity:1;stroke-dasharray:none" />
      <path
         inkscape:connector-curvature="0"
         inkscape:export-ydpi="53.524284"
         inkscape:export-xdpi="53.524284"
         inkscape:export-filename="U:\stuff\aw.png"
         sodipodi:nodetypes="cccc"
         id="path2852"
         d="m 391.86095,421.33782 -43.26329,-24.04954 0.11781,30.54526 43.14546,-6.49572 z"
         style="fill:#676c53;stroke:#000000;stroke-width:0.00001335;stroke-miterlimit:4;stroke-opacity:1;stroke-dasharray:none" />
      <path
         inkscape:connector-curvature="0"
         inkscape:export-ydpi="53.524284"
         inkscape:export-xdpi="53.524284"
         inkscape:export-filename="U:\stuff\aw.png"
         sodipodi:nodetypes="cccc"
         id="path2854"
         d="m 279.23908,428.36767 c 0,-1.84995 -0.34336,-30.33941 -0.34336,-30.33941 l -39.48631,23.67956 39.82967,6.65985 z"
         style="fill:#676c53;stroke:#000000;stroke-width:0.00001335;stroke-miterlimit:4;stroke-opacity:1;stroke-dasharray:none" />
      <path
         inkscape:connector-curvature="0"
         inkscape:export-ydpi="53.524284"
         inkscape:export-xdpi="53.524284"
         inkscape:export-filename="U:\stuff\aw.png"
         sodipodi:nodetypes="ccccccc"
         id="path3711"
         d="m 353.38743,359.54668 -67.2471,0.0943 -7.85233,34.816 0.28824,35.34544 72.18592,-1.26775 -2.62533,-31.69699 c 3.83365,-27.46836 5.2506,-37.29092 5.2506,-37.29092 z"
         style="fill:#454837;fill-opacity:1;stroke:#000000;stroke-width:0.00001335;stroke-miterlimit:4;stroke-opacity:1;stroke-dasharray:none" />
      <path
         inkscape:connector-curvature="0"
         inkscape:export-ydpi="53.524284"
         inkscape:export-xdpi="53.524284"
         inkscape:export-filename="U:\stuff\aw.png"
         sodipodi:nodetypes="ccccccccc"
         id="path3717"
         d="m 190.31117,526.56017 7.43653,16.0408 114.02673,53.18791 208.63591,-36.30286 60.3185,-10.97529 28.09355,-35.4586 1.65256,-40.52412 -422.22948,15.19655 2.0657,38.83561 z"
         style="fill:#22241c;stroke:#000000;stroke-width:0.00001335;stroke-miterlimit:4;stroke-opacity:1;stroke-dasharray:none" />
      <path
         inkscape:export-ydpi="53.524284"
         inkscape:export-xdpi="53.524284"
         inkscape:export-filename="U:\stuff\aw.png"
         transform="matrix(2.1185431,0,0,2.1367941,-79.0729,141.55541)"
         d="m 198.72458,192.03178 c 0,9.38299 -5.76243,16.98941 -12.87076,16.98941 -7.10833,0 -12.87076,-7.60642 -12.87076,-16.98941 0,-9.38299 5.76243,-16.9894 12.87076,-16.9894 7.10833,0 12.87076,7.60641 12.87076,16.9894 z"
         sodipodi:ry="16.989407"
         sodipodi:rx="12.870763"
         sodipodi:cy="192.03178"
         sodipodi:cx="185.85382"
         id="path3721"
         style="fill:#918a6f;fill-opacity:1;stroke:#000000;stroke-width:0;stroke-miterlimit:4;stroke-opacity:1;stroke-dasharray:none"
         sodipodi:type="arc" />
      <path
         inkscape:export-ydpi="53.524284"
         inkscape:export-xdpi="53.524284"
         inkscape:export-filename="U:\stuff\aw.png"
         transform="matrix(2.1265679,0,0,2.1169168,-110.35176,148.0587)"
         d="m 244.54449,188.17055 c 0,7.81916 -4.60995,14.15784 -10.29661,14.15784 -5.68666,0 -10.29661,-6.33868 -10.29661,-14.15784 0,-7.81916 4.60995,-14.15784 10.29661,-14.15784 5.68666,0 10.29661,6.33868 10.29661,14.15784 z"
         sodipodi:ry="14.157839"
         sodipodi:rx="10.29661"
         sodipodi:cy="188.17055"
         sodipodi:cx="234.24788"
         id="path3723"
         style="fill:#918a6f;fill-opacity:1;stroke:#000000;stroke-width:0;stroke-miterlimit:4;stroke-opacity:1;stroke-dasharray:none"
         sodipodi:type="arc" />
      <path
         inkscape:export-ydpi="53.524284"
         inkscape:export-xdpi="53.524284"
         inkscape:export-filename="U:\stuff\aw.png"
         transform="matrix(2.4965995,0,0,2.1283355,-223.05877,152.14313)"
         d="m 271.31569,184.05191 c 0,6.68183 -3.11172,12.09852 -6.95021,12.09852 -3.8385,0 -6.95021,-5.41669 -6.95021,-12.09852 0,-6.68183 3.11171,-12.09852 6.95021,-12.09852 3.83849,0 6.95021,5.41669 6.95021,12.09852 z"
         sodipodi:ry="12.098517"
         sodipodi:rx="6.950212"
         sodipodi:cy="184.05191"
         sodipodi:cx="264.36548"
         id="path3725"
         style="fill:#918a6f;fill-opacity:1;stroke:#000000;stroke-width:0;stroke-miterlimit:4;stroke-opacity:1;stroke-dasharray:none"
         sodipodi:type="arc" />
      <path
         inkscape:export-ydpi="53.524284"
         inkscape:export-xdpi="53.524284"
         inkscape:export-filename="U:\stuff\aw.png"
         transform="matrix(2.3777138,0,0,2.0934449,-149.48918,152.65505)"
         d="m 271.31569,184.05191 c 0,6.68183 -3.11172,12.09852 -6.95021,12.09852 -3.8385,0 -6.95021,-5.41669 -6.95021,-12.09852 0,-6.68183 3.11171,-12.09852 6.95021,-12.09852 3.83849,0 6.95021,5.41669 6.95021,12.09852 z"
         sodipodi:ry="12.098517"
         sodipodi:rx="6.950212"
         sodipodi:cy="184.05191"
         sodipodi:cx="264.36548"
         id="path3725-4"
         style="fill:#918a6f;fill-opacity:1;stroke:#000000;stroke-width:0;stroke-miterlimit:4;stroke-opacity:1;stroke-dasharray:none"
         sodipodi:type="arc" />
      <path
         inkscape:export-ydpi="53.524284"
         inkscape:export-xdpi="53.524284"
         inkscape:export-filename="U:\stuff\aw.png"
         transform="matrix(2.2588282,0,0,1.9887727,-81.703537,167.27679)"
         d="m 271.31569,184.05191 c 0,6.68183 -3.11172,12.09852 -6.95021,12.09852 -3.8385,0 -6.95021,-5.41669 -6.95021,-12.09852 0,-6.68183 3.11171,-12.09852 6.95021,-12.09852 3.83849,0 6.95021,5.41669 6.95021,12.09852 z"
         sodipodi:ry="12.098517"
         sodipodi:rx="6.950212"
         sodipodi:cy="184.05191"
         sodipodi:cx="264.36548"
         id="path3725-9"
         style="fill:#918a6f;fill-opacity:1;stroke:#000000;stroke-width:0;stroke-miterlimit:4;stroke-opacity:1;stroke-dasharray:none"
         sodipodi:type="arc" />
      <path
         inkscape:export-ydpi="53.524284"
         inkscape:export-xdpi="53.524284"
         inkscape:export-filename="U:\stuff\aw.png"
         transform="matrix(1.8427284,0,0,1.6747559,59.284426,223.8058)"
         d="m 271.31569,184.05191 c 0,6.68183 -3.11172,12.09852 -6.95021,12.09852 -3.8385,0 -6.95021,-5.41669 -6.95021,-12.09852 0,-6.68183 3.11171,-12.09852 6.95021,-12.09852 3.83849,0 6.95021,5.41669 6.95021,12.09852 z"
         sodipodi:ry="12.098517"
         sodipodi:rx="6.950212"
         sodipodi:cy="184.05191"
         sodipodi:cx="264.36548"
         id="path3725-8"
         style="fill:#918a6f;fill-opacity:1;stroke:#000000;stroke-width:0.00000017;stroke-miterlimit:4;stroke-opacity:1;stroke-dasharray:none"
         sodipodi:type="arc" />
      <path
         inkscape:export-ydpi="53.524284"
         inkscape:export-xdpi="53.524284"
         inkscape:export-filename="U:\stuff\aw.png"
         transform="matrix(1.7238425,0,0,1.6049744,118.66549,230.18489)"
         d="m 271.31569,184.05191 c 0,6.68183 -3.11172,12.09852 -6.95021,12.09852 -3.8385,0 -6.95021,-5.41669 -6.95021,-12.09852 0,-6.68183 3.11171,-12.09852 6.95021,-12.09852 3.83849,0 6.95021,5.41669 6.95021,12.09852 z"
         sodipodi:ry="12.098517"
         sodipodi:rx="6.950212"
         sodipodi:cy="184.05191"
         sodipodi:cx="264.36548"
         id="path3725-2"
         style="fill:#918a6f;fill-opacity:1;stroke:#000000;stroke-width:0.00000242;stroke-miterlimit:4;stroke-opacity:1;stroke-dasharray:none"
         sodipodi:type="arc" />
      <path
         inkscape:connector-curvature="0"
         inkscape:export-ydpi="53.524284"
         inkscape:export-xdpi="53.524284"
         inkscape:export-filename="U:\stuff\aw.png"
         sodipodi:nodetypes="ccccssc"
         id="path3776"
         d="m 215.45917,489.0109 c -12.2788,0.80276 -23.84887,13.39352 -23.25997,36.09092 l 6.36457,13.71738 c 0,0 0.71901,1.86075 29.1808,14.50255 9.27803,-4.79613 14.19639,-18.14091 14.19639,-31.82102 0,-17.95131 -11.25932,-32.48983 -25.17776,-32.48983 -0.43494,0 -0.87449,-0.028 -1.30403,0 z"
         style="fill:#6c6753;fill-opacity:1;stroke:#000000;stroke-width:0.00001335;stroke-miterlimit:4;stroke-opacity:1;stroke-dasharray:none" />
      <path
         inkscape:connector-curvature="0"
         inkscape:export-ydpi="53.524284"
         inkscape:export-xdpi="53.524284"
         inkscape:export-filename="U:\stuff\aw.png"
         sodipodi:nodetypes="ccccccccccccccc"
         id="path3781"
         d="m 616.64269,476.99654 c 0,0 -3.30512,37.14711 -3.30512,37.14711 l -26.2405,41.36839 -277.24656,48.61695 -118.29992,-53.92975 -13.63364,-23.21695 0.41315,-43.47901 11.56793,16.0408 0.41314,27.01609 8.67594,14.84685 113.88498,52.94063 268.68303,-44.14841 25.75646,-37.14711 2.33708,-33.77011 6.99403,-2.28548 z"
         style="fill:#917c6f;stroke:#000000;stroke-width:3.24463415;stroke-miterlimit:4;stroke-opacity:1;stroke-dasharray:none" />
      <path
         inkscape:connector-curvature="0"
         inkscape:export-ydpi="53.524284"
         inkscape:export-xdpi="53.524284"
         inkscape:export-filename="U:\stuff\aw.png"
         sodipodi:nodetypes="cccccccccccc"
         id="path3783"
         d="m 140.97007,498.00169 2.92134,29.25185 14.28167,19.13326 118.64809,54.15003 33.31547,3.97399 -118.91946,-55.16913 -11.37247,-20.64692 -2.06571,-44.42355 -8.17976,-9.55163 -11.68538,9.55163 6.42697,13.73047 -23.37076,0 z"
         style="fill:#483e37;stroke:#000000;stroke-width:3.24463415;stroke-miterlimit:4;stroke-opacity:1;stroke-dasharray:none" />
      <path
         inkscape:connector-curvature="0"
         inkscape:export-ydpi="53.524284"
         inkscape:export-xdpi="53.524284"
         inkscape:export-filename="U:\stuff\aw.png"
         sodipodi:nodetypes="ccccccccc"
         id="path3785"
         d="m 60.925237,498.00167 -26.350808,-4.17883 1.728474,-32.604 22.527272,-11.07773 83.892705,3.68429 -18.69661,18.50629 7.01122,-5.37279 -75.954938,5.96976 5.842685,25.07301 z"
         style="fill:#454837;fill-opacity:1;stroke:#000000;stroke-width:3.24463415;stroke-miterlimit:4;stroke-opacity:1;stroke-dasharray:none" />
      <path
         inkscape:connector-curvature="0"
         inkscape:export-ydpi="53.524284"
         inkscape:export-xdpi="53.524284"
         inkscape:export-filename="U:\stuff\aw.png"
         sodipodi:nodetypes="ccccc"
         id="path3709"
         d="m 144.83514,533.96513 -9.58319,-67.85048 -83.09074,-0.34971 14.606712,53.72791 78.067218,14.47228 z"
         style="fill:#8a916f;fill-opacity:1;stroke:#000000;stroke-width:3.24463415;stroke-miterlimit:4;stroke-opacity:1;stroke-dasharray:none" />
      <path
         inkscape:connector-curvature="0"
         inkscape:export-ydpi="53.524284"
         inkscape:export-xdpi="53.524284"
         inkscape:export-filename="U:\stuff\aw.png"
         sodipodi:nodetypes="cccccccc"
         id="path2846"
         d="m 602.89665,509.38542 -388.16008,23.0333 -44.42728,-59.39616 3.88941,-9.338 148.73054,-16.48414 296.95986,13.61047 2.67933,19.76751 c -21.93645,-5.73588 -20.927,7.8154 -19.67178,28.80702 z"
         style="fill:#676c53;fill-opacity:1;stroke:#000000;stroke-width:3.24463415;stroke-miterlimit:4;stroke-opacity:1;stroke-dasharray:none" />
      <path
         inkscape:connector-curvature="0"
         inkscape:export-ydpi="53.524284"
         inkscape:export-xdpi="53.524284"
         inkscape:export-filename="U:\stuff\aw.png"
         sodipodi:nodetypes="cccc"
         id="path3826"
         d="m 131.09031,465.5267 14.14704,-13.01347 -90.406888,11.81952 76.259848,1.19395 z"
         style="fill:#000000;fill-opacity:0;stroke:#000000;stroke-width:0.00001335;stroke-miterlimit:4;stroke-opacity:1;stroke-dasharray:none" />
      <path
         inkscape:connector-curvature="0"
         inkscape:export-ydpi="53.524284"
         inkscape:export-xdpi="53.524284"
         inkscape:export-filename="U:\stuff\aw.png"
         sodipodi:nodetypes="cccccsccc"
         id="path2848"
         d="m 170.18351,473.82413 -11.68538,10.1486 4.56531,12.98865 -36.60845,-1.45004 -3.01299,-21.9857 c 0,0 21.03368,-23.87908 29.79771,-25.07303 8.76403,-1.19395 167.97726,-1.19395 167.97726,-1.19395 l -146.35931,16.71535 -4.67415,9.85012 z"
         style="fill:#8a916f;fill-opacity:1;stroke:#000000;stroke-width:3.24463415;stroke-miterlimit:4;stroke-opacity:1;stroke-dasharray:none" />
      <path
         inkscape:connector-curvature="0"
         inkscape:export-ydpi="53.524284"
         inkscape:export-xdpi="53.524284"
         inkscape:export-filename="U:\stuff\aw.png"
         id="path3832"
         d="m 171.08009,300.22518 c -1.39841,-0.0477 -2.83301,0.0507 -4.26317,0.30748 -11.4413,2.05403 -19.01851,13.45427 -16.95235,25.46915 1.63325,9.49751 8.81362,16.47058 17.40375,17.98727 l -0.0501,0.1025 134.61576,58.26645 0.20062,-0.35872 c 1.7942,0.65764 3.73134,0.86907 5.71766,0.51246 6.35629,-1.14113 10.55166,-7.5808 9.37897,-14.40006 -0.53307,-3.09987 -2.08157,-5.73183 -4.21301,-7.58438 l 0.40124,-0.81993 -129.14888,-74.15265 c -3.60199,-3.22996 -8.19597,-5.16266 -13.09043,-5.32957 z"
         style="fill:#a7ac93;fill-opacity:1;stroke:#000000;stroke-width:3.24463415;stroke-miterlimit:4;stroke-opacity:1;stroke-dasharray:none" />
      <g
         inkscape:export-ydpi="53.524284"
         inkscape:export-xdpi="53.524284"
         inkscape:export-filename="U:\stuff\aw.png"
         style="stroke:#000000;stroke-width:0.00000495;stroke-miterlimit:4;stroke-opacity:1;stroke-dasharray:none"
         transform="matrix(1.5951204,0,0,1.6846269,69.642866,472.1032)"
         id="g3705">
        <path
           sodipodi:type="arc"
           style="fill:#22241c;fill-opacity:0.99418604;stroke:#000000;stroke-width:0.00000697;stroke-miterlimit:4;stroke-opacity:1;stroke-dasharray:none"
           id="path3634-1-7"
           sodipodi:cx="73.105934"
           sodipodi:cy="-21.365467"
           sodipodi:rx="11.841102"
           sodipodi:ry="11.326271"
           d="m 84.947036,-21.365467 c 0,6.255327 -5.301442,11.326271 -11.841102,11.326271 -6.53966,0 -11.841102,-5.070944 -11.841102,-11.326271 0,-6.255327 5.301442,-11.326271 11.841102,-11.326271 6.53966,0 11.841102,5.070944 11.841102,11.326271 z"
           transform="matrix(0.71969643,0,0,0.7002987,8.8205184,-75.400747)" />
      </g>
    </g>
  </g>
</svg>
