<?xml version="1.0" ?><!DOCTYPE svg  PUBLIC '-//W3C//DTD SVG 1.1//EN'  'http://www.w3.org/Graphics/SVG/1.1/DTD/svg11.dtd' [
	<!ENTITY stroke_color "#000000">
	<!ENTITY fill_color "#FFFFFF">
]>
<svg version="1.1" id="Layer_1" xmlns="http://www.w3.org/2000/svg" xmlns:xlink="http://www.w3.org/1999/xlink" x="0px" y="0px"

                width="48px" height="48px" viewBox="0 0 48 48" enable-background="new 0 0 48 48" xml:space="preserve">

<g>

               <path fill="&fill_color;" stroke="&stroke_color;" stroke-width="2.0" d="M16.48,1.509c1.364,0.077,3.807,0.257,4.357,0.297l4.477,2.536c0.128,0.394,0.219,0.958,0.063,1.206l-0.024,0.49

                              c0.09,0.179,0.191,0.33,0.289,0.477c0.272,0.405,0.553,0.824,0.606,2.005l0.499,0.478c-0.053,0-0.089-0.015-0.098-0.021

                              c0.086,0.053,0.293,0.389,0.182,0.685l-0.018,0.297c0.138,0.55,0.058,1.872-0.078,2.283c-0.066,0.269-0.145,0.422-0.214,0.557

                              c-0.24,0.472-0.218,0.759,0.128,1.24c0.004,0.06,0.009,0.127,0.015,0.2c0.026,0.332,0.105,1.341-0.112,1.559l0.271,0.847

                              c0.18,0.03,0.365,0.045,0.551,0.045c0.347,0,0.638-0.053,0.83-0.088c0.017-0.003,0.032-0.006,0.047-0.009

                              c0.598,0.402,2.134,0.697,2.731,0.697c0.081,0,0.158-0.003,0.229-0.01c0.199-0.018,0.353-0.028,0.486-0.028

                              c0.277,0,0.459,0.041,0.897,0.141c0.146,0.033,0.314,0.071,0.519,0.115l0.28-0.021c0.294-0.11,0.494-0.357,0.688-0.595

                              c0.111-0.136,0.317-0.389,0.409-0.389c0.011,0,0.271,0.01,0.835,0.869l0.289,0.209c0.449,0.12,0.86,0.18,1.222,0.18

                              c0.176,0,0.321-0.015,0.437-0.035l0.155,0.134l-0.052,0.53l0.3,0.509c0.215,0.092,0.542,0.33,0.564,0.492

                              c0.013,0.09-0.098,0.242-0.288,0.397l-0.141,0.594c0.133,0.292,0.182,0.535,0.225,0.749c0.061,0.296,0.132,0.65,0.448,0.907

                              c0.011,0.229,0.035,0.385,0.059,0.502c-0.01,0.012-0.02,0.024-0.031,0.038l-0.167,0.212l0.118,0.722

                              c0.135,0.09,0.196,0.131-0.025,0.649l0.153,0.592c0.271,0.21,0.452,0.521,0.486,0.832c0.02,0.179-0.014,0.333-0.09,0.425

                              l0.215,0.791c0.556,0.2,1.163,0.311,1.709,0.311c0.73,0,1.26-0.205,1.516-0.58c0.324-0.198,0.641-0.372,0.853-0.485l1.447,1.009

                              c0.112,0.3,0.317,1.067-0.325,1.452l-0.198,0.636c0.238,0.523-0.024,1.085-0.217,1.494c-0.043,0.093-0.08,0.174-0.108,0.242

                              c-0.075,0.189-0.068,0.412-0.058,0.751c0.031,0.996-0.016,1.907-0.925,2.104l-0.368,0.646c0.111,0.335,0.222,0.567,0.302,0.737

                              c0.011,0.022,0.021,0.044,0.031,0.064l-0.196,0.366c0.017,0.138,0.048,0.301,0.081,0.474c0.053,0.274,0.162,0.847,0.084,0.994

                              c0.009-0.016,0.036-0.037,0.053-0.042l-0.377,0.436c-0.031,0.309-0.003,0.661,0.024,1.002c0.026,0.321,0.069,0.856-0.01,0.991

                              l-0.146,0.111c-0.058,0.073-0.117,0.122-0.187,0.18c-0.228,0.187-0.429,0.396-0.435,0.819c-0.011,0.002-0.021,0.004-0.031,0.006

                              l-0.388,0.37c-0.064,0.259-0.481,0.455-0.671,0.509l-0.343,0.641c-0.01-0.03-0.004-0.062,0.002-0.073

                              c-0.029,0.056-0.22,0.188-0.521,0.188c-0.097,0-0.193-0.015-0.286-0.042l-0.64,0.541c0.009,0.071,0.016,0.128-0.117,0.151

                              l-0.322,0.176l-0.395,0.474l-0.017,0.62c0.018,0.022,0.036,0.052,0.055,0.084c-0.025,0.005-0.052,0.009-0.078,0.014

                              c-0.205,0.036-0.429,0.075-0.613,0.192c-0.015-0.011-0.029-0.021-0.045-0.031c-0.277-0.194-0.623-0.437-1.067-0.437

                              c-0.354,0-0.69,0.148-1.026,0.454c-0.387,0.351-0.563,0.655-0.655,0.889c-0.036-0.039-0.07-0.078-0.099-0.11

                              c-0.239-0.27-0.51-0.575-0.901-0.575c-0.141,0-0.409,0.046-0.626,0.349l-0.095,0.137c-0.228,0.331-0.324,0.435-0.482,0.435

                              c-0.138,0-0.399-0.066-0.869-0.38l-0.119-0.059c-1.227-0.408-1.768-0.53-1.925-0.562c-0.483-0.167-1.911-0.646-2.408-0.646

                              c0,0,0,0-0.001,0c-0.041-0.003-0.165-0.038-0.266-0.066c-0.318-0.089-0.8-0.223-1.39-0.223c-0.373,0-0.742,0.054-1.106,0.162

                              c-0.005-0.052-0.003-0.108,0.003-0.145c0.633-0.1,0.964-0.637,1.081-0.995c0.158-0.264,0.693-1.245,0.979-2.884

                              c0.247-1.411,0.421-1.482,0.767-1.625L27.259,38c0.731-0.312,1.258-1.552,1.323-2.226c0.039-0.026,0.092-0.059,0.132-0.083

                              c0.265-0.162,0.664-0.406,0.756-0.897c0.07-0.381-0.07-0.796-0.432-1.268c-0.365-0.478-0.622-0.705-0.828-0.825

                              c-0.001-0.003-0.001-0.006-0.001-0.01l-0.016-0.237l-0.126-0.297c-0.429-0.482-0.947-0.552-1.325-0.603

                              c-0.368-0.049-0.537-0.08-0.689-0.298c-0.392-0.561-0.85-0.679-1.165-0.679c-0.124,0-0.238,0.019-0.336,0.045

                              c-0.314-0.145-0.895-0.278-2.005-0.427c-0.807-0.715-1.247-0.914-2.017-1.264l-0.126-0.057c-0.25-0.113-0.58-0.462-0.929-0.83

                              c-0.645-0.681-1.446-1.526-2.55-1.803l-0.121-0.015c-0.371,0-0.637,0.034-0.831,0.059c-0.104,0.014-0.191,0.026-0.274,0.026

                              c-0.071,0-0.142-0.008-0.301-0.1l-0.188-0.064c-2.186-0.388-3.398-0.98-3.604-1.761l-0.212-0.292

                              c-0.483-0.312-0.824-0.591-1.125-0.836c-0.507-0.414-0.913-0.745-1.581-0.876c-0.043-0.027-0.06-0.048-0.075-0.079

                              C8.535,22.151,8.43,21.973,8.143,21.8L8.01,21.723c-0.374-0.215-0.839-0.482-1.066-1.219l-0.091-0.17

                              c-0.48-0.586-0.766-1.089-1.042-1.575c-0.115-0.202-0.225-0.396-0.341-0.582l-0.187-0.175c-0.44-0.237-0.795-0.339-1.055-0.413

                              c-0.064-0.018-0.138-0.039-0.192-0.058c0.005-0.064,0.021-0.179,0.071-0.378l1.658-6.076l0.013-0.201L5.41,8.236L7.5,5.399

                              l0.084-0.18l0.395-1.646C9.731,3.297,15.079,2.398,16.48,1.509 M16.33,1C15.304,1.947,7.57,3.131,7.57,3.131L7.097,5.103l-2.21,3

                              l0.395,2.841L3.624,17.02c-0.315,1.263,0.208,0.767,1.421,1.421c0.394,0.631,0.71,1.341,1.421,2.209

                              c0.315,1.026,1.025,1.342,1.419,1.578c0.395,0.238,0.158,0.394,0.631,0.633c0.948,0.157,1.263,0.789,2.604,1.655

                              c0.396,1.499,3.158,1.976,4.026,2.13c0.222,0.129,0.38,0.167,0.552,0.167c0.255,0,0.539-0.085,1.105-0.085

                              c1.578,0.395,2.526,2.208,3.393,2.603c0.868,0.395,1.262,0.553,2.131,1.341c2.41,0.311,2.121,0.533,2.112,0.54

                              c0.007-0.005,0.193-0.134,0.448-0.134c0.224,0,0.499,0.099,0.755,0.465c0.554,0.788,1.42,0.236,2.052,0.946

                              c0.078,1.104-0.078,0,0.946,1.341c1.025,1.34-0.552,1.34-0.552,1.813c0,0.477-0.473,1.66-1.026,1.896

                              c-0.552,0.237-0.866,0.237-1.184,2.05c-0.316,1.814-0.947,2.764-0.947,2.764s-0.159,0.632-0.71,0.709

                              c-0.554,0.08-0.396,0.79-0.396,0.79s-0.364,0.637-0.711,1.012c0.874-0.646,1.657-0.827,2.3-0.827c0.812,0,1.396,0.289,1.647,0.289

                              c0.474,0,2.288,0.631,2.288,0.631s0.473,0.078,1.896,0.552c0.503,0.336,0.867,0.464,1.146,0.464c0.507,0,0.729-0.423,0.984-0.78

                              c0.07-0.099,0.144-0.14,0.219-0.14c0.344,0,0.732,0.852,1.121,0.852c0.475,0,0-0.396,0.87-1.185

                              c0.261-0.236,0.485-0.324,0.69-0.324c0.476,0,0.84,0.475,1.282,0.64c-0.079-0.395,0.551-0.315,0.946-0.473

                              c0.394-0.157-0.079-0.789-0.079-0.789l0.395-0.474c0,0,0.631-0.078,0.552-0.71c0.146,0.044,0.29,0.063,0.43,0.063

                              c0.618,0,1.121-0.387,0.993-0.772c0,0,0.867-0.237,1.024-0.871c0.047-0.01,0.092-0.014,0.134-0.014

                              c0.169,0,0.295,0.061,0.354,0.061c0.05,0,0.051-0.043-0.014-0.204c-0.157-0.709,0.158-0.631,0.473-1.026

                              c0.552-0.236,0.158-1.576,0.237-2.366c0.632-0.156,0.236-1.34,0.158-1.973c0.474-0.237,0.156-0.317-0.158-1.264

                              c1.814-0.394,1.184-2.764,1.341-3.158c0.157-0.394,0.71-1.261,0.315-2.129c1.186-0.71,0.474-2.208,0.474-2.208l-1.815-1.266

                              c0,0-0.629,0.316-1.261,0.711c-0.129,0.301-0.581,0.438-1.145,0.438c-0.478,0-1.034-0.099-1.54-0.281

                              c0.395-0.474,0.236-1.42-0.474-1.972c0.236-0.552,0.316-0.946-0.157-1.262c0.552-0.712,0.237-0.158,0.237-1.342

                              c-0.553-0.237-0.317-0.71-0.71-1.578c1.262-1.026-0.395-1.736-0.395-1.736l0.078-0.789l-0.552-0.475c0,0-0.171,0.085-0.563,0.085

                              c-0.261,0-0.62-0.038-1.093-0.164c-0.54-0.823-0.937-1.095-1.253-1.095c-0.562,0-0.869,0.864-1.273,1.016

                              c-0.829-0.178-1.08-0.267-1.521-0.267c-0.146,0-0.314,0.01-0.531,0.03c-0.058,0.005-0.119,0.008-0.185,0.008

                              c-0.909,0-2.425-0.492-2.5-0.639c0-0.058-0.037-0.078-0.107-0.078c-0.167,0-0.521,0.116-1.001,0.116

                              c-0.146,0-0.302-0.011-0.469-0.039c0.474-0.473,0.237-1.895,0.237-2.289c-0.553-0.71-0.158-0.552,0.078-1.5

                              c0.158-0.473,0.236-1.893,0.078-2.525c0.237-0.631-0.236-1.341-0.552-1.341c-0.078-1.736-0.631-2.052-0.947-2.684

                              c0.396-0.631-0.079-1.815-0.079-1.815l-4.735-2.683C20.986,1.316,17.829,1.08,16.33,1L16.33,1z M24.44,31.212L24.44,31.212

                              L24.44,31.212L24.44,31.212z M23.115,44.864c-0.104,0.077-0.208,0.16-0.314,0.25C22.896,45.076,23.005,44.983,23.115,44.864

                              L23.115,44.864z"/>

</g>

</svg>
