<?xml version="1.0" encoding="UTF-8"?>
<!DOCTYPE svg PUBLIC "-//W3C//DTD SVG 1.1//EN" "http://www.w3.org/Graphics/SVG/1.1/DTD/svg11.dtd" [
        <!ENTITY fill_color "#FFFFFF">
        <!ENTITY stroke_color "#000000">
]>

<svg
   xmlns:dc="http://purl.org/dc/elements/1.1/"
   xmlns:cc="http://creativecommons.org/ns#"
   xmlns:rdf="http://www.w3.org/1999/02/22-rdf-syntax-ns#"
   xmlns:svg="http://www.w3.org/2000/svg"
   xmlns="http://www.w3.org/2000/svg"
   xmlns:sodipodi="http://sodipodi.sourceforge.net/DTD/sodipodi-0.dtd"
   xmlns:inkscape="http://www.inkscape.org/namespaces/inkscape"
   width="48px"
   height="48px"
   id="svg2985"
   version="1.1"
   inkscape:version="0.48.0 r9654"
   sodipodi:docname="activity-hMouse.svg">
  <title
     id="title3820">activity-hMouse</title>
  <defs
     id="defs2987">
 <style
   id="style2999"
   type="text/css">
   
    .fil1 {fill:white}
    .fil0 {fill:#E8112D}
   
  </style>

  
  
  
  
 
   
   
  </defs>
  <sodipodi:namedview
     id="base"
     pagecolor="#ffffff"
     bordercolor="#666666"
     borderopacity="1.0"
     inkscape:pageopacity="0.0"
     inkscape:pageshadow="2"
     inkscape:zoom="11.150543"
     inkscape:cx="18.769018"
     inkscape:cy="21.433349"
     inkscape:current-layer="layer1"
     showgrid="true"
     inkscape:grid-bbox="true"
     inkscape:document-units="px"
     inkscape:window-width="1152"
     inkscape:window-height="808"
     inkscape:window-x="-4"
     inkscape:window-y="-4"
     inkscape:window-maximized="1" />
  <metadata
     id="metadata2990">
    <rdf:RDF>
      <cc:Work
         rdf:about="">
        <dc:format>image/svg+xml</dc:format>
        <dc:type
           rdf:resource="http://purl.org/dc/dcmitype/StillImage" />
        <dc:title>activity-hMouse</dc:title>
        <dc:date>11-2010</dc:date>
        <dc:creator>
          <cc:Agent>
            <dc:title>Rodrigo Pérez</dc:title>
          </cc:Agent>
        </dc:creator>
        <dc:rights>
          <cc:Agent>
            <dc:title>Fundación Teletón 2010</dc:title>
          </cc:Agent>
        </dc:rights>
        <cc:license
           rdf:resource="http://creativecommons.org/licenses/by-nc/3.0/" />
      </cc:Work>
      <cc:License
         rdf:about="http://creativecommons.org/licenses/by-nc/3.0/">
        <cc:permits
           rdf:resource="http://creativecommons.org/ns#Reproduction" />
        <cc:permits
           rdf:resource="http://creativecommons.org/ns#Distribution" />
        <cc:requires
           rdf:resource="http://creativecommons.org/ns#Notice" />
        <cc:requires
           rdf:resource="http://creativecommons.org/ns#Attribution" />
        <cc:prohibits
           rdf:resource="http://creativecommons.org/ns#CommercialUse" />
        <cc:permits
           rdf:resource="http://creativecommons.org/ns#DerivativeWorks" />
      </cc:License>
    </rdf:RDF>
  </metadata>
  <g
     id="layer1"
     inkscape:label="Layer 1"
     inkscape:groupmode="layer">
    <rect
       style="fill:&fill_color;;stroke:&stroke_color;;stroke-width:2"
       display="inline"
       height="23.748533"
       width="33.781387"
       x="-7.6635222"
       y="7.5437942"
       id="rect3833"
       transform="matrix(0.93310845,-0.35959508,0.35959508,0.93310845,0,0)" />
    <path
       style="fill:&stroke_color;;stroke:&fill_color;;stroke-width:2"
       inkscape:connector-curvature="0"
       d="M 13.083735,8.1118167 C 6.0396951,10.826402 2.7339134,19.738719 2.7339134,19.738719 c 0,0 8.4426446,4.419526 15.4860576,1.701047 7.042098,-2.719624 10.338227,-11.6637893 10.338227,-11.6637893 0,0 -8.431605,-4.3840784 -15.474463,-1.66416 z m 4.370533,11.3410353 c -2.727094,1.050949 -5.746046,-0.192516 -6.740711,-2.773559 -0.993278,-2.577442 0.408305,-5.5286 3.136159,-6.579842 2.72405,-1.0497767 5.745911,0.196704 6.739189,2.774147 0.994665,2.581043 -0.410588,5.529478 -3.134637,6.579254 z"
       display="inline"
       id="path3835" />
    <circle
       d="m 30.45,27.598 c 0,1.627031 -1.318969,2.946 -2.946,2.946 -1.627031,0 -2.946,-1.318969 -2.946,-2.946 0,-1.627031 1.318969,-2.946001 2.946,-2.946001 1.627031,0 2.946,1.31897 2.946,2.946001 z"
       style="fill:&fill_color;;stroke:&stroke_color;;stroke-width:2"
       sodipodi:ry="2.9460001"
       sodipodi:rx="2.9460001"
       sodipodi:cy="27.598"
       sodipodi:cx="27.504"
       cx="27.504"
       cy="27.598"
       display="inline"
       r="2.9460001"
       id="circle3837"
       transform="matrix(0.76069544,-0.29315171,0.27752934,0.72015717,-12.928115,2.9652457)" />
    <path
       style="fill:&fill_color;;stroke:&stroke_color;;stroke-width:2"
       d="m 12.617463,22.200061 0,16.601802 4.765297,-3.077863 8.786962,9.830117 4.642509,-2.834976 -8.866246,-9.91881 4.534158,-3.138786 z"
       id="path3814"
       inkscape:connector-curvature="0" />
    <rect
       style="fill:&fill_color;;stroke:&stroke_color;;stroke-width:2"
       id="rect3867"
       width="26.545792"
       height="1.7936345"
       x="19.909344"
       y="22.171663"
       ry="0.62777209" />
    <rect
       style="fill:&fill_color;;stroke:&stroke_color;;stroke-width:2"
       id="rect3867-7"
       width="26.545792"
       height="1.7936345"
       x="29.953697"
       y="27.552567"
       ry="0.62777209" />
    <rect
       style="fill:&fill_color;;stroke:&stroke_color;;stroke-width:2"
       id="rect3867-4"
       width="26.545792"
       height="1.7936345"
       x="27.801336"
       y="34.368378"
       ry="0.62777209" />
    <rect
       style="fill:&fill_color;;stroke:&stroke_color;;stroke-width:2"
       id="rect3867-0"
       width="26.545792"
       height="1.7936345"
       x="34.796509"
       y="41.004826"
       ry="0.62777209" />
    <g
       id="g3797"
       transform="matrix(0.07182521,-0.03030926,0.03030926,0.07182521,31.950188,8.7553125)">
      <g
         id="g3806"
         transform="matrix(0.88435708,0.88814365,-0.88814365,0.88435708,20.933415,-73.039617)">
        <g
           id="g3814">
          <path
             id="path3003"
             d="m 62.169627,-6.599767 1.167166,-1.5558661 c 4.861417,6.6118108 10.111889,12.9316532 15.653976,18.9602361 4.958858,5.54244 12.05681,9.626102 19.154763,11.66811 -0.194173,-4.667244 -1.750039,-9.431929 -4.180748,-13.418504 0,0 -1.264252,-2.7219685 -4.473071,-7.0975983 -5.152677,-7.000866 -11.375787,-13.0290937 -17.987598,-18.6686217 13.126181,-11.084173 27.905669,-17.209842 45.310035,-17.209842 17.30729,0 32.08677,6.125669 45.21296,17.209842 -6.90378,5.833701 -18.27957,16.62661389 -22.46067,25.1829916 -2.43071,4.1811024 -3.98658,9.0425194 -4.08366,13.9042914 7.48665,-2.042008 14.68169,-6.417284 19.83507,-12.153898 0,0 8.07024,-8.9457869 13.80721,-16.7240544 l 1.16645,-1.5555118 c 9.43158,12.73748 14.58496,26.2523612 14.58496,42.2957472 0,16.237204 -5.25082,29.947322 -15.0711,42.684448 -4.37527,-6.028583 -9.13996,-11.95937 -14.00137,-17.696339 -4.86178,-5.930787 -11.66776,-10.50059 -18.96024,-12.542598 -0.0974,4.569803 1.36169,9.237047 3.7924,13.223622 0,0 1.26425,2.430709 4.37492,6.417638 5.25083,6.708543 11.47394,12.542598 17.79343,18.084684 -13.12618,11.473228 -28.29402,17.89087 -45.99036,17.89087 -17.890508,0 -33.253224,-6.514374 -46.476846,-18.279925 6.90378,-5.931141 18.765708,-16.820787 23.23807,-25.377519 2.333977,-3.986575 3.889843,-8.556378 3.792402,-13.223267 -7.292126,2.13874 -14.195905,6.708897 -18.960236,12.542952 0,0 -8.070236,9.43122 -13.709763,17.307283 l -1.069725,1.555512 C 53.904864,63.990349 48.654746,50.378027 48.654746,34.237555 c 0,-15.362716 5.055944,-29.4615349 13.514881,-40.837322 z"
             class="fil0"
             inkscape:connector-curvature="0"
             style="fill:#ff2a2a" />
          <g
             transform="translate(0.51108345,-0.71745383)"
             id="g3793">
            <path
               d="M 63.336793,-3.2942159 C 55.947226,7.3038153 51.474155,20.236177 51.474155,34.237555 c 0,14.001377 4.473071,27.127558 12.056811,37.725589 C 69.170139,64.37905 76.2688,56.211728 76.2688,56.211728 82.102501,49.016334 90.658524,43.668775 99.798485,41.918381 c 0,0 0.583585,3.403701 0.194527,6.515079 -0.291968,3.013583 -1.264252,7.194685 -3.889488,11.570315 0,0 -1.360984,2.62559 -4.958858,7.195393 -3.305551,4.180394 -8.556024,10.014803 -16.528819,16.820787 11.375788,9.626102 26.058193,15.459803 42.198303,15.459803 15.84886,0 30.33638,-5.736614 41.71252,-15.070748 -6.32019,-5.542086 -16.23756,-15.362716 -20.41866,-23.141338 -3.20882,-5.444645 -4.86177,-11.765196 -3.69496,-18.085039 0,0 4.5698,0.875197 8.94508,2.916851 4.37563,2.042007 9.91807,5.54244 14.58531,11.279054 0,0 6.51437,7.486654 11.86193,14.779488 7.68118,-10.695826 12.25099,-23.822007 12.25099,-37.920471 0,-14.001378 -4.37528,-26.8362987 -11.86193,-37.43433 C 164.5549,4.1931461 157.4573,12.0685 157.4573,12.0685 c -6.41728,7.097953 -15.36307,12.153898 -24.6972,13.709764 0,0 -0.29162,-3.597874 0.0971,-6.805984 0.48615,-3.111378 1.55587,-7.389921 4.18111,-11.765197 0,0 1.26389,-2.7226771 4.66724,-7.19503917 3.20882,-4.27854323 8.26476,-10.01480283 15.94559,-16.72405483 -11.18161,-8.945433 -25.37716,-14.390433 -40.83697,-14.390433 -15.55724,0 -29.753145,5.445 -40.934759,14.390433 6.611811,5.833701 16.626968,16.04303123 20.613542,24.4052357 3.305552,5.6395273 4.958507,11.8619293 4.277837,18.3770073 0,0 -4.861419,-1.069724 -9.333781,-3.014645 C 87.061005,21.11102 81.421477,17.805469 76.851674,12.74917 c 0,0 -7.778267,-8.4592916 -13.514881,-16.0433859 z"
               class="fil1"
               id="_75018024"
               inkscape:connector-curvature="0"
               style="fill:#ffffff" />
            <path
               d="m 51.481596,33.264917 130.568024,0 0.007,0.972638 c 0,14.098464 -4.5698,27.224645 -12.25098,37.920471 -5.34756,-7.292834 -11.86193,-14.779488 -11.86193,-14.779488 -4.66725,-5.736614 -10.20969,-9.237047 -14.58532,-11.279054 -4.37527,-2.041654 -8.94508,-2.916851 -8.94508,-2.916851 -1.16681,6.319843 0.48615,12.640394 3.69497,18.085039 4.1811,7.778622 14.09846,17.599252 20.41866,23.141338 -11.37615,9.334134 -25.86366,15.070748 -41.71252,15.070748 -16.14012,0 -30.822521,-5.833701 -42.198308,-15.459803 7.972795,-6.805984 13.223267,-12.640393 16.528818,-16.820787 3.597874,-4.569803 4.958858,-7.195393 4.958858,-7.195393 2.625237,-4.37563 3.59752,-8.556732 3.889488,-11.570315 0.389054,-3.111378 -0.194527,-6.515079 -0.194527,-6.515079 -9.13996,1.750394 -17.695984,7.097953 -23.529685,14.293347 0,0 -7.098661,8.167322 -12.737834,15.751416 C 55.94758,61.365113 51.474509,48.238932 51.474509,34.237555 l 0.0074,-0.972638 z"
               class="fil0"
               id="_74804848"
               inkscape:connector-curvature="0"
               style="fill:#ff2a2a;stroke:#ff2a2a" />
          </g>
        </g>
      </g>
    </g>
    <path
       style="fill:&fill_color;;stroke:&stroke_color;;stroke-width:2"
       d="m 0.28536551,7.9219995 0,14.1097395"
       id="path3824"
       inkscape:connector-curvature="0" />
    <path
       style="fill:&fill_color;;stroke:&stroke_color;;stroke-width:2"
       d="m 19.431888,0.55836612 8.750595,0"
       id="path3826"
       inkscape:connector-curvature="0" />
  </g>
</svg>
