<?xml version="1.0" ?>
<!DOCTYPE svg  PUBLIC '-//W3C//DTD SVG 1.1//EN'  'http://www.w3.org/Graphics/SVG/1.1/DTD/svg11.dtd' [
	<!ENTITY stroke_color "#000">
	<!ENTITY fill_color "#aaa">
]>
<svg height="55px" viewBox="0 0 55 55" width="55px" xmlns="http://www.w3.org/2000/svg" xmlns:xlink="http://www.w3.org/1999/xlink" stroke-linecap="round" stroke-linejoin="round" stroke-width="3.5" stroke="&stroke_color;" fill="&fill_color;">
  <path
     d="m 17.303783,22.83204 c -0.798248,-0.824469 -1.716429,-2.645531 -1.932916,-4.049341 -0.278488,-1.805872 0.302423,-3.536537 1.378629,-5.013192 1.398207,-1.918472 5.502089,-1.417958 5.890501,-3.759894 C 22.891512,8.4930863 18.278701,7.5503745 19.50675,6.6257091 22.262444,4.5508001 26.370327,4.812097 29.533135,5.497741 c 3.013833,0.6533492 5.027008,2.282604 7.018465,4.637202 1.411662,1.669073 2.676512,3.714237 2.882588,5.8905 0.3043,3.213549 -0.409918,5.920155 -2.525994,7.297489 C 25.631951,40.818886 22.077716,26.322378 17.303783,22.83204 z"
     id="path3834"
     style="fill:&stroke_color;;fill-opacity:1;stroke:none" />
  <path
     d="m 27.583244,27.059017 c -2.714801,-0.06064 -5.278176,-2.051366 -7.018469,-4.135885 -1.084252,-1.298716 -1.806644,-3.071506 -1.754615,-4.762529 0.03508,-1.140508 0.310315,-2.732379 1.378625,-3.133247 2.764646,-1.037389 5.070134,3.865636 8.021109,3.759893 2.822361,-0.101133 4.581183,-4.383746 7.394455,-4.135883 1.182934,0.104224 2.583976,1.081135 2.757254,2.255936 0.404084,2.739617 -2.579584,5.039766 -4.6372,6.893141 -1.721859,1.550945 -3.824358,3.310325 -6.141159,3.258574 z"
     id="path3847"
     style="fill:&fill_color;;fill-opacity:1;stroke:none" />
  <circle
     cx="27.371"
     cy="10.849"
     r="8.1219997"
     transform="matrix(0.708772,0,0,0.708772,8.1002006,11.08194)"
     id="circle3053"
     style="fill:&fill_color;;stroke:&stroke_color;;stroke-width:3.5" />
  <path
     d="m 31.65234,36.58649 7.160015,7.158597 c 0.532995,0.531577 0.862576,1.263741 0.862576,2.078119 0,1.620962 -1.314771,2.936443 -2.938568,2.936443 -0.811547,0 -1.543707,-0.328163 -2.078119,-0.858323 l -7.160015,-7.160725 -7.158597,7.158601 c -0.531581,0.531577 -1.266576,0.858319 -2.079537,0.858319 -1.618837,0 -2.936443,-1.31406 -2.936443,-2.935022 0,-0.812253 0.329577,-1.547959 0.85903,-2.079537 L 23.344114,36.582948 16.1841,29.424347 c -0.529453,-0.53016 -0.859031,-1.265159 -0.859031,-2.076706 0,-1.622378 1.314064,-2.938567 2.938568,-2.938567 0.810129,0 1.545124,0.329581 2.076702,0.860452 l 7.15789,7.160018 7.160015,-7.160729 c 0.534412,-0.53087 1.266572,-0.860448 2.079537,-0.860448 1.622379,0 2.938567,1.315478 2.938567,2.937857 0,0.812253 -0.330998,1.545128 -0.862576,2.078123 L 31.65234,36.58649 z"
     id="path3051"
     style="fill:&fill_color;;stroke:&stroke_color;;stroke-width:2.48070216" />
</svg>
