<?xml version="1.0" encoding="UTF-8" standalone="no"?>
<!-- Created with Inkscape (http://www.inkscape.org/) -->

<svg
   xmlns:dc="http://purl.org/dc/elements/1.1/"
   xmlns:cc="http://creativecommons.org/ns#"
   xmlns:rdf="http://www.w3.org/1999/02/22-rdf-syntax-ns#"
   xmlns:svg="http://www.w3.org/2000/svg"
   xmlns="http://www.w3.org/2000/svg"
   xmlns:sodipodi="http://sodipodi.sourceforge.net/DTD/sodipodi-0.dtd"
   xmlns:inkscape="http://www.inkscape.org/namespaces/inkscape"
   height="55"
   id="svg2"
   inkscape:output_extension="org.inkscape.output.svg.inkscape"
   inkscape:version="0.48.4 r9939"
   sodipodi:docname="activity-generic.svg"
   sodipodi:version="0.32"
   style=""
   version="1.0"
   width="55">
  <metadata
     id="metadata20">
    <rdf:RDF>
      <cc:Work
         rdf:about="">
        <dc:format>image/svg+xml</dc:format>
        <dc:type
           rdf:resource="http://purl.org/dc/dcmitype/StillImage" />
        <dc:title></dc:title>
      </cc:Work>
    </rdf:RDF>
  </metadata>
  <sodipodi:namedview
     bordercolor="#666666"
     borderopacity="1"
     gridtolerance="10"
     guidetolerance="10"
     id="namedview18"
     inkscape:current-layer="svg2"
     inkscape:cx="-15.963983"
     inkscape:cy="36.822034"
     inkscape:pageopacity="0"
     inkscape:pageshadow="2"
     inkscape:window-height="744"
     inkscape:window-width="1366"
     inkscape:window-x="0"
     inkscape:window-y="24"
     inkscape:zoom="4.2909091"
     objecttolerance="10"
     pagecolor="#ffffff"
     showgrid="false"
     inkscape:window-maximized="1">
    <inkscape:grid
       id="grid796"
       type="xygrid" />
  </sodipodi:namedview>
  <defs
     id="defs4"
     style="">
    <inkscape:perspective
       id="perspective22"
       inkscape:persp3d-origin="27.5 : 18.333333 : 1"
       inkscape:vp_x="0 : 27.5 : 1"
       inkscape:vp_y="0 : 1000 : 0"
       inkscape:vp_z="55 : 27.5 : 1"
       sodipodi:type="inkscape:persp3d" />
  </defs>
  <g
     id="layer1"
     transform="matrix(0.2433589,0,0,0.31015356,13.107195,8.5502743)">
    <rect
       height="35"
       id="rect16"
       width="35"
       x="10"
       y="10" />
    <text
       id="text790"
       style="font-size:40px;font-style:normal;font-weight:normal"
       x="17.911133"
       xml:space="preserve"
       y="40"><tspan
         id="tspan792"
         style="font-size:36px"
         x="17.911133"
         y="40">?</tspan></text>
  </g>
  <g
     id="layer1-9"
     transform="matrix(0.2433589,0,0,0.31015356,28.731359,8.483489)">
    <rect
       height="35"
       id="rect16-6"
       width="35"
       x="10"
       y="10" />
    <text
       id="text790-8"
       style="font-size:40px;font-style:normal;font-weight:normal"
       x="17.911133"
       xml:space="preserve"
       y="40"><tspan
         id="tspan792-1"
         style="font-size:36px"
         x="17.911133"
         y="40">?</tspan></text>
  </g>
  <g
     id="layer1-6"
     transform="matrix(0.2433589,0,0,0.31015356,13.583054,26.661456)">
    <rect
       height="35"
       id="rect16-5"
       width="35"
       x="10"
       y="10" />
    <text
       id="text790-2"
       style="font-size:40px;font-style:normal;font-weight:normal"
       x="17.911133"
       xml:space="preserve"
       y="40"><tspan
         id="tspan792-0"
         style="font-size:36px"
         x="17.911133"
         y="40">?</tspan></text>
  </g>
  <g
     id="layer1-0"
     transform="matrix(0.2433589,0,0,0.31015356,28.498308,26.428404)">
    <rect
       height="35"
       id="rect16-55"
       width="35"
       x="10"
       y="10" />
    <text
       id="text790-3"
       style="font-size:40px;font-style:normal;font-weight:normal"
       x="17.911133"
       xml:space="preserve"
       y="40"><tspan
         id="tspan792-3"
         style="font-size:36px"
         x="17.911133"
         y="40">?</tspan></text>
  </g>
  <path
     style="fill:none;stroke:#000000;stroke-width:0.64424527px;stroke-linecap:butt;stroke-linejoin:miter;stroke-opacity:1"
     d="m 40.029572,40.37297 -1.287958,4.55067 z"
     id="path3910"
     inkscape:connector-curvature="0" />
  <path
     style="fill:none;stroke:#000000;stroke-width:0.83668733px;stroke-linecap:butt;stroke-linejoin:miter;stroke-opacity:1"
     d="M 44.128266,42.26386 40.190598,40.438912 40.00309,40.236141 z"
     id="path3912"
     inkscape:connector-curvature="0" />
  <path
     style="fill:none;stroke:#000000;stroke-width:1px;stroke-linecap:butt;stroke-linejoin:miter;stroke-opacity:1"
     d="m 39.618644,40.084746 4.427966,8.38983 z"
     id="path3914"
     inkscape:connector-curvature="0" />
  <path
     style="fill:#008000;fill-opacity:1;stroke:#1c1c1c;stroke-width:0.23305085000000000;stroke-opacity:1"
     d="m 15.544492,17.105932 0,-5.360169 4.194915,0 4.194915,0 0,5.360169 0,5.36017 -4.194915,0 -4.194915,0 0,-5.36017 z"
     id="path3770"
     inkscape:connector-curvature="0" />
  <path
     style="fill:#008000;fill-opacity:1;stroke:#1c1c1c;stroke-width:0.23305085;stroke-opacity:1"
     d="m 31.391949,16.989407 0,-5.243644 4.07839,0 4.07839,0 0,5.243644 0,5.243644 -4.07839,0 -4.07839,0 0,-5.243644 z"
     id="path3772"
     inkscape:connector-curvature="0" />
  <path
     style="fill:#008000;fill-opacity:1;stroke:#1c1c1c;stroke-width:0.23305085;stroke-opacity:1"
     d="m 16.243644,35.167373 0,-5.243644 4.07839,0 4.07839,0 0,5.243644 0,5.243644 -4.07839,0 -4.07839,0 0,-5.243644 z"
     id="path3774"
     inkscape:connector-curvature="0" />
  <path
     style="fill:#008000;fill-opacity:1;stroke:#1c1c1c;stroke-width:0.23305085;stroke-opacity:1"
     d="m 31.158898,34.934322 0,-5.243644 4.07839,0 4.07839,0 0,5.243644 0,5.243644 -4.07839,0 -4.07839,0 0,-5.243644 z"
     id="path3776"
     inkscape:connector-curvature="0" />
  <path
     style="fill:#008000;fill-opacity:1;stroke:#fe0000;stroke-width:0.23305085;stroke-opacity:1"
     d="m 41.874254,44.897245 c -0.922368,-1.762447 -1.757306,-3.290876 -1.855417,-3.39651 -0.09811,-0.105634 -0.360191,0.549822 -0.582401,1.456568 -0.222209,0.906746 -0.497593,1.648629 -0.611964,1.648629 -0.287542,0 -0.267974,-0.141325 0.258155,-1.864407 0.254398,-0.833157 0.463342,-1.803231 0.464321,-2.15572 0.0025,-0.88258 0.527296,-0.838309 2.67801,0.225893 2.344112,1.159897 2.33795,1.719104 -0.0072,0.650399 l -1.758904,-0.801558 1.87543,3.574806 c 1.031486,1.966144 1.875429,3.640404 1.875429,3.720578 0,0.08017 -0.148153,0.145772 -0.329229,0.145772 -0.186331,0 -1.057125,-1.390853 -2.006263,-3.20445 z"
     id="path3778"
     inkscape:connector-curvature="0" />
  <path
     style="fill:#008000;fill-opacity:1;stroke:#fe0000;stroke-width:0.23305085;stroke-opacity:1"
     d="m 31.625,16.989407 0,-5.010594 3.845339,0 3.845339,0 0,5.010594 0,5.010593 -3.845339,0 -3.845339,0 0,-5.010593 z"
     id="path3780"
     inkscape:connector-curvature="0" />
  <path
     style="fill:#008000;fill-opacity:1;stroke:#fe0000;stroke-width:0.23305085;stroke-opacity:1"
     d="m 15.777542,17.105932 0,-5.127119 3.961865,0 3.961864,0 0,5.127119 0,5.127119 -3.961864,0 -3.961865,0 0,-5.127119 z"
     id="path3782"
     inkscape:connector-curvature="0" />
  <path
     style="fill:#008000;fill-opacity:1;stroke:#fe0000;stroke-width:0.23305085;stroke-opacity:1"
     d="m 16.476695,35.167373 0,-5.010594 3.845339,0 3.845339,0 0,5.010594 0,5.010593 -3.845339,0 -3.845339,0 0,-5.010593 z"
     id="path3784"
     inkscape:connector-curvature="0" />
  <path
     style="fill:#008000;fill-opacity:1;stroke:#fe0000;stroke-width:0.23305085;stroke-opacity:1"
     d="m 31.391949,34.934322 0,-5.010593 3.845339,0 3.845339,0 0,5.010593 0,5.010593 -3.845339,0 -3.845339,0 0,-5.010593 z"
     id="path3786"
     inkscape:connector-curvature="0" />
  <path
     style="fill:#008000;fill-opacity:1;stroke:#fe0000;stroke-width:0.23305085;stroke-opacity:1"
     d="m 16.010593,17.105932 0,-4.894068 3.728814,0 3.728813,0 0,4.894068 0,4.894068 -3.728813,0 -3.728814,0 0,-4.894068 z"
     id="path3011"
     inkscape:connector-curvature="0" />
  <path
     style="fill:#008000;fill-opacity:1;stroke:#fe0000;stroke-width:0.23305085;stroke-opacity:1"
     d="m 31.858051,16.989407 0,-4.777543 3.612288,0 3.612288,0 0,4.777543 0,4.777542 -3.612288,0 -3.612288,0 0,-4.777542 z"
     id="path3013"
     inkscape:connector-curvature="0" />
  <path
     style="fill:#008000;fill-opacity:1;stroke:#fe0000;stroke-width:0.23305085;stroke-opacity:1"
     d="m 31.625,34.934322 0,-4.777543 3.612288,0 3.612288,0 0,4.777543 0,4.777542 -3.612288,0 -3.612288,0 0,-4.777542 z"
     id="path3015"
     inkscape:connector-curvature="0" />
  <path
     style="fill:#008000;fill-opacity:1;stroke:#fe0000;stroke-width:0.23305085;stroke-opacity:1"
     d="m 16.709746,35.167373 0,-4.777543 3.612288,0 3.612288,0 0,4.777543 0,4.777542 -3.612288,0 -3.612288,0 0,-4.777542 z"
     id="path3017"
     inkscape:connector-curvature="0" />
  <path
     style="fill:#008000;fill-opacity:1;stroke:#fe0000;stroke-width:0.23305085;stroke-opacity:1"
     d="m 16.243644,17.105932 0,-4.661017 3.495763,0 3.495763,0 0,4.661017 0,4.661017 -3.495763,0 -3.495763,0 0,-4.661017 z"
     id="path3019"
     inkscape:connector-curvature="0" />
  <path
     style="fill:#008000;fill-opacity:1;stroke:#fe0000;stroke-width:0.23305085;stroke-opacity:1"
     d="m 32.091102,16.989407 0,-4.544492 3.379237,0 3.379237,0 0,4.544492 0,4.544491 -3.379237,0 -3.379237,0 0,-4.544491 z"
     id="path3021"
     inkscape:connector-curvature="0" />
  <path
     style="fill:#008000;fill-opacity:1;stroke:#fe0000;stroke-width:0.23305085;stroke-opacity:1"
     d="m 31.858051,34.934322 0,-4.544492 3.379237,0 3.379237,0 0,4.544492 0,4.544491 -3.379237,0 -3.379237,0 0,-4.544491 z"
     id="path3023"
     inkscape:connector-curvature="0" />
  <path
     style="fill:#008000;fill-opacity:1;stroke:#fe0000;stroke-width:0.23305085;stroke-opacity:1"
     d="m 16.942797,35.167373 0,-4.544492 3.379237,0 3.379237,0 0,4.544492 0,4.544491 -3.379237,0 -3.379237,0 0,-4.544491 z"
     id="path3025"
     inkscape:connector-curvature="0" />
  <path
     style="fill:#008000;fill-opacity:1;stroke:#fe0000;stroke-width:0.23305085;stroke-opacity:1"
     d="m 16.476695,17.105932 0,-4.427966 3.262712,0 3.262712,0 0,4.427966 0,4.427966 -3.262712,0 -3.262712,0 0,-4.427966 z"
     id="path3027"
     inkscape:connector-curvature="0" />
  <path
     style="fill:#008000;fill-opacity:1;stroke:#fe0000;stroke-width:0.23305085;stroke-opacity:1"
     d="m 32.324153,16.989407 0,-4.311441 3.146186,0 3.146186,0 0,4.311441 0,4.31144 -3.146186,0 -3.146186,0 0,-4.31144 z"
     id="path3029"
     inkscape:connector-curvature="0" />
  <path
     style="fill:#008000;fill-opacity:1;stroke:#fe0000;stroke-width:0.23305085;stroke-opacity:1"
     d="m 32.091102,34.934322 0,-4.311441 3.146186,0 3.146187,0 0,4.311441 0,4.311441 -3.146187,0 -3.146186,0 0,-4.311441 z"
     id="path3031"
     inkscape:connector-curvature="0" />
  <path
     style="fill:#008000;fill-opacity:1;stroke:#fe0000;stroke-width:0.23305085;stroke-opacity:1"
     d="m 17.175847,35.167373 0,-4.311441 3.146187,0 3.146186,0 0,4.311441 0,4.31144 -3.146186,0 -3.146187,0 0,-4.31144 z"
     id="path3033"
     inkscape:connector-curvature="0" />
  <path
     style="fill:#008000;fill-opacity:1;stroke:#fe0000;stroke-width:0.23305085;stroke-opacity:1"
     d="m 16.709746,17.105932 0,-4.194915 3.029661,0 3.029661,0 0,4.194915 0,4.194915 -3.029661,0 -3.029661,0 0,-4.194915 z"
     id="path3035"
     inkscape:connector-curvature="0" />
  <path
     style="fill:#008000;fill-opacity:1;stroke:#fe0000;stroke-width:0.23305085;stroke-opacity:1"
     d="m 32.557203,16.989407 0,-4.07839 2.913136,0 2.913136,0 0,4.07839 0,4.078389 -2.913136,0 -2.913136,0 0,-4.078389 z"
     id="path3037"
     inkscape:connector-curvature="0" />
  <path
     style="fill:#008000;fill-opacity:1;stroke:#fe0000;stroke-width:0.23305085;stroke-opacity:1"
     d="m 32.324153,34.934322 0,-4.07839 2.913135,0 2.913136,0 0,4.07839 0,4.07839 -2.913136,0 -2.913135,0 0,-4.07839 z"
     id="path3039"
     inkscape:connector-curvature="0" />
  <path
     style="fill:#008000;fill-opacity:1;stroke:#fe0000;stroke-width:0.23305085;stroke-opacity:1"
     d="m 17.408898,35.167373 0,-4.07839 2.913136,0 2.913136,0 0,4.07839 0,4.07839 -2.913136,0 -2.913136,0 0,-4.07839 z"
     id="path3041"
     inkscape:connector-curvature="0" />
</svg>
