<?xml version="1.0" ?><!-- Generator: Adobe Illustrator 13.0.0, SVG Export Plug-In . SVG Version: 6.00 Build 14948)  --><!-- Modified for Sugar by Marcos Orfila - http://www.marcosorfila.com --><!DOCTYPE svg  PUBLIC '-//W3C//DTD SVG 1.1//EN'  'http://www.w3.org/Graphics/SVG/1.1/DTD/svg11.dtd' [
	<!ENTITY stroke_color "none">
	<!ENTITY fill_color "#ffffff">
]><svg height="55" id="Layer_1" inkscape:output_extension="org.inkscape.output.svg.inkscape" inkscape:version="0.48.4 r9939" sodipodi:docname="jre-sugar-icon.svg" sodipodi:version="0.32" style="" version="1.0" viewBox="0 0 30 55" width="55" x="0px" xml:space="preserve" xmlns="http://www.w3.org/2000/svg" xmlns:cc="http://creativecommons.org/ns#" xmlns:dc="http://purl.org/dc/elements/1.1/" xmlns:inkscape="http://www.inkscape.org/namespaces/inkscape" xmlns:rdf="http://www.w3.org/1999/02/22-rdf-syntax-ns#" xmlns:sodipodi="http://sodipodi.sourceforge.net/DTD/sodipodi-0.dtd" xmlns:svg="http://www.w3.org/2000/svg" y="0px"><metadata id="metadata32" style=""><rdf:RDF style=""><cc:Work rdf:about="" style=""><dc:format style="">image/svg+xml</dc:format><dc:type rdf:resource="http://purl.org/dc/dcmitype/StillImage" style=""/></cc:Work></rdf:RDF></metadata><defs id="defs30" style=""><inkscape:perspective id="perspective34" inkscape:persp3d-origin="150 : 183.33333 : 1" inkscape:vp_x="0 : 275 : 1" inkscape:vp_y="0 : 1000 : 0" inkscape:vp_z="300 : 275 : 1" sodipodi:type="inkscape:persp3d" style=""/></defs><sodipodi:namedview bordercolor="#666666" borderopacity="1.0" gridtolerance="10.0" guidetolerance="10.0" id="base" inkscape:current-layer="Layer_1" inkscape:cx="47.011272" inkscape:cy="25.573157" inkscape:pageopacity="0.0" inkscape:pageshadow="2" inkscape:window-height="744" inkscape:window-maximized="1" inkscape:window-width="1366" inkscape:window-x="0" inkscape:window-y="24" inkscape:zoom="7.1854545" objecttolerance="10.0" pagecolor="#ffffff" showgrid="false" style=""/><path d="m 28.943806,42.9426 -0.200648,0 0,-0.112237 0.540116,0 0,0.112237 -0.19927,0 0,0.560004 -0.140198,0 0,-0.560004 z m 1.07728,0.02923 -0.0032,0 -0.198778,0.530862 -0.09097,0 -0.197498,-0.530862 -0.0025,0 0,0.530862 -0.132124,0 0,-0.672241 0.194446,0 0.183124,0.476023 0.182532,-0.476023 0.193757,0 0,0.672241 -0.128974,0 0,-0.530862 9.8e-5,0 z" id="path3" inkscape:connector-curvature="0" style="fill:&fill_color;;fill-opacity:1"/><path d="m 10.983593,29.1964 c 0,0 -1.3958765,0.811751 0.993398,1.086437 2.894537,0.330213 4.373902,0.282857 7.563702,-0.320861 0,0 0.838628,0.525842 2.009834,0.981288 C 14.399837,34.00793 5.3671065,30.765752 10.983593,29.1964" id="path5" inkscape:connector-curvature="0" style="fill:#6e6e6e;fill-opacity:1"/><path d="m 10.109816,25.197213 c 0,0 -1.5656105,1.158898 0.825436,1.406213 3.092036,0.31899 5.533883,0.345081 9.75922,-0.468541 0,0 0.584421,0.592495 1.503388,0.916505 -8.64561,2.528093 -18.2752661,0.199369 -12.088044,-1.854177" id="path7" inkscape:connector-curvature="0" style="fill:#6e6e6e;fill-opacity:1"/><path d="m 17.476021,18.413262 c 1.761928,2.02854 -0.462929,3.85397 -0.462929,3.85397 0,0 4.473834,-2.309527 2.419204,-5.201603 -1.91896,-2.69704 -3.390547,-4.037093 4.576028,-8.6574251 0,0 -12.504895,3.1231481 -6.532303,10.0050581" id="path9" inkscape:connector-curvature="0" style="fill:&fill_color;;fill-opacity:1"/><path d="m 26.933382,32.154441 c 0,0 1.032976,0.851132 -1.137632,1.50959 -4.127473,1.250361 -17.1789835,1.627932 -20.8046385,0.04982 -1.3033296,-0.566995 1.140783,-1.353836 1.909608,-1.518943 0.801806,-0.173869 1.26001,-0.141478 1.26001,-0.141478 -1.449435,-1.021066 -9.3685563,2.004907 -4.0225221,2.871497 14.5794136,2.364365 26.5768786,-1.064678 22.7951746,-2.770486" id="path11" inkscape:connector-curvature="0" style="fill:#6e6e6e;fill-opacity:1"/><path d="m 11.65485,21.053593 c 0,0 -6.6388295,1.576833 -2.3509765,2.14944 1.8104665,0.242394 5.4195805,0.187555 8.7813795,-0.09412 2.747448,-0.231759 5.506218,-0.72452 5.506218,-0.72452 0,0 -0.968784,0.414883 -1.669676,0.893468 C 15.18018,25.050912 2.1566304,24.226067 5.9059435,22.412453 9.0767415,20.879726 11.65485,21.053595 11.65485,21.053595" id="path13" inkscape:connector-curvature="0" style="fill:#6e6e6e;fill-opacity:1"/><path d="m 23.564101,27.710439 c 6.853163,-3.561168 3.68453,-6.983417 1.472867,-6.522359 -0.542086,0.112829 -0.78379,0.210592 -0.78379,0.210592 0,0 0.20124,-0.315248 0.585603,-0.451705 4.375379,-1.53824 7.740328,4.536844 -1.412416,6.942953 0,9.9e-5 0.106037,-0.09471 0.137736,-0.179481" id="path15" inkscape:connector-curvature="0" style="fill:#6e6e6e;fill-opacity:1"/><path d="m 19.432296,0.94758203 c 0,0 3.795389,3.79666877 -3.599762,9.63487297 -5.9301595,4.683243 -1.35226,7.353504 -0.0025,10.404387 -3.461533,-3.123148 -6.0018345,-5.872467 -4.297601,-8.431277 2.501413,-3.7561062 9.431172,-5.5772037 7.899824,-11.60798297" id="path17" inkscape:connector-curvature="0" style="fill:&fill_color;;fill-opacity:1"/><path d="m 12.328273,37.360375 c 6.578182,0.421087 16.679725,-0.233631 16.918967,-3.346243 0,0 -0.459877,1.179968 -5.436513,2.117049 -5.614615,1.056605 -12.539453,0.933243 -16.6466445,0.256078 9.8e-5,-9.8e-5 0.840794,0.695871 5.1641905,0.973116" id="path19" inkscape:connector-curvature="0" style="fill:#6e6e6e;fill-opacity:1"/><path d="m 11.250205,49.253775 c -0.620553,0.538247 -1.2759595,0.8404 -1.8641225,0.8404 -0.839514,0 -1.29309,-0.503393 -1.29309,-1.310812 0,-0.873382 0.485968,-1.511952 2.4356465,-1.511952 l 0.721468,0 0,1.982364 m 1.712405,1.931956 0,-5.980272 c 0,-1.527706 -0.871316,-2.535773 -2.9721205,-2.535773 -1.226437,0 -2.300764,0.302844 -3.173949,0.689077 l 0.252041,1.058574 c 0.687502,-0.252337 1.577425,-0.487247 2.450906,-0.487247 1.2101935,0 1.7308155,0.487247 1.7308155,1.494626 l 0,0.755828 -0.604013,0 c -2.9403185,0 -4.2666865,1.141373 -4.2666865,2.854566 0,1.478478 0.874071,2.318879 2.519823,2.318879 1.057885,0 1.8475815,-0.436741 2.5857875,-1.075902 l 0.133996,0.907742 1.3434,0 0,-9.8e-5 z" id="path21" inkscape:connector-curvature="0" style="fill:&fill_color;;fill-opacity:1"/><path d="m 18.677157,51.185731 -2.135658,0 -2.570232,-8.364623 1.865009,0 1.594851,5.139281 0.354531,1.545625 c 0.806828,-2.234702 1.377465,-4.501893 1.662883,-6.684906 l 1.814206,0 c -0.486066,2.754438 -1.360729,5.777753 -2.58559,8.364623" id="path23" inkscape:connector-curvature="0" style="fill:&fill_color;;fill-opacity:1"/><path d="m 26.869781,49.253775 c -0.621735,0.538247 -1.278322,0.8404 -1.866485,0.8404 -0.838038,0 -1.292794,-0.503393 -1.292794,-1.310812 0,-0.873382 0.487148,-1.511952 2.436629,-1.511952 l 0.72265,0 0,1.982364 m 1.712109,1.931956 0,-5.980272 c 0,-1.527706 -0.87348,-2.535773 -2.971824,-2.535773 -1.227323,0 -2.302043,0.302844 -3.174835,0.689077 l 0.251647,1.058574 c 0.687798,-0.252337 1.579395,-0.487247 2.452186,-0.487247 1.209307,0 1.730717,0.487247 1.730717,1.494626 l 0,0.755828 -0.604997,0 c -2.941205,0 -4.266983,1.141373 -4.266983,2.854566 0,1.478478 0.873383,2.318879 2.518839,2.318879 1.058475,0 1.847877,-0.436741 2.587362,-1.075902 l 0.134488,0.907742 1.3434,0 0,-9.8e-5 z" id="path25" inkscape:connector-curvature="0" style="fill:&fill_color;;fill-opacity:1"/><path d="m 4.5019936,52.606221 c -0.4881333,0.712706 -1.2765502,1.27655 -2.1396935,1.59554 L 1.5168785,53.206886 c 0.6569813,-0.337104 1.2204317,-0.881553 1.4822199,-1.388688 0.2264435,-0.451017 0.3201714,-1.032287 0.3201714,-2.422354 l 0,-9.549513 1.8192267,0 0,9.418668 c -9.8e-5,1.858411 -0.148665,2.60912 -0.6365029,3.341222" id="path27" inkscape:connector-curvature="0" style="fill:&fill_color;;fill-opacity:1"/></svg>