<?xml version="1.0" encoding="utf-8"?>
<!-- Generator: Adobe Illustrator 15.1.0, SVG Export Plug-In . SVG Version: 6.00 Build 0)  -->
<!DOCTYPE svg PUBLIC "-//W3C//DTD SVG 1.1//EN" "http://www.w3.org/Graphics/SVG/1.1/DTD/svg11.dtd">
<svg version="1.1" id="Layer_1" xmlns="http://www.w3.org/2000/svg" xmlns:xlink="http://www.w3.org/1999/xlink" x="0px" y="0px"
	 width="32px" height="32px" viewBox="0 0 32 32" enable-background="new 0 0 32 32" xml:space="preserve">
<g id="XMLID_2_">
	<g>
		<path d="M21.743,8.09c0.27,0.14,0.489,0.329,0.688,0.529c-0.04,2.144-0.26,4.099-0.648,5.894c-0.06,0.269-0.14,0.588-0.199,0.887
			c-0.069,0.33-0.06,0.698-0.159,0.928c-0.17,0.359-1.217,1.047-1.535,1.296c-0.549,0.438-1.077,0.788-1.535,1.257
			c0.448,3.74,0.877,7.52,1.286,11.31c-2.323-0.04-4.536,0.06-6.859,0.04c-0.04-3.042,0.04-5.625,0.04-8.567
			c0-0.928,0.16-1.984,0-2.872c-0.14-0.748-0.957-1.576-1.167-2.374c-0.02-0.05-0.04-0.169-0.04-0.169
			c-0.219-2.055-0.379-4.678-0.568-6.941c-0.06-0.728-0.299-1.666-0.199-2.264c0.06-0.389,0.389-0.569,0.598-0.888
			c0.249,0,0.488,0,0.728,0c0.189,1.386,0.438,2.712,0.608,4.119c0.27-0.339,0.11-0.818,0.08-1.256
			c-0.07-0.878-0.13-1.795-0.2-2.703c-0.04-0.479-0.149-1.007-0.08-1.376c0.1-0.608,0.678-0.947,0.808-1.496
			c0.339,0.03,0.787-0.04,1.007,0c0.149,1.895,0.389,3.7,0.568,5.575c0.479-0.13,0.259-0.888,0.239-1.406
			c-0.07-1.765-0.169-3.75-0.239-5.456c0.2-0.269,0.539-0.399,0.808-0.608c0.369,0.06,0.748,0.11,1.086,0.2
			c0.179,2.124,0.299,4.308,0.449,6.462c0.159,0.02,0.22-0.07,0.398-0.04c0.1-1.287,0.14-3.321,0.199-4.807
			c0.021-0.379-0.079-0.818,0.04-1.127c0.12-0.299,0.549-0.429,0.768-0.608c0.279,0.269,0.698,0.409,0.967,0.688
			c0.07,1.765,0.15,3.78,0.21,5.615c0.04,1.267-0.01,2.274,0.519,3.032c-0.549,0.708-1.257,1.267-1.814,1.975
			c-1.635,0.479-3.07,1.157-3.39,2.952c0.379-0.319,0.499-0.997,0.808-1.416c0.299-0.399,0.788-0.628,1.256-0.848
			c0.469-0.229,1.017-0.339,1.485-0.568c0.748-0.349,1.146-1.247,1.824-1.696c0.12-0.927,0.26-1.835,0.359-2.782
			C21.205,8.419,21.515,8.29,21.743,8.09z"/>
	</g>
	<g>
	</g>
</g>
</svg>
