<?xml version="1.0" ?><!DOCTYPE svg  PUBLIC '-//W3C//DTD SVG 1.1//EN'  'http://www.w3.org/Graphics/SVG/1.1/DTD/svg11.dtd' [
	<!ENTITY stroke_color "#666666">
	<!ENTITY fill_color "#ffffff">
]><svg height="72.000000pt" id="svg2" inkscape:version="0.48.4 r9939" preserveAspectRatio="xMidYMid meet" sodipodi:docname="hwxVOefgqk.svg" version="1.0" viewBox="0 0 72.000000 72.000000" width="72.000000pt" xmlns="http://www.w3.org/2000/svg" xmlns:cc="http://creativecommons.org/ns#" xmlns:dc="http://purl.org/dc/elements/1.1/" xmlns:inkscape="http://www.inkscape.org/namespaces/inkscape" xmlns:rdf="http://www.w3.org/1999/02/22-rdf-syntax-ns#" xmlns:sodipodi="http://sodipodi.sourceforge.net/DTD/sodipodi-0.dtd" xmlns:svg="http://www.w3.org/2000/svg">
  <defs id="defs14"/>
  <sodipodi:namedview bordercolor="#666666" borderopacity="1" gridtolerance="10" guidetolerance="10" id="namedview12" inkscape:current-layer="svg2" inkscape:cx="45" inkscape:cy="45" inkscape:pageopacity="0" inkscape:pageshadow="2" inkscape:window-height="744" inkscape:window-maximized="1" inkscape:window-width="1301" inkscape:window-x="65" inkscape:window-y="24" inkscape:zoom="2.6222222" objecttolerance="10" pagecolor="#ffffff" showgrid="false"/>
  <metadata id="metadata4">
Created by potrace 1.10, written by Peter Selinger 2001-2011
<rdf:RDF>
  <cc:Work rdf:about="">
    <dc:format>image/svg+xml</dc:format>
    <dc:type rdf:resource="http://purl.org/dc/dcmitype/StillImage"/>
  </cc:Work>
</rdf:RDF>
</metadata>
  <g fill="&stroke_color;" id="g6" stroke="none" transform="translate(0.000000,72.000000) scale(0.100000,-0.100000)">
    <path d="M75 701 c-11 -5 -29 -19 -40 -31 -19 -21 -20 -38 -23 -304 -2 -267 -1 -283 18 -314 11 -18 32 -37 47 -43 24 -9 30 -7 46 12 16 20 19 21 36 5 26 -24 429 -31 479 -8 59 27 62 41 62 344 0 299 -1 302 -60 333 -24 12 -77 15 -287 14 -142 0 -267 -4 -278 -8z m35 -346 c0 -275 -2 -325 -14 -325 -8 0 -24 12 -35 26 -20 26 -21 39 -21 300 l0 273 25 26 c14 14 30 25 35 25 6 0 10 -125 10 -325z m107 40 c35 -16 63 -33 63 -37 0 -3 -26 -19 -57 -34 -32 -15 -61 -32 -65 -38 -4 -6 -8 -62 -8 -125 0 -63 -2 -112 -5 -110 -5 5 -9 608 -4 624 2 6 6 -48 9 -120 l5 -130 62 -30z m412 270 c16 -8 31 -22 35 -30 3 -9 6 -138 6 -286 l0 -270 -26 -24 c-27 -25 -27 -25 -248 -25 l-221 0 3 126 3 125 66 30 c36 16 76 32 90 35 32 8 24 14 -74 54 l-82 33 -3 124 -3 123 213 0 c167 0 219 -3 241 -15z" id="path8"/>
    <path d="M400 570 c0 -27 33 -71 69 -91 l40 -22 -26 -50 c-20 -40 -24 -58 -18 -93 6 -42 6 -43 -27 -46 -35 -3 -50 -30 -29 -51 9 -9 13 -6 17 10 4 14 15 23 32 25 21 2 28 10 32 32 l5 29 14 -26 c13 -24 12 -30 -13 -67 -15 -23 -26 -50 -24 -61 4 -25 23 -26 24 -1 1 10 14 37 29 60 l27 42 -32 50 -32 50 18 44 19 44 28 -16 c16 -9 38 -29 49 -44 21 -30 38 -36 38 -15 0 17 -62 77 -80 77 -9 0 -6 6 8 16 36 25 23 74 -20 74 -19 0 -42 -35 -33 -50 10 -16 -3 -12 -40 13 -19 12 -39 34 -44 50 -10 26 -31 38 -31 17z m153 -75 c-3 -9 -8 -14 -10 -11 -3 3 -2 9 2 15 9 16 15 13 8 -4z" id="path10"/>
  </g>
  <path d="m 67.981884,28.754237 c 0,-0.314618 0.251957,-0.905151 0.559905,-1.312295 0.422926,-0.559158 0.559906,-0.600315 0.559906,-0.168227 0,0.314618 -0.251958,0.905151 -0.559906,1.312295 -0.422926,0.559158 -0.559905,0.600315 -0.559905,0.168227 z" id="path2991" inkscape:connector-curvature="0" style="fill:&fill_color;;fill-opacity:1;stroke:&fill_color;;stroke-width:0.38135594;stroke-opacity:1" transform="scale(0.8,0.8)"/>
  <path d="M 17.880178,64.983051 C 17.709402,55.649364 17.623597,38.917373 17.6895,27.800847 l 0.119822,-20.2118639 0.472202,8.9618639 c 0.259711,4.929026 0.580611,11.550068 0.713112,14.713428 l 0.240909,5.751562 6.792081,3.379284 c 3.735644,1.858607 7.190167,3.681178 7.676718,4.050158 0.78548,0.595675 0.820519,0.734294 0.312605,1.236673 -0.314618,0.31119 -3.575212,2.175643 -7.245763,4.143226 -4.973099,2.665812 -6.801615,3.840499 -7.17559,4.609793 -0.454256,0.934436 -0.917559,9.437297 -1.312406,24.086215 -0.05088,1.887712 -0.232237,-4.204449 -0.403012,-13.538135 z" id="path2993" inkscape:connector-curvature="0" style="fill:&fill_color;;fill-opacity:1;stroke:&fill_color;;stroke-width:0.38135594;stroke-opacity:1" transform="scale(0.8,0.8)"/>
  <path d="M 17.899944,69.783147 C 17.532071,53.867399 17.632251,6.3237447 18.022959,11.402542 c 0.161356,2.097458 0.501021,8.70445 0.754812,14.682204 0.25379,5.977754 0.482933,10.892275 0.509206,10.921156 0.02627,0.02888 3.136752,1.601624 6.912176,3.494982 3.775423,1.893358 7.207627,3.704048 7.627118,4.023756 0.677897,0.516647 0.699101,0.644807 0.190678,1.152496 -0.314618,0.314168 -2.802966,1.772023 -5.529661,3.239683 -6.818369,3.670028 -8.304986,4.6507 -8.881452,5.858798 -0.309164,0.647916 -0.57693,3.318533 -0.707369,7.055085 -0.11544,3.306886 -0.32404,9.187306 -0.463556,13.067603 l -0.253667,7.055085 -0.2813,-12.170243 z" id="path2995" inkscape:connector-curvature="0" style="fill:&fill_color;;fill-opacity:1;stroke:&fill_color;;stroke-width:0.38135594;stroke-opacity:1" transform="scale(0.8,0.8)"/>
  <path d="m 17.894107,71.847458 c -0.359215,-13.25366 -0.253834,-65.2434203 0.123679,-61.01695 0.159245,1.782839 0.509597,8.348577 0.778559,14.590528 l 0.489024,11.349002 7.079773,3.65311 c 3.893875,2.009211 7.337189,3.906346 7.651807,4.215855 0.507748,0.499502 0.477824,0.640052 -0.266267,1.250651 -0.461066,0.378347 -3.378439,2.090757 -6.483051,3.805349 -7.019249,3.876544 -7.327439,4.113572 -7.754161,5.963762 -0.191098,0.828568 -0.530287,6.740599 -0.753752,13.137845 -0.223465,6.397246 -0.448018,11.974576 -0.499005,12.394068 -0.05099,0.419491 -0.21596,-3.784958 -0.366606,-9.34322 z" id="path2997" inkscape:connector-curvature="0" style="fill:&fill_color;;fill-opacity:1;stroke:&fill_color;;stroke-width:0.38135594;stroke-opacity:1" transform="scale(0.8,0.8)"/>
  <path d="M 9.3788279,84.354006 C 7.176975,82.324407 6.2808029,80.562543 5.7900981,77.298601 5.5657018,75.80602 5.3003396,61.369982 5.1641412,43.245763 L 4.9277143,11.783898 7.8844257,8.8402981 C 10.57363,6.1630185 12.04529,5.130036 12.509286,5.594032 c 0.624719,0.6247189 0.950015,19.031506 0.820414,46.422917 -0.151169,31.949993 -0.247858,33.940678 -1.648519,33.940678 -0.309446,0 -1.345505,-0.721628 -2.3023531,-1.603621 l 0,0 z" id="path2999" inkscape:connector-curvature="0" style="fill:&fill_color;;fill-opacity:1;stroke:&fill_color;;stroke-width:0.38135594;stroke-opacity:1" transform="scale(0.8,0.8)"/>
  <path d="m 22.357226,72.159044 c 0.133895,-7.617348 0.336666,-14.59501 0.450603,-15.505913 l 0.207157,-1.65619 3.689541,-1.715217 c 5.043792,-2.34479 11.926365,-5.183657 15.055531,-6.209981 1.951619,-0.640106 2.566053,-1.007077 2.478814,-1.48047 -0.155676,-0.844756 -5.414541,-3.423668 -14.114761,-6.921781 L 23.010532,35.809322 22.808124,34.09322 C 22.696799,33.149364 22.494184,26.220613 22.357867,18.695996 L 22.110019,5.0148725 46.27323,5.2254949 c 14.619264,0.1274311 25.358045,0.3798231 27.188271,0.6390019 3.822311,0.5412781 6.197846,1.559928 8.041942,3.4484526 l 1.451189,1.4861546 0.295402,11.551719 c 0.162469,6.353446 0.305977,21.934135 0.318909,34.623753 l 0.02349,23.072034 -2.6042,2.260297 c -1.432308,1.243159 -3.276942,2.52254 -4.099187,2.843065 -1.277367,0.497941 -5.373008,0.602867 -28.135139,0.720786 l -26.640143,0.138013 0.243445,-13.849727 1.5e-5,0 z m 39.48529,-0.286516 c 0.217125,-0.405702 0.394772,-1.087944 0.394772,-1.516092 0,-0.951243 2.668912,-6.098568 5.120741,-9.875978 0.994752,-1.532571 1.729971,-2.991257 1.633813,-3.241526 -0.09616,-0.250268 -1.881622,-3.118565 -3.967704,-6.37399 l -3.792878,-5.918957 2.063193,-4.949688 c 1.134755,-2.722328 2.194123,-5.08768 2.354155,-5.256337 0.160029,-0.168658 1.38282,0.333268 2.71731,1.115392 2.27798,1.335088 4.363982,3.214267 8.315543,7.491085 0.917813,0.99336 1.978814,1.806105 2.357778,1.806105 0.818943,0 1.282722,-1.213611 0.958081,-2.50709 -0.483193,-1.925185 -7.948995,-8.933588 -9.516634,-8.933588 -0.938254,0 -0.749102,-0.485424 0.751004,-1.927309 1.804412,-1.734379 2.446276,-3.034834 2.446276,-4.956295 0,-1.279277 -0.239228,-1.821725 -1.248521,-2.83102 -1.66709,-1.667089 -4.118511,-2.136071 -5.565261,-1.064691 -1.817283,1.34577 -2.791559,3.169993 -2.650976,4.963637 0.07536,0.961534 -0.03638,1.620763 -0.274725,1.620763 -0.780171,0 -6.174786,-3.798141 -7.538397,-5.307496 -0.76001,-0.841239 -1.835006,-2.423816 -2.388882,-3.516836 -2.306694,-4.552043 -5.10923,-4.519504 -3.754137,0.04359 1.157506,3.897744 4.874524,7.732436 10.498852,10.831227 l 2.522867,1.390004 -2.411908,4.815214 c -3.100613,6.190172 -3.476344,7.841287 -2.921687,12.839106 0.462616,4.168468 0.262524,5.100593 -1.153233,5.372321 -4.347998,0.834513 -5.209863,1.107778 -5.937842,1.882678 -1.204865,1.282519 -1.373792,2.883066 -0.459267,4.351465 1.110816,1.783575 2.162188,1.644068 3.039817,-0.403356 0.817282,-1.906646 2.023559,-2.81618 4.19562,-3.163504 2.257651,-0.361014 3.289135,-1.594754 3.859186,-4.615898 l 0.47851,-2.536013 1.30807,2.59467 c 1.558995,3.092403 1.509891,3.478233 -0.945991,7.432783 -2.113933,3.403922 -3.503573,6.658185 -3.515925,8.233581 -0.01807,2.304607 2.125314,3.799438 3.02838,2.112045 l 0,0 z" id="path3001" inkscape:connector-curvature="0" style="fill:&fill_color;;fill-opacity:1;stroke:&fill_color;;stroke-width:0.38135594;stroke-opacity:1" transform="scale(0.8,0.8)"/>
  <path d="m 22.351092,71.587053 c 0.145222,-7.93199 0.353492,-14.936629 0.46282,-15.565867 0.183584,-1.056607 0.612105,-1.330524 5.60557,-3.583125 2.973734,-1.341484 7.466111,-3.197745 9.98306,-4.125024 6.74266,-2.484095 6.845125,-2.580921 4.306055,-4.068915 C 41.240224,43.3836 29.454462,38.347319 24.804315,36.593282 23.30799,36.028868 22.995702,35.734055 22.822371,34.722244 22.709208,34.061662 22.497665,27.107233 22.352275,19.267957 L 22.08793,5.0147275 46.262186,5.2286149 c 13.29584,0.117638 25.493029,0.3869376 27.104864,0.5984435 3.715403,0.4875364 6.288247,1.5932184 8.154443,3.5043765 l 1.469242,1.5046411 0.272216,10.770521 c 0.149716,5.923787 0.285277,21.530746 0.301241,34.68213 l 0.02903,23.911608 -2.743104,2.309015 c -1.508709,1.269957 -3.353519,2.510412 -4.099577,2.75657 -0.967534,0.319233 -8.998737,0.489909 -28.00998,0.595247 L 22.08705,86.008851 22.351092,71.587053 z m 39.896966,-1.265019 c 0.76572,-2.57056 1.315228,-3.662375 4.444364,-8.83051 l 2.460356,-4.063557 -3.898751,-6.042375 c -2.144311,-3.323304 -3.882424,-6.299787 -3.862468,-6.614406 0.04341,-0.684423 3.833336,-9.581158 4.284015,-10.056593 0.641647,-0.676888 5.195788,2.612736 8.995748,6.497959 2.119439,2.166994 4.05373,3.93999 4.298431,3.93999 0.244697,0 0.629542,-0.405236 0.855213,-0.90053 0.32029,-0.702961 0.266061,-1.184037 -0.247195,-2.192796 -0.860911,-1.69205 -6.175525,-6.832743 -8.052559,-7.789041 -0.80857,-0.411944 -1.545228,-0.795489 -1.63702,-0.852323 -0.09179,-0.05683 0.531702,-0.829079 1.385546,-1.716101 1.891072,-1.96456 2.404228,-2.917953 2.404228,-4.466804 0,-2.411342 -1.49387,-4.056254 -4.293545,-4.727655 -2.424265,-0.581372 -5.448646,2.61471 -5.176331,5.470206 0.09255,0.970438 -0.01126,1.539451 -0.280838,1.539451 -0.684557,0 -5.178323,-2.99759 -6.773686,-4.518422 -0.803462,-0.765927 -2.116549,-2.509079 -2.91797,-3.87367 -1.689123,-2.876095 -2.789521,-3.995782 -3.61546,-3.67884 -0.878009,0.336924 -0.718535,2.42753 0.362268,4.749115 1.371371,2.94573 4.764083,6.291625 8.855541,8.733343 l 3.511678,2.095712 -2.242853,4.474204 c -3.529848,7.041606 -3.840604,8.769221 -2.829313,15.729291 0.279495,1.92359 -0.663641,2.806901 -3.356203,3.143315 -2.718096,0.339605 -4.384988,1.370406 -4.806819,2.972528 -0.402188,1.527514 -0.236586,2.277362 0.732723,3.317793 1.111819,1.193396 1.741221,0.975626 2.565427,-0.887629 0.850823,-1.923426 1.883359,-2.717134 4.050766,-3.113817 2.233241,-0.40873 3.403066,-1.790558 3.973158,-4.693195 l 0.478419,-2.435861 0.649758,1.101115 c 0.357369,0.605616 0.965563,1.818862 1.351541,2.696103 0.851556,1.935385 0.719096,2.406516 -2.017633,7.176203 -1.083123,1.887712 -2.253775,4.333718 -2.601449,5.435569 -0.591199,1.873633 -0.590161,2.091387 0.01604,3.362591 0.493527,1.034931 0.846423,1.330337 1.47913,1.23816 0.642372,-0.09359 0.972756,-0.597082 1.45575,-2.218523 l -3e-6,0 z" id="path3003" inkscape:connector-curvature="0" style="fill:&fill_color;;fill-opacity:1;stroke:&fill_color;;stroke-width:0.38135594;stroke-opacity:1" transform="scale(0.8,0.8)"/>
  <path d="m 22.346465,71.207561 c 0.148825,-8.142761 0.359404,-15.165564 0.467953,-15.606232 0.215666,-0.875521 7.049577,-4.078125 16.264317,-7.62202 3.499101,-1.345717 4.841771,-2.034496 4.766949,-2.445411 C 43.708822,44.782257 38.918806,42.444574 30.140171,38.845157 24.460827,36.516513 22.980703,35.760484 22.818236,35.105204 22.706239,34.653486 22.492949,27.697785 22.344259,19.648092 L 22.073913,5.012285 46.445855,5.226007 c 14.566995,0.1277407 25.578948,0.3840943 27.372168,0.6372126 3.437046,0.4851486 5.937975,1.6234244 7.902309,3.5966659 l 1.368633,1.3748435 0.252129,11.500688 c 0.138669,6.325379 0.252126,21.926739 0.252126,34.669687 l 0,23.169001 -2.192796,1.939382 c -1.206038,1.066656 -2.965043,2.325047 -3.908899,2.796418 l -1.716101,0.857044 -26.849775,0.122816 -26.849775,0.122816 0.270591,-14.80502 z m 39.050757,0.923782 c 0.218567,-0.263357 0.521813,-0.9927 0.673883,-1.620763 0.365526,-1.509685 2.293806,-5.343292 4.700013,-9.344078 1.071271,-1.781196 1.948092,-3.455783 1.948493,-3.72131 3.81e-4,-0.265526 -1.658666,-3.097094 -3.686812,-6.292373 -2.02815,-3.195278 -3.671813,-6.074073 -3.652585,-6.397318 0.04349,-0.731032 3.821323,-9.582173 4.290677,-10.052673 0.630648,-0.632189 4.644687,2.180764 8.789453,6.15946 2.239631,2.149894 4.35269,3.908898 4.695686,3.908898 0.458855,0 0.623631,-0.353772 0.623631,-1.338925 0,-1.147689 -0.414839,-1.773133 -2.904468,-4.378997 -2.563867,-2.68357 -5.442128,-5.00447 -6.759801,-5.450797 -0.25354,-0.08588 0.183253,-0.843341 1.025478,-1.778319 0.806926,-0.895795 1.713962,-2.219442 2.01563,-2.941438 1.219286,-2.91816 -0.648244,-5.821274 -3.941638,-6.127354 -1.650417,-0.153386 -1.948336,-0.05251 -3.04706,1.031775 -1.363916,1.345984 -2.19134,3.411387 -1.92494,4.804983 0.229195,1.198941 -0.23691,1.166576 -2.583397,-0.179382 -2.96839,-1.702683 -5.714864,-4.397628 -7.656489,-7.512838 -1.854287,-2.975081 -2.710763,-3.746969 -3.569022,-3.216536 -0.676718,0.418234 -0.325955,2.568249 0.797668,4.889344 1.17413,2.425429 4.905761,6.03501 8.336175,8.063523 1.573093,0.93022 3.06845,1.847014 3.323013,2.037318 0.346115,0.258746 0.0473,1.178687 -1.184835,3.647673 -3.738201,7.490704 -4.166626,9.44645 -3.493946,15.949709 0.268857,2.599226 0.239003,2.760601 -0.610865,3.301939 -0.491445,0.313036 -1.912309,0.775293 -3.157475,1.02724 -4.014538,0.812303 -5.607795,3.573751 -3.449208,5.978208 1.082146,1.205405 1.045276,1.227585 2.975673,-1.790176 0.629809,-0.98457 1.405937,-1.534847 2.958334,-2.097458 1.15749,-0.419492 2.406143,-0.94656 2.774785,-1.171266 0.698217,-0.425593 1.72133,-2.847798 1.760404,-4.167717 0.01243,-0.419492 0.18257,-1.015707 0.378115,-1.324922 0.271296,-0.429006 0.640681,0.04713 1.55904,2.009624 1.451528,3.101846 1.408355,3.373184 -1.316956,8.277162 -1.107351,1.992585 -2.228983,4.170677 -2.492519,4.840208 -0.722366,1.835214 -0.659496,3.780294 0.151143,4.676038 0.820228,0.906342 1.109093,0.95898 1.654722,0.301538 l 0,0 z" id="path3005" inkscape:connector-curvature="0" style="fill:&fill_color;;fill-opacity:1;stroke:&fill_color;;stroke-width:0.38135594;stroke-opacity:1" transform="scale(0.8,0.8)"/>
</svg>