<?xml version="1.0" ?><!-- Created with Inkscape (http://www.inkscape.org/) --><!DOCTYPE svg  PUBLIC '-//W3C//DTD SVG 1.1//EN'  'http://www.w3.org/Graphics/SVG/1.1/DTD/svg11.dtd' [
	<!ENTITY stroke_color "#000000">
	<!ENTITY fill_color "#ffffff">
]><svg height="55" id="svg2441" version="1.1" viewBox="0 0 55 55" width="55" xml:space="preserve" xmlns="http://www.w3.org/2000/svg" xmlns:svg="http://www.w3.org/2000/svg"><defs id="defs2453"/><g id="activity-read" style="display:block" transform="matrix(0.9254349,-0.00278581,0.0025781,0.9999961,3.8538887,-1.1596019)"><path d="m 27.904,11.023 -0.002,0 c 0,-0.002 -1.71,-2.053 -9.376,-2.504 C 10.86,8.07 6.843,10.121 6.84,10.122 4.942,10.741 3.345,11.857 3.345,13.616 l 0,27.702 c 0,2.025 1.235,3.494 3.495,3.494 0.003,0 4.41,-1.35 10.004,-1.35 5.589,-0.001 11.061,2.253 11.061,2.253" id="path2444" style="fill:&fill_color;;stroke:&stroke_color;;stroke-width:3.5;stroke-linejoin:round;display:inline"/><path d="m 27.898,11.023 0,0 c 0,-0.002 1.715,-2.053 9.377,-2.504 7.668,-0.449 11.686,1.602 11.688,1.603 1.897,0.619 3.494,1.735 3.494,3.494 l 0,27.702 c 0,2.025 -1.233,3.494 -3.494,3.494 -0.003,0 -4.409,-1.35 -10.004,-1.35 -5.589,-0.001 -11.062,2.253 -11.062,2.253" id="path2446" style="fill:&fill_color;;stroke:&stroke_color;;stroke-width:3.5;stroke-linejoin:round;display:inline"/><line display="inline" id="line2448" style="fill:none;stroke:&stroke_color;;stroke-width:3.5;stroke-linecap:round;stroke-linejoin:round;display:inline" x1="27.898001" x2="27.9" y1="11.023" y2="45.716999"/><path d="m 32.566,44.275 c 0,0 -0.031,2.906 -4.666,2.906 -4.632,0 -4.663,-2.906 -4.663,-2.906" id="path2450" style="fill:none;stroke:&stroke_color;;stroke-width:3.5;stroke-linecap:round;stroke-linejoin:round;display:inline"/></g><path d="m 17.5461,24.404762 a 0.41666666,0 0 0 1 0.01378,0 l -3.59e-4,0 z" id="path2489" style="fill:&fill_color;;fill-opacity:1;stroke:&stroke_color;;stroke-linecap:square;stroke-linejoin:bevel;stroke-opacity:1"/><path d="m 11.82657,15.969433 c 13.027924,0.02555 13.027924,0.02555 13.027924,0.02555" id="path2563" style="fill:none;stroke:&stroke_color;;stroke-width:1.22445309px;stroke-linecap:butt;stroke-linejoin:miter;stroke-opacity:1"/><path d="m 11.861038,18.862225 c 13.027924,0.02555 13.027924,0.02555 13.027924,0.02555" id="path2563-0" style="fill:none;stroke:&stroke_color;;stroke-width:1.22445309px;stroke-linecap:butt;stroke-linejoin:miter;stroke-opacity:1"/><path d="m 11.345619,12.792644 c 15.274294,0.02192 15.274294,0.02192 15.274294,0.02192" id="path2563-7" style="fill:none;stroke:&stroke_color;;stroke-width:1.22808146px;stroke-linecap:butt;stroke-linejoin:miter;stroke-opacity:1"/><path d="m 10.005172,24.560521 c 15.399124,0.02175 15.399124,0.02175 15.399124,0.02175" id="path2563-0-5" style="fill:none;stroke:&stroke_color;;stroke-width:1.22825301px;stroke-linecap:butt;stroke-linejoin:miter;stroke-opacity:1"/><path d="m 11.84488,27.791905 c 14.275772,0.0234 14.275772,0.0234 14.275772,0.0234" id="path2563-7-9" style="fill:none;stroke:&stroke_color;;stroke-width:1.22660446px;stroke-linecap:butt;stroke-linejoin:miter;stroke-opacity:1"/><path d="m 11.879147,30.684496 c 14.026174,0.0238 14.026174,0.0238 14.026174,0.0238" id="path2563-0-5-2" style="fill:none;stroke:&stroke_color;;stroke-width:1.22620356px;stroke-linecap:butt;stroke-linejoin:miter;stroke-opacity:1"/><path d="m 11.86181,34.112997 c 13.90138,0.02401 13.90138,0.02401 13.90138,0.02401" id="path2563-0-2" style="fill:none;stroke:&stroke_color;;stroke-width:1.22599804px;stroke-linecap:butt;stroke-linejoin:miter;stroke-opacity:1"/><g id="Pencil" style="fill:&fill_color;;stroke:&stroke_color;" transform="matrix(0.49233604,0,0,0.49233604,49.171015,3.234495)"><g id="g3872" style="fill:&fill_color;;stroke:&stroke_color;;display:inline"><path d="m -54.808174,41.652842 c -0.053,0.132 -0.02,0.281 0.09,0.373 0.11,0.092 0.264,0.103 0.385,0.025 l 4.635,-2.984 -3.009,-2.407 -2.101,4.993 z m 30.24,-31.8979997 c 0,-0.073 -0.004,-0.15 -0.014,-0.227 -0.112,-0.949 -0.903,-2.109 -2.062,-3.025 -1.16,-0.915 -2.474,-1.413 -3.424,-1.304 -0.414,0.052 -0.747,0.228 -0.973,0.491 l -0.021,-0.015 -16.757,22.1789997 -0.073,0.073 -0.011,0.015 c -0.026,0.029 -0.029,0.069 -0.05,0.103 l -2.177,2.677 c 0,0 0.128,0.099 0.256,0.201 l -0.002,0.004 -0.009,0.011 c -0.128,-0.103 -0.252,-0.197 -0.252,-0.197 l -0.042,0.051 c -0.097,0.121 -0.155,0.271 -0.203,0.429 -0.015,0.019 -0.046,0.025 -0.057,0.048 l -1.361,3.236 4.097,3.278 3.202,-2.062 c 0.019,-0.011 0.015,-0.037 0.031,-0.052 0.083,-0.065 0.178,-0.121 0.243,-0.201 0.008,-0.011 0.043,-0.059 0.048,-0.062 l 2.237,-2.79 0.033,-0.033 -0.004,-0.004 0.023,-0.029 0.006,0.004 16.939,-21.85 c 0.029,-0.029 0.071,-0.044 0.1,-0.077 0.032,-0.044 0.049,-0.103 0.076,-0.15 l 0.015,-0.019 -0.003,-0.003 c 0.117,-0.205 0.189,-0.432 0.189,-0.6999997 z" id="path3874" style="fill:&fill_color;;stroke:&stroke_color;"/></g></g></svg>