<?xml version="1.0" encoding="UTF-8" standalone="no"?>
<!-- Created with Inkscape (http://www.inkscape.org/) -->

<svg
   xmlns:dc="http://purl.org/dc/elements/1.1/"
   xmlns:cc="http://creativecommons.org/ns#"
   xmlns:rdf="http://www.w3.org/1999/02/22-rdf-syntax-ns#"
   xmlns:svg="http://www.w3.org/2000/svg"
   xmlns="http://www.w3.org/2000/svg"
   xmlns:sodipodi="http://sodipodi.sourceforge.net/DTD/sodipodi-0.dtd"
   xmlns:inkscape="http://www.inkscape.org/namespaces/inkscape"
   height="55"
   id="svg2"
   inkscape:output_extension="org.inkscape.output.svg.inkscape"
   inkscape:version="0.47 r22583"
   sodipodi:docname="activity-generic.svg"
   sodipodi:version="0.32"
   style=""
   version="1.0"
   width="55">
  <metadata
     id="metadata20">
    <rdf:RDF>
      <cc:Work
         rdf:about="">
        <dc:format>image/svg+xml</dc:format>
        <dc:type
           rdf:resource="http://purl.org/dc/dcmitype/StillImage" />
      </cc:Work>
    </rdf:RDF>
  </metadata>
  <sodipodi:namedview
     bordercolor="#666666"
     borderopacity="1"
     gridtolerance="10"
     guidetolerance="10"
     id="namedview18"
     inkscape:current-layer="svg2"
     inkscape:cx="-17.616085"
     inkscape:cy="19.980159"
     inkscape:pageopacity="0"
     inkscape:pageshadow="2"
     inkscape:window-height="699"
     inkscape:window-width="1365"
     inkscape:window-x="0"
     inkscape:window-y="0"
     inkscape:zoom="3.9727273"
     objecttolerance="10"
     pagecolor="#ffffff"
     showgrid="true"
     showguides="true"
     inkscape:guide-bbox="true"
     inkscape:window-maximized="1">
    <inkscape:grid
       id="grid796"
       type="xygrid" />
  </sodipodi:namedview>
  <defs
     id="defs4"
     style="">
    <inkscape:perspective
       id="perspective22"
       inkscape:persp3d-origin="27.5 : 18.333333 : 1"
       inkscape:vp_x="0 : 27.5 : 1"
       inkscape:vp_y="0 : 1000 : 0"
       inkscape:vp_z="55 : 27.5 : 1"
       sodipodi:type="inkscape:persp3d" />
    <inkscape:perspective
       id="perspective3140"
       inkscape:persp3d-origin="0.5 : 0.33333333 : 1"
       inkscape:vp_z="1 : 0.5 : 1"
       inkscape:vp_y="0 : 1000 : 0"
       inkscape:vp_x="0 : 0.5 : 1"
       sodipodi:type="inkscape:persp3d" />
  </defs>
  <g
     id="g4101"
     transform="matrix(0.10985214,-0.00840284,0.00840284,0.10985214,-139.53003,-9.9299438)"
     inkscape:export-filename="C:\Dokumente und Einstellungen\Klaus\Eigene Dateien\Eigene Bilder\OpebClipartLibrary\Helicopter.png"
     inkscape:export-xdpi="28.273672"
     inkscape:export-ydpi="28.273672">
    <g
       id="g4040">
      <g
         id="g3667"
         transform="matrix(0.45942981,-0.17663519,0.13475161,0.54543547,1225.7957,350.84563)">
        <path
           style="fill:none;stroke:#000000;stroke-width:15;stroke-linecap:round;stroke-linejoin:round;stroke-miterlimit:4;stroke-opacity:1;stroke-dasharray:none"
           d="m 557.25,119.65625 c -44.80445,0.16086 -94.95021,1.61819 -147.84375,4.5 -188.06592,10.24644 -339.831502,34.68111 -338.75,54.53125 1.013783,18.60724 135.98045,26.6341 307.78125,19.125 0.38408,5.24155 0.86424,9.95946 1.4375,13.9375 -96.57413,6.48367 -172.40625,71.79148 -172.40625,150.03125 0,40.99519 19.94828,78.16357 52.40625,105.53125 l -64.28125,4.84375 c -16.1998,1.22066 -28.25191,15.2377 -27.03125,31.4375 1.22066,16.1998 15.23769,28.25193 31.4375,27.03125 l 57.78125,-4.34375 16.5,9.34375 -9.21875,0.6875 c -18.35634,1.38316 -32.00815,17.26866 -30.625,35.625 1.38316,18.35634 17.26865,32.03941 35.625,30.65625 L 632.5,575.28125 c 18.35634,-1.38316 32.00814,-17.26865 30.625,-35.625 C 661.74184,521.29991 645.85632,507.61684 627.5,509 l -72.875,5.5 -23.15625,-11.34375 c 9.93288,-5.29722 16.30941,-16.07637 15.40625,-28.0625 -0.45893,-6.09061 -2.70498,-11.59693 -6.21875,-16.03125 18.35693,-17.91243 31.74464,-39.31231 38.4375,-62.78125 56.59613,-39.5619 116.40646,-69.11893 183.46875,-84.6875 16.05777,33.01172 49.93771,55.78126 89.09375,55.78125 54.64965,0 98.99999,-44.35036 99,-99 0,-54.64965 -44.35036,-99 -99,-99 -39.98919,0 -74.47425,23.75276 -90.09375,57.90625 -83.31743,-4.04221 -196.4842,4.98794 -269.75,5.1875 -15.9234,-7.62701 -33.36683,-13.4322 -51.875,-17.03125 0.55638,-4.66607 0.68559,-12.18385 0.375,-20.9375 175.36647,-11.01449 312.7792,-34.04754 311.75,-52.9375 -0.77733,-14.26729 -80.31225,-22.31733 -194.8125,-21.90625 z"
           id="rect4057" />
        <rect
           style="fill:#ffffff;fill-opacity:1;stroke:#000000;stroke-width:4;stroke-linecap:round;stroke-linejoin:round;stroke-miterlimit:4;stroke-opacity:1;stroke-dasharray:none"
           id="rect4008"
           width="379.40726"
           height="58.64883"
           x="130.23753"
           y="485.51587"
           ry="29.324415"
           transform="matrix(0.9971732,-0.07513727,0.07513727,0.9971732,0,0)" />
        <path
           sodipodi:nodetypes="cccccc"
           id="rect4010"
           d="m 242.032,487.2944 245.31381,-5.74313 118.96488,58.25177 -272.38857,29.53611 -90.65945,-51.27797 c 5.42686,-9.08818 4.27117,-19.49286 -1.23067,-30.76678 z"
           style="fill:#ffffff;fill-opacity:1;stroke:#000000;stroke-width:4;stroke-linecap:round;stroke-linejoin:round;stroke-miterlimit:4;stroke-opacity:1;stroke-dasharray:none" />
        <path
           id="path3938"
           d="m 847.39373,327.18462 c 28.85951,0 50.50415,-22.57751 50.50415,-51.60575 0,-29.02825 -21.64464,-53.21845 -50.50415,-53.21845 -27.05579,0 -48.70043,24.1902 -48.70043,53.21845 0,29.02824 21.64464,51.60575 48.70043,51.60575 z"
           style="fill:#ffffff;fill-opacity:1;fill-rule:evenodd;stroke:#000000;stroke-width:4;stroke-linecap:round;stroke-linejoin:round;stroke-miterlimit:4;stroke-opacity:1;stroke-dasharray:none" />
        <path
           sodipodi:nodetypes="ccccc"
           id="path3940"
           d="m 487.65338,232.51066 c 127.01125,0.24642 383.26279,-28.50248 381.56097,35.33571 -0.63753,23.45593 -21.11813,30.44653 -26.49602,32.23916 C 716.60659,307.47748 616.6711,360.9944 522.11217,440.09092 488.90929,411.30058 458.52067,268.40837 487.65338,232.51066 z"
           style="fill:#ffffff;fill-opacity:1;fill-rule:evenodd;stroke:#000000;stroke-width:4;stroke-linecap:round;stroke-linejoin:round;stroke-miterlimit:4;stroke-opacity:1;stroke-dasharray:none" />
        <path
           id="path3942"
           d="m 395.68387,514.16762 c 103.97274,0 188.22652,-68.12008 188.22652,-152.37386 0,-82.46113 -84.25378,-150.58121 -188.22652,-150.58121 -103.97274,0 -188.22652,68.12008 -188.22652,150.58121 0,84.25378 84.25378,152.37386 188.22652,152.37386 z"
           style="fill:#ffffff;fill-opacity:1;fill-rule:evenodd;stroke:#000000;stroke-width:4;stroke-linecap:round;stroke-linejoin:round;stroke-miterlimit:4;stroke-opacity:1;stroke-dasharray:none" />
        <rect
           transform="matrix(0.9985191,-0.05440257,0.05440257,0.9985191,0,0)"
           rx="3.515789"
           ry="31.056135"
           y="173.73019"
           x="367.03622"
           height="70.315781"
           width="62.11227"
           id="rect4038"
           style="fill:#ffffff;fill-opacity:1;stroke:#000000;stroke-width:4;stroke-linecap:round;stroke-linejoin:round;stroke-miterlimit:4;stroke-opacity:1;stroke-dasharray:none" />
        <path
           id="path3944"
           d="m 430.998,259.90892 c 31.51535,42.9718 11.46014,111.22111 -42.9755,151.66514 -54.43562,42.9718 -126.06146,40.44405 -157.57681,-2.52776 -34.3804,-42.97179 -14.32519,-111.22109 40.11044,-154.19288 54.43564,-40.44403 126.06146,-40.44403 160.44187,5.0555 z"
           style="fill:#e6e6e6;fill-opacity:1;fill-rule:evenodd;stroke:#000000;stroke-width:4;stroke-linecap:round;stroke-linejoin:round;stroke-miterlimit:4;stroke-opacity:1;stroke-dasharray:none" />
        <rect
           transform="matrix(0.9971732,-0.07513727,0.07513727,0.9971732,0,0)"
           ry="33.228123"
           y="554.7229"
           x="190.79749"
           height="66.456245"
           width="429.91449"
           id="rect4006"
           style="fill:#ffffff;fill-opacity:1;stroke:#000000;stroke-width:4;stroke-linecap:round;stroke-linejoin:round;stroke-miterlimit:4;stroke-opacity:1;stroke-dasharray:none" />
        <path
           style="fill:#ffffff;fill-opacity:1;fill-rule:evenodd;stroke:none"
           d="m 338.28444,247.66381 c 22.07035,6.01048 24.04556,30.90408 5.14026,54.97068 -18.48169,24.82599 -52.69867,39.7462 -74.76903,33.73573 -23.42211,-5.38328 -25.39731,-30.27688 -6.91561,-55.10287 18.90529,-24.0666 52.69867,-39.74619 76.54438,-33.60354 z"
           id="path4013" />
        <path
           sodipodi:type="arc"
           style="fill:#cccccc;fill-opacity:0.88235294;stroke:#000000;stroke-width:17.34519577;stroke-linecap:round;stroke-linejoin:round;stroke-miterlimit:4;stroke-opacity:1;stroke-dasharray:none"
           id="path4019"
           sodipodi:cx="1343.6135"
           sodipodi:cy="126.82128"
           sodipodi:rx="429.30655"
           sodipodi:ry="429.30655"
           d="m 1772.9201,126.82128 c 0,237.09946 -192.2071,429.30655 -429.3066,429.30655 -237.0994,0 -429.30652,-192.20709 -429.30652,-429.30655 0,-237.09946 192.20712,-429.30655 429.30652,-429.30655 237.0995,0 429.3066,192.20709 429.3066,429.30655 z"
           transform="matrix(0.2306114,0,0,0.2306114,538.28969,236.79155)" />
        <path
           d="m 1772.9201,126.82128 c 0,237.09946 -192.2071,429.30655 -429.3066,429.30655 -237.0994,0 -429.30652,-192.20709 -429.30652,-429.30655 0,-237.09946 192.20712,-429.30655 429.30652,-429.30655 237.0995,0 429.3066,192.20709 429.3066,429.30655 z"
           sodipodi:ry="429.30655"
           sodipodi:rx="429.30655"
           sodipodi:cy="126.82128"
           sodipodi:cx="1343.6135"
           id="path4021"
           style="fill:#ffffff;fill-opacity:1;stroke:#000000;stroke-width:73.49919128;stroke-linecap:round;stroke-linejoin:round;stroke-miterlimit:4;stroke-opacity:1;stroke-dasharray:none"
           sodipodi:type="arc"
           transform="matrix(0.05442237,0,0,0.05442237,778.5288,261.47451)" />
        <path
           transform="matrix(0.7936034,-0.0432381,0.00456373,0.08376393,-655.5105,207.6007)"
           d="m 1772.9201,126.82128 c 0,237.09946 -192.2071,429.30655 -429.3066,429.30655 -237.0994,0 -429.30652,-192.20709 -429.30652,-429.30655 0,-237.09946 192.20712,-429.30655 429.30652,-429.30655 237.0995,0 429.3066,192.20709 429.3066,429.30655 z"
           sodipodi:ry="429.30655"
           sodipodi:rx="429.30655"
           sodipodi:cy="126.82128"
           sodipodi:cx="1343.6135"
           id="path4023"
           style="fill:#cccccc;fill-opacity:0.88235294;stroke:#000000;stroke-width:15.49123669;stroke-linecap:round;stroke-linejoin:round;stroke-miterlimit:4;stroke-opacity:1;stroke-dasharray:none"
           sodipodi:type="arc" />
        <path
           id="path4030"
           d="m 409.55521,143.03766 c -29.20664,1.59127 -55.60309,10.51927 -75.96168,24.10539 l 154.09261,-8.39546 c -21.71413,-11.29386 -48.92433,-17.30121 -78.13093,-15.70993 z"
           style="fill:#ffffff;fill-opacity:1;stroke:#000000;stroke-width:4;stroke-linecap:round;stroke-linejoin:round;stroke-miterlimit:4;stroke-opacity:1;stroke-dasharray:none" />
      </g>
    </g>
  </g>
</svg>
