<?xml version="1.0" ?><!DOCTYPE svg  PUBLIC '-//W3C//DTD SVG 1.1//EN'  'http://www.w3.org/Graphics/SVG/1.1/DTD/svg11.dtd' [
	<!ENTITY stroke_color "#010101">
	<!ENTITY fill_color "#FFFFFF">
]>
<svg
   xmlns:dc="http://purl.org/dc/elements/1.1/"
   xmlns:cc="http://creativecommons.org/ns#"
   xmlns:rdf="http://www.w3.org/1999/02/22-rdf-syntax-ns#"
   xmlns:svg="http://www.w3.org/2000/svg"
   xmlns="http://www.w3.org/2000/svg"
   xmlns:xlink="http://www.w3.org/1999/xlink"
   xmlns:sodipodi="http://sodipodi.sourceforge.net/DTD/sodipodi-0.dtd"
   xmlns:inkscape="http://www.inkscape.org/namespaces/inkscape"
   enable-background="new 0 0 55 55"
   height="55px"
   version="1.1"
   viewBox="0 0 55 55"
   width="55px"
   x="0px"
   xml:space="preserve"
   y="0px"
   id="svg2"
   inkscape:version="0.48.4 r9939"
   sodipodi:docname="activity.svg"><metadata
     id="metadata19"><rdf:RDF><cc:Work
         rdf:about=""><dc:format>image/svg+xml</dc:format><dc:type
           rdf:resource="http://purl.org/dc/dcmitype/StillImage" /><dc:title></dc:title></cc:Work></rdf:RDF></metadata><defs
     id="defs17"><linearGradient
       y2="56.695801"
       x2="8.7949696"
       y1="39.12252"
       x1="-66.111282"
       gradientTransform="matrix(1.0023618,0,0,1,100.19202,0)"
       gradientUnits="userSpaceOnUse"
       id="linearGradient3218"
       xlink:href="#linearGradient3246" /><linearGradient
       id="linearGradient3246"><stop
         stop-color="#00fffc"
         offset="0"
         id="stop3248" /><stop
         stop-color="#00fffc"
         stop-opacity="0.506"
         offset="1"
         id="stop3250" /></linearGradient><linearGradient
       gradientUnits="userSpaceOnUse"
       y2="66.760162"
       x2="67.680893"
       y1="51.086689"
       x1="27.57523"
       id="linearGradient3244"
       xlink:href="#linearGradient3238" /><linearGradient
       id="linearGradient3238"><stop
         stop-color="#fffffc"
         id="stop3240"
         offset="0" /><stop
         stop-color="#fffffc"
         stop-opacity="0"
         id="stop3242"
         offset="1" /></linearGradient><linearGradient
       gradientTransform="matrix(-1,0,0,1,132.32599,0.9036872)"
       y2="73.172028"
       x2="63.88126"
       y1="51.324169"
       x1="5.9648499"
       gradientUnits="userSpaceOnUse"
       id="linearGradient3254"
       xlink:href="#linearGradient3256" /><linearGradient
       id="linearGradient3256"><stop
         stop-color="#ffffff"
         stop-opacity="0.66176"
         offset="0"
         id="stop3258" /><stop
         stop-color="#fffffc"
         stop-opacity="0"
         offset="1"
         id="stop3260" /></linearGradient><linearGradient
       inkscape:collect="always"
       xlink:href="#linearGradient3246"
       id="linearGradient3205"
       gradientUnits="userSpaceOnUse"
       gradientTransform="matrix(1.0023618,0,0,1,100.19202,0)"
       x1="-66.111282"
       y1="39.12252"
       x2="8.7949696"
       y2="56.695801" /><linearGradient
       inkscape:collect="always"
       xlink:href="#linearGradient3238"
       id="linearGradient3207"
       gradientUnits="userSpaceOnUse"
       x1="27.57523"
       y1="51.086689"
       x2="67.680893"
       y2="66.760162" /><linearGradient
       inkscape:collect="always"
       xlink:href="#linearGradient3256"
       id="linearGradient3209"
       gradientUnits="userSpaceOnUse"
       gradientTransform="matrix(-1,0,0,1,132.32599,0.9036872)"
       x1="5.9648499"
       y1="51.324169"
       x2="63.88126"
       y2="73.172028" /><linearGradient
       inkscape:collect="always"
       xlink:href="#linearGradient3256"
       id="linearGradient3212"
       gradientUnits="userSpaceOnUse"
       gradientTransform="matrix(-0.51293903,0,0,0.44229355,90.99111,-0.02908182)"
       x1="5.9648499"
       y1="51.324169"
       x2="63.88126"
       y2="73.172028" /><linearGradient
       inkscape:collect="always"
       xlink:href="#linearGradient3238"
       id="linearGradient3215"
       gradientUnits="userSpaceOnUse"
       x1="27.57523"
       y1="51.086689"
       x2="67.680893"
       y2="66.760162"
       gradientTransform="matrix(0.51293903,0,0,0.44229355,23.115945,-0.42877684)" /><linearGradient
       inkscape:collect="always"
       xlink:href="#linearGradient3246"
       id="linearGradient3219"
       gradientUnits="userSpaceOnUse"
       gradientTransform="matrix(0.51415049,0,0,0.44229355,74.508343,-0.42877684)"
       x1="-66.111282"
       y1="39.12252"
       x2="8.7949696"
       y2="56.695801" /></defs><sodipodi:namedview
     pagecolor="#ffffff"
     bordercolor="#666666"
     borderopacity="1"
     objecttolerance="10"
     gridtolerance="10"
     guidetolerance="10"
     inkscape:pageopacity="0"
     inkscape:pageshadow="2"
     inkscape:window-width="1366"
     inkscape:window-height="735"
     id="namedview15"
     showgrid="false"
     inkscape:zoom="8.2955266"
     inkscape:cx="24.020276"
     inkscape:cy="26.300341"
     inkscape:window-x="0"
     inkscape:window-y="0"
     inkscape:window-maximized="1"
     inkscape:current-layer="svg2" /><path
     style="fill:&fill_color;;stroke:&stroke_color;;stroke-width:1.3;stroke-miterlimit:4;stroke-dasharray:none"
     d="m 17.490323,45.539337 c -1.865878,-0.729934 -2.666749,-4.365054 -1.458908,-6.621926 0.410884,-0.767743 0.285332,-1.17831 -0.630783,-2.062732 -1.999535,-1.930359 -2.347078,-3.488112 -2.347078,-10.520064 0,-6.2052 0.08003,-6.775883 1.176456,-8.389422 1.009562,-1.485704 1.105181,-1.963542 0.674033,-3.368351 -0.741154,-2.414898 -0.120517,-4.9320026 1.385234,-5.6180686 1.604039,-0.7308486 5.392254,-0.7317406 6.779415,-0.0016 1.497018,0.78797 1.800016,1.3743416 1.808696,3.5002636 l 0.0075,1.848654 2.218385,0 c 2.052784,0 2.218384,-0.09442 2.218384,-1.264844 0,-1.469154 0.81235,-3.1614786 1.929177,-4.0189516 0.993215,-0.762566 6.995938,-0.8118723 8.622362,-0.07082 1.430179,0.651634 2.021532,2.6418596 1.542955,5.1928926 -0.249474,1.329809 -0.128135,1.87714 0.521443,2.352123 0.735688,0.537949 0.653307,0.590664 -0.628955,0.402468 -0.953631,-0.139963 -1.765195,0.07311 -2.294486,0.602397 -1.011876,1.011876 -1.06526,2.65686 -0.09826,3.027931 0.396383,0.152107 0.851408,0.688393 1.011166,1.191748 0.342578,1.079369 1.821796,1.648864 3.170739,1.220725 0.712349,-0.22609 0.997462,-0.836537 1.109192,-2.374848 l 0.150387,-2.070535 0.862705,1.577685 c 1.25362,2.292578 1.140791,4.792685 -0.246487,5.461744 -0.610056,0.294219 -0.831895,0.549958 -0.492975,0.568308 0.33892,0.01835 0.616218,0.366122 0.616218,0.772826 0,0.406704 -0.277298,0.754476 -0.616218,0.772826 -0.33892,0.01835 -0.117081,0.274089 0.492975,0.568308 1.989598,0.959547 1.26686,5.235416 -1.303437,7.711409 -1.071143,1.031842 -1.117319,1.216442 -0.40412,1.615568 0.974301,0.545247 1.551118,3.260192 1.11476,5.246919 -0.413503,1.882669 -1.985746,2.571507 -5.869353,2.571507 -3.886324,0 -5.24599,-1.027138 -5.24599,-3.962998 l 0,-1.952694 -3.204333,0 -3.204333,0 0,2.124162 c 0,3.361397 -0.764689,3.993281 -5.004449,4.135311 -1.992431,0.06675 -3.955358,-0.0088 -4.362062,-0.16792 z M 35.966428,36.897966 C 37.685361,36.114769 37.276105,35.290418 35.076047,35.1045 34.080246,35.02035 33.2655,34.860718 33.2655,34.749764 c 0,-0.110954 0.392777,-0.929457 0.872838,-1.818895 1.891696,-3.504864 2.118815,-4.882898 1.407444,-8.539582 -0.367004,-1.886522 -1.071293,-4.261934 -1.565086,-5.278693 -0.758917,-1.562671 -1.141261,-1.848654 -2.471549,-1.848654 -0.865558,0 -1.780439,0.277298 -2.033068,0.616218 -0.26674,0.35785 -0.343722,3.936867 -0.183605,8.536117 0.275024,7.899941 0.273056,7.919387 -0.781352,7.716839 -0.685379,-0.131658 -1.153558,-0.685488 -1.331471,-1.575055 -0.15092,-0.754598 -0.592179,-1.689776 -0.980577,-2.078174 C 25.50933,29.790141 25.465959,27.592547 25.972303,18.98935 l 0.14507,-2.464872 -1.718767,0 c -2.42615,0 -3.125049,1.649238 -3.446982,8.134077 -0.141332,2.846926 -0.416385,4.788013 -0.611227,4.313525 -0.194843,-0.474488 -0.830076,-0.862705 -1.411632,-0.862705 -1.123314,0 -1.118586,-0.172277 -0.12622,4.59916 0.159553,0.767155 0.65055,1.527408 1.091104,1.689452 0.440553,0.162044 0.911926,0.421725 1.047494,0.57707 0.812334,0.93084 2.794161,1.514881 5.140447,1.514881 1.478925,0 2.826057,0.221839 2.993629,0.492975 0.420952,0.681115 5.343052,0.620441 6.891209,-0.08495 z m 7.056925,-4.440083 c 0.129756,-2.940275 0.03984,-3.315732 -0.862705,-3.602188 -2.233713,-0.708953 -3.965405,1.101717 -3.965405,4.146257 0,1.490833 0.633372,2.245563 2.218384,2.643436 2.204678,0.553425 2.458307,0.243643 2.609726,-3.187505 z"
     id="path3223"
     inkscape:connector-curvature="0" /></svg>
