<?xml version="1.0" ?>
<!-- Created with Inkscape (http://www.inkscape.org/) --><!DOCTYPE svg
  PUBLIC '-//W3C//DTD SVG 1.1//EN'
  'http://www.w3.org/Graphics/SVG/1.1/DTD/svg11.dtd' [
	<!ENTITY stroke_color "#666666">
	<!ENTITY fill_color "#ffffff">
]>
<svg height="48px" id="svg2985" inkscape:version="0.47 r22583" sodipodi:docname="activity.svg" style="" version="1.1" width="48px" xmlns="http://www.w3.org/2000/svg" xmlns:cc="http://creativecommons.org/ns#" xmlns:dc="http://purl.org/dc/elements/1.1/" xmlns:inkscape="http://www.inkscape.org/namespaces/inkscape" xmlns:rdf="http://www.w3.org/1999/02/22-rdf-syntax-ns#" xmlns:sodipodi="http://sodipodi.sourceforge.net/DTD/sodipodi-0.dtd" xmlns:svg="http://www.w3.org/2000/svg">
  <defs id="defs2987" style="">
    <inkscape:perspective id="perspective2973" inkscape:persp3d-origin="24 : 16 : 1" inkscape:vp_x="0 : 24 : 1" inkscape:vp_y="0 : 1000 : 0" inkscape:vp_z="48 : 24 : 1" sodipodi:type="inkscape:persp3d"/>
    <inkscape:perspective id="perspective3005" inkscape:persp3d-origin="0.5 : 0.33333333 : 1" inkscape:vp_x="0 : 0.5 : 1" inkscape:vp_y="0 : 1000 : 0" inkscape:vp_z="1 : 0.5 : 1" sodipodi:type="inkscape:persp3d"/>
  </defs>
  <sodipodi:namedview bordercolor="#666666" borderopacity="1.0" id="base" inkscape:current-layer="layer1" inkscape:cx="44.290565" inkscape:cy="13.515443" inkscape:document-units="px" inkscape:grid-bbox="true" inkscape:guide-bbox="true" inkscape:pageopacity="0.0" inkscape:pageshadow="2" inkscape:window-height="806" inkscape:window-maximized="1" inkscape:window-width="1200" inkscape:window-x="0" inkscape:window-y="31" inkscape:zoom="7" pagecolor="#ffffff" showgrid="true" showguides="true" style=""/>
  <metadata id="metadata2990" style="">
    <rdf:RDF style="">
      <cc:Work rdf:about="" style="">
        <dc:format style="">image/svg+xml</dc:format>
        <dc:type rdf:resource="http://purl.org/dc/dcmitype/StillImage" style=""/>
        <dc:title style=""/>
      </cc:Work>
    </rdf:RDF>
  </metadata>
  <g id="layer1" inkscape:groupmode="layer" inkscape:label="Layer 1" style="">
    <path d="" id="path3104" inkscape:connector-curvature="0" style="fill:&fill_color;;fill-opacity:1"/>
    <text id="text2851" style="font-size:11.22405148px;font-style:normal;font-weight:normal;fill:&stroke_color;;fill-opacity:1;stroke:none;font-family:Bitstream Vera Sans" transform="scale(0.81989476,1.2196687)" x="3.5311515" xml:space="preserve" y="19.15263"><tspan id="tspan2853" sodipodi:role="line" style="font-size:25.25411606px;font-style:normal;font-variant:normal;font-weight:bold;font-stretch:normal;font-family:DejaVu Sans;-inkscape-font-specification:DejaVu Sans Bold" x="3.5311515" y="19.15263">JAM</tspan></text>
    <text id="text2851-7" style="font-size:7.00412226px;font-style:normal;font-weight:normal;fill:&stroke_color;;fill-opacity:1;stroke:none;font-family:Bitstream Vera Sans" transform="scale(0.93230591,1.0726093)" x="14.261047" xml:space="preserve" y="37.259819"><tspan id="tspan2853-9" sodipodi:role="line" style="font-size:15.75927544px;font-style:normal;font-variant:normal;font-weight:bold;font-stretch:normal;font-family:DejaVu Sans;-inkscape-font-specification:DejaVu Sans Bold" x="14.261047" y="37.259819">GBA</tspan></text>
    <path d="m 9.7535678,29.650051 -0.0374,0.02412 -0.374002,0.168833 c -0.755964,0.357971 -1.320406,1.075714 -1.558338,1.941573 -0.129442,0.471048 -0.131015,1.271269 0,1.736562 0.21301,0.756503 0.7176,1.471476 1.296537,1.736563 0.170343,0.078 0.331589,0.125539 0.486202,0.132654 0.154613,0.0071 0.305622,-0.03785 0.423868,-0.132654 0.2364932,-0.189619 0.3203272,-0.509754 0.3615352,-0.952697 0.06973,-0.74955 0.435648,-1.416864 1.072135,-1.965693 0.391712,-0.337765 0.827212,-0.558221 1.408738,-0.711508 0.116227,-0.03064 0.237796,-0.07042 0.336601,-0.108535 0.09881,-0.03811 0.156005,-0.06496 0.236867,-0.132654 0.144699,-0.121134 0.211698,-0.315452 0.174534,-0.482379 -0.03717,-0.166926 -0.149252,-0.317104 -0.286734,-0.45826 -0.274965,-0.28231 -0.699315,-0.529276 -1.209271,-0.675329 -0.317996,-0.09108 -0.591703,-0.120595 -1.358871,-0.120595 l -0.9225342,0 -0.04987,0 z" id="path3036" inkscape:connector-curvature="0" style="font-size:medium;font-style:normal;font-variant:normal;font-weight:normal;font-stretch:normal;text-indent:0;text-align:start;text-decoration:none;line-height:normal;letter-spacing:normal;word-spacing:normal;text-transform:none;direction:ltr;block-progression:tb;writing-mode:lr-tb;text-anchor:start;color:#000000;fill:#ff0000;fill-opacity:1;fill-rule:nonzero;stroke:&stroke_color;;stroke-width:0.39236465;stroke-opacity:1;marker:none;visibility:visible;display:inline;overflow:visible;enable-background:accumulate;font-family:Sans;-inkscape-font-specification:Sans"/>
    <path d="m 5.0536188,30.458036 c -0.322455,-0.01402 -0.653098,7.8e-5 -0.860203,0.04824 -0.443289,0.103079 -0.834554,0.301217 -1.134471,0.554735 -0.299916,0.253517 -0.511135,0.568512 -0.511135,0.90446 0,0.08222 0.0078,0.170267 0.06234,0.253248 0.05457,0.08298 0.143533,0.134991 0.236867,0.168833 0.186669,0.06768 0.427837,0.08369 0.810337,0.09647 0.590372,0.01974 0.616757,0.02219 0.947469,0.168833 0.394373,0.174868 0.88211,0.615854 1.084604,0.988876 0.04447,0.08193 0.08407,0.161871 0.124667,0.22913 0.0406,0.06726 0.06827,0.106174 0.1122,0.156772 0.09648,0.111134 0.273634,0.157407 0.411402,0.120595 0.137767,-0.03681 0.249579,-0.114034 0.374001,-0.229129 0.162921,-0.150709 0.283785,-0.332703 0.349068,-0.554735 0.06528,-0.222033 0.08828,-0.481674 0.08727,-0.844163 -0.002,-0.695095 -0.124235,-1.033834 -0.536069,-1.447131 -0.394433,-0.395832 -0.883354,-0.585683 -1.558338,-0.615032 z" id="path3032" inkscape:connector-curvature="0" style="font-size:medium;font-style:normal;font-variant:normal;font-weight:normal;font-stretch:normal;text-indent:0;text-align:start;text-decoration:none;line-height:normal;letter-spacing:normal;word-spacing:normal;text-transform:none;direction:ltr;block-progression:tb;writing-mode:lr-tb;text-anchor:start;color:#000000;fill:#44aa00;fill-opacity:1;fill-rule:nonzero;stroke:&stroke_color;;stroke-width:0.39236465;stroke-opacity:1;marker:none;visibility:visible;display:inline;overflow:visible;enable-background:accumulate;font-family:Sans;-inkscape-font-specification:Sans"/>
    <path d="m 12.246908,33.641733 c -0.280224,0 -0.562188,0.115629 -0.772936,0.337665 l -0.174534,0.192952 -0.06234,0.04824 0,0.07236 0,0.880341 0,0.67533 -3.1042092,0 c -1.537725,5.4e-4 -2.363778,-0.0011 -2.84241,0.01206 -0.478631,0.01324 -0.642335,0.0414 -0.772935,0.09647 -0.544306,0.229525 -0.950428,0.69253 -1.047204,1.218006 l -0.01247,0.07236 -1.009803,0.02412 c -0.395922,0.0089 -0.701102,0.03236 -0.922536,0.04824 -0.1107179,0.0079 -0.2018159,0.01344 -0.2742679,0.02412 -0.07245,0.01067 -0.112566,0.0089 -0.187001,0.04824 -0.13783404,0.07293 -0.25766104,0.174594 -0.32413404,0.313547 -0.06647,0.138952 -0.08727,0.304266 -0.08727,0.494438 0,0.156026 0.0083,0.261234 0.04987,0.373843 0.04153,0.11261 0.106207,0.195226 0.199467,0.289427 l 0.19946704,0.192951 0.06234,0.0603 0.0748,0 1.1968039,0.02412 0.997336,0.03618 0.01247,3.14752 0.01247,3.159579 -0.162067,0.01206 c -0.147197,0.0099 -0.256135,0.02439 -0.361534,0.0603 -0.1054,0.03591 -0.193637,0.09737 -0.274268,0.168833 -0.430579,0.381598 -0.422307,1.050778 0.02493,1.398897 0.08826,0.0687 0.206507,0.136167 0.374001,0.156773 0.167493,0.02061 0.401068,0.01206 0.860203,0.01206 0.430062,0 0.656344,0.0049 0.822803,-0.01206 0.166458,-0.01697 0.29061,-0.07197 0.374001,-0.132654 0.158161,-0.115085 0.296147,-0.261261 0.349068,-0.482379 0.05292,-0.221116 0.04987,-0.50777 0.04987,-1.012994 l 0,-0.735628 2.867343,0 2.8548742,0 0,0.759747 c 0,0.357483 0.0018,0.625861 0.02493,0.844162 0.0232,0.218302 0.08019,0.406649 0.211934,0.542676 0.131745,0.136026 0.308606,0.192715 0.523602,0.21707 0.214995,0.02435 0.476583,0.01206 0.822802,0.01206 l 0.959937,0 0.0748,0 0.06234,-0.04824 0.174534,-0.156772 c 0.08555,-0.07914 0.161516,-0.164963 0.199467,-0.277368 0.03795,-0.112406 0.03826,-0.220695 0.0374,-0.385903 -6.38e-4,-0.120655 -0.0075,-0.232441 -0.02494,-0.325606 -0.01739,-0.09316 -0.03359,-0.160327 -0.09973,-0.241189 -0.199416,-0.243798 -0.507917,-0.373422 -0.860204,-0.373843 l -0.09973,0 0,-5.499115 0,-5.692067 0,-0.07236 -0.04987,-0.04824 -0.174534,-0.192952 c -0.210745,-0.222048 -0.492707,-0.337677 -0.772932,-0.337677 z" id="path3028" inkscape:connector-curvature="0" style="font-size:medium;font-style:normal;font-variant:normal;font-weight:normal;font-stretch:normal;text-indent:0;text-align:start;text-decoration:none;line-height:normal;letter-spacing:normal;word-spacing:normal;text-transform:none;direction:ltr;block-progression:tb;writing-mode:lr-tb;text-anchor:start;color:#000000;fill:#44aa00;fill-opacity:1;fill-rule:nonzero;stroke:&stroke_color;;stroke-width:0.39236465;stroke-opacity:1;marker:none;visibility:visible;display:inline;overflow:visible;enable-background:accumulate;font-family:Sans;-inkscape-font-specification:Sans"/>
    <path d="m 9.4418998,37.75401 c -0.129209,0 -0.220752,-0.0028 -0.324135,0.03618 -0.103382,0.03899 -0.178666,0.115263 -0.249334,0.192952 -0.319527,0.351272 -0.247786,0.897465 0.174534,1.10947 0.300009,0.150605 0.664699,0.128337 0.922537,-0.07235 0.08381,-0.06524 0.1555762,-0.141618 0.1994682,-0.241189 0.04389,-0.09957 0.04987,-0.193233 0.04987,-0.313547 0,-0.112722 -0.0044,-0.209259 -0.0374,-0.301486 -0.03302,-0.09223 -0.09371,-0.165898 -0.162068,-0.22913 -0.06836,-0.06323 -0.1532732,-0.115283 -0.2493342,-0.144714 -0.09606,-0.02942 -0.20346,-0.03618 -0.324135,-0.03618 z" id="path3024" inkscape:connector-curvature="0" style="font-size:medium;font-style:normal;font-variant:normal;font-weight:normal;font-stretch:normal;text-indent:0;text-align:start;text-decoration:none;line-height:normal;letter-spacing:normal;word-spacing:normal;text-transform:none;direction:ltr;block-progression:tb;writing-mode:lr-tb;text-anchor:start;color:#000000;fill:#ffffff;fill-opacity:1;fill-rule:nonzero;stroke:&stroke_color;;stroke-width:0.39236465;stroke-opacity:1;marker:none;visibility:visible;display:inline;overflow:visible;enable-background:accumulate;font-family:Sans;-inkscape-font-specification:Sans"/>
    <path d="m 10.364437,39.695584 c -0.23804,-0.06099 -0.4782472,0.03455 -0.7106042,0.21707 -0.408614,0.320979 -0.63473,0.454642 -1.034736,0.578855 -0.596074,0.185096 -0.894602,0.163321 -1.595739,-0.108536 -0.105167,-0.04078 -0.213783,-0.07275 -0.311667,-0.09648 -0.09789,-0.02372 -0.163697,-0.05079 -0.274268,-0.03618 -0.137421,0.01816 -0.26734,0.101424 -0.3366,0.205011 -0.06926,0.103587 -0.09067,0.222319 -0.09973,0.349724 -0.01814,0.25481 0.044,0.548302 0.199466,0.832103 0.256956,0.469067 0.813933,0.992946 1.296538,1.205946 1.082579,0.477802 2.5107322,-0.0998 3.1166762,-1.205946 0.114245,-0.208551 0.195745,-0.460439 0.236867,-0.711509 0.04112,-0.251068 0.04718,-0.485566 -0.01247,-0.687389 -0.07907,-0.267555 -0.235696,-0.481684 -0.473733,-0.542675 z" id="path3016" inkscape:connector-curvature="0" style="font-size:medium;font-style:normal;font-variant:normal;font-weight:normal;font-stretch:normal;text-indent:0;text-align:start;text-decoration:none;line-height:normal;letter-spacing:normal;word-spacing:normal;text-transform:none;direction:ltr;block-progression:tb;writing-mode:lr-tb;text-anchor:start;color:#000000;fill:#ffffff;fill-opacity:1;fill-rule:nonzero;stroke:&stroke_color;;stroke-width:0.39236465;stroke-opacity:1;marker:none;visibility:visible;display:inline;overflow:visible;enable-background:accumulate;font-family:Sans;-inkscape-font-specification:Sans"/>
    <path d="m 6.9231738,38.308893 c -0.129208,0 -0.220751,-0.0028 -0.324134,0.03618 -0.103383,0.03899 -0.178666,0.115264 -0.249334,0.192952 -0.319527,0.351272 -0.247787,0.897465 0.174534,1.109471 0.300009,0.150605 0.664699,0.128336 0.922536,-0.07236 0.08381,-0.06524 0.155576,-0.141618 0.199467,-0.24119 0.04389,-0.09957 0.04987,-0.193232 0.04987,-0.313545 0,-0.112723 -0.0044,-0.20926 -0.0374,-0.301488 -0.03302,-0.09223 -0.09371,-0.165901 -0.162068,-0.229133 -0.06836,-0.06324 -0.153273,-0.115283 -0.249334,-0.144714 -0.09606,-0.02943 -0.203459,-0.03618 -0.324134,-0.03618 z" id="path3024-0" inkscape:connector-curvature="0" style="font-size:medium;font-style:normal;font-variant:normal;font-weight:normal;font-stretch:normal;text-indent:0;text-align:start;text-decoration:none;line-height:normal;letter-spacing:normal;word-spacing:normal;text-transform:none;direction:ltr;block-progression:tb;writing-mode:lr-tb;text-anchor:start;color:#000000;fill:#ffffff;fill-opacity:1;fill-rule:nonzero;stroke:&stroke_color;;stroke-width:0.39236465;stroke-opacity:1;marker:none;visibility:visible;display:inline;overflow:visible;enable-background:accumulate;font-family:Sans;-inkscape-font-specification:Sans"/>
  </g>
</svg>