<?xml version="1.0" encoding="UTF-8" standalone="no"?>
<!DOCTYPE svg PUBLIC "-//W3C//DTD SVG 1.1//EN" "http://www.w3.org/Graphics/SVG/1.1/DTD/svg11.dtd"[
	<!ENTITY stroke_color "#010101">
	<!ENTITY fill_color "#FFFFFF">
]>
<svg version="1.1" xmlns="http://www.w3.org/2000/svg" 
xmlns:xlink="http://www.w3.org/1999/xlink" x="0px" y="0px" width="74.5px" 
height="74px" viewBox="0 0 74.5 74" enable-background="new 0 0 74.5 74" 
xml:space="preserve">
  <g
     id="layer1">
    <path
	fill="&fill_color;"
	stroke="&stroke_color;"
       style="fill-rule:evenodd;stroke-width:3px;stroke-linecap:butt;stroke-linejoin:miter;stroke-opacity:1"
       d="M 26.103896,30.414131 C 26.10824,31.835631 27.65909,34.303739 28.441558,35.868676 C 29.095443,37.176446 28.441558,40.567146 28.441558,42.102442 C 28.441558,44.458798 28.791155,46.228103 29.220779,47.946598 C 29.716675,49.930183 31.164441,51.054701 31.948052,52.621923 C 32.562013,53.849845 31.948052,57.057036 31.948052,58.466079 C 31.948052,60.578642 34.133108,61.54481 35.844156,61.972572 C 37.9463,62.498108 39.776611,64.455638 38.961039,61.193351 C 38.506768,59.376268 38.181818,57.433783 38.181818,55.738806 C 38.181818,53.460305 38.259708,52.076534 38.961039,50.673871 C 39.521697,49.552555 41.178044,48.456866 42.077922,47.556988 C 43.595502,46.039408 43.604031,44.777481 45.921792,44.777481 C 47.744606,44.777481 47.922078,42.756425 47.922078,40.933611 C 47.922078,40.211571 49.090909,38.980136 49.090909,37.037507 C 49.090909,35.545585 51.363841,34.73221 52.207792,34.310235 C 54.690119,33.069071 55.660553,35.693996 56.493506,32.362183 C 57.006941,30.308444 57.272727,29.14657 57.272727,26.907637 C 57.272727,24.38564 56.585007,24.014336 58.441558,22.621923 C 60.278242,21.24441 59.251552,20.407352 58.831169,18.725819 C 58.405379,17.022659 56.343648,16.777767 54.545455,16.777767 C 52.133913,16.777767 51.269818,16.30878 49.87013,15.608936 C 48.063746,14.705744 47.654856,13.527273 45.584416,12.492053 C 44.305894,11.852792 43.865173,10.4636 42.467532,9.76478 C 41.045959,9.0539935 41.20858,8.2063385 38.181818,8.2063385 C 36.777058,8.2063385 36.837471,5.6931604 35.844156,4.699845 C 35.31502,4.1707087 32.188211,3.2988459 31.558442,3.1414034 C 30.239494,2.8116665 28.367173,2.751793 26.493506,2.751793 C 24.076646,2.751793 23.486586,1.8626095 21.818182,3.5310138 C 20.871767,4.4774282 20.391284,6.5163534 19.480519,7.4271177 C 18.877341,8.0302962 20.394662,9.6298578 19.090909,10.933611 C 17.966911,12.057609 17.753072,13.609286 17.142857,14.829715 C 16.135171,16.845088 14.474027,16.056988 15.974026,17.556988 C 17.332069,18.91503 19.120556,18.725819 15.194805,18.725819 C 13.358164,18.725819 19.090909,20.785282 19.090909,22.621923 C 19.090909,24.455294 21.373043,25.516691 21.818182,27.297248 C 22.493269,29.997597 23.251028,29.272984 26.103896,30.414131 z"
       id="path2398"/>
  </g>
</svg>
