<?xml version="1.0" encoding="utf-8"?>
<!-- Generator: Adobe Illustrator 16.0.0, SVG Export Plug-In . SVG Version: 6.00 Build 0)  -->
<!DOCTYPE svg PUBLIC "-//W3C//DTD SVG 1.1//EN" "http://www.w3.org/Graphics/SVG/1.1/DTD/svg11.dtd">
<svg version="1.1" id="Layer_1" xmlns="http://www.w3.org/2000/svg" xmlns:xlink="http://www.w3.org/1999/xlink" x="0px" y="0px"
	 width="55px" height="55px" viewBox="0 0 55 55" enable-background="new 0 0 55 55" xml:space="preserve">
<g>
	<rect x="7.5" y="7.5" fill="#FFFFFF" stroke="#666666" stroke-width="3.5" width="40" height="40"/>
</g>
<g>
	<path fill="#666666" d="M42.752,19.587c-0.826-2.093-2.298-3.309-4.374-3.61c-1.379-0.201-2.995-0.008-5.064,0.605
		c-1.431-1.107-3.217-1.667-5.334-1.667c-2.075,0-3.877,0.583-5.321,1.706c-2.133-0.644-3.787-0.849-5.195-0.645
		c-0.967,0.141-1.801,0.481-2.501,1.014c-0.444,0.083-0.5,0.401-0.965,0.532c-0.155,0.706-0.444,1.046-0.742,1.672
		c0.113-0.041-0.113,0.036,0,0c-0.058,0.126-0.114,0.257-0.167,0.392c-1.088,2.755-1.327,5.828-0.636,8.221
		c0.516,1.79,1.542,3.163,2.963,3.971c0.738,0.419,1.623,0.625,2.569,0.625c0.946,0,1.953-0.206,2.934-0.611
		c0.274,0.282,0.575,0.546,0.902,0.788c0.799,0.595,1.75,1.05,2.799,1.361c-0.236,0.532-0.534,0.877-0.902,1.048
		c-0.981,0.448-2.327-0.396-2.861-0.778c-0.315-0.226-0.694-0.281-1.043-0.152c-0.348,0.129-0.643,0.435-0.806,0.839l-0.28,0.688
		c-0.277,0.686-0.138,1.503,0.337,1.993c0.837,0.859,2.68,2.438,4.936,2.438c0.831,0,1.718-0.214,2.632-0.758
		c2.502-1.486,3.881-3.492,4.639-5.295c0.068-0.022,0.139-0.041,0.207-0.062c-0.049,0.382,0.638-0.469,0.585-0.084
		c0.485-0.481,0.357-0.238,0.917-0.524c0.025-0.204-0.022,0.205,0,0c0.413-0.21,0.801-0.447,1.159-0.714
		c0.312-0.232,0.602-0.484,0.868-0.754c0.955,0.382,1.931,0.577,2.85,0.577c0.944,0,1.83-0.206,2.568-0.625
		c1.423-0.809,2.448-2.182,2.964-3.971C44.079,25.415,43.841,22.343,42.752,19.587z M16.005,30.191
		c-1.084-0.617-1.833-1.615-2.224-2.97c-0.556-1.928-0.336-4.56,0.575-6.867c0.611-1.545,1.681-2.409,3.27-2.641
		c1.002-0.146,2.174-0.046,3.628,0.312c-0.121,0.153-0.237,0.312-0.349,0.475c-1.339,1.959-2.078,4.707-2.078,7.732
		c0,1.561,0.346,2.954,1.016,4.13C18.422,30.811,17.021,30.769,16.005,30.191z M31.922,31.914c0.292-1.312,0.272-2.254,0.269-2.35
		c-0.016-0.483-0.348-0.86-0.733-0.841c-0.389,0.019-0.693,0.424-0.679,0.907c0.001,0.051,0.104,5.161-4.76,8.055
		c-2.604,1.547-5.021-0.413-5.996-1.394l0.206-0.51c0.898,0.63,2.535,1.51,3.98,0.846c0.917-0.423,1.587-1.364,1.988-2.801
		c0.62-2.222-0.838-4.654-0.901-4.757c-0.235-0.386-0.678-0.463-0.99-0.172c-0.312,0.291-0.374,0.839-0.139,1.225
		c0.201,0.328,0.628,1.218,0.742,2.104c-2.526-0.763-4.666-2.593-4.666-5.996c0-2.169,0.521-9.077,7.03-9.542v5.019
		c0,0.482,0.316,0.873,0.707,0.873c0.389,0,0.707-0.39,0.707-0.873v-5.02c6.326,0.437,7.029,6.766,7.029,9.543
		C35.715,29.234,34.049,31.012,31.922,31.914z M42.057,27.221c-0.39,1.355-1.138,2.353-2.222,2.97
		c-0.992,0.563-2.354,0.619-3.741,0.204c0.683-1.185,1.034-2.587,1.034-4.164c0-2.155-0.352-5.243-2.032-7.729
		c-0.119-0.177-0.243-0.346-0.372-0.51c0.965-0.229,1.807-0.345,2.554-0.345c0.328,0,0.641,0.022,0.936,0.065
		c1.59,0.231,2.659,1.095,3.27,2.641C42.394,22.661,42.612,25.293,42.057,27.221z"/>
	<path fill="#666666" d="M22.675,25.937c-0.186,0-0.368,0.093-0.5,0.257c-0.131,0.162-0.207,0.389-0.207,0.617
		c0,0.231,0.075,0.456,0.207,0.619c0.132,0.161,0.314,0.254,0.5,0.254c0.187,0,0.369-0.093,0.5-0.254
		c0.131-0.163,0.207-0.388,0.207-0.619c0-0.229-0.075-0.456-0.207-0.617C23.044,26.03,22.862,25.937,22.675,25.937L22.675,25.937z"
		/>
	<path fill="#666666" d="M33.281,25.937c-0.186,0-0.369,0.093-0.499,0.257c-0.132,0.162-0.208,0.389-0.208,0.617
		c0,0.231,0.076,0.456,0.208,0.617c0.13,0.163,0.313,0.256,0.499,0.256c0.187,0,0.368-0.093,0.499-0.256
		c0.132-0.161,0.207-0.386,0.207-0.617c0-0.229-0.075-0.456-0.207-0.617C33.649,26.03,33.468,25.937,33.281,25.937z"/>
	<path fill="#666666" d="M28.377,31.973H27.58c-0.261,0-0.471,0.26-0.471,0.582s0.21,0.582,0.471,0.582h0.797
		c0.261,0,0.472-0.26,0.472-0.582S28.638,31.973,28.377,31.973z"/>
	<path fill="#666666" d="M28.776,30.001h-1.596c-0.26,0-0.47,0.261-0.47,0.582c0,0.322,0.21,0.581,0.47,0.581h1.596
		c0.26,0,0.471-0.259,0.471-0.581C29.247,30.262,29.036,30.001,28.776,30.001z"/>
</g>
</svg>
