<?xml version="1.0" encoding="UTF-8" standalone="no"?>
<!DOCTYPE svg PUBLIC "-//W3C//DTD SVG 1.1//EN"
 "http://www.w3.org/Graphics/SVG/1.1/DTD/svg11.dtd" [
  <!ENTITY fill_color "#FFFFFF">
  <!ENTITY stroke_color "#000000">
]>
<svg
   xmlns:dc="http://purl.org/dc/elements/1.1/"
   xmlns:cc="http://web.resource.org/cc/"
   xmlns:rdf="http://www.w3.org/1999/02/22-rdf-syntax-ns#"
   xmlns:svg="http://www.w3.org/2000/svg"
   xmlns="http://www.w3.org/2000/svg"
   xmlns:sodipodi="http://sodipodi.sourceforge.net/DTD/sodipodi-0.dtd"
   xmlns:inkscape="http://www.inkscape.org/namespaces/inkscape"
   enable-background="new 0 0 55 55"
   height="55px"
   version="1.1"
   viewBox="0 0 55 55"
   width="55px"
   x="0px"
   xml:space="preserve"
   y="0px"
   id="svg2286"
   sodipodi:version="0.32"
   inkscape:version="0.45.1"
   sodipodi:docname="activity-frotz.svg"
   sodipodi:docbase="/Users/jminor/Sites/olpc/fiction/Frotz.activity/activity"
   inkscape:output_extension="org.inkscape.output.svg.inkscape"
   inkscape:export-filename="/Users/jminor/Sites/olpc/fiction/Frotz.activity/activity/activity-frotz.png"
   inkscape:export-xdpi="909.59229"
   inkscape:export-ydpi="909.59229"><metadata
     id="metadata2294"><rdf:RDF><cc:Work
         rdf:about=""><dc:format>image/svg+xml</dc:format><dc:type
           rdf:resource="http://purl.org/dc/dcmitype/StillImage" /></cc:Work></rdf:RDF></metadata><defs
     id="defs2292" /><sodipodi:namedview
     inkscape:window-height="684"
     inkscape:window-width="1013"
     inkscape:pageshadow="2"
     inkscape:pageopacity="0.0"
     guidetolerance="10.0"
     gridtolerance="10.0"
     objecttolerance="10.0"
     borderopacity="1.0"
     bordercolor="#666666"
     pagecolor="#ffffff"
     id="base"
     inkscape:zoom="5.9"
     inkscape:cx="-1.6005291"
     inkscape:cy="22.036197"
     inkscape:window-x="301"
     inkscape:window-y="36"
     inkscape:current-layer="svg2286" />

	<path
	    fill="&fill_color;" stroke="&stroke_color;" style="fill-rule:evenodd;stroke-width:1px;stroke-linecap:butt;stroke-linejoin:miter;stroke-opacity:1;fill-opacity:1"
	     d="M 5.9322034,34.661017 L 17.288136,1.9491525 L 17.288136,1.9491525 L 47.966102,2.2881356 L 46.779661,8.7288136 L 48.813559,10.084746 L 48.813559,11.271186 L 51.186441,12.627119 L 39.830508,45.169492 L 25.423729,43.474576 L 28.644068,52.457627 L 17.288136,48.898305 L 14.40678,52.79661 L 11.186441,45.677966 L 11.186441,40.932203 L 6.440678,39.745763 L 5.9322034,34.661017 z "
	     id="filling" />

<path
	fill="&stroke_color;"
     style="fill-opacity:1"
     d="M 26.843409,53.517871 C 26.148749,53.340211 25.156179,52.920521 22.964479,51.877771 C 20.513439,50.711641 19.439819,50.286591 18.561689,50.134731 C 17.861479,50.013641 17.842469,50.016031 17.587849,50.256881 C 17.445019,50.391991 16.945349,51.079391 16.477459,51.784431 C 15.543299,53.192091 15.253169,53.463911 14.606309,53.537441 C 14.191559,53.584581 14.152279,53.564821 13.671819,53.067361 C 11.962829,51.297901 10.041419,45.729801 9.9734493,42.349741 C 9.9670993,42.034201 9.9414393,41.855021 9.9164193,41.951561 C 9.8634093,42.156141 9.7262593,42.164341 8.7607893,42.020621 C 7.4658693,41.827861 6.6832993,41.502801 6.0295393,40.886131 C 5.6178493,40.497801 5.5525393,40.240421 5.3518293,38.215221 C 5.1640893,36.321041 5.2081993,35.101241 5.5023293,34.052581 C 5.6106493,33.666401 8.0060593,26.557311 10.825459,18.254601 C 13.644859,9.9518908 15.951849,3.0886313 15.952109,3.0029213 C 15.953039,2.6893413 16.468929,1.8138013 16.805149,1.5551713 C 17.567339,0.9688813 16.702229,0.9979113 32.562659,1.0262913 C 46.54195,1.0513013 47.1483,1.0599413 47.50555,1.2390313 C 48.26276,1.6186313 48.87374,2.5351513 48.87374,3.2914513 C 48.87374,3.4275313 48.58127,4.3981313 48.22382,5.4483513 C 47.66215,7.0985413 47.58787,7.3982513 47.67679,7.6554913 C 47.73338,7.8192113 47.77968,8.0757013 47.77968,8.2254713 C 47.77968,8.4278513 47.87733,8.5660213 48.15997,8.7635508 C 48.58639,9.0615708 48.91675,9.5965808 49.0136,10.145981 C 49.07634,10.501911 49.09416,10.515131 49.59765,10.579561 C 50.29918,10.669331 51.08491,11.063171 51.40388,11.484921 C 51.69576,11.870831 51.95699,12.538121 51.95699,12.897751 C 51.95699,13.027001 49.59206,20.096561 46.70159,28.607891 C 43.811109,37.119221 41.416119,44.237921 41.379369,44.427221 C 41.206329,45.318651 40.341379,46.163921 39.466919,46.296171 C 39.084759,46.353971 35.186569,45.784101 26.816449,44.446851 C 26.312789,44.366381 26.294699,44.371381 26.355849,44.574131 C 26.390859,44.690201 26.945039,45.891031 27.587359,47.242631 C 29.054399,50.329661 29.279369,50.905281 29.349759,51.752121 C 29.398459,52.337871 29.375009,52.489601 29.182409,52.835211 C 28.774309,53.567471 27.963079,53.804241 26.843409,53.517871 z M 27.489899,51.589591 C 27.489899,51.381651 26.657109,49.476311 25.892729,47.935411 C 24.164899,44.452321 23.631949,42.408911 24.014689,40.734671 C 24.069949,40.492931 24.102429,40.284131 24.086849,40.270681 C 24.015359,40.208941 12.054179,39.104151 12.004089,39.154671 C 11.877399,39.282431 11.762689,41.246021 11.820479,42.297481 C 11.917329,44.059611 12.223879,45.588361 12.882469,47.593701 C 13.264559,48.757121 14.406469,51.254811 14.556289,51.254811 C 14.596679,51.254811 14.886059,50.866371 15.199349,50.391611 C 16.327799,48.681521 16.955029,48.196561 18.008919,48.219301 C 19.234079,48.245741 20.597209,48.714511 23.561239,50.128711 C 25.383059,50.997951 27.140829,51.748731 27.365569,51.753631 C 27.433949,51.755121 27.489899,51.681301 27.489899,51.589591 z M 39.549389,44.313971 C 39.645119,44.202321 39.723439,44.030131 39.723439,43.931341 C 39.723439,43.832541 42.073179,36.834281 44.945079,28.379641 C 47.81698,19.925001 50.16672,12.925361 50.16672,12.824871 C 50.16672,12.546351 49.78702,12.360021 49.07266,12.288001 L 48.42617,12.222821 L 43.552639,26.577761 C 40.872199,34.472981 38.611979,41.191401 38.529929,41.507581 C 38.305669,42.371711 38.009529,42.776801 37.372139,43.091291 L 36.821409,43.363031 L 31.583759,42.740071 C 28.703049,42.397451 26.200649,42.091771 26.022869,42.060791 C 25.741379,42.011741 25.699619,42.032231 25.699619,42.219381 C 25.699619,42.337591 25.767909,42.460731 25.851369,42.493031 C 26.165889,42.614751 38.986299,44.605691 39.176419,44.562331 C 39.285819,44.537391 39.453659,44.425621 39.549389,44.313971 z M 36.984889,42.285451 C 37.314269,42.146661 37.634789,41.698701 37.634789,41.377141 C 37.634789,41.290191 39.984529,34.302531 42.856429,25.849011 C 45.72833,17.395491 48.07806,10.361901 48.07806,10.218801 C 48.07806,10.075661 47.9582,9.8281808 47.81161,9.6686708 L 47.54517,9.3787308 L 47.4244,9.6791008 C 47.12772,10.416961 37.236949,39.636421 37.236949,39.775011 C 37.236949,40.040201 36.964229,40.478721 36.597189,40.803721 C 35.929709,41.394751 35.961609,41.394271 30.762079,40.892191 C 28.169189,40.641821 26.019939,40.467431 25.985979,40.504671 C 25.844709,40.659551 25.796829,41.124121 25.921509,41.130141 C 25.990929,41.133491 28.352709,41.421331 31.169909,41.769781 C 33.987099,42.118241 36.371849,42.408891 36.469329,42.415671 C 36.566819,42.422461 36.798819,42.363861 36.984889,42.285451 z M 35.790219,40.266921 C 35.968349,40.181671 36.159949,40.012411 36.215999,39.890781 C 36.326999,39.649901 37.336409,36.481301 37.336409,36.373751 C 37.336409,36.337441 37.246919,36.364091 37.137549,36.432971 C 36.951459,36.550181 36.828159,36.854791 36.549919,37.884711 C 36.318409,38.741641 35.552559,39.318571 34.646529,39.318571 C 34.366199,39.318571 28.783579,38.912331 22.240719,38.415831 C 15.697849,37.919321 10.218929,37.513081 10.065329,37.513081 C 9.8420193,37.513081 9.7860693,37.558311 9.7860793,37.738771 L 9.7860893,37.964451 L 22.342869,39.180881 C 29.249099,39.849911 35.027149,40.402841 35.182999,40.409611 C 35.338839,40.416381 35.612089,40.352171 35.790219,40.266921 z M 8.0455193,38.340611 C 8.0455193,36.967891 8.0789993,36.563611 8.2285293,36.130961 C 8.4422793,35.512521 8.8793793,35.109721 9.5122493,34.948001 C 9.8130993,34.871121 13.721749,34.866631 23.047209,34.932461 L 36.159169,35.025021 L 36.399679,34.797151 C 36.531959,34.671821 36.640189,34.483311 36.640189,34.378241 C 36.640189,34.273171 38.992289,27.256461 41.867079,18.785561 C 44.741869,10.314651 47.08042,3.2881513 47.06385,3.1711113 C 46.99667,2.6964813 47.19292,2.7022713 32.142789,2.7307913 L 18.023619,2.7575413 L 17.833499,2.9943413 C 17.728939,3.1245813 17.643379,3.3081213 17.643379,3.4022113 C 17.643379,3.4963013 15.300909,10.476261 12.437889,18.913231 C 9.5748693,27.350211 7.1783393,34.473151 7.1122693,34.742001 C 6.9622293,35.352571 6.9585593,36.770111 7.1029093,38.354041 C 7.2025693,39.447671 7.2384293,39.591921 7.4610793,39.795011 C 7.5971593,39.919141 7.7843293,40.020711 7.8770093,40.020711 C 8.0286793,40.020731 8.0455193,39.852791 8.0455193,38.340611 z M 10.120409,39.067811 C 10.159349,38.965471 10.115039,38.917351 9.9818593,38.917351 C 9.8741293,38.917351 9.7860693,38.985021 9.7860693,39.067811 C 9.7860693,39.150561 9.8484093,39.218261 9.9246093,39.218261 C 10.000819,39.218261 10.088919,39.150561 10.120409,39.067811 z M 35.331839,38.162721 C 35.662169,37.882401 35.949379,36.938301 35.743379,36.809911 C 35.641409,36.746351 11.281549,36.573291 11.219679,36.635691 C 11.176869,36.678861 33.569669,38.388991 34.369849,38.403661 C 34.944249,38.414191 35.073709,38.381761 35.331839,38.162721 z "
     id="pages" />
<path
    stroke="&stroke_color;"
	style="fill:none;fill-rule:evenodd;stroke-width:1px;stroke-linecap:butt;stroke-linejoin:miter;stroke-opacity:1"
     d="M 6.1016949,34.322034 C 17.288136,1.779661 17.627119,1.779661 17.627119,1.779661 L 47.288136,1.9491525 L 47.79661,3.6440678 L 46.610169,8.220339 L 48.474576,9.9152542 L 48.813559,11.440678 L 51.186441,12.627119 L 40.169492,45.169492 L 25.254237,43.474576 L 28.644068,52.627119 L 17.79661,49.237288 L 14.067797,52.457627 L 10.169492,40.932203 L 6.1016949,39.576271 L 6.1016949,34.322034 z "
     id="border" />
</svg>