<?xml version="1.0" encoding="UTF-8" standalone="no"?>
<!-- Created with Inkscape (http://www.inkscape.org/) -->

<svg
   xmlns:dc="http://purl.org/dc/elements/1.1/"
   xmlns:cc="http://creativecommons.org/ns#"
   xmlns:rdf="http://www.w3.org/1999/02/22-rdf-syntax-ns#"
   xmlns:svg="http://www.w3.org/2000/svg"
   xmlns="http://www.w3.org/2000/svg"
   xmlns:sodipodi="http://sodipodi.sourceforge.net/DTD/sodipodi-0.dtd"
   xmlns:inkscape="http://www.inkscape.org/namespaces/inkscape"
   width="280"
   height="264"
   id="svg2"
   version="1.1"
   inkscape:version="0.47 r22583"
   sodipodi:docname="SuperVampireNinjaZero.svg">
  <defs
     id="defs4">
    <inkscape:perspective
       sodipodi:type="inkscape:persp3d"
       inkscape:vp_x="0 : 526.18109 : 1"
       inkscape:vp_y="0 : 1000 : 0"
       inkscape:vp_z="744.09448 : 526.18109 : 1"
       inkscape:persp3d-origin="372.04724 : 350.78739 : 1"
       id="perspective10" />
    <inkscape:perspective
       id="perspective2824"
       inkscape:persp3d-origin="0.5 : 0.33333333 : 1"
       inkscape:vp_z="1 : 0.5 : 1"
       inkscape:vp_y="0 : 1000 : 0"
       inkscape:vp_x="0 : 0.5 : 1"
       sodipodi:type="inkscape:persp3d" />
  </defs>
  <sodipodi:namedview
     id="base"
     pagecolor="#000000"
     bordercolor="#666666"
     borderopacity="1.0"
     inkscape:pageopacity="0"
     inkscape:pageshadow="2"
     inkscape:zoom="1.4"
     inkscape:cx="-23.909845"
     inkscape:cy="130.94033"
     inkscape:document-units="px"
     inkscape:current-layer="layer1"
     showgrid="false"
     inkscape:window-width="1290"
     inkscape:window-height="850"
     inkscape:window-x="-8"
     inkscape:window-y="-8"
     inkscape:window-maximized="1" />
  <metadata
     id="metadata7">
    <rdf:RDF>
      <cc:Work
         rdf:about="">
        <dc:format>image/svg+xml</dc:format>
        <dc:type
           rdf:resource="http://purl.org/dc/dcmitype/StillImage" />
        <dc:title />
      </cc:Work>
    </rdf:RDF>
  </metadata>
  <g
     inkscape:label="Layer 1"
     inkscape:groupmode="layer"
     id="layer1"
     transform="translate(0,-788.36218)">
    <path
       style="fill:#ffffff"
       d="m 92.569645,788.59144 c -29.79603,1.21886 -57.784286,21.20792 -68.007956,49.31693 -6.272502,14.41172 -12.816431,29.1007 -17.7984588,43.89239 0.6770394,6.72273 10.1115278,8.38602 14.1634118,4.28267 0.474319,5.80071 3.237686,11.12705 6.974639,15.53998 -8.740365,4.53551 -10.336986,17.2098 -3.701453,24.31947 5.225094,7.33028 13.683335,11.99556 22.514624,13.64337 -6.533912,6.72976 -7.09801,16.50135 -6.471478,25.39006 -0.08333,17.97089 1.605261,38.69769 15.556862,51.54509 5.149239,4.1098 12.357387,3.6602 17.834275,6.5464 8.141133,9.2716 22.393426,6.2928 31.485389,0.1599 9.65604,-5.853 16.25157,-16.5804 16.3276,-27.84434 10.14601,6.54944 18.12729,16.80024 25.176,26.76664 5.66871,7.1976 8.9178,16.3255 15.17289,22.8817 14.06452,10.1915 32.96736,7.2057 49.0978,4.8945 11.78931,-2.4932 25.1514,-9.6204 27.28674,-22.6064 0.18305,-9.7361 -9.17092,-15.5585 -14.25518,-22.6063 -0.8522,-1.5485 -7.38995,-6.7946 -2.99787,-5.35335 12.58448,2.55165 25.23325,-4.8329 31.1189,-15.81613 8.45363,-11.74411 19.95779,-23.23689 21.22148,-38.32911 -0.55286,-12.66651 -14.11233,-19.33103 -25.32896,-20.03679 -4.58645,-0.41384 -9.01813,2.1042 -13.30688,-0.48945 -8.52658,-3.04333 -17.41804,-8.1311 -25.08422,-11.28791 8.64268,-3.30643 16.923,-9.57679 18.90494,-19.08848 5.429,-12.30957 3.65251,-29.3175 -8.65712,-36.76981 -9.09082,-6.0292 -20.16047,-1.8696 -29.88694,-0.42827 -2.9443,0.0899 -6.91551,1.59213 -7.37231,-2.35547 -3.47523,-5.25024 -10.14919,-7.63862 -12.72566,-13.70456 -4.7454,-6.59276 -3.56695,-15.11262 -6.60755,-22.17812 -7.67749,-13.93429 -24.08839,-19.09869 -37.81572,-25.01105 -10.48444,-3.70485 -21.66655,-5.57752 -32.817795,-5.27356 z"
       id="path3123" />
    <g
       id="g3106"
       transform="matrix(0.52705675,0,0,0.52705675,-22.523269,726.06714)">
      <path
         style="fill:#f5fe00"
         d="m 349.38777,576.32739 c -5.73665,-12.59056 -24.01451,-38.36353 -40.61748,-57.27326 -32.3268,-36.81819 -57.93193,-38.17442 -58.05971,-3.07525 -0.0809,22.24306 -49.92501,53.6269 -56.03913,35.28453 -1.80212,-5.40639 -11.69057,-9.82981 -21.9743,-9.82981 -22.6529,0 -37.48286,-34.66172 -37.48286,-87.60781 0,-25.0703 4.96516,-40.10441 14.44643,-43.74272 22.04703,-8.46024 17.20817,-22.74471 -7.70476,-22.74471 -22.57373,0 -45.265478,-16.0128 -45.265478,-31.94232 0,-4.85542 8.662068,-6.56285 19.249038,-3.79429 19.24476,5.03261 19.24476,5.02828 0,-19.43746 -10.58697,-13.45915 -19.249038,-30.02645 -19.249038,-36.81621 0,-6.78978 -3.84446,-13.78968 -8.54325,-15.55536 -14.73217,-5.53594 34.389308,-101.89492 60.747768,-119.16565 64.41287,-42.20494 179.89824,-13.19307 186.85615,46.94142 1.70628,14.74673 9.65405,29.32637 17.66168,32.39919 8.00765,3.07283 10.52934,8.23427 5.60378,11.46988 -4.92557,3.23563 -11.84937,18.88473 -15.38626,34.7758 -5.59372,25.13242 -4.97512,26.3859 4.75295,9.63095 6.151,-10.59404 11.62795,-19.93998 12.171,-20.76873 0.54309,-0.82875 20.95653,-4.47877 45.36327,-8.11113 35.88362,-5.34044 45.50812,-3.65375 50.29232,8.81367 8.30751,21.64903 -9.55325,64.04881 -24.55531,58.29198 -6.80174,-2.61007 -17.81203,3.9736 -24.4673,14.63038 -9.71729,15.55985 -9.71339,19.38766 0.0202,19.43531 6.66617,0.0328 25.12209,7.1855 41.01316,15.89526 15.89107,8.70976 41.83213,16.26744 57.64681,16.79483 40.34569,1.34548 40.7571,23.52749 1.27607,68.80296 -26.75236,30.67819 -35.62982,35.75222 -45.5907,26.05773 -6.80324,-6.62128 -20.03456,-12.03869 -29.40296,-12.03869 -21.9472,0 -14.09759,24.03784 19.88991,60.90885 24.50011,26.57871 24.64593,27.51442 6.37837,40.93155 -10.28221,7.55207 -36.6736,13.73103 -58.64754,13.73103 -32.71833,0 -41.84123,-4.14508 -50.38286,-22.89192 z"
         id="path2856" />
      <path
         style="fill:#939393"
         d="m 349.38777,576.32739 c -5.73665,-12.59056 -24.01451,-38.36353 -40.61748,-57.27326 -32.3268,-36.81819 -57.93193,-38.17442 -58.05971,-3.07525 -0.0809,22.24306 -49.92501,53.6269 -56.03913,35.28453 -1.80212,-5.40639 -11.69057,-9.82981 -21.9743,-9.82981 -22.6529,0 -37.48286,-34.66172 -37.48286,-87.60781 0,-25.0703 4.96516,-40.10441 14.44643,-43.74272 22.04703,-8.46024 17.20817,-22.74471 -7.70476,-22.74471 -22.57373,0 -45.265478,-16.0128 -45.265478,-31.94232 0,-4.85542 8.662068,-6.56285 19.249038,-3.79429 19.24476,5.03261 19.24476,5.02828 0,-19.43746 -10.58697,-13.45915 -19.249038,-30.02645 -19.249038,-36.81621 0,-6.78978 -3.84446,-13.78968 -8.54325,-15.55536 -14.73217,-5.53594 34.389308,-101.89492 60.747768,-119.16565 64.41287,-42.20494 179.89824,-13.19307 186.85615,46.94142 1.70628,14.74673 9.65405,29.32637 17.66168,32.39919 8.00765,3.07283 10.52934,8.23427 5.60378,11.46988 -4.92557,3.23563 -11.84937,18.88473 -15.38626,34.7758 -5.59372,25.13242 -4.97512,26.3859 4.75295,9.63095 6.151,-10.59404 11.62795,-19.93998 12.171,-20.76873 0.54309,-0.82875 20.95653,-4.47877 45.36327,-8.11113 35.88362,-5.34044 45.50812,-3.65375 50.29232,8.81367 8.30751,21.64903 -9.55325,64.04881 -24.55531,58.29198 -6.80174,-2.61007 -17.81203,3.9736 -24.4673,14.63038 -9.71729,15.55985 -9.71339,19.38766 0.0202,19.43531 6.66617,0.0328 25.12209,7.1855 41.01316,15.89526 15.89107,8.70976 41.83213,16.26744 57.64681,16.79483 40.34569,1.34548 40.7571,23.52749 1.27607,68.80296 -26.75236,30.67819 -35.62982,35.75222 -45.5907,26.05773 -6.80324,-6.62128 -20.03456,-12.03869 -29.40296,-12.03869 -21.9472,0 -14.09759,24.03784 19.88991,60.90885 24.50011,26.57871 24.64593,27.51442 6.37837,40.93155 -10.28221,7.55207 -36.6736,13.73103 -58.64754,13.73103 -32.71833,0 -41.84123,-4.14508 -50.38286,-22.89192 z"
         id="path2854" />
      <path
         style="fill:#00ccea"
         d="m 348.58533,574.56622 c -5.2953,-11.62191 -23.21207,-36.60236 -39.81504,-55.51209 -32.3268,-36.81819 -57.93193,-38.17442 -58.05971,-3.07525 -0.0809,22.24306 -49.92501,53.6269 -56.03913,35.28453 -1.80212,-5.40639 -11.69057,-9.82981 -21.9743,-9.82981 -22.6529,0 -37.48286,-34.66172 -37.48286,-87.60781 0,-25.0703 4.96516,-40.10441 14.44643,-43.74272 22.04703,-8.46024 17.20817,-22.74471 -7.70476,-22.74471 -22.57373,0 -45.265478,-16.0128 -45.265478,-31.94232 0,-4.85542 8.662068,-6.56285 19.249038,-3.79429 19.24476,5.03261 19.24476,5.02828 0,-19.43746 -10.58697,-13.45915 -19.249038,-30.02645 -19.249038,-36.81621 0,-6.78978 -3.84446,-13.78968 -8.54325,-15.55536 -14.73217,-5.53594 34.389308,-101.89492 60.747768,-119.16565 64.41287,-42.20494 179.89824,-13.19307 186.85615,46.94142 1.70628,14.74673 9.65405,29.32637 17.66168,32.39919 8.00765,3.07283 10.52934,8.23427 5.60378,11.46988 -4.92557,3.23563 -11.84937,18.88473 -15.38626,34.7758 -5.59372,25.13242 -4.97512,26.3859 4.75295,9.63095 6.151,-10.59404 11.62795,-19.93998 12.171,-20.76873 0.54309,-0.82875 20.95653,-4.47877 45.36327,-8.11113 35.88362,-5.34044 45.50812,-3.65375 50.29232,8.81367 8.30751,21.64903 -9.55325,64.04881 -24.55531,58.29198 -6.80174,-2.61007 -17.81203,3.9736 -24.4673,14.63038 -9.71729,15.55985 -9.71339,19.38766 0.0202,19.43531 6.66617,0.0328 25.12209,7.1855 41.01316,15.89526 15.89107,8.70976 41.83213,16.26744 57.64681,16.79483 40.34569,1.34548 40.7571,23.52749 1.27607,68.80296 -26.75236,30.67819 -35.62982,35.75222 -45.5907,26.05773 -6.80324,-6.62128 -20.03456,-12.03869 -29.40296,-12.03869 -21.9472,0 -14.09759,24.03784 19.88991,60.90885 24.72948,26.82754 24.81085,27.39327 5.9333,41.25699 -29.73921,21.84057 -97.4857,14.87472 -109.38777,-11.2475 z m 46.66468,-23.50167 c 0,-5.29703 -4.07815,-9.63095 -9.06257,-9.63095 -4.98441,0 -11.74107,4.33392 -15.01482,9.63095 -3.27374,5.29702 0.80438,9.63095 9.06257,9.63095 8.25814,0 15.01482,-4.33393 15.01482,-9.63095 z m 77.04761,-101.58702 c 0,-11.37788 -18.20962,-11.35623 -22.57772,0.027 -3.55816,9.27242 -0.68756,12.11756 8.62178,8.54524 7.67576,-2.94559 13.95594,-6.80303 13.95594,-8.57221 z M 164.10715,425.86217 c 0,-5.29703 -4.33393,-9.63095 -9.63095,-9.63095 -5.29703,0 -9.63095,4.33392 -9.63095,9.63095 0,5.29702 4.33392,9.63095 9.63095,9.63095 5.29702,0 9.63095,-4.33393 9.63095,-9.63095 z"
         id="path2852" />
      <path
         style="fill:#4d67bb"
         d="m 348.58533,574.56622 c -5.2953,-11.62191 -23.21207,-36.60236 -39.81504,-55.51209 -32.3268,-36.81819 -57.93193,-38.17442 -58.05971,-3.07525 -0.0809,22.24306 -49.92501,53.6269 -56.03913,35.28453 -1.80212,-5.40639 -11.69057,-9.82981 -21.9743,-9.82981 -22.6529,0 -37.48286,-34.66172 -37.48286,-87.60781 0,-25.0703 4.96516,-40.10441 14.44643,-43.74272 22.04703,-8.46024 17.20817,-22.74471 -7.70476,-22.74471 -22.57373,0 -45.265478,-16.0128 -45.265478,-31.94232 0,-4.85542 8.662068,-6.56285 19.249038,-3.79429 19.24476,5.03261 19.24476,5.02828 0,-19.43746 -25.324638,-32.19506 -25.312418,-54.59856 0.0262,-47.97237 11.31571,2.95912 16.84734,1.11222 13.39574,-4.47258 -3.23369,-5.23222 -16.18719,-6.92607 -28.78554,-3.76408 l -22.906088,5.74906 21.87969,-49.92321 c 26.513428,-60.49607 58.274748,-85.98027 114.019968,-91.48571 56.36169,-5.56633 117.65884,28.1838 122.1817,67.27309 1.70628,14.74673 9.65405,29.32637 17.66168,32.39919 8.00765,3.07283 10.52934,8.23427 5.60378,11.46988 -4.92557,3.23563 -11.84937,18.88473 -15.38626,34.7758 -5.59372,25.13242 -4.97512,26.3859 4.75295,9.63095 6.151,-10.59404 11.62795,-19.93998 12.171,-20.76873 0.54309,-0.82875 20.95653,-4.47877 45.36327,-8.11113 35.88362,-5.34044 45.50812,-3.65375 50.29232,8.81367 8.30751,21.64903 -9.55325,64.04881 -24.55531,58.29198 -6.80174,-2.61007 -17.81203,3.9736 -24.4673,14.63038 -9.71729,15.55985 -9.71339,19.38766 0.0202,19.43531 6.66617,0.0328 25.12209,7.1855 41.01316,15.89526 15.89107,8.70976 41.83213,16.26744 57.64681,16.79483 40.34569,1.34548 40.7571,23.52749 1.27607,68.80296 -26.75236,30.67819 -35.62982,35.75222 -45.5907,26.05773 -6.80324,-6.62128 -20.03456,-12.03869 -29.40296,-12.03869 -21.9472,0 -14.09759,24.03784 19.88991,60.90885 24.72948,26.82754 24.81085,27.39327 5.9333,41.25699 -29.73921,21.84057 -97.4857,14.87472 -109.38777,-11.2475 z m 46.66468,-23.50167 c 0,-5.29703 -4.07815,-9.63095 -9.06257,-9.63095 -4.98441,0 -11.74107,4.33392 -15.01482,9.63095 -3.27374,5.29702 0.80438,9.63095 9.06257,9.63095 8.25814,0 15.01482,-4.33393 15.01482,-9.63095 z M 203.82605,529.23439 c -9.51169,-9.44091 -10.61794,-8.33466 -5.39136,5.39136 3.61672,9.49824 9.00197,14.84342 11.96722,11.87817 2.96524,-2.96525 0.006,-10.73653 -6.57586,-17.26953 z m 27.41885,-17.06984 c -22.67076,-14.33743 -34.16274,-10.62015 -13.61568,4.40423 10.27389,7.51244 20.72806,11.61073 23.23149,9.10729 2.50344,-2.50344 -1.82368,-8.58362 -9.61581,-13.51152 z m 2.08472,-35.09571 c -6.95234,-2.7821 -15.25904,-2.43994 -18.45933,0.76037 -3.20028,3.20029 2.488,5.47655 12.64063,5.05837 11.21951,-0.4621 13.50163,-2.74426 5.8187,-5.81871 z m 238.968,-27.59131 c 0,-11.37788 -18.20962,-11.35623 -22.57772,0.027 -3.55816,9.27242 -0.68756,12.11756 8.62178,8.54524 7.67576,-2.94559 13.95594,-6.80303 13.95594,-8.57221 z M 164.10715,425.86217 c 0,-5.29703 -4.33393,-9.63095 -9.63095,-9.63095 -5.29703,0 -9.63095,4.33392 -9.63095,9.63095 0,5.29702 4.33392,9.63095 9.63095,9.63095 5.29702,0 9.63095,-4.33393 9.63095,-9.63095 z m 125.20238,-22.95411 c 0,-2.03071 -8.66786,-5.95891 -19.2619,-8.72931 -10.59405,-2.7704 -19.26191,-1.10891 -19.26191,3.69221 0,4.80112 8.66786,8.7293 19.26191,8.7293 10.59404,0 19.2619,-1.66149 19.2619,-3.6922 z m 71.09142,-69.04015 c 3.28894,-8.57083 1.67434,-12.43666 -3.78507,-9.06256 -5.23635,3.23624 -9.52064,9.96223 -9.52064,14.94664 0,13.85347 6.90314,10.80075 13.30571,-5.88408 z m 21.18084,-50.08665 c -10.49155,-10.49155 -14.47362,3.22709 -7.81693,26.93006 l 6.64372,23.6568 3.38344,-22.49659 c 1.8609,-12.37313 0.86631,-25.01375 -2.21023,-28.09027 z m -159.68893,22.72441 c 0,-2.08179 -6.72598,-6.36608 -14.94664,-9.52064 -8.57082,-3.28893 -12.43666,-1.67433 -9.06256,3.78507 5.65585,9.15137 24.0092,13.5358 24.0092,5.73557 z m 188.8068,-32.13036 c -3.20029,-3.20028 -5.47655,2.488 -5.05837,12.64063 0.4621,11.21951 2.74426,13.50163 5.81871,5.8187 2.7821,-6.95234 2.43994,-15.25904 -0.76037,-18.45933 z m -136.92569,5.26031 c -2.78152,-4.50058 -9.09177,-5.68945 -14.02278,-2.64192 -12.60096,7.78783 -11.18209,10.82482 5.0573,10.82482 7.71254,0 11.74699,-3.68231 8.96548,-8.1829 z m -40.44435,-33.70963 c -6.95234,-2.7821 -15.25904,-2.43994 -18.45933,0.76036 -3.20028,3.20029 2.488,5.47656 12.64063,5.05837 11.21951,-0.46209 13.50163,-2.74425 5.8187,-5.8187 z"
         id="path2850" />
      <path
         style="fill:#fe2828"
         d="m 348.58533,574.56622 c -5.2953,-11.62191 -23.21207,-36.60236 -39.81504,-55.51209 -32.3268,-36.81819 -57.93193,-38.17442 -58.05971,-3.07525 -0.0809,22.24306 -49.92501,53.6269 -56.03913,35.28453 -1.80212,-5.40639 -11.69057,-9.82981 -21.9743,-9.82981 -22.6529,0 -37.48286,-34.66172 -37.48286,-87.60781 0,-25.0703 4.96516,-40.10441 14.44643,-43.74272 22.04703,-8.46024 17.20817,-22.74471 -7.70476,-22.74471 -22.57373,0 -45.265478,-16.0128 -45.265478,-31.94232 0,-4.85542 8.662068,-6.56285 19.249038,-3.79429 19.24476,5.03261 19.24476,5.02828 0,-19.43746 -25.324638,-32.19506 -25.312418,-54.59856 0.0262,-47.97237 11.31571,2.95912 16.84734,1.11222 13.39574,-4.47258 -3.23369,-5.23222 -16.18719,-6.92607 -28.78554,-3.76408 l -22.906088,5.74906 21.87969,-49.92321 c 26.513428,-60.49607 58.274748,-85.98027 114.019968,-91.48571 56.36169,-5.56633 117.65884,28.1838 122.1817,67.27309 1.70628,14.74673 9.65405,29.32637 17.66168,32.39919 8.00765,3.07283 10.52934,8.23427 5.60378,11.46988 -4.92557,3.23563 -11.84937,18.88473 -15.38626,34.7758 -5.59372,25.13242 -4.97512,26.3859 4.75295,9.63095 6.151,-10.59404 11.62795,-19.93998 12.171,-20.76873 0.54309,-0.82875 20.95653,-4.47877 45.36327,-8.11113 35.88362,-5.34044 45.50812,-3.65375 50.29232,8.81367 8.30751,21.64903 -9.55325,64.04881 -24.55531,58.29198 -6.80174,-2.61007 -17.81203,3.9736 -24.4673,14.63038 -9.71729,15.55985 -9.71339,19.38766 0.0202,19.43531 6.66617,0.0328 25.12209,7.1855 41.01316,15.89526 15.89107,8.70976 41.83213,16.26744 57.64681,16.79483 40.34569,1.34548 40.7571,23.52749 1.27607,68.80296 -26.75236,30.67819 -35.62982,35.75222 -45.5907,26.05773 -6.80324,-6.62128 -20.03456,-12.03869 -29.40296,-12.03869 -21.9472,0 -14.09759,24.03784 19.88991,60.90885 24.72948,26.82754 24.81085,27.39327 5.9333,41.25699 -29.73921,21.84057 -97.4857,14.87472 -109.38777,-11.2475 z m 93.43993,-3.18338 c 7.1868,-4.55378 9.30596,-10.60399 4.70925,-13.44491 -4.5967,-2.84093 -16.72256,0.95125 -26.94636,8.42708 -20.78719,15.19997 -0.9108,19.68509 22.23711,5.01783 z m -46.77525,-20.31829 c 0,-5.29703 -4.07815,-9.63095 -9.06257,-9.63095 -4.98441,0 -11.74107,4.33392 -15.01482,9.63095 -3.27374,5.29702 0.80438,9.63095 9.06257,9.63095 8.25814,0 15.01482,-4.33393 15.01482,-9.63095 z M 203.82605,529.23439 c -9.51169,-9.44091 -10.61794,-8.33466 -5.39136,5.39136 3.61672,9.49824 9.00197,14.84342 11.96722,11.87817 2.96524,-2.96525 0.006,-10.73653 -6.57586,-17.26953 z m 27.41885,-17.06984 c -22.67076,-14.33743 -34.16274,-10.62015 -13.61568,4.40423 10.27389,7.51244 20.72806,11.61073 23.23149,9.10729 2.50344,-2.50344 -1.82368,-8.58362 -9.61581,-13.51152 z m 173.63606,-21.775 c 0,-20.23584 -21.27041,-35.7066 -47.67322,-34.67451 l -24.55892,0.96001 24.07738,7.81349 24.07738,7.81349 -21.56133,6.76787 c -28.80461,9.04147 -18.05694,23.83989 17.31424,23.83989 16.81996,0 28.32447,-5.08533 28.32447,-12.52024 z M 233.32962,477.06884 c -6.95234,-2.7821 -15.25904,-2.43994 -18.45933,0.76037 -3.20028,3.20029 2.488,5.47655 12.64063,5.05837 11.21951,-0.4621 13.50163,-2.74426 5.8187,-5.81871 z m 238.968,-27.59131 c 0,-11.37788 -18.20962,-11.35623 -22.57772,0.027 -3.55816,9.27242 -0.68756,12.11756 8.62178,8.54524 7.67576,-2.94559 13.95594,-6.80303 13.95594,-8.57221 z m 40.34981,-30.83858 c -5.62643,-7.41893 -16.1655,5.0395 -18.3312,21.66965 -2.50842,19.2619 -2.50842,19.2619 8.82439,0 6.23305,-10.59405 10.51112,-20.34539 9.50681,-21.66965 z m -242.5998,19.61614 c -7.94554,-2.94158 -20.94733,-10.1838 -28.89286,-16.09384 -12.55352,-9.33753 -12.7145,-8.53712 -1.22848,6.10866 7.26987,9.26979 20.27165,16.51201 28.89286,16.09383 13.11205,-0.63603 13.3129,-1.6348 1.22848,-6.10865 z M 164.10715,425.86217 c 0,-5.29703 -4.33393,-9.63095 -9.63095,-9.63095 -5.29703,0 -9.63095,4.33392 -9.63095,9.63095 0,5.29702 4.33392,9.63095 9.63095,9.63095 5.29702,0 9.63095,-4.33393 9.63095,-9.63095 z m 260.07192,-4.83785 c 12.62562,-7.80307 12.27873,-30.89038 -0.58354,-38.83973 -16.12969,-9.96869 -54.50255,3.39478 -61.40597,21.38482 -5.55166,14.4674 -3.97638,14.3015 13.38412,-1.40953 21.4424,-19.40511 25.15054,-14.15285 9.99757,14.16071 -8.14709,15.22298 -6.61723,17.49538 9.66717,14.3593 10.64027,-2.04913 23.66358,-6.39414 28.94068,-9.65557 z M 289.30953,402.90806 c 0,-2.03071 -8.66786,-5.95891 -19.2619,-8.72931 -10.59405,-2.7704 -19.26191,-1.10891 -19.26191,3.69221 0,4.80112 8.66786,8.7293 19.26191,8.7293 10.59404,0 19.2619,-1.66149 19.2619,-3.6922 z m 71.09142,-69.04015 c 3.28894,-8.57083 1.67434,-12.43666 -3.78507,-9.06256 -5.23635,3.23624 -9.52064,9.96223 -9.52064,14.94664 0,13.85347 6.90314,10.80075 13.30571,-5.88408 z m 21.18084,-50.08665 c -10.49155,-10.49155 -14.47362,3.22709 -7.81693,26.93006 l 6.64372,23.6568 3.38344,-22.49659 c 1.8609,-12.37313 0.86631,-25.01375 -2.21023,-28.09027 z m -159.68893,22.72441 c 0,-2.08179 -6.72598,-6.36608 -14.94664,-9.52064 -8.57082,-3.28893 -12.43666,-1.67433 -9.06256,3.78507 5.65585,9.15137 24.0092,13.5358 24.0092,5.73557 z m 188.8068,-32.13036 c -3.20029,-3.20028 -5.47655,2.488 -5.05837,12.64063 0.4621,11.21951 2.74426,13.50163 5.81871,5.8187 2.7821,-6.95234 2.43994,-15.25904 -0.76037,-18.45933 z m -136.92569,5.26031 c -2.78152,-4.50058 -9.09177,-5.68945 -14.02278,-2.64192 -12.60096,7.78783 -11.18209,10.82482 5.0573,10.82482 7.71254,0 11.74699,-3.68231 8.96548,-8.1829 z M 151.22364,250.09729 c -2.67174,-6.62128 -4.85772,-1.20387 -4.85772,12.03869 0,13.24256 2.18598,18.65997 4.85772,12.03869 2.67174,-6.62128 2.67174,-17.4561 0,-24.07738 z m 82.10598,-4.1713 c -6.95234,-2.7821 -15.25904,-2.43994 -18.45933,0.76036 -3.20028,3.20029 2.488,5.47656 12.64063,5.05837 11.21951,-0.46209 13.50163,-2.74425 5.8187,-5.8187 z m -23.20906,-50.77382 c 19.71733,-5.47601 48.85147,-10.11235 64.74254,-10.30296 24.46601,-0.29348 26.28644,-1.86413 11.88149,-10.25121 -21.76383,-12.67167 -99.78534,-1.35494 -118.29913,17.15885 -7.68309,7.6831 -13.83747,21.24408 -13.6764,30.13551 0.27061,14.93777 1.02271,14.91431 9.89734,-0.30879 5.28246,-9.06126 25.73683,-20.9554 45.45416,-26.4314 z m -51.73902,-5.24833 c 14.28896,-13.24256 36.33568,-24.07738 48.99271,-24.07738 12.65704,0 25.6913,-4.33393 28.96504,-9.63096 9.047,-14.63835 -31.05113,-11.49969 -62.79396,4.91516 -15.47099,8.00037 -32.74397,23.16912 -38.38439,33.70834 -13.54448,25.30809 -8.16132,24.16862 23.2206,-4.91516 z"
         id="path2848" />
      <path
         style="fill:#128d90"
         d="m 348.58534,574.56622 c -5.2953,-11.62191 -23.21208,-36.60236 -39.81505,-55.51209 -32.3268,-36.81819 -57.93193,-38.17442 -58.05971,-3.07525 -0.0809,22.24306 -49.92501,53.6269 -56.03913,35.28453 -1.80212,-5.40639 -11.69057,-9.82981 -21.9743,-9.82981 -22.6529,0 -37.48286,-34.66172 -37.48286,-87.60781 0,-25.0703 4.96516,-40.10441 14.44643,-43.74272 22.04703,-8.46024 17.20817,-22.74471 -7.70476,-22.74471 -22.57373,0 -45.265478,-16.0128 -45.265478,-31.94232 0,-4.85542 8.662068,-6.56285 19.249038,-3.79429 19.24476,5.03261 19.24476,5.02828 0,-19.43746 -25.324638,-32.19506 -25.312418,-54.59856 0.0262,-47.97237 11.31571,2.95912 16.84734,1.11222 13.39574,-4.47258 -3.23369,-5.23222 -16.18719,-6.92607 -28.78554,-3.76408 l -22.906088,5.74906 21.87969,-49.92321 c 26.513428,-60.49607 58.274748,-85.98027 114.019968,-91.48571 56.36169,-5.56633 117.65884,28.1838 122.1817,67.27309 1.70628,14.74673 9.65405,29.32637 17.66168,32.39919 8.00765,3.07283 10.52934,8.23427 5.60378,11.46988 -4.92557,3.23563 -11.84937,18.88473 -15.38626,34.7758 -5.59372,25.13242 -4.97512,26.3859 4.75295,9.63095 6.151,-10.59404 11.62795,-19.93998 12.171,-20.76873 0.54309,-0.82875 20.95653,-4.47877 45.36327,-8.11113 35.88362,-5.34044 45.50812,-3.65375 50.29232,8.81367 8.30751,21.64903 -9.55325,64.04881 -24.55531,58.29198 -6.80174,-2.61007 -17.81203,3.9736 -24.4673,14.63038 -9.71729,15.55985 -9.71339,19.38766 0.0202,19.43531 6.66617,0.0328 25.12209,7.1855 41.01316,15.89526 15.89107,8.70976 41.83213,16.26744 57.64681,16.79483 40.34569,1.34548 40.7571,23.52749 1.27607,68.80296 -26.75236,30.67819 -35.62982,35.75222 -45.5907,26.05773 -6.80324,-6.62128 -20.03456,-12.03869 -29.40296,-12.03869 -21.9472,0 -14.09759,24.03784 19.88991,60.90885 24.72948,26.82754 24.81085,27.39327 5.9333,41.25699 -29.73921,21.84057 -97.4857,14.87472 -109.38777,-11.2475 z m 93.43992,-3.18338 c 7.1868,-4.55378 9.30596,-10.60399 4.70925,-13.44491 -4.5967,-2.84093 -16.72256,0.95125 -26.94636,8.42708 -20.78719,15.19997 -0.9108,19.68509 22.23711,5.01783 z m -46.77525,-20.31829 c 0,-5.29703 -4.07815,-9.63095 -9.06257,-9.63095 -4.98441,0 -11.74107,4.33392 -15.01482,9.63095 -3.27374,5.29702 0.80438,9.63095 9.06257,9.63095 8.25814,0 15.01482,-4.33393 15.01482,-9.63095 z M 203.82605,529.23439 c -9.51169,-9.44091 -10.61794,-8.33466 -5.39136,5.39136 3.61672,9.49824 9.00197,14.84342 11.96722,11.87817 2.96524,-2.96525 0.006,-10.73653 -6.57586,-17.26953 z m 27.41885,-17.06984 c -22.67076,-14.33743 -34.16274,-10.62015 -13.61568,4.40423 10.27389,7.51244 20.72806,11.61073 23.23149,9.10729 2.50344,-2.50344 -1.82368,-8.58362 -9.61581,-13.51152 z m 173.63606,-21.775 c 0,-20.23584 -21.27041,-35.7066 -47.67322,-34.67451 l -24.55892,0.96001 24.07738,7.81349 24.07738,7.81349 -21.56133,6.76787 c -28.80461,9.04147 -18.05694,23.83989 17.31424,23.83989 16.81996,0 28.32447,-5.08533 28.32447,-12.52024 z M 233.32962,477.06884 c -6.95234,-2.7821 -15.25904,-2.43994 -18.45933,0.76037 -3.20028,3.20029 2.488,5.47655 12.64063,5.05837 11.21951,-0.4621 13.50163,-2.74426 5.8187,-5.81871 l 0,-3e-5 z m 238.968,-27.59131 c 0,-11.37788 -18.20962,-11.35623 -22.57772,0.027 -3.55816,9.27242 -0.68756,12.11756 8.62178,8.54524 7.67576,-2.94559 13.95594,-6.80303 13.95594,-8.57221 l 0,-3e-5 z m 40.34981,-30.83858 c -5.62643,-7.41893 -16.1655,5.0395 -18.3312,21.66965 -2.50842,19.2619 -2.50842,19.2619 8.82439,0 6.23305,-10.59405 10.51112,-20.34539 9.50681,-21.66965 z m -242.5998,19.61614 c -7.94554,-2.94158 -20.94733,-10.1838 -28.89286,-16.09384 -12.55352,-9.33753 -12.7145,-8.53712 -1.22848,6.10866 7.26987,9.26979 20.27165,16.51201 28.89286,16.09383 13.11205,-0.63603 13.3129,-1.6348 1.22848,-6.10865 z M 164.10715,425.86217 c 0,-5.29703 -4.33393,-9.63095 -9.63095,-9.63095 -5.29703,0 -9.63095,4.33392 -9.63095,9.63095 0,5.29702 4.33392,9.63095 9.63095,9.63095 5.29702,0 9.63095,-4.33393 9.63095,-9.63095 z m 260.07192,-4.83785 c 12.62562,-7.80307 12.27873,-30.89038 -0.58354,-38.83973 -16.12969,-9.96869 -54.50255,3.39478 -61.40597,21.38482 -5.55166,14.4674 -3.97638,14.3015 13.38412,-1.40953 21.4424,-19.40511 25.15054,-14.15285 9.99757,14.16071 -8.14709,15.22298 -6.61723,17.49538 9.66717,14.3593 10.64027,-2.04913 23.66358,-6.39414 28.94068,-9.65557 l -3e-5,0 z M 289.30953,402.90806 c 0,-2.03071 -8.66786,-5.95891 -19.2619,-8.72931 -10.59405,-2.7704 -19.26191,-1.10891 -19.26191,3.69221 0,4.80112 8.66786,8.7293 19.26191,8.7293 10.59404,0 19.2619,-1.66149 19.2619,-3.6922 z m 71.09142,-69.04015 c 3.28894,-8.57083 1.67434,-12.43666 -3.78507,-9.06256 -5.23635,3.23624 -9.52064,9.96223 -9.52064,14.94664 0,13.85347 6.90314,10.80075 13.30571,-5.88408 z m 21.18084,-50.08665 c -10.49155,-10.49155 -14.47362,3.22709 -7.81693,26.93006 l 6.64372,23.6568 3.38344,-22.49659 c 1.8609,-12.37313 0.86631,-25.01375 -2.21023,-28.09027 z m -167.72628,18.06723 c -9.64904,-6.11644 -7.45373,-9.5592 8.80702,-13.81149 17.68403,-4.62447 19.52753,-8.23351 10.04313,-19.6615 -14.13392,-9.12429 15.10045,-13.70131 -17.67282,-17.2873 -8.25737,-0.41818 -6.96736,-2.45362 -16.59598,4.587 -14.50747,10.60812 -15.58972,16.38282 -6.31738,33.70833 6.15405,11.49897 16.45412,20.84084 22.88904,20.75973 8.29944,-0.10459 7.96434,-2.51537 -1.15301,-8.29477 z m 196.84415,-27.47318 c -3.20029,-3.20028 -5.47655,2.488 -5.05837,12.64063 0.4621,11.21951 2.74426,13.50163 5.81871,5.8187 2.7821,-6.95234 2.43994,-15.25904 -0.76037,-18.45933 l 3e-5,0 z m -136.92569,5.26031 c -2.78152,-4.50058 -9.09177,-5.68945 -14.02278,-2.64192 -12.60096,7.78783 -11.18209,10.82482 5.0573,10.82482 7.71254,0 11.74699,-3.68231 8.96548,-8.1829 z M 151.22364,250.09729 c -2.67174,-6.62128 -4.85772,-1.20387 -4.85772,12.03869 0,13.24256 2.18598,18.65997 4.85772,12.03869 2.67174,-6.62128 2.67174,-17.4561 0,-24.07738 z m 150.32961,12.71856 c 3.5487,-13.57024 0.15179,-18.22744 -12.59452,-17.26729 -13.69458,1.03158 -15.46344,5.03383 -8.21267,18.58204 11.70132,21.86411 14.79694,21.6685 20.80719,-1.31475 z m -91.43269,-67.66368 c 19.71733,-5.47601 48.85147,-10.11235 64.74254,-10.30296 24.46601,-0.29348 26.28644,-1.86413 11.88149,-10.25121 -21.76383,-12.67167 -99.78534,-1.35494 -118.29913,17.15885 -7.68309,7.6831 -13.83747,21.24408 -13.6764,30.13551 0.27061,14.93777 1.02271,14.91431 9.89734,-0.30879 5.28246,-9.06126 25.73683,-20.9554 45.45416,-26.4314 z m -51.73902,-5.24833 c 14.28896,-13.24256 36.33568,-24.07738 48.99271,-24.07738 12.65704,0 25.6913,-4.33393 28.96504,-9.63096 9.047,-14.63835 -31.05113,-11.49969 -62.79396,4.91516 -15.47099,8.00037 -32.74397,23.16912 -38.38439,33.70834 -13.54448,25.30809 -8.16132,24.16862 23.2206,-4.91516 z"
         id="path2846"
         sodipodi:nodetypes="csssssssssssscccsssssssssssssssssssccssccsssccssccsscccccccsccsscccsscccssccsssccsssccssssscccsssccsscccccccsccsssccsscccssccssccssccsssssccssssc" />
      <path
         style="fill:#4e4e4e"
         d="m 348.58533,574.56622 c -5.2953,-11.62191 -23.21207,-36.60236 -39.81504,-55.51209 -32.3268,-36.81819 -57.93193,-38.17442 -58.05971,-3.07525 -0.0809,22.24306 -49.92501,53.6269 -56.03913,35.28453 -1.80212,-5.40639 -11.69057,-9.82981 -21.9743,-9.82981 -22.6529,0 -37.48286,-34.66172 -37.48286,-87.60781 0,-25.0703 4.96516,-40.10441 14.44643,-43.74272 22.04703,-8.46024 17.20817,-22.74471 -7.70476,-22.74471 -22.57373,0 -45.265478,-16.0128 -45.265478,-31.94232 0,-4.85542 8.662068,-6.56285 19.249038,-3.79429 19.24476,5.03261 19.24476,5.02828 0,-19.43746 -32.002478,-40.68456 -23.648098,-66.44875 11.29321,-34.8273 9.68688,8.76651 17.61252,11.46414 17.61252,5.99473 0,-17.84227 -27.51258,-33.30089 -47.804898,-26.86036 -19.58461,6.21592 -19.55572,5.65545 2.27623,-44.15882 26.739838,-61.01269 58.385658,-86.49965 114.252868,-92.01714 53.73384,-5.3068 117.49189,28.25844 122.16841,64.3152 1.69896,13.09938 10.36682,29.81752 19.2619,37.15142 12.27698,10.12224 12.69286,12.16487 1.72644,8.47948 -10.8994,-3.66285 -14.63056,3.27411 -15.19635,28.25309 -0.608,26.84398 1.02733,29.79508 8.64359,15.59788 5.16642,-9.63054 9.83781,-18.18814 10.38086,-19.01689 0.54309,-0.82875 20.95653,-4.47877 45.36327,-8.11113 35.88362,-5.34044 45.50812,-3.65375 50.29232,8.81367 8.30751,21.64903 -9.55325,64.04881 -24.55531,58.29198 -6.80174,-2.61007 -17.81203,3.9736 -24.4673,14.63038 -9.71729,15.55985 -9.71339,19.38766 0.0202,19.43531 6.66617,0.0328 25.12209,7.1855 41.01316,15.89526 15.89107,8.70976 41.83213,16.26744 57.64681,16.79483 40.34569,1.34548 40.7571,23.52749 1.27607,68.80296 -26.75236,30.67819 -35.62982,35.75222 -45.5907,26.05773 -6.80324,-6.62128 -20.03456,-12.03869 -29.40296,-12.03869 -21.9472,0 -14.09759,24.03784 19.88991,60.90885 24.72948,26.82754 24.81085,27.39327 5.9333,41.25699 -29.73921,21.84057 -97.4857,14.87472 -109.38777,-11.2475 z m 93.43993,-3.18338 c 7.1868,-4.55378 9.30596,-10.60399 4.70925,-13.44491 -4.5967,-2.84093 -16.72256,0.95125 -26.94636,8.42708 -20.78719,15.19997 -0.9108,19.68509 22.23711,5.01783 z m -46.77525,-20.31829 c 0,-5.29703 -4.07815,-9.63095 -9.06257,-9.63095 -4.98441,0 -11.74107,4.33392 -15.01482,9.63095 -3.27374,5.29702 0.80438,9.63095 9.06257,9.63095 8.25814,0 15.01482,-4.33393 15.01482,-9.63095 z m -182.9881,-14.44643 c 0,-7.94554 -6.67176,-14.44643 -14.82615,-14.44643 -12.2496,0 -12.66802,2.44689 -2.40773,14.0801 15.78681,17.89922 17.23388,17.92998 17.23388,0.36633 z m 13.7585,-28.20493 c -10.19902,-7.45772 -20.40109,-11.70209 -22.67124,-9.43193 -2.27015,2.27015 4.21711,10.22932 14.41615,17.68703 10.19902,7.45771 20.40109,11.70208 22.67124,9.43192 2.27015,-2.27015 -4.21711,-10.22931 -14.41615,-17.68702 z m 178.86055,-18.02364 c 0,-20.23584 -21.27041,-35.7066 -47.67322,-34.67451 l -24.55892,0.96001 24.07738,7.81349 24.07738,7.81349 -21.56133,6.76787 c -28.80461,9.04147 -18.05694,23.83989 17.31424,23.83989 16.81996,0 28.32447,-5.08533 28.32447,-12.52024 z M 233.93155,477.26949 c -6.62127,-2.67175 -17.4561,-2.67175 -24.07738,0 -6.62128,2.67175 -1.20387,4.85771 12.03869,4.85771 13.24256,0 18.65997,-2.18596 12.03869,-4.85771 z m 2.66259,-30.28541 c -2.96525,-2.96525 -10.73653,-0.006 -17.26953,6.57586 -9.44091,9.51168 -8.33466,10.61793 5.39136,5.39136 9.49824,-3.61672 14.84342,-9.00198 11.87817,-11.96722 z m 235.70348,2.49345 c 0,-11.37788 -18.20962,-11.35623 -22.57772,0.027 -3.55816,9.27242 -0.68756,12.11756 8.62178,8.54524 7.67576,-2.94559 13.95594,-6.80303 13.95594,-8.57221 z m 40.34981,-30.83858 c -5.62643,-7.41893 -16.1655,5.0395 -18.3312,21.66965 -2.50842,19.2619 -2.50842,19.2619 8.82439,0 6.23305,-10.59405 10.51112,-20.34539 9.50681,-21.66965 z m -242.5998,19.61614 c -7.94554,-2.94158 -20.94733,-10.1838 -28.89286,-16.09384 -12.55352,-9.33753 -12.7145,-8.53712 -1.22848,6.10866 7.26987,9.26979 20.27165,16.51201 28.89286,16.09383 13.11205,-0.63603 13.3129,-1.6348 1.22848,-6.10865 z M 164.10715,425.86217 c 0,-5.29703 -4.33393,-9.63095 -9.63095,-9.63095 -5.29703,0 -9.63095,4.33392 -9.63095,9.63095 0,5.29702 4.33392,9.63095 9.63095,9.63095 5.29702,0 9.63095,-4.33393 9.63095,-9.63095 z m 260.07192,-4.83785 c 12.62562,-7.80307 12.27873,-30.89038 -0.58354,-38.83973 -16.12969,-9.96869 -54.50255,3.39478 -61.40597,21.38482 -5.55166,14.4674 -3.97638,14.3015 13.38412,-1.40953 21.4424,-19.40511 25.15054,-14.15285 9.99757,14.16071 -8.14709,15.22298 -6.61723,17.49538 9.66717,14.3593 10.64027,-2.04913 23.66358,-6.39414 28.94068,-9.65557 z m -125.23859,-21.9653 c 0,-4.14769 -11.9183,-6.89428 -26.48512,-6.10354 -14.56681,0.7907 -31.90253,-2.84727 -38.52381,-8.08445 -8.0164,-6.34067 -12.03869,-6.17845 -12.03869,0.4855 0,5.5042 5.41742,12.19361 12.03869,14.86535 19.45651,7.85087 65.00893,7.03605 65.00893,-1.16285 z m 70.04079,-60.5119 c -3.39445,-12.9804 -8.48143,-16.6205 -14.63181,-10.47012 -9.96902,9.96902 -2.12694,30.3685 11.67443,30.3685 4.4885,0 5.81933,-8.95427 2.95738,-19.89838 z M 266.40573,326.52019 c 7.30007,2.80129 13.27285,0.29566 13.27285,-5.56809 0,-5.86375 -8.66786,-10.66136 -19.26191,-10.66136 -10.59404,0 -19.2619,-3.92818 -19.2619,-8.7293 0,-4.80113 -9.75134,-6.32818 -21.66964,-3.39347 -11.91831,2.93472 -18.92039,2.30784 -15.56017,-1.39306 9.82977,-10.82641 59.74867,-12.84406 79.19533,-3.20096 11.77967,5.84124 21.64604,5.08197 28.89285,-2.22349 8.28164,-8.34864 6.78978,-9.48897 -6.02903,-4.60837 -15.01337,5.71614 -15.86104,3.40093 -7.14676,-19.51938 7.60724,-20.00855 7.09347,-25.01963 -2.22815,-21.7324 -6.66333,2.34981 -11.65352,10.54842 -11.08931,18.21915 0.73715,10.02216 -6.74889,12.80568 -26.60301,9.89171 -15.19585,-2.23028 -30.0066,-7.90237 -32.91276,-12.60465 -2.90617,-4.70228 4.73125,-6.89776 16.97205,-4.87885 29.8183,4.91802 59.91722,-20.95343 45.12009,-38.78288 -14.41634,-17.37062 -41.35074,-16.37026 -78.65665,2.92137 -27.14783,14.03869 -28.58758,16.66746 -12.26458,22.39325 16.51299,5.79245 16.76553,7.15065 2.35754,12.67952 -26.844,10.30101 -14.4631,49.5633 16.79706,53.26682 20.10041,2.38138 24.88394,6.94368 20.19596,19.26191 -4.70911,12.3738 -3.48786,13.5071 5.23216,4.85533 6.25633,-6.20734 17.34791,-8.9941 24.64798,-6.1928 z m -44.51287,-99.12931 c 0,-7.97084 18.7007,-12.47836 22.98825,-5.54097 2.78151,4.50059 -1.25294,8.1829 -8.96547,8.1829 -7.71253,0 -14.02278,-1.18887 -14.02278,-2.64193 z m 159.68893,56.39038 c -10.49155,-10.49155 -14.47362,3.22709 -7.81693,26.93006 l 6.64372,23.6568 3.38344,-22.49659 c 1.8609,-12.37313 0.86631,-25.01375 -2.21023,-28.09027 z m 57.9706,20.73091 c -3.42758,-8.93214 -8.39894,-14.07329 -11.04745,-11.42478 -2.64851,2.64852 -2.01108,12.12359 1.41649,21.05573 3.42758,8.93214 8.39894,14.07329 11.04745,11.42478 2.64851,-2.64851 2.01109,-12.12359 -1.41649,-21.05573 z m -25.04048,-9.23625 c 0,-13.55517 -3.92706,-22.21871 -8.7268,-19.25231 -4.79974,2.9664 -6.46123,14.057 -3.69221,24.64577 6.92993,26.50005 12.41901,24.11619 12.41901,-5.39346 z m 33.70833,-13.87804 c -3.27374,-5.29702 -11.11388,-9.56458 -17.42255,-9.48347 -6.89207,0.0886 -5.70418,3.87383 2.97612,9.48347 18.50225,11.95707 21.83631,11.95707 14.44643,0 z m -296.9966,-31.30059 c -2.67174,-6.62128 -4.85772,-1.20387 -4.85772,12.03869 0,13.24256 2.18598,18.65997 4.85772,12.03869 2.67174,-6.62128 2.67174,-17.4561 0,-24.07738 z m 58.89692,-54.94512 c 19.71733,-5.47601 48.85147,-10.11235 64.74254,-10.30296 24.46601,-0.29348 26.28644,-1.86413 11.88149,-10.25121 -21.76383,-12.67167 -99.78534,-1.35494 -118.29913,17.15885 -7.68309,7.6831 -13.83747,21.24408 -13.6764,30.13551 0.27061,14.93777 1.02271,14.91431 9.89734,-0.30879 5.28246,-9.06126 25.73683,-20.9554 45.45416,-26.4314 z m -51.73902,-5.24833 c 14.28896,-13.24256 36.33568,-24.07738 48.99271,-24.07738 12.65704,0 25.6913,-4.33393 28.96504,-9.63096 9.047,-14.63835 -31.05113,-11.49969 -62.79396,4.91516 -15.47099,8.00037 -32.74397,23.16912 -38.38439,33.70834 -13.54448,25.30809 -8.16132,24.16862 23.2206,-4.91516 z"
         id="path2844" />
      <path
         style="fill:#233583"
         d="m 349.51229,576.60069 c -5.80513,-12.74087 -24.13903,-38.63683 -40.742,-57.54656 -32.3268,-36.81819 -57.93193,-38.17442 -58.05971,-3.07525 -0.0809,22.24306 -49.92501,53.6269 -56.03913,35.28453 -1.80212,-5.40639 -11.69057,-9.82981 -21.9743,-9.82981 -22.6529,0 -37.48286,-34.66172 -37.48286,-87.60781 0,-25.0703 4.96516,-40.10441 14.44643,-43.74272 22.04703,-8.46024 17.20817,-22.74471 -7.70476,-22.74471 -22.57373,0 -45.265478,-16.0128 -45.265478,-31.94232 0,-4.85542 8.662068,-6.56285 19.249038,-3.79429 19.24476,5.03261 19.24476,5.02828 0,-19.43746 -32.002478,-40.68456 -23.648098,-66.44875 11.29321,-34.8273 9.68688,8.76651 17.61252,11.46414 17.61252,5.99473 0,-17.84227 -27.51258,-33.30089 -47.804898,-26.86036 -19.58461,6.21592 -19.55572,5.65545 2.27623,-44.15882 26.739838,-61.01269 58.385658,-86.49965 114.252868,-92.01714 53.73384,-5.3068 117.49189,28.25844 122.16841,64.3152 1.69896,13.09938 10.36682,29.81752 19.2619,37.15142 12.27698,10.12224 12.69286,12.16487 1.72644,8.47948 -10.8994,-3.66285 -14.63056,3.27411 -15.19635,28.25309 -0.608,26.84398 1.02733,29.79508 8.64359,15.59788 5.16642,-9.63054 9.83781,-18.18814 10.38086,-19.01689 0.54309,-0.82875 20.95653,-4.47877 45.36327,-8.11113 35.88362,-5.34044 45.50812,-3.65375 50.29232,8.81367 8.30751,21.64903 -9.55325,64.04881 -24.55531,58.29198 -6.80174,-2.61007 -17.81203,3.9736 -24.4673,14.63038 -9.71729,15.55985 -9.71339,19.38766 0.0202,19.43531 6.66617,0.0328 25.12209,7.1855 41.01316,15.89526 15.89107,8.70976 41.83213,16.26744 57.64681,16.79483 40.34569,1.34548 40.7571,23.52749 1.27607,68.80296 -26.75236,30.67819 -35.62982,35.75222 -45.5907,26.05773 -6.80324,-6.62128 -20.03456,-12.03869 -29.40296,-12.03869 -21.9472,0 -14.09759,24.03784 19.88991,60.90885 24.50011,26.57871 24.64593,27.51442 6.37837,40.93155 -23.06717,16.94236 -69.47208,17.97461 -76.0788,1.69234 -3.87696,-9.55478 -6.6786,-9.49839 -13.57857,0.27333 -6.52058,9.23439 -11.33207,6.52144 -19.24851,-10.85324 z m 92.51297,-5.21785 c 7.1868,-4.55378 9.30596,-10.60399 4.70925,-13.44491 -4.5967,-2.84093 -16.72256,0.95125 -26.94636,8.42708 -20.78719,15.19997 -0.9108,19.68509 22.23711,5.01783 z M 407.4458,553.72953 c 18.9273,-10.24786 -5.84634,-20.01878 -26.68416,-10.52444 -12.8873,5.87185 -21.26159,14.18699 -18.60954,18.4781 4.28717,6.93679 24.27406,3.42705 45.2937,-7.95366 z M 212.26191,536.61812 c 0,-7.94554 -6.67176,-14.44643 -14.82615,-14.44643 -12.2496,0 -12.66802,2.44689 -2.40773,14.0801 15.78681,17.89922 17.23388,17.92998 17.23388,0.36633 z m 13.7585,-28.20493 c -10.19902,-7.45772 -20.40109,-11.70209 -22.67124,-9.43193 -2.27015,2.27015 4.21711,10.22932 14.41615,17.68703 10.19902,7.45771 20.40109,11.70208 22.67124,9.43192 2.27015,-2.27015 -4.21711,-10.22931 -14.41615,-17.68702 z m 178.86055,-18.02364 c 0,-20.23584 -21.27041,-35.7066 -47.67322,-34.67451 l -24.55892,0.96001 24.07738,7.81349 24.07738,7.81349 -21.56133,6.76787 c -28.80461,9.04147 -18.05694,23.83989 17.31424,23.83989 16.81996,0 28.32447,-5.08533 28.32447,-12.52024 z m 77.04762,-6.74167 c 0,-5.29702 -4.33393,-9.63095 -9.63096,-9.63095 -5.29702,0 -9.63095,4.33393 -9.63095,9.63095 0,5.29703 4.33393,9.63095 9.63095,9.63095 5.29703,0 9.63096,-4.33392 9.63096,-9.63095 z m -247.99703,-6.37839 c -6.62127,-2.67175 -17.4561,-2.67175 -24.07738,0 -6.62128,2.67175 -1.20387,4.85771 12.03869,4.85771 13.24256,0 18.65997,-2.18596 12.03869,-4.85771 z m -56.76701,-46.73876 c -9.13221,-23.79813 -32.31929,-16.54001 -32.31929,10.11672 0,21.27741 2.4301,23.11568 18.90326,14.29951 11.1115,-5.94669 16.64147,-16.01085 13.41603,-24.41623 z m 59.4296,16.45335 c -2.96525,-2.96525 -10.73653,-0.006 -17.26953,6.57586 -9.44091,9.51168 -8.33466,10.61793 5.39136,5.39136 9.49824,-3.61672 14.84342,-9.00198 11.87817,-11.96722 z m 234.44066,4.47707 c 5.89967,-7.10865 7.87497,-15.77651 4.38958,-19.2619 -11.26898,-11.269 -20.02818,-6.77279 -25.17922,12.92482 -5.7708,22.06759 5.00776,25.3531 20.78964,6.33708 z m 41.61263,-32.8222 c -5.62643,-7.41893 -16.1655,5.0395 -18.3312,21.66965 -2.50842,19.2619 -2.50842,19.2619 8.82439,0 6.23305,-10.59405 10.51112,-20.34539 9.50681,-21.66965 z m -242.5998,19.61614 c -7.94554,-2.94158 -20.94733,-10.1838 -28.89286,-16.09384 -12.55352,-9.33753 -12.7145,-8.53712 -1.22848,6.10866 7.26987,9.26979 20.27165,16.51201 28.89286,16.09383 13.11205,-0.63603 13.3129,-1.6348 1.22848,-6.10865 z m 154.13144,-17.23077 c 12.62562,-7.80307 12.27873,-30.89038 -0.58354,-38.83973 -16.12969,-9.96869 -54.50255,3.39478 -61.40597,21.38482 -5.55166,14.4674 -3.97638,14.3015 13.38412,-1.40953 21.4424,-19.40511 25.15054,-14.15285 9.99757,14.16071 -8.14709,15.22298 -6.61723,17.49538 9.66717,14.3593 10.64027,-2.04913 23.66358,-6.39414 28.94068,-9.65557 z m -125.23859,-21.9653 c 0,-4.14769 -11.9183,-6.89428 -26.48512,-6.10354 -14.56681,0.7907 -31.90253,-2.84727 -38.52381,-8.08445 -8.0164,-6.34067 -12.03869,-6.17845 -12.03869,0.4855 0,5.5042 5.41742,12.19361 12.03869,14.86535 19.45651,7.85087 65.00893,7.03605 65.00893,-1.16285 z m 70.04079,-60.5119 c -3.39445,-12.9804 -8.48143,-16.6205 -14.63181,-10.47012 -9.96902,9.96902 -2.12694,30.3685 11.67443,30.3685 4.4885,0 5.81933,-8.95427 2.95738,-19.89838 z M 266.40573,326.52019 c 7.30007,2.80129 13.27285,0.29566 13.27285,-5.56809 0,-5.86375 -8.66786,-10.66136 -19.26191,-10.66136 -10.59404,0 -19.2619,-3.92818 -19.2619,-8.7293 0,-4.80113 -9.75134,-6.32818 -21.66964,-3.39347 -11.91831,2.93472 -18.92039,2.30784 -15.56017,-1.39306 9.82977,-10.82641 59.74867,-12.84406 79.19533,-3.20096 11.77967,5.84124 21.64604,5.08197 28.89285,-2.22349 8.28164,-8.34864 6.78978,-9.48897 -6.02903,-4.60837 -15.01337,5.71614 -15.86104,3.40093 -7.14676,-19.51938 7.60724,-20.00855 7.09347,-25.01963 -2.22815,-21.7324 -6.66333,2.34981 -11.65352,10.54842 -11.08931,18.21915 0.73715,10.02216 -6.74889,12.80568 -26.60301,9.89171 -15.19585,-2.23028 -30.0066,-7.90237 -32.91276,-12.60465 -2.90617,-4.70228 4.73125,-6.89776 16.97205,-4.87885 29.8183,4.91802 59.91722,-20.95343 45.12009,-38.78288 -14.41634,-17.37062 -41.35074,-16.37026 -78.65665,2.92137 -27.14783,14.03869 -28.58758,16.66746 -12.26458,22.39325 16.51299,5.79245 16.76553,7.15065 2.35754,12.67952 -26.844,10.30101 -14.4631,49.5633 16.79706,53.26682 20.10041,2.38138 24.88394,6.94368 20.19596,19.26191 -4.70911,12.3738 -3.48786,13.5071 5.23216,4.85533 6.25633,-6.20734 17.34791,-8.9941 24.64798,-6.1928 z m -44.51287,-99.12931 c 0,-7.97084 18.7007,-12.47836 22.98825,-5.54097 2.78151,4.50059 -1.25294,8.1829 -8.96547,8.1829 -7.71253,0 -14.02278,-1.18887 -14.02278,-2.64193 z m 159.68893,56.39038 c -10.49155,-10.49155 -14.47362,3.22709 -7.81693,26.93006 l 6.64372,23.6568 3.38344,-22.49659 c 1.8609,-12.37313 0.86631,-25.01375 -2.21023,-28.09027 z m 57.9706,20.73091 c -3.42758,-8.93214 -8.39894,-14.07329 -11.04745,-11.42478 -2.64851,2.64852 -2.01108,12.12359 1.41649,21.05573 3.42758,8.93214 8.39894,14.07329 11.04745,11.42478 2.64851,-2.64851 2.01109,-12.12359 -1.41649,-21.05573 z m -25.04048,-9.23625 c 0,-13.55517 -3.92706,-22.21871 -8.7268,-19.25231 -4.79974,2.9664 -6.46123,14.057 -3.69221,24.64577 6.92993,26.50005 12.41901,24.11619 12.41901,-5.39346 z m 33.70833,-13.87804 c -3.27374,-5.29702 -11.11388,-9.56458 -17.42255,-9.48347 -6.89207,0.0886 -5.70418,3.87383 2.97612,9.48347 18.50225,11.95707 21.83631,11.95707 14.44643,0 z m -296.9966,-31.30059 c -2.67174,-6.62128 -4.85772,-1.20387 -4.85772,12.03869 0,13.24256 2.18598,18.65997 4.85772,12.03869 2.67174,-6.62128 2.67174,-17.4561 0,-24.07738 z m 58.89692,-54.94512 c 19.71733,-5.47601 48.85147,-10.11235 64.74254,-10.30296 24.46601,-0.29348 26.28644,-1.86413 11.88149,-10.25121 -21.76383,-12.67167 -99.78534,-1.35494 -118.29913,17.15885 -7.68309,7.6831 -13.83747,21.24408 -13.6764,30.13551 0.27061,14.93777 1.02271,14.91431 9.89734,-0.30879 5.28246,-9.06126 25.73683,-20.9554 45.45416,-26.4314 z m -51.73902,-5.24833 c 14.28896,-13.24256 36.33568,-24.07738 48.99271,-24.07738 12.65704,0 25.6913,-4.33393 28.96504,-9.63096 9.047,-14.63835 -31.05113,-11.49969 -62.79396,4.91516 -15.47099,8.00037 -32.74397,23.16912 -38.38439,33.70834 -13.54448,25.30809 -8.16132,24.16862 23.2206,-4.91516 z"
         id="path2842" />
      <path
         style="fill:#244f37"
         d="m 349.51229,576.60069 c -5.80513,-12.74087 -24.13903,-38.63683 -40.742,-57.54656 -32.3268,-36.81819 -57.93193,-38.17442 -58.05971,-3.07525 -0.0809,22.24306 -49.92501,53.6269 -56.03913,35.28453 -1.80212,-5.40639 -11.69057,-9.82981 -21.9743,-9.82981 -22.6529,0 -37.48286,-34.66172 -37.48286,-87.60781 0,-25.0703 4.96516,-40.10441 14.44643,-43.74272 22.04703,-8.46024 17.20817,-22.74471 -7.70476,-22.74471 -21.90631,0 -45.265478,-15.90411 -45.265478,-30.81905 0,-4.23762 7.584378,-7.63839 16.854168,-7.55728 13.36679,0.11692 14.09988,1.89188 3.54296,8.57806 -10.40183,6.58794 -8.66445,9.90541 7.94901,15.17832 11.69312,3.71125 23.82289,4.18505 26.95505,1.05288 3.13217,-3.13215 -2.25069,-5.69484 -11.9619,-5.69484 -9.71121,0 -14.90942,-2.74732 -11.55157,-6.10517 3.35784,-3.35784 -2.42073,-16.9441 -12.84127,-30.19167 -31.751938,-40.36606 -23.157468,-65.89391 11.5958,-34.44262 9.68688,8.76651 17.61252,11.46414 17.61252,5.99473 0,-17.84227 -27.51258,-33.30089 -47.804898,-26.86036 -19.58461,6.21592 -19.55572,5.65545 2.27623,-44.15882 26.739838,-61.01269 58.385658,-86.49965 114.252868,-92.01714 53.73384,-5.3068 117.49189,28.25844 122.16841,64.3152 1.69896,13.09938 10.36682,29.81752 19.2619,37.15142 12.27698,10.12224 12.69286,12.16487 1.72644,8.47948 -10.8994,-3.66285 -14.63056,3.27411 -15.19635,28.25309 -0.608,26.84398 1.02733,29.79508 8.64359,15.59788 5.16642,-9.63054 9.83781,-18.18814 10.38086,-19.01689 0.54309,-0.82875 20.95653,-4.47877 45.36327,-8.11113 35.88362,-5.34044 45.50812,-3.65375 50.29232,8.81367 7.4202,19.33674 -9.71889,66.44965 -21.52024,59.15602 -8.44574,-5.21975 -97.22536,74.09576 -97.22536,86.86093 0,3.45532 11.1603,-1.0301 24.80067,-9.96762 23.72731,-15.54672 24.66515,-15.45014 21.66964,2.23162 -3.36701,19.87461 -0.86695,21.43405 34.36238,21.43405 29.56499,0 40.62882,-27.1245 18.05187,-44.25665 -24.74969,-18.78091 2.3827,-17.03511 31.47214,2.02502 13.05619,8.55474 23.73854,24.59028 23.73854,35.63453 0,15.61812 -2.56826,17.51218 -11.55714,8.52329 -16.37606,-16.37606 -23.97444,-14.40867 -29.75723,7.70476 -5.06924,19.38481 6.63825,26.78007 16.67819,10.53511 2.9664,-4.79974 13.27627,-6.6654 22.91081,-4.1459 9.63456,2.51948 23.55191,-2.69029 30.92748,-11.5773 11.65445,-14.04277 10.93593,-18.02635 -5.48827,-30.42773 -18.74127,-14.15091 -18.73918,-14.2414 0.25291,-10.8859 30.38416,5.36823 27.49187,29.86623 -8.38319,71.00649 -26.7519,30.67819 -35.62936,35.75222 -45.59024,26.05773 -6.80324,-6.62128 -20.03456,-12.03869 -29.40296,-12.03869 -21.9472,0 -14.09759,24.03784 19.88991,60.90885 24.50011,26.57871 24.64593,27.51442 6.37837,40.93155 -23.06717,16.94236 -69.47208,17.97461 -76.0788,1.69234 -3.87696,-9.55478 -6.6786,-9.49839 -13.57857,0.27333 -6.52058,9.23439 -11.33207,6.52144 -19.24851,-10.85324 z m 103.52343,3.55753 c 12.63471,-7.98955 12.33276,-11.24939 -2.40774,-25.99368 -9.29642,-9.29881 -16.85417,-11.90538 -16.85417,-5.81277 0,6.07515 -9.24049,13.97854 -20.53442,17.56309 -16.13082,5.11973 -17.67984,8.3253 -7.22321,14.94796 17.09713,10.82839 29.06482,10.64905 47.01954,-0.7046 z m -46.32167,-32.8361 c 1.64031,-4.70684 -9.97626,-9.93951 -25.81461,-11.62816 -20.98943,-2.23783 -24.90621,-0.61041 -14.44642,6.0027 10.46272,6.6149 10.93507,9.11289 1.74348,9.22041 -6.93389,0.0809 -10.04642,4.29072 -6.91671,9.3547 6.3345,10.24942 40.76988,0.43464 45.43426,-12.94965 z m -194.45214,-10.704 c 0,-7.94554 -6.67176,-14.44643 -14.82615,-14.44643 -12.2496,0 -12.66802,2.44689 -2.40773,14.0801 15.78681,17.89922 17.23388,17.92998 17.23388,0.36633 z m 13.7585,-28.20493 c -10.19902,-7.45772 -20.40109,-11.70209 -22.67124,-9.43193 -2.27015,2.27015 4.21711,10.22932 14.41615,17.68703 10.19902,7.45771 20.40109,11.70208 22.67124,9.43192 2.27015,-2.27015 -4.21711,-10.22931 -14.41615,-17.68702 z m 178.86055,-13.20816 c 0,-14.83167 -5.20072,-32.16739 -11.55714,-38.52381 -13.97374,-13.97374 -55.85953,-15.41808 -55.85953,-1.92619 0,5.29702 6.75667,9.63095 15.01482,9.63095 8.30769,0 12.1405,4.65074 8.58027,10.41132 -3.64504,5.8978 -17.4609,7.79993 -31.86898,4.38764 l -25.43444,-6.02368 28.89286,24.15886 c 15.89107,13.28737 38.64419,24.31471 50.5625,24.50521 17.39525,0.27804 21.66964,-4.97288 21.66964,-26.6203 z m 77.04762,-11.55715 c 0,-5.29702 -4.33393,-9.63095 -9.63096,-9.63095 -5.29702,0 -9.63095,4.33393 -9.63095,9.63095 0,5.29703 4.33393,9.63095 9.63095,9.63095 5.29703,0 9.63096,-4.33392 9.63096,-9.63095 z m -247.99703,-6.37839 c -6.62127,-2.67175 -17.4561,-2.67175 -24.07738,0 -6.62128,2.67175 -1.20387,4.85771 12.03869,4.85771 13.24256,0 18.65997,-2.18596 12.03869,-4.85771 z m -56.76701,-46.73876 c -9.13221,-23.79813 -32.31929,-16.54001 -32.31929,10.11672 0,21.27741 2.4301,23.11568 18.90326,14.29951 11.1115,-5.94669 16.64147,-16.01085 13.41603,-24.41623 z m 89.26297,14.59334 c 2.61629,0 2.10906,4.28429 -1.12718,9.52064 -3.3741,5.4594 0.49175,7.074 9.06256,3.78507 20.5914,-7.90165 19.9549,-8.75044 -23.57717,-31.44062 -21.18809,-11.04385 -38.52381,-16.07114 -38.52381,-11.17175 0,4.89938 4.54438,11.71656 10.09861,15.14927 6.87693,4.25017 6.41949,10.67437 -1.43385,20.13707 -9.8475,11.8655 -7.71347,12.44381 14.60573,3.95806 14.37602,-5.46576 28.27882,-9.93774 30.89511,-9.93774 z M 323.38042,409.008 c -3.59758,-14.56681 -10.49267,-30.52672 -15.32242,-35.46645 -4.90825,-5.02002 -4.60767,5.57153 0.68149,24.01381 5.2046,18.14731 9.4629,34.10721 9.4629,35.46644 0,1.35923 2.6368,2.47132 5.85955,2.47132 3.22274,0 2.91607,-11.9183 -0.68149,-26.48512 z m -24.43994,-9.94898 c 0,-4.14769 -11.9183,-6.89428 -26.48512,-6.10354 -14.56681,0.7907 -31.90253,-2.84727 -38.52381,-8.08445 -8.0164,-6.34067 -12.03869,-6.17845 -12.03869,0.4855 0,5.5042 5.41742,12.19361 12.03869,14.86535 19.45651,7.85087 65.00893,7.03605 65.00893,-1.16285 z m 70.04079,-60.5119 c -3.39445,-12.9804 -8.48143,-16.6205 -14.63181,-10.47012 -9.96902,9.96902 -2.12694,30.3685 11.67443,30.3685 4.4885,0 5.81933,-8.95427 2.95738,-19.89838 z M 176.6419,300.20778 c -17.40461,-59.37279 -12.72422,-73.47525 30.35981,-91.4769 53.7621,-22.46324 88.90754,-18.33266 106.13228,12.47355 l 14.80869,26.48512 -2.4624,-33.44659 c -2.20149,-29.90251 -7.18483,-35.39728 -47.02921,-51.85575 -31.44314,-12.98817 -54.84001,-16.48189 -79.45369,-11.86434 -36.85235,6.91355 -83.04499,45.13343 -83.04499,68.71159 0,17.08318 11.3828,18.03538 27.14725,2.27094 9.22966,-9.22966 10.47361,-5.4172 5.82171,17.84232 -4.08605,20.43028 0.38724,41.93545 14.46159,69.52344 11.20768,21.96886 21.98185,39.94339 23.94261,39.94339 1.96075,0 -2.84688,-21.87305 -10.68365,-48.60677 z m 89.76383,26.31241 c 7.30007,2.80129 13.27285,0.29566 13.27285,-5.56809 0,-5.86375 -8.66786,-10.66136 -19.26191,-10.66136 -10.59404,0 -19.2619,-3.92818 -19.2619,-8.7293 0,-4.80113 -9.75134,-6.32818 -21.66964,-3.39347 -11.91831,2.93472 -18.92039,2.30784 -15.56017,-1.39306 9.82977,-10.82641 59.74867,-12.84406 79.19533,-3.20096 11.77967,5.84124 21.64604,5.08197 28.89285,-2.22349 8.28164,-8.34864 6.78978,-9.48897 -6.02903,-4.60837 -15.01337,5.71614 -15.86104,3.40093 -7.14676,-19.51938 7.60724,-20.00855 7.09347,-25.01963 -2.22815,-21.7324 -6.66333,2.34981 -11.65352,10.54842 -11.08931,18.21915 0.73715,10.02216 -6.74889,12.80568 -26.60301,9.89171 -15.19585,-2.23028 -30.0066,-7.90237 -32.91276,-12.60465 -2.90617,-4.70228 4.73125,-6.89776 16.97205,-4.87885 29.8183,4.91802 59.91722,-20.95343 45.12009,-38.78288 -14.41634,-17.37062 -41.35074,-16.37026 -78.65665,2.92137 -27.14783,14.03869 -28.58758,16.66746 -12.26458,22.39325 16.51299,5.79245 16.76553,7.15065 2.35754,12.67952 -26.844,10.30101 -14.4631,49.5633 16.79706,53.26682 20.10041,2.38138 24.88394,6.94368 20.19596,19.26191 -4.70911,12.3738 -3.48786,13.5071 5.23216,4.85533 6.25633,-6.20734 17.34791,-8.9941 24.64798,-6.1928 z m -44.51287,-99.12931 c 0,-7.97084 18.7007,-12.47836 22.98825,-5.54097 2.78151,4.50059 -1.25294,8.1829 -8.96547,8.1829 -7.71253,0 -14.02278,-1.18887 -14.02278,-2.64193 z m 159.68893,56.39038 c -10.49155,-10.49155 -14.47362,3.22709 -7.81693,26.93006 l 6.64372,23.6568 3.38344,-22.49659 c 1.8609,-12.37313 0.86631,-25.01375 -2.21023,-28.09027 z m 57.9706,20.73091 c -3.42758,-8.93214 -8.39894,-14.07329 -11.04745,-11.42478 -2.64851,2.64852 -2.01108,12.12359 1.41649,21.05573 3.42758,8.93214 8.39894,14.07329 11.04745,11.42478 2.64851,-2.64851 2.01109,-12.12359 -1.41649,-21.05573 z m -25.04048,-9.23625 c 0,-13.55517 -3.92706,-22.21871 -8.7268,-19.25231 -4.79974,2.9664 -6.46123,14.057 -3.69221,24.64577 6.92993,26.50005 12.41901,24.11619 12.41901,-5.39346 z m 33.70833,-13.87804 c -3.27374,-5.29702 -11.11388,-9.56458 -17.42255,-9.48347 -6.89207,0.0886 -5.70418,3.87383 2.97612,9.48347 18.50225,11.95707 21.83631,11.95707 14.44643,0 z"
         id="path2840" />
      <path
         style="fill:#632911"
         d="m 349.51229,576.60069 c -17.14536,-37.62998 -69.88505,-92.32858 -83.85371,-86.9683 -7.10848,2.72778 -15.78562,0.33025 -19.28254,-5.32793 -3.49694,-5.65814 -15.85361,-9.85552 -27.4593,-9.32752 -19.35772,0.88066 -19.11181,1.509 2.97612,7.60408 35.92617,9.9137 37.597,50.29191 2.74241,66.27465 -17.24196,7.90639 -27.84688,8.75854 -29.96382,2.40774 -1.80212,-5.40639 -11.69057,-9.82981 -21.9743,-9.82981 -22.6529,0 -37.48286,-34.66172 -37.48286,-87.60781 0,-25.0703 4.96516,-40.10441 14.44643,-43.74272 22.04703,-8.46024 17.20817,-22.74471 -7.70476,-22.74471 -21.90631,0 -45.265478,-15.90411 -45.265478,-30.81905 0,-4.23762 7.584378,-7.63839 16.854168,-7.55728 13.36679,0.11692 14.09988,1.89188 3.54296,8.57806 -10.40183,6.58794 -8.66445,9.90541 7.94901,15.17832 11.69312,3.71125 23.82289,4.18505 26.95505,1.05288 3.13217,-3.13215 -2.25069,-5.69484 -11.9619,-5.69484 -9.71121,0 -14.90942,-2.74732 -11.55157,-6.10517 3.35784,-3.35784 -2.42073,-16.9441 -12.84127,-30.19167 -28.228598,-35.88685 -25.420678,-55.06785 5.13094,-35.04966 26.56765,17.40779 30.92685,8.96863 9.78736,-18.94777 C 122.3353,266.9271 110.67757,262.09931 101.3389,265.6829 88.883952,270.4623 87.122842,267.35704 92.465332,250.03669 114.047,180.06898 148.1414,148.16489 210.23057,139.83699 c 35.87623,-4.81201 107.48395,21.08717 121.64222,43.99574 2.9405,4.75781 6.48499,34.8444 7.87667,66.85908 1.78431,41.04725 5.07864,53.44446 11.17389,42.04955 4.75397,-8.88742 9.0879,-16.83703 9.63095,-17.66578 0.54309,-0.82875 20.95653,-4.47877 45.36327,-8.11113 35.88362,-5.34044 45.50812,-3.65375 50.29232,8.81367 7.4202,19.33674 -9.71889,66.44965 -21.52024,59.15602 -8.44574,-5.21975 -97.22536,74.09576 -97.22536,86.86093 0,3.45532 11.1603,-1.0301 24.80067,-9.96762 23.72731,-15.54672 24.66515,-15.45014 21.66964,2.23162 -3.36701,19.87461 -0.86695,21.43405 34.36238,21.43405 29.56499,0 40.62882,-27.1245 18.05187,-44.25665 -24.74969,-18.78091 2.3827,-17.03511 31.47214,2.02502 13.05619,8.55474 23.73854,24.59028 23.73854,35.63453 0,15.61812 -2.56826,17.51218 -11.55714,8.52329 -16.37606,-16.37606 -23.97444,-14.40867 -29.75723,7.70476 -5.06924,19.38481 6.63825,26.78007 16.67819,10.53511 2.9664,-4.79974 13.27627,-6.6654 22.91081,-4.1459 9.63456,2.51948 23.55191,-2.69029 30.92748,-11.5773 11.65445,-14.04277 10.93593,-18.02635 -5.48827,-30.42773 -18.74127,-14.15091 -18.73918,-14.2414 0.25291,-10.8859 30.38416,5.36823 27.49187,29.86623 -8.38319,71.00649 -26.7519,30.67819 -35.62936,35.75222 -45.59024,26.05773 -6.80324,-6.62128 -20.03456,-12.03869 -29.40296,-12.03869 -21.9472,0 -14.09759,24.03784 19.88991,60.90885 24.50011,26.57871 24.64593,27.51442 6.37837,40.93155 -23.06717,16.94236 -69.47208,17.97461 -76.0788,1.69234 -3.87696,-9.55478 -6.6786,-9.49839 -13.57857,0.27333 -6.52058,9.23439 -11.33207,6.52144 -19.24851,-10.85324 z m 103.52343,3.55753 c 12.63471,-7.98955 12.33276,-11.24939 -2.40774,-25.99368 -9.29642,-9.29881 -16.85417,-11.90538 -16.85417,-5.81277 0,6.07515 -9.24049,13.97854 -20.53442,17.56309 -16.13082,5.11973 -17.67984,8.3253 -7.22321,14.94796 17.09713,10.82839 29.06482,10.64905 47.01954,-0.7046 z m -46.32167,-32.8361 c 1.64031,-4.70684 -9.97626,-9.93951 -25.81461,-11.62816 -20.98943,-2.23783 -24.90621,-0.61041 -14.44642,6.0027 10.46272,6.6149 10.93507,9.11289 1.74348,9.22041 -6.93389,0.0809 -10.04642,4.29072 -6.91671,9.3547 6.3345,10.24942 40.76988,0.43464 45.43426,-12.94965 z M 216.6661,531.13716 c -3.04753,-4.931 -11.95695,-8.96547 -19.79873,-8.96547 -11.7107,0 -12.03928,2.40017 -1.83934,13.43557 13.21551,14.29794 30.97047,10.63005 21.63807,-4.4701 z m 9.35431,-22.72397 c -10.19902,-7.45772 -20.40109,-11.70209 -22.67124,-9.43193 -2.27015,2.27015 4.21711,10.22932 14.41615,17.68703 10.19902,7.45771 20.40109,11.70208 22.67124,9.43192 2.27015,-2.27015 -4.21711,-10.22931 -14.41615,-17.68702 z m 178.86055,-13.20816 c 0,-14.83167 -5.20072,-32.16739 -11.55714,-38.52381 -13.97374,-13.97374 -55.85953,-15.41808 -55.85953,-1.92619 0,5.29702 6.75667,9.63095 15.01482,9.63095 8.30769,0 12.1405,4.65074 8.58027,10.41132 -3.64504,5.8978 -17.4609,7.79993 -31.86898,4.38764 l -25.43444,-6.02368 28.89286,24.15886 c 15.89107,13.28737 38.64419,24.31471 50.5625,24.50521 17.39525,0.27804 21.66964,-4.97288 21.66964,-26.6203 z m 77.04762,-11.55715 c 0,-5.29702 -4.33393,-9.63095 -9.63096,-9.63095 -5.29702,0 -9.63095,4.33393 -9.63095,9.63095 0,5.29703 4.33393,9.63095 9.63095,9.63095 5.29703,0 9.63096,-4.33392 9.63096,-9.63095 z M 177.16454,430.53073 c -9.13221,-23.79813 -32.31929,-16.54001 -32.31929,10.11672 0,21.27741 2.4301,23.11568 18.90326,14.29951 11.1115,-5.94669 16.64147,-16.01085 13.41603,-24.41623 z m 77.60883,18.69608 c 12.8664,-5.14827 16.35138,-4.00622 11.53848,3.78123 -4.50522,7.28959 -1.7143,9.16905 8.05104,5.42174 20.5914,-7.90165 19.9549,-8.75044 -23.57717,-31.44062 -21.18809,-11.04385 -38.52381,-16.07114 -38.52381,-11.17175 0,4.89938 4.54438,11.71656 10.09861,15.14927 6.7888,4.1957 5.99967,11.28607 -2.40773,21.6335 -13.30173,16.37113 -14.9148,16.5274 34.82058,-3.37337 z M 323.38042,409.008 c -3.59758,-14.56681 -10.49267,-30.52672 -15.32242,-35.46645 -4.90825,-5.02002 -4.60767,5.57153 0.68149,24.01381 5.2046,18.14731 9.4629,34.10721 9.4629,35.46644 0,1.35923 2.6368,2.47132 5.85955,2.47132 3.22274,0 2.91607,-11.9183 -0.68149,-26.48512 z m -24.43994,-10.18289 c 0,-4.27634 -13.0558,-6.87128 -29.01289,-5.76654 -20.18613,1.39752 -33.3715,-4.21417 -43.33929,-18.44517 -11.66156,-16.64921 -14.32639,-17.45705 -14.32639,-4.34298 0,8.86095 7.58438,20.5283 16.85417,25.92746 20.17452,11.75058 69.8244,13.61872 69.8244,2.62723 z m 70.04079,-60.27799 c -3.39445,-12.9804 -8.48143,-16.6205 -14.63181,-10.47012 -9.96902,9.96902 -2.12694,30.3685 11.67443,30.3685 4.4885,0 5.81933,-8.95427 2.95738,-19.89838 z m -156.57188,1.86495 c 0.11583,10.38205 2.15052,10.11848 9.48347,-1.22847 5.1348,-7.94554 9.40237,-10.66532 9.48348,-6.04395 0.0809,4.62135 5.56489,4.37014 12.18617,-0.55821 6.62128,-4.9284 21.9566,-8.20977 34.07851,-7.29195 12.52425,0.94826 20.47551,-2.96879 18.41658,-9.0727 -1.99278,-5.90781 3.25806,-16.16952 11.66852,-22.8038 13.8549,-10.92893 13.79963,-11.54593 -0.58826,-6.56664 -8.734,3.02263 -19.15496,0.19667 -23.15771,-6.27991 -4.37017,-7.07108 -3.27297,-9.30052 2.74635,-5.58037 5.51325,3.40737 12.36755,-2.76623 15.23179,-13.71912 4.05609,-15.51049 1.63599,-18.67598 -10.94374,-14.31447 -14.67025,5.0863 -14.63654,4.41874 0.36761,-7.27915 12.57406,-9.80332 13.83906,-15.55897 5.29702,-24.10101 -15.16311,-15.16314 -49.19687,-14.12437 -89.54208,2.73294 -37.12255,15.51079 -45.6244,35.2836 -11.72935,27.27903 19.77426,-4.66983 20.22357,-3.95918 5.13696,8.12486 -22.57392,18.08121 -15.63605,49.90385 12.60225,57.80404 21.69184,6.06868 21.84229,6.55059 2.32527,7.44849 -11.47688,0.52797 -22.6883,6.37742 -24.91427,12.9987 -2.22595,6.62128 -9.47092,-10.50871 -16.09993,-38.06665 -13.90896,-57.822 -10.15678,-67.32146 33.8548,-85.71067 52.49181,-21.93248 87.72453,-17.55571 104.82116,13.02137 l 14.80869,26.48512 -2.4624,-33.44659 c -2.20149,-29.90251 -7.18483,-35.39728 -47.02921,-51.85575 -31.44314,-12.98817 -54.84001,-16.48189 -79.45369,-11.86434 -36.85235,6.91355 -83.04499,45.13343 -83.04499,68.71159 0,17.08318 11.3828,18.03538 27.14725,2.27094 9.22966,-9.22966 10.47361,-5.4172 5.82171,17.84232 -8.24284,41.21422 29.10512,116.2593 49.45431,99.37097 10.94563,-9.08407 13.91749,-8.72547 14.03373,1.69338 z m 39.98149,-39.75228 c 4.84774,-14.54323 20.3352,-16.04201 24.87996,-2.40774 2.2071,6.62128 -3.21031,12.03869 -12.03869,12.03869 -8.82838,0 -14.60695,-4.33393 -12.84127,-9.63095 z m -49.75992,-3.69221 c 0,-2.03071 8.67384,-5.96046 19.2752,-8.73278 10.60135,-2.77232 16.84647,-1.11082 13.87803,3.69221 -5.18387,8.38767 -33.15323,12.6401 -33.15323,5.04057 z m 24.07738,-34.8316 c -3.27374,-5.29702 -1.36255,-9.63095 4.24709,-9.63095 5.60963,0 10.19934,4.33393 10.19934,9.63095 0,5.29702 -1.91119,9.63095 -4.24709,9.63095 -2.3359,0 -6.9256,-4.33393 -10.19934,-9.63095 z m 161.49157,50.5625 c -2.62188,-17.21533 -8.6091,-31.3006 -13.30491,-31.3006 -10.75925,0 -10.73211,0.46219 2.20663,37.57828 13.16523,37.76581 17.438,35.34894 11.09828,-6.27768 z m 51.35248,-8.18631 c -3.42758,-8.93214 -8.39894,-14.07329 -11.04745,-11.42478 -2.64851,2.64852 -2.01108,12.12359 1.41649,21.05573 3.42758,8.93214 8.39894,14.07329 11.04745,11.42478 2.64851,-2.64851 2.01109,-12.12359 -1.41649,-21.05573 z m -25.04048,-9.23625 c 0,-13.55517 -3.92706,-22.21871 -8.7268,-19.25231 -4.79974,2.9664 -6.46123,14.057 -3.69221,24.64577 6.92993,26.50005 12.41901,24.11619 12.41901,-5.39346 z m 33.70833,-13.87804 c -3.27374,-5.29702 -11.11388,-9.56458 -17.42255,-9.48347 -6.89207,0.0886 -5.70418,3.87383 2.97612,9.48347 18.50225,11.95707 21.83631,11.95707 14.44643,0 z"
         id="path2838" />
      <path
         style="fill:#282828"
         d="m 349.51229,576.60069 c -17.14536,-37.62998 -69.88505,-92.32858 -83.85371,-86.9683 -7.10848,2.72778 -15.78562,0.33025 -19.28254,-5.32793 -3.49694,-5.65814 -15.85361,-9.85552 -27.4593,-9.32752 -19.35772,0.88066 -19.11181,1.509 2.97612,7.60408 35.92617,9.9137 37.597,50.29191 2.74241,66.27465 -17.24196,7.90639 -27.84688,8.75854 -29.96382,2.40774 -1.80212,-5.40639 -11.69057,-9.82981 -21.9743,-9.82981 -22.6529,0 -37.48286,-34.66172 -37.48286,-87.60781 0,-25.0703 4.96516,-40.10441 14.44643,-43.74272 22.04703,-8.46024 17.20817,-22.74471 -7.70476,-22.74471 -21.90631,0 -45.265478,-15.90411 -45.265478,-30.81905 0,-4.23762 7.584378,-7.63839 16.854168,-7.55728 13.36679,0.11692 14.09988,1.89188 3.54296,8.57806 -10.40183,6.58794 -8.66445,9.90541 7.94901,15.17832 11.69312,3.71125 23.82289,4.18505 26.95505,1.05288 3.13217,-3.13215 -2.25069,-5.69484 -11.9619,-5.69484 -9.71121,0 -14.90942,-2.74732 -11.55157,-6.10517 3.35784,-3.35784 -2.42073,-16.9441 -12.84127,-30.19167 -28.228598,-35.88685 -25.420678,-55.06785 5.13094,-35.04966 26.56765,17.40779 30.92685,8.96863 9.78736,-18.94777 C 122.3353,266.9271 110.67757,262.09931 101.3389,265.6829 88.883952,270.4623 87.122842,267.35704 92.465332,250.03669 114.047,180.06898 148.1414,148.16489 210.23057,139.83699 c 35.87623,-4.81201 107.48395,21.08717 121.64222,43.99574 2.9405,4.75781 6.48499,34.8444 7.87667,66.85908 1.78431,41.04725 5.07864,53.44446 11.17389,42.04955 4.75397,-8.88742 9.0879,-16.83703 9.63095,-17.66578 0.54309,-0.82875 20.95653,-4.47877 45.36327,-8.11113 35.88362,-5.34044 45.50812,-3.65375 50.29232,8.81367 7.4202,19.33674 -9.71889,66.44965 -21.52024,59.15602 -8.44574,-5.21975 -97.22536,74.09576 -97.22536,86.86093 0,3.45532 11.1603,-1.0301 24.80067,-9.96762 23.72731,-15.54672 24.66515,-15.45014 21.66964,2.23162 -3.36701,19.87461 -0.86695,21.43405 34.36238,21.43405 29.56499,0 40.62882,-27.1245 18.05187,-44.25665 -24.74969,-18.78091 2.3827,-17.03511 31.47214,2.02502 13.05619,8.55474 23.73854,24.59028 23.73854,35.63453 0,15.61812 -2.56826,17.51218 -11.55714,8.52329 -16.37606,-16.37606 -23.97444,-14.40867 -29.75723,7.70476 -5.06924,19.38481 6.63825,26.78007 16.67819,10.53511 2.9664,-4.79974 13.27627,-6.6654 22.91081,-4.1459 9.63456,2.51948 23.55191,-2.69029 30.92748,-11.5773 11.65445,-14.04277 10.93593,-18.02635 -5.48827,-30.42773 -18.74127,-14.15091 -18.73918,-14.2414 0.25291,-10.8859 30.38416,5.36823 27.49187,29.86623 -8.38319,71.00649 -26.7519,30.67819 -35.62936,35.75222 -45.59024,26.05773 -6.80324,-6.62128 -20.03456,-12.03869 -29.40296,-12.03869 -21.9472,0 -14.09759,24.03784 19.88991,60.90885 24.50011,26.57871 24.64593,27.51442 6.37837,40.93155 -23.06717,16.94236 -69.47208,17.97461 -76.0788,1.69234 -3.87696,-9.55478 -6.6786,-9.49839 -13.57857,0.27333 -6.52058,9.23439 -11.33207,6.52144 -19.24851,-10.85324 z m 103.52343,3.55753 c 12.63471,-7.98955 12.33276,-11.24939 -2.40774,-25.99368 -9.29642,-9.29881 -16.85417,-11.90538 -16.85417,-5.81277 0,6.07515 -9.24049,13.97854 -20.53442,17.56309 -16.13082,5.11973 -17.67984,8.3253 -7.22321,14.94796 17.09713,10.82839 29.06482,10.64905 47.01954,-0.7046 z m -46.32167,-32.8361 c 1.64031,-4.70684 -9.97626,-9.93951 -25.81461,-11.62816 -20.98943,-2.23783 -24.90621,-0.61041 -14.44642,6.0027 10.46272,6.6149 10.93507,9.11289 1.74348,9.22041 -6.93389,0.0809 -10.04642,4.29072 -6.91671,9.3547 6.3345,10.24942 40.76988,0.43464 45.43426,-12.94965 z M 216.6661,531.13716 c -3.04753,-4.931 -11.95695,-8.96547 -19.79873,-8.96547 -11.7107,0 -12.03928,2.40017 -1.83934,13.43557 13.21551,14.29794 30.97047,10.63005 21.63807,-4.4701 z m 9.35431,-22.72397 c -10.19902,-7.45772 -20.40109,-11.70209 -22.67124,-9.43193 -2.27015,2.27015 4.21711,10.22932 14.41615,17.68703 10.19902,7.45771 20.40109,11.70208 22.67124,9.43192 2.27015,-2.27015 -4.21711,-10.22931 -14.41615,-17.68702 z m 178.86055,-13.20816 c 0,-14.83167 -5.20072,-32.16739 -11.55714,-38.52381 -13.97374,-13.97374 -55.85953,-15.41808 -55.85953,-1.92619 0,5.29702 6.75667,9.63095 15.01482,9.63095 8.30769,0 12.1405,4.65074 8.58027,10.41132 -3.64504,5.8978 -17.4609,7.79993 -31.86898,4.38764 l -25.43444,-6.02368 28.89286,24.15886 c 15.89107,13.28737 38.64419,24.31471 50.5625,24.50521 17.39525,0.27804 21.66964,-4.97288 21.66964,-26.6203 z m 77.04762,-11.55715 c 0,-5.29702 -4.33393,-9.63095 -9.63096,-9.63095 -5.29702,0 -9.63095,4.33393 -9.63095,9.63095 0,5.29703 4.33393,9.63095 9.63095,9.63095 5.29703,0 9.63096,-4.33392 9.63096,-9.63095 z M 177.16454,430.53073 c -9.13221,-23.79813 -32.31929,-16.54001 -32.31929,10.11672 0,21.27741 2.4301,23.11568 18.90326,14.29951 11.1115,-5.94669 16.64147,-16.01085 13.41603,-24.41623 z m 77.60883,18.69608 c 12.8664,-5.14827 16.35138,-4.00622 11.53848,3.78123 -4.50522,7.28959 -1.7143,9.16905 8.05104,5.42174 20.5914,-7.90165 19.9549,-8.75044 -23.57717,-31.44062 -21.18809,-11.04385 -38.52381,-16.07114 -38.52381,-11.17175 0,4.89938 4.54438,11.71656 10.09861,15.14927 6.7888,4.1957 5.99967,11.28607 -2.40773,21.6335 -13.30173,16.37113 -14.9148,16.5274 34.82058,-3.37337 z M 323.38042,409.008 c -3.59758,-14.56681 -10.49267,-30.52672 -15.32242,-35.46645 -4.90825,-5.02002 -4.60767,5.57153 0.68149,24.01381 5.2046,18.14731 9.4629,34.10721 9.4629,35.46644 0,1.35923 2.6368,2.47132 5.85955,2.47132 3.22274,0 2.91607,-11.9183 -0.68149,-26.48512 z m -24.43994,-10.18289 c 0,-4.27634 -13.0558,-6.87128 -29.01289,-5.76654 -20.18613,1.39752 -33.3715,-4.21417 -43.33929,-18.44517 -11.66156,-16.64921 -14.32639,-17.45705 -14.32639,-4.34298 0,8.86095 7.58438,20.5283 16.85417,25.92746 20.17452,11.75058 69.8244,13.61872 69.8244,2.62723 z m -19.2619,-29.71825 c 0,-18.94556 -24.13599,-33.99995 -39.39293,-24.57064 -14.7529,9.11779 -9.74389,31.50218 8.09233,36.16327 29.44313,7.69431 31.3006,7.00636 31.3006,-11.59263 z m 89.30269,-30.55974 c -3.39445,-12.9804 -8.48143,-16.6205 -14.63181,-10.47012 -9.96902,9.96902 -2.12694,30.3685 11.67443,30.3685 4.4885,0 5.81933,-8.95427 2.95738,-19.89838 z m -156.57188,1.86495 c 0.11583,10.38205 2.15052,10.11848 9.48347,-1.22847 5.1348,-7.94554 9.40237,-10.66532 9.48348,-6.04395 0.0809,4.62135 5.56489,4.37014 12.18617,-0.55821 6.62128,-4.9284 21.9566,-8.20977 34.07851,-7.29195 12.52425,0.94826 20.47551,-2.96879 18.41658,-9.0727 -1.99278,-5.90781 3.25806,-16.16952 11.66852,-22.8038 13.8549,-10.92893 13.79963,-11.54593 -0.58826,-6.56664 -8.734,3.02263 -19.15496,0.19667 -23.15771,-6.27991 -4.37017,-7.07108 -3.27297,-9.30052 2.74635,-5.58037 5.51325,3.40737 12.36755,-2.76623 15.23179,-13.71912 4.05609,-15.51049 1.63599,-18.67598 -10.94374,-14.31447 -14.67025,5.0863 -14.63654,4.41874 0.36761,-7.27915 12.57406,-9.80332 13.83906,-15.55897 5.29702,-24.10101 -15.16311,-15.16314 -49.19687,-14.12437 -89.54208,2.73294 -37.12255,15.51079 -45.6244,35.2836 -11.72935,27.27903 19.77426,-4.66983 20.22357,-3.95918 5.13696,8.12486 -22.57392,18.08121 -15.63605,49.90385 12.60225,57.80404 21.69184,6.06868 21.84229,6.55059 2.32527,7.44849 -11.47688,0.52797 -22.6883,6.37742 -24.91427,12.9987 -2.22595,6.62128 -9.47092,-10.50871 -16.09993,-38.06665 -13.90896,-57.822 -10.15678,-67.32146 33.8548,-85.71067 52.49181,-21.93248 87.72453,-17.55571 104.82116,13.02137 l 14.80869,26.48512 -2.4624,-33.44659 c -2.20149,-29.90251 -7.18483,-35.39728 -47.02921,-51.85575 -31.44314,-12.98817 -54.84001,-16.48189 -79.45369,-11.86434 -36.85235,6.91355 -83.04499,45.13343 -83.04499,68.71159 0,17.08318 11.3828,18.03538 27.14725,2.27094 9.22966,-9.22966 10.47361,-5.4172 5.82171,17.84232 -8.24284,41.21422 29.10512,116.2593 49.45431,99.37097 10.94563,-9.08407 13.91749,-8.72547 14.03373,1.69338 z m 39.98149,-39.75228 c 4.84774,-14.54323 20.3352,-16.04201 24.87996,-2.40774 2.2071,6.62128 -3.21031,12.03869 -12.03869,12.03869 -8.82838,0 -14.60695,-4.33393 -12.84127,-9.63095 z m -49.75992,-3.69221 c 0,-2.03071 8.67384,-5.96046 19.2752,-8.73278 10.60135,-2.77232 16.84647,-1.11082 13.87803,3.69221 -5.18387,8.38767 -33.15323,12.6401 -33.15323,5.04057 z m 24.07738,-34.8316 c -3.27374,-5.29702 -1.36255,-9.63095 4.24709,-9.63095 5.60963,0 10.19934,4.33393 10.19934,9.63095 0,5.29702 -1.91119,9.63095 -4.24709,9.63095 -2.3359,0 -6.9256,-4.33393 -10.19934,-9.63095 z m 161.49157,50.5625 c -2.62188,-17.21533 -8.6091,-31.3006 -13.30491,-31.3006 -10.75925,0 -10.73211,0.46219 2.20663,37.57828 13.16523,37.76581 17.438,35.34894 11.09828,-6.27768 z m 51.35248,-8.18631 c -3.42758,-8.93214 -8.39894,-14.07329 -11.04745,-11.42478 -2.64851,2.64852 -2.01108,12.12359 1.41649,21.05573 3.42758,8.93214 8.39894,14.07329 11.04745,11.42478 2.64851,-2.64851 2.01109,-12.12359 -1.41649,-21.05573 z m -25.04048,-9.23625 c 0,-13.55517 -3.92706,-22.21871 -8.7268,-19.25231 -4.79974,2.9664 -6.46123,14.057 -3.69221,24.64577 6.92993,26.50005 12.41901,24.11619 12.41901,-5.39346 z m 33.70833,-13.87804 c -3.27374,-5.29702 -11.11388,-9.56458 -17.42255,-9.48347 -6.89207,0.0886 -5.70418,3.87383 2.97612,9.48347 18.50225,11.95707 21.83631,11.95707 14.44643,0 z"
         id="path2836" />
      <path
         style="fill:#000851"
         d="m 349.51229,576.60069 c -17.14536,-37.62998 -69.88505,-92.32858 -83.85371,-86.9683 -7.10848,2.72778 -15.78562,0.33025 -19.28254,-5.32793 -3.49694,-5.65814 -15.85361,-9.85552 -27.4593,-9.32752 -19.35772,0.88066 -19.11181,1.509 2.97612,7.60408 35.92617,9.9137 37.597,50.29191 2.74241,66.27465 -17.24196,7.90639 -27.84688,8.75854 -29.96382,2.40774 -1.80212,-5.40639 -11.69057,-9.82981 -21.9743,-9.82981 -11.209,0 -22.45956,-9.89446 -28.09028,-24.70436 -11.18902,-29.42935 -12.20659,-53.08663 -2.16936,-50.43513 22.5246,5.95025 50.5625,-14.73862 50.5625,-37.30955 0,-21.60442 -3.1039,-23.83053 -26.48512,-18.9951 -14.56682,3.01255 -21.06771,3.12122 -14.44643,0.2415 19.88263,-8.64733 13.58997,-22.8926 -10.1125,-22.8926 -21.90631,0 -45.265478,-15.90411 -45.265478,-30.81905 0,-4.23762 7.584378,-7.63839 16.854168,-7.55728 13.36679,0.11692 14.09988,1.89188 3.54296,8.57806 -10.40183,6.58794 -8.66445,9.90541 7.94901,15.17832 11.69312,3.71125 23.82289,4.18505 26.95505,1.05288 3.13217,-3.13215 -2.25069,-5.69484 -11.9619,-5.69484 -9.71121,0 -14.90942,-2.74732 -11.55157,-6.10517 3.35784,-3.35784 -2.42073,-16.9441 -12.84127,-30.19167 -28.228598,-35.88685 -25.420678,-55.06785 5.13094,-35.04966 26.56765,17.40779 30.92685,8.96863 9.78736,-18.94777 C 122.3353,266.9271 110.67757,262.09931 101.3389,265.6829 88.883952,270.4623 87.122842,267.35704 92.465332,250.03669 114.047,180.06898 148.1414,148.16489 210.23057,139.83699 c 35.87623,-4.81201 107.48395,21.08717 121.64222,43.99574 2.9405,4.75781 6.48499,34.8444 7.87667,66.85908 1.78431,41.04725 5.07864,53.44446 11.17389,42.04955 4.75397,-8.88742 9.0879,-16.83703 9.63095,-17.66578 0.54309,-0.82875 20.95653,-4.47877 45.36327,-8.11113 35.88362,-5.34044 45.50812,-3.65375 50.29232,8.81367 7.4202,19.33674 -9.71889,66.44965 -21.52024,59.15602 -8.44574,-5.21975 -97.22536,74.09576 -97.22536,86.86093 0,3.45532 11.1603,-1.0301 24.80067,-9.96762 23.72731,-15.54672 24.66515,-15.45014 21.66964,2.23162 -3.36701,19.87461 -0.86695,21.43405 34.36238,21.43405 29.56499,0 40.62882,-27.1245 18.05187,-44.25665 -13.64412,-10.35362 -14.15505,-12.93476 -2.57504,-13.00862 27.3466,-0.17441 61.08612,33.97341 55.32695,55.99651 -6.46102,24.70699 13.32603,27.80376 32.21656,5.04204 10.93328,-13.17378 10.02998,-17.62124 -6.04395,-29.75815 -18.74127,-14.15091 -18.73918,-14.2414 0.25291,-10.8859 30.38416,5.36823 27.49187,29.86623 -8.38319,71.00649 -26.7519,30.67819 -35.62936,35.75222 -45.59024,26.05773 -6.80324,-6.62128 -20.03456,-12.03869 -29.40296,-12.03869 -21.9472,0 -14.09759,24.03784 19.88991,60.90885 24.50011,26.57871 24.64593,27.51442 6.37837,40.93155 -23.06717,16.94236 -69.47208,17.97461 -76.0788,1.69234 -3.87696,-9.55478 -6.6786,-9.49839 -13.57857,0.27333 -6.52058,9.23439 -11.33207,6.52144 -19.24851,-10.85324 z m 103.52343,3.55753 c 12.63471,-7.98955 12.33276,-11.24939 -2.40774,-25.99368 -9.29642,-9.29881 -16.85417,-11.90538 -16.85417,-5.81277 0,6.07515 -9.24049,13.97854 -20.53442,17.56309 -16.13082,5.11973 -17.67984,8.3253 -7.22321,14.94796 17.09713,10.82839 29.06482,10.64905 47.01954,-0.7046 z m -36.11607,-26.17814 c 3.97277,-2.22878 7.22321,-9.42717 7.22321,-15.99644 0,-7.97938 -11.1892,-10.63786 -33.70833,-8.00888 -25.38225,2.96323 -33.70833,8.47808 -33.70833,22.32696 0,15.17773 4.62832,17.28544 26.48512,12.06119 14.56681,-3.48179 29.73556,-8.15407 33.70833,-10.38283 z M 216.6661,531.13716 c -3.04753,-4.931 -11.95695,-8.96547 -19.79873,-8.96547 -11.7107,0 -12.03928,2.40017 -1.83934,13.43557 13.21551,14.29794 30.97047,10.63005 21.63807,-4.4701 z m 9.35431,-22.72397 c -10.19902,-7.45772 -20.40109,-11.70209 -22.67124,-9.43193 -2.27015,2.27015 4.21711,10.22932 14.41615,17.68703 10.19902,7.45771 20.40109,11.70208 22.67124,9.43192 2.27015,-2.27015 -4.21711,-10.22931 -14.41615,-17.68702 z m 178.86055,-13.20816 c 0,-14.83167 -5.20072,-32.16739 -11.55714,-38.52381 -13.97374,-13.97374 -55.85953,-15.41808 -55.85953,-1.92619 0,5.29702 6.75667,9.63095 15.01482,9.63095 8.30769,0 12.1405,4.65074 8.58027,10.41132 -3.64504,5.8978 -17.4609,7.79993 -31.86898,4.38764 l -25.43444,-6.02368 28.89286,24.15886 c 15.89107,13.28737 38.64419,24.31471 50.5625,24.50521 17.39525,0.27804 21.66964,-4.97288 21.66964,-26.6203 z m 77.04762,-11.55715 c 0,-5.29702 -4.33393,-9.63095 -9.63096,-9.63095 -5.29702,0 -9.63095,4.33393 -9.63095,9.63095 0,5.29703 4.33393,9.63095 9.63095,9.63095 5.29703,0 9.63096,-4.33392 9.63096,-9.63095 z m -3.13746,-61.70122 c -4.84815,-12.63407 -10.01333,-10.95102 -31.09726,10.1329 -19.69046,19.69047 -22.42873,27.05533 -12.37853,33.29335 17.2164,10.68598 51.21065,-23.26953 43.47579,-43.42625 z m -224.01775,27.28015 c 12.8664,-5.14827 16.35138,-4.00622 11.53848,3.78123 -4.50522,7.28959 -1.7143,9.16905 8.05104,5.42174 20.5914,-7.90165 19.9549,-8.75044 -23.57717,-31.44062 -21.18809,-11.04385 -38.52381,-16.07114 -38.52381,-11.17175 0,4.89938 4.54438,11.71656 10.09861,15.14927 6.7888,4.1957 5.99967,11.28607 -2.40773,21.6335 -13.30173,16.37113 -14.9148,16.5274 34.82058,-3.37337 z M 323.38042,409.008 c -3.59758,-14.56681 -10.49267,-30.52672 -15.32242,-35.46645 -4.90825,-5.02002 -4.60767,5.57153 0.68149,24.01381 5.2046,18.14731 9.4629,34.10721 9.4629,35.46644 0,1.35923 2.6368,2.47132 5.85955,2.47132 3.22274,0 2.91607,-11.9183 -0.68149,-26.48512 z m -24.43994,-10.18289 c 0,-4.27634 -13.0558,-6.87128 -29.01289,-5.76654 -20.18613,1.39752 -33.3715,-4.21417 -43.33929,-18.44517 -11.66156,-16.64921 -14.32639,-17.45705 -14.32639,-4.34298 0,8.86095 7.58438,20.5283 16.85417,25.92746 20.17452,11.75058 69.8244,13.61872 69.8244,2.62723 z m -19.2619,-29.71825 c 0,-18.94556 -24.13599,-33.99995 -39.39293,-24.57064 -14.7529,9.11779 -9.74389,31.50218 8.09233,36.16327 29.44313,7.69431 31.3006,7.00636 31.3006,-11.59263 z m 60.38931,-13.0691 c -4.28222,-17.76285 -2.90423,-19.49921 7.64331,-9.63095 18.48216,17.29187 27.20642,14.84096 21.7291,-6.10434 -3.22965,-12.3502 -10.67727,-16.59157 -23.32582,-13.28391 -23.03589,6.02403 -31.25306,18.45994 -24.25231,36.70362 8.63803,22.51033 23.92904,16.05618 18.20572,-7.68442 z m -127.6585,-15.62569 c 0.11583,10.38205 2.15052,10.11848 9.48347,-1.22847 5.1348,-7.94554 9.40237,-10.66532 9.48348,-6.04395 0.0809,4.62135 5.56489,4.37014 12.18617,-0.55821 6.62128,-4.9284 21.9566,-8.20977 34.07851,-7.29195 12.52425,0.94826 20.47551,-2.96879 18.41658,-9.0727 -1.99278,-5.90781 3.25806,-16.16952 11.66852,-22.8038 13.8549,-10.92893 13.79963,-11.54593 -0.58826,-6.56664 -8.734,3.02263 -19.15496,0.19667 -23.15771,-6.27991 -4.37017,-7.07108 -3.27297,-9.30052 2.74635,-5.58037 5.51325,3.40737 12.36755,-2.76623 15.23179,-13.71912 4.05609,-15.51049 1.63599,-18.67598 -10.94374,-14.31447 -14.67025,5.0863 -14.63654,4.41874 0.36761,-7.27915 12.57406,-9.80332 13.83906,-15.55897 5.29702,-24.10101 -15.16311,-15.16314 -49.19687,-14.12437 -89.54208,2.73294 -37.12255,15.51079 -45.6244,35.2836 -11.72935,27.27903 19.77426,-4.66983 20.22357,-3.95918 5.13696,8.12486 -22.57392,18.08121 -15.63605,49.90385 12.60225,57.80404 21.69184,6.06868 21.84229,6.55059 2.32527,7.44849 -11.47688,0.52797 -22.6883,6.37742 -24.91427,12.9987 -2.22595,6.62128 -9.47092,-10.50871 -16.09993,-38.06665 -13.90896,-57.822 -10.15678,-67.32146 33.8548,-85.71067 52.49181,-21.93248 87.72453,-17.55571 104.82116,13.02137 l 14.80869,26.48512 -2.4624,-33.44659 c -2.20149,-29.90251 -7.18483,-35.39728 -47.02921,-51.85575 -31.44314,-12.98817 -54.84001,-16.48189 -79.45369,-11.86434 -36.85235,6.91355 -83.04499,45.13343 -83.04499,68.71159 0,17.08318 11.3828,18.03538 27.14725,2.27094 9.22966,-9.22966 10.47361,-5.4172 5.82171,17.84232 -8.24284,41.21422 29.10512,116.2593 49.45431,99.37097 10.94563,-9.08407 13.91749,-8.72547 14.03373,1.69338 z m 39.98149,-39.75228 c 4.84774,-14.54323 20.3352,-16.04201 24.87996,-2.40774 2.2071,6.62128 -3.21031,12.03869 -12.03869,12.03869 -8.82838,0 -14.60695,-4.33393 -12.84127,-9.63095 z m -49.75992,-3.69221 c 0,-2.03071 8.67384,-5.96046 19.2752,-8.73278 10.60135,-2.77232 16.84647,-1.11082 13.87803,3.69221 -5.18387,8.38767 -33.15323,12.6401 -33.15323,5.04057 z m 24.07738,-34.8316 c -3.27374,-5.29702 -1.36255,-9.63095 4.24709,-9.63095 5.60963,0 10.19934,4.33393 10.19934,9.63095 0,5.29702 -1.91119,9.63095 -4.24709,9.63095 -2.3359,0 -6.9256,-4.33393 -10.19934,-9.63095 z m 161.49157,50.5625 c -2.62188,-17.21533 -8.6091,-31.3006 -13.30491,-31.3006 -10.75925,0 -10.73211,0.46219 2.20663,37.57828 13.16523,37.76581 17.438,35.34894 11.09828,-6.27768 z m 51.35248,-8.18631 c -3.42758,-8.93214 -8.39894,-14.07329 -11.04745,-11.42478 -2.64851,2.64852 -2.01108,12.12359 1.41649,21.05573 3.42758,8.93214 8.39894,14.07329 11.04745,11.42478 2.64851,-2.64851 2.01109,-12.12359 -1.41649,-21.05573 z m -25.04048,-9.23625 c 0,-13.55517 -3.92706,-22.21871 -8.7268,-19.25231 -4.79974,2.9664 -6.46123,14.057 -3.69221,24.64577 6.92993,26.50005 12.41901,24.11619 12.41901,-5.39346 z m 33.70833,-13.87804 c -3.27374,-5.29702 -11.11388,-9.56458 -17.42255,-9.48347 -6.89207,0.0886 -5.70418,3.87383 2.97612,9.48347 18.50225,11.95707 21.83631,11.95707 14.44643,0 z"
         id="path2834" />
      <path
         style="fill:#191919"
         d="m 349.51229,576.60069 c -17.14536,-37.62998 -69.88505,-92.32858 -83.85371,-86.9683 -7.10848,2.72778 -15.78562,0.33025 -19.28254,-5.32793 -3.49694,-5.65814 -15.85361,-9.85552 -27.4593,-9.32752 -19.35772,0.88066 -19.11181,1.509 2.97612,7.60408 35.92617,9.9137 37.597,50.29191 2.74241,66.27465 -17.24196,7.90639 -27.84688,8.75854 -29.96382,2.40774 -1.80212,-5.40639 -11.69057,-9.82981 -21.9743,-9.82981 -11.209,0 -22.45956,-9.89446 -28.09028,-24.70436 -11.18902,-29.42935 -12.20659,-53.08663 -2.16936,-50.43513 22.5246,5.95025 50.5625,-14.73862 50.5625,-37.30955 0,-21.60442 -3.1039,-23.83053 -26.48512,-18.9951 -14.56682,3.01255 -21.06771,3.12122 -14.44643,0.2415 19.88263,-8.64733 13.58997,-22.8926 -10.1125,-22.8926 -21.90631,0 -45.265478,-15.90411 -45.265478,-30.81905 0,-4.23762 6.746648,-7.70476 14.992548,-7.70476 13.56942,0 13.56942,-2.03179 0,-21.40485 -8.2459,-11.77267 -14.822908,-28.0249 -14.615568,-36.11607 0.20733,-8.09117 6.657918,-0.248 14.334628,17.42922 7.93151,18.26398 19.20357,30.24136 26.10815,27.74183 6.68276,-2.41922 19.76143,2.23253 29.06369,10.33723 22.56724,19.66195 29.26232,10.72646 16.70669,-22.29734 -7.37071,-19.38645 -7.25292,-29.92866 0.41847,-37.45177 7.72594,-7.5766 9.82119,-6.71335 7.58111,3.12346 -1.75543,7.70848 7.32846,16.67457 20.98171,20.70962 22.96291,6.78642 23.07436,7.16022 2.40774,8.0758 -11.9183,0.52797 -21.66964,5.54972 -21.66964,11.15936 0,5.60963 4.33393,7.52083 9.63095,4.24708 5.29702,-3.27374 9.69732,-0.2791 9.77843,6.65483 0.10716,9.16085 2.69953,8.65806 9.48347,-1.83935 5.1348,-7.94554 9.40237,-10.66532 9.48348,-6.04395 0.0809,4.62135 5.56489,4.37014 12.18617,-0.55821 6.62128,-4.9284 22.03107,-8.2062 34.24399,-7.28401 14.55011,1.09867 20.57017,-2.58439 17.46229,-10.68339 -2.60866,-6.79806 1.76761,-14.85847 9.72506,-17.91203 11.30554,-4.33834 12.94169,-0.82846 7.48512,16.05712 -9.64654,29.85158 -13.11459,128.00042 -4.00185,113.25569 5.75105,-9.30538 8.4158,-9.04648 11.99484,1.16536 3.52997,10.07187 11.85623,7.86328 35.76234,-9.48616 27.90261,-20.24983 30.80417,-20.75337 27.74787,-4.81547 -1.92575,10.04235 -17.10691,22.24187 -34.8355,27.99367 -32.29854,10.47877 -32.23083,23.51376 0.12213,23.51376 10.05933,0 15.47638,4.44756 12.09023,9.92647 -3.62837,5.87083 -20.16898,7.29365 -40.48444,3.48244 -24.54025,-4.60378 -32.41447,-3.313 -27.57343,4.51997 3.72686,6.03018 13.277,10.96397 21.22253,10.96397 7.94554,0 11.76792,4.33393 8.49417,9.63096 -3.27374,5.29702 0.80438,9.63095 9.06257,9.63095 8.25814,0 14.54609,3.25045 13.97322,7.22321 -0.57285,3.97277 2.08868,16.93299 5.91459,28.80049 5.65079,17.52808 11.72012,20.44105 32.34219,15.52261 34.48875,-8.22571 39.83243,-11.94648 39.83243,-27.73505 0,-8.54482 -5.76881,-11.36208 -15.56683,-7.60222 -13.45486,5.16311 -13.97927,3.00716 -3.86532,-15.89094 l 11.70152,-21.86449 11.95786,22.81189 c 9.84435,18.77997 9.41258,25.79079 -2.44284,39.66605 -7.92038,9.26979 -20.48566,16.85416 -27.92284,16.85416 -7.43718,0 -10.84362,4.33393 -7.56988,9.63096 9.1379,14.78544 49.79288,11.43246 66.72874,-5.50341 8.32389,-8.32389 15.13435,-10.64334 15.13435,-5.15432 0,25.36871 -80.43285,41.3563 -89.95825,17.88094 -3.87696,-9.55478 -6.6786,-9.49839 -13.57857,0.27333 -6.52058,9.23439 -11.33207,6.52144 -19.24851,-10.85324 z M 216.6661,531.13716 c -3.04753,-4.931 -11.95695,-8.96547 -19.79873,-8.96547 -11.7107,0 -12.03928,2.40017 -1.83934,13.43557 13.21551,14.29794 30.97047,10.63005 21.63807,-4.4701 z m 9.35431,-22.72397 c -10.19902,-7.45772 -20.40109,-11.70209 -22.67124,-9.43193 -2.27015,2.27015 4.21711,10.22932 14.41615,17.68703 10.19902,7.45771 20.40109,11.70208 22.67124,9.43192 2.27015,-2.27015 -4.21711,-10.22931 -14.41615,-17.68702 z m 28.17908,-59.61531 c -16.62205,-13.37136 -16.32095,-13.61958 4.34338,-3.5805 41.42731,20.12606 45.47472,3.0814 4.28154,-18.03064 -22.51235,-11.53787 -40.93155,-22.64444 -40.93155,-24.68124 0,-2.03681 17.33572,-1.37808 38.52381,1.46384 21.26149,2.85176 38.52381,1.11489 38.52381,-3.87613 0,-4.97379 -13.0558,-8.13938 -29.01289,-7.03464 -19.75579,1.36773 -33.35298,-4.18773 -42.61525,-17.41147 -12.37127,-17.66247 -13.5202,-14.48901 -12.69455,35.0636 0.65866,39.53272 4.23105,53.20845 13.01824,49.83649 6.66074,-2.55597 17.68631,2.07129 24.50126,10.2828 8.49706,10.23834 13.5742,11.37988 16.15661,3.63264 2.07119,-6.21356 -4.27129,-17.7627 -14.09441,-25.66475 z m 25.47909,-79.69102 c 0,-18.94556 -24.13599,-33.99995 -39.39293,-24.57064 -14.7529,9.11779 -9.74389,31.50218 8.09233,36.16327 29.44313,7.69431 31.3006,7.00636 31.3006,-11.59263 z m -132.56843,1.78494 c -11.99687,-2.30585 -19.35615,-8.1669 -16.35396,-13.02454 3.00219,-4.85764 -1.63084,-6.11163 -10.29563,-2.78664 -12.60861,4.83838 -13.18922,7.67134 -2.90795,14.18864 7.06542,4.47876 21.51406,7.61935 32.10811,6.97911 16.46977,-0.99534 16.10005,-1.77181 -2.55057,-5.35657 z m 305.92557,123.33943 c -7.94554,-4.15021 -22.85633,-11.78934 -33.13511,-16.97586 -21.47584,-10.8364 -31.58527,-32.1313 -15.25384,-32.1313 6.05105,0 8.62969,3.83835 5.7303,8.52967 -2.8994,4.69131 5.40373,10.57038 18.45138,13.06459 29.7645,5.68985 58.61808,-22.79911 48.33142,-47.72067 -4.77632,-11.57162 -8.57856,-13.26738 -11.60158,-5.17418 -7.38523,19.77161 -17.24353,13.66566 -18.69804,-11.58101 -1.32146,-22.93717 -0.68563,-23.16421 22.4391,-8.01233 20.53362,13.45415 22.91438,20.3097 17.35121,49.96391 l -6.44787,34.37014 21.26158,-19.1278 c 11.69387,-10.52028 24.80927,-27.79565 29.14533,-38.3897 5.30549,-12.9626 8.08339,-14.46764 8.49422,-4.60209 0.63478,15.24455 -53.66411,86.89187 -65.09963,85.89882 -3.58713,-0.3115 -13.02293,-3.96199 -20.96847,-8.11219 z m 28.89286,-10.58335 c 0,-5.29702 -4.33393,-9.63095 -9.63096,-9.63095 -5.29702,0 -9.63095,4.33393 -9.63095,9.63095 0,5.29703 4.33393,9.63095 9.63095,9.63095 5.29703,0 9.63096,-4.33392 9.63096,-9.63095 z M 329.20847,391.32582 c -8.14452,-17.87526 -7.51576,-21.30547 3.15477,-17.21081 9.81136,3.76497 11.89613,-0.80274 7.90359,-17.3165 -4.44992,-18.40558 -3.11414,-20.27022 7.44437,-10.3917 18.60589,17.40764 27.19606,14.80136 21.61078,-6.55678 -5.44665,-20.82802 -28.8606,-17.30207 -48.71185,7.3356 -15.58049,19.33716 -15.21284,11.67123 1.36658,-28.4955 8.54681,-20.70626 11.57753,-50.9657 8.36223,-83.49079 -4.75324,-48.08242 -7.28281,-52.15666 -44.0183,-70.8977 -29.37777,-14.98742 -49.81667,-18.58311 -83.00211,-14.60206 -29.0996,3.4909 -37.49613,2.45163 -24.76495,-3.06526 32.2653,-13.98174 71.10073,-10.6694 110.48618,9.42356 20.61768,10.51835 39.89254,23.01704 42.83303,27.77485 2.9405,4.75781 6.48499,34.8444 7.87667,66.85908 1.78431,41.04725 5.07864,53.44446 11.17389,42.04955 4.75397,-8.88742 9.0879,-16.83703 9.63095,-17.66578 0.54309,-0.82875 20.95653,-4.47877 45.36327,-8.11113 35.88362,-5.34044 45.50812,-3.65375 50.29232,8.81367 7.4202,19.33674 -9.71889,66.44965 -21.52024,59.15602 -4.81315,-2.97469 -28.22678,13.51958 -52.03027,36.65393 -43.11655,41.90448 -43.3173,41.97861 -53.45091,19.73775 z m 58.99144,-78.62734 c -2.62188,-17.21533 -8.6091,-31.3006 -13.30491,-31.3006 -10.75925,0 -10.73211,0.46219 2.20663,37.57828 13.16523,37.76581 17.438,35.34894 11.09828,-6.27768 z m 51.35248,-8.18631 c -3.42758,-8.93214 -8.39894,-14.07329 -11.04745,-11.42478 -2.64851,2.64852 -2.01108,12.12359 1.41649,21.05573 3.42758,8.93214 8.39894,14.07329 11.04745,11.42478 2.64851,-2.64851 2.01109,-12.12359 -1.41649,-21.05573 z m -25.04048,-9.23625 c 0,-13.55517 -3.92706,-22.21871 -8.7268,-19.25231 -4.79974,2.9664 -6.46123,14.057 -3.69221,24.64577 6.92993,26.50005 12.41901,24.11619 12.41901,-5.39346 z m 33.70833,-13.87804 c -3.27374,-5.29702 -11.11388,-9.56458 -17.42255,-9.48347 -6.89207,0.0886 -5.70418,3.87383 2.97612,9.48347 18.50225,11.95707 21.83631,11.95707 14.44643,0 z m -318.7411,27.4048 c -4.25764,-6.88902 -2.64192,-8.50474 4.24709,-4.24709 6.11546,3.77957 11.11902,2.538 11.11902,-2.75902 0,-5.29702 -4.33393,-12.30947 -9.63096,-15.58321 -5.29702,-3.27374 -9.60425,-13.28085 -9.57162,-22.23803 0.0376,-10.30393 5.34379,-6.1533 14.44643,11.30023 7.91291,15.1723 14.3871,31.42453 14.3871,36.11607 0,12.26293 -16.89984,10.51261 -24.99706,-2.58895 z m 122.91174,-8.14289 c 4.84774,-14.54323 20.3352,-16.04201 24.87996,-2.40774 2.2071,6.62128 -3.21031,12.03869 -12.03869,12.03869 -8.82838,0 -14.60695,-4.33393 -12.84127,-9.63095 z m -49.75992,-3.69221 c 0,-2.03071 8.67384,-5.96046 19.2752,-8.73278 10.60135,-2.77232 16.84647,-1.11082 13.87803,3.69221 -5.18387,8.38767 -33.15323,12.6401 -33.15323,5.04057 z m 80.94342,-17.05775 c -4.25765,-6.88902 -2.64193,-8.50474 4.24709,-4.2471 6.63338,4.09965 11.11901,0.66146 11.11901,-8.5226 0,-12.67733 2.36174,-13.20262 13.38062,-2.97613 9.69323,8.99617 10.35675,14.36832 2.40774,19.49414 -15.47923,9.98161 -23.24645,9.0471 -31.15446,-3.74831 z M 173.7381,261.91533 c 0,-5.50816 6.68781,-12.58119 14.8618,-15.71783 22.58821,-8.66792 25.24048,0.68832 3.96211,13.97693 -11.91419,7.44053 -18.82391,8.07956 -18.82391,1.7409 z m 52.97024,0.22065 c -3.27374,-5.29702 -1.36255,-9.63095 4.24709,-9.63095 5.60963,0 10.19934,4.33393 10.19934,9.63095 0,5.29702 -1.91119,9.63095 -4.24709,9.63095 -2.3359,0 -6.9256,-4.33393 -10.19934,-9.63095 z m 60.03293,-20.45699 c 6.53301,-6.58197 14.30429,-9.54111 17.26953,-6.57586 2.96526,2.96524 -2.37992,8.3505 -11.87817,11.96722 -13.72601,5.22657 -14.83226,4.12032 -5.39136,-5.39136 z"
         id="path2832" />
    </g>
    <path
       sodipodi:type="arc"
       style="fill:#ffff00;fill-opacity:1;stroke:none"
       id="path2830"
       sodipodi:cx="88.214287"
       sodipodi:cy="84.98214"
       sodipodi:rx="3.5714285"
       sodipodi:ry="3.6607144"
       d="m 91.785715,84.98214 a 3.5714285,3.6607144 0 1 1 -7.142857,0 3.5714285,3.6607144 0 1 1 7.142857,0 z"
       transform="matrix(0.95121951,0,0,0.95121951,-1.7639367,790.18623)" />
    <path
       transform="matrix(0.63414635,0,0,0.63414635,77.752613,805.7925)"
       d="m 91.785715,84.98214 a 3.5714285,3.6607144 0 1 1 -7.142857,0 3.5714285,3.6607144 0 1 1 7.142857,0 z"
       sodipodi:ry="3.6607144"
       sodipodi:rx="3.5714285"
       sodipodi:cy="84.98214"
       sodipodi:cx="88.214287"
       id="path3606"
       style="fill:#ffff00;fill-opacity:1;stroke:none"
       sodipodi:type="arc" />
  </g>
</svg>
